<svg width="188" height="174" viewBox="0 0 188 174" fill="none" xmlns="http://www.w3.org/2000/svg">
<path d="M111.74 131.19H19.4502C14.2935 131.184 9.34961 129.133 5.70325 125.487C2.05688 121.84 0.00579381 116.896 0 111.74V19.4497C0.00590235 14.293 2.05702 9.34929 5.70337 5.70303C9.34972 2.05677 14.2935 0.00577244 19.4502 0H111.74C116.897 0.00577244 121.84 2.05677 125.487 5.70303C129.133 9.34929 131.184 14.293 131.19 19.4497V111.74C131.184 116.896 129.133 121.84 125.487 125.487C121.841 129.133 116.897 131.184 111.74 131.19Z" fill="#CB1517"/>
<path opacity="0.1" d="M168.48 173.99H76.1902C71.0335 173.984 66.0897 171.933 62.4434 168.287C58.797 164.64 56.7459 159.697 56.74 154.54V62.25C56.7458 57.0933 58.7969 52.1494 62.4432 48.503C66.0896 44.8567 71.0335 42.8056 76.1902 42.7998H168.48C173.637 42.8056 178.581 44.8567 182.227 48.503C185.873 52.1494 187.924 57.0933 187.93 62.25V154.54C187.924 159.697 185.873 164.64 182.227 168.287C178.58 171.933 173.637 173.984 168.48 173.99Z" fill="black"/>
</svg>
