<svg width="300" height="300" viewBox="0 0 300 300" fill="none" xmlns="http://www.w3.org/2000/svg">
<g id="Group 48">
<g id="Group">
<path id="Vector" d="M77.0701 148.503L300 241.057L237.5 268.139L13.3758 175.585L77.0701 148.503Z" fill="#6D6E71"/>
<path id="Vector_2" d="M292.038 241.355V258.02L233.121 283.912V241.355H292.038Z" fill="#424143"/>
<path id="Vector_3" d="M21.3376 178.561V195.226L233.121 283.912V248.2L21.3376 178.561Z" fill="#59595C"/>
<g id="Group_2">
<path id="Vector_4" d="M68.7102 65.4723L237.898 135.409V267.841L68.3121 197.31L68.7102 65.4723Z" fill="white"/>
<path id="Vector_5" d="M68.3121 166.359L109.713 183.62V214.571L112.102 215.463V184.513L151.911 201.179V232.129L154.299 233.022V202.071L194.108 218.737V249.985L196.497 251.176V219.63L241.879 238.379L243.073 236.891L196.497 217.547V158.622L242.277 177.668L243.471 176.18L196.497 156.836V117.255H194.108V155.646L154.299 138.98V100.887L151.911 98.8037V138.087L112.102 121.421V82.7332L109.713 81.5428V120.529L68.3121 103.268V105.351L109.713 122.314V181.537L68.3121 164.276V166.359ZM194.506 186.001L154.697 169.038V155.943L194.506 172.906V186.001ZM112.102 138.087L151.911 155.05V168.145L112.102 151.182V138.087ZM194.506 201.179L154.697 184.215V170.823L194.506 187.786V201.179ZM151.911 183.322L112.102 166.359V152.967L151.911 169.93V183.322ZM151.911 140.17V152.967L112.102 136.004V123.505L151.911 140.17ZM194.506 157.729V170.823L154.697 153.86V141.063L194.506 157.729ZM154.299 199.988V186.298L194.108 203.262V216.654L154.299 199.988ZM112.102 182.43V168.442L151.911 185.406V199.095L112.102 182.43Z" fill="#BCBDBF"/>
<path id="Vector_6" d="M229.538 181.537V208.321L204.857 197.905V171.121L229.538 181.537Z" fill="#333333"/>
<g id="Group_3">
<path id="Vector_7" d="M112.102 121.421V83.0308L154.299 99.9941V108.625L117.675 123.802L112.102 121.421Z" fill="#59595C"/>
<path id="Vector_8" d="M117.675 123.802L154.299 108.625V139.575L117.675 123.802Z" fill="#808184"/>
</g>
<g id="Group_4">
<path id="Vector_9" d="M118.073 84.5188L110.51 81.8404L70.7006 97.9109V140.468L77.8662 143.146L118.073 84.5188Z" fill="#D3D5D5"/>
<path id="Vector_10" d="M118.073 84.5188L77.8663 100.887V143.146L118.073 125.29V84.5188Z" fill="#A4A5A6"/>
</g>
<g id="Group_5">
<g id="boxx">
<g id="boxx_2">
<path id="Vector_11" d="M182.962 96.1252C182.962 96.1252 182.962 96.1252 157.882 86.3044C155.892 85.4116 153.901 85.4116 151.911 86.3044C151.911 86.3044 151.911 86.3044 126.831 96.1252C124.841 97.018 123.646 98.5061 123.646 99.9941C123.646 99.9941 123.646 99.9941 123.646 119.338C123.646 121.124 124.841 122.612 126.831 123.207C126.831 123.207 126.831 123.207 151.911 133.028C153.901 133.921 155.892 133.921 157.882 133.028C157.882 133.028 157.882 133.028 182.962 123.207C184.952 122.314 186.146 120.826 186.146 119.338C186.146 119.338 186.146 119.338 186.146 99.9941C186.545 98.5061 185.35 97.018 182.962 96.1252Z" fill="#FFD200"/>
<path id="Vector_12" d="M135.987 102.375C136.385 102.077 135.589 101.184 136.385 100.887C138.774 99.9941 156.29 92.8516 165.048 89.2804C167.038 90.1732 167.038 90.1732 167.038 90.1732C157.882 86.602 157.882 86.602 157.882 86.602C157.086 86.3044 155.892 86.0068 155.096 86.0068C153.901 86.0068 153.105 86.3044 152.309 86.602C150.717 87.1972 149.124 87.7924 147.532 88.6852C145.143 89.578 143.551 89.8756 141.162 90.7684C140.366 91.066 135.987 92.8516 135.191 93.1492C133.201 93.7444 130.016 95.2324 128.424 95.8276C127.627 96.1252 126.831 96.4228 126.831 97.018C126.433 98.2084 127.229 98.5061 128.424 99.1013C130.414 99.9941 135.987 102.375 135.987 102.375ZM155.096 108.922C156.29 108.922 157.882 108.625 158.678 108.327C163.057 106.541 170.223 103.863 176.592 101.482C178.981 100.589 181.369 99.6965 182.962 99.1013C183.758 98.8037 183.758 98.5061 183.758 97.9109C183.758 97.6133 183.36 97.3156 182.962 97.018L182.564 96.7204C175.796 94.042 175.796 94.042 175.796 94.042C171.815 92.554 171.815 92.554 171.815 92.554C143.551 104.458 141.561 101.482 141.561 101.482C141.561 101.482 142.357 104.458 142.357 105.053L150.717 108.327C152.707 108.922 153.503 108.922 155.096 108.922Z" fill="#FFD200"/>
</g>
<g id="Group_6">
<g id="Group_7">
<path id="Vector_13" d="M159.076 108.327C163.455 106.541 170.621 103.863 176.99 101.482C170.621 103.565 163.455 106.541 159.076 108.327Z" fill="#F0A983"/>
<path id="Vector_14" d="M135.589 102.077L126.433 98.5061L135.589 102.077ZM150.717 108.029L143.153 105.053L150.717 108.029Z" fill="#F09983"/>
</g>
</g>
</g>
<g id="Group_8">
<path id="Vector_15" d="M165.048 89.2804C156.29 92.8516 138.774 99.6965 136.385 100.887C135.589 101.184 134.395 101.482 134.395 102.375C134.395 102.672 134.793 102.97 134.793 103.268C135.191 103.565 135.191 104.16 135.589 104.458C135.987 104.756 136.385 105.053 136.783 105.351C137.978 105.946 139.57 105.946 141.162 105.946C141.56 105.946 141.958 105.946 141.958 105.946C142.357 105.946 141.958 106.244 142.357 105.946C142.755 105.648 142.357 105.053 145.143 103.863C145.541 103.565 152.309 100.887 153.503 100.292C155.493 99.3989 157.086 98.8037 159.076 97.9109C161.465 97.0181 163.853 95.8276 166.242 94.9348C168.232 94.042 170.223 93.1492 172.213 92.2564L165.048 89.2804Z" fill="white"/>
</g>
<g id="Group_9">
<path id="Vector_16" d="M134.395 101.78C133.997 102.077 133.997 102.672 133.997 102.97C133.997 103.863 133.997 105.351 133.997 106.244C133.997 107.136 134.395 107.434 135.191 107.732C136.385 108.327 139.968 109.517 141.162 109.815C141.959 109.815 142.357 109.517 142.755 108.922C142.755 108.624 142.755 108.029 142.755 107.732C142.755 106.839 142.755 105.946 142.755 105.053C142.755 105.351 135.589 102.375 134.395 101.78Z" fill="#FAC1B2"/>
<path id="Vector_17" d="M157.086 134.218C157.484 134.218 157.484 133.921 157.882 133.921C182.962 124.1 182.962 124.1 182.962 124.1C184.952 123.207 186.146 121.719 186.146 120.231C186.146 100.887 186.146 100.887 186.146 100.887C186.146 99.9941 185.748 99.3989 185.35 98.8037H184.952C184.554 98.8037 184.156 98.8037 184.156 99.1013C182.166 99.9941 179.777 100.887 176.99 101.78C170.621 104.16 163.455 106.839 159.076 108.625C158.678 108.625 158.678 108.922 158.28 108.922C156.29 109.517 154.697 111.005 154.697 112.493C154.697 112.791 154.697 112.791 154.697 113.089C154.697 113.386 154.697 113.684 154.697 114.279C154.697 119.041 154.697 127.076 154.697 132.433C155.095 133.028 155.892 133.623 157.086 134.218Z" fill="#FFD200"/>
</g>
</g>
<path id="Vector_18" d="M154.299 138.087L190.127 140.765V100.292L154.299 97.6133V138.087Z" fill="white"/>
</g>
<path id="Vector_19" d="M77.0701 17.5585L300 109.815L237.5 136.897L13.3758 44.3426L77.0701 17.5585Z" fill="#6D6E71"/>
<path id="Vector_20" d="M77.0701 0L300 92.554L237.5 119.636L13.3758 26.7841L77.0701 0Z" fill="#6D6E71"/>
<path id="Vector_21" d="M300 92.554V109.815L237.5 136.897V119.636L300 92.554Z" fill="#424143"/>
<path id="Vector_22" d="M300 109.815L237.5 136.897L237.898 267.841L300 241.95V109.815Z" fill="#BBBDBF"/>
<path id="Vector_23" d="M13.3758 175.287L68.3121 197.012V64.5795L13.3758 42.8546V175.287Z" fill="#CE111E"/>
<path id="Vector_24" d="M13.3758 26.7841V44.3426L237.5 136.897V119.636L13.3758 26.7841Z" fill="#59595C"/>
</g>
<g id="Group_10">
<g id="Group 45">
<g id="Group 41">
<g id="Group 44">
<g id="Group 46">
<g id="Group 47">
<g id="Group 40">
<g id="Group 37">
<g id="Group 36">
<g id="Group 35">
<g id="Logistics_Two Color 1">
<path id="Vector_25" d="M116.02 196.5L120.324 195.346C120.324 195.346 121.3 199.071 116.948 200.292L116.02 196.5Z" fill="#24285B"/>
<path id="Vector_26" d="M73.9376 185.095C73.1409 182.386 73.0614 179.3 73.7162 176.501C74.371 173.702 75.708 171.412 77.4401 170.123C79.13 168.888 80.9426 168.087 82.5581 168.684C85.5396 169.749 91.1654 184.234 94.5935 193.786C95.4586 196.202 96.7963 198.131 98.4139 199.294C100.031 200.457 101.846 200.795 103.595 200.258L116.213 196.378L117.526 201.724L96.8044 212.511C94.8402 213.532 92.695 213.307 90.8371 211.887C83.3826 206.235 77.4139 196.773 73.9376 185.095V185.095Z" fill="#68E1FD"/>
<path id="Vector_27" opacity="0.08" d="M73.9376 185.095C73.1409 182.386 73.0614 179.3 73.7162 176.501C74.371 173.702 75.708 171.412 77.4401 170.123C79.13 168.888 80.9426 168.087 82.5581 168.684C85.5396 169.749 91.1654 184.234 94.5935 193.786C95.4586 196.202 96.7963 198.131 98.4139 199.294C100.031 200.457 101.846 200.795 103.595 200.258L116.213 196.378L117.526 201.724L96.8044 212.511C94.8402 213.532 92.695 213.307 90.8371 211.887C83.3826 206.235 77.4139 196.773 73.9376 185.095V185.095Z" fill="black"/>
<path id="Vector_28" d="M123.166 143.09L92.5632 157.652L101.293 201.707L131.896 187.146L123.166 143.09Z" fill="#FFD200"/>
<path id="Vector_29" opacity="0.08" d="M123.166 143.09L92.5632 157.652L101.293 201.707L131.896 187.146L123.166 143.09Z" fill="black"/>
<path id="Vector_30" d="M109.944 149.377L79.3419 163.939L88.0719 207.994L118.674 193.432L109.944 149.377Z" fill="#FFD200"/>
<path id="Vector_31" opacity="0.45" d="M90.6751 290.252C120.443 290.252 144.574 284.435 144.574 277.26C144.574 270.085 120.443 264.268 90.6751 264.268C60.9075 264.268 36.7761 270.085 36.7761 277.26C36.7761 284.435 60.9075 290.252 90.6751 290.252Z" fill="#E6E6E6"/>
<path id="Vector_32" d="M114.645 245.408C114.645 245.408 115.197 247.708 116.55 247.864C117.903 248.02 118.266 250.055 117.058 250.611C115.849 251.168 112.701 248.8 112.701 248.8L112.771 245.781L114.645 245.408Z" fill="#68E1FD"/>
<path id="Vector_33" d="M82.5931 273.04C82.5931 273.04 82.1553 275.408 83.1973 276.765C84.2393 278.121 83.7489 280.109 82.5625 279.444C81.376 278.779 79.7342 274.017 79.7342 274.017L80.9382 271.642L82.5931 273.04Z" fill="#68E1FD"/>
<path id="Vector_34" d="M65.4747 167.185L68.5131 173.528L65.6323 178.949L61.7183 167.28L65.4747 167.185Z" fill="#F4A28C"/>
<path id="Vector_35" d="M59.017 161.032C59.0638 160.259 59.2344 159.516 59.5134 158.872C59.7924 158.227 60.1709 157.7 60.6145 157.34C61.0581 156.979 61.5528 156.796 62.0536 156.807C62.5545 156.818 63.0457 157.022 63.4826 157.402C65.571 159.173 68.2986 162.3 66.6568 165.584C64.1437 170.618 59.84 165.787 59.84 165.787C59.2684 164.363 58.982 162.708 59.017 161.032Z" fill="#F4A28C"/>
<path id="Vector_36" d="M62.3006 164.2C62.3006 164.2 61.2454 163.521 61.1929 165.258C61.1404 166.995 62.7559 166.968 63.0317 165.977C63.3075 164.987 62.3006 164.2 62.3006 164.2Z" fill="#F4A28C"/>
<path id="Vector_37" d="M59.1045 156.439C57.6291 160.706 56.0399 161.574 58.2289 164.207C60.418 166.839 59.481 170.95 62.5764 169.905C64.5027 169.227 63.6621 166.025 62.7515 163.677C62.4696 162.951 62.316 162.122 62.306 161.274C62.296 160.426 62.43 159.589 62.6946 158.847C63.1105 157.687 63.3907 156.35 62.9573 155.455C62.5238 154.559 59.7963 154.464 59.1045 156.439Z" fill="#24285B"/>
<path id="Vector_38" d="M60.8164 188.114C60.9852 185.676 61.4915 183.323 62.3007 181.215C63.1099 179.108 64.203 177.296 65.5053 175.903C70.5183 170.475 79.9531 159.688 84.769 166.167C91.3756 175.034 93.963 221.71 93.963 221.71L75.7413 233.454C75.7413 233.454 59.376 209.946 60.8164 188.114Z" fill="#68E1FD"/>
<path id="Vector_39" opacity="0.08" d="M66.9588 174.322C66.9588 174.322 67.4404 222.402 93.3063 212.484L93.9543 221.71L75.7413 233.454C75.7413 233.454 65.7592 220.801 61.2936 198.114C61.2936 198.114 59.1045 186.9 63.1192 179.417C64.1497 177.313 65.459 175.576 66.9588 174.322V174.322Z" fill="black"/>
<path id="Vector_40" d="M58.2508 164.207L66.2233 151.601C66.2593 151.541 66.2805 151.463 66.2833 151.381C66.2861 151.299 66.2703 151.218 66.2386 151.152C66.2069 151.086 66.1614 151.039 66.1098 151.02C66.0583 151 66.0039 151.009 65.9562 151.045L63.5964 152.958C63.1972 153.298 62.7537 153.493 62.299 153.531C61.8442 153.569 61.3899 153.447 60.9696 153.175C60.2953 152.632 59.5134 152.503 58.7805 152.816C57.3752 153.684 53.2422 158.908 58.2508 164.207Z" fill="#FFD200"/>
<path id="Vector_41" d="M63.0711 162.565C63.0711 162.565 61.4819 160.36 60.9828 162.606C60.4837 164.851 62.6552 166.127 63.649 164.933C64.6429 163.739 63.0711 162.565 63.0711 162.565Z" fill="#F4A28C"/>
<path id="Vector_42" d="M75.7413 233.454C75.7413 233.454 80.4697 241.14 86.1525 238.162C91.8353 235.184 107.982 219.444 112.386 246.853L115.63 245.984C115.63 245.984 115.792 228.345 109.203 222.022C102.614 215.699 93.9543 221.71 93.9543 221.71L75.7413 233.454Z" fill="#24285B"/>
<path id="Vector_43" d="M77.3175 234.844C77.3175 234.844 90.5263 248.053 79.9881 271.527L82.8821 273.366C82.8821 273.366 96.1915 257.646 88.022 228.454L77.3175 234.844Z" fill="#24285B"/>
<path id="Vector_44" d="M74.822 181.371C74.0241 178.662 73.944 175.575 74.599 172.775C75.2539 169.976 76.5916 167.686 78.3244 166.398C80.0144 165.163 81.8269 164.363 83.4468 164.953C86.424 166.025 92.0498 180.502 95.4779 190.055C96.3436 192.472 97.6819 194.402 99.3001 195.566C100.918 196.73 102.733 197.069 104.484 196.534L117.101 192.667L118.415 198.013L97.6932 208.8C95.729 209.817 93.5854 209.595 91.7259 208.182C84.2694 202.523 78.2996 193.054 74.822 181.371V181.371Z" fill="#68E1FD"/>
<path id="Vector_45" opacity="0.46" d="M74.822 181.371C74.0241 178.662 73.944 175.575 74.599 172.775C75.2539 169.976 76.5916 167.686 78.3244 166.398C80.0144 165.163 81.8269 164.363 83.4468 164.953C86.424 166.025 92.0498 180.502 95.4779 190.055C96.3436 192.472 97.6819 194.402 99.3001 195.566C100.918 196.73 102.733 197.069 104.484 196.534L117.101 192.667L118.415 198.013L97.6932 208.8C95.729 209.817 93.5854 209.595 91.7259 208.182C84.2694 202.523 78.2996 193.054 74.822 181.371V181.371Z" fill="white"/>
<path id="Vector_46" d="M117.281 193.433L121.585 192.273C121.585 192.273 122.561 195.998 118.209 197.219L117.281 193.433Z" fill="#24285B"/>
<path id="Vector_47" opacity="0.22" d="M119.108 145.43L114.953 147.408L117.203 158.764L121.359 156.786L119.108 145.43Z" fill="white"/>
<g id="boxs">
<path id="Vector_48" d="M109.255 109.119L83.1972 121.518L90.6305 159.03L116.688 146.631L109.255 109.119Z" fill="#FFD200"/>
<path id="Vector_49" opacity="0.08" d="M109.255 109.119L83.1972 121.518L90.6305 159.03L116.688 146.631L109.255 109.119Z" fill="black"/>
<path id="Vector_50" d="M97.9936 114.48L71.9363 126.879L79.3696 164.391L105.427 151.992L97.9936 114.48Z" fill="#FFD200"/>
<path id="Vector_51" opacity="0.22" d="M105.371 110.971L101.834 112.653L103.75 122.323L107.287 120.64L105.371 110.971Z" fill="white"/>
</g>
<path id="Vector_52" opacity="0.46" d="M106.841 158.938L100.166 162.115L102.041 171.577L108.716 168.401L106.841 158.938Z" fill="white"/>
<path id="Vector_53" opacity="0.05" d="M78.9286 162.178L115.416 140.231L116.602 146.228L105.429 152.008L79.3401 163.949L78.9286 162.178Z" fill="black"/>
</g>
</g>
</g>
</g>
</g>
</g>
</g>
</g>
</g>
</g>
</g>
</g>
</svg>
