<svg xmlns="http://www.w3.org/2000/svg" xmlns:xlink="http://www.w3.org/1999/xlink" width="218" height="218" viewBox="0 0 218 218">
    <defs>
        <path id="z29bg0xmda" d="M43.466 55.352c-3.11 0-5.856 2.102-6.536 5.004l-25.547 108.47c-.168.684-.269 1.377-.301 2.072-.303 6.496 5.355 11.762 12.637 11.762h170.986c.779 0 1.554-.061 2.315-.184 7.116-1.144 11.596-7.255 10.02-13.65L181.482 60.322c-.949-2.934-3.829-4.97-7.033-4.97H43.466z"/>
        <path id="8x1a97mjgd" d="M0.005 0.075L36.538 0.075 36.538 33.632 0.005 33.632z"/>
        <path id="bowzwlonhf" d="M.005 9.492c.06-1.034.646-1.969 1.558-2.47L13.538.446c.9-.494 1.989-.494 2.889 0L28.4 7.022c.964.53 1.563 1.544 1.563 2.646v12.88c0 1.102-.599 2.117-1.563 2.646L16.427 31.77c-.9.494-1.99.494-2.89 0L1.564 25.194c-.912-.5-1.498-1.436-1.558-2.47"/>
        <path id="rcwdhx12ki" d="M0.004 0.018L23.235 0.018 23.235 24.731 0.004 24.731z"/>
        <path id="k2fphmu9qk" d="M1.212 5.372L10.498.304c.697-.381 1.542-.381 2.24 0l9.285 5.068c1.24.647 1.212 1.19 1.212 2.039v9.927c0 .85-.464 1.631-1.212 2.039l-9.285 5.068c-.345.188-.725.283-1.105.286-.411-.003-.791-.098-1.135-.286l-9.286-5.068C.505 18.991.051 18.27.004 17.474v-10.2c.047-.795.5-1.516 1.208-1.902z"/>
        <path id="77bxg0n2zm" d="M10.38.232c.682-.376 1.235-.11 1.235.592l.007 10.185c0 .703-.551 1.576-1.233 1.952l-9.1 5.012c-.682.375-1.235.11-1.235-.592L.047 7.195c0-.702.551-1.576 1.233-1.951"/>
        <ellipse id="dxbcbfnj2h" cx="29.468" cy="25.822" rx="18.554" ry="18.548"/>
        <circle id="rso4cnjwac" cx="167.119" cy="97.717" r="24.482"/>
    </defs>
    <g fill="none" fill-rule="evenodd">
        <g>
            <g>
                <g transform="translate(-487 -88) translate(487 88) translate(0 10.219)">
                    <path fill="#373737" d="M40.923 50.242c-5.801 0-10.895 4.018-12.262 9.67L.614 173.158c-.37 1.46-.574 2.954-.609 4.452-.26 11.254 8.962 20.378 20.597 20.378h176.79c1.549 0 3.09-.165 4.594-.492 11.298-2.459 18.182-13.355 15.395-24.338L189.334 59.912c-1.367-5.652-6.46-9.67-12.261-9.67H40.923z"/>
                    <mask id="1jvv1llspb" fill="#fff">
                        <use xlink:href="#z29bg0xmda"/>
                    </mask>
                    <use fill="#FADFC7" xlink:href="#z29bg0xmda"/>
                    <g fill="#BFEDAA" mask="url(#1jvv1llspb)">
                        <g>
                            <path d="M132.936 17.064c-1.95-1.959-4.606-3.046-7.363-3.014-5.627.067-10.117 4.685-10.03 10.314l.593 38.195c.049 3.158 1.558 6.12 4.086 8.02l61.397 46.157c2.001 1.505 4.483 2.223 6.973 2.018 5.607-.46 9.761-5.383 9.28-10.994l-2.075-24.167c-.206-2.394-1.249-4.641-2.946-6.346l-59.915-60.183z" transform="translate(1.277 -7.238) rotate(-44 156.726 66.42)"/>
                            <path d="M24.686 154.358l-6.179 2.074c-2.04.685-3.825 1.969-5.122 3.685-3.564 4.72-2.617 11.449 2.117 15.03l46.653 35.303c2.23 1.687 5.001 2.495 7.783 2.268 6.238-.51 10.863-5.979 10.33-12.218l-.914-10.726c-.782-9.163-5.844-17.436-13.656-22.316l-16.281-10.17c-7.404-4.626-16.478-5.7-24.731-2.93z" transform="translate(1.277 -7.238) rotate(-44 45.768 182.8)"/>
                        </g>
                    </g>
                    <path fill="#FBEAD9" d="M40.802 81.31l10.557 30.236c.096.274.306.493.575.6l36.39 14.448c.513.204 1.094-.047 1.298-.56.09-.23.094-.484.008-.716l-11.655-31.54c-.1-.273-.316-.488-.589-.59l-35.29-13.144c-.518-.193-1.094.07-1.287.588-.081.219-.084.459-.007.679z" mask="url(#1jvv1llspb)" transform="rotate(-44 65.254 103.362)"/>
                    <path fill="#FBEAD9" d="M75.826 56.758L80.952 71.611 98.428 78.631 92.771 63.143z" mask="url(#1jvv1llspb)" transform="rotate(-44 87.127 67.695)"/>
                    <path fill="#FBEAD9" d="M84.575 69.86L89.701 84.713 107.177 91.733 101.52 76.245z" mask="url(#1jvv1llspb)" transform="rotate(-44 95.876 80.797)"/>
                    <path fill="#FBEAD9" d="M102.073 82.97L105.05 91.881 115.198 96.093 111.912 86.8z" mask="url(#1jvv1llspb)" transform="rotate(-44 108.635 89.531)"/>
                    <path fill="#FBEAD9" d="M113.739 88.793L116.716 97.704 126.863 101.916 123.578 92.624z" mask="url(#1jvv1llspb)" transform="rotate(-44 120.301 95.355)"/>
                    <path fill="#FBEAD9" d="M123.946 123.732L126.923 132.644 137.07 136.855 133.785 127.563z" mask="url(#1jvv1llspb)" transform="rotate(-44 130.508 130.294)"/>
                    <path fill="#FBEAD9" d="M135.612 129.555L138.588 138.467 148.736 142.679 145.451 133.386z" mask="url(#1jvv1llspb)" transform="rotate(-44 142.174 136.117)"/>
                    <path fill="#FBEAD9" d="M68.535 122.264L75.149 141.572 97.699 150.698 90.399 130.564z" mask="url(#1jvv1llspb)" transform="rotate(-44 83.117 136.48)"/>
                    <path fill="#FBEAD9" d="M96.241 114.262L101.367 129.115 118.843 136.135 113.186 120.647z" mask="url(#1jvv1llspb)" transform="rotate(-44 107.542 125.198)"/>
                    <path fill="#FBEAD9" d="M24.06 122.276L27.037 131.188 37.184 135.4 33.899 126.107z" mask="url(#1jvv1llspb)" transform="rotate(-44 30.622 128.838)"/>
                    <g fill="#FAF3ED" mask="url(#1jvv1llspb)">
                        <g>
                            <path d="M151.205 -40.838L167.524 162.189 171.639 164.74 155.312 -39.87z" transform="translate(-37.469 46.41) rotate(-59 161.422 61.951)"/>
                            <path d="M43.311 6.547L52.354 111.891 56.445 114.44 47.394 7.514z" transform="translate(-37.469 46.41) rotate(-59 49.878 60.493)"/>
                            <path d="M119.871 39.181L126.929 102.016 130.798 102.774 123.073 37.162z" transform="translate(-37.469 46.41) rotate(73 125.334 69.968)"/>
                        </g>
                    </g>
                    <path fill="#A8D9FF" d="M101.058 138.25c-.934.311-1.802.791-2.563 1.415-3.455 2.832-3.954 7.933-1.116 11.393 5.749 7.005 9.826 11.411 12.232 13.217 2.209 1.659 7.06 4.167 14.551 7.527 1.336.598 2.8.849 4.257.727 4.757-.396 8.286-4.573 7.882-9.33-.705-8.313-6.823-15.166-15.005-16.807-1.966-.394-3.064-.662-3.293-.804-.182-.113-.515-.578-1-1.396-3.258-5.487-9.9-7.963-15.945-5.942z" mask="url(#1jvv1llspb)" transform="rotate(-44 115.936 155.055)"/>
                    <path fill="#373737" d="M83.18 52.371l-.508 2.33c-.047.214-.07.432-.07.65 0 1.647 1.302 2.981 2.909 2.981h46.978c.213 0 .425-.024.634-.072 1.568-.358 2.555-1.952 2.205-3.558l-.508-2.33H83.18z" mask="url(#1jvv1llspb)"/>
                    <ellipse cx="166.906" cy="165.416" fill="#DEDEDE" fill-opacity=".3" rx="37.895" ry="13.412"/>
                    <ellipse cx="166.906" cy="165.629" fill="#E5E5E5" rx="28.527" ry="10.645"/>
                    <ellipse cx="166.693" cy="165.629" fill="#DDDED8" rx="18.521" ry="6.813"/>
                    <path fill="#0091CD" d="M167.332 63.867c18.342 0 33.211 15.83 33.211 35.358 0 2.746-.294 5.419-.85 7.984-.814 8.75-5.67 21.349-11.628 32.57-7.299 13.746-16.253 25.424-21.463 25.424-9.472 0-29.982-38.607-31.644-58.055-.548-2.547-.837-5.199-.837-7.923 0-19.527 14.87-35.358 33.211-35.358z"/>
                    <use fill="#FFF" xlink:href="#rso4cnjwac"/>
                    <g>
                        <g transform="translate(152.855 82.176)">
                            <mask id="dea1ounw4e" fill="#fff">
                                <use xlink:href="#8x1a97mjgd"/>
                            </mask>
                            <path fill="#E49264" d="M0 9.596V22.38c0 1.093.597 2.1 1.556 2.626l11.92 6.526c.896.491 1.98.491 2.876 0l11.92-6.526c.96-.526 1.556-1.533 1.556-2.626V9.596c0-1.094-.596-2.101-1.556-2.626L16.352.443c-.896-.49-1.98-.49-2.876 0L1.556 6.97C.596 7.495 0 8.502 0 9.596" mask="url(#dea1ounw4e)"/>
                        </g>
                        <g transform="translate(152.855 82.176)">
                            <mask id="lcc17u0w2g" fill="#fff">
                                <use xlink:href="#bowzwlonhf"/>
                            </mask>
                            <path fill="#E58D68" d="M13.926 31.949c-.132-.05-.262-.11-.388-.179L1.563 25.194C.6 24.664 0 23.65 0 22.548V9.668c0-.483.115-.95.326-1.366.084-.022.171-.033.26-.033.16 0 .322.037.475.117.97.509 2.16 1.142 3.432 1.821 2.966 1.59 6.441 3.462 8.553 4.601.102.055.206.105.31.15.969.42 1.607 1.364 1.6 2.422 0 .129 0 .265-.002.408v.027l-.004.87c-.016 3.128-.032 8.266-.034 11.762 0 .688-.418 1.256-.99 1.502m-5.123-9.206c-.385 0-.735.31-.735.738v2.468c0 .28.158.534.406.659l3.455 1.732c.108.054.22.08.328.08.386 0 .735-.311.735-.738v-2.469c0-.279-.157-.534-.406-.658l-3.455-1.733c-.107-.054-.219-.079-.328-.079m3.163 4.484c-.029 0-.058-.006-.086-.019l-3.078-1.44c-.102-.049-.147-.17-.099-.274.035-.074.11-.118.187-.118.029 0 .058.006.086.019l3.077 1.44c.103.048.147.17.1.274-.036.075-.11.118-.187.118m0-1.234c-.029 0-.058-.006-.086-.02l-3.078-1.44c-.102-.048-.147-.17-.099-.273.035-.075.11-.12.186-.12.03 0 .059.007.087.02l3.077 1.44c.103.049.147.171.1.274-.036.075-.11.119-.187.119" mask="url(#lcc17u0w2g)"/>
                            <path fill="#E58372" d="M30.977 12.57l-.525-1.176c.033.029-.068-.645-.206-1.319-.136-.67-.309-1.34-.422-1.318 0 0-.804-.679-1.3-.407l-11.648 6.38c-.032.02-.065.039-.098.057-1.107.613-1.816 1.76-1.824 3.028-.025 4.089 0 9.734.017 12.562.006 1.042.704 1.953 1.708 2.227l12.145 3.316s3.517-9.424 3.517-9.834c0-.41-1.364-13.517-1.364-13.517" mask="url(#lcc17u0w2g)"/>
                            <path fill="#FFFFFE" d="M23.752 9.925c-1.135-.684-9.388-5.29-13.583-7.629L6.54 4.29l13.48 7.832s.73.495.635 1.775c-.052.742-.154 1.383-.154 1.383s.051.839.664.573 2.502-1.188 2.91-1.444c.41-.256.495-.397.517-1.006 0-.718-.012-1.69-.012-2.188 0-.5-.12-.826-.827-1.29" mask="url(#lcc17u0w2g)"/>
                            <path fill="#E58A6B" d="M14.982 32.14h-.008l.146-.956c.125.331.324.629.58.87-.236.058-.477.087-.718.087" mask="url(#lcc17u0w2g)"/>
                            <path fill="#E58372" d="M15.7 32.054c-.256-.241-.455-.539-.58-.87.931-6.03 2.804-16.87 2.804-16.87l2.612-1.433c.091.26.149.596.118 1.016-.052.742-.154 1.383-.154 1.383s.038.625.443.625c.064 0 .137-.016.221-.052.613-.266 2.502-1.188 2.91-1.444.41-.256.495-.397.517-1.006 0-.718-.012-1.69-.012-2.188 0-.19-.017-.354-.077-.51l1.497-.822s2.048 4.763 3.965 9.289v3.376c0 1.102-.599 2.117-1.563 2.646L16.427 31.77c-.232.128-.477.222-.728.284" mask="url(#lcc17u0w2g)"/>
                            <path fill="#F0B8AB" d="M20.943 15.905c-.405 0-.443-.625-.443-.625s.102-.64.154-1.383c.03-.42-.027-.755-.118-1.016l3.966-2.176c.06.156.077.32.077.51 0 .499.012 1.47.012 2.188-.022.609-.108.75-.516 1.006-.409.256-2.298 1.178-2.911 1.444-.084.036-.157.052-.221.052" mask="url(#lcc17u0w2g)"/>
                            <path fill="#E8A67A" d="M14.892 15.275c-.522 0-1.045-.106-1.535-.317l-.005-.002c-.103-.044-.205-.094-.306-.148-2.027-1.093-5.518-2.98-8.553-4.601C3.34 9.59 2.266 9.015 1.378 8.543.856 8.265.808 7.53 1.292 7.19c.086-.06.177-.117.271-.169L13.538.446c.264-.145.545-.248.833-.308.201-.042.406-.062.611-.062.497 0 .995.123 1.445.37L28.4 7.022l.011.006.003.002c.54.301.53 1.086-.011 1.386l-3.958 2.168c-.116-.212-.325-.417-.694-.66-1.135-.683-9.388-5.29-13.583-7.628L6.54 4.29l13.48 7.832s.277.188.467.631l-3.61 1.977-.003.002-.001.001-.002.002h-.001c-.61.36-1.293.54-1.977.54" mask="url(#lcc17u0w2g)"/>
                            <path fill="#E8A17D" d="M13.357 14.958c-.105-.045-.209-.095-.31-.15-2.113-1.139-5.588-3.011-8.554-4.601 3.035 1.622 6.526 3.508 8.553 4.601.1.054.203.104.306.148l.005.002" mask="url(#lcc17u0w2g)"/>
                            <path fill="#EB9A88" d="M16.872 14.732999999999999h0m.004-.003l3.61-1.977-3.61 1.977m7.57-4.146l3.958-2.168-.003.002-3.955 2.166" mask="url(#lcc17u0w2g)"/>
                            <path fill="#FFFFFE" d="M20.486 12.753c-.19-.443-.468-.63-.468-.63L6.538 4.29l3.631-1.994c4.195 2.338 12.448 6.945 13.583 7.629.37.242.578.447.694.659l-3.96 2.17" mask="url(#lcc17u0w2g)"/>
                            <path fill="#F5D4C1" d="M12.257 28.42c-.108 0-.22-.026-.328-.08l-3.455-1.732c-.248-.125-.406-.38-.406-.659v-2.468c0-.427.35-.738.735-.738.11 0 .22.025.328.08l3.455 1.732c.249.124.406.38.406.658v2.469c0 .427-.35.737-.735.737M8.89 25.376c-.078 0-.152.044-.187.118-.048.103-.003.225.1.274l3.077 1.44c.028.013.057.02.086.02.077 0 .151-.044.186-.12.048-.102.004-.225-.099-.273l-3.077-1.44c-.028-.013-.057-.02-.086-.02m0-1.234c-.078 0-.152.044-.187.119-.048.103-.003.225.1.273l3.077 1.44c.028.014.057.02.086.02.077 0 .151-.044.186-.119.048-.103.004-.225-.099-.273l-3.077-1.44c-.028-.014-.058-.02-.087-.02" mask="url(#lcc17u0w2g)"/>
                        </g>
                    </g>
                    <g transform="translate(34.488)">
                        <ellipse cx="28.74" cy="77.102" fill="#DEDEDE" fill-opacity=".3" rx="28.74" ry="10.183"/>
                        <ellipse cx="28.74" cy="77.102" fill="#E5E5E5" rx="21.464" ry="8.001"/>
                        <ellipse cx="28.74" cy="77.102" fill="#DDDED8" rx="14.188" ry="5.092"/>
                        <path fill="#8ED1E6" d="M29.468 0C43.33 0 54.57 12.045 54.57 26.902c0 2.09-.222 4.126-.643 6.079-.616 6.656-4.285 16.24-8.788 24.777-5.517 10.459-12.285 19.344-16.223 19.344-7.16 0-22.661-29.374-23.917-44.171-.415-1.937-.633-3.956-.633-6.029C4.366 12.045 15.604 0 29.468 0z"/>
                        <use fill="#FFF" xlink:href="#dxbcbfnj2h"/>
                        <g>
                            <g transform="translate(18.19 13.093)">
                                <mask id="5k74qmyswj" fill="#fff">
                                    <use xlink:href="#rcwdhx12ki"/>
                                </mask>
                                <path fill="#FEE9C3" d="M0 7.41v9.928c0 .85.465 1.631 1.212 2.039l9.286 5.068c.697.381 1.542.381 2.24 0l9.285-5.068c.748-.408 1.212-1.19 1.212-2.04V7.412c0-.85.029-1.392-1.212-2.04L12.738.305c-.698-.381-1.543-.381-2.24 0L1.212 5.372C.465 5.78 0 6.562 0 7.41" mask="url(#5k74qmyswj)"/>
                            </g>
                            <g transform="translate(18.19 13.093)">
                                <mask id="dmb7uyr73l" fill="#fff">
                                    <use xlink:href="#k2fphmu9qk"/>
                                </mask>
                                <path fill="#FDD894" d="M10.85 24.602c-.082-.029-.162-.062-.242-.1.106.035.206.051.297.051h.026c-.026.017-.053.034-.08.049m.651-2.091L.038 16.385.035 17.45c-.002.554.327 1.214.79 1.662C.308 18.676 0 18.03 0 17.338V7.41c0-.347.077-.682.22-.985.055-.012.112-.018.17-.018.123 0 .249.029.368.09 2.547 1.328 7.063 3.754 9.294 4.95.077.042.156.08.237.114.747.32 1.242 1.04 1.244 1.85-.006.058-.01.114-.01.17l.001 1.53c-.01 2.116-.018 5.053-.022 7.399" mask="url(#dmb7uyr73l)"/>
                                <path fill="#982A4B" d="M11.548 11.732c-.492 0-.984-.12-1.431-.36-2.274-1.218-6.586-3.526-9.048-4.828-.405-.214-.443-.78-.067-1.042.067-.047.137-.09.21-.13L10.498.304l.037-.02c.339-.177.71-.266 1.083-.266.385 0 .77.095 1.12.286l9.285 5.068.01.005c.42.232.412.84-.01 1.07l-8.936 4.866c-.475.279-1.006.419-1.539.419" mask="url(#dmb7uyr73l)"/>
                            </g>
                            <path fill="#F8C361" d="M22.034 6.718l-9.153 5.04c-.685.378-1.24 1.256-1.24 1.963l.008 10.243c0 .706.556.973 1.241.595.458-.251 9.153-5.04 9.153-5.04.686-.378 1.24-1.256 1.24-1.963l-.007-10.243c0-.706-.556-.973-1.242-.595" transform="translate(18.19 13.093)"/>
                            <g transform="translate(18.19 13.093) translate(11.642 6.546)"/>
                            <path fill="#F9DBA5" d="M23.282 16.002l.001 1.457c0 .715-.552 1.604-1.235 1.986l-9.12 5.102c-.683.382-1.285.154-1.285-.56l-.001-1.457 11.64-6.528" transform="translate(18.19 13.093)"/>
                            <path fill="#982A4B" d="M21.664 17.542l-3.309 2.071c-.09.057-.163.017-.163-.089l-.002-2.585c0-.106.073-.237.164-.294l3.308-2.072c.091-.056.164-.016.164.09l.002 2.584c0 .106-.073.238-.164.295" transform="translate(18.19 13.093)"/>
                            <path fill="#932748" d="M16.735 22.502l-2.907 1.501-.004-4.925c0-.11.093-.248.207-.307l2.493-1.287c.114-.06.207-.018.207.093l.004 4.925" transform="translate(18.19 13.093)"/>
                        </g>
                    </g>
                </g>
            </g>
        </g>
    </g>
</svg>
