<?xml version="1.0" encoding="UTF-8" standalone="no"?>
<!-- Created with Inkscape (http://www.inkscape.org/) -->

<svg
   version="1.1"
   id="svg2"
   xml:space="preserve"
   width="377.94666"
   height="105.78667"
   viewBox="0 0 377.94666 105.78667"
   sodipodi:docname="toom_Baumarkt_Logo_Claim.svg"
   inkscape:version="1.1.1 (1:1.1+202109281949+c3084ef5ed)"
   xmlns:inkscape="http://www.inkscape.org/namespaces/inkscape"
   xmlns:sodipodi="http://sodipodi.sourceforge.net/DTD/sodipodi-0.dtd"
   xmlns="http://www.w3.org/2000/svg"
   xmlns:svg="http://www.w3.org/2000/svg"><defs
     id="defs6" /><sodipodi:namedview
     id="namedview4"
     pagecolor="#ffffff"
     bordercolor="#999999"
     borderopacity="1"
     inkscape:pageshadow="0"
     inkscape:pageopacity="0"
     inkscape:pagecheckerboard="0"
     showgrid="false"
     inkscape:zoom="3.8127074"
     inkscape:cx="188.97333"
     inkscape:cy="52.849584"
     inkscape:window-width="1848"
     inkscape:window-height="1016"
     inkscape:window-x="72"
     inkscape:window-y="27"
     inkscape:window-maximized="1"
     inkscape:current-layer="g8" /><g
     id="g8"
     inkscape:groupmode="layer"
     inkscape:label="ink_ext_XXXXXX"
     transform="matrix(1.3333333,0,0,-1.3333333,0,105.78667)"><g
       id="g10"
       transform="scale(0.1)"><path
         d="M 2605.61,792.848 2453.67,296.043 H 2215.2 l 112.77,368.703 277.64,128.102"
         style="fill:#00813c;fill-opacity:1;fill-rule:nonzero;stroke:none"
         id="path12" /><path
         d="m 306.02,324.883 c -15.649,-8.738 -25.84,-13.047 -45.422,-20.445 -35.133,-12.735 -60.836,-17.379 -97.856,-17.774 -73.2732,-0.75 -122.16,22.789 -131.7068,62.742 -4.8399,21.059 -3.3243,37.102 9.25,80.18 L 74.3164,541.711 0,541.633 14.5234,588.965 328.793,793.352 279.508,641.711 H 398.246 L 370.121,541.828 H 248.848 l -22.735,-74.633 c -7.968,-28.73 -15.351,-62.582 30.528,-65.062 20.761,-1.141 52.074,1.594 78.172,21.984 L 306.02,324.883"
         style="fill:#cf181f;fill-opacity:1;fill-rule:nonzero;stroke:none"
         id="path14" /><path
         d="m 879.57,481.266 c 33.223,102.004 -14.718,192.656 -186.359,192.656 -171.637,0 -278.645,-90.652 -311.863,-192.656 -33.223,-101.969 14.465,-193.328 186.121,-193.328 171.636,0 278.879,91.359 312.101,193.328 m -174.312,0 c -12.676,-38.95 -44.008,-91.934 -104.567,-91.364 -66.011,0.633 -57.746,52.414 -45.07,91.364 12.715,38.964 38.359,90.668 104.367,90.668 66.032,0 57.981,-51.704 45.27,-90.668"
         style="fill:#cf181f;fill-opacity:1;fill-rule:nonzero;stroke:none"
         id="path16" /><path
         d="m 1389.71,296.141 h 164.24 l 61.11,199.547 c 11.73,38.335 34.33,66.027 75.79,66.027 49.78,0 44.34,-31.235 33.7,-66.027 l -61.11,-199.547 h 164.26 l 61.06,199.547 c 11.77,38.335 34.35,66.027 75.82,66.027 49.77,0 44.34,-31.235 33.69,-66.027 l -61.09,-199.547 h 164.24 l 77.4,252.8 c 18.27,59.633 0.93,124.977 -109.38,124.977 -106.99,0 -156.49,-53.258 -164.44,-57.527 -8.6,36.941 -52.05,57.527 -98.5,57.527 -59.73,0 -112.64,-15.629 -158.85,-58.238 H 1646 l 15,49.008 H 1502.54 L 1389.71,296.141"
         style="fill:#cf181f;fill-opacity:1;fill-rule:nonzero;stroke:none"
         id="path18" /><path
         d="m 1410.84,481.266 c 33.23,102.004 -14.72,192.656 -186.36,192.656 -171.63,0 -278.64,-90.652 -311.859,-192.656 -33.223,-101.969 14.465,-193.328 186.119,-193.328 171.64,0 278.88,91.359 312.1,193.328 m -174.31,0 c -12.68,-38.95 -38.56,-91.364 -104.57,-91.364 -66.01,0 -57.74,52.414 -45.07,91.364 12.7,38.964 38.38,90.668 104.37,90.668 66.03,0 57.98,-51.704 45.27,-90.668"
         style="fill:#cf181f;fill-opacity:1;fill-rule:nonzero;stroke:none"
         id="path20" /><path
         d="m 2635.47,792.941 199.18,-128.496 -112.7,-368.39 H 2483.5 l 151.97,496.886"
         style="fill:#cf181f;fill-opacity:1;fill-rule:nonzero;stroke:none"
         id="path22" /><path
         d="M 39.8398,42.7695 H 0.00390625 L 51.707,212.52 h 58.156 c 32.594,0 44.953,-13.129 34.602,-46.844 -5.531,-18.125 -13.738,-31.016 -32.789,-38.711 l -0.039,-0.453 c 10.176,-2.5 15.804,-10.176 12.91,-21.946 -3.07,-13.5972 -11.668,-42.7847 -12.676,-53.648 0.258,-2.2657 0.75,-4.2891 1.949,-5.8867 l -0.668,-2.2618 H 69.7148 c -0.1562,3.168 -0.0976,6.336 0.6719,9.7422 3.875,14.918 9.0117,28.9688 11.1172,39.3828 2.0859,10.4105 0.9063,17.1995 -8.0703,17.8675 h -13.125 z m 29.8555,97.5585 h 13.5625 c 11.5508,0 17.5152,10.629 20.5272,21.039 6.16,20.153 -1.91,21.059 -21.4139,20.586 L 69.6953,140.328"
         style="fill:#393536;fill-opacity:1;fill-rule:nonzero;stroke:none"
         id="path24" /><path
         d="M 179.582,100.258 172.77,78.0781 c -2.004,-7.0078 -0.727,-12.8906 7.144,-13.3633 13.07,-0.6718 15.313,11.336 19.25,21.9649 h 35.738 c -7.988,-32.5938 -30.207,-47.5313 -61.699,-47.9844 -25.82,-0.2344 -45.207,10.4102 -36.41,39.3828 l 15.863,51.6019 c 9.801,32.593 33.657,43.218 61.524,43.457 25.371,0.215 45.758,-9.27 37.336,-36.664 l -11.063,-36.215 z m 32.078,23.754 3.86,12.461 c 1.335,4.523 0.984,12.89 -8.305,12.89 -10.176,0 -15.235,-8.129 -17.871,-16.965 l -2.578,-8.386 h 24.894"
         style="fill:#393536;fill-opacity:1;fill-rule:nonzero;stroke:none"
         id="path26" /><path
         d="m 321.246,131.941 c 0.844,4.313 2.164,8.602 1.555,12.004 -0.375,3.172 -2.422,5.434 -8.309,5.434 -7.023,0 -12.969,-3.168 -15.25,-10.649 -1.988,-6.789 2.676,-10.175 7.184,-12.89 20.054,-10.649 43.258,-16.746 34.125,-46.8595 -8.719,-28.2813 -33.813,-40.2891 -60.301,-40.2891 -28.52,0 -44.578,12.2227 -34.051,42.7891 h 34.387 c -1.516,-4.3086 -2.422,-9.0547 -1.637,-12.9102 0.789,-3.6211 3.289,-6.1015 8.699,-6.1015 7.696,0 14.172,3.8359 16.731,11.9843 1.043,3.8594 0.473,7.461 -1.813,9.7422 -12.179,7.6953 -30.703,13.1289 -38.101,26.0197 -3.875,7.023 -4.547,14.484 -1.633,23.773 8.188,27.375 33.477,39.145 58.609,39.145 26.254,0 43.375,-13.125 33.536,-41.192 h -33.731"
         style="fill:#393536;fill-opacity:1;fill-rule:nonzero;stroke:none"
         id="path28" /><path
         d="m 415.02,169.512 -4.586,-15.391 h 0.453 c 10.668,12.676 22.535,18.559 35.031,19.012 23.754,0 23.617,-23.535 17.691,-43.453 L 450.031,85.7695 C 443.516,64.2773 430.82,39.5977 404.254,38.6914 c -6.359,-0.2148 -16.633,3.6211 -21.375,16.082 h -0.453 L 365.836,0 H 329.84 l 51.683,169.512 z m 10.39,-46.621 c 2.281,7.476 6.457,20.82 -3.957,20.82 -9.723,0 -14.976,-10.176 -18.598,-22.418 l -9.093,-29.8555 c -3.5,-10.8633 -4.899,-23.5391 3.957,-23.3203 11.535,0 15.293,13.7969 17.636,21.9609 l 10.055,32.8129"
         style="fill:#393536;fill-opacity:1;fill-rule:nonzero;stroke:none"
         id="path30" /><path
         d="m 509.762,100.258 -6.809,-22.1799 c -2.008,-7.0078 -0.726,-12.8906 7.145,-13.3633 13.07,-0.6718 15.293,11.336 19.226,21.9649 h 35.762 C 557.074,54.0859 534.875,39.1484 503.387,38.6953 477.566,38.4609 458.18,49.1055 466.977,78.0781 L 482.84,129.68 c 9.801,32.593 33.652,43.218 61.523,43.457 25.348,0.215 45.739,-9.27 37.332,-36.664 l -11.058,-36.215 z m 32.082,23.754 3.855,12.461 c 1.34,4.523 0.985,12.89 -8.304,12.89 -10.176,0 -15.235,-8.129 -17.872,-16.965 l -2.578,-8.386 h 24.899"
         style="fill:#393536;fill-opacity:1;fill-rule:nonzero;stroke:none"
         id="path32" /><path
         d="M 570.973,42.7695 622.672,212.52 h 36 l -26.02,-85.34 h 0.453 l 37.649,42.336 h 39.383 l -51.348,-50.914 13.125,-75.8325 h -37.785 l -6.121,48.8868 -8.68,-8.1485 -12.359,-40.7383 h -35.996"
         style="fill:#393536;fill-opacity:1;fill-rule:nonzero;stroke:none"
         id="path34" /><path
         d="m 709.75,143.484 7.832,26.039 h 14.27 l 11.039,36.211 h 36 l -11.063,-36.211 h 17.199 l -7.832,-26.039 H 759.996 L 739.547,76.7266 c -2.242,-7.2422 0.551,-8.836 5.293,-8.836 4.133,0.6875 5.473,0.4532 9.332,0.4532 l -7.777,-25.3516 c -8.028,-1.1211 -15.825,-2.0274 -23.735,-2.0274 -19.465,0 -26.922,9.961 -21.058,29.1875 L 724,143.484 h -14.25"
         style="fill:#393536;fill-opacity:1;fill-rule:nonzero;stroke:none"
         id="path36" /><path
         d="m 764.434,20.3633 c 6.593,0.2148 11.984,2.5 16.648,6.3359 4.883,3.836 8.348,9.5039 10.766,16.0586 h -20.586 l 11.73,38.7149 h 38.242 L 809.484,42.543 C 802.32,19.0039 783.07,9.04688 760.516,7.47266 l 3.918,12.89064"
         style="fill:#393536;fill-opacity:1;fill-rule:nonzero;stroke:none"
         id="path38" /><path
         d="m 1004.88,87.5859 h 0.45 l 34.98,81.9301 h 34.4 L 1011.59,42.7695 h -38.453 l 9.937,65.8555 h -0.453 L 951.625,42.7695 h -38.477 l 14.446,126.7465 h 34.855 l -14.82,-81.9301 h 0.453 l 38.141,81.9301 h 30.767 l -12.11,-81.9301"
         style="fill:#393536;fill-opacity:1;fill-rule:nonzero;stroke:none"
         id="path40" /><path
         d="m 1101.1,100.258 -6.81,-22.1799 c -2.01,-7.0078 -0.73,-12.8906 7.14,-13.3633 13.07,-0.6718 15.31,11.336 19.25,21.9649 h 35.74 c -7.99,-32.5938 -30.21,-47.5313 -61.7,-47.9844 -25.82,-0.2344 -45.21,10.4102 -36.41,39.3828 l 15.86,51.6019 c 9.81,32.593 33.66,43.218 61.53,43.457 25.37,0.215 45.76,-9.27 37.33,-36.664 l -11.06,-36.215 z m 32.08,23.754 3.86,12.461 c 1.33,4.523 0.98,12.89 -8.31,12.89 -10.17,0 -15.23,-8.129 -17.87,-16.965 l -2.58,-8.386 h 24.9"
         style="fill:#393536;fill-opacity:1;fill-rule:nonzero;stroke:none"
         id="path42" /><path
         d="m 1234.93,169.512 -5.86,-19.246 h 0.45 c 8.27,13.597 19.78,22.867 34.72,22.867 l -12.38,-40.738 c -3.33,0.687 -6.93,0.906 -10.55,0.906 -10.18,0 -14.9,-2.028 -18.82,-12.442 l -23.73,-78.0934 h -36 l 38.68,126.7464 h 33.49"
         style="fill:#393536;fill-opacity:1;fill-rule:nonzero;stroke:none"
         id="path44" /><path
         d="m 1276.99,154.578 c 12.95,0.453 22.56,9.051 25.55,21.727 h -19.01 l 11.06,36.215 h 35.74 l -11.06,-36.45 c -6.87,-22.851 -23.64,-32.808 -46.17,-34.406 l 3.89,12.914"
         style="fill:#393536;fill-opacity:1;fill-rule:nonzero;stroke:none"
         id="path46" /><path
         d="m 1370.85,131.941 c 0.85,4.313 2.16,8.602 1.55,12.004 -0.37,3.172 -2.42,5.434 -8.3,5.434 -7.03,0 -12.97,-3.168 -15.25,-10.649 -1.99,-6.789 2.67,-10.175 7.18,-12.89 20.06,-10.649 43.26,-16.746 34.13,-46.8595 -8.72,-28.2813 -33.82,-40.2891 -60.31,-40.2891 -28.51,0 -44.57,12.2227 -34.04,42.7891 h 34.38 c -1.52,-4.3086 -2.42,-9.0547 -1.63,-12.9102 0.78,-3.6211 3.28,-6.1015 8.69,-6.1015 7.7,0 14.17,3.8359 16.73,11.9843 1.05,3.8594 0.48,7.461 -1.81,9.7422 -12.18,7.6953 -30.7,13.1289 -38.1,26.0197 -3.88,7.023 -4.55,14.484 -1.63,23.773 8.18,27.375 33.47,39.145 58.61,39.145 26.25,0 43.37,-13.125 33.53,-41.192 h -33.73"
         style="fill:#393536;fill-opacity:1;fill-rule:nonzero;stroke:none"
         id="path48" /><path
         d="m 1530.17,131.941 c 0.85,4.313 2.15,8.602 1.56,12.004 -0.38,3.172 -2.44,5.434 -8.33,5.434 -7,0 -12.97,-3.168 -15.23,-10.649 -1.99,-6.789 2.68,-10.175 7.16,-12.89 20.08,-10.649 43.28,-16.746 34.15,-46.8595 -8.72,-28.2813 -33.83,-40.2891 -60.3,-40.2891 -28.52,0 -44.6,12.2227 -34.07,42.7891 h 34.4 c -1.53,-4.3086 -2.42,-9.0547 -1.63,-12.9102 0.79,-3.6211 3.27,-6.1015 8.7,-6.1015 7.69,0 14.17,3.8359 16.73,11.9843 1.02,3.8594 0.47,7.461 -1.83,9.7422 -12.17,7.6953 -30.69,13.1289 -38.09,26.0197 -3.87,7.023 -4.54,14.484 -1.65,23.773 8.21,27.375 33.5,39.145 58.63,39.145 26.26,0 43.36,-13.125 33.52,-41.192 h -33.72"
         style="fill:#393536;fill-opacity:1;fill-rule:nonzero;stroke:none"
         id="path50" /><path
         d="m 1604.4,100.258 -6.81,-22.1799 c -2.01,-7.0078 -0.73,-12.8906 7.14,-13.3633 13.07,-0.6718 15.31,11.336 19.25,21.9649 h 35.74 c -7.99,-32.5938 -30.21,-47.5313 -61.7,-47.9844 -25.82,-0.2344 -45.21,10.4102 -36.41,39.3828 l 15.86,51.6019 c 9.81,32.593 33.66,43.218 61.53,43.457 25.37,0.215 45.76,-9.27 37.33,-36.664 l -11.06,-36.215 z m 32.08,23.754 3.86,12.461 c 1.33,4.523 0.98,12.89 -8.31,12.89 -10.17,0 -15.23,-8.129 -17.87,-16.965 l -2.58,-8.386 h 24.9"
         style="fill:#393536;fill-opacity:1;fill-rule:nonzero;stroke:none"
         id="path52" /><path
         d="m 1670.14,42.7695 51.7,169.7505 h 35.98 l -51.7,-169.7505 h -35.98"
         style="fill:#393536;fill-opacity:1;fill-rule:nonzero;stroke:none"
         id="path54" /><path
         d="m 1802.89,159.105 h 0.46 c 8.91,10.864 20.76,14.032 31.17,14.032 23.76,0 23.62,-23.539 17.7,-43.457 l -13.56,-43.9066 c -6.52,-21.4921 -19.23,-46.1718 -45.78,-47.0781 -11.28,0.4531 -20.65,6.7891 -22.97,18.5586 h -0.43 l -4.53,-14.4844 h -33.48 l 51.7,169.7505 h 35.98 z m 11.12,-36.214 c 2.29,7.476 6.44,20.586 -3.97,20.586 -9.72,0 -14.96,-9.938 -18.58,-22.18 l -9.09,-29.8556 c -3.51,-10.8672 -4.9,-23.5391 3.95,-23.3242 11.54,0 15.3,13.7969 17.64,21.9648 l 10.05,32.809"
         style="fill:#393536;fill-opacity:1;fill-rule:nonzero;stroke:none"
         id="path56" /><path
         d="m 1897.01,100.258 -6.81,-22.1799 c -2.01,-7.0078 -0.73,-12.8906 7.15,-13.3633 13.06,-0.6718 15.31,11.336 19.24,21.9649 h 35.74 c -7.99,-32.5938 -30.21,-47.5313 -61.7,-47.9844 -25.82,-0.2344 -45.2,10.4102 -36.41,39.3828 l 15.87,51.6019 c 9.8,32.593 33.65,43.218 61.52,43.457 25.37,0.215 45.76,-9.27 37.34,-36.664 l -11.07,-36.215 z m 32.08,23.754 3.86,12.461 c 1.34,4.523 0.98,12.89 -8.31,12.89 -10.17,0 -15.23,-8.129 -17.87,-16.965 l -2.58,-8.386 h 24.9"
         style="fill:#393536;fill-opacity:1;fill-rule:nonzero;stroke:none"
         id="path58" /><path
         d="m 2030.84,169.512 -5.87,-19.246 h 0.46 c 8.28,13.597 19.78,22.867 34.71,22.867 l -12.36,-40.738 c -3.34,0.687 -6.94,0.906 -10.57,0.906 -10.17,0 -14.89,-2.028 -18.79,-12.442 l -23.76,-78.0934 h -35.97 l 38.65,126.7464 h 33.5"
         style="fill:#393536;fill-opacity:1;fill-rule:nonzero;stroke:none"
         id="path60" /><path
         d="m 2164.14,169.512 -4.53,-14.699 h 0.45 c 9.43,11.531 22.68,17.652 32.48,18.32 11.83,0.672 20.92,-6.102 21.76,-16.746 h 0.44 c 9.88,11.316 21.04,16.746 31.21,16.746 16.97,0 29.46,-9.27 24.25,-26.469 L 2238.39,42.7656 h -35.97 l 27.61,90.5354 c 1.46,5.883 0.55,10.863 -6.28,10.41 -6.36,-0.234 -10.98,-3.859 -12.95,-10.41 l -27.63,-90.5354 h -35.98 l 27.63,90.5354 c 0.5,5.429 0.73,10.41 -5.39,10.41 -7.22,0 -11.41,-3.621 -13.85,-10.41 l -27.62,-90.5354 h -35.99 l 38.67,126.7464 h 33.5"
         style="fill:#393536;fill-opacity:1;fill-rule:nonzero;stroke:none"
         id="path62" /><path
         d="m 2320.92,54.0859 c -12.24,-9.957 -21.57,-15.3906 -35.82,-15.3906 -20.37,0 -28.83,13.7969 -22.65,33.9492 8.75,28.7345 27.25,37.7895 44.47,43.0035 17.23,5.215 33.44,6.79 37.65,20.372 2.01,7.003 -0.13,13.125 -7.38,13.125 -13.12,0 -16,-9.051 -19.93,-19.68 h -35.98 c 4.17,15.844 12.2,26.687 23.26,33.715 11.06,7.023 24.23,9.957 38.72,9.957 35.52,0 45.16,-10.864 36.7,-38.696 l -23.71,-77.6402 c -1.34,-4.7617 -1.56,-9.5039 -1.3,-14.0313 h -35.09 z m 13.93,50.2461 c -8.52,-3.859 -15.49,-5.8867 -21,-9.289 -5.51,-3.1485 -10.66,-7.6758 -13.28,-16.2774 -2.54,-7.9336 0.55,-13.5781 9.15,-13.5781 10.65,0 16.2,11.0781 18.97,19.2266 l 6.16,19.9179"
         style="fill:#393536;fill-opacity:1;fill-rule:nonzero;stroke:none"
         id="path64" /><path
         d="m 2455.79,122.438 0.43,2.261 c 0.67,4.766 2.48,9.742 3.15,14.489 -0.19,5.214 -1.99,7.91 -7.42,7.91 -9.27,0 -13.11,-7.243 -15.45,-15.391 l -16.16,-52.2734 c -2.32,-7.9102 -2.04,-14.7188 7.25,-14.7188 13.34,0 17,19.9336 19.91,29.4415 h 34.86 c -2.26,-7.4766 -8.05,-23.3243 -12.06,-30.1133 -9.61,-15.8438 -25.45,-23.086 -41.45,-24.6602 -3.41,-0.2344 -6.85,-0.6875 -12.28,-0.6875 -25.79,0 -41.35,10.4102 -32.56,39.3828 l 15.87,51.6019 c 9.82,32.593 29.83,43.457 57.66,43.457 35.49,-0.453 44.93,-15.844 32.2,-50.699 h -33.95"
         style="fill:#393536;fill-opacity:1;fill-rule:nonzero;stroke:none"
         id="path66" /><path
         d="m 2558.57,159.555 h 0.45 c 11.62,10.644 21.18,13.578 31.36,13.578 17.43,0 25.11,-12.438 19.97,-28.735 L 2579.43,42.7656 h -35.97 l 27.57,90.0824 c 2.03,7.242 1.46,10.863 -6.91,10.863 -7.93,0 -12.63,-7.008 -14.58,-13.344 l -26.69,-87.6014 h -35.98 l 51.71,169.7504 h 35.99 l -16,-52.961"
         style="fill:#393536;fill-opacity:1;fill-rule:nonzero;stroke:none"
         id="path68" /><path
         d="m 2624.3,143.484 7.83,26.039 h 14.27 l 11.04,36.211 h 36 l -11.06,-36.211 h 17.2 l -7.83,-26.039 h -17.21 L 2654.1,76.7266 c -2.25,-7.2422 0.55,-8.836 5.29,-8.836 4.13,0.6875 5.47,0.4532 9.33,0.4532 l -7.8,-25.3516 c -8.01,-1.1211 -15.8,-2.0274 -23.71,-2.0274 -19.46,0 -26.92,9.961 -21.06,29.1875 l 22.4,73.3317 h -14.25"
         style="fill:#393536;fill-opacity:1;fill-rule:nonzero;stroke:none"
         id="path70" /><path
         d="m 2685.8,42.7695 11.73,38.711 h 38.24 l -11.73,-38.711 h -38.24"
         style="fill:#393536;fill-opacity:1;fill-rule:nonzero;stroke:none"
         id="path72" /></g></g></svg>
