<svg xmlns="http://www.w3.org/2000/svg" width="318" height="385" viewBox="0 0 318 385">
    <g fill="none" fill-rule="evenodd">
        <path fill="#BEBFBA" d="M275.548 297.29c-.03-2.628-1.343-5.227-3.985-6.687l-.116-.058-59.27-32.472L152.91 225.6c-.978-.54-1.985-1.022-3.007-1.43-2.087-.862-4.262-1.475-6.465-1.826-1.212-.204-2.423-.32-3.634-.365v.146c-.35-.014-.701-.014-1.051-.014-4.919 0-9.837 1.212-14.288 3.65L6.042 290.632c-.934.511-1.824 1.066-2.685 1.665-4.787 3.343-4.306 10.6.86 13.33 31.409 16.66 86.387 46.212 115.401 61.805 11.895 6.395 26.256 6.103 37.873-.774l113.97-62.272c2.7-1.475 4.072-4.176 4.087-6.877v-.219z" opacity=".5" transform="translate(.5)"/>
        <path fill="#ED856C" fill-rule="nonzero" d="M.657 160.71v117.493c0 10.06 5.473 19.302 14.303 24.135l109.504 59.98c8.23 4.512 18.185 4.512 26.416 0l109.504-59.98c8.815-4.833 14.303-14.09 14.303-24.135V160.71c0-10.046-5.473-19.303-14.303-24.135L150.88 76.596c-8.231-4.512-18.185-4.512-26.416 0L14.96 136.576C6.13 141.408.657 150.666.657 160.71" transform="translate(.5)"/>
        <path fill="#F2B182" fill-rule="nonzero" d="M260.486 136.634l-.102-.058-109.504-59.98c-4.028-2.205-8.465-3.33-12.916-3.373h-.599c-4.451.044-8.888 1.168-12.916 3.373L85.51 97.927l1.722-.949-43.667 23.916-28.62 15.682c-.861.467-1.693.978-2.481 1.533-2.029 1.416-3.036 3.606-3.065 5.796v.205c.03 2.51 1.343 4.993 3.853 6.336 8.1 4.293 17.893 9.52 28.401 15.141 27.599 14.718 59.371 31.83 77.965 41.831.044.03.102.044.146.073.058.03.131.073.19.103 5.152 2.774 10.785 4.175 16.448 4.248h.876c5.808-.073 11.602-1.562 16.827-4.467l.876-.497 69.223-37.83 36.238-19.799c2.452-1.387 3.707-3.855 3.707-6.337v-.073c0-2.423-1.211-4.847-3.663-6.205z" transform="translate(.5)"/>
        <path fill="#EE966B" fill-rule="nonzero" d="M128.01 363.953c-1.211-.452-2.393-.993-3.546-1.635L14.96 302.338C6.144 297.505.657 288.248.657 278.203V160.71c0-4.41 1.05-8.659 2.977-12.455.7-.19 1.43-.292 2.16-.306h.438c1.386.029 2.788.38 4.13 1.065 8.845 4.629 19.703 10.382 31.306 16.558 26.985 14.425 58.612 31.42 77.965 41.83.043.03.102.045.146.074.058.029.131.073.19.102.919.496 1.853.95 2.787 1.358 8.888 3.825 14.74 12.44 14.683 22.105-.015 1.212-.015 2.512-.03 3.87v.102c-.015 2.117-.03 4.278-.03 6.483-.145 28.383-.291 76.303-.306 108.746-.014 6.278-3.823 11.462-9.063 13.71" transform="translate(.5)"/>
        <path fill="#FADED5" fill-rule="nonzero" d="M128.01 363.953c-1.211-.452-2.393-.993-3.546-1.635L14.96 302.338C6.144 297.505.657 288.248.657 278.203c0 10.06 5.473 19.302 14.303 24.135l109.504 59.98c1.138.628 2.335 1.183 3.546 1.635" transform="translate(.5)"/>
        <g fill-rule="nonzero">
            <path fill="#FFF" d="M82.854 3.446C86.882 1.24 91.32.116 95.77.073c-4.451.044-8.888 1.168-12.916 3.373" transform="translate(.5) translate(41.595 73.15)"/>
            <path fill="#F1AD87" d="M78.374 134.447c-.059-.03-.132-.075-.19-.105.058.045.117.075.19.105m-.336-.178C58.67 123.859 27.058 106.863.073 92.437c27.599 14.703 59.357 31.83 77.965 41.832" transform="translate(.5) translate(41.595 73.15)"/>
        </g>
        <path fill="#FFF" fill-rule="nonzero" d="M220.176 204.34c.045-.014.075-.044.12-.074-.03.03-.075.06-.12.075" transform="translate(.5)"/>
        <g fill-rule="nonzero">
            <path fill="#999B9E" d="M42.266 53.045c-.525-1.884-.759-3.417-1.197-5.271-.043-.205 2.7-1.373 3.05-1.519 5.27-2.453 10.567-4.876 15.865-7.315 16.273-7.475 32.56-14.966 48.834-22.441.394-.19.803-.365 1.197-.54.117.029.233.043.35.073-.292.73-.452 1.489-.89 2.175-1.547 2.438-4.058 4.439-6.597 6.424-6.772 5.286-13.777 10.382-21.994 14.557-10.975 5.578-22.739 9.914-35.13 13.243-.262.059-3.152.54-3.488.614zm15.368-9.74c-1.649-.569-3.896-.014-4.933 1.213-1.05 1.255-.51 2.832 1.197 3.416 1.679.584 4-.014 4.992-1.285.963-1.24.394-2.774-1.256-3.343z" transform="translate(.5) translate(205.785 298.878)"/>
            <path fill="#999B9E" d="M55.898 53.716c.014-.102-7.341 2.41-7.341 2.322.204-1.752.452-3.504.685-5.242.103-.818.22-1.635.322-2.467.058-.424.204-.614.452-1.023.365-.554.38-1.168.657-1.752.452-.949 1.518-1.737 2.641-2.38.672-.38 1.402-.73 2.204-.905.861-.175 1.752-.131 2.598-.014 1.547.219 2.977.686 4.189 1.343.16.087.32.19.35.321.03.117-.03.234-.088.365-1.663 3.3-3.123 6.643-5.079 9.9-.072.116-1.094 2.16-1.182 1.898-.802-2.41-.686-2.658-.408-2.366z" transform="translate(.5) translate(205.785 298.878)"/>
            <path fill="#8A2A1C" d="M66.347 60.68c-2.802-1.24-5.925-1.78-9.471-1.445-1.81.16-2.233-.32-1.504-1.562.292-.496.584-.993.92-1.591l-.394-2.38s-8.509 7.709-9.954 10.118c-1.547 2.57-1.722 8.352-4.641 7.71-3.27-.73-2.029 7.139 1.036 10.074 3.153 3.007 7.794 4.03 13.325 3.226 5.43-.788 9.37-3.139 11.661-6.818 1.27-2.044 2.408-4.118 3.532-6.205 2.394-4.38.555-8.878-4.51-11.126zm-.175 9.447c-.89 2.818-2.306 5.607-4.801 8.104-.438.438-1.022.788-1.372 1.066-3.211 1.912-6.466 2.57-9.822 1.547-3.562-1.08-5.444-3.153-4.904-6.03.569-2.993 2.204-5.928 4.714-8.527 2.656-2.774 7.312-3.883 11.121-2.978 3.853.92 6.071 3.62 5.064 6.818zM36.487 48.153c-.292-1.708-1.066-3.226-2.394-4.599-3.955-4.059-11.749-4.993-18.316-2.073-2.846 1.255-5.62 2.613-8.392 3.942-1.912.92-2.802 3.723-4.627 3.519-4.29-.497-2.962 8.629.993 11.826 3.649 2.95 10.23 3.797 15.879 1.709 3.43-1.256 6.611-2.95 9.822-4.527 4.043-2 8.042-4.044 12.8-4.92.058-.015.102-.088.204-.175-.452-1.62-.905-3.285-1.401-5.096-.847.409-1.503.73-2.16 1.037-1.43.7-2.204.51-2.408-.643zm-9.545 6.936c-2.613 1.474-5.459 2.803-8.392 3.898-4.452 1.68-9.545.657-11.705-2.117-1.547-1.986-1.211-4.088.292-6.351 1.226-.876 2.335-1.87 3.707-2.6 2.13-1.138 4.393-2.175 6.699-3.124 4.977-2.044 10.683-1.08 12.741 2.088 1.708 2.599.452 6.074-3.342 8.206z" transform="translate(.5) translate(205.785 298.878)"/>
            <path fill="#C7C8CA" d="M41.858 50.65c-.526-1.883-.76-3.417-1.198-5.27-.043-.205 2.7-1.373 3.051-1.52 5.269-2.452 10.567-4.876 15.865-7.314 16.273-7.476 32.56-14.966 48.833-22.442.394-.19.803-.365 1.197-.54.117.03.234.044.35.073-.291.73-.452 1.49-.89 2.176-1.547 2.438-4.057 4.438-6.597 6.424-6.772 5.285-13.777 10.381-21.994 14.557-10.975 5.577-22.738 9.914-35.13 13.243-.247.073-3.137.555-3.487.613zm15.368-9.724c-1.65-.57-3.897-.015-4.933 1.212-1.051 1.255-.511 2.832 1.197 3.416 1.678.584 3.998-.014 4.99-1.284.979-1.242.395-2.775-1.254-3.344z" transform="translate(.5) translate(205.785 298.878)"/>
            <path fill="#A7A9AC" d="M66.202 35.246c-.584 1.08-1.124 2.161-1.752 3.242-.35.598-.744 1.168-1.182 1.737-.598.789-.613 1.708-1.197 2.526-.365.526-.773 1.051-1.386 1.446-.511.32-1.168.569-1.43 1.007-.322.555.19 1.168-.132 1.723-.175.321-.598.555-1.007.73-1.532.657-3.415.803-4.933.38-1.518-.424-2.642-1.388-2.933-2.556-.103-.423-.103-.861-.073-1.3.175-2.423 1.62-4.774 2.597-7.153 3.737-9.068 9.443-17.58 17.47-25.45C73.09 8.79 75.936 5.986 78.986 3.3c1.197-1.051 2.92-1.825 4.466-2.672.467-.263 1.124-.336 1.912-.555-.219.438-.335.7-.467.95-6.232 11.402-12.478 22.805-18.695 34.223z" transform="translate(.5) translate(205.785 298.878)"/>
            <path fill="#A7A9AC" d="M48.119 53.935c.014-.102.014-.19.029-.292.204-1.752.452-3.504.686-5.241.102-.818.219-1.636.32-2.468.06-.423 2.117-5.738 2.365-6.147.365-.555 2.131.19 2.408-.38.453-.949-2.145 2.015-1.021 1.373.671-.38 1.4-.73 2.204-.905.86-.176 1.75-.132 2.597-.015 1.547.22 2.978.686 4.19 1.343.16.088.831-4.76.875-4.613.029.116 2.452.481 2.393.598-1.663 3.3-6.144 11.345-8.085 14.6-.073.118-.905 1.899-1.182 1.899-2.657.117-5.196.175-7.78.248z" transform="translate(.5) translate(205.785 298.878)"/>
            <path fill="#97999C" d="M58.466 41.627c1.153.993.847 2.628-.671 3.577-1.562.978-3.926.934-5.108-.073-1.182-1.022-.832-2.701.759-3.636 1.576-.92 3.867-.861 5.02.132z" transform="translate(.5) translate(205.785 298.878)"/>
            <path fill="#B83E2F" d="M65.939 58.3c-2.802-1.24-5.926-1.78-9.472-1.445-1.81.161-2.233-.32-1.503-1.562.292-.496.583-.993.92-1.591-2.686.073-5.153.146-7.765.233-.03 2.672-1.139 5.096-2.584 7.505l-4.64 7.71c-2.22 3.693-2.03 7.139 1.036 10.074 3.152 2.993 7.793 4.03 13.325 3.226 5.429-.788 9.37-3.139 11.66-6.818 1.27-2.044 2.409-4.117 3.533-6.205 2.393-4.38.569-8.892-4.51-11.126zm-.175 9.448c-.89 2.817-2.306 5.606-4.802 8.103-.438.438-1.022.788-1.372 1.066-3.21 1.913-6.465 2.57-9.822 1.547-3.561-1.08-5.444-3.153-4.904-6.03.57-2.993 2.204-5.928 4.714-8.526 2.656-2.775 7.312-3.884 11.121-2.979 3.853.905 6.072 3.621 5.065 6.819zM36.093 45.773c-.292-1.708-1.066-3.226-2.394-4.599-3.955-4.059-11.749-4.993-18.316-2.073-2.846 1.256-5.62 2.613-8.392 3.942-1.912.92-3.43 2.117-4.627 3.519-3.342 3.942-2.962 8.629.993 11.826 3.648 2.95 10.23 3.797 15.879 1.709 3.43-1.256 6.611-2.95 9.822-4.527 4.043-2 8.042-4.044 12.8-4.92.058-.015.102-.088.204-.175-.453-1.62-.905-3.285-1.401-5.096-.847.409-1.503.73-2.16 1.037-1.43.7-2.219.51-2.408-.643zm-9.56 6.936c-2.612 1.474-5.458 2.803-8.392 3.898-4.451 1.68-9.545.657-11.705-2.117-1.547-1.986-1.211-4.088.292-6.351 1.226-.876 2.335-1.87 3.707-2.6 2.131-1.138 4.393-2.175 6.7-3.124 4.976-2.044 10.682-1.08 12.74 2.088 1.723 2.6.467 6.074-3.342 8.206z" transform="translate(.5) translate(205.785 298.878)"/>
        </g>
        <path fill="#ED856C" d="M159.929 151.79c-.248.277-.511.54-.788.803-.234.248-.467.481-.701.715l46.411 27.712 1.08-1.766-46.002-27.464z" transform="translate(.5)"/>
        <path fill="#F1C9A6" d="M207.785 178.012l-46.557-27.8c-.394.555-.818 1.081-1.285 1.592l45.93 27.42" transform="translate(.5)"/>
        <g fill-rule="nonzero" transform="translate(.5) translate(95.011)">
            <ellipse cx="36.545" cy="52.753" fill="#BCBBB5" rx="25.964" ry="32.049"/>
            <path fill="#FFF" d="M84.27 26.53C72.652 6.395 53.927-4.555 42.44 2.073L8.552 19.755l7.59 13.155 15.543-1.11 18.316 24.413-3.94 28.515 4.583 7.943L83.51 75.53c.35-.16.686-.336 1.036-.54 11.457-6.63 11.34-28.326-.277-48.46z"/>
            <path fill="#DAD9D6" d="M50.38 44.211C38.765 24.077 20.04 13.126 8.553 19.755c-11.47 6.629-11.354 28.325.263 48.46C20.433 88.349 39.158 99.3 50.644 92.67c11.471-6.629 11.354-28.325-.263-48.46zm-9.077 32.297c-6.392 3.694-16.813-2.41-23.279-13.608-6.465-11.213-6.538-23.288-.146-26.968 6.393-3.694 16.814 2.41 23.279 13.608 6.465 11.2 6.538 23.274.146 26.968z"/>
        </g>
        <path fill="#F2F2F2" fill-rule="nonzero" d="M57.883 113.433l96.091 52.767 34.093-20.397c-10.377-6.234-56.058-30.997-94.413-52.329l-33.203 18.178" transform="translate(.5)"/>
        <g fill-rule="nonzero">
            <path fill="#EDEDEE" d="M130.272 52.344c-4.13-2.482-13.806-7.87-26.402-14.82 2.905 6.76 6.86 16.046 10.363 24.412l16.04-9.592z" transform="translate(.5) translate(57.795 93.445)"/>
            <path fill="#FFF" d="M35.86.03L2.655 18.206.088 19.974l73.878 40.575 21.702-27.537C77.761 23.142 55.825 11.126 35.86.03z" transform="translate(.5) translate(57.795 93.445)"/>
            <path fill="#E2E1E0" d="M114.233 61.951c-3.503-8.366-7.458-17.652-10.363-24.412-2.612-1.446-5.356-2.95-8.202-4.527L45.77 45.058l50.41 27.683 18.054-10.79z" transform="translate(.5) translate(57.795 93.445)"/>
        </g>
        <path fill="#FFF" fill-rule="nonzero" d="M154.178 70.317L153.974 166.2 188.067 145.789 188.067 53.439z" transform="translate(.5)"/>
    </g>
</svg>
