<svg xmlns="http://www.w3.org/2000/svg" width="384" height="384" viewBox="0 0 384 384">
    <g fill="none" fill-rule="evenodd" transform="translate(0 48)">
        <path fill="#BEBFBA" fill-opacity=".5" d="M150.572 178.56l151.733 27.444c16.823 3.043 27.99 19.13 24.944 35.932-1.571 8.667-6.77 16.253-14.29 20.854-43.803 26.801-97.335 32.563-145.85 15.699L44.598 235.903c-3.765-1.31-5.755-5.418-4.445-9.179.673-1.932 2.137-3.487 4.026-4.278l104.247-43.65c.678-.285 1.423-.366 2.146-.235z" style="mix-blend-mode:multiply"/>
        <path fill="#000" d="M123.304 234.952l160.343-2.452L309 250.537l-23.454 16.866c-.88.634-1.984.855-3.034.61-9.87-2.31-15.488-3.466-16.852-3.466-1.362 0-2-.653-5.825 1.4-4.917 2.64-13.523 8.407-19.015 11.559-2.384 1.368-5.05 3.166-7.195 3.852-3.09.99-5.327.545-5.995.526-5.996-.175-16.103-4.378-36.831-12.259-11.465-4.358-35.562-13.29-72.291-26.793-.01-1.48-.01-2.473 0-2.977.023-1.18.064-1.745.342-2.101.457-.584 1.942-1.518 4.454-2.802zM320.49 226.729l32.01-17.479v3.986c0 .39-.219.752-.575.948L318.75 232.5l1.74-5.771z"/>
        <path fill="#3B3F3B" d="M114 225.75l115.569 36.78 53.749-29.458 6.182 8.684-57.616 30.06c-.93.485-2.02.567-3.013.228L119.104 234.58c-2.689-.917-4.586-3.312-4.85-6.12L114 225.75z"/>
        <path fill="#020302" d="M215.25 258.75l4.5 1.667v6.701c0 .933-.78 1.719-1.821 1.834l-2.679.298v-10.5z"/>
        <path fill="#353835" d="M201.75 254.25l15 4.909v7.526c0 1.003-.846 1.815-1.89 1.815-.227 0-.452-.04-.664-.116l-9.502-3.42c-1.771-.638-2.944-2.263-2.944-4.078v-6.636z"/>
        <path fill="#020202" d="M203.25 256.5l12 3.811v5.985c0 .389-.331.704-.74.704-.085 0-.17-.014-.25-.042l-9.301-3.2c-1.026-.353-1.709-1.28-1.709-2.32V256.5z"/>
        <path fill="#A2A7A2" d="M206.25 257.25l9 3.199v5.051l-8.52-3.084c-.287-.104-.48-.387-.48-.706v-4.46z"/>
        <path fill="#000" d="M206.25 258l9 2.98v4.52l-8.484-2.86c-.309-.104-.516-.391-.516-.714V258z"/>
        <path fill="#2FB1F3" d="M96.628 122.537L110.25 148.974 109.277 156.75 92.25 121.5z"/>
        <path fill="#262926" d="M207.75 259.5L215.25 262.02 215.25 264 207.75 261.48z"/>
        <path fill="#56BAFB" d="M328.359 174.75l18.58 4.029c1.055.228 1.811 1.19 1.811 2.305 0 1.152-.69 2.182-1.733 2.586-3.043 1.18-6.069 2.344-9.079 3.493-2.736 1.046-5.566 2.12-8.49 3.222-.946.357-1.993-.147-2.338-1.125-.094-.268-.129-.554-.1-.838l1.349-13.672z"/>
        <path fill="#47A7E8" d="M324.985 188.561L349.1 180l3.4 28.761-26.109 15.328c-3.098 1.82-7.111.828-8.964-2.213-.928-1.522-1.172-3.353-.675-5.058l8.233-28.257z"/>
        <path fill="#000" d="M103.058 120.611L114.75 128.296 113.894 148.709 111.156 150.75 94.5 119.25z"/>
        <path fill="#000" d="M113.035 118.5c50.76 10.46 89.045 17.606 114.857 21.439 4.933.732 9.61 43.35 15.162 44.068 9.873 1.276 20.215-15.181 32.046-13.952 6.932.72 17.982-10.16 30.84-9.018 4.889.435 13.159-2.968 24.81-10.209l-11.454 57c-17.75 10.752-31.712 19.146-41.886 25.182-10.173 6.036-23.964 14.373-41.372 25.011-2.367 1.682-4.248 2.646-5.642 2.893-1.394.247-3.217-.037-5.47-.85L111.75 222.29l1.285-103.79z"/>
        <path fill="#4D524F" d="M231 147.066L332.25 144l-8.201 66.235c-.149 1.199-.867 2.255-1.934 2.842L231 263.25V147.066z"/>
        <path fill="#05133C" d="M256.5 164.211l.672-2.353c.626-.413 1.018-.749 1.177-1.009.159-.26 1-.652 2.522-1.177l4.875-.672.504 14.793-9.75 4.707v-14.289z"/>
        <path fill="#4C5F9A" d="M248.155 167.25L256.5 167.25 256.009 180.75 247.5 180.75z"/>
        <path fill="#051032" d="M259.078 159.75l4.922.86-6.234 2.745h1.707l-1.707 1.036-.985 3.609h-8.531c.403-2.849 2.294-5.222 4.898-6.146l5.93-2.104z"/>
        <path fill="#0B205D" d="M251.535 162l7.965.816-1.825.989-1.053 3.445H247.5l.197-1.241c.306-1.934 1.816-3.511 3.838-4.009z"/>
        <path fill="#0A1F5A" d="M258.75 162.75v15.607l-3 1.643.357-12.369c.058-2.016 1.056-3.858 2.643-4.881z"/>
        <path fill="#80DCF5" d="M256.5 149.25l49.292 7.337 17.458 69.79c-.328 7.278-.841 12.283-1.54 15.016-1.753 6.852-5.265 12.181-7.531 14.505-.454.465-.945.95-1.472 1.452-5.264 5.022-13.614 4.839-18.652-.409-1.482-1.544-2.564-3.425-3.153-5.48L256.5 149.25z"/>
        <path fill="#4D524F" d="M113.752 120.75L229.5 141.894 225.042 262.5 112.5 225.622z"/>
        <path fill="#4A90E2" d="M267.951 11.863l-3.934 9.294c-.17.403-.308.82-.411 1.245-8.412 34.744-16.229 61.277-23.45 79.597-5.503 13.958-12.07 26.726-19.701 38.304-4.296 6.518-12.228 9.573-19.75 7.608C111.68 124.643 46.26 107.96 4.448 97.867c-2.59-.625-4.185-3.245-3.564-5.851.202-.849.628-1.626 1.232-2.252L81.934 7.128l179.52-4.875c3.788-.103 6.941 2.904 7.046 6.717.024.992-.162 1.98-.549 2.893z"/>
        <path fill="#4D524F" d="M114 126.75l-.905 96.75-1.63-.684-2.715-55.212 2.64-34.906c.167-2.197 1.082-4.284 2.61-5.948z"/>
        <path fill="#2FB1F3" d="M84.041 4.43L260.82 1.5c3.357-.055 6.124 2.618 6.181 5.97.02 1.244-.342 2.464-1.039 3.495l-67.395 99.824c-5.289 7.834-14.648 11.894-23.992 10.408L3.203 93.94C1.13 93.61-.282 91.665.048 89.596c.116-.727.44-1.404.935-1.95l70.112-77.352C74.412 6.635 79.1 4.512 84.041 4.43z"/>
        <path fill="#000" d="M239.333 160.397L240 198.33l-7.333 64.37-2.044.467c-.624.143-1.275.098-1.876-.13l-2.247-.852L230.833 141l8.5 19.397z"/>
        <path fill="#4D524F" d="M237.833 160.397l.667 37.934-7.333 64.37-2.044.467c-.624.143-1.275.098-1.876-.13l-2.247-.852L229.333 141l8.5 19.397z"/>
        <path fill="#000" d="M77.25 119.25L82.5 120.375 79 123.75z"/>
        <path fill="#4A90E2" d="M3.75 97.5l179.22 29.131L205.5 148.5l-86.37-15.151-14.034-7.89-25.843-4.512 1.198 2.584-49.216-8.365c-1.628-.277-3.177-.907-4.54-1.846L3.75 97.5z"/>
        <path fill="#588DCC" d="M381.096 8.989l2.871 31.534c.136 1.489-.148 2.987-.818 4.322L331.1 148.592c-4.831 9.63-15.395 14.928-25.97 13.023-19.442-3.501-35.336-6.318-47.68-8.45-12.12-2.093-21.753-3.72-28.896-4.88-4.172-.678-8.074-2.509-11.268-5.287-2.078-1.808-4.538-4.026-7.38-6.654-2.811-2.6-7.971-6.84-10.09-9.44-1.508-1.851-2.363-4.655-2.565-8.41 1.71-3.318 6.556-11.042 14.537-23.171 7.98-12.13 35.4-41.708 82.26-88.737l20.18-4.806c34.318-.687 53.758-1.03 58.318-1.03 4.56 0 7.41 2.746 8.551 8.239z"/>
        <path fill="#000" d="M371.807 46.5c.76 0 1.693-2.737 1.693-4.918s-.383-3.332-1.143-3.332-1.857 2.579-1.857 4.76c0 2.18.547 3.49 1.307 3.49z"/>
        <path fill="#47A7E8" d="M282.668 2.158l87.14-2.155c4.413-.11 8.08 3.353 8.19 7.733.034 1.387-.298 2.76-.964 3.98l-62.471 114.378c-4.9 8.97-14.943 13.922-25.104 12.376l-86.5-13.161c-4.155-.632-7.007-4.489-6.37-8.614.17-1.104.585-2.157 1.215-3.083L268.288 9.974c3.238-4.76 8.595-7.673 14.38-7.816z"/>
        <path fill="#323532" d="M279.639 33.002l56 1.2c1.05.023 1.883.9 1.861 1.958-.007.315-.09.623-.244.898l-47.75 85.587c-1.61 2.884-4.807 4.482-8.06 4.029l-58.555-8.17c-1.04-.145-1.767-1.112-1.623-2.16.038-.276.135-.54.284-.774l49.885-78.17c1.79-2.803 4.895-4.469 8.202-4.398z"/>
        <path fill="#68C1FC" d="M289.432 17.25l56.658.079c1.056.001 1.912.833 1.91 1.857 0 .367-.113.725-.324 1.03l-.065.093c-1.285 1.856-3.448 2.962-5.755 2.94l-57.471-.524c-.912-.009-1.644-.731-1.635-1.615.004-.433.19-.845.513-1.144l.62-.571c1.497-1.38 3.484-2.148 5.55-2.145z"/>
        <path fill="#585B58" d="M281.171 42l45.085 1.113c.422.01.754.35.744.76-.004.127-.04.252-.108.361l-11.07 18.042c-.291.476-.83.754-1.399.721l-45.564-2.587c-.21-.012-.37-.187-.358-.392.003-.062.023-.122.057-.175l10.95-16.974c.357-.555.99-.885 1.663-.868zM259.572 70.514l8.2.511c1.308.082 2.304 1.227 2.223 2.559-.025.42-.158.828-.386 1.18l-.228.352c-1.25 1.935-3.43 3.031-5.7 2.868l-8.786-.633c-1.271-.091-2.23-1.215-2.14-2.51.03-.424.173-.833.412-1.181 1.452-2.112 3.878-3.304 6.405-3.146zM279.912 72.014l8.019.5c1.364.085 2.4 1.244 2.314 2.59-.026.41-.158.809-.383 1.157l-.294.454c-1.207 1.867-3.357 2.93-5.598 2.769l-8.736-.629c-1.327-.096-2.324-1.233-2.227-2.54.03-.416.171-.815.408-1.16 1.448-2.107 3.92-3.301 6.497-3.14zM301.212 72.766l8.368.55c1.424.093 2.505 1.366 2.415 2.844-.028.453-.165.89-.4 1.272l-.365.594c-1.224 1.994-3.403 3.13-5.675 2.957l-9.224-.7c-1.385-.105-2.425-1.355-2.324-2.792.032-.456.179-.895.426-1.273 1.511-2.316 4.09-3.629 6.78-3.452zM254.322 80.264l8.2.511c1.308.082 2.304 1.227 2.223 2.559-.025.42-.158.828-.386 1.18l-.228.352c-1.25 1.935-3.43 3.031-5.7 2.868l-8.786-.633c-1.271-.091-2.23-1.215-2.14-2.51.03-.424.173-.833.412-1.181 1.452-2.112 3.878-3.304 6.405-3.146zM273.162 81.764l8.019.5c1.364.085 2.4 1.244 2.314 2.59-.026.41-.158.809-.383 1.157l-.294.454c-1.207 1.867-3.357 2.93-5.598 2.769l-8.736-.629c-1.327-.096-2.324-1.233-2.227-2.54.03-.416.171-.815.408-1.16 1.448-2.107 3.92-3.301 6.497-3.14zM293.712 84.016l8.368.55c1.424.093 2.505 1.366 2.415 2.844-.028.453-.165.89-.4 1.272l-.365.594c-1.224 1.994-3.403 3.13-5.675 2.957l-9.224-.7c-1.385-.105-2.425-1.355-2.324-2.792.032-.456.179-.895.426-1.273 1.511-2.316 4.09-3.629 6.78-3.452zM248.165 90.789l7.412.766c1.484.153 2.562 1.478 2.408 2.958-.043.417-.183.818-.409 1.172l-.442.692c-1.168 1.829-3.279 2.832-5.438 2.586l-8.87-1.01c-1.285-.147-2.207-1.305-2.06-2.587.042-.374.175-.732.386-1.044l.267-.393c1.497-2.208 4.089-3.415 6.746-3.14zM267.434 93.03l7.338.658c1.646.147 2.862 1.617 2.716 3.282-.04.455-.18.894-.412 1.286l-.572.97c-1.14 1.93-3.294 3-5.499 2.733l-9.464-1.147c-1.27-.154-2.176-1.32-2.024-2.607.043-.362.168-.71.367-1.014l.458-.7c1.557-2.384 4.28-3.713 7.092-3.46zM288.41 94.544l7.296.764c1.72.18 2.962 1.668 2.775 3.324-.048.43-.192.843-.42 1.214l-.64 1.036c-1.124 1.821-3.257 2.833-5.441 2.58l-8.89-1.03c-1.612-.187-2.763-1.597-2.569-3.15.052-.416.2-.816.432-1.171l.092-.141c1.573-2.404 4.432-3.734 7.365-3.426zM240.6 101.295l6.74.699c1.476.153 2.548 1.474 2.396 2.952-.044.423-.188.83-.419 1.187l-6.326 9.762c-1.18 1.82-3.285 2.814-5.437 2.568l-8.97-1.026c-1.29-.147-2.216-1.314-2.069-2.605.043-.371.173-.727.38-1.038l5.855-8.8c1.728-2.596 4.75-4.02 7.85-3.7zM261.76 103.527l7.82.66c1.612.137 2.802 1.487 2.658 3.015-.038.406-.17.8-.386 1.151l-.449.732c-1.135 1.849-3.321 2.881-5.561 2.627l-9.54-1.084c-1.277-.145-2.188-1.244-2.035-2.455.041-.33.16-.646.348-.925l.38-.565c1.457-2.167 4.066-3.384 6.766-3.156zM255.112 114.025l6.625.606c1.366.125 2.375 1.362 2.253 2.763-.032.372-.144.733-.327 1.056l-.091.16c-1.138 2.005-3.328 3.124-5.573 2.849l-6.942-.854c-1.28-.157-2.194-1.349-2.04-2.662.041-.357.16-.7.35-1.003l.013-.022c1.234-1.986 3.445-3.102 5.732-2.893zM284.184 105.056l6.074.644c1.842.195 3.172 1.81 2.972 3.605-.054.483-.218.949-.48 1.363l-6.132 9.691c-1.167 1.845-3.328 2.86-5.536 2.601l-9.173-1.075c-1.655-.195-2.836-1.66-2.637-3.274.054-.436.207-.855.448-1.225l5.196-7.983c1.986-3.052 5.58-4.738 9.268-4.347z"/>
        <path fill="#323532" d="M98.116 18h119.366c.838 0 1.518.676 1.518 1.51 0 .318-.101.628-.29.886l-56.981 78.05c-1.465 2.008-3.915 3.062-6.39 2.75L36.663 86.228c-.416-.052-.71-.43-.658-.844.019-.147.082-.286.18-.399L92.38 20.601C93.823 18.95 95.915 18 98.116 18z"/>
        <path fill="#585B58" d="M98.521 19.5H215.24c.42 0 .76.339.76.757 0 .16-.05.315-.145.444l-56.038 76.863c-1.141 1.565-3.049 2.387-4.977 2.144L39.332 85.12c-.208-.027-.355-.216-.329-.423.01-.074.04-.144.09-.2l54.834-62.91c1.155-1.326 2.831-2.087 4.594-2.087z"/>
        <path fill="#000" d="M22.888 104.387c1.974.232 3.513.452 4.617.663 1.105.21 2.754.596 4.947 1.158 4.72 1.966 7.688 3.456 8.904 4.47.55.458 1.305.994 1.65 1.49.278.401.443 1.012.494 1.832h-1.31c-.047-.01-.952-.168-.999-.177-3.075-.602-7.466-1.383-8.574-1.655-.643-.158-2.072-.655-4.287-1.49-.817-.54-1.697-1.042-2.639-1.506-1.978-.977-4.762-3.229-4.946-3.46-.66-.828-.66-.993 0-1.325.365-.183 1.08-.183 2.143 0zM128.538 120.568c8.458 1.372 14.345 2.286 17.66 2.743 3.314.457 11.315 1.885 24.002 4.285 4.115 1.029 6.973 2 8.573 2.914.865.494 4.666 2.492 6.858 4.114 1.68 1.244 4.235 3.523 4.115 3.943-.229.8-.972 1.085-2.229.857-14.584-2.404-22.985-3.775-25.203-4.114-2.898-.443-26.62-4.868-30.862-6.171-5.94-1.825-8.247-4.08-8.801-4.512-1.98-1.547-6.38-4.64-4.4-5.259 1.096-.342 4.525.058 10.287 1.2z"/>
        <path fill="#47A7E8" d="M227.25 144L294 155.244l-.22.243c-5.683 6.298-14.327 9.18-22.736 7.578l-33.875-6.452c-4.377-.834-7.853-4.107-8.888-8.369L227.25 144z"/>
        <path fill="#000" d="M330.333 122.25c1.197 0 2.667-2.59 2.667-5.167s-.637-3.833-1.833-3.833c-1.197 0-2.667 3.09-2.667 5.667s.637 3.333 1.833 3.333z"/>
        <ellipse cx="340.5" cy="179.625" fill="#000" rx="3.75" ry="1.125"/>
        <path fill="#000" d="M233.121 134.785c9.9 1.52 16.518 2.496 19.857 2.93 3.338.434 13.52 1.954 30.547 4.558 5.756.76 9.44 1.574 11.05 2.442.872.47 2.642 1.064 4.849 2.605 1.692 1.182 1.33 1.83 1.209 2.23-.223.732-4.79.571-13.7-.485-.63-.074-1.257-.163-1.881-.266-14.59-2.407-22.98-3.768-25.168-4.084-2.918-.42-15.806-2.81-21.583-3.744-6.043-.977-16.19-2.845-16.748-3.256-1.994-1.468-5.448-4.296-3.453-4.884 1.104-.325 6.11.326 15.021 1.954z"/>
    </g>
</svg>
