<svg xmlns="http://www.w3.org/2000/svg" xmlns:xlink="http://www.w3.org/1999/xlink" width="340" height="340" viewBox="0 0 340 340">
    <defs>
        <path id="irytii87da" d="M113.192 234.026c62.19 0 112.607-52.343 112.607-116.908C225.8 52.547 175.382.206 113.192.206S.585 52.546.585 117.118c0 64.565 50.418 116.908 112.607 116.908"/>
        <path id="cadjmpyyfc" d="M20.767.641C15.554.161 10.809 1.832 7.203 3.23 3.598 4.626-3.528 13.59 2.626 15.583c6.155 1.992 11.908 0 12.594 3.984.688 3.985-2.552 10.957 5.547 10.957 8.098 0 12.186-4.98 14.353-8.3 2.167-3.32 3.787-2.657 7.674-2.989 3.887-.332 8.098-.894 9.394-7.087 1.296-6.194-.324-9.32-5.507-8.92-5.183.402-10.366 13.121-14.577 8.92C27.894 7.946 25.922 1.116 20.767.64"/>
        <path id="23q6m771ee" d="M58.898.206C58.77.28 58.087.275 57 .27 52.304.25 40.065.227 32.373 6.6c-9.472 7.847-11.106 19.56-13.719 23.695-2.613 4.134-10.78 11.713-13.719 17.914-2.94 6.202-8.495 16.88.979 19.637 9.474 2.757 18.258 2.068 18.929 6.202.67 4.134-6.877 14.383 0 18.216 3.24 1.806 7.345 1.241 11.738.678 4.932-.633 10.227-1.267 15.064 1.455 9.147 5.145 12.74 13.292 5.88 17.487-6.86 4.195-30.705 11.664-35.278 15.164s-12.739 19.667-1.306 20.885c11.432 1.219 21.542 2.833 16.977 13.223-4.565 10.39-.645 20.067 7.195 20.568 7.84.501 23.845 3.446 31.684-.61 7.84-4.056 11.106-3.622 20.906-7.112 9.8-3.49 9.394-8.313 11.066-18.304 1.673-9.991 13.059-11.114 11.286-27.262-1.774-16.147-22.679-14.763-18.106-22.518 4.573-7.754 7.513-8.82-6.206-15.522-13.72-6.702-30.378-12.558-26.459-29.784 3.92-17.226 14.7-35.945 7.187-48.634C68.958-.713 58.898.206 58.898.206"/>
        <path id="0sbkj6b3hg" d="M13.734.57C8.385.15 3.623 5.07 4.6 10.506c.979 5.434 7.048 20.378 4.502 25.472C6.558 41.073-1.596 43.111.688 50.583c2.283 7.471 7.175 11.207 18.59 8.83 11.416-2.377 21.527 3.736 21.527 9.51 0 5.774-1.543 12.192 9.112 16.302 10.656 4.11 17.204 5.478 21.495-.318 4.291-5.795.383-12.248-4.35-21.418-4.731-9.17-2.908-9.766-3.657-18.809-.748-9.041-.674-11.758-8.539-17.193-7.865-5.434-12.011-1.444-18.092-11.59C30.694 5.75 21.387 1.171 13.734.57"/>
        <path id="3hwr804f7i" d="M0.603 0.336L82.776 0.336 82.776 75.703 0.603 75.703z"/>
        <path id="rtu01vdzuk" d="M11.502 75.703h-.306c-.288-.002-.577-.01-.867-.023-7.305-.344-11.953-2.409-8.637-5.154C5.008 67.782.368 50.56 4.684 43.58c4.317-6.978 7.305-8.505 20.918-8.538 13.614-.033 13.946-5.816 11.953-14.394-1.992-8.577 1.66-15.51 12.286-18.95 10.625-3.442 18.655.537 28.69 2.142 4.848.775 4.18 3.019 4.245 9.159.062 6.14-5.709 9-7.95 17.723-2.243 8.722-3.403 9.17-6.433 12.858-3.03 3.688-8.592 5.26-9.62 10.421-1.028 5.162-6.276 5.162-10.26 5.072-3.985-.09-5.645.778-6.613 5.595-.969 4.818-7.997 3.097-12.977 5.506-4.712 2.279-10.613 5.482-17.42 5.53"/>
        <path id="w99sd0d7zm" d="M15.58 17.613s4.424 1.49 6.609-4.02c.825-1.825-.148-6.33-4.461-7.526C13.416 4.87 3.9.917 2.27.242.64-.432-.38 1.305.593 2.711c.684.987 4.11 4.755 4.11 4.755s-1.1-.4-1.513-.027c-.412.372-.252 2.139 3.316 4.977-1.087-.378-.868 1.095.672 2.063 1.54.967 2.125 1.31 2.125 1.31s-1.393.166-.246.96c1.146.795 5.138 2.287 6.523.864"/>
        <path id="oq2ucgcnyo" d="M.37 13.278V30.4c0 1.465.787 2.814 2.052 3.517l15.722 8.742c1.18.657 2.61.657 3.792 0l15.72-8.742c1.266-.703 2.052-2.052 2.052-3.517V13.278c0-1.465-.786-2.813-2.052-3.518l-15.72-8.742c-1.182-.657-2.612-.657-3.792 0L2.423 9.76C1.156 10.465.37 11.813.37 13.278"/>
        <path id="k7a92mtf9q" d="M.321 2.814L5.088.108C10.596 3.282 21.43 9.535 22.92 10.463c.926.63 1.086 1.073 1.086 1.751 0 .678.014 1.997.014 2.97-.027.827-.14 1.019-.676 1.367-.537.347-3.017 1.598-3.822 1.96-.804.36-.871-.779-.871-.779s.133-.87.201-1.877c.125-1.738-.834-2.409-.834-2.409L.321 2.815"/>
        <path id="vzfl4dg60s" d="M.37 13.278V30.4c0 1.465.787 2.814 2.052 3.517l15.722 8.742c1.18.657 2.61.657 3.792 0l15.72-8.742c1.266-.703 2.052-2.052 2.052-3.517V13.278c0-1.465-.786-2.813-2.052-3.518l-15.72-8.742c-1.182-.657-2.612-.657-3.792 0L2.423 9.76C1.156 10.465.37 11.813.37 13.278"/>
        <path id="pngsrkvelu" d="M15.437 17.53s4.403 1.49 6.662-3.81c.849-1.756-.065-6.122-4.361-7.326C13.44 5.19 3.979 1.262 2.358.59.735-.079-.307 1.59.648 2.96c.67.962 4.047 4.643 4.047 4.643s-1.094-.4-1.512-.044c-.418.356-.28 2.064 3.25 4.849-1.081-.378-.884 1.048.644 2 1.528.951 2.108 1.29 2.108 1.29s-1.396.145-.26.926 5.11 2.267 6.512.907"/>
        <path id="72211ed28w" d="M22.656 10.033s3.623-2.532.245-7.326c-1.065-1.665-5.319-3.478-8.639-.865-3.319 2.613-11.73 7.633-13.168 8.495-1.44.862-.552 2.626 1.137 2.68 1.186.04 6.155-.439 6.155-.439s-.925.613-.84 1.14c.086.526 1.634 1.405 5.91.292-.9.614.437 1.284 2.07.657 1.632-.628 2.23-.879 2.23-.879s-.614 1.158.663.733c1.277-.424 4.668-2.626 4.237-4.488"/>
        <path id="x3sagmps4y" d="M.142 16.885l3.186 17.091c.272 1.462 1.308 2.658 2.702 3.117l17.314 5.709c1.3.429 2.728.154 3.785-.729L41.19 30.33c1.131-.945 1.665-2.443 1.393-3.905L39.397 9.334c-.272-1.462-1.308-2.657-2.701-3.117L19.38.508c-1.3-.429-2.727-.154-3.785.729L1.536 12.98C.404 13.925-.13 15.423.142 16.885"/>
        <path id="ef4t5oazsA" d="M17.225.104l5.35 1.685-.168.108L6.458 15.262s-.847.814-.399 2.437c.254.943.55 1.741.55 1.741s.143 1.092-.738.9c-.881-.192-3.623-.916-4.23-1.146-.608-.229-.758-.391-.938-1.168-.181-.922-.409-2.175-.535-2.818-.124-.642-.046-1.09.775-1.86C2.294 12.18 12.283 4.098 17.225.104"/>
        <path id="iyn1jhf2bC" d="M.142 16.885l3.186 17.091c.272 1.462 1.308 2.658 2.702 3.117l17.314 5.709c1.3.429 2.728.154 3.785-.729L41.19 30.33c1.131-.945 1.665-2.443 1.393-3.905L39.397 9.334c-.272-1.462-1.308-2.657-2.701-3.117L19.38.508c-1.3-.429-2.727-.154-3.785.729L1.536 12.98C.404 13.925-.13 15.423.142 16.885"/>
        <path id="l9hm90zbiE" d="M23.92 10.428s4.053-2.282.99-7.587c-.951-1.832-5.23-4.125-8.973-1.728C12.194 3.509 2.87 7.917 1.276 8.674c-1.595.758-.841 2.675.924 2.895 1.24.152 6.5.134 6.5.134s-1.032.547-.995 1.102c.037.555 1.572 1.618 6.168.872-1.004.553.33 1.376 2.105.88 1.775-.494 2.428-.698 2.428-.698s-.76 1.144.622.825c1.38-.317 5.157-2.28 4.892-4.256"/>
    </defs>
    <g fill="none" fill-rule="evenodd" transform="translate(0 27.89)">
        <ellipse fill="#BEBFBA" style="mix-blend-mode:multiply" cx="181.621" cy="270.273" opacity=".5" rx="68.066" ry="15.273"/>
        <path fill="#F8C361" d="M311.623 73.71c.385-.88 1.014-1.634 1.815-2.168-.882-.386-1.636-1.015-2.17-1.815-.385.881-1.014 1.634-1.815 2.169.882.385 1.635 1.015 2.17 1.815"/>
        <g>
            <path fill="#F8C361" d="M260.758 83.648c.662-1.568 1.744-2.905 3.119-3.855-1.515-.684-2.809-1.803-3.728-3.225-.662 1.567-1.744 2.905-3.12 3.854 1.516.685 2.81 1.804 3.729 3.226" transform="translate(60.43)"/>
            <path fill="#88C6DD" d="M113.663 234.026c62.449 0 113.076-52.343 113.076-116.908C226.739 52.547 176.112.206 113.663.206 51.215.206.588 52.546.588 117.118c0 64.565 50.627 116.908 113.075 116.908" transform="translate(60.43)"/>
        </g>
        <g transform="translate(60.43)">
            <mask id="6jlrny85tb" fill="#fff">
                <use xlink:href="#irytii87da"/>
            </mask>
            <path fill="#75BAD4" d="M115.156 49.055c-7.125 0-6.602-9.328-6.602-9.328s4.883-6.11-4.07-6.11c-.162 0-.327.002-.497.006-.15.003-.297.005-.443.005-9.189 0-9.373-6.951-9.373-6.951l.097-2.2 20.74 4.417s1.671 1.037 5.426 1.037c4.959 0 13.552-1.807 26.729-10.193 2.36 2.47 4.492 12.948-4.369 14.822-4.598.972-9.435 2.214-10.94 5.848-2.518 6.085-8.532 8.178-16.19 8.632-.174.01-.343.015-.508.015M68.08 203.413c-11.814-.85-19.42-5.144-24.068-6.501-5.135-1.5-5.113-5.93-5.109-6.125 1.583 1.891 3.781 3.078 6.422 3.244 4.765.3 12.537 1.485 19.676 1.485 4.659 0 9.047-.504 12.157-2.089 7.876-4.01 11.158-3.58 21.004-7.033 8.817-3.091 9.411-7.239 10.646-15.168 1.457.938 7.582 5.17 8.88 10.865 1.477 6.473-8.86 11.414-20.675 13.425-9.102 1.55-21.614 2.652-25.002 2.93.329-.02.665-.028 1.012-.028 1.33 0 2.815.126 4.656.251 1.842.126 4.039.252 6.79.252 1.663 0 3.528-.046 5.64-.166-7.518 1.855-14.877 3.407-22.03 4.658m11.007-.022c7.214-1.518 14.603-3.326 22.116-5.424.261-.007.498-.01.71-.01 3.348 0 .724.877-3.422 2.192-4.983 1.58-9.383 2.798-19.404 3.242m-42.034-26.92c-.446-4.007-2.493-10.39-10.926-11.076-12.302-1-10.922-10.063-10.902-10.192.231 2.815 1.85 4.994 5.815 5.41 9.557 1.003 18.194 2.276 18.184 8.594-.002 1.276-.356 2.757-1.127 4.483-.417.935-.764 1.863-1.044 2.78m72.228-8.178c.167-.98.43-1.874.766-2.705 3.054-7.543 12.177-9.87 10.573-24.257-.033-.292-.072-.579-.117-.86 5.853 5.932 5.938 15.84 2.437 19.474-4.43 4.6-12.874 5.607-13.66 8.348m-53.275-42.363c1.223-4.075-2.313-9.258-6.577-12.323-6.4-4.6-22.809-3.316-24.878-5.906-.692-.865-1.258-2.357-1.62-3.947.46.693 1.119 1.304 2.03 1.804 1.667.914 3.563 1.214 5.608 1.214 1.948 0 4.032-.272 6.185-.544 2.153-.272 4.375-.544 6.598-.544 2.893 0 5.789.46 8.538 1.983 5.896 3.265 9.495 7.752 9.497 11.644.001 2.174-1.12 4.164-3.59 5.65-.508.306-1.11.63-1.79.97m47.152-2.334c-.866-.747-1.385-1.551-1.385-2.514.001-.603.205-1.27.656-2.021 1.566-2.614 2.94-4.458 3.527-6.018.279-.737.38-1.41.243-2.07 6.989 2.19 1.3 4.06 1.153 7.574-.1 2.398-2.414 4.094-4.194 5.05M24.64 90.32c-.816-.508-1.936-.893-3.436-1.076-6.33-.773-13.412-2.716-16.486-3.617.382-1.419.788-2.826 1.218-4.222l.006.002c9.519 2.726 18.344 2.045 19.019 6.133.028.176.042.363.042.56.002.643-.14 1.394-.363 2.22m45.787-4.6c-.898-1.972-1.4-4.165-1.4-6.634 0-1.505.186-3.112.584-4.834 2.963-12.818 9.828-26.473 9.83-37.795 0-.85-.038-1.688-.12-2.512 4.488 5.626 2.984 15.369 2.597 19.524-.379 4.062-7.944 22.039-11.491 32.251M225.068 112.363c-8.093 0-18.548-3.151-26.647-7.355-9.845-5.11.182-20.533-3.1-24.451-2.5-2.985-7.76-3.499-13.823-3.499-1.897 0-3.874.05-5.868.091-.11.003-.219.004-.328.004-6.687 0-10.13-4.198-11.14-5.687 1.862 1.169 4.22 1.798 7.219 1.798 1.82 0 3.875-.232 6.2-.714 1.747-.363 3.463-.529 5.117-.529 9.229 0 16.544 5.157 16.544 10.069 0 1.3-.078 2.634-.078 3.967 0 4.6.934 9.19 9.247 12.387 5.642 2.17 10.14 3.577 13.763 3.577.944 0 1.828-.095 2.658-.297.08.628.154 1.26.224 1.89-1.625 1.05-2.916 1.864-3.407 2.174-1.461.924-.56 2.812 1.153 2.87.047.002.099.003.157.003.533 0 1.517-.066 2.54-.148.022.32.044.648.064.97l-1.917 1.7c-.23.205-.258.564-.061.804.109.132.263.2.418.2.126 0 .253-.045.356-.137l1.284-1.139c.025.479.046.965.065 1.445-.212.005-.424.007-.64.007m-61.804-58.71c1.173-3.079 2.436-7.067 2.029-12.45-.239-3.15-.779-8.753-1.175-12.745 1.565 5.287 3.849 12.427 3.848 17.193 0 1.354-.185 2.516-.623 3.39-.898 1.791-2.49 3.206-4.08 4.612M135.235 231.787c2.19-2.176 4.104-5.254 3.854-9.257-.56-8.923-2.202-16.27 4.034-18.56 6.235-2.288 12.142-6.783 12.142-6.783s19.288-.477 11.74-19.61c-.568-1.44-.35-3.023.47-4.634l.003-.001.078-.038.032-.015.077-.037.032-.015.075-.037.036-.017.08-.038.022-.011.092-.044.012-.006.1-.048h.001c8.646-4.169 16.924-8.542 24.787-13.072.625-.043 1.246-.065 1.86-.065 2.931 0 5.704.502 8.09 1.652 5.225 2.52 7.953 7.03 9.298 11.802-15.716 29.96-43.68 51.988-76.915 58.834m35.042-62.486c3.825-3.743 10.227-7.172 16.819-8.803-5.425 3.016-11.036 5.955-16.819 8.803" mask="url(#6jlrny85tb)"/>
        </g>
        <path fill="#FFFFFE" d="M175.566 15.36c-5.285-.49-10.095 1.213-13.751 2.636-3.655 1.425-10.88 10.563-4.64 12.594 6.24 2.03 12.072 0 12.768 4.061.697 4.062-2.587 11.17 5.623 11.17s12.354-5.078 14.55-8.462c2.198-3.385 3.84-2.708 7.781-3.046 3.94-.339 8.21-.911 9.524-7.225 1.313-6.314-.329-9.5-5.583-9.092-5.255.41-10.51 13.375-14.778 9.092-4.27-4.283-6.268-11.246-11.494-11.729"/>
        <g transform="translate(154.727 15.273)">
            <mask id="rzkx5q8i9d" fill="#fff">
                <use xlink:href="#cadjmpyyfc"/>
            </mask>
            <path fill="#D4E3E5" d="M1.87 3.74s-2.807 9.74 6.479 8.412c9.286-1.328 8.854 13.28 3.672 16.601C6.838 32.073-5.472 15.61-5.472 15.54c0-.068 7.342-11.8 7.342-11.8" mask="url(#rzkx5q8i9d)"/>
            <path fill="#D4E3E5" d="M14.504 26.097s6.938 6 17.276-3.873c5.834-5.573 3.132-5.73 8.53-6.684 5.4-.953 11.649 1.924 12.303-8.922.655-10.847 5.19 8.327 4.974 8.922-.216.596-12.31 13.213-13.821 13.213-1.512 0-18.357 5.356-19.22 5.313-17.493-.885-22.57-7.619-10.042-7.969" mask="url(#rzkx5q8i9d)"/>
        </g>
        <path fill="#ACCF82" d="M120.332 15.288c-.128.075-.807.07-1.887.064-4.666-.021-16.828-.042-24.472 6.338-9.413 7.858-11.036 19.587-13.633 23.727-2.597 4.14-10.711 11.729-13.633 17.939-2.921 6.21-8.442 16.902.973 19.663 9.414 2.76 18.143 2.07 18.81 6.21.667 4.14-6.834 14.403 0 18.24 3.22 1.81 7.299 1.244 11.664.68 4.901-.634 10.163-1.268 14.97 1.457 9.089 5.152 12.66 13.31 5.843 17.51-6.817 4.2-30.512 11.68-35.056 15.185-4.545 3.505-12.66 19.694-1.299 20.913 11.361 1.221 21.407 2.838 16.87 13.242-4.535 10.403-.64 20.094 7.15 20.595 7.79.502 23.696 3.451 31.486-.611 7.79-4.062 11.036-3.626 20.774-7.121 9.738-3.495 9.335-8.325 10.997-18.33 1.662-10.004 12.976-11.128 11.214-27.298-1.762-16.169-22.536-14.783-17.991-22.548 4.544-7.765 7.465-8.832-6.168-15.544-13.633-6.71-30.187-12.575-26.292-29.824 3.895-17.249 14.607-35.994 7.141-48.7-7.465-12.707-17.461-11.787-17.461-11.787"/>
        <g transform="translate(60.43 15.273)">
            <mask id="njqlg7fr9f" fill="#fff">
                <use xlink:href="#23q6m771ee"/>
            </mask>
            <path fill="#95BB7B" d="M24.441 77.159c.268-.955.446-1.819.444-2.546 0-.2-.013-.388-.042-.566-.671-4.134-9.455-3.445-18.93-6.202C2.16 66.752.767 64.417.634 61.61c1.175 1.277 3.126 2.156 6.27 2.156l.326-.003c.733-.014 1.472-.02 2.211-.02 11.271 0 22.718 1.623 19.177 5.826-1.654 1.962-3.048 4.91-4.176 7.59M57.13 112.118c.137-.08.268-.158.395-.235 2.458-1.504 3.574-3.515 3.573-5.714-.002-3.935-3.585-8.472-9.453-11.773-2.736-1.54-5.618-2.005-8.498-2.005-2.212 0-4.424.275-6.566.55-2.144.275-4.218.55-6.157.55-2.036 0-3.922-.304-5.581-1.228-1.273-.71-2.052-1.638-2.48-2.707 1.725.075 4.472.24 7.084.407 3.54.224 6.832.448 7.003.448h.006c1.934-.344 4.04-.515 6.2-.515 10.808 0 23.007 4.262 21.946 12.346-.765 5.83-4.465 8.693-7.473 9.876M37.618 161.867c.096-.237.195-.474.3-.712.767-1.745 1.12-3.242 1.122-4.532.01-6.389-8.587-7.677-18.1-8.69-4.281-.457-5.814-3.01-5.816-6.21 0-1.684.422-3.548 1.093-5.38.096 3.409 1.778 7.547 9.363 7.547.595 0 1.224-.026 1.894-.079 1.98-.157 3.877-.23 5.672-.23 11.978 0 19.444 3.218 17.03 5.914-1.996 2.229-8.545 5.968-12.558 12.372M64.697 183.225c-7.105 0-14.84-1.2-19.584-1.502-3.496-.224-6.213-2.271-7.745-5.394 2.328-1.364 6.742-3.079 14.216-3.079 3.697 0 8.141.42 13.454 1.51.554.113 1.099.165 1.638.165 3.05 0 5.91-1.676 9.285-3.352 3.374-1.677 7.264-3.353 12.375-3.353 1.633 0 3.391.17 5.297.568.528.11 1.045.162 1.549.162 8.131 0 13.107-13.561 14.35-15.988-.335.84-.597 1.744-.763 2.735-1.672 9.99-1.267 14.814-11.066 18.304-9.8 3.49-13.066 3.056-20.906 7.111-3.096 1.603-7.463 2.113-12.1 2.113M119.286 124.886c-2.036-1.9-4.288-3.831-6.623-5.535-6.061-4.425-13.851-5.083-14.307-10.279-.711-8.103 4.493-6.75 7.104-9.239-.585 1.577-1.953 3.442-3.51 6.084-.45.761-.653 1.434-.654 2.045 0 5.11 14.253 5.814 17.99 16.924" mask="url(#njqlg7fr9f)"/>
            <path fill="#75BAD4" d="M84.436 84.904c-.507-.084-23.727-3.993-21.358-16.714 1.968-10.568 12.17-35.247 15.987-46.262.003.155.004.311.004.467-.002 11.447-6.835 25.255-9.785 38.216-.395 1.741-.582 3.366-.582 4.887 0 9.462 7.192 14.92 15.734 19.406" mask="url(#njqlg7fr9f)"/>
        </g>
        <path fill="#ACCF82" d="M234.714 15.299c-5.402-.424-10.213 4.539-9.225 10.019.989 5.48 7.12 20.548 4.547 25.685-2.57 5.137-10.807 7.192-8.5 14.727 2.306 7.534 7.248 11.301 18.78 8.904 11.53-2.397 21.744 3.767 21.744 9.59 0 5.821-1.559 12.294 9.205 16.438 10.763 4.144 17.378 5.524 21.712-.32 4.335-5.844.388-12.351-4.393-21.598-4.78-9.247-2.938-9.848-3.694-18.966-.756-9.117-.682-11.857-8.626-17.337-7.945-5.48-12.133-1.457-18.276-11.688-6.142-10.23-15.543-14.847-23.274-15.454"/>
        <g transform="translate(221.133 15.273)">
            <mask id="zk5rpxeooh" fill="#fff">
                <use xlink:href="#0sbkj6b3hg"/>
            </mask>
            <path fill="#95BB7B" d="M5.461 40.21c1.438-1.284 2.827-2.6 3.642-4.232.435-.87.619-2.029.619-3.378.001-6.547-4.31-17.589-5.12-22.094-.088-.485-.13-.964-.13-1.437.002-.946.17-1.861.477-2.72 1.431 4.31 3.61 10.07 6.067 13.78 3.747 5.658 2.15 17.293-5.555 20.08M63.596 88.79c-3.602 0-8.072-1.403-13.679-3.565-8.262-3.187-9.19-7.762-9.19-12.347 0-1.33.078-2.658.078-3.955 0-4.896-7.27-10.037-16.442-10.037-1.644 0-3.35.166-5.085.527-2.31.481-4.353.712-6.162.712-7.126 0-10.608-3.583-12.428-9.542-.274-.898-.399-1.717-.399-2.472 0-.56.066-1.082.188-1.578 2.84 3.552 8.092 8.398 15.61 8.398.696 0 1.41-.042 2.144-.13 8.03-.96 11.981-2.677 15.296-2.677 2.16 0 4.051.73 6.625 2.874 6.523 5.434 8.262 19.02 11.524 21.736 2.174 1.811 9.135 6.139 15.32 6.139 2.242 0 4.382-.569 6.156-2.031-.217 1.405-.768 2.752-1.74 4.065-2.034 2.747-4.573 3.884-7.816 3.884" mask="url(#zk5rpxeooh)"/>
        </g>
        <g transform="translate(200.547 160.703)">
            <mask id="x0l2lm8odj" fill="#fff">
                <use xlink:href="#3hwr804f7i"/>
            </mask>
            <path fill="#FFFFFE" d="M78.53 3.84C68.497 2.235 60.467-1.744 49.84 1.697c-10.624 3.441-14.277 10.374-12.285 18.95 1.993 8.579 1.66 14.362-11.953 14.395-13.613.033-16.601 1.56-20.918 8.538-4.316 6.98.324 24.202-2.992 26.946-3.316 2.745 1.332 4.81 8.637 5.154 7.305.344 13.613-3.097 18.594-5.506 4.98-2.409 12.008-.688 12.977-5.506.968-4.817 2.628-5.685 6.612-5.595 3.985.09 9.233.09 10.26-5.072 1.03-5.161 6.591-6.732 9.621-10.42 3.03-3.688 4.19-4.137 6.432-12.86C77.067 22 82.838 19.14 82.775 13c-.063-6.14.604-8.384-4.244-9.16" mask="url(#x0l2lm8odj)"/>
        </g>
        <g transform="translate(200.547 160.703)">
            <mask id="cxyglcef0l" fill="#fff">
                <use xlink:href="#rtu01vdzuk"/>
            </mask>
            <path fill="#D4E3E5" d="M12.985 33.928s-9.31 13.305-4.213 21.335c5.098 8.029 2.871 13.076 0 14.452-2.87 1.376-.435 6.882 4.213 7.57 4.649.689-25.234 1.606-25.234.918 0-.689 9.518-19.04 9.518-19.04L.603 38.975l12.382-5.047M70.537-.941c-.664 0-14.004 4.023-17.93 6.193-6.64 3.671-10.234 12.288-8.411 17.665 2.877 8.487-14.388 16.288-26.411 9.761C9.27 28.057 29.587 8.464 29.587 8.464L47.959-.94h22.578M24.384 74.532s2.214-2.523 4.539-4.358c2.324-1.835 6.418-4.244 10.182-4.13 3.763.115 6.087-2.294 6.087-2.294l-1.66-3.185s.774-3.353 4.87-3.238c4.095.115 9.343.574 10.37-3.326 1.03-3.9.697 14.567.697 14.567L44.196 78.662l-19.812-4.13" mask="url(#cxyglcef0l)"/>
        </g>
        <path fill="#D4E3E5" d="M60.268 105.819C47.252 116.86 36.86 128.114 29.7 139.03c-7.155 10.915-11.102 21.51-11.106 31.25 0 3.897.637 7.653 1.954 11.206 1.77 4.777 4.687 8.956 8.574 12.51 5.834 5.334 13.838 9.283 23.556 11.912 9.721 2.628 21.166 3.935 33.917 3.935 32.698-.002 73.996-8.596 116.635-25.84.514-.208.768-.811.57-1.348-.2-.536-.777-.803-1.29-.595-42.438 17.168-83.546 25.702-115.915 25.7-16.826.002-31.287-2.31-42.314-6.861-5.514-2.275-10.167-5.106-13.844-8.47-3.678-3.366-6.382-7.257-8.029-11.695-1.224-3.304-1.82-6.793-1.82-10.453-.004-9.14 3.741-19.38 10.758-30.074 7.012-10.694 17.275-21.827 30.18-32.772.427-.363.492-1.018.145-1.465-.347-.447-.975-.515-1.403-.152M205.22 185.203c39.194-15.932 72.814-36.516 96.683-57.69 11.934-10.588 21.433-21.323 27.97-31.73 6.533-10.407 10.123-20.5 10.127-29.811 0-3.9-.634-7.656-1.946-11.21-1.623-4.4-4.212-8.292-7.632-11.657-5.132-5.048-12.12-8.918-20.6-11.664-8.483-2.744-18.466-4.365-29.626-4.878-.549-.024-1.012.422-1.036.997-.024.574.4 1.06.949 1.086 14.705.673 27.271 3.303 36.87 7.82 4.8 2.258 8.857 4.984 12.084 8.16 3.228 3.177 5.629 6.8 7.139 10.888 1.219 3.305 1.811 6.795 1.811 10.458.004 8.736-3.399 18.478-9.798 28.663-9.592 15.278-25.889 31.51-47.105 46.87-21.216 15.361-47.348 29.862-76.608 41.754-.511.208-.766.812-.568 1.349.198.536.774.803 1.286.595M326.225 26.614c-7.607-4.614-17.422-7.71-28.945-9.34-.536-.075-1.028.325-1.1.893-.071.569.306 1.091.842 1.167 11.346 1.602 20.93 4.65 28.232 9.084.469.284 1.067.111 1.335-.387.269-.497.106-1.133-.364-1.417M16.763 143.957c-4.837 8.863-7.464 17.45-7.466 25.455 0 3.899.626 7.656 1.923 11.21.196.537.765.804 1.27.597.506-.209.756-.812.56-1.349-1.204-3.304-1.79-6.795-1.79-10.458-.003-7.513 2.48-15.766 7.201-24.41.272-.497.112-1.135-.356-1.423-.47-.29-1.07-.12-1.342.378"/>
        <path fill="#FFFFFE" d="M53.45 193.963s4.49 1.53 6.708-4.126c.838-1.874-.15-6.5-4.528-7.727-4.377-1.228-14.035-5.287-15.69-5.98-1.656-.692-2.691 1.092-1.703 2.535.694 1.013 4.171 4.881 4.171 4.881s-1.115-.41-1.535-.027c-.418.382-.256 2.195 3.366 5.11-1.103-.388-.881 1.124.683 2.117 1.563.993 2.156 1.345 2.156 1.345s-1.414.17-.25.986c1.163.816 5.216 2.347 6.621.886"/>
        <g transform="translate(37.852 175.977)">
            <mask id="8ixm5p6lpn" fill="#fff">
                <use xlink:href="#w99sd0d7zm"/>
            </mask>
            <path fill="#FFFFFE" d="M25.25 11.429l-1.908-.1s-.678 3.452-5.042 4.077c-3.642.522-5.754-1.847-6.019-3.334-.39-2.184 1.815-3.19 3.055-2.691 1.042.417 1.02 1.347.885 2.28-.026.18.217.22.305.058.148-.27.523-.913.148-1.85-.808-2.012-3.482-1.567-4.783.019-1.174 1.432-1.707 5.944 3.689 7.725 5.394 1.779 7.307.94 7.307.94l2.363-7.124" mask="url(#8ixm5p6lpn)"/>
        </g>
        <path fill="#E49264" d="M29.883 194.866v17.339c0 1.483.756 2.849 1.974 3.561l15.127 8.852c1.136.665 2.512.665 3.65 0l15.125-8.852c1.219-.712 1.975-2.078 1.975-3.561v-17.34c0-1.483-.756-2.848-1.975-3.56l-15.125-8.853c-1.138-.665-2.514-.665-3.65 0l-15.127 8.852c-1.218.713-1.974 2.078-1.974 3.562"/>
        <g transform="translate(29.883 181.953)">
            <mask id="rxjz458npp" fill="#fff">
                <use xlink:href="#oq2ucgcnyo"/>
            </mask>
            <path fill="#E58D68" d="M18.654 42.898c-.174-.066-.345-.145-.51-.238L3.572 34.558l.01-.02c.143-.277.04-.618-.232-.763L.954 32.498c-.355-.587-.56-1.265-.581-1.975l.002-.002s.553.21 1.364.21c1.443 0 3.699-.665 5.102-4.357.824-1.91-.062-6.662-4.233-7.971-.642-.202-1.403-.474-2.237-.793v-4.332c0-.599.13-1.177.372-1.7l4.364 2.326c.083.044.171.065.258.065.17 0 .337-.08.443-.224l.498.27.811.44c-.028.228.082.459.293.571l4.414 2.353c.082.044.17.065.257.065.118 0 .233-.038.328-.109 1.904 1.037 3.67 2.002 5.024 2.74.022.012.043.025.065.036.043.024.086.047.129.068.09.046.18.09.272.129 1.274.557 2.116 1.813 2.107 3.222l-.006.941-.001.305c-.021 4.096-.043 11.29-.047 16.125 0 .914-.547 1.67-1.298 1.997M11.927 30.66c-.506 0-.965.412-.965.98v3.28c0 .372.208.71.534.877L16.03 38.1c.142.072.288.105.431.105.506 0 .964-.413.964-.981v-3.281c0-.371-.206-.71-.532-.876l-4.536-2.303c-.141-.071-.288-.104-.43-.104m4.152 5.96l-.114-.025-4.04-1.915c-.135-.064-.193-.227-.13-.364.046-.099.144-.157.245-.157.038 0 .076.008.113.025l4.04 1.915c.135.064.193.227.13.364-.046.1-.143.157-.244.157m0-1.641l-.114-.025-4.04-1.916c-.135-.064-.193-.226-.13-.363.046-.1.143-.158.243-.158.039 0 .077.009.115.026l4.04 1.915c.135.063.193.227.13.364-.046.099-.143.157-.244.157" mask="url(#rxjz458npp)"/>
            <path fill="#E37E66" d="M20.98 43.038c-.59-.566-.95-1.363-.955-2.23-.02-3.608-.053-10.665-.026-16.032l.001-.305.002-.362c.01-1.687.94-3.21 2.395-4.026l.006-.004.123-.071 4.74-2.63c.002.008.004.014.008.021.127.307.223.704.222 1.203 0 .095-.004.195-.011.298-.068.986-.201 1.838-.201 1.838s.05.831.58.831c.085 0 .18-.02.29-.069.806-.354 3.286-1.578 3.823-1.919.536-.34.648-.529.676-1.338 0-.953-.014-2.245-.014-2.909 0-.317-.037-.581-.176-.838l5.192-2.88.002-.001.16-.089c.109-.06.228-.086.353-.086.622 0 1.354.627 1.354.627.12.386.184.794.184 1.21v17.124c0 1.465-.786 2.814-2.052 3.517l-15.72 8.742c-.305.17-.626.296-.956.378" mask="url(#rxjz458npp)"/>
            <path fill="#E47B68" d="M19.999 24.895c0-.141 0-.284.002-.424l-.002.424" mask="url(#rxjz458npp)"/>
            <path fill="#FFFFFE" d="M8.954 6.129L26.651 16.54s.959.657.834 2.359c-.068.986-.201 1.838-.201 1.838s.067 1.115.87.762c.806-.354 3.286-1.578 3.823-1.919.536-.34.648-.529.676-1.338 0-.953-.014-2.245-.014-2.909 0-.664-.16-1.098-1.086-1.715-2.01-1.226-21.03-11.945-21.03-11.945L8.244 5.828l.71.3" mask="url(#rxjz458npp)"/>
        </g>
        <g transform="translate(37.852 183.281)">
            <mask id="dcl9406tdr" fill="#fff">
                <use xlink:href="#k7a92mtf9q"/>
            </mask>
            <path fill="#F0B8AB" d="M19.232 18.58c-.531 0-.581-.848-.581-.848s.133-.87.201-1.877c.007-.105.011-.207.011-.304.001-.51-.095-.915-.222-1.228l5.198-2.95c.132.258.167.524.167.841 0 .678.014 1.997.014 2.97-.027.827-.14 1.019-.676 1.367-.537.347-3.017 1.598-3.822 1.96-.11.048-.206.07-.29.07" mask="url(#dcl9406tdr)"/>
        </g>
        <g transform="translate(29.883 181.953)">
            <mask id="v90ec6nmht" fill="#fff">
                <use xlink:href="#vzfl4dg60s"/>
            </mask>
            <path fill="#E8A67A" d="M19.921 20.73c-.785 0-1.571-.183-2.294-.55l-.129-.069c-.022-.011-.043-.024-.065-.036-1.318-.719-3.09-1.688-5.022-2.741.066-.05.123-.114.163-.192.142-.276.038-.618-.234-.763l-4.413-2.352c-.082-.044-.17-.065-.258-.065-.2 0-.393.11-.492.302-.032.061-.052.126-.06.19l-.811-.44-.497-.27c.017-.024.034-.05.048-.077.143-.276.039-.617-.234-.762l-3.995-2.13c.019-.301.163-.595.438-.79.114-.08.232-.156.357-.225l6.489-3.608.865.46 16.874 9.929s.364.25.614.838l-4.74 2.629-.122.071c-.771.435-1.626.652-2.482.652m12.542-6.235c-.151-.282-.426-.555-.91-.877-1.49-.909-12.325-7.032-17.833-10.142l2.287-1.27 1.43.763c.083.043.171.064.258.064.2 0 .393-.11.493-.302.142-.276.038-.617-.234-.762l-.777-.414.967-.538c.59-.328 1.243-.493 1.895-.493.653 0 1.306.165 1.897.493l15.72 8.742.032.019c.696.407.677 1.442-.031 1.836l-5.194 2.88" mask="url(#v90ec6nmht)"/>
            <path fill="#E8A17D" d="M17.627 20.18l-.129-.069c.043.024.086.047.129.068m-.194-.104c-1.354-.738-3.12-1.703-5.024-2.74l.002-.001c1.932 1.053 3.704 2.022 5.022 2.741m-10.316-5.62l-.811-.44c.268.144.54.291.811.439v.001" mask="url(#v90ec6nmht)"/>
            <path fill="#EA937C" d="M22.403 20.08l.123-.072 4.74-2.63-4.74 2.63-.123.071m10.06-5.583l5.194-2.881h-.002l-5.192 2.88" mask="url(#v90ec6nmht)"/>
            <path fill="#FFFFFE" d="M27.265 17.379c-.25-.589-.614-.838-.614-.838L9.777 6.613l2.047 1.09c.082.045.17.065.257.065.2 0 .393-.11.493-.302.142-.276.038-.617-.234-.761L10.082 5.5l3.638-2.024c5.508 3.11 16.342 9.233 17.833 10.142.484.322.759.595.91.877l-5.198 2.883" mask="url(#v90ec6nmht)"/>
            <path fill="#F5D4C1" d="M16.462 38.206c-.143 0-.29-.033-.43-.105l-4.536-2.303c-.326-.166-.534-.505-.534-.876v-3.28c0-.569.46-.981.965-.981.143 0 .29.033.431.104l4.536 2.303c.326.166.532.505.532.876v3.281c0 .568-.458.98-.964.98m-4.421-4.045c-.101 0-.199.058-.245.157-.063.137-.005.3.13.364l4.04 1.915.114.025c.101 0 .198-.058.244-.157.063-.137.005-.3-.13-.364l-4.04-1.915c-.037-.017-.075-.025-.113-.025m-.002-1.642c-.1 0-.197.059-.243.158-.063.137-.005.3.13.363l4.04 1.916.114.025c.101 0 .198-.058.244-.157.063-.137.005-.3-.13-.364l-4.04-1.915c-.038-.017-.076-.026-.115-.026" mask="url(#v90ec6nmht)"/>
            <path fill="#E0825F" d="M1.74 30.73c-.812 0-1.365-.209-1.365-.209l-.002.002c-.002-.04-.002-.08-.002-.122V17.61c.834.319 1.595.591 2.237.793 4.17 1.31 5.057 6.06 4.233 7.97-1.403 3.693-3.66 4.358-5.102 4.358" mask="url(#v90ec6nmht)"/>
        </g>
        <path fill="#FFFFFE" d="M31.38 207.27s4.1 1.57 6.204-4.016c.79-1.85-.06-6.451-4.062-7.72-4.002-1.27-12.814-5.408-14.324-6.115-1.511-.706-2.482 1.052-1.593 2.495.625 1.014 3.77 4.893 3.77 4.893s-1.02-.42-1.409-.046c-.389.375-.26 2.175 3.027 5.11-1.007-.398-.822 1.105.6 2.108 1.423 1.002 1.963 1.359 1.963 1.359s-1.3.153-.241.976c1.058.824 4.759 2.39 6.064.956"/>
        <g transform="translate(17.266 189.258)">
            <mask id="wjngqy8c7v" fill="#fff">
                <use xlink:href="#pngsrkvelu"/>
            </mask>
            <path fill="#D4E3E5" d="M25.188 11.661l-1.905-.119s-.725 3.33-5.097 3.886c-3.65.465-5.729-1.85-5.975-3.29-.36-2.116 1.857-3.062 3.09-2.568 1.037.415 1.002 1.314.857 2.215-.029.173.213.214.303.06.15-.26.536-.877.172-1.787-.782-1.954-3.462-1.554-4.782-.036-1.193 1.372-1.786 5.728 3.586 7.508 5.37 1.78 7.294.991 7.294.991l2.457-6.86" mask="url(#wjngqy8c7v)"/>
        </g>
        <path fill="#FFFFFE" d="M39.844 179.96l-3.717-2.687c-.244-.176-.339-.592-.21-.928.09-.235.262-.368.442-.368.078 0 .158.025.232.078l2.458 1.778c.029.407.131.833.322 1.236.1.212.265.522.473.892"/>
        <path fill="#FFFFFE" d="M44.13 183.281l-5.502-3.926c-.203-.356-.365-.655-.461-.859-.187-.389-.287-.799-.315-1.191l7.304 5.212-1.026.764"/>
        <path fill="#F9DEC9" d="M46.655 185.273c-.077 0-.156-.028-.229-.087l-1.27-1.028 1.039-.877.69.558c.24.196.333.656.207 1.027-.088.26-.26.407-.437.407"/>
        <path fill="#FFFFFE" d="M32.871 175.977c-.263 0-.519-.108-.704-.293-.186-.185-.292-.442-.292-.704 0-.263.106-.518.292-.704.185-.186.441-.292.704-.292.262 0 .519.106.703.292.186.186.293.441.293.704 0 .262-.107.52-.293.704-.184.185-.441.293-.703.293M20.7 202.54c-.086 0-.173-.023-.255-.07l-4.878-2.788c-.268-.153-.372-.515-.23-.807.097-.204.288-.32.486-.32.086 0 .173.022.255.068l4.878 2.788c.268.154.372.516.23.808-.097.204-.288.32-.485.32"/>
        <path fill="#FFFFFE" d="M14.277 200.547c-.261 0-.519-.107-.704-.292-.186-.185-.292-.442-.292-.704 0-.263.106-.52.292-.705.185-.185.443-.291.704-.291.262 0 .52.106.705.291.184.186.291.442.291.705 0 .262-.107.519-.291.704-.186.185-.443.292-.705.292M35.301 181.953c-.087 0-.175-.022-.258-.07l-4.862-2.773c-.272-.155-.377-.52-.234-.817.1-.207.293-.324.494-.324.087 0 .176.021.259.07l4.861 2.772c.273.155.377.521.234.818-.1.206-.293.324-.494.324M38.848 185.273c-.262 0-.52-.106-.705-.291-.186-.186-.291-.442-.291-.704 0-.263.105-.52.291-.705.186-.186.443-.292.705-.292.261 0 .519.106.704.292.185.186.292.442.292.705 0 .262-.107.518-.292.704-.185.185-.443.291-.704.291M24.047 213.828c-.082 0-.165-.026-.243-.081l-8.25-5.883c-.256-.183-.355-.613-.22-.96.093-.242.275-.38.463-.38.082 0 .165.026.243.081l8.25 5.883c.256.183.355.611.22.96-.093.242-.275.38-.463.38M33.34 215.82c-.096 0-.193-.024-.283-.074l-4.84-2.692c-.298-.166-.413-.557-.256-.872.109-.22.32-.346.54-.346.095 0 .192.024.283.074l2.211 1.23c.388.67.938 1.235 1.611 1.626l1.261.732c-.112.206-.317.322-.528.322"/>
        <path fill="#F5D4C1" d="M31.82 217.813l-.85-1.237c-.455-.66-.826-1.615-1.087-2.748l1.772 2.471c.201.28.278.94.173 1.474l-.008.04"/>
        <path fill="#FFFFFE" d="M31.287 193.242c-.84-.745-1.63-1.515-2.368-2.31l2.956 1.486c-.23.251-.428.528-.588.824m-5.384-2.53l-1.012-.508c-.293-.148-.406-.495-.252-.775.037-.068.087-.125.144-.171.358.493.73.978 1.12 1.454"/>
        <path fill="#F4F7F6" d="M30.481 193.242l-4.881-2.497c-.358-.446-.7-.899-1.03-1.36.1-.082.227-.127.356-.127.086 0 .174.02.255.061l3.19 1.632c.677.743 1.404 1.464 2.176 2.16-.023.043-.045.087-.066.131"/>
        <path fill="#F5D7C0" d="M35.859 194.57c-1.764-1.033-3.41-1.99-4.773-2.775-.237-.136-.489-.2-.736-.2-.137 0-.271.02-.402.057-.022.049-.044.097-.065.147.025-.06.05-.118.078-.176.175-.372.391-.72.643-1.037l.322.186c-.03.503.193 1.02.652 1.288 1.235.721 2.703 1.583 4.281 2.51"/>
        <path fill="#F5D4C1" d="M35.337 194.57c-.103 0-.207-.032-.305-.1l-5.15-3.634.066-.18c.13-.046.265-.07.402-.07.247 0 .499.078.736.244 1.364.959 3.01 2.129 4.773 3.39-.125.225-.32.35-.522.35"/>
        <path fill="#F9DEC9" d="M35.755 194.57c-1.24-.972-2.395-1.876-3.365-2.632-.361-.282-.536-.825-.513-1.352l3.706 2.858c.253.194.35.652.217 1.022-.013.037-.028.072-.045.104"/>
        <path fill="#F5D4C1" d="M43.458 196.563c-.098 0-.198-.028-.29-.087l-4.981-3.136c-.238-.15-.363-.459-.33-.762 1.961 1.259 4.029 2.589 5.971 3.84-.107.094-.237.144-.37.144"/>
        <path fill="#F9DEC9" d="M43.583 196.563c-1.849-1.101-3.833-2.28-5.731-3.404.008-.076.03-.152.064-.224.107-.227.317-.357.533-.357.094 0 .19.025.279.077l4.778 2.78c.294.171.407.574.253.9-.044.093-.105.17-.176.227"/>
        <path fill="#F9DDCA" d="M43.826 196.563c-1.943-1.298-4.012-2.677-5.974-3.983v-.002c1.98 1.315 4.048 2.695 5.976 3.983l-.002.001"/>
        <path fill="#FFFFFE" d="M38.682 187.266l-5.848-2.977c-.27-.137-.373-.46-.232-.721.1-.183.291-.287.49-.287.086 0 .173.02.255.062l6.497 3.306-1.162.617"/>
        <path fill="#F5D7C0" d="M37.852 189.188L37.852 189.188 39.844 187.266 37.923 189.12 37.852 189.188"/>
        <path fill="#F9DEC9" d="M40.797 187.262L39.844 186.633 39.89 186.602 39.891 186.602 40.797 187.262"/>
        <path fill="#FFFFFE" d="M41.234 191.25c-.094 0-.19-.036-.278-.114l-2.214-1.916-.89-.851 1.22-1.103 2.442 2.115c.294.254.407.853.253 1.338-.107.339-.316.531-.533.531M29.254 181.953c-.098 0-.198-.02-.29-.064l-6.17-2.87c-.076-.273-.148-.547-.216-.823.12-.145.31-.227.507-.227.098 0 .198.02.291.064l6.171 2.871c.307.142.425.479.264.75-.112.19-.33.3-.557.3"/>
        <path fill="#F4F7F6" d="M23.008 178.225l-.003-.001c-.39-.16-.54-.536-.335-.84.019-.028.04-.054.063-.08.086.31.177.616.275.92"/>
        <path fill="#FFFFFE" d="M30.88 183.281c-.264 0-.52-.106-.705-.291-.186-.186-.292-.442-.292-.704 0-.263.106-.52.292-.705.185-.186.441-.292.705-.292.261 0 .517.106.703.292.186.186.292.442.292.705 0 .262-.106.518-.292.704-.186.185-.442.291-.703.291"/>
        <path fill="#F8C361" d="M8.3 203.867c-.23.841-.575 1.532-.995 1.992.42.46.766 1.15.996 1.993.23-.842.576-1.533.996-1.993-.42-.46-.766-1.15-.996-1.992M2.988 192.578c-.69 1.262-1.727 2.298-2.988 2.988 1.26.69 2.298 1.728 2.988 2.989.69-1.261 1.727-2.299 2.989-2.989-1.262-.69-2.299-1.726-2.989-2.988M76.7 183.281c-.69 1.262-1.727 2.299-2.99 2.989 1.263.69 2.3 1.726 2.99 2.988.69-1.262 1.727-2.299 2.987-2.988-1.26-.69-2.297-1.727-2.987-2.989"/>
        <path fill="#FFFFFE" d="M304.405 106.377s3.714-2.686.251-7.774c-1.092-1.767-5.452-3.692-8.855-.919-3.402 2.774-12.024 8.102-13.499 9.016-1.475.915-.566 2.788 1.165 2.845 1.217.041 6.31-.466 6.31-.466s-.948.65-.86 1.209c.087.559 1.674 1.492 6.057.31-.922.652.448 1.363 2.121.698 1.674-.667 2.288-.933 2.288-.933s-.63 1.229.68.778c1.307-.45 4.784-2.787 4.342-4.764"/>
        <g transform="translate(281.563 94.297)">
            <mask id="4i8jxsvz9x" fill="#fff">
                <use xlink:href="#72211ed28w"/>
            </mask>
            <path fill="#FFFFFE" d="M22.762-.857L21.65.542s2.49 2.476.652 6.162c-1.536 3.076-4.637 3.344-6.01 2.703-2.019-.942-1.66-3.194-.578-3.859.908-.558 1.666-.014 2.365.617.134.123.299-.04.213-.199-.144-.265-.473-.917-1.45-1.161-2.103-.525-3.179 1.768-2.569 3.66.551 1.708 3.998 4.675 8.384 1.568 4.388-3.109 4.726-5.045 4.726-5.045l-4.62-5.845" mask="url(#4i8jxsvz9x)"/>
        </g>
        <path fill="#E49264" d="M292.92 103.751l3.13 17.281c.268 1.478 1.286 2.687 2.656 3.151l17.01 5.772c1.278.434 2.68.156 3.719-.736l13.815-11.874c1.112-.955 1.636-2.47 1.369-3.948l-3.13-17.28c-.268-1.479-1.286-2.687-2.655-3.152l-17.01-5.772c-1.279-.433-2.68-.156-3.72.737L294.29 99.803c-1.112.955-1.637 2.47-1.37 3.948"/>
        <g transform="translate(292.852 86.992)">
            <mask id="6eg0fer7az" fill="#fff">
                <use xlink:href="#x3sagmps4y"/>
            </mask>
            <path fill="#E37E66" d="M23.897 42.94c-.186-.032-.371-.079-.553-.138L9.717 38.308c.65-.568 1.294-1.138 1.93-1.708 1.424.038 3.218.043 4.098.043h.537s-1.02.564-.984 1.137c.027.433.902 1.164 3.29 1.164.773 0 1.705-.076 2.818-.265-.78.447-.136 1.066 1.025 1.066.32 0 .68-.047 1.058-.157l1.07-.313.263 1.423c.17.913-.237 1.772-.925 2.243M7.439 37.558l-1.409-.465c-.814-.268-1.505-.787-1.994-1.463l4.256-3.694c.237-.206.265-.568.062-.809-.111-.132-.27-.2-.429-.2-.13 0-.26.045-.366.137l-4.066 3.528c-.07-.198-.126-.404-.165-.616l-1.493-8.008 3.233-2.805c.236-.206.264-.568.062-.809-.112-.132-.27-.2-.43-.2-.13 0-.26.045-.365.137L1.593 24.67.368 18.1l2.421-2.102c.157-.136.222-.34.19-.533.993.311 2.078.653 3.206 1.01l1.404.448c-.035.128-.05.254-.05.384 0 .14.017.285.046.44.124.662.348 1.955.526 2.907.179.801.326.968.925 1.205.598.237 3.302.984 4.17 1.182.07.016.134.024.192.024.48 0 .545-.513.545-.786 0-.099-.01-.166-.01-.166s-.291-.824-.541-1.796c-.093-.35-.13-.664-.13-.94 0-.223.024-.422.06-.598.003-.007.004-.014.006-.022 1.958.627 3.765 1.207 5.162 1.656l.015.005c.145.047.29.086.437.12 1.375.312 2.448 1.402 2.701 2.811l.098.541.006.037.204 1.123.263 1.447c-4.206 2.546-11.857 6.316-13.282 7.02-1.286.636-1.032 2.063.047 2.696-.508.448-1.022.896-1.54 1.345m6.245-11.755c-.13 0-.26.045-.366.138L9.47 29.28c-.238.206-.265.567-.063.808.112.133.27.201.43.201.13 0 .26-.045.366-.138l3.848-3.34c.237-.205.265-.567.062-.808-.111-.132-.27-.2-.429-.2M.127 16.8c-.037-.223-.055-.447-.055-.669 0-.39.054-.773.16-1.14.179-.087.378-.134.583-.134.132 0 .266.019.4.06l.798.247L.127 16.8" mask="url(#6eg0fer7az)"/>
            <path fill="#E58D68" d="M26.246 42.633l-.1-.067.667-.578c.237-.207.265-.568.062-.809-.111-.133-.27-.2-.429-.2-.13 0-.26.044-.366.136l-.73.634c-.228-.342-.392-.734-.473-1.158l-.257-1.335c.914-.272 1.274-.388 1.274-.388s-.58.909.203.909c.11 0 .245-.018.412-.058 1.368-.328 5.108-2.353 4.846-4.392 0 0 4.013-2.354.979-7.827-.652-1.31-2.885-2.846-5.428-2.846-1.128 0-2.318.302-3.457 1.062-.362.242-.778.504-1.234.78l-.264-1.446-.21-1.16c-.286-1.666.352-3.341 1.63-4.426.045-.037.089-.075.133-.114L37.039 8.069l.015-.012.13-.108c.15-.126.344-.173.547-.173.585 0 1.257.385 1.257.385.192.362.332.756.41 1.173l3.185 17.091c.046.252.07.504.07.755.001 1.206-.526 2.368-1.463 3.15L27.129 42.073c-.273.228-.57.415-.883.56m13.368-20.8c-.202 0-.408.064-.589.204l-4.098 3.17c-.295.228-.438.606-.369.976l.611 3.275c.093.5.52.811.965.811.203 0 .41-.064.59-.204l4.098-3.17c.295-.228.437-.606.369-.977l-.61-3.274c-.094-.5-.52-.811-.967-.811m-3.265 6.769c-.085 0-.168-.04-.221-.116-.089-.124-.061-.297.062-.388l3.675-2.686c.048-.035.104-.052.159-.052.085 0 .17.04.222.115.089.125.061.298-.062.388L36.51 28.55l-.108.047c-.018.003-.035.005-.052.005m-.305-1.638c-.085 0-.168-.04-.221-.116-.089-.125-.06-.298.061-.388l3.676-2.686c.048-.036.104-.053.159-.053.085 0 .17.04.223.116.088.125.06.297-.063.388l-3.675 2.686-.109.048c-.017.003-.033.005-.051.005" mask="url(#6eg0fer7az)"/>
            <path fill="#E57F69" d="M22.033 25.05l-.283-1.123-.009-.037.292 1.16" mask="url(#6eg0fer7az)"/>
            <path fill="#E8A67A" d="M20.072 20.664c-.524 0-1.053-.08-1.567-.246l-.015-.005c-1.36-.437-3.172-1.02-5.162-1.658.14-.635.457-.953.457-.953l15.722-13.79.166-.11 7.023 2.315.046.016c.755.277.927 1.294.312 1.824L23.504 19.35l-.116.1-.017.014c-.94.785-2.11 1.2-3.299 1.2" mask="url(#6eg0fer7az)"/>
            <path fill="#EA937C" d="M18.49 20.413c-1.397-.449-3.204-1.029-5.162-1.656v-.002c1.99.638 3.802 1.221 5.162 1.658" mask="url(#6eg0fer7az)"/>
            <path fill="#E8A17D" d="M23.371 19.464l.017-.014.116-.1 13.55-11.293-.015.012-13.535 11.28c-.044.04-.088.078-.133.115" mask="url(#6eg0fer7az)"/>
            <path fill="#E8A67A" d="M7.59 16.922l-1.405-.446c-1.138-.363-2.224-.707-3.207-1.018-.018-.096-.06-.189-.126-.268-.112-.133-.27-.201-.43-.201-.13 0-.26.045-.366.138l-.033.028-.354-.11c-.752-.238-.998-1.2-.448-1.772.048-.05.098-.1.149-.146.054-.051.109-.1.166-.147l14.06-11.743C16.324.629 17.227.31 18.144.31c.415 0 .832.065 1.237.198l5.017 1.654C19.526 6.284 9.68 14.622 8.348 15.828c-.443.435-.667.77-.758 1.094" mask="url(#6eg0fer7az)"/>
            <path fill="#EA937C" d="M7.59 17.088l-1.405-.612 1.405.61v.002" mask="url(#6eg0fer7az)"/>
            <path fill="#FFFFFE" d="M29.507 4.012l-15.722 13.79s-.835.84-.393 2.515c.25.972.542 1.796.542 1.796s.14 1.126-.728.928c-.868-.198-3.572-.945-4.17-1.182-.599-.237-.746-.404-.925-1.205-.178-.952-.402-2.245-.526-2.907-.123-.663-.046-1.125.764-1.92 1.779-1.61 18.763-15.96 18.763-15.96l3.047 3.709-.652.436" mask="url(#6eg0fer7az)"/>
        </g>
        <g transform="translate(300.156 88.984)">
            <mask id="eqyxrgh9lB" fill="#fff">
                <use xlink:href="#ef4t5oazsA"/>
            </mask>
            <path fill="#F0B8AB" d="M6.065 20.363c-.058 0-.123-.007-.194-.023-.881-.192-3.623-.916-4.23-1.146-.608-.229-.758-.391-.938-1.168-.181-.922-.409-2.175-.535-2.818-.028-.15-.047-.29-.047-.426 0-.135.018-.266.061-.4l5.807 1.827c-.037.17-.061.363-.061.58 0 .267.037.57.131.91.254.943.55 1.741.55 1.741s.01.066.01.161c0 .264-.066.762-.554.762" mask="url(#eqyxrgh9lB)"/>
        </g>
        <g transform="translate(292.852 86.992)">
            <mask id="i69gfvnnzD" fill="#fff">
                <use xlink:href="#iyn1jhf2bC"/>
            </mask>
            <path fill="#F5D4C1" d="M36.134 30.269c-.445 0-.872-.311-.965-.81l-.61-3.276c-.07-.37.073-.748.368-.977l4.098-3.169c.18-.14.387-.204.59-.204.445 0 .872.31.965.811l.61 3.274c.07.371-.073.75-.368.977l-4.098 3.17c-.18.14-.387.204-.59.204m3.89-4.91c-.055 0-.11.018-.159.053l-3.675 2.686c-.123.09-.15.264-.062.388.053.076.136.116.22.116.018 0 .035-.002.053-.005l.108-.047 3.675-2.687c.123-.09.15-.263.062-.388-.053-.075-.137-.115-.222-.115m-.305-1.639c-.055 0-.111.017-.16.053l-3.675 2.686c-.122.09-.15.263-.061.388.053.075.136.116.221.116.018 0 .034-.002.051-.005l.109-.048 3.675-2.686c.123-.09.15-.263.063-.388-.054-.076-.138-.116-.223-.116" mask="url(#i69gfvnnzD)"/>
        </g>
        <path fill="#FFFFFE" d="M286.926 111.563c-.015-.71-.032-1.413-.051-2.12l.78-1.602c.502-.103.95-.203 1.212-.263l-1.94 3.984"/>
        <path fill="#CEE7ED" d="M285.383 113.555c-.141 0-.281-.1-.38-.295-.18-.353-.155-.883.055-1.184l1.744-2.506c.027.703.052 1.4.073 2.105l-1.168 1.678c-.094.135-.21.202-.324.202"/>
        <path fill="#FFFFFE" d="M288.867 109.57l5.71-5.976.017.112.25 1.615-3.833 4.012c-.464.054-1.257.144-2.144.237"/>
        <path fill="#F5D7C0" d="M297.79 103.345l-.954-.403.01-.012.942.405c0 .004 0 .007.002.01"/>
        <path fill="#F5CFBF" d="M293.02 106.25l-.158-1.649-.01-.114 1.313-2.221c.217.13.441.267.673.408.023.261-.023.538-.132.724l-1.686 2.852"/>
        <path fill="#F9DEC9" d="M297.79 103.559l-.954-.406.034-.038c.105-.125.235-.185.365-.185.16 0 .318.092.429.27.066.106.108.23.126.359"/>
        <path fill="#D5ECF0" d="M282.56 115.547c-.264 0-.52-.106-.706-.292-.186-.185-.291-.442-.291-.704 0-.262.105-.52.291-.705.186-.184.442-.291.705-.291.262 0 .518.107.704.291.186.186.292.443.292.705 0 .262-.106.519-.292.704-.186.186-.442.292-.704.292"/>
        <path fill="#FFFFFE" d="M298.785 142.11c-.175 0-.35-.084-.472-.246-.223-.296-.192-.738.069-.99l4.735-4.573c.117-.113.26-.168.403-.168.175 0 .35.084.472.246.222.295.192.737-.07.989l-4.734 4.573c-.117.113-.26.168-.403.168M297.832 144.102c-.263 0-.519-.106-.704-.292-.186-.186-.292-.443-.292-.705 0-.261.106-.518.292-.704.185-.186.441-.292.704-.292.262 0 .519.106.705.292.184.186.291.443.291.704 0 .262-.107.52-.291.705-.186.186-.443.292-.705.292M286.893 115.547c-.004-.6-.01-1.192-.018-1.79l1.346-2.029c.074-.111.165-.165.255-.165.11 0 .22.082.297.242.14.29.122.725-.043.973l-1.837 2.769"/>
        <path fill="#D5ECF0" d="M285.332 119.531c-.127 0-.253-.09-.342-.267-.16-.322-.138-.803.05-1.077l1.815-2.64c.009.66.016 1.316.02 1.98l-1.252 1.822c-.085.122-.188.182-.291.182"/>
        <path fill="#FFFFFE" d="M291.855 111.563c-.262 0-.518-.106-.704-.292-.186-.186-.292-.442-.292-.705 0-.262.106-.518.292-.704.186-.186.442-.292.704-.292.263 0 .52.106.705.292.186.186.292.442.292.704 0 .263-.106.519-.292.705-.186.186-.442.291-.705.291M304.61 143.438c-.132 0-.264-.082-.357-.241-.168-.288-.145-.72.052-.966l6.365-7.926c.089-.11.197-.164.305-.164.133 0 .264.082.358.24.168.288.145.72-.053.966l-6.364 7.926c-.089.11-.197.165-.305.165M316.01 134.14c-.164 0-.327-.1-.441-.296-.208-.356-.18-.892.064-1.196l1.78-2.223c.211.048.423.072.634.072.466 0 .928-.116 1.367-.34l-3.028 3.781c-.11.136-.243.203-.376.203"/>
        <path fill="#F5D7C0" d="M317.985 132.148c-.187 0-.376-.025-.563-.077l1.266-1.915c.195.51.442.951.726 1.301l-.214.325c-.39.242-.8.366-1.215.366"/>
        <path fill="#F5D4C1" d="M318.376 130.82c-.374-.276-.698-.623-.954-1.025l.875-.795c.127-.116.284-.172.44-.172.19 0 .38.085.514.252.244.302.21.756-.074 1.015l-.8.725"/>
        <path fill="#FFFFFE" d="M291.462 126.836c-.17 0-.339-.078-.458-.23-.216-.276-.186-.69.067-.925l5.185-4.822c.14.428.337.827.58 1.187l-4.983 4.633c-.113.105-.253.157-.39.157"/>
        <path fill="#F5CFBF" d="M296.605 124.844c-.182-.4-.328-.844-.433-1.319l3.242-4.484c.085-.116.189-.174.292-.174.127 0 .253.086.342.255.162.306.14.767-.05 1.028l-3.393 4.694M302.6 119.531c-.127 0-.254-.091-.343-.267-.162-.321-.14-.803.05-1.077l3.08-4.449c.085-.123.19-.183.294-.183.127 0 .254.09.343.267.163.321.14.803-.05 1.077l-3.08 4.449c-.085.123-.19.183-.293.183"/>
        <path fill="#FFFFFE" d="M291.487 117.54c-.177 0-.354-.078-.477-.228-.225-.271-.194-.68.07-.913l5.487-4.837.269 1.466-4.942 4.356c-.118.104-.263.155-.407.155"/>
        <path fill="#F5CFBF" d="M294.975 113.555l-.131-1.356 1.487-2.485c.058-.096.128-.144.199-.144.086 0 .172.072.233.21.11.252.094.63-.034.845l-1.754 2.93"/>
        <path fill="#D5ECF0" d="M282.135 126.836c-.161 0-.322-.078-.435-.228-.206-.272-.177-.682.063-.915l4.832-4.679c.107-.103.24-.155.371-.155.162 0 .323.077.436.228.205.272.177.682-.064.914l-4.832 4.68c-.107.104-.24.155-.371.155"/>
        <path fill="#FFFFFE" d="M289.276 120.195c-.143 0-.283-.07-.385-.194l-.024-.031c.005-.297.007-.593.01-.89l.014-.018c.102-.124.242-.195.385-.195.144 0 .284.07.385.195.102.124.16.294.16.47 0 .174-.058.345-.16.469-.101.124-.241.194-.385.194"/>
        <path fill="#D5ECF0" d="M289.066 119.787c-.127-.124-.199-.287-.199-.453 0-.172.077-.34.213-.467-.004.308-.008.613-.014.92"/>
        <path fill="#D4E3E5" d="M63.26 209.833c7.568 1.337 15.934 2.003 24.952 2.003 32.802-.003 74.233-8.812 117.008-26.49.515-.214.771-.832.572-1.382-.2-.55-.78-.823-1.295-.61-42.573 17.6-83.813 26.349-116.285 26.346-8.925 0-17.187-.66-24.626-1.974-.545-.096-1.06.298-1.15.88-.091.581.278 1.131.823 1.227M99.34 223.123c23.031-1.3 49.488-6.37 77.254-15.222.531-.17.829-.753.666-1.304-.163-.551-.725-.86-1.255-.692-27.63 8.81-53.941 13.846-76.774 15.134-.554.032-.979.524-.948 1.1.03.574.503 1.016 1.057.984"/>
        <path fill="#D4E3E5" d="M205.23 185.202c42.01-17.156 77.664-39.638 101.897-62.502.412-.388.448-1.055.079-1.49-.369-.433-1.002-.47-1.413-.082-23.993 22.644-59.471 45.034-101.286 62.106-.515.21-.772.822-.572 1.365.2.544.78.813 1.295.603"/>
        <path fill="#DF865C" d="M317.37 128.828c-.611-4.772-1.381-10.835-1.94-15.272v-.001c.67 5.247 1.464 11.272 1.992 15.251l-.051.022"/>
        <path fill="#DF745E" d="M315.452 128.828c-1.075 0-1.672-.714-.95-1.229-1.03.217-1.893.305-2.609.305-2.211 0-3.022-.843-3.047-1.341-.034-.66.911-1.312.911-1.312h-.497c-.815 0-2.476-.005-3.795-.048.35-.391.696-.78 1.042-1.17.39-.442.422-1.198.074-1.69-.187-.264-.446-.398-.706-.398-.224 0-.45.1-.63.304-.738.835-1.489 1.673-2.25 2.507-1-.73-1.234-2.375-.044-3.107 1.32-.813 8.405-5.158 12.3-8.094.625 4.28 1.486 10.127 2.17 14.73-.275.102-.603.222-.989.361-.351.128-.683.182-.98.182"/>
        <path fill="#E0825F" d="M319.324 126.836c-.786 0-.203-.918-.203-.918s-.362.117-1.278.392c-.64-3.362-1.603-8.453-2.413-12.887.457-.279.874-.543 1.237-.787 1.143-.768 2.337-1.073 3.469-1.073 2.55 0 4.79 1.552 5.445 2.874 3.043 5.527-.982 7.905-.982 7.905.263 2.06-3.49 4.104-4.861 4.436-.168.04-.304.058-.414.058"/>
        <path fill="#CFC7C5" d="M304.72 124.844c-.753-.03-1.4-.073-1.736-.136-.315-.06-.596-.205-.836-.411.792-1.02 1.574-2.044 2.343-3.065.188-.25.422-.373.656-.373.27 0 .54.165.735.487.363.603.328 1.527-.078 2.066-.36.478-.72.954-1.084 1.432"/>
        <path fill="#FFFFFE" d="M324.674 118.358s3.882-2.378.948-7.906c-.91-1.909-5.01-4.297-8.594-1.8-3.585 2.496-12.514 7.09-14.042 7.878-1.528.79-.806 2.788.885 3.017 1.189.159 6.225.14 6.225.14s-.987.57-.952 1.148c.035.578 1.505 1.686 5.907.908-.962.576.317 1.434 2.017.918 1.7-.516 2.325-.728 2.325-.728s-.728 1.192.595.86c1.323-.33 4.94-2.375 4.686-4.435"/>
        <g transform="translate(302.148 107.578)">
            <mask id="hfbdnggmdF" fill="#fff">
                <use xlink:href="#l9hm90zbiE"/>
            </mask>
            <path fill="#D4E3E5" d="M25.121-.875L23.814.471s2.364 2.812.066 6.464c-1.918 3.05-5.198 3.03-6.574 2.232-2.022-1.173-1.42-3.478-.219-4.064 1.009-.494 1.75.145 2.419.868.128.139.317-.013.242-.186-.123-.29-.403-1-1.404-1.346-2.152-.747-3.51 1.53-3.06 3.555.407 1.828 3.725 5.242 8.636 2.434 4.912-2.808 5.46-4.787 5.46-4.787L25.122-.875" mask="url(#hfbdnggmdF)"/>
        </g>
        <path fill="#F8C361" d="M320.322 140.117c-.193-.882-.508-1.635-.908-2.17.44-.385.818-1.015 1.085-1.814.193.881.507 1.634.907 2.168-.44.386-.817 1.016-1.084 1.816M313.26 151.406c-.385-1.322-1.015-2.452-1.815-3.254.882-.577 1.635-1.522 2.17-2.722.385 1.323 1.015 2.452 1.815 3.254-.882.577-1.635 1.522-2.17 2.722"/>
    </g>
</svg>
