<?xml version="1.0" encoding="utf-8"?>
<!-- Generator: Adobe Illustrator 25.2.2, SVG Export Plug-In . SVG Version: 6.00 Build 0)  -->
<svg version="1.1" id="Layer_1" xmlns="http://www.w3.org/2000/svg" xmlns:xlink="http://www.w3.org/1999/xlink" x="0px" y="0px"
	 viewBox="0 0 314.9 314.9" style="enable-background:new 0 0 314.9 314.9;" xml:space="preserve">
<style type="text/css">
	.st0{fill-rule:evenodd;clip-rule:evenodd;fill:#434243;}
	.st1{fill-rule:evenodd;clip-rule:evenodd;fill:#FFCB04;}
	.st2{fill:#434243;}
	.st3{fill:#3D4041;}
	.st4{fill:#292B2D;}
	.st5{fill:#656768;}
	.st6{fill:#545455;}
	.st7{fill:#797A7D;}
	.st8{fill:#4F4E50;}
	.st9{fill:#454748;}
	.st10{fill:#FFFFFF;}
	.st11{fill:#00A0D7;}
	.st12{fill:#EF9B65;}
	.st13{fill:#DFE9F1;}
	.st14{fill:#E8D5C4;}
	.st15{fill:#DEEBF2;}
	.st16{fill:#E4BC92;}
	.st17{fill:#ECF2F7;}
	.st18{fill:#DAA679;}
	.st19{fill:#C92027;}
	.st20{fill:#44B491;}
	.st21{fill:#7F171C;}
	.st22{fill:#F2CDBD;}
	.st23{fill:#B12453;}
	.st24{fill:#ED7786;}
	.st25{fill:#EC846B;}
	.st26{enable-background:new    ;}
	.st27{fill:#585B5C;}
	.st28{fill:#505252;}
	.st29{fill:#191617;}
	.st30{fill:#656566;}
	.st31{fill:#EB5F70;}
	.st32{fill:#CFCCCE;}
	.st33{fill:#9F9D9E;}
	.st34{fill:#B2B0AF;}
	.st35{fill:#BAB5BA;}
	.st36{fill:none;stroke:#58848F;stroke-width:1.7072;stroke-miterlimit:10;}
	.st37{fill:#1D3456;}
	.st38{fill:#5F2D45;}
	.st39{fill:#D8D7D2;}
	.st40{fill:#7B7C95;}
	.st41{fill:#9E82B9;}
	.st42{fill:#9AD0EB;}
	.st43{fill:#C42126;}
	.st44{fill:#CD9362;}
	.st45{fill:#3F3D3B;}
	.st46{fill:#C67F73;}
	.st47{fill:#454541;}
	.st48{fill:#1A1718;}
	.st49{fill:#6C9773;}
	.st50{fill-rule:evenodd;clip-rule:evenodd;fill:#FFFFFF;}
	.st51{fill:#E3E9EE;}
	.st52{fill:#D6E4EA;}
	.st53{fill:#EE9867;}
	.st54{fill:#EF936D;}
	.st55{fill:#EBB6B5;}
	.st56{fill:#EE856E;}
	.st57{fill:#EF8171;}
	.st58{fill:#EF8773;}
	.st59{fill:#F8C0B2;}
	.st60{fill:#DDE8ED;}
	.st61{fill:#F0AA7F;}
	.st62{fill:#F1A783;}
	.st63{fill:#F19A83;}
	.st64{fill:#F7DAC9;}
	.st65{fill:#EC8963;}
	.st66{fill:#E3ECF0;}
	.st67{fill:#D6E3EA;}
	.st68{fill:#DFC3AE;}
	.st69{fill:#E1CCBB;}
	.st70{fill:#DFC2B0;}
	.st71{fill:#E2CBBD;}
	.st72{fill:#FFC860;}
	.st73{fill:#555456;}
	.st74{fill:#2A2B2D;}
	.st75{fill:#908F8F;}
	.st76{fill:#EBEBEC;}
	.st77{fill:#EF946D;}
	.st78{fill:#EF866E;}
	.st79{fill:#F9C1B3;}
	.st80{fill:#F8DBCA;}
	.st81{fill:none;}
</style>
<g>
	<g id="InPost-www">
		<g id="strona-glowna" transform="translate(-154.000000, -11.000000)">
			<g id="header">
				<g id="logo" transform="translate(154.000000, 11.000000)">
					<g>
						<g id="Fill-23">
							<path class="st0" d="M280.3,296.7h-1.9v-5.3c0-1.1-0.5-1.7-1.4-1.8c-0.6,0-1.5,0.1-2.1,0.2v6.9H273v-8.2c0,0,2.3-0.5,4.3-0.5
								c0.9,0,1.6,0.3,2.2,0.9c0.5,0.5,0.8,1.3,0.8,2.2V296.7L280.3,296.7L280.3,296.7z"/>
						</g>
						<g id="Fill-25">
							<path class="st0" d="M311.8,296.7c-0.3,0.1-0.6,0.1-1,0.1c-1.1,0-1.8-0.2-2.1-0.7c-0.3-0.4-0.4-1.1-0.4-2.1v-8.5h1.9v2.4h1.7
								v1.5h-1.7v4.5c0,0.5,0.1,0.8,0.2,1s0.5,0.3,0.9,0.3c0.1,0,0.3,0,0.5,0V296.7z"/>
						</g>
						<g id="Fill-27">
							<path class="st1" d="M254.1,291c0,0-2.2,0.8-4.8,0.8c-2.7,0-4.8-0.8-4.8-0.8s2.2-0.8,4.8-0.8
								C251.9,290.3,254.1,291,254.1,291"/>
						</g>
						<g id="Group-31" transform="translate(19.496568, 0.258000)">
							<g id="Clip-30">
							</g>
							<g id="Fill-29">
								<path class="st1" d="M241.4,278.5c0,0-2-1.3-3.5-3.5s-2-4.4-2-4.4s2,1.3,3.5,3.5C240.9,276.2,241.4,278.5,241.4,278.5"/>
							</g>
						</g>
						<g id="Fill-32">
							<path class="st1" d="M256,284c0,0-2.4-0.3-4.7-1.5c-2.4-1.2-4-3-4-3s2.4,0.3,4.7,1.5C254.4,282.3,256,284,256,284"/>
						</g>
						<g id="Fill-34">
							<path class="st1" d="M260.6,295.1c1.4,0,3.1-1.1,3.1-1.1s-3.9-1.2-3.7-4.6c0.8-5.6,5.3-10.1,11.2-10.9
								c-0.6-0.1-1.3-0.1-1.9-0.1c-7.1,0-12.9,5.7-12.8,12.6c0,6.9,5.8,12.5,13,12.5c0.6,0,1.2,0,1.8-0.1c-5-0.6-9.2-4.1-10.7-8.7"
								/>
						</g>
						<g id="Group-38" transform="translate(19.496568, 57.803455)">
							<g id="Clip-37">
							</g>
							<g id="Fill-36">
								<path class="st1" d="M241.4,245.6c0,0-2,1.3-3.5,3.5s-2,4.4-2,4.4s2-1.3,3.5-3.5S241.4,245.6,241.4,245.6"/>
							</g>
						</g>
						<g id="Fill-39">
							<path class="st1" d="M256,298.1c0,0-2.4,0.3-4.7,1.5c-2.4,1.2-4,3-4,3s2.4-0.3,4.7-1.5C254.4,299.8,256,298.1,256,298.1"/>
						</g>
						<g id="Clip-42">
						</g>
						<g id="Fill-41">
							<polygon class="st0" points="269.3,296.7 271.3,296.7 271.3,285.5 269.3,285.5 							"/>
						</g>
						<g id="Fill-43">
							<path class="st0" d="M288.4,289.3c0-1.4-0.7-2.1-2-2.1H284v4.1h2.3c0.6,0,1.1-0.2,1.5-0.5C288.3,290.5,288.4,290,288.4,289.3
								 M290.4,289.3c0,1.2-0.4,2.1-1.1,2.8c-0.7,0.7-1.7,1.1-2.9,1.1h-2.3v3.6h-2v-11.2h4.1c1.3,0,2.4,0.3,3.1,1
								S290.4,288.1,290.4,289.3"/>
						</g>
						<g id="Fill-44">
							<path class="st0" d="M297.2,292.2c0-0.8-0.2-1.5-0.6-2s-0.9-0.7-1.6-0.7s-1.2,0.3-1.6,0.8s-0.6,1.2-0.6,2s0.2,1.5,0.6,2
								s0.9,0.7,1.6,0.7s1.2-0.2,1.6-0.7C297,293.7,297.2,293.1,297.2,292.2 M299.2,292.2c0,1.4-0.4,2.4-1.1,3.3
								c-0.8,0.8-1.8,1.2-3,1.2s-2.2-0.4-3-1.2c-0.8-0.8-1.1-1.9-1.1-3.3s0.4-2.4,1.1-3.3c0.8-0.8,1.8-1.2,3-1.2s2.2,0.4,3,1.2
								C298.8,289.8,299.2,290.8,299.2,292.2"/>
						</g>
						<g id="Fill-45">
							<path class="st0" d="M307.3,293.8c0,0.9-0.3,1.6-1,2.1s-1.5,0.8-2.6,0.8c-1.7,0-3-0.5-4-1.5l1.4-1.2c0.7,0.7,1.5,1,2.5,1
								c0.5,0,1-0.1,1.3-0.3c0.3-0.2,0.5-0.5,0.5-0.8c0-0.4-0.2-0.6-0.5-0.7c-0.2-0.1-0.8-0.2-1.7-0.3c-1.1-0.2-1.9-0.4-2.3-0.7
								c-0.5-0.4-0.8-1-0.8-1.7c0-0.8,0.3-1.4,1-1.9s1.5-0.8,2.6-0.8c1.3,0,2.5,0.4,3.4,1.3l-1.1,1.2c-0.7-0.6-1.5-0.9-2.3-0.9
								c-1.1,0-1.7,0.3-1.7,0.9c0,0.4,0.3,0.6,0.8,0.7c0.7,0.1,1.4,0.2,2.1,0.4C306.5,291.6,307.3,292.4,307.3,293.8"/>
						</g>
					</g>
				</g>
			</g>
		</g>
	</g>
	<g>
		<g>
			<path class="st2" d="M154.2,287.7h2.5c1.4,0,2.2,0.8,2.2,2s-0.9,2-2.2,2h-1.6v2.9h-0.8L154.2,287.7L154.2,287.7z M156.6,290.9
				c0.9,0,1.4-0.5,1.4-1.3c0-0.7-0.5-1.3-1.4-1.3H155v2.6L156.6,290.9L156.6,290.9z"/>
		</g>
		<g>
			<path class="st2" d="M159.3,292c0-1.5,1.2-2.7,2.7-2.7s2.7,1.2,2.7,2.7s-1.2,2.7-2.7,2.7S159.3,293.5,159.3,292z M163.8,292
				c0-1.1-0.8-1.9-1.9-1.9c-1.1,0-1.9,0.8-1.9,1.9s0.8,1.9,1.9,1.9C163,294,163.8,293.1,163.8,292z"/>
		</g>
		<g>
			<path class="st2" d="M173.2,289.5l-2.2,5.2h-0.3l-1.8-3.9l-1.7,3.9H167l-2.2-5.2h0.9l1.5,3.8l1.7-3.9h0.3l1.7,3.9l1.5-3.8H173.2z
				"/>
		</g>
		<g>
			<path class="st2" d="M178.2,292.3h-4.1c0.1,1,0.9,1.7,1.9,1.7c0.6,0,1.2-0.3,1.6-0.7l0.5,0.6c-0.5,0.6-1.2,0.9-2.1,0.9
				c-1.6,0-2.7-1.2-2.7-2.7s1.2-2.7,2.6-2.7c1.3,0,2.4,1,2.4,2.3C178.3,291.9,178.3,292.2,178.2,292.3z M174.3,291.5h3.3
				c0-1-0.7-1.5-1.5-1.5C175.2,290.2,174.5,290.7,174.3,291.5z"/>
		</g>
		<g>
			<path class="st2" d="M182.1,289.5v0.7h-0.3c-0.8,0-1.6,0.5-1.6,1.5v2.9h-0.8v-5.1h0.8v0.7c0.4-0.5,1-0.8,1.6-0.8
				C181.9,289.5,182,289.5,182.1,289.5z"/>
		</g>
		<g>
			<path class="st2" d="M187.2,292.3h-4.1c0.1,1,0.9,1.7,1.9,1.7c0.6,0,1.2-0.3,1.6-0.7l0.5,0.6c-0.5,0.6-1.2,0.9-2.1,0.9
				c-1.6,0-2.7-1.2-2.7-2.7s1.2-2.7,2.6-2.7c1.3,0,2.4,1,2.4,2.3C187.2,291.9,187.2,292.2,187.2,292.3z M183.2,291.5h3.3
				c0-1-0.7-1.5-1.5-1.5C184.1,290.2,183.4,290.7,183.2,291.5z"/>
		</g>
		<g>
			<path class="st2" d="M193.2,286.8v7.8h-0.8v-0.8c-0.4,0.6-1.1,0.9-1.9,0.9c-1.5,0-2.6-1.2-2.6-2.7s1.1-2.7,2.6-2.7
				c0.8,0,1.5,0.3,1.9,0.9v-3.5L193.2,286.8L193.2,286.8z M192.4,292c0-1.4-0.9-1.9-1.8-1.9c-1,0-1.8,0.8-1.8,1.9s0.8,1.9,1.8,1.9
				C191.5,294,192.4,293.4,192.4,292z"/>
		</g>
		<g>
			<path class="st2" d="M202.3,292c0,1.5-1.1,2.7-2.5,2.7c-0.8,0-1.6-0.3-2-0.9v0.8H197v-7.8h0.8v3.5c0.4-0.5,1.1-0.9,1.9-0.9
				C201.3,289.4,202.3,290.6,202.3,292z M201.5,292c0-1.1-0.8-1.9-1.8-1.9c-0.9,0-1.8,0.6-1.8,1.9s0.9,1.9,1.8,1.9
				C200.8,294,201.5,293.1,201.5,292z"/>
		</g>
		<g>
			<path class="st2" d="M207.8,289.5l-2.5,5.8c-0.4,0.9-1,1.3-1.7,1.3c-0.3,0-0.6,0-0.8-0.1v-0.7c0.2,0,0.4,0.1,0.6,0.1
				c0.5,0,0.9-0.2,1.2-0.8l0.3-0.6l-2.1-4.9h0.9l1.7,4.1l1.7-4.1L207.8,289.5L207.8,289.5z"/>
		</g>
		<g>
			<path class="st2" d="M211.1,287.7h0.8v6.9h-0.8V287.7z"/>
		</g>
		<g>
			<path class="st2" d="M217.6,291.4v3.2h-0.8v-3.1c0-0.8-0.5-1.4-1.3-1.4s-1.4,0.6-1.4,1.4v3.1h-0.8v-5.1h0.8v0.6
				c0.4-0.4,0.9-0.7,1.6-0.7C216.9,289.4,217.6,290.3,217.6,291.4z"/>
		</g>
		<g>
			<path class="st2" d="M219,287.7h2.5c1.4,0,2.2,0.8,2.2,2s-0.9,2-2.2,2h-1.6v2.9h-0.8L219,287.7L219,287.7z M221.4,290.9
				c0.9,0,1.4-0.5,1.4-1.3c0-0.7-0.5-1.3-1.4-1.3h-1.6v2.6L221.4,290.9L221.4,290.9z"/>
		</g>
		<g>
			<path class="st2" d="M224.1,292c0-1.5,1.2-2.7,2.7-2.7s2.7,1.2,2.7,2.7s-1.2,2.7-2.7,2.7C225.2,294.7,224.1,293.5,224.1,292z
				 M228.7,292c0-1.1-0.8-1.9-1.9-1.9c-1.1,0-1.9,0.8-1.9,1.9s0.8,1.9,1.9,1.9S228.7,293.1,228.7,292z"/>
		</g>
		<g>
			<path class="st2" d="M229.9,293.7l0.5-0.5c0.4,0.4,0.9,0.8,1.5,0.8c0.5,0,1-0.3,1-0.7c0-0.4-0.4-0.6-0.9-0.8l-0.5-0.2
				c-0.8-0.3-1.3-0.7-1.3-1.4c0-0.9,0.8-1.4,1.7-1.4c0.7,0,1.3,0.3,1.7,0.8l-0.5,0.5c-0.3-0.3-0.8-0.6-1.3-0.6s-0.9,0.2-0.9,0.6
				c0,0.3,0.3,0.5,0.8,0.8l0.5,0.2c0.9,0.4,1.4,0.8,1.4,1.5c0,1-0.9,1.5-1.8,1.5C231,294.7,230.3,294.3,229.9,293.7z"/>
		</g>
		<g>
			<path class="st2" d="M237.6,293.9v0.7c-0.3,0.1-0.5,0.1-0.9,0.1c-1,0-1.7-0.5-1.7-1.7v-2.9h-0.9v-0.7h0.9V288h0.8v1.4h1.6v0.7
				h-1.6v2.8c0,0.8,0.4,1,1.1,1C237.1,294,237.3,294,237.6,293.9z"/>
		</g>
	</g>
</g>
<g>
	<polyline class="st3" points="81.3,2.1 86,0.3 86,15.7 81.3,17 81.3,4.2 	"/>
</g>
<g>
	<path class="st4" d="M311.9,56.3c-11.3-2.4-82-16.7-94.4-19.1C155,25.6,86,15.7,86,15.7L81,17l0.8,20
		c35.9,5.4,162.9,28.1,220.5,32.7C305.5,64.8,308.3,60.7,311.9,56.3z"/>
</g>
<g>
	<path class="st5" d="M-15.7,20.3"/>
</g>
<g>
	<path class="st3" d="M12.7,34.6V20.3L84,1.3l-2.4,22.3L12.7,34.6z"/>
</g>
<g>
	<path class="st6" d="M311.7,46.1L86.3,0.3L86,15.7l225.9,40.6L311.7,46.1z"/>
</g>
<g>
	<g>
		<path class="st7" d="M305.2,228.8L66.4,258.5l2.4,41.1l236.4-48.9V228.8z"/>
	</g>
	<g>
		<path class="st8" d="M68.8,299.6l-48.6-15.3c-4.2-0.8-6.6-2.9-6.6-6.5v-81.9c0-3.7,2.9-6.5,6.6-6.5h48.6c3.7,0,6.6,2.9,6.6,6.5
			v97.2C75,296.8,72.1,299.6,68.8,299.6z"/>
	</g>
	<g>
		<path class="st9" d="M305.2,225.9c-95.4,2.4-418.4,22.2-230.1,61c0.8-3.4,167.8-34.4,230.1-45.1
			C305.4,237.4,304.9,230.4,305.2,225.9z"/>
	</g>
</g>
<g>
	<path class="st10" d="M310.3,58.3l-243-42.4L71,278.2l239.2-41.1"/>
</g>
<g>
	<polygon class="st11" points="74.5,275.4 127.6,267.3 126.6,29.4 75,20.6 	"/>
</g>
<g>
	<polygon class="st11" points="5.6,25 70.8,8.9 70.9,278.4 5.7,262.1 	"/>
</g>
<g>
	<g>
		<path class="st12" d="M23.2,82.8L23.2,82.8L23.2,82.8C23.2,83,23.2,83,23.2,82.8C23.2,83,23.2,83,23.2,82.8
			C23.2,83,23.2,83,23.2,82.8C23.2,83,23.2,83,23.2,82.8C23.2,83,23.2,83,23.2,82.8C23.2,83,23.2,83,23.2,82.8L23.2,82.8L23.2,82.8
			L23.2,82.8L23.2,82.8L23.2,82.8z"/>
	</g>
</g>
<g>
	<g>
		<path class="st12" d="M23.2,82.8L23.2,82.8L23.2,82.8z"/>
	</g>
</g>
<g>
	<g>
		<path class="st12" d="M24.3,80.7L24.3,80.7L24.3,80.7L24.3,80.7L24.3,80.7L24.3,80.7L24.3,80.7L24.3,80.7L24.3,80.7z"/>
	</g>
</g>
<g>
	<g>
		<path class="st13" d="M24.8,94.7L24.8,94.7L24.8,94.7z"/>
	</g>
</g>
<g>
	<g>
		<path class="st14" d="M28.7,77.2l0.5,0.3L28.7,77.2z"/>
	</g>
</g>
<g>
	<g>
		<path class="st12" d="M33.2,100.1L33.2,100.1c0.3,0,0.3,0,0.3-0.3C33.5,99.9,33.5,100.1,33.2,100.1
			C33.5,100.1,33.5,100.1,33.2,100.1L33.2,100.1z"/>
	</g>
</g>
<g>
	<g>
		<path class="st12" d="M49.5,79.6L49.5,79.6L49.5,79.6z"/>
	</g>
</g>
<g>
	<g>
		<path class="st12" d="M49.5,79.9L49.5,79.9L49.5,79.9L49.5,79.9L49.5,79.9L49.5,79.9L49.5,79.9L49.5,79.9L49.5,79.9L49.5,79.9
			L49.5,79.9L49.5,79.9L49.5,79.9L49.5,79.9z"/>
	</g>
</g>
<g>
	<g>
		<path class="st15" d="M51.1,82.8l0.3-0.3c0,0.3-0.3,0.8-0.3,1.3l0,0l0,0C51.1,83.5,51.1,83.3,51.1,82.8z"/>
	</g>
</g>
<g>
	<g>
		<path class="st16" d="M20.3,241c6,8.3-0.8,15.1-6,3.7L20.3,241z"/>
	</g>
</g>
<g>
	<g>
		<path class="st12" d="M23.2,83.3L23.2,83.3L23.2,83.3L23.2,83.3L23.2,83.3L23.2,83.3L23.2,83.3L23.2,83.3L23.2,83.3L23.2,83.3
			L23.2,83.3z"/>
	</g>
</g>
<g>
	<g>
		<path class="st12" d="M23.2,83L23.2,83L23.2,83C23.2,83,23.2,83.3,23.2,83C23.2,83.3,23.2,83.3,23.2,83
			C23.2,83.3,23.2,83.3,23.2,83L23.2,83L23.2,83L23.2,83L23.2,83L23.2,83L23.2,83L23.2,83z"/>
	</g>
</g>
<g>
	<g>
		<path class="st12" d="M23.2,83L23.2,83L23.2,83L23.2,83L23.2,83L23.2,83L23.2,83L23.2,83L23.2,83L23.2,83L23.2,83L23.2,83L23.2,83
			z"/>
	</g>
</g>
<g>
	<g>
		<path class="st12" d="M23.2,83L23.2,83L23.2,83z"/>
	</g>
</g>
<g>
	<g>
		<path class="st12" d="M23.2,82.8L23.2,82.8L23.2,82.8z"/>
	</g>
</g>
<g>
	<g>
		<path class="st13" d="M24.3,94.7C24,94.7,24,94.7,24.3,94.7C24,94.7,24,94.7,24.3,94.7L24.3,94.7L24.3,94.7L24.3,94.7L24.3,94.7
			L24.3,94.7L24.3,94.7L24.3,94.7C24,94.7,24,94.7,24.3,94.7C24,94.7,24,94.7,24.3,94.7C24,94.7,24,94.7,24.3,94.7z"/>
	</g>
</g>
<g>
	<g>
		<path class="st13" d="M24.3,94.7L24.3,94.7L24.3,94.7L24.3,94.7L24.3,94.7L24.3,94.7L24.3,94.7L24.3,94.7L24.3,94.7z"/>
	</g>
</g>
<g>
	<g>
		<path class="st13" d="M24.3,94.7L24.3,94.7L24.3,94.7L24.3,94.7L24.3,94.7L24.3,94.7L24.3,94.7L24.3,94.7L24.3,94.7z"/>
	</g>
</g>
<g>
	<g>
		<path class="st13" d="M24.3,94.7L24.3,94.7L24.3,94.7z"/>
	</g>
</g>
<g>
	<g>
		<path class="st13" d="M24.3,94.7L24.3,94.7L24.3,94.7L24.3,94.7L24.3,94.7L24.3,94.7L24.3,94.7L24.3,94.7L24.3,94.7z"/>
	</g>
</g>
<g>
	<g>
		<path class="st13" d="M24.5,94.7L24.5,94.7L24.5,94.7L24.5,94.7L24.5,94.7L24.5,94.7L24.5,94.7L24.5,94.7L24.5,94.7z"/>
	</g>
</g>
<g>
	<g>
		<path class="st13" d="M24.5,94.7L24.5,94.7L24.5,94.7L24.5,94.7C24.8,94.7,24.8,94.7,24.5,94.7C24.8,94.7,24.8,94.7,24.5,94.7
			L24.5,94.7L24.5,94.7L24.5,94.7z"/>
	</g>
</g>
<g>
	<g>
		<path class="st13" d="M24.8,94.7L24.8,94.7L24.8,94.7L24.8,94.7L24.8,94.7C25.1,94.7,25.1,94.7,24.8,94.7L24.8,94.7L24.8,94.7
			L24.8,94.7z"/>
	</g>
</g>
<g>
	<g>
		<path class="st13" d="M25.1,94.7L25.1,94.7L25.1,94.7L25.1,94.7L25.1,94.7L25.1,94.7L25.1,94.7L25.1,94.7L25.1,94.7z"/>
	</g>
</g>
<g>
	<g>
		<path class="st13" d="M25.1,94.7C25.3,94.7,25.3,94.7,25.1,94.7C25.3,94.7,25.3,94.7,25.1,94.7C25.3,94.7,25.3,94.7,25.1,94.7
			L25.1,94.7L25.1,94.7C25.3,94.7,25.3,94.7,25.1,94.7C25.3,94.7,25.3,94.7,25.1,94.7C25.3,94.7,25.3,94.7,25.1,94.7z"/>
	</g>
</g>
<g>
	<g>
		<polygon class="st17" points="28.7,77.2 28.7,77.2 29.5,76.5 		"/>
	</g>
</g>
<g>
	<g>
		<path class="st16" d="M33.7,182.9L33.7,182.9L33.7,182.9L33.7,182.9L33.7,182.9L33.7,182.9L33.7,182.9L33.7,182.9L33.7,182.9
			L33.7,182.9z"/>
	</g>
</g>
<g>
	<g>
		<path class="st18" d="M34,183.3L34,183.3L34,183.3L34,183.3L34,183.3L34,183.3L34,183.3L34,183.3c0,0.3-0.3-0.5-0.3-0.5l0,0l0,0
			l0,0l0,0C34,182.9,34,183.1,34,183.3L34,183.3L34,183.3L34,183.3z"/>
	</g>
</g>
<g>
	<g>
		<path class="st16" d="M34,177.4c0.3,0,0.8,0.3,1.1,0.3C34.8,177.6,34.3,177.6,34,177.4z"/>
	</g>
</g>
<g>
	<g>
		<path class="st12" d="M35.1,104.8L35.1,104.8L35.1,104.8z"/>
	</g>
</g>
<g>
	<g>
		<path class="st19" d="M26.9,126.1c2.7-2.1,6.1-2.7,9.3-4.1C33,123.1,29.5,123.8,26.9,126.1z"/>
	</g>
</g>
<g>
	<g>
		<polygon class="st20" points="50.3,207.3 50.3,207.3 50.3,207.3 50.3,207.3 50.1,207.3 50.1,207.3 50.1,207.3 		"/>
	</g>
</g>
<g>
	<g>
		<path class="st19" d="M39.8,177.9c-0.3,0.3-0.3,0.3-0.5,0.5C39.5,178.2,39.8,177.9,39.8,177.9L39.8,177.9L39.8,177.9L39.8,177.9z"
			/>
	</g>
</g>
<g>
	<g>
		<path class="st19" d="M45.5,122.5L45.5,122.5L45.5,122.5L45.5,122.5L45.5,122.5L45.5,122.5L45.5,122.5L45.5,122.5z"/>
	</g>
</g>
<g>
	<g>
		<path class="st21" d="M46.1,173L46.1,173L46.1,173L46.1,173c0,0.3-0.3,0.3-0.3,0.3l0,0l0,0l0,0l0,0l0,0l0,0l0,0l0,0
			C46.1,173.3,46.1,173,46.1,173z"/>
	</g>
</g>
<g>
	<g>
		<path class="st19" d="M46.1,173C46.1,172.7,46.3,172.7,46.1,173C46.3,172.7,46.3,173,46.1,173L46.1,173L46.1,173L46.1,173
			L46.1,173L46.1,173z"/>
	</g>
</g>
<g>
	<g>
		<path class="st19" d="M48.5,125.3L48.5,125.3L48.5,125.3C48.5,125.3,48.2,125.3,48.5,125.3C48.2,125.3,48.2,125.3,48.5,125.3
			C48.2,125.3,48.2,125.3,48.5,125.3C48.2,125.3,48.5,125.3,48.5,125.3L48.5,125.3L48.5,125.3z"/>
	</g>
</g>
<g>
	<g>
		<path class="st21" d="M26.7,125.9c8.7-6.7,18-7,23.8,4.9c-5.2-4.4-11.7-8.2-18.3-5c7.4,3.7-6.9,11.3-8.3,3.5
			c-2.4,1.3-3.4,2.9-4.6,5.2C19.7,130.6,21.9,124.4,26.7,125.9z"/>
	</g>
</g>
<g>
	<g>
		<path class="st19" d="M46.3,123.1L46.3,123.1L46.3,123.1L46.3,123.1L46.3,123.1L46.3,123.1L46.3,123.1L46.3,123.1L46.3,123.1z"/>
	</g>
</g>
<g>
	<g>
		<path class="st19" d="M46.9,123.6L46.9,123.6C46.9,123.6,47.1,123.8,46.9,123.6C47.1,123.8,47.1,123.8,46.9,123.6
			C47.1,123.8,47.1,123.8,46.9,123.6C47.1,123.8,47.1,123.8,46.9,123.6C47.1,123.8,46.9,123.6,46.9,123.6L46.9,123.6z"/>
	</g>
</g>
<g>
	<g>
		<path class="st19" d="M47.7,124.6C47.7,124.6,47.7,124.4,47.7,124.6C47.7,124.4,47.7,124.6,47.7,124.6z"/>
	</g>
</g>
<g>
	<g>
		<path class="st22" d="M47.7,176.8L47.7,176.8L47.7,176.8L47.7,176.8L47.7,176.8L47.7,176.8L47.7,176.8L47.7,176.8L47.7,176.8
			L47.7,176.8L47.7,176.8L47.7,176.8L47.7,176.8z"/>
	</g>
</g>
<g>
	<g>
		<path class="st22" d="M47.7,176.8L47.7,176.8L47.7,176.8z"/>
	</g>
</g>
<g>
	<g>
		<path class="st22" d="M47.9,176.8L47.9,176.8L47.9,176.8z"/>
	</g>
</g>
<g>
	<g>
		<path class="st22" d="M47.9,176.6L47.9,176.6L47.9,176.6C47.9,176.8,47.9,176.8,47.9,176.6L47.9,176.6L47.9,176.6
			C47.9,176.8,47.9,176.8,47.9,176.6C47.9,176.8,47.9,176.6,47.9,176.6L47.9,176.6L47.9,176.6z"/>
	</g>
</g>
<g>
	<g>
		<path class="st19" d="M47.9,176.3L47.9,176.3L47.9,176.3z"/>
	</g>
</g>
<g>
	<g>
		<path class="st12" d="M49.3,79.1L49.3,79.1L49.3,79.1z"/>
	</g>
</g>
<g>
	<g>
		<path class="st12" d="M49.3,79.1C49.3,79.3,49.3,79.1,49.3,79.1C49.3,79.3,49.3,79.3,49.3,79.1z"/>
	</g>
</g>
<g>
	<g>
		<path class="st12" d="M49.3,79.3L49.3,79.3C49.3,79.6,49.3,79.3,49.3,79.3z"/>
	</g>
</g>
<g>
	<g>
		<path class="st20" d="M49.3,213L49.3,213L49.3,213L49.3,213L49.3,213L49.3,213L49.3,213L49.3,213L49.3,213L49.3,213L49.3,213
			L49.3,213L49.3,213L49.3,213z"/>
	</g>
</g>
<g>
	<g>
		<path class="st20" d="M49.3,213L49.3,213L49.3,213z"/>
	</g>
</g>
<g>
	<g>
		<path class="st20" d="M49.3,213L49.3,213L49.3,213L49.3,213L49.3,213L49.3,213L49.3,213z"/>
	</g>
</g>
<g>
	<g>
		<path class="st20" d="M49.3,213L49.3,213L49.3,213L49.3,213L49.3,213L49.3,213L49.3,213L49.3,213L49.3,213L49.3,213L49.3,213z"/>
	</g>
</g>
<g>
	<g>
		<path class="st20" d="M49.3,213.3L49.3,213.3L49.3,213.3z"/>
	</g>
</g>
<g>
	<g>
		<path class="st20" d="M49.3,213.3L49.3,213.3L49.3,213.3z"/>
	</g>
</g>
<g>
	<g>
		<path class="st19" d="M49.3,213.3L49.3,213.3L49.3,213.3z"/>
	</g>
</g>
<g>
	<g>
		<path class="st20" d="M49.3,213.3L49.3,213.3L49.3,213.3z"/>
	</g>
</g>
<g>
	<g>
		<polygon class="st20" points="49.5,213.8 49.5,213.5 49.5,213.5 49.5,213.5 		"/>
	</g>
</g>
<g>
	<g>
		<path class="st20" d="M49.5,213.8L49.5,213.8L49.5,213.8z"/>
	</g>
</g>
<g>
	<g>
		<path class="st19" d="M49.3,213.3L49.3,213.3L49.3,213.3z"/>
	</g>
</g>
<g>
	<g>
		<path class="st12" d="M49.3,79.3L49.3,79.3L49.3,79.3z"/>
	</g>
</g>
<g>
	<g>
		<path class="st12" d="M49.3,79.3L49.3,79.3L49.3,79.3L49.3,79.3L49.3,79.3L49.3,79.3L49.3,79.3L49.3,79.3L49.3,79.3L49.3,79.3z"/>
	</g>
</g>
<g>
	<g>
		<path class="st20" d="M49.3,213.3L49.3,213.3L49.3,213.3z"/>
	</g>
</g>
<g>
	<g>
		<path class="st20" d="M49.3,213.5C49.3,213.5,49.3,213.3,49.3,213.5C49.3,213.3,49.3,213.3,49.3,213.5
			C49.3,213.3,49.3,213.3,49.3,213.5C49.3,213.3,49.3,213.3,49.3,213.5C49.3,213.3,49.3,213.3,49.3,213.5L49.3,213.5L49.3,213.5
			L49.3,213.5C49.3,213.3,49.3,213.5,49.3,213.5L49.3,213.5L49.3,213.5L49.3,213.5L49.3,213.5L49.3,213.5L49.3,213.5L49.3,213.5
			L49.3,213.5L49.3,213.5L49.3,213.5z"/>
	</g>
</g>
<g>
	<g>
		<path class="st20" d="M49.3,213.5L49.3,213.5L49.3,213.5L49.3,213.5L49.3,213.5L49.3,213.5L49.3,213.5L49.3,213.5L49.3,213.5z"/>
	</g>
</g>
<g>
	<g>
		<path class="st20" d="M49.3,213.5L49.3,213.5L49.3,213.5L49.3,213.5L49.3,213.5L49.3,213.5L49.3,213.5L49.3,213.5L49.3,213.5
			L49.3,213.5L49.3,213.5L49.3,213.5L49.3,213.5L49.3,213.5L49.3,213.5L49.3,213.5L49.3,213.5L49.3,213.5L49.3,213.5L49.3,213.5z"/>
	</g>
</g>
<g>
	<g>
		<path class="st12" d="M49.3,79.3C49.3,79.6,49.3,79.6,49.3,79.3C49.3,79.6,49.3,79.6,49.3,79.3C49.3,79.6,49.3,79.6,49.3,79.3
			C49.3,79.6,49.3,79.6,49.3,79.3C49.3,79.6,49.3,79.6,49.3,79.3C49.3,79.6,49.3,79.6,49.3,79.3C49.3,79.6,49.3,79.6,49.3,79.3
			C49.3,79.6,49.3,79.3,49.3,79.3L49.3,79.3L49.3,79.3L49.3,79.3L49.3,79.3z"/>
	</g>
</g>
<g>
	<g>
		<path class="st12" d="M49.3,79.6L49.3,79.6L49.3,79.6L49.3,79.6L49.3,79.6L49.3,79.6L49.3,79.6L49.3,79.6
			C49.5,79.6,49.5,79.6,49.3,79.6L49.3,79.6C49.5,79.6,49.5,79.6,49.3,79.6L49.3,79.6L49.3,79.6z"/>
	</g>
</g>
<g>
	<g>
		<polygon class="st20" points="49.5,213.8 49.5,213.8 49.5,213.8 49.5,213.5 		"/>
	</g>
</g>
<g>
	<g>
		<path class="st20" d="M49.3,213.5C49.3,213.5,49.5,213.5,49.3,213.5C49.5,213.5,49.5,213.5,49.3,213.5
			C49.5,213.5,49.5,213.5,49.3,213.5C49.5,213.5,49.5,213.5,49.3,213.5L49.3,213.5C49.5,213.8,49.5,213.8,49.3,213.5
			C49.5,213.5,49.5,213.5,49.3,213.5C49.5,213.5,49.5,213.5,49.3,213.5C49.5,213.5,49.5,213.5,49.3,213.5z"/>
	</g>
</g>
<g>
	<g>
		<path class="st20" d="M49.3,212.8L49.3,212.8L49.3,212.8L49.3,212.8L49.3,212.8C49.3,212.5,49.3,212.5,49.3,212.8
			C49.3,212.5,49.3,212.5,49.3,212.8c0.3,0,0,0.3,0,0.3l0,0l0,0l0,0l0,0l0,0l0,0l0,0l0,0l0,0l0,0l0,0l0,0l0,0l0,0l0,0l0,0l0,0l0,0
			l0,0l0,0l0,0l0,0l0,0l0,0l0,0l0,0l0,0C49.3,212.8,49.3,212.8,49.3,212.8L49.3,212.8L49.3,212.8L49.3,212.8L49.3,212.8L49.3,212.8
			L49.3,212.8z"/>
	</g>
</g>
<g>
	<g>
		<path class="st20" d="M49.5,213.8L49.5,213.8L49.5,213.8z"/>
	</g>
</g>
<g>
	<g>
		<polygon class="st20" points="49.5,213.8 49.5,213.8 49.5,213.8 49.5,213.8 		"/>
	</g>
</g>
<g>
	<g>
		<path class="st20" d="M49.5,213.8L49.5,213.8L49.5,213.8L49.5,213.8L49.5,213.8L49.5,213.8L49.5,213.8L49.5,213.8L49.5,213.8z"/>
	</g>
</g>
<g>
	<g>
		<path class="st12" d="M49.5,79.9L49.5,79.9L49.5,79.9L49.5,79.9L49.5,79.9L49.5,79.9L49.5,79.9L49.5,79.9L49.5,79.9L49.5,79.9
			L49.5,79.9L49.5,79.9L49.5,79.9z"/>
	</g>
</g>
<g>
	<g>
		<path class="st12" d="M49.5,79.9L49.5,79.9L49.5,79.9z"/>
	</g>
</g>
<g>
	<g>
		<path class="st20" d="M49.5,214.3L49.5,214.3L49.5,214.3z"/>
	</g>
</g>
<g>
	<g>
		<path class="st20" d="M49.5,213.8L49.5,213.8L49.5,213.8L49.5,213.8c0,0,0,0.3,0,0.5l0,0l0,0l0,0l0,0l0,0l0,0l0,0l0,0l0,0l0,0l0,0
			C49.5,214.3,49.5,214.1,49.5,213.8L49.5,213.8L49.5,213.8C49.5,214.1,49.5,214.1,49.5,213.8C49.5,214.1,49.5,214.1,49.5,213.8
			C49.5,214.1,49.5,213.8,49.5,213.8L49.5,213.8L49.5,213.8L49.5,213.8L49.5,213.8L49.5,213.8z"/>
	</g>
</g>
<g>
	<g>
		<path class="st20" d="M49.5,214.3L49.5,214.3L49.5,214.3L49.5,214.3L49.5,214.3L49.5,214.3L49.5,214.3L49.5,214.3L49.5,214.3
			L49.5,214.3L49.5,214.3L49.5,214.3L49.5,214.3z"/>
	</g>
</g>
<g>
	<g>
		<path class="st20" d="M49.5,208.8L49.5,208.8C49.8,208.8,49.5,208.8,49.5,208.8C49.8,208.8,49.5,208.8,49.5,208.8z"/>
	</g>
</g>
<g>
	<g>
		<path class="st20" d="M49.5,208.5L49.5,208.5L49.5,208.5C49.8,208.5,49.8,208.5,49.5,208.5L49.5,208.5
			C49.8,208.5,49.8,208.5,49.5,208.5C49.8,208.5,49.8,208.5,49.5,208.5L49.5,208.5L49.5,208.5L49.5,208.5L49.5,208.5L49.5,208.5
			L49.5,208.5L49.5,208.5z"/>
	</g>
</g>
<g>
	<g>
		<path class="st20" d="M49.5,214.3L49.5,214.3L49.5,214.3L49.5,214.3L49.5,214.3L49.5,214.3C49.5,214.6,49.5,214.6,49.5,214.3
			L49.5,214.3L49.5,214.3L49.5,214.3L49.5,214.3L49.5,214.3L49.5,214.3L49.5,214.3L49.5,214.3L49.5,214.3L49.5,214.3L49.5,214.3
			L49.5,214.3L49.5,214.3L49.5,214.3L49.5,214.3L49.5,214.3L49.5,214.3L49.5,214.3L49.5,214.3L49.5,214.3L49.5,214.3L49.5,214.3
			L49.5,214.3L49.5,214.3L49.5,214.3L49.5,214.3L49.5,214.3L49.5,214.3L49.5,214.3C49.8,214.6,49.5,214.3,49.5,214.3L49.5,214.3
			L49.5,214.3L49.5,214.3L49.5,214.3z"/>
	</g>
</g>
<g>
	<g>
		<path class="st19" d="M50.1,128C50.1,128,49.8,128,50.1,128L50.1,128z"/>
	</g>
</g>
<g>
	<g>
		<path class="st20" d="M50.1,210.7L50.1,210.7L50.1,210.7c-0.3,0.5-0.3,0.3-0.3,0.5C49.8,210.9,50.1,210.7,50.1,210.7L50.1,210.7
			L50.1,210.7z"/>
	</g>
</g>
<g>
	<g>
		<path class="st20" d="M50.3,207.3L50.3,207.3L50.3,207.3L50.3,207.3L50.3,207.3L50.3,207.3C50.1,207.3,50.1,207.3,50.3,207.3
			C50.1,207.3,50.1,207.3,50.3,207.3C50.1,207.3,50.1,207.3,50.3,207.3C50.1,207.3,50.1,207.3,50.3,207.3
			C50.1,207.3,50.1,207.3,50.3,207.3C50.1,207.3,50.1,207.3,50.3,207.3C50.1,207.3,50.1,207.3,50.3,207.3
			C50.1,207.3,50.1,207.3,50.3,207.3z"/>
	</g>
</g>
<g>
	<g>
		<path class="st19" d="M50.3,207.3L50.3,207.3L50.3,207.3z"/>
	</g>
</g>
<g>
	<g>
		<path class="st20" d="M50.3,207.1L50.3,207.1L50.3,207.1L50.3,207.1L50.3,207.1L50.3,207.1L50.3,207.1L50.3,207.1L50.3,207.1
			L50.3,207.1L50.3,207.1L50.3,207.1L50.3,207.1z"/>
	</g>
</g>
<g>
	<g>
		<path class="st20" d="M50.3,207.3L50.3,207.3L50.3,207.3L50.3,207.3L50.3,207.3L50.3,207.3L50.3,207.3L50.3,207.3L50.3,207.3
			L50.3,207.3L50.3,207.3L50.3,207.3L50.3,207.3z"/>
	</g>
</g>
<g>
	<g>
		<path class="st20" d="M50.3,207.1c0-0.3,0.3-0.5,0.3-0.5l0,0l0,0l0,0l0,0l0,0l0,0l0,0l0,0l0,0l0,0l0,0l0,0l0,0l0,0l0,0l0,0l0,0
			l0,0l0,0l0,0l0,0l0,0l0,0l0,0l0,0l0,0C50.3,207.1,50.3,207.1,50.3,207.1L50.3,207.1L50.3,207.1z"/>
	</g>
</g>
<g>
	<g>
		<path class="st23" d="M43,259.3l7.6,1.8v12.4l-26.9-6.7v-12.9l7.1,0.1v-3l12.1,2.6L43,259.3L43,259.3z"/>
	</g>
</g>
<g>
	<g>
		<path class="st19" d="M50.9,159.9L50.9,159.9L50.9,159.9z"/>
	</g>
</g>
<g>
	<g>
		<path class="st19" d="M50.9,158.4L50.9,158.4L50.9,158.4L50.9,158.4L50.9,158.4L50.9,158.4L50.9,158.4L50.9,158.4L50.9,158.4z"/>
	</g>
</g>
<g>
	<g>
		<path class="st19" d="M50.9,159.4L50.9,159.4L50.9,159.4L50.9,159.4L50.9,159.4L50.9,159.4L50.9,159.4L50.9,159.4L50.9,159.4z"/>
	</g>
</g>
<g>
	<g>
		<path class="st13" d="M51.6,83.5c0.8-2.9,0.5,0.5,0.5,1.8C51.6,85.8,51.4,83.7,51.6,83.5z"/>
	</g>
</g>
<g>
	<g>
		<path class="st19" d="M52.2,218.4L52.2,218.4L52.2,218.4L52.2,218.4L52.2,218.4L52.2,218.4C52.2,218.7,52.4,218.7,52.2,218.4
			C52.2,218.7,52.2,218.4,52.2,218.4L52.2,218.4z"/>
	</g>
</g>
<g>
	<g>
		<path class="st19" d="M52.7,205.2C52.7,205.5,52.7,205.5,52.7,205.2C52.7,205.5,52.7,205.5,52.7,205.2
			C52.7,205.5,52.7,205.5,52.7,205.2c0,0.3,0,0.3,0,0.3S52.7,205.5,52.7,205.2z"/>
	</g>
</g>
<g>
	<g>
		<path class="st19" d="M53.9,219.8c0.3,0,0.3,0,0.3,0S54.2,219.8,53.9,219.8C54.2,219.8,53.9,219.8,53.9,219.8c-0.3,0-0.3,0-0.3,0
			H53.9L53.9,219.8z"/>
	</g>
</g>
<g>
	<g>
		<path class="st24" d="M59.5,82c0.5,0,0.5,0.5,0,0.8l0,0c-0.3,0-0.3,0-0.5-0.3C59,82.2,59.5,82.2,59.5,82z"/>
	</g>
</g>
<g>
	<g>
		<path class="st13" d="M60.1,77.2c6.9,2.6,4,13.2-2.1,12c-1.1,1.6-3.2,2.4-5,1.8c0.8-0.8,1.9-1.8,1.9-2.9
			C50.2,84.1,53.4,75,60.1,77.2z"/>
	</g>
</g>
<g>
	<g>
		<path class="st16" d="M57.9,268.9c-4.2-1.3-5-6.2-3.2-9.9c2.7,1.8,5.5,3.4,8.2,4.9C62.1,266.3,61.1,269.7,57.9,268.9z"/>
	</g>
</g>
<g>
	<g>
		<path class="st13" d="M64,79.6c1.6,0.8,1.9,3.4,0.5,4.1C64.8,82,64.5,80.9,64,79.6L64,79.6z"/>
	</g>
</g>
<g>
	<g>
		<path class="st13" d="M65.3,80.4c0.5,0,0.8,0.8,0.3,1.1C65.8,81.2,65.3,80.9,65.3,80.4z"/>
	</g>
</g>
<g>
	<g>
		<path class="st25" d="M101.9,250.9L101.9,250.9L101.9,250.9L101.9,250.9L101.9,250.9C101.6,250.9,101.9,250.9,101.9,250.9
			L101.9,250.9L101.9,250.9L101.9,250.9L101.9,250.9L101.9,250.9L101.9,250.9z"/>
	</g>
</g>
<g>
	<g>
		<path class="st25" d="M91.1,229.4L91.1,229.4L91.1,229.4L91.1,229.4L91.1,229.4L91.1,229.4L91.1,229.4L91.1,229.4L91.1,229.4z"/>
	</g>
</g>
<g>
	<g>
		<path class="st25" d="M90.8,229.7C90.8,229.7,90.8,229.4,90.8,229.7C90.8,229.4,90.8,229.4,90.8,229.7
			C91.1,229.4,91.1,229.7,90.8,229.7C90.8,229.4,90.8,229.4,90.8,229.7L90.8,229.7L90.8,229.7L90.8,229.7L90.8,229.7L90.8,229.7z"/>
	</g>
</g>
<g>
	<g>
		<g class="st26">
			<g>
				<g>
					<path class="st27" d="M170.7,142.8"/>
				</g>
			</g>
			<g>
				<g>
					<path class="st28" d="M170.7,129.8"/>
				</g>
			</g>
			<g>
				<g>
					<path class="st28" d="M153.9,161.8c-0.3-0.3-1.1-0.3-0.8-0.8C153.4,161.2,154.2,161.5,153.9,161.8z"/>
				</g>
			</g>
			<g>
				<g>
					<path class="st29" d="M153.9,110.5c-0.5,0,1.1,52-0.5,51"/>
				</g>
			</g>
			<g>
				<g>
					<path class="st30" d="M130.7,162c-0.1,0-0.7,0-0.7,0s-0.6-52.4,0.4-52.6L130.7,162z"/>
				</g>
			</g>
		</g>
	</g>
</g>
<g>
	<g>
		<path class="st31" d="M60.3,81.7c1.9,1.8-1.3,4.1-2.9,4.4c-2.9-2.4-0.5-7.8,1.1-4.1C59,81.7,59.8,81.5,60.3,81.7z M57.9,81.7
			c0-0.5-0.8-0.3-0.8,0.3C56.9,82.2,57.9,82,57.9,81.7 M56.9,81.7c0-0.3-0.3-0.3-0.3,0S56.9,82,56.9,81.7"/>
	</g>
</g>
<g>
	<g>
		<path class="st18" d="M35.1,176.1c4.2,0,5.8,2.3,4.8,4.1c-1,1.7-4.3,4-4.2,7.1C34.1,185.3,32.7,175.5,35.1,176.1z"/>
	</g>
</g>
<g>
	<polygon class="st32" points="130.5,109.5 153.9,110.3 153.7,160.2 130.5,162 	"/>
</g>
<g>
	<path class="st33" d="M164.7,110.8l-10.9,11.5l-0.2,39.2l21.3-0.3v-50.5"/>
</g>
<g>
	<g>
		<path class="st34" d="M153.9,110.3l-0.1,12.1l10.9-11.6L153.9,110.3z"/>
	</g>
	<g>
		<path class="st35" d="M136.5,140.5c-4.1,3.3-6,10.1-6,10.1V162l23.3-0.5c0,0,0-39,0-39.2l-7.4,7.8"/>
	</g>
</g>
<g>
	<polygon class="st10" points="70.8,16.5 70.8,8.9 78.7,9.6 78.7,21.1 72.9,20.6 	"/>
</g>
<g>
	<path class="st35" d="M309.6,101.4c-22.9-2.1-119.5-12.5-150.1-15.8c-11.3-1.2-21.7-2.4-30.2-3.3l0.2-1.7c8.5,0.9,18.9,2,30.2,3.3
		c30.6,3.3,127.2,13.7,150.1,15.8L309.6,101.4z"/>
</g>
<g>
	
		<rect x="174.4" y="36.4" transform="matrix(1 -2.201652e-03 2.201652e-03 1 -0.3267 0.3862)" class="st35" width="1.7" height="224.4"/>
</g>
<g>
	<path class="st35" d="M250.8,105.2c-8.1-0.6-42.9-3.8-50.9-4.4c-8.2-0.7-16.6-1.5-25-2.1L175,97c8.4,0.7,16.9,1.4,25.1,2.1
		c8,0.7,42.7,3.8,50.8,4.4L250.8,105.2z"/>
</g>
<g>
	<path class="st35" d="M250.4,126.7c-4.5-0.1-56.8-2.1-61.2-2.3c-4.3-0.2-8.9-0.4-13.4-0.5l0.1-1.7c4.4,0.1,9,0.4,13.4,0.5
		c4.4,0.2,56.7,2.1,61.2,2.3L250.4,126.7z"/>
</g>
<g>
	<rect x="175.3" y="147.4" class="st35" width="75.1" height="1.7"/>
</g>
<g>
	<path class="st35" d="M175.5,174.4l-0.1-1.7c3.6-0.1,7-0.3,10.5-0.4c3.9-0.1,61.3-3,65-3.1l0.1,1.7c-3.8,0.2-61.2,3-65,3.1
		C182.5,174.1,179,174.2,175.5,174.4z"/>
</g>
<g>
	
		<rect x="127.2" y="199" transform="matrix(0.9967 -8.081034e-02 8.081034e-02 0.9967 -15.6553 12.8637)" class="st35" width="47.8" height="1.7"/>
</g>
<g>
	<path class="st35" d="M175.5,161.1l-0.1-1.7c4-0.2,7.9-0.3,11.7-0.3c2.7,0,120.6-2.6,123.2-2.7l0.1,1.7
		c-2.6,0.1-120.5,2.6-123.2,2.7C183.4,160.8,179.4,160.9,175.5,161.1z"/>
</g>
<g>
	<path class="st35" d="M127.9,189.5l-0.1-1.7c14.4-1,29.1-1.7,43.4-2.3c10.7-0.5,128.2-9.2,138.9-9.8l0.1,1.7
		c-10.9,0.6-128.4,9.3-139,9.8C157,187.8,142.4,188.4,127.9,189.5z"/>
</g>
<g>
	<path class="st35" d="M127.9,216.2l-0.1-1.7c20.5-1.6,41.2-3.9,61.3-5.9c12.4-1.3,108.6-11.5,121.1-12.7l0.2,1.7
		c-12.5,1.2-108.8,11.4-121.1,12.7C169.1,212.4,148.4,214.7,127.9,216.2z"/>
</g>
<g>
	<path class="st35" d="M310.3,138.6c-3-0.1-119.4-2.3-122.2-2.4c-4.2-0.1-8.7-0.1-13.1-0.3l0.1-1.7c4.4,0.2,8.9,0.3,13.1,0.3
		c2.9,0,119.3,2.3,122.2,2.4L310.3,138.6z"/>
</g>
<g>
	<polygon class="st35" points="174.9,111.3 175,109.6 309.9,118 309.8,119.7 	"/>
</g>
<g>
	<path class="st36" d="M74.2,278.5"/>
</g>
<g>
	
		<rect x="99.8" y="54" transform="matrix(8.636841e-02 -0.9963 0.9963 8.636841e-02 12.5502 173.1067)" class="st10" width="1.7" height="51.5"/>
</g>
<g>
	
		<rect x="99.8" y="68.1" transform="matrix(6.154511e-02 -0.9981 0.9981 6.154511e-02 0.8225 188.5664)" class="st10" width="1.7" height="51.4"/>
</g>
<g>
	
		<rect x="99.8" y="82.4" transform="matrix(5.580661e-02 -0.9984 0.9984 5.580661e-02 -12.9452 202.5353)" class="st10" width="1.7" height="51.4"/>
</g>
<g>
	
		<rect x="99.7" y="95.5" transform="matrix(1.926540e-02 -0.9998 0.9998 1.926540e-02 -22.5535 219.3772)" class="st10" width="1.7" height="51.3"/>
</g>
<g>
	
		<rect x="99.9" y="109.6" transform="matrix(2.118028e-02 -0.9998 0.9998 2.118028e-02 -36.6098 233.0217)" class="st10" width="1.7" height="51.3"/>
</g>
<g>
	<rect x="75" y="148" transform="matrix(1 -9.607733e-03 9.607733e-03 1 -1.4255 0.9739)" class="st10" width="51.3" height="1.7"/>
</g>
<g>
	
		<rect x="75" y="162.2" transform="matrix(0.9999 -1.130035e-02 1.130035e-02 0.9999 -1.836 1.1477)" class="st10" width="51.3" height="1.7"/>
</g>
<g>
	
		<rect x="75" y="175.6" transform="matrix(0.9993 -3.674353e-02 3.674353e-02 0.9993 -6.4153 3.8173)" class="st10" width="51.3" height="1.7"/>
</g>
<g>
	
		<rect x="74.9" y="189.7" transform="matrix(0.9977 -6.724142e-02 6.724142e-02 0.9977 -12.5847 7.1955)" class="st10" width="51.4" height="1.7"/>
</g>
<g>
	
		<rect x="74.9" y="217.8" transform="matrix(0.9957 -9.213270e-02 9.213270e-02 0.9957 -19.7157 10.2028)" class="st10" width="51.5" height="1.7"/>
</g>
<g>
	<polygon class="st10" points="75.1,277.2 73.3,277.2 74.4,20.6 126.4,28.3 126.2,30.1 76.2,22.6 	"/>
</g>
<g>
	<path class="st20" d="M22.4,207.8c0,8.1,0,39.5,0,46.8c0,0.3,8.4,1.8,9.5,2.1c0.3-13.7,0.3-27.3,0.5-41.1c0-4.1,0.3-8.1-0.5-12.3
		c-1.1-5.7-2.9-11-3.7-16.6c-1.1,0.3-2.1,1.6-2.9,2.1c-1.1,0.8-2.1,1.6-3.2,2.4c-2.1,1.8-4.2,3.7-5.8,5.7c-2.1,2.9-3.7,6.5-4.4,9.9
		c-3.7,12-3.7,27.1,1.9,38.5c4.3-1.3,8-4.1,8-4.1S14.1,219,22.4,207.8z"/>
</g>
<g>
	<path class="st37" d="M32.6,183.2c-1.7,0-2-3.2-1.8,10.2c0.3,19.9,0.7,58.3,0.7,58.3l16.3,3.6L46,190
		C39.5,176.8,35.5,195.2,32.6,183.2z"/>
</g>
<g>
	<g>
		<path class="st20" d="M62.1,209.9c0.3,0.5,0.5,1.3,0.5,1.8c1.3,3.9,2.1,8.3,2.9,12.4c1.6,9.4,2.7,19,1.3,28.4
			c-0.4,2.4-3.3,12.4-3.3,12.4s-2.7-1-6.4-3.1c-0.5-0.3-3.5-2.1-3.5-2.6c2.1-7.3,3.7-17.7,2.9-26.5c0.3-3.2-0.8-6-1.3-8.8
			c-0.3-1.3-0.5-2.9-0.8-4.1c-0.3-1.3-0.8-2.4-1.6-3.7c0.3,15.3,0.5,30.4,0.5,45.7c-3.7-0.3-7.4-0.8-10.8-1.8
			c-0.3-17.2-0.8-34.1,0.5-51c0.3-2.6,0.5-5.4,2.1-7.3c2.1-2.4,5.8-3.2,9-1.8C58.7,201.3,60.9,205.8,62.1,209.9z"/>
	</g>
</g>
<g>
	<g>
		<path class="st20" d="M28.4,186.6c0,0,2.2-2.8,2.5-3v13.7L28.4,186.6z"/>
	</g>
</g>
<g>
	<g>
		<path class="st38" d="M28.7,185.1l5.4,25l-2.4-0.2c0,0,0.5,0.6,0,0c-1.1-5.1-5.3-22.4-5.3-22.4L28.7,185.1z"/>
	</g>
</g>
<g>
	<g>
		<path class="st39" d="M33.8,180.7l2.4,7.3c0,0-1.8,1.8-3.7,2.6c-0.3-0.5-2.1-7.3-2.1-7.5C30.8,183.1,33.8,180.7,33.8,180.7z"/>
	</g>
</g>
<g>
	<g>
		<path class="st40" d="M37.9,221.8v1.9l0,0c0.3,0,0.3,0,0,0c0,0,0,28.9,0,28.6c-0.3,0-3.2-0.8-3.2-0.8l0.2-29.7c0,0,1.7,0.8,3,2
			l0,0l0,0l0,0V221.8z"/>
	</g>
</g>
<g>
	<g>
		<path class="st40" d="M37.7,193.9l-0.4-3.3l-0.7-1.6c1.6,3.9,1.5,21.5,1.5,21.5s-3.5-0.5-3.2-0.5c0.4-1,0.1-21.2,0.1-21.2
			s1.1-1.3,1.4-1.3v1.3l0.2,0.2c0,0.5-0.4,1-0.4,1.5l0,0C35.9,191.2,37.4,193.6,37.7,193.9z"/>
	</g>
</g>
<g>
	<path class="st21" d="M59.1,181.1c-0.5-1.8-1-2.7-0.8-2.4c0.8-2.4,1.1-4.6,0.5-7c-1.1-4.1-4.4-7.3-5.8-11.2
		c-1.1,1.6-1.6,2.9-1.6,4.1c-0.3,0.3-0.3,0.8-0.5,1.1c-0.5,0.8-1.1,1.6-1.3,2.4c-0.3,0.3-0.3,0.5-0.5,0.8l0,0
		c-0.5,1.3-1.3,2.4-2.4,3.4c-0.5,0.5-1.1,0.8-1.3,1.1c-0.5,0.3-0.8,0.8-1.3,1.1c0.3-0.3,0.3-0.3,0.5-0.5c-7.1,3.9-12.6,12-6.3,19.5
		c-0.5-8.1,5.5-10.7,8.2-14.5c1.6-0.8,2.7-2.1,3.5-3.7c2.1,2.6,5,4.6,7.1,7.5c1.9,2.4,2.9,4.9,2.9,7.8
		C60.4,187.3,60.2,184.2,59.1,181.1z"/>
</g>
<g>
	<g>
		<path class="st41" d="M29.2,214.1l5,0.8c-1.1,1.8-1.1,3.9-0.3,5.7c-0.5,0-4.6-0.8-4.6-0.8L29.2,214.1z"/>
	</g>
</g>
<g>
	<g>
		<path class="st42" d="M29.3,219.6c0,0,4.6,0.8,4.6,0.6c0.3,0.8,0.8,1.3,1.3,2.1c-0.6-0.3-5.9-0.7-5.9-0.7L29.3,219.6z"/>
	</g>
</g>
<g>
	<g>
		<path class="st42" d="M37.9,214.3c4,0.5,4.4,8.7,0,8.4C34.3,222.2,32.9,214,37.9,214.3z"/>
	</g>
</g>
<g>
	<g>
		<path class="st42" d="M44.7,223.4l-4.5-0.6c0.2-0.5,1.2-1.2,1.6-1.4c1.2-0.5,3.1,0.7,3.1,0.7L44.7,223.4z"/>
	</g>
</g>
<g>
	<path class="st42" d="M29.2,209.5c0,0-0.3,2.7-0.1,4.4c1.6,0.6,5,0.8,5,0.8s3.8-4,7.6,1l2.9,0.5c0.2-0.8-0.1-4.9-0.1-4.9
		L29.2,209.5z"/>
</g>
<g>
	<g>
		<path class="st41" d="M44.7,216l-0.1,6.2c0,0-3.1-0.1-3.4-0.6c-0.9-1.3,1.6-4.1,0.1-6.1L44.7,216z"/>
	</g>
</g>
<g>
	<path class="st43" d="M61.3,201c0-1.6-0.5-2.9-1.3-4.1c0,0,0,0.3-0.3,0.3c1.9-3.4,0.3-9.2,0.3-9.2s-3.3-11.6-12.2-15.6
		c-0.8,2.4-2.7,4.1-3.5,6.5c-0.3,0.5-0.3,1.1-0.5,1.6c-3.5,2.9-4.7,5.4-5,7.5l0,0c-0.3,0.3-0.5,1.8-0.5,2.1
		c-0.3,0.8-0.3,1.6-0.3,2.4c-0.8-1.1-1.6-2.1-2.1-3.4c-0.5,9.1,9.7,13.5,2.9,21.3c4,3.2,9-0.5,10.8-4.1c0.5-1.1,1.1-2.6,0.8-3.9
		c0-0.5-0.3-0.8-0.3-1.3c0.8,0.8,1.3,1.3,1.9,2.4c-0.8,5.4-6.8,8.1-0.3,13.5c0.8,0.5,2.4,2.1,2.1,0C53.4,210.3,61.6,207.3,61.3,201z
		 M59.3,197.9L59.3,197.9c0.3-0.3,0.3-0.5,0.3-0.5S59.5,197.6,59.3,197.9z"/>
</g>
<g>
	<g>
		<path class="st16" d="M20.3,154.2c-6.3-8.3,8.7-8.8,1.9,0.5"/>
	</g>
</g>
<g>
	<g>
		<path class="st44" d="M23.2,149.3c-0.8,1.1-1.1,2.4-0.5,3.7c-1.1-0.3-2.4-0.8-2.9-1.8C21.9,152.9,21.1,149.1,23.2,149.3z"/>
	</g>
</g>
<g>
	<g>
		<path class="st43" d="M21.3,159.4c-0.8-1.6-1.3-3.7-1.6-5.4c3.2,1.3,2.9-4.6,5.1-7.8c6.5,7.4-0.5,12.8-0.1,17.6
			C23.7,162.5,22.1,160.7,21.3,159.4z"/>
	</g>
</g>
<g>
	<g>
		<path class="st19" d="M23.2,147.5c1.6-5.2,3.2-10.2,5.5-14.8c2.9,11,26.9,10.7,20.7,22.9c-2.4,5.4,0.5,15.1-5.5,20.1
			c17.6-12.3,15-60.9-13.9-50.7c7.4,3.7-4.2,11.4-5.6,3.6c-7.4,3.7-6.8,13.6-5.7,20.4c1.1,1.6,2.1-1.1,3.5-0.5
			C22.9,148,23.2,147.8,23.2,147.5z"/>
	</g>
</g>
<g>
	<path class="st16" d="M49.3,149.1c0.5-5.2-4.1-7.6-9.5-7.6c-4-1.6-8.2-3-11.3-9.2c-0.8,3.2-7.2,13.6-4.5,15.2l1.2-1.9
		c-1.6,1.8,0.8,4.6-0.3,7c-1.6,3.2-1.3,5.7-0.5,9.4c2.1,21.3,25.3,21.8,24.5-1.1C50.1,156.9,54.5,152.7,49.3,149.1z"/>
</g>
<g>
	<g>
		<path class="st45" d="M31.9,148.6c0.3,0.8,0.3,2.1-0.5,2.1c-0.5,0-1.1-0.8-1.3-1.3c0-0.3-0.2-1.5,0.1-1.8
			C30.5,147.3,31.4,146.7,31.9,148.6z"/>
	</g>
</g>
<g>
	<g>
		<path class="st45" d="M42.8,148.6c0.3,0.8,0.3,2.1-0.5,2.1c-0.5,0-1.1-0.8-1.3-1.3c0-0.3-0.2-1.5,0.1-1.8
			C41.4,147.3,42.3,146.7,42.8,148.6z"/>
	</g>
</g>
<g>
	<g>
		<path class="st46" d="M34,158.6c5.5,2.4-0.3,3.2-2.9,2.6C31.6,159.7,32.7,158.4,34,158.6z"/>
	</g>
</g>
<g>
	<g>
		<path class="st46" d="M36.3,166.2c2.1,0.3,4-0.8,5-2.6c-0.5,6.5-9,6.5-9.7,0C32.7,165.2,34.5,166.2,36.3,166.2z"/>
	</g>
</g>
<g>
	<g>
		<path class="st46" d="M38.7,158.6c1.3,0,2.7,1.3,2.9,2.6c-1.4,0.2-5.7,1.3-6.8,0.8C33.9,161.6,35.8,159.7,38.7,158.6z"/>
	</g>
</g>
<g>
	<g>
		<path class="st47" d="M50.3,146.2c0.3,6-5,12-11.1,7c-4.2-8.1-2.9-3.9-7.4,0.5c-5.2,3.2-8.4-1.3-9.5-6c-0.8-4.1,11.1-1.3,13.6-1.3
			C41.1,145.7,45.5,145.1,50.3,146.2z M34.3,148.6c-0.5-3.7-13.1-4.6-9.2,3.9C28,156.1,34.5,152.9,34.3,148.6 M48.2,151.7
			c3.5-6.5-7.3-7.9-9.7-3.5C37.6,153.5,45.8,156.5,48.2,151.7"/>
	</g>
</g>
<g>
	<path class="st10" d="M35.9,161.2c-0.8,0-5.5,0-5.5,0c0.3,2.6,2.1,4.1,4.1,4.9c1.3,0.5,3.8,0.2,5-0.3c1.6-0.8,2.4-2.6,2.4-4.4
		C41.6,161.5,36.3,161.2,35.9,161.2z"/>
</g>
<g>
	<path class="st10" d="M281,227.8"/>
</g>
<g>
	<polygon class="st35" points="214.6,43.3 216.3,43.6 216.3,253.8 214.6,253.8 	"/>
</g>
<g>
	<polygon class="st35" points="250.1,49.1 251.7,49.4 251.7,247.6 250.1,247.6 	"/>
</g>
<g>
	<rect x="283.1" y="54.1" class="st35" width="1.7" height="186.5"/>
</g>
<path class="st48" d="M158,128.2l12.3,0.3V141H158V128.2L158,128.2z M168.6,134.3V133h-2.9v1.4L168.6,134.3L168.6,134.3z
	 M168.6,138.5v-1.4h-2.9v1.4H168.6L168.6,138.5z M168.6,136.4V135l-2.9-0.1v1.4L168.6,136.4L168.6,136.4z M168.6,132.3v-1.4
	l-2.9-0.1v1.4L168.6,132.3L168.6,132.3z M165,134.3V133h-1.3v1.4L165,134.3L165,134.3z M163.1,134.2v-1.4h-1.4v1.4H163.1
	L163.1,134.2z M161.2,134.2v-1.4h-1.4v1.4H161.2L161.2,134.2z M165,138.4V137h-1.3v1.4H165L165,138.4z M165,136.3v-1.4h-1.3v1.4H165
	L165,136.3z M163.1,136.3v-1.4h-1.4v1.4H163.1L163.1,136.3z M163.1,138.4V137h-1.4v1.4H163.1L163.1,138.4z M165,132.3v-1.4h-1.3v1.4
	H165L165,132.3z M163.1,132.2v-1.4h-1.4v1.4H163.1L163.1,132.2z M161.2,136.3v-1.4h-1.4v1.4H161.2L161.2,136.3z M161.2,138.4V137
	h-1.4v1.4H161.2L161.2,138.4z M161.2,132.2v-1.4h-1.4v1.4H161.2L161.2,132.2z"/>
<polygon class="st49" points="148.5,128.8 148.5,139.9 137.1,139.7 137.1,128.6 "/>
<path class="st21" d="M53.9,168.1"/>
<g>
	<g>
		<polyline class="st50" points="25.1,44.3 25.5,41.7 24.4,41.9 24,44.5 25.1,44.3 		"/>
		<polygon class="st50" points="23.6,47.9 24.7,47.7 25,45 23.9,45.2 		"/>
		<polygon class="st50" points="23.1,51.2 24.2,51 24.6,48.4 23.5,48.6 		"/>
		<polygon class="st50" points="23.9,42 13,43.9 13,44.5 15,46.2 23.5,44.6 		"/>
		<polygon class="st50" points="19.3,49.4 19.3,49.9 21.3,51.6 22.6,51.3 23,48.7 		"/>
		<polygon class="st50" points="23.4,45.3 16.1,46.7 16.1,47.1 18.2,48.9 23.1,48 		"/>
	</g>
	<g>
		<path class="st50" d="M61.9,36.8l-0.1,0.9c-0.1,0.4-0.2,0.6-0.6,0.6l-1.1,0.2c-0.5,0.1-0.6,0.2-0.8,0.3c-0.1,0.1-0.1,0.3-0.1,0.5
			s0.1,0.3,0.4,0.3l1.1,0.2c0.8,0.1,1,0.4,1.1,1.1c0,0.7-0.1,1.8-0.4,2.4c-0.3,0.5-0.7,0.8-1.3,1l-2.7,0.5c-0.2,0-0.3-0.1-0.3-0.3
			l0.2-1.6h0.2c0.1,0.3,0.3,0.4,0.9,0.3l1.1-0.2c0.4-0.1,0.6-0.2,0.7-0.4c0.1-0.2,0.2-0.4,0.1-0.6c0-0.3-0.1-0.4-0.7-0.4l-1-0.1
			c-0.6-0.1-0.9-0.4-0.9-1c0-0.5,0.1-1.4,0.3-2c0.3-0.7,0.7-1,1.5-1.2L61.9,36.8z M36,41.6c-1.2,0.2-1.9,0.7-2.4,1.6
			c-0.5,0.9-0.9,3-0.8,4.2c0,0.8,0.3,1.3,0.8,1.5c0.3,0.1,0.8,0.1,1.6,0c0.9-0.2,1.4-0.4,1.7-0.6c0.2-0.2,0.2-0.3,0.3-1l0.1-1h-0.1
			c-0.3,0.6-0.7,0.9-1.7,1c-0.5,0.1-0.8,0.1-0.9,0c-0.1-0.1-0.2-0.3-0.2-0.6c0-0.1,0-0.3,0-0.4l0.1-0.6l2.6-0.5
			c0.6-0.1,0.7-0.2,0.8-0.5c0.1-0.4,0.2-1.3,0.2-1.8C37.9,41.8,37.3,41.3,36,41.6 M36.6,44.1l-2,0.4c0.2-1.2,0.5-1.6,1.2-1.7
			c0.6-0.1,0.8,0.1,0.9,0.6C36.7,43.6,36.7,43.8,36.6,44.1 M54.7,38.1c-1.2,0.2-1.9,0.7-2.4,1.6c-0.5,0.9-0.9,3-0.8,4.2
			c0,0.8,0.3,1.3,0.8,1.5c0.3,0.1,0.8,0.1,1.6,0c0.9-0.2,1.4-0.4,1.7-0.6c0.2-0.2,0.2-0.3,0.3-1l0.1-1h-0.1c-0.3,0.6-0.7,0.9-1.7,1
			c-0.5,0.1-0.8,0.1-0.9,0c-0.2-0.1-0.3-0.3-0.3-0.6c0-0.1,0-0.3,0-0.4l0.1-0.6l2.6-0.5c0.6-0.1,0.7-0.2,0.8-0.5
			c0.1-0.4,0.2-1.3,0.2-1.8C56.6,38.2,56,37.8,54.7,38.1 M55.4,40.7l-2,0.4c0.2-1.2,0.5-1.6,1.2-1.7c0.6-0.1,0.8,0.1,0.9,0.6
			C55.4,40.2,55.4,40.4,55.4,40.7 M42.8,40.4l-0.1,1c-0.1,0.4-0.2,0.5-0.6,0.6l-0.6,0.1c-0.6,0.1-0.8,0.4-0.9,1.2l-0.5,3.9
			c0,0.2,0,0.3,0,0.4c0,0.1,0.1,0.2,0.2,0.2v0.1l-1.6,0.4c-0.2,0-0.3-0.1-0.3-0.3l0.9-6.2v-0.1c0-0.1-0.1-0.2-0.2-0.2v-0.2l1.4-0.3
			c0.2,0,0.3,0.1,0.3,0.3L40.7,42l0.4-0.8c0.2-0.3,0.2-0.4,0.6-0.4L42.8,40.4z M32.6,40.9c0,0-0.7,5.3-1.1,7.8
			c0,0.3-0.1,0.6,0.2,0.7c0,0.1,0,0.1,0,0.2l-1.6,0.3c-0.2,0-0.3-0.1-0.3-0.3l0.5-3.9l-2.2,0.4c0,0-0.4,2.8-0.5,3.4
			c0,0.2,0,0.3,0,0.4c0,0.2,0.1,0.3,0.2,0.3c0,0.1,0,0.1,0,0.2l-1.6,0.3c-0.2,0-0.3-0.1-0.3-0.3c0,0,0.7-5.3,1.1-7.8
			c0-0.3,0.1-0.6-0.2-0.7c0-0.1,0-0.1,0-0.2l1.6-0.4c0.2,0,0.3,0.1,0.3,0.3l-0.4,3l2.2-0.4c0,0,0.2-1.6,0.3-2.4c0-0.2,0-0.3,0-0.4
			c0-0.2-0.1-0.2-0.2-0.3c0-0.1,0-0.1,0-0.2l1.6-0.3C32.6,40.5,32.6,40.7,32.6,40.9 M49.8,39L49,39.1c-0.4,0.1-0.6,0.2-0.9,0.7
			l-0.3,0.6c0-0.6-0.3-1.1-1.1-0.9L46,39.6c-0.6,0.1-0.7,0.4-0.9,0.7l-0.3,0.6l0.1-0.7c0-0.2-0.1-0.4-0.3-0.3l-1.4,0.4v0.2
			c0.1,0,0.2,0.1,0.2,0.2c0,0.1,0,0.1,0,0.1L42.7,47c0,0.2,0.1,0.4,0.3,0.3l1.5-0.3v-0.2c-0.1,0-0.2-0.1-0.2-0.2c0-0.1,0-0.2,0-0.4
			c0,0,0.5-3.8,0.5-3.9c0.1-1,0.3-1.1,0.7-1.3c0.1,0,0.2,0,0.3-0.1c0.4-0.1,0.6,0.2,0.5,0.5c0,0.2-0.6,4.7-0.6,4.7
			c0,0.2,0.1,0.4,0.3,0.3l1.5-0.3V46c-0.1,0-0.2-0.1-0.2-0.2c0-0.1,0-0.2,0-0.4l0.5-3.9c0.1-1,0.3-1.1,0.8-1.3c0.1,0,0.2,0,0.3-0.1
			c0.4-0.1,0.6,0.2,0.5,0.5c0,0.1-0.6,4.7-0.6,4.7c0,0.2,0.1,0.4,0.3,0.3l1.5-0.3v-0.2c-0.1,0-0.2-0.1-0.2-0.2c0-0.1,0-0.2,0-0.4
			c0,0,0.6-4.6,0.6-5C51,39.8,50.9,38.8,49.8,39"/>
	</g>
</g>
<g>
	<g>
		<polyline class="st50" points="90,49.3 90.5,47 89.6,46.9 89.1,49.2 90,49.3 		"/>
		<polygon class="st50" points="88.4,52 89.4,52.1 89.9,49.9 88.9,49.8 		"/>
		<polygon class="st50" points="87.8,54.9 88.8,55 89.3,52.7 88.3,52.6 		"/>
		<polygon class="st50" points="89.1,46.8 79.6,45.7 79.6,46.2 81.2,48.3 88.6,49.1 		"/>
		<polygon class="st50" points="84.7,52.2 84.7,52.6 86.3,54.7 87.4,54.9 87.9,52.6 		"/>
		<polygon class="st50" points="88.5,49.7 82.1,49 82.1,49.4 83.8,51.5 88,51.9 		"/>
	</g>
	<g>
		<path class="st50" d="M122.2,52.3L122,53c-0.1,0.3-0.2,0.4-0.5,0.4l-1-0.1c-0.4,0-0.6,0-0.7,0.1s-0.1,0.3-0.1,0.4
			c0,0.2,0.1,0.3,0.3,0.4l1,0.4c0.7,0.3,0.9,0.6,0.8,1.2c0,0.6-0.2,1.5-0.5,1.9s-0.6,0.5-1.2,0.5l-2.4-0.3c-0.2,0-0.3-0.2-0.2-0.4
			l0.3-1.4h0.1c0.1,0.3,0.2,0.4,0.8,0.5l0.9,0.1c0.3,0,0.5,0,0.6-0.1s0.2-0.3,0.2-0.5c0-0.3-0.1-0.3-0.5-0.5l-0.9-0.4
			c-0.5-0.2-0.7-0.6-0.7-1.1s0.2-1.2,0.4-1.6c0.3-0.5,0.7-0.7,1.4-0.6L122.2,52.3z M99.6,49.7c-1.1-0.1-1.7,0.1-2.2,0.8
			s-0.9,2.4-1,3.6c0,0.7,0.2,1.3,0.6,1.6c0.3,0.2,0.7,0.3,1.4,0.4c0.8,0.1,1.2,0.1,1.5-0.1c0.2-0.1,0.2-0.2,0.4-0.8l0.2-0.8h-0.1
			c-0.3,0.4-0.7,0.6-1.6,0.5c-0.4,0-0.7-0.1-0.8-0.2c-0.2-0.1-0.2-0.3-0.2-0.6c0-0.1,0-0.2,0-0.4l0.1-0.5l2.2,0.2
			c0.5,0.1,0.6,0,0.7-0.2c0.1-0.3,0.3-1.1,0.3-1.6C101.3,50.4,100.8,49.9,99.6,49.7 M100,52.1l-1.8-0.2c0.2-1,0.5-1.3,1.2-1.2
			c0.5,0.1,0.7,0.3,0.7,0.8C100.1,51.7,100.1,51.8,100,52.1 M115.9,51.5c-1.1-0.1-1.7,0.1-2.2,0.8s-0.9,2.4-1,3.5
			c0,0.7,0.2,1.2,0.6,1.5c0.3,0.2,0.7,0.3,1.4,0.4c0.8,0.1,1.2,0.1,1.5-0.1c0.2-0.1,0.2-0.2,0.4-0.8l0.2-0.8h-0.1
			c-0.3,0.4-0.7,0.6-1.6,0.5c-0.4,0-0.7-0.1-0.8-0.2c-0.2-0.1-0.2-0.3-0.2-0.6c0-0.1,0-0.2,0-0.4l0.1-0.5l2.2,0.2
			c0.5,0.1,0.6,0,0.7-0.2c0.1-0.3,0.3-1.1,0.3-1.5C117.6,52.2,117.1,51.6,115.9,51.5 M116.3,54l-1.8-0.2c0.2-1,0.5-1.2,1.2-1.2
			c0.5,0.1,0.7,0.3,0.7,0.7C116.4,53.5,116.4,53.7,116.3,54 M105.5,50.4l-0.2,0.8c-0.1,0.3-0.2,0.4-0.6,0.4l-0.5-0.1
			c-0.6-0.1-0.7,0.1-0.9,0.8l-0.7,3.3c0,0.1-0.1,0.3-0.1,0.3c0,0.1,0.1,0.2,0.2,0.3v0.1l-1.3-0.1c-0.2,0-0.3-0.2-0.2-0.4l1.2-5.2
			v-0.1c0-0.1-0.1-0.2-0.2-0.3v-0.1l1.3,0.1c0.2,0,0.3,0.2,0.2,0.4l-0.1,0.5l0.4-0.6c0.2-0.3,0.2-0.3,0.5-0.2L105.5,50.4z
			 M96.7,48.2c0,0-1,4.4-1.5,6.5c0,0.2-0.1,0.5,0.1,0.7c0,0.1,0,0.1,0,0.1L94,55.3c-0.2,0-0.3-0.2-0.2-0.4l0.7-3.3l-2-0.2
			c0,0-0.5,2.3-0.6,2.9c0,0.2-0.1,0.3-0.1,0.4s0.1,0.2,0.2,0.3c0,0.1,0,0.1,0,0.2L90.6,55c-0.2,0-0.3-0.2-0.2-0.4c0,0,1-4.5,1.5-6.5
			c0-0.2,0.1-0.5-0.1-0.6c0-0.1,0-0.1,0-0.2l1.4,0.2c0.2,0,0.3,0.2,0.2,0.4l-0.6,2.5l1.9,0.2c0,0,0.3-1.4,0.5-2.1
			c0-0.2,0.1-0.3,0.1-0.3c0-0.1-0.1-0.2-0.2-0.3c0-0.1,0-0.1,0-0.2l1.4,0.2C96.7,47.9,96.8,48,96.7,48.2 M111.6,51l-0.7-0.1
			c-0.4,0-0.5,0-0.8,0.4l-0.3,0.4c0-0.5-0.2-1-0.9-1.1l-0.6-0.1c-0.5-0.1-0.7,0.2-0.8,0.4l-0.3,0.4l0.1-0.5c0-0.2,0-0.3-0.2-0.4
			l-1.3-0.1v0.1c0.1,0.1,0.2,0.1,0.2,0.3v0.1l-1.2,5.2c0,0.2,0,0.3,0.2,0.4l1.3,0.1v-0.1c-0.1-0.1-0.2-0.1-0.2-0.3
			c0-0.1,0-0.2,0.1-0.3c0,0,0.7-3.1,0.7-3.2c0.2-0.8,0.4-0.9,0.7-0.9c0.1,0,0.1,0,0.3,0c0.4,0,0.5,0.3,0.4,0.6c0,0.2-0.9,4-0.9,4
			c0,0.2,0,0.3,0.2,0.4l1.3,0.1v-0.1c-0.1-0.1-0.2-0.1-0.2-0.3c0-0.1,0-0.2,0.1-0.3l0.7-3.2c0.2-0.8,0.4-0.9,0.7-0.9
			c0.1,0,0.1,0,0.3,0c0.4,0,0.5,0.3,0.4,0.6c0,0.1-0.9,4-0.9,4c0,0.2,0,0.3,0.2,0.4l1.3,0.1V57c-0.1-0.1-0.2-0.1-0.2-0.3
			c0-0.1,0-0.2,0.1-0.3c0,0,0.8-3.9,0.9-4.1C112.6,52,112.6,51.1,111.6,51"/>
	</g>
</g>
<g>
	<g>
		<path class="st51" d="M41.1,214.9c2.7,2.6,1.6,9.6-3.2,8.8l0,0c-5.5-0.8-6.6-11,0-11l0,0l0,0l0,0l0,0l0,0l0,0l0,0l0,0l0,0l0,0l0,0
			l0,0l0,0l0,0l0,0l0,0l0,0l0,0l0,0l0,0l0,0l0,0l0,0l0,0l0,0l0,0l0,0l0,0l0,0l0,0l0,0l0,0l0,0l0,0l0,0
			C40.3,213,41.1,214.9,41.1,214.9L41.1,214.9L41.1,214.9z M37.9,222.1c4.4,0.3,4-7,0-7.5C33.5,214.3,34.3,221.6,37.9,222.1"/>
	</g>
</g>
<g>
	<path class="st52" d="M38.5,84.1c0,0,2.9,1.1,4.1-3.3c0.5-1.4-0.2-4.9-3-5.7s-9-3.7-10.1-4.1s-1.7,0.9-1.1,2
		c0.5,0.7,2.7,3.6,2.7,3.6s-0.7-0.3-1,0s-0.1,1.7,2.2,3.8c-0.7-0.3-0.5,0.9,0.5,1.6s1.4,1,1.4,1s-0.9,0.2-0.1,0.8
		C35.1,84.2,37.6,85.2,38.5,84.1"/>
	<g>
		<path class="st10" d="M44.6,79.2h-1.2c0,0-0.4,2.7-3.2,3.3c-2.4,0.5-3.8-1.3-4-2.5c-0.3-1.7,1.1-2.5,2-2.2c0.7,0.3,0.7,1,0.6,1.8
			c0,0.1,0.1,0.2,0.2,0c0.1-0.2,0.3-0.7,0.1-1.5c-0.6-1.5-2.3-1.2-3.1,0.1c-0.7,1.2-1,4.6,2.5,5.9s4.6,0.6,4.6,0.6L44.6,79.2"/>
	</g>
	<path class="st53" d="M23,84.3L23.2,97c0,1.1,0.6,2.1,1.4,2.6l10.6,6c0.8,0.5,1.8,0.4,2.5-0.1L48,98.7c0.8-0.5,1.3-1.6,1.3-2.7
		L49,83.4c0-1.1-0.6-2.1-1.4-2.6l-10.5-5.9c-0.8-0.5-1.8-0.4-2.5,0.1l-10.3,6.8C23.5,82.2,23,83.2,23,84.3"/>
	<g>
		<path class="st54" d="M35.6,105.7c-0.1,0-0.2-0.1-0.3-0.2l-9.8-5.6l0,0c0.1-0.2,0-0.5-0.2-0.6l-1.6-0.9c-0.2-0.4-0.4-0.9-0.4-1.4
			l0,0c0,0,0.4,0.1,0.9,0.1c1,0,2.5-0.6,3.4-3.4c0.5-1.4-0.1-4.9-3-5.8c-0.4-0.1-0.9-0.3-1.5-0.5l0.2,9.4l0,0l-0.2-12.6
			c0-0.4,0.1-0.9,0.2-1.3l3,1.6c0.1,0,0.1,0,0.2,0s0.2-0.1,0.3-0.2c0.1,0.1,0.2,0.1,0.3,0.2c0.2,0.1,0.4,0.2,0.6,0.3
			c0,0.2,0.1,0.4,0.2,0.4l3,1.7c0.1,0,0.1,0,0.2,0s0.1,0,0.2-0.1c1.1,0.6,2.2,1.2,3,1.7c0.1,0.1,0.3,0.2,0.4,0.2s0.2,0.1,0.3,0.1
			c0.9,0.4,1.4,1.3,1.5,2.3l0,0c0,0.1,0,0.3,0,0.4l0,0c0,0.3,0,0.6,0,1c0,3.1,0.1,8,0.2,11.4C36.4,104.9,36.1,105.5,35.6,105.7
			 M30.9,96.8c-0.3,0-0.6,0.3-0.6,0.7l0.1,2.4c0,0.3,0.2,0.5,0.4,0.6l3.1,1.6c0.1,0,0.2,0.1,0.3,0.1c0.3,0,0.6-0.3,0.6-0.7l-0.1-2.4
			c0-0.3-0.2-0.5-0.4-0.6l-3.1-1.6C31.1,96.9,31,96.8,30.9,96.8 M33.8,101.1L33.8,101.1L31,99.9c-0.1,0-0.1-0.2-0.1-0.3
			s0.1-0.1,0.2-0.1h0.1l2.7,1.3c0.1,0,0.1,0.2,0.1,0.3C33.9,101,33.9,101.1,33.8,101.1 M33.8,100L33.8,100l-2.9-1.4
			c-0.1,0-0.1-0.2-0.1-0.3c0-0.1,0.1-0.1,0.2-0.1h0.1l2.7,1.3c0.1,0,0.1,0.2,0.1,0.3C33.9,99.9,33.8,99.9,33.8,100"/>
	</g>
	<g>
		<path class="st55" d="M37.1,105.7L37.1,105.7c0.2-0.1,0.4-0.2,0.6-0.3l3.7-2.4l0,0l-3.7,2.4C37.5,105.6,37.3,105.7,37.1,105.7"/>
		<path class="st56" d="M37.1,105.7c-0.4-0.4-0.7-1-0.7-1.6c-0.1-2.6-0.2-7.4-0.2-11.4c0-0.4,0-0.7,0-1c0-1.2,0.6-2.4,1.5-3l0,0
			c0,0,0.1,0,0.1-0.1l3.1-2.1l0,0l0,0c0.1,0.2,0.2,0.5,0.2,0.9c0,0.1,0,0.2,0,0.2c0,0.7-0.1,1.4-0.1,1.4l0,0l0,0l0,0
			c0,0,0,0.5,0.3,0.6h0.1c0.1,0,0.1,0,0.2-0.1c0.3-0.2,1.1-0.6,1.7-1c0.4-0.2,0.7-0.4,0.8-0.5l0,0l0,0c0.2-0.2,0.3-0.3,0.4-0.5
			c0-0.1,0-0.3,0-0.5c0-0.7,0-1.7,0-2.2l0,0l0,0l0,0l0,0l0,0c0-0.2,0-0.4-0.1-0.6l0,0l0,0l3.4-2.3l0,0l0.1-0.1
			c0.1,0,0.1-0.1,0.2-0.1l0,0c0.4,0,0.9,0.4,0.9,0.4l0,0c0.1,0.3,0.1,0.6,0.1,0.9l0.2,12.6c0,1.1-0.5,2.1-1.3,2.7l-6.6,4.3l-3.7,2.4
			C37.5,105.6,37.3,105.7,37.1,105.7"/>
		<path class="st57" d="M36.3,92.7c0-0.3,0-0.6,0-1l0,0C36.2,92,36.3,92.4,36.3,92.7"/>
	</g>
	<g>
		<path class="st10" d="M28.6,78.8"/>
		<path class="st10" d="M28.6,78.8l11.9,7.3c0,0,0.7,0.5,0.6,1.7c0,0.7-0.1,1.4-0.1,1.4s0.1,0.8,0.6,0.6c0.5-0.3,2.2-1.3,2.5-1.5
			c0.3-0.3,0.4-0.4,0.4-1c0-0.7-0.1-1.7,0-2.2c0-0.5-0.1-0.8-0.7-1.3"/>
	</g>
	<g>
		<path class="st58" d="M41.4,89.8C41.3,89.8,41.3,89.8,41.4,89.8C41.3,89.8,41.3,89.8,41.4,89.8c0.1,0,0.1,0,0.2-0.1
			c0.3-0.2,1.1-0.6,1.7-1c-0.6,0.4-1.4,0.8-1.7,1C41.5,89.8,41.4,89.8,41.4,89.8 M44.5,87.7c0-0.1,0-0.3,0-0.5c0-0.7,0-1.7,0-2.2
			c0,0.5,0,1.5,0,2.2C44.5,87.4,44.5,87.6,44.5,87.7 M44.5,85c0-0.2,0-0.4-0.1-0.6l0,0C44.5,84.6,44.5,84.8,44.5,85"/>
		<path class="st59" d="M41.4,89.8C41.3,89.8,41.3,89.8,41.4,89.8C41,89.7,41,89.2,41,89.2l0,0c0,0,0.1-0.6,0.1-1.4
			c0-0.1,0-0.2,0-0.2c0-0.4-0.1-0.7-0.2-0.9l3.5-2.3c0.1,0.2,0.1,0.4,0.1,0.6l0,0l0,0l0,0c0,0.5,0,1.5,0,2.2c0,0.2,0,0.4,0,0.5
			c-0.1,0.2-0.2,0.3-0.4,0.5l0,0l0,0c-0.1,0.1-0.4,0.3-0.8,0.5c-0.6,0.4-1.4,0.8-1.7,1C41.5,89.8,41.4,89.8,41.4,89.8"/>
	</g>
	<g>
		<path class="st10" d="M24.3,81.7L24.3,81.7l4.2-2.9L24.3,81.7L24.3,81.7 M47.7,80.9L47.7,80.9l-5.2-3l0,0L47.7,80.9L47.7,80.9
			L47.7,80.9"/>
		<path class="st60" d="M42.5,77.8l-5.3-3.1L42.5,77.8L42.5,77.8 M37.1,74.8c-0.1-0.1-0.2-0.1-0.3-0.1c0,0,0,0,0.1,0
			C36.9,74.7,37,74.8,37.1,74.8"/>
		<path class="st61" d="M36.2,89.3L36.2,89.3c-0.6,0-1.1-0.1-1.7-0.4c-0.1-0.1-0.3-0.2-0.4-0.2c-0.8-0.5-1.9-1.1-3-1.7
			c0,0,0.1-0.1,0.1-0.2c0.1-0.2,0-0.5-0.2-0.6l-3-1.7c-0.1,0-0.1,0-0.2,0s-0.3,0.1-0.3,0.2c0,0,0,0.1,0,0.2
			c-0.2-0.1-0.4-0.2-0.6-0.3c-0.1-0.1-0.2-0.1-0.3-0.2c0,0,0,0,0-0.1c0.1-0.2,0-0.5-0.2-0.6l-2.7-1.5c0-0.2,0.1-0.4,0.3-0.6
			c0.1-0.1,0.1-0.1,0.2-0.2c0,0,0,0,0.1,0l4.2-2.8l0.6,0.3l11.4,6.9c0,0,0.2,0.2,0.4,0.6l-3.2,2.2l-0.1,0.1
			C37.2,89.1,36.6,89.3,36.2,89.3 M44.3,84.4c-0.1-0.2-0.3-0.4-0.6-0.6c-1-0.6-8.3-4.9-12-7.1l1.5-1l1,0.5c0.1,0,0.1,0,0.2,0
			c0.1,0,0.3-0.1,0.3-0.2s0-0.1,0-0.2l0,0c0-0.2-0.1-0.3-0.2-0.4L34,75.2l0.6-0.4c0.4-0.3,0.8-0.4,1.3-0.4c0.3,0,0.6,0.1,1,0.2
			c0.1,0,0.2,0.1,0.3,0.1l0,0l0,0l5.3,3.1l5.1,3l0,0c0.5,0.3,0.5,1.1,0,1.4L44.3,84.4"/>
		<path class="st62" d="M34.1,88.7c-0.9-0.5-1.9-1.1-3-1.7l0,0C32.2,87.6,33.2,88.2,34.1,88.7 M27.6,85c-0.2-0.1-0.4-0.2-0.6-0.3
			C27.2,84.7,27.4,84.8,27.6,85L27.6,85"/>
		<path class="st63" d="M37.7,88.8L37.7,88.8l3.2-2.1l0,0L37.7,88.8C37.8,88.8,37.7,88.8,37.7,88.8 M44.3,84.4L44.3,84.4l3.5-2.3
			l0,0L44.3,84.4"/>
		<path class="st10" d="M40.9,86.7L40.9,86.7c-0.2-0.4-0.4-0.6-0.4-0.6l-11.4-6.9l1.4,0.8c0.1,0,0.1,0,0.2,0s0.3-0.1,0.3-0.2
			c0.1-0.2,0-0.5-0.2-0.6l-1.5-0.8l2.4-1.6c3.7,2.2,11,6.4,12,7.1c0.3,0.2,0.5,0.4,0.6,0.6l0,0L40.9,86.7"/>
	</g>
	<g>
		<path class="st64" d="M34.1,102.3c-0.1,0-0.2,0-0.3-0.1l-3.1-1.6c-0.2-0.1-0.4-0.4-0.4-0.6v-2.5c0-0.4,0.3-0.8,0.6-0.7
			c0.1,0,0.2,0,0.3,0.1l3.1,1.6c0.2,0.1,0.4,0.4,0.4,0.6l0.1,2.4C34.7,101.9,34.4,102.3,34.1,102.3 M31,99.4c-0.1,0-0.1,0.1-0.2,0.1
			c0,0.1,0,0.2,0.1,0.3l2.7,1.3h0.1c0.1,0,0.1-0.1,0.2-0.1c0-0.1,0-0.2-0.1-0.3L31,99.4C31.1,99.4,31.1,99.4,31,99.4 M31,98.2
			c-0.1,0-0.1,0.1-0.2,0.1c0,0.1,0,0.2,0.1,0.3l2.7,1.3h0.1c0.1,0,0.1-0.1,0.2-0.1c0-0.1,0-0.2-0.1-0.3L31,98.2
			C31.1,98.2,31.1,98.2,31,98.2"/>
	</g>
	<g>
		<path class="st65" d="M24.2,97.1c-0.5,0-0.9-0.1-0.9-0.1l0,0v-0.1l-0.2-9.4c0.6,0.2,1.1,0.4,1.5,0.5c2.8,0.9,3.5,4.3,3,5.8
			C26.7,96.6,25.2,97.1,24.2,97.1"/>
	</g>
	<g>
		<path class="st52" d="M21.7,89.6c0.8-1.3,2.6-1.6,3.1-0.1c0.3,0.7,0,1.2-0.1,1.5c-0.1,0.1-0.2,0.1-0.2,0c0.1-0.7,0.1-1.5-0.6-1.8
			c-0.8-0.4-2.2,0.4-2,2.2c0.2,1.2,1.6,3,3.9,2.6c1.3-0.2,2.1-1,2.6-1.7c0.4-1.5-0.3-4.7-3-5.6c-2.8-0.9-8.9-3.9-10-4.3
			s-1.7,0.9-1.1,2c0.5,0.8,2.7,3.7,2.7,3.7s-0.7-0.3-1,0c-0.3,0.3-0.1,1.7,2.2,3.9c-0.7-0.3-0.6,0.9,0.5,1.6c1,0.7,1.4,1,1.4,1
			s-0.9,0.2-0.2,0.8c0.7,0.6,3.3,1.7,4.2,0.6C20.6,94.2,20.9,90.7,21.7,89.6z"/>
		<path class="st52" d="M24.2,95.5C24.2,95.5,24.1,95.5,24.2,95.5C24.1,95.5,24.1,95.5,24.2,95.5z"/>
		<path class="st10" d="M28.3,92.2c0-0.1,0-0.1,0.1-0.2c-0.5,0.7-1.3,1.4-2.6,1.7c-2.4,0.5-3.8-1.4-3.9-2.6c-0.3-1.7,1.2-2.5,2-2.2
			c0.7,0.3,0.7,1,0.6,1.8c0,0.1,0.1,0.2,0.2,0s0.3-0.7,0.1-1.5c-0.5-1.6-2.3-1.2-3.1,0.1c-0.7,1.2-1.1,4.6,2.4,5.9l0,0
			C24.4,95.6,27.1,96.4,28.3,92.2z"/>
	</g>
	<path class="st66" d="M26.3,71.9c-0.2-0.1-0.3-0.4-0.2-0.6c0.1-0.2,0.2-0.2,0.3-0.2c0.1,0,0.1,0,0.2,0l1.9,1c0,0.3,0.1,0.5,0.3,0.7
		c0.1,0.1,0.2,0.3,0.4,0.5"/>
	<path class="st66" d="M29,73.5"/>
	<path class="st67" d="M33.3,75.7L29,73.5c-0.2-0.2-0.3-0.4-0.4-0.5c-0.2-0.2-0.2-0.5-0.3-0.7l5.5,3.1L33.3,75.7"/>
	<polyline class="st68" points="33.3,75.7 33.3,75.7 34,75.2 34,75.2 33.3,75.7 	"/>
	<path class="st69" d="M34.4,76.3c-0.1,0-0.1,0-0.2,0l-1-0.5l0.8-0.5l0.5,0.3c0.1,0.1,0.2,0.2,0.2,0.4l0,0c0,0.1,0,0.1,0,0.2
		C34.7,76.2,34.5,76.3,34.4,76.3"/>
	<path class="st66" d="M24.4,70.8c-0.1,0-0.2,0-0.3-0.1S24,70.5,24,70.4s0-0.2,0.1-0.3c0.1-0.1,0.1-0.1,0.3-0.1l0,0
		c0.1,0,0.2,0,0.2,0.1c0.1,0.1,0.1,0.2,0.1,0.3c0,0.1,0,0.2-0.1,0.3C24.6,70.7,24.5,70.8,24.4,70.8"/>
	<path class="st66" d="M15.7,92c-0.1,0-0.1,0-0.2-0.1l-3-2.4c-0.2-0.1-0.2-0.4-0.1-0.6c0.1-0.1,0.2-0.2,0.3-0.2s0.1,0,0.2,0.1l3,2.4
		c0.2,0.1,0.2,0.4,0.1,0.6S15.8,92,15.7,92"/>
	<path class="st66" d="M11.4,88.7c-0.1,0-0.2-0.1-0.2-0.2c-0.1-0.1-0.1-0.2-0.1-0.3c0-0.1,0.1-0.2,0.2-0.3c0.1-0.1,0.2-0.1,0.3-0.1
		s0.2,0.1,0.2,0.2c0.1,0.1,0.1,0.2,0.1,0.3c0,0.1-0.1,0.2-0.2,0.3C11.6,88.6,11.5,88.7,11.4,88.7"/>
	<path class="st66" d="M26.7,75.2c-0.1,0-0.1,0-0.2,0l-3.3-1.8C23,73.3,22.9,73,23,72.8s0.2-0.2,0.3-0.2c0.1,0,0.1,0,0.2,0l3.3,1.8
		c0.2,0.1,0.3,0.4,0.2,0.6C26.9,75.1,26.8,75.2,26.7,75.2"/>
	<path class="st66" d="M24.2,80c-0.1,0-0.1,0-0.2,0l-3.3-1.8c-0.2-0.1-0.3-0.4-0.2-0.6c0.1-0.2,0.2-0.2,0.3-0.2c0.1,0,0.1,0,0.2,0
		l3.3,1.8c0.2,0.1,0.3,0.4,0.2,0.6C24.5,79.9,24.4,80,24.2,80"/>
	<path class="st66" d="M28,75.9c-0.1,0-0.2,0-0.3-0.1c-0.1-0.1-0.1-0.2-0.1-0.3c0-0.1,0-0.2,0.1-0.3c0.1-0.1,0.2-0.1,0.3-0.1
		s0.2,0,0.3,0.1c0.1,0.1,0.1,0.2,0.1,0.3s0,0.2-0.1,0.3C28.2,75.9,28.1,75.9,28,75.9"/>
	<path class="st66" d="M23.3,83.1l-4-2.2c-0.2-0.1-0.3-0.4-0.2-0.6c0.1-0.2,0.2-0.2,0.3-0.2c0.1,0,0.1,0,0.2,0l4,2.2
		C23.5,82.6,23.4,82.8,23.3,83.1"/>
	<path class="st68" d="M26.7,84.5c-1-0.6-2-1.1-2.7-1.5c-0.1,0-0.3,0-0.4,0s-0.1,0-0.2,0.1v0.1l0,0c0.1-0.3,0.2-0.5,0.4-0.7l0.2,0.1
		c0,0.3,0.1,0.6,0.4,0.7C24.9,83.5,25.8,84,26.7,84.5L26.7,84.5"/>
	<path class="st70" d="M26.4,84.7c-0.1,0-0.1,0-0.2,0l-3-1.6V83c0.1,0,0.1,0,0.2-0.1c0.1,0,0.3,0,0.4,0.1c0.8,0.4,1.7,0.9,2.7,1.5
		C26.6,84.6,26.5,84.6,26.4,84.7"/>
	<path class="st69" d="M26.7,84.5c-0.9-0.5-1.7-1-2.5-1.4c-0.3-0.1-0.4-0.5-0.4-0.7l2.7,1.5C26.7,83.9,26.8,84.2,26.7,84.5
		C26.7,84.4,26.7,84.4,26.7,84.5"/>
	<path class="st70" d="M30.8,87.1c-0.1,0-0.1,0-0.2,0l-3-1.7c-0.1-0.1-0.2-0.3-0.2-0.4c1.2,0.7,2.4,1.4,3.6,2
		C31,87,30.9,87.1,30.8,87.1"/>
	<path class="st69" d="M31,87c-1.2-0.6-2.4-1.4-3.6-2c0-0.1,0-0.1,0-0.2c0.1-0.2,0.2-0.2,0.3-0.2c0.1,0,0.1,0,0.2,0l3,1.7
		C31.1,86.4,31.2,86.7,31,87C31.1,86.9,31.1,87,31,87"/>
	<path class="st71" d="M31,87c-1.2-0.7-2.4-1.4-3.6-2l0,0C28.6,85.6,29.9,86.3,31,87L31,87"/>
	<path class="st66" d="M28.5,78.8l-4-2.2c-0.2-0.1-0.3-0.4-0.2-0.6c0.1-0.2,0.2-0.2,0.3-0.2s0.1,0,0.2,0l4.3,2.4L28.5,78.8
		L28.5,78.8L28.5,78.8"/>
	<polyline class="st66" points="28.6,78.8 28.6,78.8 29.3,78.3 29.3,78.3 28.6,78.8 	"/>
	<polyline class="st69" points="29.1,79.2 28.5,78.8 28.6,78.8 28.6,78.8 29.1,79.2 	"/>
	<path class="st66" d="M30.7,80c-0.1,0-0.1,0-0.2,0l-1.4-0.8l-0.5-0.4l0,0l0.7-0.5l1.5,0.8c0.2,0.1,0.3,0.4,0.2,0.6
		C31,79.9,30.8,80,30.7,80"/>
	<path class="st66" d="M22.8,75.5c-0.1,0-0.2,0-0.3-0.1c-0.1-0.1-0.1-0.2-0.1-0.3s0-0.2,0.1-0.3c0.1-0.1,0.2-0.1,0.3-0.1
		c0.1,0,0.2,0,0.3,0.1c0.1,0.1,0.1,0.2,0.1,0.3c0,0.1,0,0.2-0.1,0.3C23,75.5,22.9,75.5,22.8,75.5"/>
	<path class="st72" d="M13,85.8L13,85.8c-0.1,0.3-0.3,0.5-0.5,0.6c0.2,0.1,0.4,0.3,0.5,0.6c0.1-0.3,0.3-0.5,0.5-0.6
		C13.3,86.2,13.2,86,13,85.8"/>
	<path class="st72" d="M10.7,82.2L10.7,82.2c-0.2,0.4-0.5,0.8-0.9,1.1c0.4,0.2,0.7,0.6,1,1c0.2-0.4,0.5-0.8,0.9-1.1
		C11.3,83.1,11,82.7,10.7,82.2"/>
	<path class="st72" d="M14.9,76.5L14.9,76.5c-0.2,0.4-0.5,0.8-0.9,1.1c0.4,0.2,0.7,0.6,1,1c0.2-0.4,0.5-0.8,0.9-1.1
		C15.5,77.4,15.2,77,14.9,76.5"/>
</g>
<g>
	<path class="st52" d="M108.6,241.7c0,0,2.8,1.2,4.2-3c0.5-1.4,0-4.6-2.8-5.6c-2.7-0.9-8.7-3.9-9.8-4.4c-1-0.5-1.7,0.8-1.1,1.8
		c0.4,0.7,2.6,3.6,2.6,3.6s-0.7-0.3-1,0s-0.2,1.6,2.1,3.7c-0.7-0.3-0.6,0.8,0.4,1.6c1,0.7,1.3,1,1.3,1s-0.9,0.1-0.2,0.7
		C105.2,241.6,107.7,242.7,108.6,241.7"/>
	<g>
		<path class="st10" d="M114.8,237.2l-1.2-0.1c0,0-0.5,2.6-3.3,3c-2.3,0.4-3.7-1.4-3.8-2.5c-0.2-1.6,1.2-2.4,2-2
			c0.7,0.3,0.6,1,0.5,1.7c0,0.1,0.1,0.2,0.2,0s0.4-0.7,0.1-1.4c-0.5-1.5-2.2-1.2-3.1,0c-0.8,1.1-1.2,4.3,2.3,5.7
			c3.4,1.4,4.6,0.7,4.6,0.7L114.8,237.2"/>
	</g>
	<path class="st53" d="M93.3,241.2l-0.2,12.1c0,1,0.5,2,1.3,2.5l10.2,6.2c0.8,0.5,1.7,0.5,2.5,0l10.5-6c0.8-0.5,1.4-1.4,1.4-2.5
		l0.2-12.1c0-1-0.5-2-1.3-2.5l-10.2-6.2c-0.8-0.5-1.7-0.5-2.5,0l-10.5,6C93.9,239.3,93.4,240.2,93.3,241.2"/>
	<g>
		<path class="st54" d="M104.8,262.2c-0.1,0-0.2-0.1-0.3-0.2l-9.4-5.8l0,0c0.1-0.2,0-0.5-0.2-0.6l-1.6-0.9c-0.2-0.4-0.4-0.9-0.4-1.4
			l0,0c0,0,0.4,0.1,0.9,0.2c0.9,0,2.5-0.5,3.4-3.1c0.6-1.4,0-4.6-2.7-5.6c-0.4-0.2-0.9-0.3-1.5-0.6l-0.2,9l0,0l0.2-12.1
			c0-0.4,0.1-0.8,0.3-1.2l2.9,1.7c0.1,0,0.1,0,0.2,0s0.2,0,0.3-0.2c0.1,0.1,0.2,0.1,0.3,0.2c0.2,0.1,0.4,0.2,0.5,0.3
			c0,0.2,0.1,0.3,0.2,0.4l2.9,1.7c0.1,0,0.1,0,0.2,0s0.1,0,0.2-0.1c1.1,0.7,2.1,1.3,2.9,1.8c0.1,0.1,0.3,0.2,0.4,0.2
			s0.2,0.1,0.3,0.1c0.8,0.4,1.4,1.3,1.4,2.3l0,0c0,0.1,0,0.2,0,0.4l0,0c0,0.3,0,0.6,0,0.9c-0.1,3-0.2,7.7-0.2,10.9
			C105.7,261.4,105.3,261.9,104.8,262.2 M100.7,253.5c-0.3,0-0.6,0.3-0.7,0.7v2.3c0,0.3,0.1,0.5,0.3,0.6l3,1.7
			c0.1,0,0.2,0.1,0.3,0.1c0.3,0,0.6-0.3,0.7-0.7v-2.3c0-0.3-0.1-0.5-0.3-0.6l-3-1.7C100.9,253.5,100.8,253.5,100.7,253.5
			 M103.2,257.7L103.2,257.7l-2.7-1.4c-0.1,0-0.1-0.2-0.1-0.3c0-0.1,0.1-0.1,0.2-0.1h0.1l2.7,1.4c0.1,0,0.1,0.2,0.1,0.3
			C103.3,257.6,103.3,257.7,103.2,257.7 M103.2,256.6L103.2,256.6l-2.7-1.4c-0.1,0-0.1-0.2-0.1-0.3s0.1-0.1,0.2-0.1h0.1l2.7,1.4
			c0.1,0,0.1,0.2,0.1,0.3C103.4,256.6,103.3,256.6,103.2,256.6"/>
	</g>
	<g>
		<path class="st55" d="M106.4,262.3L106.4,262.3c0.2,0,0.4-0.2,0.6-0.3l3.7-2.2l0,0L107,262C106.8,262.1,106.6,262.2,106.4,262.3"
			/>
		<path class="st56" d="M106.4,262.3c-0.4-0.4-0.6-1-0.6-1.6c0-2.5,0.1-7.1,0.2-10.9c0-0.3,0-0.7,0-0.9c0-1.2,0.7-2.3,1.6-2.8l0,0
			c0,0,0.1,0,0.1-0.1l3.2-1.8l0,0l0,0c0.1,0.2,0.1,0.5,0.1,0.9c0,0.1,0,0.2,0,0.2c-0.1,0.7-0.2,1.3-0.2,1.3l0,0l0,0l0,0
			c0,0,0,0.5,0.3,0.6h0.1c0.1,0,0.1,0,0.2,0c0.3-0.2,1.1-0.6,1.7-0.9c0.4-0.2,0.7-0.4,0.8-0.5l0,0l0,0c0.2-0.1,0.3-0.2,0.4-0.4
			c0-0.1,0-0.3,0.1-0.5c0-0.7,0-1.6,0-2.1l0,0l0,0l0,0l0,0l0,0c0-0.2,0-0.4-0.1-0.6l0,0l0,0l3.5-2l0,0l0.1-0.1c0.1,0,0.1-0.1,0.2,0
			l0,0c0.4,0,0.9,0.5,0.9,0.5l0,0c0.1,0.3,0.1,0.6,0.1,0.9l-0.2,12.1c0,1-0.6,2-1.4,2.5l-6.7,4l-3.7,2.2
			C106.8,262.1,106.6,262.2,106.4,262.3"/>
		<path class="st57" d="M106,249.8c0-0.3,0-0.6,0-0.9l0,0C106,249.2,106,249.5,106,249.8"/>
	</g>
	<g>
		<path class="st10" d="M99,236.2"/>
		<path class="st10" d="M99,236.2l11.5,7.4c0,0,0.6,0.5,0.5,1.7c-0.1,0.7-0.2,1.3-0.2,1.3s0,0.8,0.6,0.6c0.5-0.2,2.2-1.1,2.6-1.3
			s0.4-0.4,0.5-0.9c0-0.7,0-1.6,0-2.1s-0.1-0.8-0.7-1.2"/>
	</g>
	<g>
		<path class="st58" d="M111.2,247.2C111.1,247.2,111.1,247.2,111.2,247.2C111.1,247.2,111.1,247.2,111.2,247.2s0.1,0,0.2,0
			c0.3-0.2,1.1-0.6,1.7-0.9c-0.6,0.3-1.4,0.7-1.7,0.9C111.3,247.2,111.2,247.2,111.2,247.2 M114.3,245.4c0-0.1,0-0.3,0.1-0.5
			c0-0.7,0-1.6,0-2.1c0,0.5,0,1.4,0,2.1C114.3,245.1,114.3,245.3,114.3,245.4 M114.4,242.8c0-0.2,0-0.4-0.1-0.6l0,0
			C114.4,242.4,114.4,242.6,114.4,242.8"/>
		<path class="st59" d="M111.2,247.2C111.1,247.2,111.1,247.2,111.2,247.2c-0.4-0.1-0.4-0.5-0.4-0.6l0,0c0,0,0.1-0.6,0.2-1.3
			c0-0.1,0-0.2,0-0.2c0-0.4-0.1-0.6-0.1-0.9l3.5-2c0.1,0.2,0.1,0.4,0.1,0.6l0,0l0,0l0,0c0,0.5,0,1.4,0,2.1c0,0.2,0,0.4-0.1,0.5
			c-0.1,0.2-0.2,0.3-0.4,0.4l0,0l0,0c-0.1,0.1-0.4,0.3-0.8,0.5c-0.6,0.3-1.4,0.7-1.7,0.9C111.3,247.2,111.2,247.2,111.2,247.2"/>
	</g>
	<g>
		<path class="st10" d="M94.6,238.8L94.6,238.8l4.3-2.6L94.6,238.8L94.6,238.8 M117.8,239L117.8,239l-5-3.1l0,0L117.8,239L117.8,239
			L117.8,239"/>
		<path class="st60" d="M112.7,235.9l-5.1-3.2L112.7,235.9L112.7,235.9 M107.6,232.6c-0.1-0.1-0.2-0.1-0.3-0.1c0,0,0,0,0.1,0
			C107.4,232.6,107.5,232.6,107.6,232.6"/>
		<path class="st61" d="M106,246.6L106,246.6c-0.6,0-1.1-0.2-1.6-0.5c-0.1-0.1-0.3-0.2-0.4-0.2c-0.8-0.5-1.8-1.1-2.9-1.8l0.1-0.1
			c0.1-0.2,0-0.5-0.2-0.6l-2.9-1.7c-0.1,0-0.1,0-0.2,0s-0.3,0.1-0.3,0.2v0.1c-0.2-0.1-0.4-0.2-0.5-0.3s-0.2-0.1-0.3-0.2
			c0,0,0,0,0-0.1c0.1-0.2,0-0.5-0.2-0.6l-2.6-1.5c0-0.2,0.1-0.4,0.3-0.6c0.1-0.1,0.1-0.1,0.2-0.1c0,0,0,0,0.1,0l4.2-2.5l0.6,0.3
			l11,7.1c0,0,0.2,0.2,0.4,0.6l-3.2,1.8l-0.1,0.1C107.2,246.4,106.6,246.6,106,246.6 M114.3,242.2c-0.1-0.2-0.3-0.4-0.6-0.6
			c-1-0.7-8-5-11.6-7.2l1.5-0.9l0.9,0.6c0.1,0,0.1,0,0.2,0s0.3-0.1,0.3-0.2c0-0.1,0-0.1,0-0.2l0,0c0-0.2-0.1-0.3-0.2-0.3l-0.5-0.3
			l0.6-0.4c0.4-0.2,0.8-0.3,1.3-0.3c0.3,0,0.6,0.1,0.9,0.2c0.1,0,0.2,0.1,0.3,0.1l0,0l0,0l5.1,3.2l5,3.1l0,0c0.5,0.3,0.4,1,0,1.3
			L114.3,242.2"/>
		<path class="st62" d="M104,245.9c-0.8-0.5-1.8-1.1-2.9-1.8l0,0C102.2,244.8,103.2,245.4,104,245.9 M97.7,242
			c-0.2-0.1-0.4-0.2-0.5-0.3C97.3,241.8,97.5,241.9,97.7,242L97.7,242"/>
		<path class="st63" d="M107.7,246.1L107.7,246.1l3.3-1.9l0,0L107.7,246.1L107.7,246.1 M114.3,242.2L114.3,242.2l3.5-2l0,0
			L114.3,242.2"/>
		<path class="st10" d="M110.8,244.2L110.8,244.2c-0.2-0.4-0.4-0.6-0.4-0.6l-11-7.1l1.3,0.8c0.1,0,0.1,0,0.2,0s0.3-0.1,0.3-0.2
			c0.1-0.2,0-0.5-0.2-0.6l-1.5-0.9l2.4-1.4c3.6,2.2,10.6,6.6,11.6,7.2c0.3,0.2,0.5,0.4,0.6,0.6l0,0L110.8,244.2"/>
	</g>
	<g>
		<path class="st64" d="M103.5,258.8c-0.1,0-0.2,0-0.3-0.1l-3-1.7c-0.2-0.1-0.3-0.4-0.3-0.6v-2.3c0-0.4,0.3-0.7,0.7-0.7
			c0.1,0,0.2,0,0.3,0.1l3,1.7c0.2,0.1,0.3,0.4,0.3,0.6v2.3C104.1,258.5,103.8,258.8,103.5,258.8 M100.7,256c-0.1,0-0.1,0.1-0.2,0.1
			c0,0.1,0,0.2,0.1,0.3l2.7,1.4h0.1c0.1,0,0.1-0.1,0.2-0.1c0-0.1,0-0.2-0.1-0.3L100.7,256L100.7,256 M100.7,254.8
			c-0.1,0-0.1,0.1-0.2,0.1c0,0.1,0,0.2,0.1,0.3l2.7,1.4h0.1c0.1,0,0.1-0.1,0.2-0.1c0-0.1,0-0.2-0.1-0.3L100.7,254.8
			C100.8,254.8,100.7,254.8,100.7,254.8"/>
	</g>
	<g>
		<path class="st65" d="M94,253.5c-0.5,0-0.9-0.2-0.9-0.2l0,0v-0.1l0.2-9c0.5,0.2,1.1,0.4,1.5,0.6c2.7,1,3.3,4.3,2.7,5.6
			C96.4,253.1,94.9,253.5,94,253.5"/>
	</g>
	<g>
		<path class="st52" d="M91.8,246.2c0.9-1.2,2.6-1.4,3.1,0c0.2,0.7,0,1.2-0.1,1.4c-0.1,0.1-0.2,0.1-0.2,0c0.1-0.7,0.1-1.4-0.5-1.7
			c-0.8-0.4-2.2,0.3-2,2c0.1,1.1,1.4,2.9,3.8,2.6c1.3-0.2,2.1-0.8,2.6-1.5c0.5-1.5-0.1-4.5-2.8-5.4c-2.7-1-8.7-4.1-9.7-4.5
			c-1-0.5-1.7,0.8-1.1,1.8c0.4,0.8,2.5,3.6,2.5,3.6s-0.7-0.3-1,0s-0.2,1.6,2,3.8c-0.7-0.3-0.6,0.8,0.4,1.6c1,0.7,1.3,1,1.3,1
			s-0.9,0.1-0.2,0.7c0.7,0.6,3.2,1.8,4.1,0.7C90.6,250.5,91,247.2,91.8,246.2z"/>
		<path class="st52" d="M94,251.9L94,251.9L94,251.9z"/>
		<path class="st10" d="M98.2,249.1c0-0.1,0-0.1,0.1-0.2c-0.5,0.6-1.3,1.3-2.6,1.5c-2.4,0.3-3.7-1.5-3.8-2.6c-0.2-1.6,1.2-2.4,2-2
			c0.7,0.3,0.6,1,0.5,1.7c0,0.1,0.1,0.2,0.2,0s0.4-0.7,0.1-1.4c-0.5-1.5-2.2-1.2-3.1,0c-0.8,1.1-1.2,4.3,2.2,5.7l0,0
			C94.2,252,96.8,252.9,98.2,249.1z"/>
	</g>
	<path class="st66" d="M96.9,229.6c-0.2-0.1-0.3-0.4-0.2-0.6c0.1-0.1,0.2-0.2,0.3-0.2c0.1,0,0.1,0,0.2,0l1.8,1
		c0,0.2,0.1,0.5,0.2,0.7c0.1,0.1,0.2,0.3,0.4,0.5"/>
	<path class="st66" d="M99.7,231.1"/>
	<path class="st67" d="M103.7,233.5l-4.1-2.4c-0.2-0.2-0.3-0.4-0.4-0.5c-0.2-0.2-0.2-0.5-0.2-0.7l5.3,3.2L103.7,233.5"/>
	<polyline class="st68" points="103.7,233.5 103.7,233.5 104.4,233 104.4,233 103.7,233.5 	"/>
	<path class="st69" d="M104.8,234.1c-0.1,0-0.1,0-0.2,0l-0.9-0.6l0.8-0.5l0.5,0.3c0.1,0.1,0.2,0.2,0.2,0.3l0,0c0,0.1,0,0.1,0,0.2
		C105,234,104.9,234.1,104.8,234.1"/>
	<path class="st66" d="M95.1,228.4c-0.1,0-0.2,0-0.3-0.1s-0.1-0.2-0.1-0.3s0-0.2,0.1-0.3s0.1-0.1,0.3-0.1l0,0c0.1,0,0.2,0,0.2,0.1
		c0.1,0.1,0.1,0.2,0.1,0.3s0,0.2-0.1,0.3C95.3,228.4,95.2,228.4,95.1,228.4"/>
	<path class="st66" d="M85.8,248.4c-0.1,0-0.1,0-0.2-0.1l-2.9-2.4c-0.2-0.1-0.2-0.4-0.1-0.6c0.1-0.1,0.2-0.2,0.3-0.2s0.1,0,0.2,0.1
		l2.9,2.4c0.2,0.1,0.2,0.4,0.1,0.6C86,248.3,85.9,248.4,85.8,248.4"/>
	<path class="st66" d="M81.7,244.9c-0.1,0-0.2-0.1-0.2-0.2c0-0.1-0.1-0.2-0.1-0.3s0.1-0.2,0.2-0.3s0.2-0.1,0.3-0.1
		c0.1,0,0.2,0.1,0.2,0.2c0,0.1,0.1,0.2,0.1,0.3s-0.1,0.2-0.2,0.3S81.8,244.9,81.7,244.9"/>
	<path class="st66" d="M97.2,232.6c-0.1,0-0.1,0-0.2,0l-3.2-1.9c-0.2-0.1-0.3-0.4-0.2-0.6c0.1-0.1,0.2-0.2,0.3-0.2
		c0.1,0,0.1,0,0.2,0l3.2,1.9c0.2,0.1,0.3,0.4,0.2,0.6C97.4,232.6,97.3,232.6,97.2,232.6"/>
	<path class="st66" d="M94.6,237.2c-0.1,0-0.1,0-0.2,0l-3.2-1.9c-0.2-0.1-0.3-0.4-0.2-0.6c0.1-0.1,0.2-0.2,0.3-0.2s0.1,0,0.2,0
		l3.2,1.9c0.2,0.1,0.3,0.4,0.2,0.6C94.8,237.1,94.7,237.2,94.6,237.2"/>
	<path class="st66" d="M98.6,233.5c-0.1,0-0.2,0-0.3-0.1c-0.1-0.1-0.1-0.2-0.1-0.3s0-0.2,0.1-0.3s0.2-0.1,0.3-0.1s0.2,0,0.3,0.1
		c0.1,0.1,0.1,0.2,0.1,0.3s0,0.2-0.1,0.3C98.8,233.4,98.7,233.5,98.6,233.5"/>
	<path class="st66" d="M93.6,240l-3.8-2.3c-0.2-0.1-0.3-0.4-0.2-0.6c0.1-0.1,0.2-0.2,0.3-0.2c0.1,0,0.1,0,0.2,0l3.9,2.3
		C93.9,239.6,93.7,239.8,93.6,240"/>
	<path class="st68" d="M96.8,241.5c-1-0.6-1.9-1.1-2.6-1.6c-0.1-0.1-0.3-0.1-0.4-0.1s-0.1,0-0.2,0v0.1l0,0c0.1-0.2,0.3-0.5,0.4-0.7
		l0.2,0.1c0,0.3,0.1,0.6,0.4,0.7C95.2,240.6,96,241,96.8,241.5L96.8,241.5"/>
	<path class="st70" d="M96.5,241.7c-0.1,0-0.1,0-0.2,0l-2.9-1.7l0,0c0.1,0,0.1,0,0.2,0s0.3,0.1,0.4,0.1
		C94.7,240.6,95.7,241,96.5,241.7C96.8,241.6,96.7,241.7,96.5,241.7"/>
	<path class="st69" d="M96.8,241.5c-0.9-0.5-1.7-1-2.4-1.4c-0.3-0.1-0.4-0.5-0.4-0.7l2.6,1.5C96.9,241,97,241.3,96.8,241.5
		C96.9,241.5,96.9,241.5,96.8,241.5"/>
	<path class="st70" d="M101,244.2c-0.1,0-0.1,0-0.2,0l-2.9-1.7c-0.1-0.1-0.2-0.3-0.2-0.4c1.1,0.7,2.3,1.4,3.5,2.1
		C101.1,244.2,101,244.2,101,244.2"/>
	<path class="st69" d="M101.2,244.1c-1.1-0.7-2.3-1.4-3.5-2.1c0-0.1,0-0.1,0-0.1c0.1-0.1,0.2-0.2,0.3-0.2s0.1,0,0.2,0l2.9,1.7
		C101.3,243.5,101.4,243.8,101.2,244.1C101.2,244,101.2,244.1,101.2,244.1"/>
	<path class="st71" d="M101.2,244.1c-1.1-0.7-2.3-1.4-3.5-2.1l0,0C98.8,242.7,100,243.4,101.2,244.1L101.2,244.1"/>
	<path class="st66" d="M99,236.2l-3.8-2.3c-0.2-0.1-0.3-0.4-0.2-0.6c0.1-0.1,0.2-0.2,0.3-0.2c0.1,0,0.1,0,0.2,0l4.2,2.5L99,236.2
		L99,236.2L99,236.2"/>
	<polyline class="st66" points="99,236.2 99,236.2 99.8,235.8 99.8,235.8 99,236.2 	"/>
	<polyline class="st69" points="99.6,236.6 99,236.2 99,236.2 99,236.2 99.6,236.6 	"/>
	<path class="st66" d="M101.1,237.4c-0.1,0-0.1,0-0.2,0l-1.3-0.8l-0.5-0.3l0,0l0.8-0.4l1.5,0.9c0.2,0.1,0.3,0.4,0.2,0.6
		C101.3,237.3,101.2,237.4,101.1,237.4"/>
	<path class="st66" d="M93.4,232.8c-0.1,0-0.2,0-0.3-0.1c-0.1-0.1-0.1-0.2-0.1-0.3s0-0.2,0.1-0.3s0.2-0.1,0.3-0.1s0.2,0,0.3,0.1
		s0.1,0.2,0.1,0.3s0,0.2-0.1,0.3S93.5,232.8,93.4,232.8"/>
	<path class="st72" d="M83.4,242.2L83.4,242.2c-0.1,0.2-0.3,0.4-0.5,0.6c0.2,0.1,0.4,0.3,0.5,0.6c0.1-0.2,0.3-0.4,0.5-0.6
		C83.7,242.7,83.5,242.5,83.4,242.2"/>
	<path class="st72" d="M81.2,238.7L81.2,238.7c-0.2,0.4-0.6,0.8-0.9,1c0.4,0.2,0.7,0.6,0.9,1c0.2-0.4,0.6-0.8,0.9-1
		C81.7,239.5,81.4,239.2,81.2,238.7"/>
	<path class="st72" d="M85.7,233.5L85.7,233.5c-0.2,0.4-0.6,0.8-0.9,1c0.4,0.2,0.7,0.6,0.9,1c0.2-0.4,0.6-0.8,0.9-1
		C86,234.3,85.8,233.9,85.7,233.5"/>
</g>
<g>
	<path class="st73" d="M215.5,90.6c35.3,3.4,35.3,3.4,35.3,3.4c0.1,0,0-0.7,0.1-0.7c0-41.7,0-41.7,0-41.7
		c-35.5-0.4-35.5-0.4-35.5-0.4L215.5,90.6z"/>
	<polygon class="st74" points="215.4,43.5 215.4,47.1 215.4,51.7 216.1,51.6 216.1,51.7 250.9,51.7 250.9,49.9 251,49.2 	"/>
	<polygon class="st75" points="250.9,93.4 250.9,94.1 255,94.1 287.8,91.1 286.1,90.2 	"/>
	<polygon class="st10" points="286.1,90.4 287.8,91.2 287.8,44.8 286.1,43.9 	"/>
	<polygon class="st76" points="250.9,49.2 250.9,53.3 250.9,93.4 286.1,90.4 286.1,43.9 	"/>
	<g>
		<path class="st77" d="M243.6,68.6C223,66.5,223,66.5,223,66.5c-0.8-0.1-1.6-0.1-2.4-0.1c-2,0-3.7,0-5.2,0v24.2l6.3,0.7
			c0.1,0,0.2,0,0.2,0c21.1,2.1,21.1,2.1,21.1,2.1c1.6,0.2,2.9-1.1,2.9-2.7c0-19.5,0-19.5,0-19.5C246,69.9,245,68.8,243.6,68.6z"/>
	</g>
	<path class="st78" d="M221.8,68.4c0,21.3,0,21.3,0,21.3c0,0.9,0.7,1.7,1.6,1.8c20.6,2,20.6,2,20.6,2c1,0.1,2-0.7,2-1.8
		c0-21.3,0-21.3,0-21.3c0-0.9-0.7-1.7-1.6-1.8c-20.6-2.1-20.6-2.1-20.6-2.1C222.8,66.5,221.8,67.3,221.8,68.4L221.8,68.4z"/>
	<path class="st78" d="M244.4,68.7c-6.9-0.7-6.9-0.7-6.9-0.7c0,0.1,0.1,0.2,0.1,0.4c0,2.7,0,2.7,0,2.7c0,0.7-0.6,1.3-1.4,1.2
		c-3.7-0.4-3.7-0.4-3.7-0.4c-0.6-0.1-1.1-0.6-1.1-1.2c0-2.7,0-2.7,0-2.7c0-0.2,0.1-0.4,0.2-0.6c-7.8-0.8-7.8-0.8-7.8-0.8
		c-1-0.1-2,0.7-2,1.8c0,21.3,0,21.3,0,21.3c0,0.9,0.7,1.7,1.6,1.8c20.6,2,20.6,2,20.6,2c1,0.1,2-0.7,2-1.8c0-21.3,0-21.3,0-21.3
		C246,69.6,245.3,68.8,244.4,68.7L244.4,68.7z"/>
	<path class="st79" d="M231.5,70.7c0,0.7,0.5,1.2,1.1,1.2c3.7,0.4,3.7,0.4,3.7,0.4c0.7,0.1,1.4-0.5,1.4-1.2c0-2.7,0-2.7,0-2.7
		c0-0.1,0-0.2-0.1-0.4c-5.9-0.6-5.9-0.6-5.9-0.6c-0.1,0.2-0.2,0.4-0.2,0.6V70.7z"/>
	<g>
		<path class="st80" d="M218.7,86.1c0,0,0,0-3.3,0v4.1c0.1,0,0.1,0,0.2,0c0,0,0,0,3.4,0c0.6-0.1,1-0.5,1-1c0,0,0,0,0-2.2
			C220,86.5,219.4,86,218.7,86.1z"/>
	</g>
	<g>
		<path class="st77" d="M215.5,87.8c0,0,0,0,3.3,0c0.2,0,0.3-0.1,0.3-0.3s-0.1-0.3-0.3-0.3c0,0,0,0-3.3,0l0,0V87.8L215.5,87.8z"/>
		<path class="st77" d="M218.8,88.5c0,0,0,0-3.3,0l0,0V89l0,0c0,0,0,0,3.3,0c0.2,0,0.3-0.1,0.3-0.3S218.9,88.5,218.8,88.5z"/>
	</g>
	<polyline class="st81" points="215.4,58.4 215.5,90.6 248.2,93.8 248.7,59.6 215.4,58.4 	"/>
</g>
</svg>
