<?xml version="1.0" encoding="utf-8"?>
<!-- Generator: Adobe Illustrator 25.2.2, SVG Export Plug-In . SVG Version: 6.00 Build 0)  -->
<svg version="1.1" id="Layer_1" xmlns="http://www.w3.org/2000/svg" xmlns:xlink="http://www.w3.org/1999/xlink" x="0px" y="0px"
	 viewBox="0 0 314.9 314.9" style="enable-background:new 0 0 314.9 314.9;" xml:space="preserve">
<style type="text/css">
	.st0{fill:#0691CC;}
	.st1{fill:#0B75A5;}
	.st2{fill:#AAC179;}
	.st3{fill:#BFD785;}
	.st4{fill:#85B4E0;}
	.st5{fill:#FEE445;}
	.st6{fill:#A35526;}
	.st7{fill:#BF7C48;}
	.st8{fill:#A6B6C3;}
	.st9{fill:#C4D7E7;}
	.st10{fill:#6D6E71;}
	.st11{fill:#424143;}
	.st12{fill:#59595C;}
	.st13{fill:#FFFFFF;}
	.st14{fill:#BCBDBF;}
	.st15{fill:#43B491;}
	.st16{fill:#808184;}
	.st17{fill:#D3D5D5;}
	.st18{fill:#A4A5A6;}
	.st19{fill:#ED926E;}
	.st20{fill:#EFAC80;}
	.st21{fill:none;}
	.st22{fill:#FCD8CD;}
	.st23{fill:#F0A983;}
	.st24{fill:#F09983;}
	.st25{fill:#FAC1B2;}
	.st26{fill:#EB846D;}
	.st27{fill:#BBBDBF;}
	.st28{fill:#1998CF;}
</style>
<path class="st0" d="M305,128.4c3-25.2,12.2-51,5.3-75.4c-8.5-29.9-40.8-48.1-71.2-46.9c-20.9,0.8-41.5,9.3-62.3,6.3
	c-8.5-1.2-16.6-4.2-24.9-6.5c-28.8-8-60-7-88.3,3c-9.6,3.4-19.1,7.9-26.7,15c-12.8,12-18.7,30.2-19.1,48
	c-0.3,16.9,1.5,33.2-1.3,50.2c-3,18.5-8.3,36.5-11.2,55C0.4,208.3,0.1,248,21.9,273c4.2,4.8,9,9.2,14.7,12c4.5,2.2,9.5,3.3,14.5,3.9
	c18.9,2.3,38-1.6,57,0.2c7.4,0.7,14.7,2.3,21.8,4.5c16.2,4.9,30.6,13.4,47.1,17.2c16.7,3.9,34.2,4.8,51.1,2.2
	c24.5-3.8,48.1-15.2,65.4-33.2c6.9-7.2,12.9-15.5,16.2-24.9c7.7-22.3,1.8-45.9-3.3-67.8C301.6,166.9,302.7,148.6,305,128.4z"/>
<g>
	<g>
		<path class="st1" d="M202.6,267c19.7,0.7,27.3-16.4,44.8-18.5c17.6-2.1,28.7-2.8,40.9-11.2c6-4.1,17.2-11.1,24.3-18.2
			c-0.7-6.5-2-13-3.4-19.4c-24.4-7.8-22.6,5.9-13.6-16.5c9-22.8-7.5-43.1-32.3-34c-24.7,9.1-25.1-1.7-24.7-7.3
			c0.3-5.6-3.6-20.7-31.9-25.5s-36.4-18-43.9-25.4c-7.5-7.3-30.1,3.2-37.3-9.8s16.2-20.7,9.7-31.8s-33,1.3-33.8-19.6
			c-0.4-14.4-36.2-5-45.5,7.6C46.4,50,57.2,59.1,44.7,59.1c-12.6,0-15.8,12.6-9.3,18.2c6.4,5.6,7.5,20.7,3.6,24.5
			c-3.9,3.9,7.9,21.4,21.2,16.1s19.7-9.7,19.4,0.9s2.9,16.9,14.7,12.3c11.9-4.6,31.6-7.3,40.9,5.9s13.3,21.7,0,22.7
			c-13.2,1.1-39.1,14.8-28.3,26.3c10.7,11.6,36.2,1.4,22.6,16.5c-13.6,15.1-47.4,23.8-27.7,33.6c19.7,9.8,47,2.4,62.4-4.6
			c15.5-7,29.8-14.1,22.9-4.7c-6.8,9.4-22.2,18.4-34.1,19.1c-11.8,0.7-19.7,6.2-24.8,22.4c-3.3,10.6-1,17.9-3.6,23.7
			c1.7,0.4,3.4,0.9,5.1,1.4c5.8,1.8,11.3,4,16.8,6.2c2.5-2.1,4.6-4,6.1-5.4C160.1,287.7,182.8,266.3,202.6,267z"/>
	</g>
	<path class="st2" d="M108.6,29.3c-0.4-13.6-32.8-4.6-41.2,7.3c-8.5,12,1.3,20.7-10.1,20.7c-11.3,0-14.2,12-8.4,17.3
		c5.8,5.3,6.9,19.6,3.3,23.3c-3.6,3.8,7.1,20.4,19.2,15.4s17.9-9.2,17.6,0.9c-0.4,10.1,2.6,16.1,13.3,11.7c10.7-4.4,28.6-7,37.1,5.6
		s12.1,20.7,0,21.7c-12.1,0.9-35.4,13.9-25.7,24.9s32.9,1.3,20.5,15.7c-12.4,14.3-42.9,22.7-25,32c17.9,9.4,42.6,2.3,56.6-4.4
		c14-6.6,27-13.4,20.9-4.6c-6.2,8.9-20.2,17.5-30.9,18.2c-10.7,0.6-17.9,6-22.4,21.3c-4.6,15.3,2.6,23.3-11.7,29.9
		c-14.4,6.7-18.6,19.7-4.4,19c14.2-0.6,31.4-18,38.3-24.3c6.8-6.3,27.3-26.6,45.2-25.9c17.9,0.6,24.7-15.7,40.6-17.6
		c16-1.9,35.1-2.6,46.2-10.7c11.1-7.9,42.3-27.7,19.6-35.6c-22.8-8-30.2,5.7-22.1-16c8.1-21.6-6.9-40.9-29.3-32.3
		c-22.5,8.8-22.8-1.6-22.5-6.9c0.3-5.3-3.3-19.6-29-24.3c-25.7-4.7-32.9-17-39.7-24c-6.9-6.9-27.3,3.1-33.9-9.4
		c-6.5-12.3,14.6-19.6,8.8-30.3C133.4,37.3,109.3,49.3,108.6,29.3L108.6,29.3z"/>
	<path class="st3" d="M291.1,217.6c6-4.4,17.8-12,23.8-19.4c-0.5-2.7-2.9-5.1-8-6.9c-22.8-8-30.2,5.7-22.1-16
		c8.1-21.6-6.9-40.9-29.3-32.3c-22.5,8.8-22.8-1.6-22.5-6.9c0.3-5.3-3.3-19.6-29-24.3c-25.7-4.7-32.9-17-39.7-24
		c-6.9-6.9-27.3,3.1-33.9-9.4c-2.8-5.2-0.6-9.6,2.4-13.5s7.5-8.1,7.3-14c-0.1-0.9-0.4-1.8-0.9-2.7c-5.8-10.8-29.9,1.2-30.6-18.8
		c-0.3-13.7-32.7-4.7-41.1,7.2c0,0.1,0,0.1-0.1,0.1c-3.3,4.9-3.5,8.1-3.8,11.1c-0.3,5.9,1.2,9.5-6.2,9.5c-3.2,0-5.7,1-7.6,2.5
		c0.3,2,1.3,4.1,2.8,5.5c5.9,5.3,6.9,19.6,3.3,23.3c-3.6,3.8,7.1,20.4,19.2,15.4s17.9-9.2,17.6,0.9s2.6,16.1,13.3,11.8
		c10.8-4.4,28.7-7,37.1,5.6c7.7,11.5,15.3,24.3,7.1,26.5c-7,3.9-3.6,3.3-10.8,4.6c-7.1,1.2-18.3,5.4-24.2,11.6
		c0.3,1.3,1,2.6,2.1,4.1c9.8,11,32.3,1.2,21.8,17.1c-0.7,0.9-1.1,1.6-1.7,3.2c-0.5,1.2-1.5,2.7-3.3,4.8
		c-6.8,7.8-19.1,13.9-25.8,19.3c0.9,1.1,2.3,2.2,4.5,3.4c17.9,9.4,42.6,2.3,56.6-4.4c13.9-6.6,27.6-13.3,21.4-4.5
		c-1.3,1.7-1.8,5.6-4.3,9.3c-6.2,8.9-20.2,17.5-30.9,18.2c-8.2,0.5-14.4,3.8-18.8,12.1c-7.1,13.4-4.7,21.5-5.7,25.9
		c-0.4,5.5-1.8,9.6-9.7,13.1c-3.8,1.8-6.9,4.1-9.2,6.3c0.9,2.1,3.6,3.6,8.4,3.4c14.2-0.6,31.4-18,38.3-24.3
		c6.8-6.3,27.3-26.6,45.2-25.9c17.9,0.7,24.7-15.7,40.7-17.6C260.8,226.1,280,225.5,291.1,217.6L291.1,217.6z"/>
	<g>
		<path class="st1" d="M17.9,212.2c21.1,7.2,4.7,28.5,16.8,33.1c20.2,7.7,37.1-19.5,48.6-27.5c4.6-3.3,13.8-11.4,16.4-13.9
			c2.5-2.5,5.1-13.3-0.3-15.1C75.6,180.9,74.9,186,77,173c6.6-41.2-10.3-36.8-33.7-28.2c-5.5,2-23.6-4.4-31.2,1.8
			c-5.9,17.5,12.5,22.5,11.8,28.5c-0.2,1.6,0,0-1.6,1.2c0,0.1,0,0.1,0,0.2c-1,5.8-11.5,1-17.5,4c-0.5,4-1,7.8-1.3,11.6
			C4.7,198.9,6,208.1,17.9,212.2z"/>
	</g>
	<path class="st3" d="M29.6,202c12.1,7,3.9,32.4,16.3,31.6c16-1,26.3-20.5,37.4-28.5c4.5-3.3,14.6-6.3,19.5-10.7l0.1-0.1
		c0.7-6.9-7.4-9.2-12.5-11c-22.7-8-23.2-9.9-17.7-21.7c9.6-21.1-5.2-36.3-27.7-27.7c-5.3,2-23,2.8-30.2,9.2
		c-0.4,5.2,13.8,12.6,12.9,18.4c-0.2,1.6-1.3,3-2.8,4.2c-0.1,0.1,0,0.1-0.1,0.2c-1,6.1-12.9,8.8-18.4,12.8c0,0.1,0,0.1,0,0.1
		C6.6,185.9,17.6,195,29.6,202L29.6,202z"/>
	<path class="st2" d="M83.3,204.9c-11.1,8-21.4,27.5-37.4,28.5c-12.4,0.7-4.2-24.5-16.3-31.6c-12-6.9-23-16.1-23.1-23
		c0-0.1,0-0.1,0-0.2c-1.8,1.3-2.9,2.7-2.8,4.6c0.2,7,11.2,16.1,23.1,23c12.1,7.1,3.9,32.5,16.3,31.5c16-1,26.3-20.5,37.4-28.5
		c6-4.3,21.4-8.2,22.4-15.1C97.8,198.6,87.8,201.7,83.3,204.9L83.3,204.9z"/>
	<path class="st2" d="M27.7,161.4c0.9-5.7-13.3-13.1-12.9-18.3c-1.2,1.1-2.2,2.3-2.7,3.8c-1.8,5.1,13.5,12.9,12.8,18.8
		C26.4,164.3,27.5,163,27.7,161.4L27.7,161.4z"/>
</g>
<g>
	<path class="st4" d="M175.9,68.6c0.6,0.8,1.6,1.3,2.6,1.7c1.5,0.5,3.1,0.6,4.7,0.6c3,0,6.3-0.3,8.4-2.5c1.6,1.2,3.6,1.7,5.5,1.8
		c2,0,3.9-0.4,5.8-1c-2.7,1.7-6.2,2.2-9.3,1.3c-0.4-0.1-0.7-0.2-1.1-0.2c-0.4,0-0.7,0.2-1,0.4c-4.8,2.3-11.6,2.5-16.1-0.5
		c-2.7,1.8-6.2,2.5-9.4,2C169.6,71.7,173.1,70.7,175.9,68.6z"/>
</g>
<g>
	<path class="st4" d="M195.2,56.2c3.4,0,7.1-0.2,9.5-2.5c0.6,1.1,1.8,1.7,3.1,2.1c2.6,0.7,5.5,0.5,8-0.6c-1.8,1-3.7,1.8-5.7,2
		s-4.1-0.2-5.7-1.6c-0.1-0.1-2.8,1-3.1,1.1c-1.1,0.2-2.2,0.4-3.4,0.4c-2.2,0-4.5-0.5-6.5-1.4C192.6,56.1,194.1,56.2,195.2,56.2z"/>
</g>
<g>
	<path class="st4" d="M203.8,92.5c3.4,0,7.1-0.2,9.5-2.5c0.6,1.1,1.8,1.7,3.1,2.1c2.6,0.7,5.5,0.5,8-0.6c-1.8,1-3.7,1.8-5.7,2
		s-4.1-0.2-5.7-1.6c-0.1-0.1-2.8,1-3.1,1.1c-1.1,0.2-2.2,0.4-3.4,0.4c-2.2,0-4.5-0.5-6.5-1.4C201.2,92.4,202.6,92.5,203.8,92.5z"/>
</g>
<g>
	<path class="st4" d="M266.1,56.2c3.4,0,7.1-0.2,9.5-2.5c0.6,1.1,1.8,1.7,3.1,2.1c2.6,0.7,5.5,0.5,8-0.6c-1.8,1-3.7,1.8-5.7,2
		s-4.1-0.2-5.7-1.6c-0.1-0.1-2.8,1-3.1,1.1c-1.1,0.2-2.2,0.4-3.4,0.4c-2.2,0-4.5-0.5-6.5-1.4C263.5,56.1,264.9,56.2,266.1,56.2z"/>
</g>
<g>
	<path class="st4" d="M202.4,33.4c-2.4,0-5.1-0.2-6.8-1.8c-0.4,0.8-1.3,1.3-2.2,1.5c-1.9,0.5-4,0.4-5.7-0.4c1.3,0.7,2.6,1.3,4,1.4
		c1.4,0.2,3-0.2,4.1-1.1c0.1,0,2,0.7,2.2,0.8c0.8,0.2,1.6,0.3,2.4,0.3c1.6,0,3.2-0.3,4.7-1C204.3,33.4,203.3,33.4,202.4,33.4z"/>
</g>
<g>
	<path class="st4" d="M130.4,13.3c-2.4,0-5.1-0.2-6.8-1.8c-0.4,0.8-1.3,1.3-2.2,1.5c-1.9,0.5-4,0.4-5.7-0.4c1.3,0.7,2.6,1.3,4,1.4
		c1.4,0.2,3-0.2,4.1-1.1c0.1,0,2,0.7,2.2,0.8c0.8,0.2,1.6,0.3,2.4,0.3c1.6,0,3.2-0.3,4.7-1C132.3,13.3,131.3,13.3,130.4,13.3z"/>
</g>
<g>
	<path class="st4" d="M44.4,44.7c-2.4,0-5.1-0.2-6.8-1.8c-0.4,0.8-1.3,1.3-2.2,1.5c-1.9,0.5-4,0.4-5.7-0.4c1.3,0.7,2.6,1.3,4,1.4
		c1.4,0.2,3-0.2,4.1-1.1c0.1,0,2,0.7,2.2,0.8c0.8,0.2,1.6,0.3,2.4,0.3c1.6,0,3.2-0.3,4.7-1C46.3,44.7,45.3,44.7,44.4,44.7z"/>
</g>
<g>
	<path class="st4" d="M242.1,18.5c0.6,0.8,1.6,1.3,2.6,1.7c1.5,0.5,3.1,0.6,4.7,0.6c3,0,6.3-0.3,8.4-2.5c1.6,1.2,3.6,1.7,5.5,1.8
		c2,0,3.9-0.4,5.8-1c-2.7,1.7-6.2,2.2-9.3,1.3c-0.4-0.1-0.7-0.2-1.1-0.2s-0.7,0.2-1,0.4c-4.8,2.3-11.6,2.5-16.1-0.5
		c-2.7,1.8-6.2,2.5-9.4,2C235.6,21.7,239.1,20.6,242.1,18.5z"/>
</g>
<g>
	<path class="st4" d="M275.6,103.7c3.4,0,7.1-0.2,9.5-2.5c0.6,1.1,1.8,1.7,3.1,2.1c2.6,0.7,5.5,0.5,8-0.6c-1.8,1-3.7,1.8-5.7,2
		s-4.1-0.2-5.7-1.6c-0.1-0.1-2.8,1-3.1,1.1c-1.1,0.2-2.2,0.4-3.4,0.4c-2.2,0-4.5-0.5-6.5-1.4C273,103.7,274.2,103.7,275.6,103.7z"/>
</g>
<g>
	<path class="st4" d="M223.8,43c3.4,0,7.1-0.2,9.5-2.5c0.6,1.1,1.8,1.7,3.1,2.1c2.6,0.7,5.5,0.5,8-0.6c-1.8,1-3.7,1.8-5.7,2
		s-4.1-0.2-5.7-1.6c-0.1-0.1-2.8,1-3.1,1.1c-1.1,0.2-2.2,0.4-3.4,0.4c-2.2,0-4.5-0.5-6.5-1.4C221.1,43,222.6,43,223.8,43z"/>
</g>
<g>
	<path class="st4" d="M282.8,80.9c-2.4,0-5.1-0.2-6.8-1.8c-0.4,0.8-1.3,1.3-2.2,1.5c-1.9,0.5-4,0.4-5.7-0.4c1.3,0.7,2.6,1.3,4,1.4
		c1.4,0.2,3-0.2,4.1-1.1c0.1,0,2,0.7,2.2,0.8c0.8,0.2,1.6,0.3,2.4,0.3c1.6,0,3.2-0.3,4.7-1C284.6,80.9,283.7,80.9,282.8,80.9z"/>
</g>
<g>
	<path class="st4" d="M249.8,91c1.4,0.9,3.1,1.2,4.7,1.1c1.7-0.1,3.3-0.6,4.8-1.2c0.9,0.9,2.2,1.3,3.5,1.4c0.6,0,1.1,0,1.7,0
		c0.4,0,0.9,0,1.2-0.2c-1.6,1-3.7,1.1-5.5,0.7c-0.6-0.1-1.2-0.3-1.6-0.7c-1.7,0.8-3.7,1.1-5.7,1c-1.2,0-2.5-0.2-3.6-0.8
		c-1.1,0.7-2.5,1.2-3.8,1.4s-2.7,0.2-3.8-0.5c1.5,0.2,2.9,0,4.3-0.5c0.6-0.2,1.3-0.4,1.9-0.7C248.2,92,249.8,91,249.8,91z"/>
</g>
<g>
	<path class="st4" d="M48.4,278.1c0.6,0.8,1.6,1.3,2.6,1.7c1.5,0.5,3.1,0.6,4.7,0.6c3,0,6.3-0.3,8.4-2.5c1.6,1.2,3.6,1.7,5.5,1.8
		c2,0,3.9-0.4,5.8-1c-2.7,1.7-6.2,2.2-9.3,1.3c-0.4-0.1-0.7-0.2-1.1-0.2c-0.4,0-0.7,0.2-1,0.4c-4.8,2.3-11.6,2.5-16.1-0.5
		c-2.7,1.8-6.2,2.5-9.4,2C42,281.3,45.5,280.2,48.4,278.1z"/>
</g>
<g>
	<path class="st4" d="M87.4,239.5c-2.4,0-5.1-0.2-6.8-1.8c-0.4,0.8-1.3,1.3-2.2,1.5c-1.9,0.5-4,0.4-5.7-0.4c1.3,0.7,2.6,1.3,4,1.4
		c1.4,0.2,3-0.2,4.1-1.1c0.1,0,2,0.7,2.2,0.8c0.8,0.2,1.6,0.3,2.4,0.3c1.6,0,3.2-0.3,4.7-1C89.2,239.4,88.2,239.5,87.4,239.5z"/>
</g>
<g>
	<path class="st4" d="M60.4,254.1c1.4,0.9,3.1,1.2,4.7,1.1c1.7-0.1,3.3-0.6,4.8-1.2c0.9,0.9,2.2,1.3,3.5,1.4c0.6,0,1.1,0,1.7,0
		c0.4,0,0.9,0,1.2-0.2c-1.6,1-3.7,1.1-5.5,0.7c-0.6-0.1-1.2-0.3-1.6-0.7c-1.7,0.8-3.7,1.1-5.7,1c-1.2,0-2.5-0.2-3.6-0.8
		c-1.1,0.7-2.5,1.2-3.8,1.4s-2.7,0.2-3.8-0.5c1.5,0.2,2.9,0,4.3-0.5c0.6-0.2,1.3-0.4,1.9-0.7C58.9,255,60.4,254.1,60.4,254.1z"/>
</g>
<g>
	<path class="st4" d="M96.1,140.1c-2.4,0-5.1-0.2-6.8-1.8c-0.4,0.8-1.3,1.3-2.2,1.5c-1.9,0.5-4,0.4-5.7-0.4c1.3,0.7,2.6,1.3,4,1.4
		c1.4,0.2,3-0.2,4.1-1.1c0.1,0,2,0.7,2.2,0.8c0.8,0.2,1.6,0.3,2.4,0.3c1.6,0,3.2-0.3,4.7-1C98,140,97,140.1,96.1,140.1z"/>
</g>
<g>
	<path class="st4" d="M34.6,129.5c-2.4,0-5.1-0.2-6.8-1.8c-0.4,0.8-1.3,1.3-2.2,1.5c-1.9,0.5-4,0.4-5.7-0.4c1.3,0.7,2.6,1.3,4,1.4
		c1.4,0.2,3-0.2,4.1-1.1c0.1,0,2,0.7,2.2,0.8c0.8,0.2,1.6,0.3,2.4,0.3c1.6,0,3.2-0.3,4.7-1C36.5,129.4,35.5,129.5,34.6,129.5z"/>
</g>
<g>
	<path class="st4" d="M108.5,146.1c1.4,0.9,3.1,1.2,4.7,1.1c1.7-0.1,3.3-0.6,4.8-1.2c0.9,0.9,2.2,1.3,3.5,1.4c0.6,0,1.1,0,1.7,0
		c0.4,0,0.9,0,1.2-0.2c-1.6,1-3.7,1.1-5.5,0.7c-0.6-0.1-1.2-0.3-1.6-0.7c-1.7,0.8-3.7,1.1-5.7,1c-1.2,0-2.5-0.2-3.6-0.8
		c-1.1,0.7-2.5,1.2-3.8,1.4s-2.7,0.2-3.8-0.5c1.5,0.2,2.9,0,4.3-0.5c0.6-0.2,1.3-0.4,1.9-0.7C107,147.1,108.5,146.1,108.5,146.1z"/>
</g>
<g>
	<path class="st4" d="M191.8,303.7c0.6,0.8,1.6,1.3,2.6,1.7c1.5,0.5,3.1,0.6,4.7,0.6c3,0,6.3-0.3,8.4-2.5c1.6,1.2,3.6,1.7,5.5,1.8
		c2,0,3.9-0.4,5.8-1c-2.7,1.7-6.2,2.2-9.3,1.3c-0.4-0.1-0.7-0.2-1.1-0.2c-0.4,0-0.7,0.2-1,0.4c-4.8,2.3-11.6,2.5-16.1-0.5
		c-2.7,1.8-6.2,2.5-9.4,2C185.4,306.9,188.9,305.9,191.8,303.7z"/>
</g>
<g>
	<path class="st4" d="M279.6,251.5c0.6,0.8,1.6,1.3,2.6,1.7c1.5,0.5,3.1,0.6,4.7,0.6c3,0,6.3-0.3,8.4-2.5c1.6,1.2,3.6,1.7,5.5,1.8
		c2,0,3.9-0.4,5.8-1c-2.7,1.7-6.2,2.2-9.3,1.3c-0.4-0.1-0.7-0.2-1.1-0.2s-0.7,0.2-1,0.4c-4.8,2.3-11.6,2.5-16.1-0.5
		c-2.7,1.8-6.2,2.5-9.4,2C273.2,254.7,276.7,253.7,279.6,251.5z"/>
</g>
<g>
	<path class="st4" d="M211.1,291.3c3.4,0,7.1-0.2,9.5-2.5c0.6,1.1,1.8,1.7,3.1,2.1c2.6,0.7,5.5,0.5,8-0.6c-1.8,1-3.7,1.8-5.7,2
		s-4.1-0.2-5.7-1.6c-0.1-0.1-2.8,1-3.1,1.1c-1.1,0.2-2.2,0.4-3.4,0.4c-2.2,0-4.5-0.5-6.5-1.4C208.6,291.3,209.8,291.3,211.1,291.3z"
		/>
</g>
<g>
	<path class="st4" d="M218.3,268.5c-2.4,0-5.1-0.2-6.8-1.8c-0.4,0.8-1.3,1.3-2.2,1.5c-1.9,0.5-4,0.4-5.7-0.4c1.3,0.7,2.6,1.3,4,1.4
		c1.4,0.2,3-0.2,4.1-1.1c0.1,0,2,0.7,2.2,0.8c0.8,0.2,1.6,0.3,2.4,0.3c1.6,0,3.2-0.3,4.7-1C220.1,268.5,219.2,268.5,218.3,268.5z"/>
</g>
<g>
	<path class="st4" d="M275.7,289.3c-2.4,0-5.1-0.2-6.8-1.8c-0.4,0.8-1.3,1.3-2.2,1.5c-1.9,0.5-4,0.4-5.7-0.4c1.3,0.7,2.6,1.3,4,1.4
		c1.4,0.2,3-0.2,4.1-1.1c0.1,0,2,0.7,2.2,0.8c0.8,0.2,1.6,0.3,2.4,0.3c1.6,0,3.2-0.3,4.7-1C277.5,289.3,276.6,289.3,275.7,289.3z"/>
</g>
<g>
	<path class="st4" d="M185.3,278.6c1.4,0.9,3.1,1.2,4.7,1.1c1.7-0.1,3.3-0.6,4.8-1.2c0.9,0.9,2.2,1.3,3.5,1.4c0.6,0,1.1,0,1.7,0
		c0.4,0,0.9,0,1.2-0.2c-1.6,1-3.7,1.1-5.5,0.7c-0.6-0.1-1.2-0.3-1.6-0.7c-1.7,0.8-3.7,1.1-5.7,1c-1.2,0-2.5-0.2-3.6-0.8
		c-1.1,0.7-2.5,1.2-3.8,1.4c-1.3,0.2-2.7,0.2-3.8-0.5c1.5,0.2,2.9,0,4.3-0.5c0.6-0.2,1.3-0.4,1.9-0.7
		C183.8,279.6,185.3,278.6,185.3,278.6z"/>
</g>
<g>
	<path class="st4" d="M243.8,267.8c1.4,0.9,3.1,1.2,4.7,1.1c1.7-0.1,3.3-0.6,4.8-1.2c0.9,0.9,2.2,1.3,3.5,1.4c0.6,0,1.1,0,1.7,0
		c0.4,0,0.9,0,1.2-0.2c-1.6,1-3.7,1.1-5.5,0.7c-0.6-0.1-1.2-0.3-1.6-0.7c-1.7,0.8-3.7,1.1-5.7,1c-1.2,0-2.5-0.2-3.6-0.8
		c-1.1,0.7-2.5,1.2-3.8,1.4c-1.3,0.2-2.7,0.2-3.8-0.5c1.5,0.2,2.9,0,4.3-0.5c0.6-0.2,1.3-0.4,1.9-0.7
		C242.2,268.8,243.8,267.8,243.8,267.8z"/>
</g>
<circle class="st3" cx="146.8" cy="181.4" r="58.1"/>
<path class="st5" d="M214.1,184.3c1.8,1.5,5.1-5.6,5.4-7.6c0-7.8-9.4-7.1-9.5,0.2C210.6,179.5,213.1,182.8,214.1,184.3L214.1,184.3z
	 M214.9,174c2.6-0.1,2.6,4.5,0,4.4C212.3,178.5,212.3,173.9,214.9,174L214.9,174z"/>
<path class="st5" d="M239.3,170.1c1.8,1.5,5.1-5.6,5.4-7.6c0-7.8-9.4-7.1-9.5,0.2C235.8,165.3,238.1,168.6,239.3,170.1L239.3,170.1z
	 M240.1,159.8c2.6-0.1,2.6,4.5,0,4.4C237.4,164.3,237.4,159.7,240.1,159.8L240.1,159.8z"/>
<path class="st5" d="M227.6,203.7c1.8,1.5,5.1-5.6,5.4-7.6c0-7.8-9.4-7.1-9.5,0.2C224.1,198.9,226.4,202.2,227.6,203.7L227.6,203.7z
	 M228.4,193.4c2.6-0.1,2.6,4.5,0,4.4C225.8,197.9,225.8,193.3,228.4,193.4L228.4,193.4z"/>
<path class="st5" d="M260.2,198.8c1.8,1.5,5.1-5.6,5.4-7.6c0-7.8-9.4-7.1-9.5,0.2C256.6,193.9,259.1,197.2,260.2,198.8L260.2,198.8z
	 M261.1,188.4c2.6-0.1,2.6,4.5,0,4.4C258.4,192.9,258.4,188.3,261.1,188.4L261.1,188.4z"/>
<path class="st5" d="M267.2,176.4c1.8,1.5,5.1-5.6,5.4-7.6c0-7.8-9.4-7.1-9.5,0.2C263.6,171.6,266,174.9,267.2,176.4L267.2,176.4z
	 M268,166.1c2.6-0.1,2.6,4.5,0,4.4C265.2,170.6,265.2,166,268,166.1L268,166.1z"/>
<path class="st5" d="M271.1,150.8c1.8,1.5,5.1-5.6,5.4-7.6c0-7.8-9.4-7.1-9.5,0.2C267.5,146,270,149.3,271.1,150.8L271.1,150.8z
	 M271.9,140.4c2.6-0.1,2.6,4.5,0,4.4C269.2,145,269.2,140.3,271.9,140.4L271.9,140.4z"/>
<path class="st5" d="M252.9,223.4c1.8,1.5,5.1-5.6,5.4-7.6c0-7.8-9.4-7.1-9.5,0.2C249.3,218.6,251.8,221.9,252.9,223.4L252.9,223.4z
	 M253.8,213.1c2.6-0.1,2.6,4.5,0,4.4C251.1,217.6,251.1,213,253.8,213.1L253.8,213.1z"/>
<path class="st5" d="M297.8,203.8c1.8,1.5,5.1-5.6,5.4-7.6c0-7.8-9.4-7.1-9.5,0.2C294.2,198.9,296.6,202.2,297.8,203.8L297.8,203.8z
	 M298.6,193.4c2.6-0.1,2.6,4.5,0,4.4C295.9,198,295.9,193.3,298.6,193.4L298.6,193.4z"/>
<path class="st5" d="M209.4,228.6c1.8,1.5,5.1-5.6,5.4-7.6c0-7.8-9.4-7.1-9.5,0.2C205.8,223.8,208.2,227.1,209.4,228.6L209.4,228.6z
	 M210.2,218.3c2.6-0.1,2.6,4.5,0,4.4C207.6,222.8,207.6,218.1,210.2,218.3L210.2,218.3z"/>
<path class="st5" d="M214.1,155.7c1.8,1.5,5.1-5.6,5.4-7.6c0-7.8-9.4-7.1-9.5,0.2C210.6,150.9,213.1,154.2,214.1,155.7L214.1,155.7z
	 M214.9,145.4c2.6-0.1,2.6,4.5,0,4.4C212.3,149.9,212.3,145.3,214.9,145.4L214.9,145.4z"/>
<path class="st5" d="M222.9,130.4c1.8,1.5,5.1-5.6,5.4-7.6c0-7.8-9.4-7.1-9.5,0.2C219.3,125.6,221.8,128.9,222.9,130.4L222.9,130.4z
	 M223.6,120.1c2.6-0.1,2.6,4.5,0,4.4C221.1,124.6,221.1,120,223.6,120.1L223.6,120.1z"/>
<path class="st5" d="M188.6,118.4c1.8,1.5,5.1-5.6,5.4-7.6c0-7.8-9.4-7.1-9.5,0.2C184.9,113.5,187.3,116.8,188.6,118.4L188.6,118.4z
	 M189.3,108c2.6-0.1,2.6,4.5,0,4.4C186.8,112.6,186.8,107.9,189.3,108L189.3,108z"/>
<path class="st5" d="M171.2,121.1c1.8,1.5,5.1-5.6,5.4-7.6c0-7.8-9.4-7.1-9.5,0.2C167.8,116.3,170.1,119.6,171.2,121.1L171.2,121.1z
	 M172.1,110.8c2.6-0.1,2.6,4.5,0,4.4C169.4,115.3,169.4,110.7,172.1,110.8L172.1,110.8z"/>
<path class="st5" d="M146.1,98.3c1.8,1.5,5.1-5.6,5.4-7.6c0-7.8-9.4-7.1-9.5,0.2C142.4,93.4,144.8,96.7,146.1,98.3L146.1,98.3z
	 M146.8,87.9c2.6-0.1,2.6,4.5,0,4.4C144.1,92.5,144.1,87.8,146.8,87.9L146.8,87.9z"/>
<path class="st5" d="M106.5,40.6c1.8,1.5,5.1-5.6,5.4-7.6c0-7.8-9.4-7.1-9.5,0.2C102.9,35.8,105.3,39.1,106.5,40.6L106.5,40.6z
	 M107.2,30.3c2.6-0.1,2.6,4.5,0,4.4C104.6,34.8,104.6,30.2,107.2,30.3L107.2,30.3z"/>
<path class="st5" d="M117.8,65.5c1.8,1.5,5.1-5.6,5.4-7.6c0-7.8-9.4-7.1-9.5,0.2C114.1,60.7,116.5,64,117.8,65.5L117.8,65.5z
	 M118.4,55.2c2.6-0.1,2.6,4.5,0,4.4C115.8,59.7,115.8,55.1,118.4,55.2L118.4,55.2z"/>
<path class="st5" d="M101.3,115.6c1.8,1.5,5.1-5.6,5.4-7.6c0-7.8-9.4-7.1-9.5,0.2C97.8,110.7,100.1,114,101.3,115.6L101.3,115.6z
	 M102.1,105.2c2.6-0.1,2.6,4.5,0,4.4C99.5,109.8,99.5,105.1,102.1,105.2L102.1,105.2z"/>
<path class="st5" d="M32.1,148.3c1.8,1.5,5.1-5.6,5.4-7.6c0-7.8-9.4-7.1-9.5,0.2C28.5,143.4,31,146.7,32.1,148.3L32.1,148.3z
	 M32.9,137.9c2.6-0.1,2.6,4.5,0,4.4C30.3,142.5,30.3,137.8,32.9,137.9L32.9,137.9z"/>
<path class="st5" d="M58.8,152.5c1.8,1.5,5.1-5.6,5.4-7.6c0-7.8-9.4-7.1-9.5,0.2C55.2,147.6,57.6,150.9,58.8,152.5L58.8,152.5z
	 M59.6,142.1c2.6-0.1,2.6,4.5,0,4.4C57,146.7,57,142,59.6,142.1L59.6,142.1z"/>
<path class="st5" d="M67.9,181.8c1.8,1.5,5.1-5.6,5.4-7.6c0-7.8-9.4-7.1-9.5,0.2C64.3,177,66.8,180.3,67.9,181.8L67.9,181.8z
	 M68.8,171.5c2.6-0.1,2.6,4.5,0,4.4C66,176,66,171.3,68.8,171.5L68.8,171.5z"/>
<path class="st5" d="M45.3,182.3c1.8,1.5,5.1-5.6,5.4-7.6c0-7.8-9.4-7.1-9.5,0.2C41.7,177.4,44.2,180.7,45.3,182.3L45.3,182.3z
	 M46.1,171.9c2.6-0.1,2.6,4.5,0,4.4C43.5,176.5,43.5,171.8,46.1,171.9L46.1,171.9z"/>
<path class="st5" d="M96.6,90c1.8,1.5,5.1-5.6,5.4-7.6c0-7.8-9.4-7.1-9.5,0.2C93,85.1,95.4,88.4,96.6,90L96.6,90z M97.3,79.6
	c2.6-0.1,2.6,4.5,0,4.4C94.8,84.2,94.8,79.5,97.3,79.6L97.3,79.6z"/>
<path class="st5" d="M182.8,244.2c1.8,1.5,5.1-5.6,5.4-7.6c0-7.8-9.4-7.1-9.5,0.2C179.2,239.3,181.6,242.6,182.8,244.2L182.8,244.2z
	 M183.6,233.8c2.6-0.1,2.6,4.5,0,4.4C180.9,238.4,180.9,233.7,183.6,233.8L183.6,233.8z"/>
<path class="st5" d="M145.2,264.3c1.8,1.5,5.1-5.6,5.4-7.6c0-7.8-9.4-7.1-9.5,0.2C141.6,259.4,144.1,262.7,145.2,264.3L145.2,264.3z
	 M146.1,253.9c2.6-0.1,2.6,4.5,0,4.4C143.4,258.5,143.4,253.8,146.1,253.9L146.1,253.9z"/>
<path class="st5" d="M132.6,284.8c1.8,1.5,5.1-5.6,5.4-7.6c0-7.8-9.4-7.1-9.5,0.2C128.9,279.9,131.3,283.2,132.6,284.8L132.6,284.8z
	 M133.2,274.4c2.6-0.1,2.6,4.5,0,4.4C130.6,279,130.6,274.3,133.2,274.4L133.2,274.4z"/>
<g>
	<path class="st6" d="M66.3,313.4c-8.6-5.5-8.6-5.5-8.6-5.5c-1.8-1.2-1.8-3.1-1.2-4.3c35.6-52.1,35.6-52.1,35.6-52.1
		c0.6-1.9,2.5-1.9,4.3-1.2c8.6,6.1,8.6,6.1,8.6,6.1c1.2,0.6,1.8,3.1,0.6,4.3c-34.9,52.1-34.9,52.1-34.9,52.1
		C69.3,314,67.5,314.6,66.3,313.4L66.3,313.4z"/>
	<path class="st7" d="M66.9,303.6c-3.7-2.5-3.7-2.5-3.7-2.5c-0.6-0.6-1.2-1.2-0.6-2.5c31.9-47.2,31.9-47.2,31.9-47.2
		c0.6-0.6,1.8-0.6,2.5-0.6c3.7,3.1,3.7,3.1,3.7,3.1c1.2,0.6,1.2,1.2,0.6,1.8c-31.9,47.8-31.9,47.8-31.9,47.8
		C68.8,304.2,68.1,304.2,66.9,303.6L66.9,303.6z"/>
	<polygon class="st8" points="103,259.4 93.8,253.3 109.8,230 119,235.5 	"/>
	<path class="st8" d="M179.8,133.2c-27.6-19-65-11.6-83.4,16c-19,27.6-11.6,65,16,84c27.6,18.4,65,11,84-16.6
		C214.6,188.9,207.2,151.5,179.8,133.2L179.8,133.2z M117.1,225.7c-23.9-15.9-30-47.8-14.1-71.7c16-23.9,48.4-30,71.7-14.1
		c23.9,16,30,48.4,14.1,72.3C172.9,235.5,140.4,241.7,117.1,225.7L117.1,225.7z"/>
	<path class="st9" d="M182.8,131.9c-27.6-19-65-11.6-84,16c-18.4,27.6-11,65.6,16.6,84s65,11,83.4-16.6
		C217.8,187.7,210.3,150.3,182.8,131.9L182.8,131.9z M119.6,224.5c-23.3-15.9-29.4-47.8-13.5-71.7s47.8-30,71.7-14.1
		c23.9,16,30.1,48.4,14.1,72.3C176.1,234.3,143.6,240.4,119.6,224.5L119.6,224.5z"/>
	<g>
		<polygon class="st10" points="127.5,185.1 183.5,216.2 167.8,225.3 111.5,194.2 		"/>
		<polygon class="st11" points="181.5,216.3 181.5,221.9 166.7,230.6 166.7,216.3 		"/>
		<polygon class="st12" points="113.5,195.2 113.5,200.8 166.7,230.6 166.7,218.6 		"/>
		<g>
			<polygon class="st13" points="125.4,157.2 167.9,180.7 167.9,225.2 125.3,201.5 			"/>
			<path class="st14" d="M125.3,191.1l10.4,5.8v10.4l0.6,0.3v-10.4l10,5.6v10.4l0.6,0.3v-10.4l10,5.6v10.5l0.6,0.4V209l11.4,6.3
				l0.3-0.5l-11.7-6.5v-19.8l11.5,6.4l0.3-0.5l-11.8-6.5v-13.3h-0.6v12.9l-10-5.6v-12.8l-0.6-0.7v13.2l-10-5.6v-13l-0.6-0.4v13.1
				l-10.4-5.8v0.7l10.4,5.7v19.9l-10.4-5.8L125.3,191.1L125.3,191.1z M157,197.7l-10-5.7v-4.4l10,5.7V197.7z M136.3,181.6l10,5.7
				v4.4l-10-5.7V181.6z M157,202.8l-10-5.7v-4.5l10,5.7V202.8z M146.3,196.8l-10-5.7v-4.5l10,5.7V196.8z M146.3,182.3v4.3l-10-5.7
				v-4.2L146.3,182.3z M157,188.2v4.4l-10-5.7v-4.3L157,188.2z M146.9,202.4v-4.6l10,5.7v4.5L146.9,202.4z M136.3,196.5v-4.7l10,5.7
				v4.6L136.3,196.5z"/>
			<polygon class="st15" points="165.8,196.2 165.8,205.2 159.6,201.7 159.6,192.7 			"/>
			<g>
				<polygon class="st12" points="136.3,176 136.3,163.1 146.9,168.8 146.9,171.7 137.7,176.8 				"/>
				<polygon class="st16" points="137.7,176.8 146.9,171.7 146.9,182.1 				"/>
			</g>
			<g>
				<polygon class="st17" points="137.8,163.6 135.9,162.7 125.9,168.1 125.9,182.4 127.7,183.3 				"/>
				<polygon class="st18" points="137.8,163.6 127.7,169.1 127.7,183.3 137.8,177.3 				"/>
			</g>
			<g>
				<g>
					<path class="st19" d="M154.1,167.5c0,0,0,0-6.3-3.3c-0.5-0.3-1-0.3-1.5,0c0,0,0,0-6.3,3.3c-0.5,0.3-0.8,0.8-0.8,1.3
						c0,0,0,0,0,6.5c0,0.6,0.3,1.1,0.8,1.3c0,0,0,0,6.3,3.3c0.5,0.3,1,0.3,1.5,0c0,0,0,0,6.3-3.3c0.5-0.3,0.8-0.8,0.8-1.3
						c0,0,0,0,0-6.5C155,168.3,154.7,167.8,154.1,167.5z"/>
					<path class="st20" d="M142.3,169.6c0.1-0.1-0.1-0.4,0.1-0.5c0.6-0.3,5-2.7,7.2-3.9c0.5,0.3,0.5,0.3,0.5,0.3
						c-2.3-1.2-2.3-1.2-2.3-1.2c-0.2-0.1-0.5-0.2-0.7-0.2c-0.3,0-0.5,0.1-0.7,0.2c-0.4,0.2-0.8,0.4-1.2,0.7c-0.6,0.3-1,0.4-1.6,0.7
						c-0.2,0.1-1.3,0.7-1.5,0.8c-0.5,0.2-1.3,0.7-1.7,0.9c-0.2,0.1-0.4,0.2-0.4,0.4c-0.1,0.4,0.1,0.5,0.4,0.7
						C140.9,168.8,142.3,169.6,142.3,169.6z M147.1,171.8c0.3,0,0.7-0.1,0.9-0.2l0,0l0,0c1.1-0.6,2.9-1.5,4.5-2.3
						c0.6-0.3,1.2-0.6,1.6-0.8c0.2-0.1,0.2-0.2,0.2-0.4l0,0c0-0.1-0.1-0.2-0.2-0.3l-0.1-0.1c-1.7-0.9-1.7-0.9-1.7-0.9
						c-1-0.5-1-0.5-1-0.5c-7.1,4-7.6,3-7.6,3s0.2,1,0.2,1.2l2.1,1.1C146.5,171.8,146.7,171.8,147.1,171.8L147.1,171.8L147.1,171.8z"
						/>
				</g>
				<g>
					<path class="st21" d="M147,164.1c0.3,0,0.5,0.1,0.8,0.2l6.3,3.3c0.5,0.3,0.8,0.8,0.8,1.3l-0.1,6.5c0,0.6-0.3,1.1-0.8,1.3
						l-6.3,3.3c-0.1,0.1-0.3,0.1-0.4,0.2h-0.9c-0.1,0-0.2-0.1-0.3-0.1l-6.3-3.3c-0.4-0.2-0.7-0.6-0.8-1.1v-7.1
						c0.1-0.5,0.4-0.8,0.8-1.1l6.3-3.3C146.5,164.1,146.8,164.1,147,164.1z"/>
					<g>
						<g>
							<path class="st22" d="M147.8,180.2c0,0,0,0,6.3-3.3c0.5-0.3,0.8-0.8,0.8-1.3c0,0.6-0.3,1.1-0.8,1.3
								C154.1,176.9,154.1,176.9,147.8,180.2c-0.1,0-0.1,0.1-0.2,0.1C147.7,180.2,147.7,180.2,147.8,180.2z"/>
						</g>
					</g>
				</g>
				<g>
					<g>
						<path class="st23" d="M148.1,171.6c1.1-0.6,2.9-1.5,4.5-2.3C151,170,149.2,171,148.1,171.6z M148.1,171.6L148.1,171.6
							L148.1,171.6z"/>
						<path class="st24" d="M142.2,169.5l-2.3-1.2l0,0L142.2,169.5z M146,171.5l-1.9-1L146,171.5L146,171.5L146,171.5z"/>
					</g>
				</g>
				<g>
					<path class="st13" d="M149.6,165.2c-2.2,1.2-6.6,3.5-7.2,3.9c-0.2,0.1-0.5,0.2-0.5,0.5c0,0.1,0.1,0.2,0.1,0.3
						c0.1,0.1,0.1,0.3,0.2,0.4c0.1,0.1,0.2,0.2,0.3,0.3c0.3,0.2,0.7,0.2,1.1,0.2c0.1,0,0.2,0,0.2,0c0.1,0,0,0.1,0.1,0
						c0.1-0.1,0-0.3,0.7-0.7c0.1-0.1,1.8-1,2.1-1.2c0.5-0.3,0.9-0.5,1.4-0.8c0.6-0.3,1.2-0.7,1.8-1c0.5-0.3,1-0.6,1.5-0.9
						L149.6,165.2z"/>
				</g>
				<g>
					<path class="st21" d="M149.6,165.2l1.9,1l-7.1,4c-0.3,0.2-0.3,0.6-0.7,0.8c-0.2,0.1-0.5,0-0.7-0.1c-0.2-0.1-0.4-0.3-0.6-0.4
						c-0.1-0.1-0.2-0.1-0.4-0.2c-0.2-0.1-0.1-0.3-0.1-0.5s0.1-0.4,0.4-0.6C143,168.7,147.4,166.4,149.6,165.2z"/>
					<g>
						<g>
							<path class="st13" d="M142.3,171.4C142.2,171.4,142.2,171.4,142.3,171.4L142.3,171.4z"/>
						</g>
					</g>
				</g>
				<g>
					<path class="st25" d="M141.9,169.4c-0.1,0.1-0.1,0.3-0.1,0.4c0,0.3,0,0.8,0,1.1s0.1,0.4,0.3,0.5c0.3,0.2,1.2,0.6,1.5,0.7
						c0.2,0,0.3-0.1,0.4-0.3c0-0.1,0-0.3,0-0.4c0-0.3,0-0.6,0-0.9C144,170.6,142.2,169.6,141.9,169.4z"/>
					<path class="st26" d="M147.6,180.3c0.1,0,0.1-0.1,0.2-0.1c6.3-3.3,6.3-3.3,6.3-3.3c0.5-0.3,0.8-0.8,0.8-1.3c0-6.5,0-6.5,0-6.5
						c0-0.3-0.1-0.5-0.2-0.7h-0.1l0,0c-0.1,0-0.2,0-0.2,0.1c-0.5,0.3-1.1,0.6-1.8,0.9c-1.6,0.8-3.4,1.7-4.5,2.3l0,0l0,0
						c-0.1,0-0.1,0.1-0.2,0.1c-0.5,0.2-0.9,0.7-0.9,1.2c0,0.1,0,0.1,0,0.2l0,0c0,0.1,0,0.2,0,0.4c0,1.6,0,4.3,0,6.1
						C147.1,179.9,147.3,180.1,147.6,180.3z"/>
				</g>
			</g>
			<polygon class="st13" points="146.9,181.6 155.9,182.5 155.9,168.9 146.9,168 			"/>
		</g>
		<polygon class="st10" points="127.5,141.1 183.5,172.1 167.8,181.2 111.5,150.1 		"/>
		<polygon class="st10" points="127.5,135.2 183.5,166.3 167.8,175.4 111.5,144.2 		"/>
		<polygon class="st11" points="183.5,166.3 183.5,172.1 167.8,181.2 167.8,175.4 		"/>
		<polygon class="st27" points="183.5,172.1 167.8,181.2 167.9,225.2 183.5,216.5 		"/>
		<polygon class="st28" points="111.5,194.1 125.3,201.4 125.3,156.9 111.5,149.6 111.5,149.6 		"/>
		<polygon class="st12" points="111.5,144.2 111.5,150.1 167.8,181.2 167.8,175.4 		"/>
	</g>
</g>
</svg>
