<?xml version="1.0" encoding="utf-8"?>
<!-- Generator: Adobe Illustrator 25.2.2, SVG Export Plug-In . SVG Version: 6.00 Build 0)  -->
<svg version="1.1" id="Layer_1" xmlns="http://www.w3.org/2000/svg" xmlns:xlink="http://www.w3.org/1999/xlink" x="0px" y="0px"
	 viewBox="0 0 314.9 314.9" style="enable-background:new 0 0 314.9 314.9;" xml:space="preserve">
<style type="text/css">
	.st0{fill:#A0A2A5;}
	.st1{fill:#414042;}
	.st2{fill:#FDCC58;}
	.st3{fill:none;}
	.st4{fill:#BCBEC0;}
	.st5{fill:#8B8D90;}
	.st6{fill:#E6E7E8;}
	.st7{fill:#808285;}
	.st8{fill:#EF4136;}
	.st9{fill:#FFFFFF;}
</style>
<g>
	<circle class="st0" cx="158" cy="157.5" r="154.8"/>
	<g>
		<g>
			<polygon class="st1" points="54.6,42.4 272.1,153.3 260.9,202.8 221.2,181.9 57.8,63.6 			"/>
			<g>
				<circle class="st2" cx="158" cy="157.5" r="154.8"/>
			</g>
			<g>
				<path class="st3" d="M52.4,44.4c0.8-0.7,1.5-1.4,2.3-2.1l-15.5-7.9L52.4,44.4z"/>
				<path class="st0" d="M288.7,90.9l-16.6,62.4L54.7,42.3c-0.8,0.7-1.5,1.4-2.3,2.1l208.5,158.4l-21.8,86.6
					c44.2-27.2,73.7-76.1,73.7-131.8c0-28.4-7.7-55.1-21.1-78L288.7,90.9z"/>
				<path class="st4" d="M158,2.8c-39.7,0-75.9,15-103.3,39.5l217.4,111l16.6-62.4l3-11.3C264.9,33.6,215.1,2.8,158,2.8z"/>
				<path class="st4" d="M52.4,44.4c-3.4,3.2-6.7,6.6-9.9,10.1l35.2,207.2L138,311c6.5,0.8,13.2,1.3,20,1.3
					c29.7,0,57.5-8.4,81.1-22.9l21.8-86.6L52.4,44.4z"/>
			</g>
			<g>
				<path class="st3" d="M52.4,44.4c-4.3-3.3-8.7-6.6-13.2-10c0,0,0,0,0,0s0,0,3.4,20.1C45.7,51,49,47.6,52.4,44.4z"/>
				<path class="st0" d="M288.7,90.9c0,0,0,0,3-11.3C264.9,33.6,215.1,2.8,158,2.8c-39.7,0-75.9,15-103.3,39.5
					c22.8,11.6,78.9,40.3,217.4,111C272.1,153.3,272.1,153.3,288.7,90.9z"/>
				<path class="st0" d="M52.4,44.4c-3.4,3.2-6.7,6.5-9.8,10c4.2,25,13.8,81.2,35.1,207.2c0,0,0,0,60.2,49.3
					c6.6,0.9,13.3,1.3,20.1,1.3c29.7,0,57.5-8.4,81-22.9c3.9-15.7,10.6-42.1,21.8-86.6C260.9,202.8,260.9,202.8,52.4,44.4z"/>
				<path class="st5" d="M138.5,312.2c0.9,0,0.9,0,0.9,0c-0.5-0.4-1-0.8-1.5-1.2c-0.4,0-0.7-0.1-1.1-0.1
					C138.5,312.2,138.5,312.2,138.5,312.2z"/>
				<path class="st5" d="M39.2,34.4C39.2,34.4,39.2,34.4,39.2,34.4L39.2,34.4z"/>
				<path class="st5" d="M42.6,54.5c-4.1,4.6-8,9.5-11.6,14.6c35.1,184.5,35.1,184.5,35.1,184.5c51.8,41.9,66.5,53.8,70.7,57.2
					c0.4,0,0.7,0.1,1.1,0.1c-60.2-49.3-60.2-49.3-60.2-49.3C56.4,135.6,46.8,79.5,42.6,54.5z"/>
				<path class="st5" d="M312.8,157.5c0-28.4-7.7-55.1-21-78c-3,11.3-3,11.3-3,11.3c-16.6,62.4-16.6,62.4-16.6,62.4
					C133.6,82.6,77.5,54,54.7,42.3c-0.8,0.7-1.5,1.4-2.3,2.1c208.5,158.4,208.5,158.4,208.5,158.4c-11.2,44.5-17.9,70.9-21.8,86.6
					C283.3,262.2,312.8,213.3,312.8,157.5z"/>
			</g>
			<g>
				<path class="st0" d="M158,312.3c1.8,0,3.7,0,5.5-0.1h-10.9C154.4,312.2,156.2,312.3,158,312.3z"/>
				<path class="st0" d="M289.2,90.9l-16.6,62.4L54.9,42.2c-0.8,0.7-1.5,1.4-2.3,2.1l208.7,158.5l-21.8,86.3
					c43.9-27.3,73.2-76,73.2-131.5c0-28.2-7.6-54.7-20.7-77.4L289.2,90.9z"/>
				<path class="st0" d="M139.8,312.2h12.8c-4.8-0.2-9.5-0.5-14.1-1.1L139.8,312.2z"/>
				<path class="st0" d="M52.6,44.3c-3.4,3.1-6.6,6.4-9.6,9.8l35.2,207.6l60.3,49.3c4.7,0.6,9.4,1,14.1,1.1h10.9
					c27.9-1,53.8-9.3,76.1-23.1l21.8-86.3L52.6,44.3z"/>
				<path class="st0" d="M158,2.8c-39.6,0-75.8,14.9-103.2,39.4l217.6,111.1l16.6-62.4l2.9-10.8C265.3,33.9,215.3,2.8,158,2.8z"/>
			</g>
			<polygon class="st1" points="54.6,42.4 272.1,153.3 260.9,202.8 221.2,181.9 57.8,63.6 			"/>
			<g>
				<path class="st6" d="M243.5,186.7L97,64.3L54.6,42.4c-0.9,0.8-1.7,1.6-2.6,2.4l175.5,151.6L243.5,186.7z"/>
			</g>
			<polygon class="st7" points="227.5,196.4 218.8,245.4 231.8,236.2 243.5,186.7 			"/>
			<g>
				<path class="st4" d="M289.3,80.2L118.4,7.9c-1.3,0.4-2.7,0.7-4,1.1l173.7,73.5L289.3,80.2z"/>
			</g>
			<path class="st6" d="M59.8,158.2l181.3,121.1L59.8,158.2z"/>
			<polygon class="st4" points="59,159.2 240.3,280.4 241.7,278.2 60.5,157.1 			"/>
			<g>
				<path class="st4" d="M312.8,157.5c0-26.4-6.6-51.3-18.3-73l-51.9,202.7C284.8,259.5,312.8,211.8,312.8,157.5z"/>
			</g>
			<g>
				<path class="st4" d="M218.8,245.4l8.8-48.9L52,44.8c-2.7,2.6-5.4,5.3-7.9,8l4.1,25.9L218.8,245.4z"/>
			</g>
		</g>
	</g>
	<path class="st8" d="M183.4,206.1c-12.2,14-31.4,18.3-47.7,12.2c-3.9,12.3-3.9,12.3-3.9,12.3c-16-25.9-16-25.9-16-25.9
		c27.9-11.9,27.9-11.9,27.9-11.9c-3,9.4-3,9.4-3,9.4c10.2,4.2,22.3,1.6,30-7.1L183.4,206.1z"/>
	<path class="st8" d="M180.5,209.3c7.4,10.5,7.4,10.5,7.4,10.5c7.2-29.7,7.2-29.7,7.2-29.7c-30.3-2.7-30.3-2.7-30.3-2.7
		c5.8,8.1,5.8,8.1,5.8,8.1L180.5,209.3z"/>
	<g>
		<path class="st9" d="M88.7,299.7H13.6c-3.9,0-7.2-3.2-7.2-7.2v-60.3c0-3.9,3.2-7.2,7.2-7.2h75.2c3.9,0,7.2,3.2,7.2,7.2v60.3
			C95.9,296.5,92.7,299.7,88.7,299.7z"/>
		<g>
			<path d="M27.8,290.1c-1.1,0-2.1,0-3.2,0c0-18.3,0-36.6,0-55c1.1,0,2.1,0,3.2,0C27.8,253.4,27.8,271.7,27.8,290.1L27.8,290.1z"/>
			<path d="M35.1,290.1c-1.1,0-2.1,0-3.2,0c0-18.3,0-36.6,0-55c1.1,0,2.1,0,3.2,0C35.1,253.4,35.1,271.7,35.1,290.1L35.1,290.1z"/>
			<path d="M81.8,235.1c0.8,0,1.6,0,2.4,0c0,18.3,0,36.7,0,55c-0.8,0-1.6,0-2.4,0C81.8,271.7,81.8,253.4,81.8,235.1L81.8,235.1z"/>
			<path d="M75.3,235.1c0.8,0,1.6,0,2.4,0c0,18.3,0,36.7,0,55c-0.8,0-1.6,0-2.4,0C75.3,271.7,75.3,253.4,75.3,235.1L75.3,235.1z"/>
			<path d="M64.6,290.1c-0.8,0-1.6,0-2.4,0c0-18.3,0-36.6,0-55c0.4,0,0.8,0,1.2,0c0.4,0,0.8,0,1.2,0
				C64.6,253.4,64.6,271.7,64.6,290.1L64.6,290.1z"/>
			<path d="M22.1,290.1c-0.5,0-1,0-1.6,0c0-18.3,0-36.6,0-55c0.3,0,0.5,0,0.8,0c0.2,0,0.5,0,0.8,0C22.1,253.4,22.1,271.7,22.1,290.1
				L22.1,290.1z"/>
			<path d="M86.6,290.1c-0.5,0-1,0-1.6,0c0-18.3,0-36.6,0-55c0.5,0,1,0,1.6,0C86.6,253.4,86.6,271.7,86.6,290.1L86.6,290.1z"/>
			<path d="M37.6,235.1c0.5,0,1,0,1.6,0c0,18.3,0,36.6,0,55c-0.5,0-1,0-1.6,0C37.6,271.7,37.6,253.4,37.6,235.1L37.6,235.1z"/>
			<path d="M71.2,235.1c0.5,0,1,0,1.6,0c0,18.3,0,36.6,0,55c-0.2,0-0.5,0-0.8,0c-0.2,0-0.5,0-0.8,0
				C71.2,271.7,71.2,253.4,71.2,235.1L71.2,235.1z"/>
			<path d="M43.4,235.1c0.5,0,1,0,1.6,0c0,18.3,0,36.6,0,55c-0.5,0-1,0-1.6,0C43.4,271.7,43.4,253.4,43.4,235.1L43.4,235.1z"/>
			<path d="M67.9,235.1c0.5,0,1,0,1.6,0c0,18.3,0,36.7,0,55c-0.5,0-1,0-1.6,0C67.9,271.7,67.9,253.4,67.9,235.1L67.9,235.1z"/>
			<path d="M49.1,235.1c0.5,0,1,0,1.6,0c0,18.3,0,36.6,0,55c-0.5,0-1,0-1.6,0C49.1,271.7,49.1,253.4,49.1,235.1L49.1,235.1z"/>
			<path d="M60.5,290.1c-0.6,0-1.1,0-1.6,0c0-18.3,0-36.6,0-55c0.5,0,1,0,1.4,0c0,0,0.1,0.1,0.2,0.1c0,0.1,0,0.2,0,0.3
				c0,18,0,36,0,54C60.5,289.7,60.5,289.9,60.5,290.1L60.5,290.1z"/>
			<path d="M58,290.1c-0.5,0-1,0-1.6,0c0-18.3,0-36.6,0-55c0.2,0,0.5,0,0.8,0c0.2,0,0.5,0,0.8,0C58,253.4,58,271.7,58,290.1
				L58,290.1z"/>
			<path d="M18,290.1c-0.3,0-0.5,0-0.8,0c0-18.3,0-36.7,0-55c0.2,0,0.5,0,0.8,0C18,253.4,18,271.7,18,290.1L18,290.1z"/>
			<path d="M79.3,235.1c0.3,0,0.5,0,0.8,0c0,18.3,0,36.6,0,55c-0.2,0-0.5,0-0.8,0C79.3,271.7,79.3,253.4,79.3,235.1L79.3,235.1z"/>
			<path d="M46.6,290.1c-0.2,0-0.5,0-0.8,0c0-18.3,0-36.7,0-55c0.2,0,0.5,0,0.8,0C46.6,253.4,46.6,271.7,46.6,290.1L46.6,290.1z"/>
			<path d="M65.4,235.1c0.3,0,0.5,0,0.8,0c0,18.3,0,36.6,0,55c-0.2,0-0.5,0-0.8,0C65.4,271.7,65.4,253.4,65.4,235.1L65.4,235.1z"/>
			<path d="M53.2,235.1c0.3,0,0.5,0,0.8,0c0,18.3,0,36.6,0,55c-0.2,0-0.5,0-0.8,0C53.2,271.7,53.2,253.4,53.2,235.1L53.2,235.1z"/>
			<path d="M15.6,235.1c0.2,0,0.5,0,0.7,0c0,18.3,0,36.6,0,55c-0.2,0-0.5,0-0.7,0C15.6,271.7,15.6,253.4,15.6,235.1L15.6,235.1z"/>
			<path d="M55.6,290.1c-0.3,0-0.5,0-0.8,0c0-18.3,0-36.7,0-55c0.2,0,0.5,0,0.8,0C55.6,253.4,55.6,271.7,55.6,290.1L55.6,290.1z"/>
			<path d="M40.1,235.1c0.3,0,0.5,0,0.8,0c0,18.3,0,36.6,0,55c-0.1,0-0.2,0-0.4,0c-0.1,0-0.2,0-0.4,0
				C40.1,271.7,40.1,253.4,40.1,235.1L40.1,235.1z"/>
			<path d="M74.4,290.1c-0.2,0-0.5,0-0.7,0c0-18.3,0-36.6,0-55c0.2,0,0.5,0,0.7,0C74.4,253.4,74.4,271.7,74.4,290.1L74.4,290.1z"/>
			<path d="M30.3,235.1c0.3,0,0.5,0,0.8,0c0,18.3,0,36.6,0,55c-0.2,0-0.5,0-0.8,0C30.3,271.7,30.3,253.4,30.3,235.1L30.3,235.1z"/>
			<path d="M29.4,290.1c-0.3,0-0.5,0-0.8,0c0-18.3,0-36.6,0-55c0.2,0,0.5,0,0.8,0C29.4,253.4,29.4,271.7,29.4,290.1L29.4,290.1z"/>
			<path d="M23.7,290.1c-0.3,0-0.5,0-0.8,0c0-18.3,0-36.6,0-55c0.2,0,0.5,0,0.8,0C23.7,253.4,23.7,271.7,23.7,290.1L23.7,290.1z"/>
			<path d="M51.5,235.1c0.3,0,0.5,0,0.8,0c0,18.3,0,36.6,0,55c-0.2,0-0.5,0-0.8,0C51.5,271.7,51.5,253.4,51.5,235.1L51.5,235.1z"/>
		</g>
	</g>
</g>
</svg>
