<svg id="Layer_1" data-name="Layer 1" xmlns="http://www.w3.org/2000/svg" xmlns:xlink="http://www.w3.org/1999/xlink" viewBox="0 0 443.9 473.67"><defs><style>.cls-1{fill:none;}.cls-2{clip-path:url(#clip-path);}.cls-3{fill:#6f6a65;}.cls-4{fill:#f6e7da;}.cls-5{fill:#d1c4b3;}.cls-6{fill:#fff;}.cls-7{fill:#332e2c;}.cls-8{fill:#696a6d;}.cls-9{fill:#c3b39e;}.cls-10{fill:#fff1e5;}.cls-11{fill:#e7ebd8;}.cls-12{clip-path:url(#clip-path-2);}.cls-13{fill:#fde000;}.cls-14{fill:#595a5c;}.cls-15{fill:#010101;}.cls-16{fill:#c3e1b5;}</style><clipPath id="clip-path" transform="translate(-9.41 47.31)"><rect class="cls-1" x="19.13" y="7.59" width="423.75" height="370.53" rx="32.63"/></clipPath><clipPath id="clip-path-2" transform="translate(-9.41 47.31)"><path class="cls-1" d="M372.33,42H88.79a6.75,6.75,0,0,0-6.73,6.73V332.83a6.71,6.71,0,0,0,6.73,6.61H372.33a6.62,6.62,0,0,0,6.62-6.61V48.72A6.65,6.65,0,0,0,372.33,42"/></clipPath></defs><g class="cls-2"><polygon class="cls-3" points="412.65 473.67 31.14 473.67 31.14 427.48 412.65 427.48 412.65 473.67 412.65 473.67"/><polygon class="cls-4" points="412.65 427.7 31.14 427.7 31.14 46.19 412.65 46.19 412.65 427.7 412.65 427.7"/><polygon class="cls-5" points="412.65 473.67 31.14 473.67 31.14 429.3 412.65 429.3 412.65 473.67 412.65 473.67"/><polygon class="cls-6" points="412.65 473.67 31.14 473.67 31.14 431.81 412.65 431.81 412.65 473.67 412.65 473.67"/><polygon class="cls-4" points="412.65 473.67 31.14 473.67 31.14 434.2 412.65 434.2 412.65 473.67 412.65 473.67"/><polygon class="cls-4" points="412.65 46.19 31.14 46.19 31.14 0 412.65 0 412.65 46.19 412.65 46.19"/><polygon class="cls-3" points="412.65 138.23 31.14 138.23 31.14 45.85 412.65 45.85 412.65 138.23 412.65 138.23"/><polygon class="cls-5" points="412.65 139.94 31.14 139.94 31.14 47.67 412.65 47.67 412.65 139.94 412.65 139.94"/><polygon class="cls-6" points="412.65 142.45 31.14 142.45 31.14 50.18 412.65 50.18 412.65 142.45 412.65 142.45"/><polygon class="cls-4" points="412.65 144.96 31.14 144.96 31.14 52.69 412.65 52.69 412.65 144.96 412.65 144.96"/><polygon class="cls-7" points="377.4 394.29 65.13 394.29 65.13 82 377.4 82 377.4 394.29 377.4 394.29"/><path class="cls-8" d="M375.18,342.18H85.94a6.84,6.84,0,0,1-6.84-6.73V45.53a6.86,6.86,0,0,1,6.84-6.85H375.18A6.87,6.87,0,0,1,382,45.53V335.45a6.84,6.84,0,0,1-6.85,6.73" transform="translate(-9.41 47.31)"/><polygon class="cls-5" points="60.56 76.19 65.13 82 377.4 82 383.22 76.19 60.56 76.19 60.56 76.19"/><polygon class="cls-9" points="60.56 76.19 60.56 399.76 65.13 394.29 65.13 82 60.56 76.19 60.56 76.19"/><polygon class="cls-10" points="60.56 399.76 383.22 399.76 377.4 394.29 65.13 394.29 60.56 399.76 60.56 399.76"/><polygon class="cls-6" points="383.22 76.19 383.22 399.76 377.4 394.29 377.4 82 383.22 76.19 383.22 76.19"/><polygon class="cls-5" points="31.25 0 1.25 0 1.25 473.67 31.25 473.67 31.25 0 31.25 0"/><polygon class="cls-4" points="30 0 0 0 0 473.67 30 473.67 30 0 30 0"/><polygon class="cls-5" points="412.65 0 442.64 0 442.64 473.67 412.65 473.67 412.65 0 412.65 0"/><polygon class="cls-4" points="413.9 0 443.9 0 443.9 473.67 413.9 473.67 413.9 0 413.9 0"/><path class="cls-11" d="M372.33,42H88.79a6.75,6.75,0,0,0-6.73,6.73V332.83a6.71,6.71,0,0,0,6.73,6.61H372.33a6.62,6.62,0,0,0,6.62-6.61V48.72A6.65,6.65,0,0,0,372.33,42" transform="translate(-9.41 47.31)"/><g class="cls-12"><polygon class="cls-1" points="245.9 397.02 425.19 214.65 421.77 410.82 295.86 421.89 245.9 397.02 245.9 397.02"/></g><path class="cls-13" d="M304.58,299.3h-148a24.18,24.18,0,1,1,0-48.36h148a24.18,24.18,0,1,1,0,48.36Z" transform="translate(-9.41 47.31)"/><path class="cls-14" d="M173.42,274.43a14.6,14.6,0,1,1-14.6-14.6,14.62,14.62,0,0,1,14.6,14.6Z" transform="translate(-9.41 47.31)"/><path class="cls-13" d="M155.51,266a1.56,1.56,0,0,0,0,1.94l6.62,6.39-6.62,6.16a1.39,1.39,0,0,0,0,1.82,1.31,1.31,0,0,0,1.94,0l7.42-7a1.86,1.86,0,0,0,.57-1c0-.34-.35-.57-.57-.91L157.45,266a1.56,1.56,0,0,0-1.94,0Z" transform="translate(-9.41 47.31)"/><polygon class="cls-15" points="218.76 317.75 218.76 326.76 217.96 326.76 213.28 322.09 213.28 326.54 211 326.54 211 317.75 211.68 317.75 216.47 322.2 216.47 317.75 218.76 317.75 218.76 317.75"/><polygon class="cls-15" points="220.81 317.75 226.85 317.75 226.85 319.92 223.09 319.92 223.09 321.06 225.83 321.06 225.83 322.89 223.09 322.89 223.09 324.48 227.08 324.48 227.08 326.54 220.81 326.54 220.81 317.75 220.81 317.75"/><polygon class="cls-15" points="233.58 326.54 232.1 324.14 230.5 326.54 227.99 326.54 230.84 322.09 228.22 317.75 230.73 317.75 232.1 320.15 233.35 317.75 235.98 317.75 233.35 322.09 236.21 326.54 233.58 326.54 233.58 326.54"/><polygon class="cls-15" points="239.4 319.92 236.66 319.92 236.66 317.75 244.19 317.75 244.19 319.92 241.57 319.92 241.57 326.54 239.4 326.54 239.4 319.92 239.4 319.92"/><path class="cls-16" d="M304.58,129.13h-148a24.18,24.18,0,1,1,0-48.36h148a24.18,24.18,0,1,1,0,48.36" transform="translate(-9.41 47.31)"/><path class="cls-14" d="M173.88,105a14.6,14.6,0,1,1-14.6-14.6,14.61,14.61,0,0,1,14.6,14.6" transform="translate(-9.41 47.31)"/><path class="cls-16" d="M156,96.51a1.37,1.37,0,0,0,0,1.82l6.5,6.5L156,111a1.39,1.39,0,0,0,0,1.83,1.56,1.56,0,0,0,1.94,0l7.3-7.07c.23-.23.57-.57.57-.92s-.34-.68-.57-1l-7.3-7.3a1.31,1.31,0,0,0-1.94,0" transform="translate(-9.41 47.31)"/><path class="cls-15" d="M195.66,105a4.58,4.58,0,0,1,4.68-4.45,4.51,4.51,0,1,1,0,9,4.6,4.6,0,0,1-4.68-4.56m7.07,0a2.4,2.4,0,1,0-4.79,0,2.4,2.4,0,0,0,4.79,0" transform="translate(-9.41 47.31)"/><path class="cls-15" d="M206.72,100.61h3.54a3,3,0,0,1,3.31,3,3.13,3.13,0,0,1-3.31,3.08H209v2.62h-2.29v-8.67m3.54,4c.57,0,.91-.35.91-1s-.34-1-.91-1H209v2.06h1.25" transform="translate(-9.41 47.31)"/><polygon class="cls-15" points="205.75 147.93 211.8 147.93 211.8 149.98 208.03 149.98 208.03 151.12 210.77 151.12 210.77 153.06 208.03 153.06 208.03 154.54 211.91 154.54 211.91 156.6 205.75 156.6 205.75 147.93 205.75 147.93"/><polygon class="cls-15" points="221.49 147.93 221.49 156.82 220.69 156.82 216.02 152.15 216.02 156.6 213.74 156.6 213.74 147.81 214.54 147.81 219.21 152.26 219.21 147.93 221.49 147.93 221.49 147.93"/><polygon class="cls-15" points="236.55 147.81 236.55 156.6 234.27 156.6 234.27 152.95 232.44 155 231.76 155 229.93 152.95 229.93 156.6 227.77 156.6 227.77 147.81 228.34 147.81 232.1 152.26 235.75 147.81 236.55 147.81 236.55 147.81"/><polygon class="cls-15" points="238.6 147.93 244.76 147.93 244.76 149.98 240.88 149.98 240.88 151.12 243.62 151.12 243.62 153.06 240.88 153.06 240.88 154.54 244.87 154.54 244.87 156.6 238.6 156.6 238.6 147.93 238.6 147.93"/><path class="cls-15" d="M256,100.61h3.07c2.63,0,4.8,1.6,4.8,4.22s-2.17,4.45-4.8,4.45H256v-8.67m3.07,6.62a2.3,2.3,0,0,0,2.51-2.4c0-1.48-1.14-2.16-2.51-2.16h-.68v4.56h.68" transform="translate(-9.41 47.31)"/><polygon class="cls-15" points="256.05 147.93 258.33 147.93 258.33 156.6 256.05 156.6 256.05 147.93 256.05 147.93"/><path class="cls-15" d="M269.91,105.63v-5h2.17v5.14a1.49,1.49,0,0,0,1.59,1.59,1.58,1.58,0,0,0,1.71-1.59v-5.14h2.17v5a3.78,3.78,0,0,1-3.88,3.88,3.69,3.69,0,0,1-3.76-3.88Z" transform="translate(-9.41 47.31)"/><polygon class="cls-15" points="279.09 147.81 279.09 156.6 276.81 156.6 276.81 152.95 274.98 155 274.3 155 272.59 152.95 272.59 156.6 270.19 156.6 270.19 147.81 270.99 147.81 274.64 152.26 278.29 147.81 279.09 147.81 279.09 147.81"/><path class="cls-16" d="M304.58,186.27h-148a24.24,24.24,0,0,1,0-48.47h148a24.24,24.24,0,1,1,0,48.47" transform="translate(-9.41 47.31)"/><path class="cls-14" d="M173.88,162a14.6,14.6,0,1,1-14.6-14.59A14.63,14.63,0,0,1,173.88,162" transform="translate(-9.41 47.31)"/><path class="cls-16" d="M156,153.65a1.37,1.37,0,0,0,0,1.82l6.5,6.39L156,168a1.54,1.54,0,0,0,0,1.94,1.56,1.56,0,0,0,1.94,0l7.3-7.07a1.53,1.53,0,0,0,.57-1c0-.34-.34-.57-.57-.91l-7.3-7.3a1.31,1.31,0,0,0-1.94,0" transform="translate(-9.41 47.31)"/><path class="cls-15" d="M199.77,162a4.41,4.41,0,0,1,4.56-4.44,4.51,4.51,0,1,1,0,9,4.44,4.44,0,0,1-4.56-4.57Zm6.95,0a2.24,2.24,0,0,0-2.28-2.39,2.21,2.21,0,0,0-2.39,2.39,2.3,2.3,0,0,0,2.39,2.51,2.34,2.34,0,0,0,2.28-2.51Z" transform="translate(-9.41 47.31)"/><path class="cls-15" d="M210.72,157.64h3.42c1.94,0,3.42,1.14,3.42,3a3.16,3.16,0,0,1-3.42,3.08h-1v2.73h-2.39Zm3.42,4.11a1.08,1.08,0,0,0,1.14-1.14,1.06,1.06,0,0,0-1.14-1h-1v2.17Z" transform="translate(-9.41 47.31)"/><polygon class="cls-15" points="209.75 204.96 215.79 204.96 215.79 207.01 212.03 207.01 212.03 208.26 214.65 208.26 214.65 210.2 212.03 210.2 212.03 211.57 215.9 211.57 215.9 213.74 209.75 213.74 209.75 204.96 209.75 204.96"/><polygon class="cls-15" points="225.37 204.96 225.37 213.85 224.69 213.85 220.01 209.29 220.01 213.74 217.73 213.74 217.73 204.84 218.41 204.84 223.2 209.29 223.2 204.96 225.37 204.96 225.37 204.96"/><polygon class="cls-15" points="231.64 204.96 233.93 204.96 233.93 211.57 237.57 211.57 237.57 213.74 231.64 213.74 231.64 204.96 231.64 204.96"/><path class="cls-15" d="M253.6,165.62h-3.19l-.35.8h-2.39l4-8.89h.69l4,8.89h-2.51l-.23-.8Zm-1.6-3.76-.68,1.94h1.37l-.69-1.94Z" transform="translate(-9.41 47.31)"/><path class="cls-15" d="M262.72,166.42l-1.93-2.73h-.92v2.73h-2.28v-8.78H261c1.94,0,3.43,1.14,3.43,3a2.84,2.84,0,0,1-1.37,2.51l2.28,3.3Zm-2.85-4.67H261a1.08,1.08,0,0,0,1.14-1.14,1.05,1.05,0,0,0-1.14-1h-1.14Z" transform="translate(-9.41 47.31)"/><path class="cls-15" d="M265.92,162a4.5,4.5,0,0,1,4.67-4.44,4.17,4.17,0,0,1,3.77,1.94l-1.48,1.36a2.65,2.65,0,0,0-2.29-1.25,2.25,2.25,0,0,0-2.28,2.39,2.31,2.31,0,0,0,2.4,2.51,2.5,2.5,0,0,0,1.94-.68v-.46h-2.06V161.4h4.34v2.74a5,5,0,0,1-4.34,2.4,4.53,4.53,0,0,1-4.67-4.57Z" transform="translate(-9.41 47.31)"/><polygon class="cls-15" points="267.23 204.96 273.27 204.96 273.27 207.01 269.51 207.01 269.51 208.26 272.13 208.26 272.13 210.2 269.51 210.2 269.51 211.57 273.39 211.57 273.39 213.74 267.23 213.74 267.23 204.96 267.23 204.96"/><g class="cls-12"><path class="cls-1" d="M324.66,42H88.79a6.75,6.75,0,0,0-6.73,6.73V267.47c21.33-19.73,52.92-49,87.48-81.2h-13a24.24,24.24,0,0,1,0-48.47h65.13c3.07-2.86,6.27-5.82,9.35-8.67H156.54a24.18,24.18,0,1,1,0-48.36H283C298.31,66.51,312.45,53.28,324.66,42" transform="translate(-9.41 47.31)"/><path class="cls-1" d="M210.26,102.55H209v2.06h1.25c.57,0,.91-.35.91-1s-.34-1-.91-1m-9.92-.11a2.37,2.37,0,0,0-2.4,2.51,2.4,2.4,0,0,0,4.79,0,2.36,2.36,0,0,0-2.39-2.51m6.38,6.84v-8.67h3.54a3,3,0,0,1,3.31,3,3.13,3.13,0,0,1-3.31,3.08H209v2.62h-2.29m8.44,0v-8.67h6.05v2.06h-3.76v1.14h2.73v1.94h-2.73v1.48h3.87v2h-6.16m-14.82.23a4.51,4.51,0,1,1,0-9,4.51,4.51,0,1,1,0,9m22.81-.23V100.5h.8l4.67,4.45v-4.34h2.28v8.9h-.79l-4.68-4.68v4.45h-2.28M241.51,105l3.65-4.45h.8v8.78h-2.28v-3.65l-1.83,2.05h-.68l-1.83-2.05v3.65h-2.16V100.5h.57l3.76,4.45m-82.23,14.48A14.54,14.54,0,1,1,173.88,105a14.53,14.53,0,0,1-14.6,14.48M283,80.77H156.54a24.18,24.18,0,1,0,0,48.36H231c7.18-6.73,14.25-13.35,21.33-19.85H248v-8.67h6.16v2.06h-3.88v1.14H253v1.94h-2.74v1.48h4v.23c.57-.57,1.15-1,1.72-1.6v-5.25h3.07a6.58,6.58,0,0,1,2.17.35C268.77,94,276,87.27,283,80.77" transform="translate(-9.41 47.31)"/><path class="cls-1" d="M156.88,113.16a1.29,1.29,0,0,1-.91-.34,1.39,1.39,0,0,1,0-1.83l6.5-6.16-6.5-6.5a1.37,1.37,0,0,1,0-1.82,1.41,1.41,0,0,1,.91-.46,2.05,2.05,0,0,1,1,.46l7.3,7.3c.23.34.57.68.57,1s-.34.69-.57.92l-7.3,7.07a1.83,1.83,0,0,1-1,.34m2.4-22.81a14.54,14.54,0,1,0,14.6,14.6,14.55,14.55,0,0,0-14.6-14.6" transform="translate(-9.41 47.31)"/><path class="cls-1" d="M156.88,96.05a1.41,1.41,0,0,0-.91.46,1.37,1.37,0,0,0,0,1.82l6.5,6.5L156,111a1.39,1.39,0,0,0,0,1.83,1.29,1.29,0,0,0,.91.34,1.83,1.83,0,0,0,1-.34l7.3-7.07c.23-.23.57-.57.57-.92s-.34-.68-.57-1l-7.3-7.3a2.05,2.05,0,0,0-1-.46" transform="translate(-9.41 47.31)"/><path class="cls-1" d="M200.34,107.34a2.27,2.27,0,0,1-2.4-2.39,2.4,2.4,0,1,1,4.79,0,2.27,2.27,0,0,1-2.39,2.39m0-6.84a4.51,4.51,0,1,0,0,9,4.51,4.51,0,1,0,0-9" transform="translate(-9.41 47.31)"/><path class="cls-1" d="M209,104.61v-2.06h1.25c.57,0,.91.34.91,1s-.34,1-.91,1H209m1.25-4h-3.54v8.67H209v-2.62h1.25a3.13,3.13,0,0,0,3.31-3.08,3,3,0,0,0-3.31-3" transform="translate(-9.41 47.31)"/><polygon class="cls-1" points="211.8 147.93 205.75 147.93 205.75 156.6 211.91 156.6 211.91 154.54 208.03 154.54 208.03 153.06 210.77 153.06 210.77 151.12 208.03 151.12 208.03 149.98 211.8 149.98 211.8 147.93 211.8 147.93"/><polygon class="cls-1" points="214.54 147.81 213.74 147.81 213.74 156.6 216.02 156.6 216.02 152.15 220.69 156.82 221.49 156.82 221.49 147.93 219.21 147.93 219.21 152.26 214.54 147.81 214.54 147.81"/><polygon class="cls-1" points="236.55 147.81 235.75 147.81 232.1 152.26 228.34 147.81 227.77 147.81 227.77 156.6 229.93 156.6 229.93 152.95 231.76 155 232.44 155 234.27 152.95 234.27 156.6 236.55 156.6 236.55 147.81 236.55 147.81"/><path class="cls-1" d="M259.07,102.67h-.68v1l1-1h-.35" transform="translate(-9.41 47.31)"/><path class="cls-1" d="M254.17,100.61H248v8.67h4.34c.68-.57,1.25-1.25,1.93-1.82v-.23h-4v-1.48H253v-1.94h-2.74v-1.14h3.88v-2.06" transform="translate(-9.41 47.31)"/><path class="cls-1" d="M259.07,100.61H256v5.25c.79-.68,1.59-1.48,2.39-2.17v-1h1c.57-.57,1.25-1.14,1.82-1.71a6.58,6.58,0,0,0-2.17-.35" transform="translate(-9.41 47.31)"/><path class="cls-1" d="M159.28,176.57a14.6,14.6,0,1,1,14.6-14.6,14.55,14.55,0,0,1-14.6,14.6m62.39-38.77H156.54a24.24,24.24,0,0,0,0,48.47h13c17-15.74,34.56-32.17,52.13-48.47" transform="translate(-9.41 47.31)"/><path class="cls-1" d="M156.88,170.3A1.29,1.29,0,0,1,156,170a1.54,1.54,0,0,1,0-1.94l6.5-6.16-6.5-6.39a1.37,1.37,0,0,1,0-1.82,1.41,1.41,0,0,1,.91-.46,2.05,2.05,0,0,1,1,.46l7.3,7.3c.23.34.57.57.57.91a1.53,1.53,0,0,1-.57,1l-7.3,7.07a1.83,1.83,0,0,1-1,.34m2.4-22.92A14.6,14.6,0,1,0,173.88,162a14.55,14.55,0,0,0-14.6-14.59" transform="translate(-9.41 47.31)"/><path class="cls-1" d="M156.88,153.19a1.41,1.41,0,0,0-.91.46,1.37,1.37,0,0,0,0,1.82l6.5,6.39L156,168a1.54,1.54,0,0,0,0,1.94,1.29,1.29,0,0,0,.91.34,1.83,1.83,0,0,0,1-.34l7.3-7.07a1.53,1.53,0,0,0,.57-1c0-.34-.34-.57-.57-.91l-7.3-7.3a2.05,2.05,0,0,0-1-.46" transform="translate(-9.41 47.31)"/></g></g></svg>