<?xml version="1.0" encoding="utf-8"?>
<!-- Generator: Adobe Illustrator 24.2.3, SVG Export Plug-In . SVG Version: 6.00 Build 0)  -->
<svg version="1.1" id="Layer_1" xmlns="http://www.w3.org/2000/svg" xmlns:xlink="http://www.w3.org/1999/xlink" x="0px" y="0px"
	 viewBox="0 0 96 96" style="enable-background:new 0 0 96 96;" xml:space="preserve">
<style type="text/css">
	.st0{fill:#6D6E71;}
	.st1{fill:#424143;}
	.st2{fill:#59595C;}
	.st3{fill:#FFFFFF;}
	.st4{fill:#BCBDBF;}
	.st5{fill:#43B491;}
	.st6{fill:#808184;}
	.st7{fill:#D3D5D5;}
	.st8{fill:#A4A5A6;}
	.st9{fill:#ED926E;}
	.st10{fill:#EFAC80;}
	.st11{fill:none;}
	.st12{fill:#FCD8CD;}
	.st13{fill:#F0A983;}
	.st14{fill:#F09983;}
	.st15{fill:#FAC1B2;}
	.st16{fill:#EB846D;}
	.st17{fill:#BBBDBF;}
	.st18{fill:#1998CF;}
</style>
<g>
	<polygon class="st0" points="28.3,49.9 84.3,81 68.6,90.1 12.3,59 	"/>
	<polygon class="st1" points="82.3,81.1 82.3,86.7 67.5,95.4 67.5,81.1 	"/>
	<polygon class="st2" points="14.3,60 14.3,65.6 67.5,95.4 67.5,83.4 	"/>
	<g>
		<polygon class="st3" points="26.2,22 68.7,45.5 68.7,90 26.1,66.3 		"/>
		<path class="st4" d="M26.1,55.9l10.4,5.8v10.4l0.6,0.3V62l10,5.6V78l0.6,0.3V67.9l10,5.6V84l0.6,0.4V73.8l11.4,6.3l0.3-0.5
			l-11.7-6.5V53.3l11.5,6.4l0.3-0.5l-11.8-6.5V39.4h-0.6v12.9l-10-5.6V33.9l-0.6-0.7v13.2l-10-5.6v-13l-0.6-0.4v13.1l-10.4-5.8v0.7
			l10.4,5.7V61l-10.4-5.8L26.1,55.9L26.1,55.9z M57.8,62.5l-10-5.7v-4.4l10,5.7V62.5z M37.1,46.4l10,5.7v4.4l-10-5.7V46.4z
			 M57.8,67.6l-10-5.7v-4.5l10,5.7V67.6z M47.1,61.6l-10-5.7v-4.5l10,5.7V61.6z M47.1,47.1v4.3l-10-5.7v-4.2L47.1,47.1z M57.8,53
			v4.4l-10-5.7v-4.3L57.8,53z M47.7,67.2v-4.6l10,5.7v4.5L47.7,67.2z M37.1,61.3v-4.7l10,5.7v4.6L37.1,61.3z"/>
		<polygon class="st5" points="66.6,61 66.6,70 60.4,66.5 60.4,57.5 		"/>
		<g>
			<polygon class="st2" points="37.1,40.8 37.1,27.9 47.7,33.6 47.7,36.5 38.5,41.6 			"/>
			<polygon class="st6" points="38.5,41.6 47.7,36.5 47.7,46.9 			"/>
		</g>
		<g>
			<polygon class="st7" points="38.6,28.4 36.7,27.5 26.7,32.9 26.7,47.2 28.5,48.1 			"/>
			<polygon class="st8" points="38.6,28.4 28.5,33.9 28.5,48.1 38.6,42.1 			"/>
		</g>
		<g>
			<g>
				<path class="st9" d="M54.9,32.3c0,0,0,0-6.3-3.3c-0.5-0.3-1-0.3-1.5,0c0,0,0,0-6.3,3.3c-0.5,0.3-0.8,0.8-0.8,1.3c0,0,0,0,0,6.5
					c0,0.6,0.3,1.1,0.8,1.3c0,0,0,0,6.3,3.3c0.5,0.3,1,0.3,1.5,0c0,0,0,0,6.3-3.3c0.5-0.3,0.8-0.8,0.8-1.3c0,0,0,0,0-6.5
					C55.8,33.1,55.5,32.6,54.9,32.3z"/>
				<path class="st10" d="M43.1,34.4c0.1-0.1-0.1-0.4,0.1-0.5c0.6-0.3,5-2.7,7.2-3.9c0.5,0.3,0.5,0.3,0.5,0.3
					c-2.3-1.2-2.3-1.2-2.3-1.2c-0.2-0.1-0.5-0.2-0.7-0.2c-0.3,0-0.5,0.1-0.7,0.2c-0.4,0.2-0.8,0.4-1.2,0.7c-0.6,0.3-1,0.4-1.6,0.7
					c-0.2,0.1-1.3,0.7-1.5,0.8c-0.5,0.2-1.3,0.7-1.7,0.9c-0.2,0.1-0.4,0.2-0.4,0.4c-0.1,0.4,0.1,0.5,0.4,0.7
					C41.7,33.6,43.1,34.4,43.1,34.4z M47.9,36.6c0.3,0,0.7-0.1,0.9-0.2l0,0l0,0c1.1-0.6,2.9-1.5,4.5-2.3c0.6-0.3,1.2-0.6,1.6-0.8
					c0.2-0.1,0.2-0.2,0.2-0.4l0,0c0-0.1-0.1-0.2-0.2-0.3l-0.1-0.1c-1.7-0.9-1.7-0.9-1.7-0.9c-1-0.5-1-0.5-1-0.5c-7.1,4-7.6,3-7.6,3
					s0.2,1,0.2,1.2l2.1,1.1C47.3,36.6,47.5,36.6,47.9,36.6L47.9,36.6L47.9,36.6z"/>
			</g>
			<g>
				<path class="st11" d="M47.8,28.9c0.3,0,0.5,0.1,0.8,0.2l6.3,3.3c0.5,0.3,0.8,0.8,0.8,1.3l-0.1,6.5c0,0.6-0.3,1.1-0.8,1.3
					l-6.3,3.3c-0.1,0.1-0.3,0.1-0.4,0.2h-0.9c-0.1,0-0.2-0.1-0.3-0.1l-6.3-3.3c-0.4-0.2-0.7-0.6-0.8-1.1v-7.1
					c0.1-0.5,0.4-0.8,0.8-1.1l6.3-3.3C47.3,28.9,47.6,28.9,47.8,28.9z"/>
				<g>
					<g>
						<path class="st12" d="M48.6,45c0,0,0,0,6.3-3.3c0.5-0.3,0.8-0.8,0.8-1.3c0,0.6-0.3,1.1-0.8,1.3C54.9,41.7,54.9,41.7,48.6,45
							c-0.1,0-0.1,0.1-0.2,0.1C48.5,45,48.5,45,48.6,45z"/>
					</g>
				</g>
			</g>
			<g>
				<g>
					<path class="st13" d="M48.9,36.4c1.1-0.6,2.9-1.5,4.5-2.3C51.8,34.8,50,35.8,48.9,36.4z M48.9,36.4L48.9,36.4L48.9,36.4z"/>
					<path class="st14" d="M43,34.3l-2.3-1.2l0,0L43,34.3z M46.8,36.3l-1.9-1L46.8,36.3L46.8,36.3L46.8,36.3z"/>
				</g>
			</g>
			<g>
				<path class="st3" d="M50.4,30c-2.2,1.2-6.6,3.5-7.2,3.9c-0.2,0.1-0.5,0.2-0.5,0.5c0,0.1,0.1,0.2,0.1,0.3
					c0.1,0.1,0.1,0.3,0.2,0.4c0.1,0.1,0.2,0.2,0.3,0.3c0.3,0.2,0.7,0.2,1.1,0.2c0.1,0,0.2,0,0.2,0c0.1,0,0,0.1,0.1,0s0-0.3,0.7-0.7
					c0.1-0.1,1.8-1,2.1-1.2c0.5-0.3,0.9-0.5,1.4-0.8c0.6-0.3,1.2-0.7,1.8-1c0.5-0.3,1-0.6,1.5-0.9L50.4,30z"/>
			</g>
			<g>
				<path class="st11" d="M50.4,30l1.9,1l-7.1,4c-0.3,0.2-0.3,0.6-0.7,0.8c-0.2,0.1-0.5,0-0.7-0.1s-0.4-0.3-0.6-0.4
					c-0.1-0.1-0.2-0.1-0.4-0.2c-0.2-0.1-0.1-0.3-0.1-0.5s0.1-0.4,0.4-0.6C43.8,33.5,48.2,31.2,50.4,30z"/>
				<g>
					<g>
						<path class="st3" d="M43.1,36.2C43,36.2,43,36.2,43.1,36.2L43.1,36.2z"/>
					</g>
				</g>
			</g>
			<g>
				<path class="st15" d="M42.7,34.2c-0.1,0.1-0.1,0.3-0.1,0.4c0,0.3,0,0.8,0,1.1s0.1,0.4,0.3,0.5c0.3,0.2,1.2,0.6,1.5,0.7
					c0.2,0,0.3-0.1,0.4-0.3c0-0.1,0-0.3,0-0.4c0-0.3,0-0.6,0-0.9C44.8,35.4,43,34.4,42.7,34.2z"/>
				<path class="st16" d="M48.4,45.1c0.1,0,0.1-0.1,0.2-0.1c6.3-3.3,6.3-3.3,6.3-3.3c0.5-0.3,0.8-0.8,0.8-1.3c0-6.5,0-6.5,0-6.5
					c0-0.3-0.1-0.5-0.2-0.7h-0.1l0,0c-0.1,0-0.2,0-0.2,0.1c-0.5,0.3-1.1,0.6-1.8,0.9c-1.6,0.8-3.4,1.7-4.5,2.3l0,0l0,0
					c-0.1,0-0.1,0.1-0.2,0.1c-0.5,0.2-0.9,0.7-0.9,1.2c0,0.1,0,0.1,0,0.2l0,0c0,0.1,0,0.2,0,0.4c0,1.6,0,4.3,0,6.1
					C47.9,44.7,48.1,44.9,48.4,45.1z"/>
			</g>
		</g>
		<polygon class="st3" points="47.7,46.4 56.7,47.3 56.7,33.7 47.7,32.8 		"/>
	</g>
	<polygon class="st0" points="28.3,5.9 84.3,36.9 68.6,46 12.3,14.9 	"/>
	<polygon class="st0" points="28.3,0 84.3,31.1 68.6,40.2 12.3,9 	"/>
	<polygon class="st1" points="84.3,31.1 84.3,36.9 68.6,46 68.6,40.2 	"/>
	<polygon class="st17" points="84.3,36.9 68.6,46 68.7,90 84.3,81.3 	"/>
	<polygon class="st18" points="12.3,58.9 26.1,66.2 26.1,21.7 12.3,14.4 12.3,14.4 	"/>
	<polygon class="st2" points="12.3,9 12.3,14.9 68.6,46 68.6,40.2 	"/>
</g>
</svg>
