<?xml version="1.0" encoding="utf-8"?>
<!-- Generator: Adobe Illustrator 25.2.2, SVG Export Plug-In . SVG Version: 6.00 Build 0)  -->
<svg version="1.1" id="Layer_1" xmlns="http://www.w3.org/2000/svg" xmlns:xlink="http://www.w3.org/1999/xlink" x="0px" y="0px"
	 viewBox="0 0 314.9 314.9" style="enable-background:new 0 0 314.9 314.9;" xml:space="preserve">
<style type="text/css">
	.st0{fill:#FDCC58;}
	.st1{fill:#A5A8A9;}
	.st2{fill:#FFFFFF;}
	.st3{fill:#C5C7C8;}
	.st4{fill:#D0D2D1;}
	.st5{fill:#ADDFCF;}
	.st6{fill:#44B591;}
	.st7{fill:#3C3C3B;}
	.st8{fill:#CFECE3;}
	.st9{fill:none;stroke:#000000;stroke-width:0.8465;stroke-miterlimit:10;}
	.st10{fill:none;stroke:#000000;stroke-width:0.8465;stroke-miterlimit:10.0002;}
	.st11{fill:#231F20;}
	.st12{fill:#1C3355;}
	.st13{fill:#008269;}
	.st14{fill:none;}
	.st15{fill:none;stroke:#45B692;stroke-width:0.9235;stroke-miterlimit:10;}
</style>
<circle class="st0" cx="157.3" cy="157.4" r="157"/>
<g>
	<g>
		<g>
			<g>
				<path class="st0" d="M222.6,14.6c1.4,0.6,2.7,1.3,4.1,1.9C225.3,15.9,223.9,15.2,222.6,14.6z"/>
				<path class="st0" d="M213.9,11c2.9,1.1,5.8,2.3,8.6,3.6C219.7,13.3,216.8,12.1,213.9,11z"/>
				<path class="st0" d="M204.4,7.6c1.4,0.5,2.9,0.9,4.3,1.4C207.3,8.6,205.9,8.1,204.4,7.6z"/>
				<path class="st0" d="M209.5,9.3c1.2,0.4,2.5,0.9,3.7,1.3C212,10.2,210.7,9.8,209.5,9.3z"/>
				<path class="st0" d="M48,44.8c3.4-3.3,7-6.5,10.7-9.5C54.9,38.4,51.4,41.5,48,44.8z"/>
				<path class="st0" d="M35.1,59c4-4.9,8.3-9.6,12.8-14C43.3,49.3,39.1,54,35.1,59z"/>
				<path class="st0" d="M227.2,16.8c1.3,0.6,2.6,1.3,3.8,2C229.7,18.1,228.4,17.4,227.2,16.8z"/>
				<path class="st0" d="M16.9,87.3c2.2-4.3,4.5-8.5,7-12.5C21.4,78.8,19,83,16.9,87.3z"/>
				<path class="st0" d="M24,74.6c3.4-5.4,7-10.6,11-15.5C31,64,27.3,69.2,24,74.6z"/>
				<path class="st0" d="M220.9,301c-1,0.5-2.1,0.9-3.1,1.3C218.8,301.9,219.9,301.4,220.9,301z"/>
				<path class="st1" d="M217.8,302.3c-0.3,0.1-0.5,0.2-0.8,0.3C217.3,302.5,217.5,302.4,217.8,302.3z"/>
				<path class="st1" d="M221.4,300.8c-0.2,0.1-0.3,0.1-0.5,0.2C221.1,300.9,221.2,300.8,221.4,300.8z"/>
				<path class="st1" d="M23.9,74.7c0,0,0-0.1,0.1-0.1C23.9,74.7,23.9,74.7,23.9,74.7z"/>
				<path class="st1" d="M35,59.1L35,59.1C35,59,35,59,35,59.1z"/>
				<path class="st1" d="M16.8,87.4C16.8,87.3,16.9,87.3,16.8,87.4C16.9,87.3,16.8,87.3,16.8,87.4z"/>
				<path class="st1" d="M231,18.8c0.1,0,0.2,0.1,0.3,0.1C231.2,18.9,231.1,18.8,231,18.8z"/>
				<path class="st1" d="M226.6,16.6c0.2,0.1,0.3,0.2,0.5,0.3C227,16.7,226.8,16.6,226.6,16.6z"/>
				<path class="st1" d="M47.9,44.9L47.9,44.9L47.9,44.9z"/>
				<path class="st1" d="M222.5,14.6L222.5,14.6L222.5,14.6z"/>
				<path class="st1" d="M213.2,10.7c0.2,0.1,0.5,0.2,0.7,0.3C213.6,10.9,213.4,10.8,213.2,10.7z"/>
				<path class="st1" d="M204.4,7.6L204.4,7.6L204.4,7.6z"/>
				<path class="st1" d="M58.6,35.4L58.6,35.4C58.7,35.3,58.7,35.3,58.6,35.4z"/>
				<path class="st1" d="M208.7,9.1c0.3,0.1,0.5,0.2,0.8,0.3C209.3,9.3,209,9.2,208.7,9.1z"/>
				<path class="st1" d="M231.6,27.2c0,0,0,0,2.7,2.2c0,0,0,0,5.2-5.7c1.5-1.8,3.5-4,6.1-6.8c0,0,0,0-10.1-7.1
					c-3-2.5-8.6-6-12.8-5.3c0,0,0,0-18.2,3.2c0.4,0.1,0.9,0.3,1.3,0.4c-0.4-0.1-0.9-0.2-1.3-0.3c-15.3,4.8-70.6,7.7-144.2,27.3
					l-38.5,6.7C13.5,43.2,8,51,9.4,59.3c0,0,0,0,5.5,31.9c-0.1,0.1-0.1,0.2-0.2,0.4c5,28.5,14,80.6,30.6,175.7
					c5.3,5.4,11.1,10.5,17.1,15.1c1,0.8,2,1.5,3,2.2s2,1.4,3.1,2.2c2,1.5,4.2,2.9,6.4,4.3c0.1,0,0.1,0.1,0.2,0.1
					c1.1,0.6,2.2,1.3,3.3,1.9c1.1,0.6,2.2,1.4,3.4,1.8c43.5,24,98.2,25.6,143.1,4.2c9.6-4.6,18.7-10.2,27.1-16.6
					c1-0.8,2.1-1.6,3.1-2.4c0,0,0.1,0,0.1-0.1c5.2-4.1,10-8.5,14.6-13.2c0.9-0.9,1.8-1.9,2.7-2.8C263.2,209.7,250,133.7,231.6,27.2z
					"/>
			</g>
			<path class="st2" d="M252.5,32.8C252.5,32.8,252.6,32.8,252.5,32.8c-0.4-2-0.7-4.1-1.1-6.2c-0.7-3.8-2.9-7.4-5.9-9.5
				c0,0,0,0,0-0.3c0,0,0,0-0.4-0.3c-3-2.1-7.1-3.1-11.2-2.3c0,0-0.5-0.1-9.3,1.4c0,0,0,0,0,0C208.6,18.4,165.1,26,46,46.7
				c0,0,0.1-0.1,0.1-0.1c-4.4,0.8-8.9,1.6-13.5,2.4c-8.3,1.4-13.8,9.3-12.4,17.6c0,0,0,0,1.9,11c0,0.1-0.1,0.1-0.1,0.1
				c3.2,18.5,11.8,67.9,34.7,200.4c27.2,22.7,62.3,36.4,100.5,36.4c55.4-0.1,104-28.7,131.9-71.8C280,190.2,268.1,121.9,252.5,32.8z
				"/>
			<path class="st3" d="M145.9,44.7L145.9,44.7c-33.2,5.8-33.2,5.8-33.2,5.8c-1.6,0.3-2.7,1.8-2.3,3.4c0.3,1.6,1.7,2.6,3.4,2.3
				c33.2-5.7,33.2-5.7,33.2-5.7c1.6-0.3,2.6-1.8,2.4-3.4C149,45.5,147.5,44.5,145.9,44.7z"/>
			<path class="st3" d="M158.9,39.8L158.9,39.8c-2.9,0.6-4.7,3.5-4.1,6.4c0.5,2.9,3.1,4.7,6,4.2c3.2-0.5,5.1-3.2,4.6-6
				C164.7,41.5,162.1,39.3,158.9,39.8z"/>
			<path class="st4" d="M20,48.6c-2.9-1.8-7-2.4-6.8-1.1c-0.1,1,4.7,4.1,7.7,4.3C23.7,52.2,22.7,50.4,20,48.6z"/>
		</g>
	</g>
</g>
<g>
	<g>
		<g>
			<g>
				<g>
					<g>
						
							<rect x="38.3" y="61.8" transform="matrix(0.9851 -0.172 0.172 0.9851 -11.5827 25.0215)" class="st2" width="200.6" height="35.1"/>
					</g>
				</g>
			</g>
		</g>
	</g>
</g>
<g>
	<g>
		<g>
			<g>
				<g>
					<g>
						<g>
							<path class="st5" d="M68.5,233.7c23.9,14.7,58.7,80.7,88.8,80.7c45.8,0,85.7-18.1,114.4-49.4l-36-211.6L42.1,77.9"/>
						</g>
						<polygon points="68.4,130.9 73.4,130 73.7,131.5 70.2,132.1 70.6,133.9 73.3,133.4 73.6,134.8 70.8,135.3 71.3,138.2 
							69.7,138.4 						"/>
						<path d="M74.8,131.8c1.5-0.3,1.5-0.3,1.5-0.3c1,5.6,1,5.6,1,5.6c-1.5,0.3-1.5,0.3-1.5,0.3L74.8,131.8z M74.2,129.7
							c-0.1-0.6,0.2-1.1,0.8-1.1c0.5-0.1,1,0.2,1.1,0.8c0.1,0.5-0.3,1-0.8,1.1C74.8,130.6,74.3,130.2,74.2,129.7z"/>
						<path d="M83.5,132.4C84,136,84,136,84,136c-1.5,0.3-1.5,0.3-1.5,0.3c-0.6-3.3-0.6-3.3-0.6-3.3c-0.1-0.7-0.6-1-1.2-0.9
							s-1,0.6-0.9,1.3c0.6,3.3,0.6,3.3,0.6,3.3c-1.5,0.3-1.5,0.3-1.5,0.3c-1-5.7-1-5.7-1-5.7c1.4-0.3,1.4-0.3,1.4-0.3
							c0.1,0.5,0.1,0.5,0.1,0.5c0.3-0.5,0.8-0.8,1.5-0.9C82.3,130.3,83.2,131.1,83.5,132.4z"/>
						<path d="M89.2,132.2c-0.2-1.1-1-1.5-1.7-1.3c-0.8,0.1-1.4,0.9-1.2,1.8c0.1,1,0.9,1.5,1.7,1.3
							C88.8,133.8,89.4,133.2,89.2,132.2z M89.7,126.2c1.5,8.6,1.5,8.6,1.5,8.6c-1.4,0.3-1.4,0.3-1.4,0.3c-0.1-0.7-0.1-0.7-0.1-0.7
							c-0.3,0.6-0.9,1-1.7,1.1c-1.6,0.3-3-0.8-3.2-2.5c-0.3-1.7,0.6-3.1,2.2-3.4c0.7-0.1,1.3,0,1.8,0.4c-0.6-3.5-0.6-3.5-0.6-3.5
							L89.7,126.2z"/>
						<path d="M98.8,131.2C98.8,131.1,98.8,131.1,98.8,131.2c-1.3,0.1-1.3,0.1-1.3,0.1c-0.5,0.1-0.7,0.3-0.7,0.7
							c0.1,0.4,0.5,0.5,0.9,0.5C98.4,132.4,98.9,131.9,98.8,131.2z M100.1,129.7c0.6,3.4,0.6,3.4,0.6,3.4c-1.4,0.2-1.4,0.2-1.4,0.2
							c-0.1-0.5-0.1-0.5-0.1-0.5c-0.3,0.5-0.9,0.9-1.6,1c-1.2,0.2-2.1-0.4-2.3-1.3c-0.2-1,0.6-1.8,1.8-2c1.4-0.3,1.4-0.3,1.4-0.3
							c0-0.3,0-0.3,0-0.3c-0.1-0.6-0.5-0.9-1.2-0.8c-0.6,0.1-1,0.5-1.4,1c-1-0.8-1-0.8-1-0.8c0.5-0.9,1.3-1.4,2.2-1.6
							C98.7,127.4,99.8,128.1,100.1,129.7z"/>
						<path d="M109,128.7c-0.2-1-1-1.4-1.7-1.3c-0.8,0.1-1.4,0.9-1.2,1.8c0.1,1,0.9,1.5,1.8,1.3C108.6,130.4,109.2,129.8,109,128.7z
							 M109.5,122.7c1.5,8.6,1.5,8.6,1.5,8.6c-1.4,0.3-1.4,0.3-1.4,0.3c-0.1-0.7-0.1-0.7-0.1-0.7c-0.3,0.6-0.9,1-1.7,1.1
							c-1.6,0.3-3-0.8-3.2-2.5c-0.3-1.7,0.6-3.1,2.2-3.4c0.7-0.1,1.3,0,1.8,0.4C108,123,108,123,108,123L109.5,122.7z"/>
						<path d="M113.2,127.4c2.6-0.4,2.6-0.4,2.6-0.4c-0.1-0.7-0.8-1-1.5-0.9C113.7,126.1,113.3,126.6,113.2,127.4z M117.4,127.8
							c-4,0.7-4,0.7-4,0.7c0.3,0.7,1,1,1.8,0.8c0.6-0.1,1.1-0.4,1.5-0.8c0.8,0.9,0.8,0.9,0.8,0.9c-0.6,0.7-1.3,1.1-2.1,1.3
							c-1.8,0.3-3.3-0.8-3.6-2.4c-0.3-1.7,0.8-3.2,2.5-3.5c1.6-0.3,2.9,0.7,3.1,2.1C117.4,127.2,117.4,127.6,117.4,127.8z"/>
						<polygon points="119.1,129.9 120.6,129.6 119.1,121 117.6,121.3 						"/>
						<path d="M121.2,123.6c1.5-0.3,1.5-0.3,1.5-0.3c1,5.7,1,5.7,1,5.7c-1.5,0.3-1.5,0.3-1.5,0.3L121.2,123.6z M120.6,121.6
							c-0.1-0.5,0.3-1,0.8-1.1s1.1,0.2,1.2,0.8c0.1,0.5-0.3,1-0.9,1.1C121.2,122.5,120.7,122.2,120.6,121.6z"/>
						<polygon points="129.7,122.2 127.9,128.4 127.4,128.5 123.6,123.2 125.2,122.9 127.2,125.9 128.1,122.4 						"/>
						<path d="M132.3,124c2.6-0.4,2.6-0.4,2.6-0.4c-0.1-0.7-0.8-1-1.4-0.9C132.8,122.8,132.3,123.3,132.3,124z M136.4,124.5
							c-4,0.7-4,0.7-4,0.7c0.3,0.7,0.9,1,1.8,0.8c0.6-0.1,1.1-0.4,1.5-0.8c0.8,0.9,0.8,0.9,0.8,0.9c-0.5,0.7-1.3,1.1-2.1,1.3
							c-1.8,0.3-3.3-0.8-3.6-2.4c-0.3-1.7,0.8-3.2,2.5-3.5c1.6-0.3,2.9,0.7,3.1,2.1C136.5,123.9,136.5,124.2,136.4,124.5z"/>
						<path d="M140.6,120.3c0.3,1.3,0.3,1.3,0.3,1.3c-0.4,0.1-0.4,0.1-0.4,0.1c-0.9,0.1-1.4,0.7-1.2,1.7c0.5,2.8,0.5,2.8,0.5,2.8
							c-1.5,0.3-1.5,0.3-1.5,0.3c-1-5.7-1-5.7-1-5.7c1.4-0.3,1.4-0.3,1.4-0.3c0.1,0.7,0.1,0.7,0.1,0.7c0.3-0.5,0.8-0.9,1.4-1
							C140.3,120.2,140.5,120.2,140.6,120.3z"/>
						<path d="M147.1,119.1c-1.6,6.6-1.6,6.6-1.6,6.6c-0.3,1.3-0.9,1.9-2,2.1c-0.3,0-0.7,0.1-1,0c-0.2-1.3-0.2-1.3-0.2-1.3
							c0.3,0,0.5,0,0.7-0.1c0.5-0.1,0.9-0.3,1-1c0.1-0.4,0.1-0.4,0.1-0.4c-3.1-5-3.1-5-3.1-5c1.7-0.3,1.7-0.3,1.7-0.3
							c2,3.5,2,3.5,2,3.5c0.8-4,0.8-4,0.8-4L147.1,119.1z"/>
						<polygon points="152.2,124.1 153.7,123.8 152.2,115.2 150.7,115.5 						"/>
						<path d="M158.9,119.9c-0.1-0.8-0.9-1.4-1.7-1.2c-0.8,0.1-1.4,0.9-1.2,1.8c0.1,0.9,0.9,1.4,1.7,1.2
							C158.6,121.6,159.1,120.9,158.9,119.9z M154.5,120.7c-0.3-1.7,0.8-3.2,2.5-3.5s3.3,0.8,3.6,2.4c0.3,1.7-0.8,3.2-2.6,3.5
							C156.3,123.5,154.7,122.4,154.5,120.7z"/>
						<path d="M161.4,119.5c-0.3-1.7,0.8-3.2,2.5-3.5c1.2-0.2,2.1,0.2,2.7,0.9c-0.9,1-0.9,1-0.9,1c-0.4-0.4-0.9-0.7-1.5-0.6
							c-0.9,0.1-1.4,0.9-1.2,1.8c0.1,0.9,0.9,1.5,1.8,1.3c0.6-0.1,1-0.5,1.2-1.1c1.2,0.7,1.2,0.7,1.2,0.7c-0.3,0.9-1.1,1.6-2.2,1.8
							C163.3,122.3,161.7,121.2,161.4,119.5z"/>
						<path d="M171.3,118.6C171.3,118.5,171.3,118.5,171.3,118.6c-1.2,0.1-1.2,0.1-1.2,0.1c-0.5,0.1-0.8,0.3-0.7,0.7
							c0.1,0.4,0.5,0.6,0.9,0.5C171,119.7,171.4,119.2,171.3,118.6z M172.7,117c0.6,3.4,0.6,3.4,0.6,3.4c-1.4,0.3-1.4,0.3-1.4,0.3
							c-0.1-0.6-0.1-0.6-0.1-0.6c-0.4,0.5-0.9,0.9-1.6,1c-1.2,0.2-2.1-0.4-2.3-1.3c-0.2-1,0.5-1.8,1.9-2s1.4-0.2,1.4-0.2
							c0-0.3,0-0.3,0-0.3c-0.1-0.6-0.5-0.9-1.2-0.8c-0.6,0.1-1,0.5-1.4,1c-1-0.8-1-0.8-1-0.8c0.5-0.9,1.3-1.5,2.2-1.6
							C171.3,114.8,172.4,115.4,172.7,117z"/>
						<path d="M178.2,118.2c0.2,1.3,0.2,1.3,0.2,1.3c-0.3,0.2-0.7,0.3-1,0.3c-1.4,0.3-2.4-0.3-2.6-1.7c-0.4-2.4-0.4-2.4-0.4-2.4
							c-0.8,0.1-0.8,0.1-0.8,0.1c-0.3-1.3-0.3-1.3-0.3-1.3c0.9-0.1,0.9-0.1,0.9-0.1c-0.3-1.4-0.3-1.4-0.3-1.4
							c1.5-0.3,1.5-0.3,1.5-0.3c0.3,1.5,0.3,1.5,0.3,1.5c1.6-0.3,1.6-0.3,1.6-0.3c0.3,1.3,0.3,1.3,0.3,1.3c-1.7,0.3-1.7,0.3-1.7,0.3
							c0.4,2.2,0.4,2.2,0.4,2.2c0.1,0.7,0.5,0.8,1.2,0.7C177.6,118.3,177.9,118.3,178.2,118.2z"/>
						<path d="M178.5,113.7c1.6-0.3,1.6-0.3,1.6-0.3c1,5.7,1,5.7,1,5.7c-1.6,0.3-1.6,0.3-1.6,0.3L178.5,113.7z M177.9,111.6
							c-0.1-0.5,0.3-1,0.8-1.1s1.1,0.2,1.2,0.8c0.1,0.5-0.3,1-0.9,1.1C178.5,112.5,178,112.2,177.9,111.6z"/>
						<path d="M186.3,115.2c-0.1-0.9-0.9-1.4-1.7-1.3s-1.4,0.9-1.2,1.8s0.9,1.4,1.7,1.3C185.9,116.8,186.4,116.1,186.3,115.2z
							 M181.8,116c-0.3-1.6,0.8-3.1,2.5-3.4s3.3,0.8,3.6,2.4c0.3,1.7-0.8,3.2-2.5,3.5C183.6,118.7,182.1,117.6,181.8,116z"/>
						<path d="M194.1,113.1c0.6,3.5,0.6,3.5,0.6,3.5c-1.5,0.3-1.5,0.3-1.5,0.3c-0.6-3.3-0.6-3.3-0.6-3.3c-0.1-0.6-0.6-1-1.2-0.9
							c-0.6,0.1-1,0.6-0.9,1.3c0.5,3.3,0.5,3.3,0.5,3.3c-1.5,0.3-1.5,0.3-1.5,0.3c-1-5.6-1-5.6-1-5.6c1.4-0.3,1.4-0.3,1.4-0.3
							c0.1,0.5,0.1,0.5,0.1,0.5c0.3-0.5,0.9-0.8,1.5-0.9C192.9,111,193.9,111.8,194.1,113.1z"/>
						<g>
							<path class="st6" d="M271.7,265l-12.8-73.4l-192,33.5l11.9,68.3c23.1,13.4,49.9,21,78.5,21C202.4,314.4,243,295.4,271.7,265z
								"/>
						</g>
						
							<rect x="84" y="226.4" transform="matrix(0.9852 -0.1717 0.1717 0.9852 -38.9526 25.0437)" class="st7" width="82.6" height="22.6"/>
						
							<rect x="165.4" y="212.1" transform="matrix(0.9851 -0.172 0.172 0.9851 -35.339 38.9418)" class="st2" width="83.3" height="22.6"/>
						<g>
							<path class="st2" d="M93.5,271.2l5.6,32c18,7.2,37.6,11.1,58.2,11.1c35.9,0,71.2-11.2,95.3-32.3l-6.6-37.5L93.5,271.2z"/>
						</g>
						<path class="st8" d="M199.1,152.8C80,173.6,80,173.6,80,173.6c-3.6,0.6-7.1-1.8-7.7-5.4c-1.8-10-1.8-10-1.8-10
							c-0.6-3.6,1.8-7.1,5.4-7.7c119.2-20.8,119.2-20.8,119.2-20.8c3.6-0.6,7.1,1.8,7.7,5.4c1.8,10,1.8,10,1.8,10
							C205.2,148.7,202.7,152.1,199.1,152.8z"/>
						<path d="M81.5,163.9c1.7-0.3,2.8-1.9,2.5-3.5c-0.2-1.7-1.8-2.9-3.5-2.6c-1.6,0.3-2.8,1.9-2.5,3.5
							C78.3,163,79.8,164.1,81.5,163.9z M87.8,166.3c-0.1,0-0.1,0-0.2,0c-0.3,0-0.6-0.2-0.9-0.4c-1-0.6-1.9-1.3-2.9-2
							c-0.1,0-0.2-0.1-0.2-0.1c-0.1,0-0.2,0.1-0.2,0.1c-2.1,1.7-5.1,0.9-6.1-1.6c-0.1-0.2-0.1-0.4-0.2-0.7c0-0.1,0-0.2-0.1-0.3
							c0-0.1,0-0.2,0-0.2c-0.1-2.3,1.6-4.2,3.9-4.3c2.2,0,4.1,1.8,4,4c0,0.5-0.2,1-0.2,1.5c0.1,0,0.2,0,0.2,0.1c1,0.7,2,1.4,3,2.1
							C88.7,165,88.6,166,87.8,166.3L87.8,166.3z"/>
						<polygon points="99.7,155.1 98.4,161.4 98.2,161.4 95.7,157.6 94.7,162.1 94.4,162.1 91.1,156.6 92.1,156.5 94.3,160.1 
							95.2,155.8 95.6,155.8 97.9,159.5 98.7,155.3 						"/>
						<polygon points="105.1,160.2 103.3,158.2 102.3,160.6 101.2,160.8 102.6,157.6 100.3,155 101.4,154.9 103,156.7 103.9,154.4 
							105,154.2 103.7,157.4 106.1,160 						"/>
						<polygon points="109,158.6 110.2,158.4 110.4,159.2 107,159.8 106.8,159 108.1,158.8 107.6,155.8 106.4,156 106.2,155.1 
							108.3,154.8 						"/>
						<path d="M115.8,152.5c0.4,0.1,0.7,0.4,0.9,0.6c-0.5,0.6-0.5,0.6-0.5,0.6c-0.4-0.4-0.8-0.6-1.3-0.5c-0.2,0-0.4,0.1-0.6,0.3
							s-0.2,0.3-0.2,0.6c0,0.2,0.1,0.3,0.2,0.4c0.2,0.1,0.4,0.2,0.7,0.3c0.7,0.2,0.7,0.2,0.7,0.2c0.5,0.1,0.9,0.3,1.2,0.5
							c0.3,0.2,0.5,0.5,0.5,0.9c0.1,0.5,0,0.9-0.4,1.3c-0.3,0.4-0.7,0.6-1.3,0.7c-0.5,0.1-0.9,0-1.3-0.1c-0.4-0.2-0.8-0.4-1.1-0.8
							c0.6-0.6,0.6-0.6,0.6-0.6c0.5,0.5,1.1,0.7,1.6,0.6c0.3,0,0.5-0.1,0.7-0.3s0.2-0.4,0.2-0.6c0-0.2-0.2-0.4-0.3-0.5
							c-0.2-0.1-0.4-0.2-0.7-0.3c-0.7-0.2-0.7-0.2-0.7-0.2c-0.5-0.1-0.8-0.3-1.1-0.5c-0.3-0.2-0.5-0.5-0.5-0.9
							c-0.1-0.5,0-0.8,0.4-1.2c0.3-0.3,0.7-0.5,1.2-0.6C115,152.4,115.4,152.4,115.8,152.5z"/>
						<path d="M118.8,152.7c0.7,4.1,0.7,4.1,0.7,4.1c0.8-0.1,0.8-0.1,0.8-0.1c0.7-0.1,1.2-0.4,1.5-0.9c0.4-0.5,0.4-1,0.3-1.6
							s-0.4-1.1-0.8-1.4c-0.5-0.3-1-0.4-1.7-0.3L118.8,152.7z M122,152.1c0.7,0.4,1.1,1,1.2,1.9s0,1.6-0.5,2.3
							c-0.5,0.6-1.2,1-2.1,1.2c-1.8,0.3-1.8,0.3-1.8,0.3c-1-5.8-1-5.8-1-5.8c1.8-0.3,1.8-0.3,1.8-0.3
							C120.5,151.5,121.3,151.7,122,152.1z"/>
						<polygon points="128.2,151 126.2,151.3 127.1,156.3 126.2,156.5 125.3,151.5 123.4,151.9 123.2,151 128.1,150.2 						"/>
						<path d="M93.7,185.9c0.3,1.7,0.3,1.7,0.3,1.7c1-0.2,1-0.2,1-0.2c0.3,0,0.5-0.1,0.6-0.3c0.2-0.2,0.2-0.4,0.1-0.6
							c0-0.3-0.1-0.5-0.3-0.6c-0.2-0.1-0.4-0.2-0.7-0.1L93.7,185.9z M95.9,185.2c0.4,0.2,0.6,0.5,0.7,1s0,0.9-0.3,1.2
							s-0.7,0.6-1.2,0.6c-1,0.2-1,0.2-1,0.2c0.3,1.9,0.3,1.9,0.3,1.9c-0.8,0.1-0.8,0.1-0.8,0.1c-0.9-5-0.9-5-0.9-5
							c1.8-0.3,1.8-0.3,1.8-0.3C95.1,184.9,95.6,185,95.9,185.2z"/>
						<path d="M99.8,188.5c0.2-0.2,0.2-0.4,0.2-0.7c0-0.1,0-0.1,0-0.1c-1,0.1-1,0.1-1,0.1c-0.4,0.1-0.6,0.3-0.6,0.6
							c0,0.2,0.1,0.3,0.3,0.3c0.1,0.1,0.3,0.1,0.5,0.1C99.4,188.8,99.6,188.7,99.8,188.5z M100,185.7c0.3,0.2,0.5,0.6,0.6,1.1
							c0.4,2.3,0.4,2.3,0.4,2.3c-0.7,0.1-0.7,0.1-0.7,0.1c-0.1-0.4-0.1-0.4-0.1-0.4c-0.2,0.4-0.6,0.6-1.1,0.7c-0.4,0.1-0.7,0-1-0.1
							c-0.3-0.2-0.5-0.4-0.5-0.7s0-0.6,0.2-0.8s0.5-0.4,1-0.5c1-0.2,1-0.2,1-0.2c0-0.2,0-0.2,0-0.2c0-0.3-0.1-0.5-0.3-0.6
							c-0.2-0.1-0.4-0.2-0.7-0.1c-0.3,0-0.7,0.3-0.9,0.7c-0.5-0.4-0.5-0.4-0.5-0.4c0.3-0.6,0.8-1,1.4-1.1
							C99.3,185.5,99.7,185.5,100,185.7z"/>
						<path d="M103.6,184.8c0.1,0.7,0.1,0.7,0.1,0.7c-0.2,0-0.2,0-0.2,0c-0.3,0-0.6,0.2-0.8,0.4c-0.2,0.2-0.2,0.5-0.2,0.8
							c0.4,2,0.4,2,0.4,2c-0.8,0.1-0.8,0.1-0.8,0.1c-0.7-3.7-0.7-3.7-0.7-3.7c0.7-0.1,0.7-0.1,0.7-0.1c0.1,0.5,0.1,0.5,0.1,0.5
							c0.2-0.4,0.5-0.6,1-0.7C103.4,184.8,103.5,184.8,103.6,184.8z"/>
						<path d="M107,184.3c0.3,0.1,0.6,0.3,0.8,0.5c-0.5,0.6-0.5,0.6-0.5,0.6c-0.4-0.3-0.7-0.5-1.1-0.4c-0.3,0-0.6,0.2-0.8,0.5
							c-0.2,0.3-0.2,0.6-0.2,0.9c0.1,0.3,0.2,0.7,0.5,0.8c0.3,0.2,0.6,0.3,0.9,0.2c0.4,0,0.7-0.3,0.9-0.7c0.6,0.4,0.6,0.4,0.6,0.4
							c-0.2,0.6-0.7,1-1.4,1.1c-0.6,0.1-1,0-1.5-0.3s-0.7-0.8-0.8-1.3c-0.1-0.5,0-1,0.3-1.5c0.4-0.5,0.7-0.7,1.3-0.8
							C106.4,184.2,106.7,184.2,107,184.3z"/>
						<path d="M109.6,184.6c-0.2,0.2-0.3,0.5-0.3,0.7c2.1-0.4,2.1-0.4,2.1-0.4c-0.1-0.3-0.2-0.5-0.4-0.6c-0.2-0.1-0.5-0.2-0.7-0.1
							C110,184.3,109.8,184.4,109.6,184.6z M112.2,185.5c-2.8,0.5-2.8,0.5-2.8,0.5c0.1,0.3,0.3,0.5,0.5,0.7c0.3,0.1,0.5,0.2,0.9,0.1
							c0.4-0.1,0.7-0.3,1-0.6c0.5,0.5,0.5,0.5,0.5,0.5c-0.4,0.5-0.8,0.8-1.4,0.9c-0.5,0.1-1.1,0-1.5-0.3c-0.5-0.3-0.7-0.7-0.8-1.3
							c-0.1-0.5,0-1,0.3-1.5s0.7-0.7,1.2-0.8s1,0,1.3,0.2c0.4,0.3,0.6,0.7,0.7,1.2C112.2,185.1,112.3,185.3,112.2,185.5z"/>
						<polygon points="113.5,186.9 114.3,186.8 113.3,181.1 112.5,181.2 						"/>
						<path d="M117.1,181.3c0.3,0.1,0.5,0.3,0.8,0.5c-0.5,0.5-0.5,0.5-0.5,0.5c-0.3-0.3-0.7-0.5-1.2-0.4c-0.2,0-0.4,0.2-0.5,0.3
							c-0.2,0.1-0.2,0.3-0.2,0.5s0.1,0.3,0.3,0.3c0.1,0.1,0.3,0.2,0.6,0.2c0.6,0.2,0.6,0.2,0.6,0.2c0.5,0.1,0.8,0.3,1,0.5
							s0.4,0.4,0.5,0.7c0.1,0.5,0,0.8-0.3,1.2c-0.3,0.3-0.7,0.5-1.1,0.6s-0.8,0-1.2-0.1c-0.4-0.2-0.7-0.4-0.9-0.7
							c0.5-0.5,0.5-0.5,0.5-0.5c0.5,0.5,1,0.7,1.5,0.6c0.3-0.1,0.5-0.1,0.6-0.3s0.2-0.3,0.1-0.5c0-0.2-0.1-0.3-0.3-0.4
							c-0.1-0.1-0.3-0.2-0.6-0.2c-0.6-0.2-0.6-0.2-0.6-0.2c-0.4-0.1-0.7-0.2-1-0.4c-0.2-0.2-0.3-0.4-0.4-0.8c-0.1-0.4,0-0.7,0.3-1
							s0.6-0.5,1-0.6C116.5,181.1,116.8,181.1,117.1,181.3z"/>
						<path d="M122,181.9c0.3,0.2,0.5,0.5,0.6,1c0.4,2.4,0.4,2.4,0.4,2.4c-0.8,0.1-0.8,0.1-0.8,0.1c-0.4-2.3-0.4-2.3-0.4-2.3
							c0-0.2-0.1-0.4-0.3-0.5c-0.2-0.2-0.4-0.2-0.7-0.2c-0.2,0-0.4,0.1-0.5,0.4c-0.1,0.2-0.2,0.4-0.1,0.6c0.4,2.3,0.4,2.3,0.4,2.3
							c-0.8,0.1-0.8,0.1-0.8,0.1c-1-5.7-1-5.7-1-5.7c0.8-0.1,0.8-0.1,0.8-0.1c0.4,2.4,0.4,2.4,0.4,2.4c0.2-0.3,0.6-0.6,1-0.6
							C121.3,181.6,121.7,181.7,122,181.9z"/>
						<path d="M124.5,182.2c-0.2,0.3-0.2,0.6-0.2,0.9c0,0.3,0.2,0.6,0.5,0.8s0.6,0.3,0.9,0.2c0.3,0,0.6-0.2,0.7-0.5
							c0.2-0.3,0.3-0.6,0.2-0.9c0-0.3-0.2-0.6-0.5-0.8s-0.6-0.2-0.9-0.2C125,181.7,124.7,181.9,124.5,182.2z M126.7,181.3
							c0.5,0.3,0.7,0.7,0.8,1.3c0.1,0.5,0,1-0.3,1.5s-0.7,0.7-1.3,0.8c-0.5,0.1-1,0-1.5-0.4c-0.5-0.3-0.7-0.7-0.8-1.3
							c-0.1-0.6,0-1,0.4-1.5c0.3-0.5,0.7-0.7,1.3-0.8C125.7,180.8,126.2,180.9,126.7,181.3z"/>
						<path d="M131.3,182.8c0.2-0.2,0.3-0.6,0.2-0.9c-0.1-0.3-0.2-0.6-0.5-0.8s-0.6-0.3-0.9-0.2c-0.3,0-0.6,0.2-0.7,0.5
							c-0.2,0.2-0.3,0.5-0.2,1c0.1,0.4,0.3,0.7,0.5,0.9s0.5,0.2,0.8,0.2C130.8,183.2,131.1,183,131.3,182.8z M131.5,180.4
							c0.4,0.3,0.6,0.8,0.8,1.3c0.1,0.6,0,1.1-0.3,1.5s-0.7,0.7-1.2,0.8s-1,0-1.3-0.3c0.3,1.8,0.3,1.8,0.3,1.8
							c-0.8,0.1-0.8,0.1-0.8,0.1c-0.9-5.1-0.9-5.1-0.9-5.1c0.8-0.1,0.8-0.1,0.8-0.1c0.1,0.6,0.1,0.6,0.1,0.6
							c0.1-0.2,0.3-0.4,0.5-0.6c0.2-0.1,0.4-0.2,0.7-0.3C130.6,180,131.1,180.1,131.5,180.4z"/>
						<path d="M135.4,179.8c-0.4,0.5-0.4,0.5-0.4,0.5c-0.3-0.2-0.6-0.3-0.9-0.2c-0.3,0.1-0.5,0.2-0.5,0.5c0,0.1,0.1,0.2,0.2,0.2
							c0.1,0,0.2,0.1,0.4,0.1c0.4,0.1,0.4,0.1,0.4,0.1c0.4,0.1,0.7,0.2,0.9,0.4c0.2,0.1,0.3,0.3,0.3,0.6s0,0.7-0.2,0.9
							c-0.3,0.3-0.5,0.4-1,0.5c-0.7,0.1-1.2,0-1.6-0.4c0.4-0.6,0.4-0.6,0.4-0.6c0.4,0.3,0.8,0.4,1.2,0.4c0.2,0,0.3-0.1,0.4-0.2
							c0.1-0.1,0.1-0.2,0.1-0.3s-0.1-0.2-0.2-0.2c-0.1,0-0.2-0.1-0.4-0.1c-0.4-0.1-0.4-0.1-0.4-0.1c-0.3-0.1-0.6-0.2-0.8-0.4
							s-0.3-0.3-0.4-0.6c0-0.3,0-0.6,0.2-0.8c0.2-0.3,0.5-0.4,0.9-0.5C134.6,179.3,135.1,179.4,135.4,179.8z"/>
						<polygon points="178.9,174.7 181.2,174.3 181.3,175.1 178.2,175.6 177.4,170.6 178.1,170.5 						"/>
						<path d="M182.5,172c-0.2,0.3-0.2,0.6-0.2,0.9c0.1,0.3,0.3,0.6,0.5,0.8s0.5,0.3,0.9,0.2c0.3,0,0.6-0.2,0.8-0.5s0.2-0.6,0.2-0.9
							c-0.1-0.3-0.2-0.6-0.5-0.8c-0.2-0.2-0.5-0.2-0.9-0.2C182.9,171.6,182.7,171.8,182.5,172z M184.6,171.1
							c0.5,0.3,0.7,0.7,0.8,1.3c0.1,0.5,0,1.1-0.4,1.5c-0.3,0.5-0.7,0.7-1.3,0.8c-0.5,0.1-1,0-1.5-0.4c-0.5-0.3-0.7-0.7-0.8-1.3
							s0-1,0.3-1.5s0.7-0.7,1.3-0.8C183.7,170.7,184.2,170.8,184.6,171.1z"/>
						<path d="M188.7,170.1c0.3,0.1,0.6,0.3,0.8,0.5c-0.5,0.5-0.5,0.5-0.5,0.5c-0.3-0.3-0.7-0.5-1.1-0.4c-0.3,0.1-0.6,0.2-0.8,0.5
							s-0.2,0.6-0.2,0.9c0.1,0.3,0.2,0.6,0.5,0.8c0.2,0.2,0.5,0.3,0.9,0.2s0.7-0.3,0.9-0.7c0.7,0.3,0.7,0.3,0.7,0.3
							c-0.3,0.7-0.7,1-1.4,1.1c-0.6,0.1-1.1,0-1.5-0.3c-0.5-0.3-0.7-0.7-0.8-1.3s0-1,0.3-1.5c0.3-0.4,0.8-0.7,1.3-0.8
							C188.1,169.9,188.4,170,188.7,170.1z"/>
						<path d="M194.3,172.8l-1,0.2l-2-1.8l1.2-1.9l1-0.2l-1.2,1.9L194.3,172.8z M189.9,167.7l0.8-0.1l1,5.7l-0.8,0.1L189.9,167.7z"
							/>
						<path d="M195.4,169.6c-0.2,0.2-0.2,0.5-0.3,0.7c2-0.4,2-0.4,2-0.4c0-0.2-0.1-0.5-0.4-0.6c-0.2-0.2-0.5-0.2-0.7-0.1
							C195.8,169.3,195.6,169.4,195.4,169.6z M198,170.5c-2.8,0.5-2.8,0.5-2.8,0.5c0.1,0.3,0.3,0.5,0.5,0.7c0.3,0.1,0.5,0.2,0.9,0.1
							c0.4-0.1,0.7-0.3,1-0.6c0.5,0.5,0.5,0.5,0.5,0.5c-0.4,0.5-0.8,0.8-1.4,0.9c-0.6,0.1-1.1,0-1.5-0.3s-0.7-0.7-0.8-1.3
							s0-1,0.3-1.5c0.3-0.4,0.7-0.7,1.3-0.8c0.5-0.1,0.9,0,1.3,0.2c0.4,0.3,0.6,0.7,0.7,1.2C198.1,170.1,198.1,170.3,198,170.5z"/>
						<path d="M200.8,167.8c0.1,0.7,0.1,0.7,0.1,0.7c-0.3,0.1-0.3,0.1-0.3,0.1c-0.3,0-0.6,0.2-0.7,0.4c-0.2,0.2-0.3,0.5-0.2,0.8
							c0.3,2,0.3,2,0.3,2c-0.8,0.1-0.8,0.1-0.8,0.1c-0.7-3.7-0.7-3.7-0.7-3.7c0.7-0.1,0.7-0.1,0.7-0.1c0.1,0.5,0.1,0.5,0.1,0.5
							c0.2-0.4,0.5-0.6,1-0.7C200.6,167.8,200.7,167.8,200.8,167.8z"/>
						<path d="M204,167.8c-0.3,0.6-0.3,0.6-0.3,0.6c-0.3-0.2-0.6-0.3-1-0.2c-0.3,0-0.5,0.2-0.4,0.5c0,0.1,1,0.4,1,0.4
							c0.4,0.1,0.7,0.2,0.8,0.4c0.2,0.2,0.3,0.3,0.4,0.6c0,0.3,0,0.7-0.3,0.9c-0.2,0.2-0.5,0.4-0.9,0.5c-0.7,0.1-1.2,0-1.6-0.4
							c0.4-0.6,0.4-0.6,0.4-0.6c0.4,0.3,0.8,0.4,1.2,0.4c0.2,0,0.3-0.1,0.4-0.2c0.1-0.1,0.2-0.2,0.1-0.3c0-0.1-0.1-0.2-0.2-0.3
							c-0.1,0-0.2-0.1-0.5-0.1c-0.4-0.1-0.4-0.1-0.4-0.1c-0.3-0.1-0.6-0.2-0.8-0.3c-0.2-0.2-0.3-0.3-0.3-0.6s0.1-1,0.3-1.2
							C202.1,167.6,203.3,167.1,204,167.8z"/>
						<polygon class="st9" points="161,182.5 172.8,180.4 170.7,168.6 158.9,170.6 						"/>
						<polygon class="st9" points="77.7,197 89.5,194.9 87.4,183.1 75.6,185.2 						"/>
						<path d="M97,204.4c0.3,1.6,0.3,1.6,0.3,1.6c1-0.1,1-0.1,1-0.1c0.3-0.1,0.5-0.2,0.6-0.3c0.2-0.2,0.2-0.4,0.1-0.7
							c0-0.3-0.1-0.4-0.3-0.6c-0.2-0.1-0.4-0.2-0.7-0.1L97,204.4z M99.1,203.7c0.4,0.2,0.6,0.6,0.7,1c0.1,0.5,0,0.8-0.3,1.2
							c-0.3,0.3-0.7,0.6-1.2,0.6c-1,0.2-1,0.2-1,0.2c0.3,1.9,0.3,1.9,0.3,1.9c-0.8,0.1-0.8,0.1-0.8,0.1c-0.8-5-0.8-5-0.8-5
							c1.8-0.3,1.8-0.3,1.8-0.3C98.4,203.4,98.8,203.5,99.1,203.7z"/>
						<path d="M102.7,204c0.1,0.7,0.1,0.7,0.1,0.7c-0.3,0.1-0.3,0.1-0.3,0.1c-0.3,0-0.5,0.2-0.7,0.4s-0.2,0.5-0.2,0.8
							c0.3,2,0.3,2,0.3,2c-0.8,0.1-0.8,0.1-0.8,0.1c-0.7-3.7-0.7-3.7-0.7-3.7c0.7-0.1,0.7-0.1,0.7-0.1c0.1,0.5,0.1,0.5,0.1,0.5
							c0.2-0.4,0.5-0.6,1-0.7C102.5,204,102.7,204,102.7,204z"/>
						<path d="M104.9,207.4c-0.8,0.1-0.8,0.1-0.8,0.1c-0.7-3.7-0.7-3.7-0.7-3.7c0.8-0.1,0.8-0.1,0.8-0.1L104.9,207.4z M103.9,201.9
							c0.1,0.1,0.2,0.2,0.2,0.3c0,0.2,0,0.3-0.1,0.4c-0.1,0.2-0.2,0.2-0.3,0.2c-0.2,0-0.3,0-0.4-0.1s-0.2-0.2-0.2-0.3s0-0.3,0.1-0.4
							c0.1-0.1,0.2-0.2,0.3-0.2C103.6,201.8,103.8,201.9,103.9,201.9z"/>
						<path d="M108.4,203.3c0.3,0.2,0.5,0.5,0.5,1c0.4,2.4,0.4,2.4,0.4,2.4c-0.8,0.1-0.8,0.1-0.8,0.1c-0.4-2.3-0.4-2.3-0.4-2.3
							c0-0.2-0.1-0.4-0.3-0.5c-0.2-0.2-0.4-0.2-0.7-0.2c-0.2,0-0.4,0.1-0.5,0.3c-0.2,0.2-0.2,0.4-0.2,0.7c0.4,2.3,0.4,2.3,0.4,2.3
							c-0.8,0.1-0.8,0.1-0.8,0.1c-0.7-3.7-0.7-3.7-0.7-3.7c0.8-0.1,0.8-0.1,0.8-0.1c0,0.4,0,0.4,0,0.4c0.2-0.4,0.6-0.6,1-0.7
							C107.7,203,108.1,203.1,108.4,203.3z"/>
						<path d="M112.5,205.4c0.1,0.7,0.1,0.7,0.1,0.7c-0.2,0.1-0.4,0.1-0.6,0.2c-0.5,0.1-0.8,0-1.1-0.1c-0.2-0.2-0.4-0.5-0.5-0.9
							c-0.3-1.8-0.3-1.8-0.3-1.8c-0.6,0.1-0.6,0.1-0.6,0.1c-0.1-0.7-0.1-0.7-0.1-0.7c0.6-0.1,0.6-0.1,0.6-0.1c-0.1-1-0.1-1-0.1-1
							c0.8-0.1,0.8-0.1,0.8-0.1c0.2,1,0.2,1,0.2,1c1.1-0.2,1.1-0.2,1.1-0.2c0.1,0.7,0.1,0.7,0.1,0.7c-1.1,0.2-1.1,0.2-1.1,0.2
							c0.3,1.7,0.3,1.7,0.3,1.7c0,0.2,0.1,0.4,0.3,0.5c0.2,0.1,0.3,0.1,0.6,0.1C112.2,205.5,112.3,205.5,112.5,205.4z"/>
						<polygon points="112.9,203.9 114.7,203.6 114.6,202.9 112.8,203.2 						"/>
						<path d="M116.9,205.4c-0.8,0.1-0.8,0.1-0.8,0.1c-0.7-3.7-0.7-3.7-0.7-3.7c0.8-0.1,0.8-0.1,0.8-0.1L116.9,205.4z M115.9,199.9
							c0.2,0.1,0.2,0.2,0.2,0.3c0,0.2,0,0.3-0.1,0.4c-0.1,0.1-0.2,0.2-0.3,0.2c-0.2,0-0.3,0-0.4-0.1c-0.2-0.1-0.2-0.2-0.2-0.3
							c0-0.2,0-0.3,0.1-0.4c0.1-0.1,0.2-0.2,0.4-0.2C115.6,199.7,115.8,199.8,115.9,199.9z"/>
						<path d="M120.3,201.2c0.3,0.2,0.5,0.5,0.5,1c0.4,2.4,0.4,2.4,0.4,2.4c-0.8,0.1-0.8,0.1-0.8,0.1c-0.4-2.2-0.4-2.2-0.4-2.2
							c0-0.2-0.1-0.4-0.3-0.6c-0.2-0.1-0.4-0.2-0.6-0.1c-0.3,0-0.4,0.1-0.5,0.3c-0.2,0.2-0.2,0.4-0.2,0.7c0.4,2.2,0.4,2.2,0.4,2.2
							c-0.8,0.1-0.8,0.1-0.8,0.1c-0.7-3.7-0.7-3.7-0.7-3.7c0.7-0.1,0.7-0.1,0.7-0.1c0.1,0.3,0.1,0.3,0.1,0.3c0.2-0.3,0.6-0.6,1-0.6
							C119.7,200.9,120,201,120.3,201.2z"/>
						<polygon points="121.8,202.3 123.7,202 123.6,201.3 121.7,201.6 						"/>
						<path d="M126.9,200.3c-0.3,0.6-0.3,0.6-0.3,0.6c-0.3-0.2-0.6-0.3-1-0.2c-0.3,0-0.5,0.2-0.5,0.5c0,0.1,0.1,0.2,0.2,0.2
							c0,0.1,0.2,0.1,0.4,0.2c0.4,0,0.4,0,0.4,0c0.4,0.1,0.7,0.2,0.9,0.4c0.2,0.2,0.3,0.3,0.3,0.6c0.1,0.3,0,0.7-0.2,0.9
							s-0.5,0.4-0.9,0.5c-0.7,0.1-1.2,0-1.7-0.4c0.4-0.6,0.4-0.6,0.4-0.6c0.4,0.3,0.8,0.4,1.2,0.3c0.2,0,0.3-0.1,0.4-0.2
							c0.1-0.1,0.2-0.2,0.1-0.3c0-0.1-0.1-0.2-0.2-0.3c-0.1,0-0.2,0-0.4-0.1c-0.4-0.1-0.4-0.1-0.4-0.1c-0.3-0.1-0.6-0.2-0.8-0.3
							c-0.2-0.2-0.3-0.3-0.3-0.6s0-0.6,0.2-0.8s0.5-0.4,0.9-0.5C126.1,199.8,126.6,199.9,126.9,200.3z"/>
						<path d="M130.6,202.3c0.1,0.7,0.1,0.7,0.1,0.7c-0.2,0.1-0.5,0.2-0.7,0.2c-0.4,0.1-0.8,0-1.1-0.2s-0.5-0.5-0.5-0.9
							c-0.3-1.8-0.3-1.8-0.3-1.8c-0.6,0.1-0.6,0.1-0.6,0.1c-0.1-0.7-0.1-0.7-0.1-0.7c0.6-0.1,0.6-0.1,0.6-0.1c-0.1-1-0.1-1-0.1-1
							c0.8-0.1,0.8-0.1,0.8-0.1c0.2,1,0.2,1,0.2,1c1.1-0.2,1.1-0.2,1.1-0.2c0.1,0.7,0.1,0.7,0.1,0.7c-1.1,0.2-1.1,0.2-1.1,0.2
							c0.3,1.7,0.3,1.7,0.3,1.7c0.1,0.2,0.2,0.4,0.3,0.5c0.2,0.1,0.4,0.1,0.6,0C130.2,202.4,130.4,202.3,130.6,202.3z"/>
						<path d="M131.9,199.9c-0.2,0.3-0.2,0.6-0.2,1c0,0.3,0.2,0.6,0.5,0.8s0.6,0.2,0.9,0.2c0.3,0,0.6-0.2,0.7-0.5
							c0.2-0.3,0.2-0.6,0.2-1c-0.1-0.3-0.2-0.6-0.5-0.8s-0.5-0.2-0.9-0.2C132.4,199.5,132.1,199.6,131.9,199.9z M134.1,199
							c0.5,0.3,0.8,0.7,0.8,1.3c0.1,0.5,0,1.1-0.3,1.5c-0.3,0.5-0.7,0.7-1.3,0.8c-0.5,0.1-1,0-1.5-0.3s-0.7-0.8-0.8-1.3s0-1,0.4-1.5
							c0.3-0.5,0.7-0.7,1.3-0.8C133.1,198.6,133.6,198.7,134.1,199z"/>
						<path d="M137.7,197.9c0.1,0.7,0.1,0.7,0.1,0.7c-0.3,0-0.3,0-0.3,0c-0.3,0-0.5,0.2-0.7,0.4s-0.2,0.5-0.2,0.8c0.3,2,0.3,2,0.3,2
							c-0.8,0.1-0.8,0.1-0.8,0.1c-0.7-3.7-0.7-3.7-0.7-3.7c0.7-0.1,0.7-0.1,0.7-0.1c0.1,0.5,0.1,0.5,0.1,0.5c0.2-0.4,0.5-0.6,1-0.7
							C137.4,197.9,137.5,197.9,137.7,197.9z"/>
						<path d="M139.5,198.4c-0.2,0.2-0.2,0.5-0.2,0.7c2-0.4,2-0.4,2-0.4c-0.1-0.2-0.1-0.5-0.4-0.6c-0.2-0.2-0.5-0.2-0.7-0.2
							C139.8,198.1,139.7,198.2,139.5,198.4z M142.1,199.3c-2.8,0.5-2.8,0.5-2.8,0.5c0.1,0.3,0.3,0.5,0.5,0.7
							c0.2,0.1,0.5,0.2,0.8,0.1c0.4,0,0.7-0.3,1-0.6c0.5,0.5,0.5,0.5,0.5,0.5c-0.4,0.5-0.8,0.8-1.4,0.9c-0.6,0.1-1.1,0-1.5-0.3
							s-0.7-0.7-0.8-1.3s0-1,0.3-1.5c0.3-0.4,0.7-0.7,1.3-0.8c0.5-0.1,0.9,0,1.3,0.2c0.4,0.3,0.6,0.7,0.7,1.2
							C142.1,198.9,142.1,199.1,142.1,199.3z"/>
						<path d="M181.5,189.6c0.6,3.6,0.6,3.6,0.6,3.6c0.7-0.1,0.7-0.1,0.7-0.1c0.6-0.1,1.1-0.4,1.4-0.8c0.3-0.4,0.4-0.8,0.3-1.4
							c-0.1-0.5-0.3-0.9-0.7-1.2s-0.9-0.4-1.5-0.2L181.5,189.6z M184.2,189.1c0.6,0.4,1,0.9,1.1,1.7s0,1.4-0.4,2s-1,0.9-1.9,1.1
							c-1.5,0.3-1.5,0.3-1.5,0.3c-0.9-5-0.9-5-0.9-5c1.5-0.3,1.5-0.3,1.5-0.3C183,188.7,183.7,188.7,184.2,189.1z"/>
						<path d="M187.5,193c-0.8,0.1-0.8,0.1-0.8,0.1c-0.7-3.7-0.7-3.7-0.7-3.7c0.8-0.1,0.8-0.1,0.8-0.1L187.5,193z M186.5,187.5
							c0.1,0.1,0.2,0.2,0.2,0.3c0,0.2,0,0.3-0.1,0.4c-0.1,0.1-0.2,0.2-0.3,0.2c-0.2,0-0.3,0-0.4-0.1c-0.1-0.1-0.2-0.2-0.2-0.3
							c0-0.2,0-0.3,0.1-0.4c0.1-0.1,0.2-0.2,0.3-0.2C186.2,187.4,186.4,187.5,186.5,187.5z"/>
						<path d="M190.5,189.2c-0.4,0.6-0.4,0.6-0.4,0.6c-0.3-0.2-0.6-0.3-0.9-0.2c-0.3,0.1-0.5,0.2-0.4,0.5c0,0.1,0,0.2,0.1,0.2
							s0.3,0.1,0.5,0.1c0.3,0.1,0.3,0.1,0.3,0.1c0.4,0.1,0.7,0.2,0.9,0.4c0.2,0.1,0.3,0.3,0.3,0.6c0.1,0.3,0,0.6-0.2,0.9
							c-0.2,0.3-0.5,0.4-0.9,0.5c-0.6,0.1-1.2,0-1.7-0.5c0.4-0.6,0.4-0.6,0.4-0.6c0.4,0.3,0.8,0.4,1.2,0.4c0.2,0,0.3-0.1,0.4-0.2
							c0.1-0.1,0.1-0.2,0.1-0.3s-0.1-0.2-0.2-0.2c-0.1,0-0.2-0.1-0.4-0.2c-0.4-0.1-0.4-0.1-0.4-0.1c-0.3-0.1-0.6-0.2-0.8-0.3
							s-0.3-0.3-0.4-0.6c0-0.3,0-0.6,0.2-0.8s0.5-0.4,0.9-0.5C189.7,188.7,190.2,188.8,190.5,189.2z"/>
						<path d="M194.2,191.1c0.1,0.7,0.1,0.7,0.1,0.7c-0.2,0.1-0.5,0.2-0.6,0.2c-0.5,0.1-0.8,0-1.1-0.1c-0.2-0.2-0.5-0.5-0.5-0.9
							c-0.3-1.8-0.3-1.8-0.3-1.8c-0.6,0.1-0.6,0.1-0.6,0.1c-0.1-0.7-0.1-0.7-0.1-0.7c0.6-0.1,0.6-0.1,0.6-0.1c-0.2-1-0.2-1-0.2-1
							c0.8-0.1,0.8-0.1,0.8-0.1c0.2,1,0.2,1,0.2,1c1.1-0.2,1.1-0.2,1.1-0.2c0.1,0.7,0.1,0.7,0.1,0.7c-1.1,0.2-1.1,0.2-1.1,0.2
							c0.3,1.7,0.3,1.7,0.3,1.7c0,0.2,0.1,0.4,0.3,0.5s0.3,0.1,0.6,0.1C193.8,191.3,193.9,191.3,194.2,191.1z"/>
						<path d="M196.8,190.6c0.2-0.2,0.2-0.4,0.2-0.7c0-0.1,0-0.1,0-0.1c-1,0.2-1,0.2-1,0.2c-0.5,0.1-0.6,0.3-0.6,0.6
							c0,0.2,0.1,0.3,0.3,0.3c0.1,0,0.3,0.1,0.5,0C196.5,190.9,196.7,190.8,196.8,190.6z M197.1,187.9c0.3,0.2,0.5,0.5,0.6,1
							c0.4,2.3,0.4,2.3,0.4,2.3c-0.7,0.1-0.7,0.1-0.7,0.1c-0.1-0.5-0.1-0.5-0.1-0.5c-0.2,0.4-0.6,0.6-1.1,0.7c-0.4,0.1-0.7,0-1-0.1
							c-0.3-0.2-0.5-0.4-0.5-0.7c-0.1-0.3,0-0.6,0.2-0.8s0.5-0.4,1-0.5c1-0.2,1-0.2,1-0.2c0-0.2,0-0.2,0-0.2c0-0.3-0.1-0.5-0.3-0.5
							c-0.2-0.1-0.4-0.2-0.6-0.1c-0.4,0.1-0.7,0.3-1,0.7c-0.5-0.4-0.5-0.4-0.5-0.4c0.3-0.6,0.7-1,1.4-1.1
							C196.3,187.6,196.7,187.6,197.1,187.9z"/>
						<path d="M201.4,187.1c0.3,0.2,0.5,0.5,0.6,1c0.4,2.3,0.4,2.3,0.4,2.3c-0.8,0.1-0.8,0.1-0.8,0.1c-0.4-2.2-0.4-2.2-0.4-2.2
							c0-0.3-0.1-0.5-0.3-0.6s-0.4-0.2-0.6-0.2c-0.3,0.1-0.4,0.2-0.6,0.4c-0.1,0.2-0.2,0.4-0.1,0.7c0.4,2.2,0.4,2.2,0.4,2.2
							c-0.8,0.1-0.8,0.1-0.8,0.1c-0.7-3.7-0.7-3.7-0.7-3.7c0.7-0.1,0.7-0.1,0.7-0.1c0.1,0.4,0.1,0.4,0.1,0.4c0.2-0.3,0.6-0.6,1-0.6
							C200.8,186.8,201.2,186.8,201.4,187.1z"/>
						<path d="M205.6,186.2c0.3,0.1,0.6,0.3,0.8,0.5c-0.5,0.6-0.5,0.6-0.5,0.6c-0.3-0.3-0.7-0.5-1.1-0.4c-0.3,0-0.6,0.2-0.8,0.5
							s-0.3,0.5-0.2,0.9c0.1,0.3,0.2,0.7,0.5,0.9s0.6,0.2,0.9,0.2c0.4,0,0.7-0.3,0.9-0.7c0.7,0.3,0.7,0.3,0.7,0.3
							c-0.3,0.7-0.7,1-1.4,1.2c-0.6,0.1-1.1,0-1.5-0.3s-0.7-0.8-0.8-1.3s0-1,0.3-1.5c0.4-0.5,0.8-0.7,1.3-0.8
							C205,186.1,205.3,186.1,205.6,186.2z"/>
						<path d="M208.2,186.4c-0.2,0.2-0.3,0.5-0.3,0.7c2-0.4,2-0.4,2-0.4c0-0.3-0.1-0.5-0.4-0.6c-0.2-0.1-0.5-0.2-0.7-0.1
							C208.6,186.1,208.4,186.2,208.2,186.4z M210.8,187.3c-2.8,0.5-2.8,0.5-2.8,0.5c0.1,0.3,0.3,0.5,0.5,0.7
							c0.3,0.2,0.6,0.2,0.9,0.1c0.4-0.1,0.7-0.3,1-0.6c0.5,0.5,0.5,0.5,0.5,0.5c-0.4,0.5-0.8,0.8-1.4,0.9c-0.6,0.1-1.1,0-1.5-0.3
							s-0.7-0.7-0.8-1.3c-0.1-0.5,0-1,0.3-1.5s0.7-0.7,1.3-0.8c0.5-0.1,1,0,1.3,0.3c0.4,0.3,0.6,0.7,0.7,1.2
							C210.8,187,210.8,187.1,210.8,187.3z"/>
						
							<rect x="163.1" y="188" transform="matrix(0.9853 -0.1709 0.1709 0.9853 -30.6669 31.7533)" class="st10" width="12" height="12"/>
						<polygon class="st9" points="80.9,215.5 92.7,213.4 90.6,201.6 78.8,203.6 						"/>
						<polygon class="st2" points="114.7,241.7 117.4,241.3 117.5,242.1 114,242.7 112.9,236.9 113.9,236.8 						"/>
						<polygon class="st2" points="118.5,241.9 119.4,241.8 118.4,236 117.4,236.2 						"/>
						<path class="st2" d="M122.7,235.4c0.4,0.1,0.7,0.4,0.9,0.6c-0.6,0.6-0.6,0.6-0.6,0.6c-0.4-0.4-0.8-0.6-1.3-0.5
							c-0.2,0-0.4,0.1-0.6,0.3s-0.2,0.3-0.1,0.6c0,0.2,0.1,0.3,0.2,0.4c0.2,0.1,0.4,0.2,0.7,0.3c0.7,0.2,0.7,0.2,0.7,0.2
							c0.5,0.1,0.8,0.3,1.1,0.5c0.3,0.2,0.4,0.5,0.5,0.9c0.1,0.5,0,1-0.4,1.3c-0.3,0.3-0.7,0.6-1.3,0.7c-0.5,0.1-0.9,0.1-1.3-0.1
							c-0.4-0.2-0.8-0.4-1-0.8c0.5-0.6,0.5-0.6,0.5-0.6c0.5,0.5,1.1,0.7,1.7,0.6c0.3-0.1,0.5-0.2,0.7-0.4s0.2-0.3,0.2-0.6
							c0-0.2-0.1-0.3-0.3-0.4c-0.2-0.1-0.4-0.2-0.7-0.3c-0.7-0.2-0.7-0.2-0.7-0.2c-0.4-0.1-0.8-0.3-1.1-0.5
							c-0.3-0.2-0.5-0.5-0.5-0.9c-0.1-0.5,0-0.8,0.3-1.2s0.7-0.6,1.2-0.7C122,235.3,122.4,235.3,122.7,235.4z"/>
						<polygon class="st2" points="129.1,235 127.2,235.3 128,240.3 127.1,240.4 126.2,235.5 124.3,235.8 124.2,235 128.9,234.1 
													"/>
						<polygon class="st2" points="137.1,232.7 135.6,239 135.3,239.1 131.7,233.7 132.8,233.5 135.1,237.2 136.1,232.9 						"/>
						<polygon class="st2" points="139.1,238.3 140,238.2 139,232.4 138.1,232.5 						"/>
						<polygon class="st2" points="144.4,232.3 141.5,232.8 141.7,234.3 143.9,233.9 144.1,234.7 141.9,235.1 142.2,236.9 
							145.2,236.4 145.3,237.2 141.4,237.9 140.4,232.1 144.2,231.5 						"/>
						<polygon class="st2" points="153.6,229.8 152.3,236.1 152,236.2 149.6,232.4 148.6,236.8 148.3,236.8 145,231.3 146,231.2 
							148.1,234.8 149.1,230.5 149.4,230.5 151.8,234.2 152.5,230 						"/>
						<polygon class="st11" points="199.1,221.8 200.1,227.7 199.2,227.8 198.5,224.2 197.3,226.7 196.9,226.7 194.9,224.9 
							195.6,228.5 194.6,228.6 193.6,222.8 193.9,222.7 196.9,225.5 198.8,221.9 						"/>
						<path class="st11" d="M203,222.9l-0.6,2.6l1.9-0.4L203,222.9z M204.8,225.8l-2.5,0.5l-0.3,1l-1,0.2l1.5-6.3h0.3l3.6,5.4
							l-1,0.1L204.8,225.8z"/>
						<path class="st11" d="M207.4,221.3c0.3,1.9,0.3,1.9,0.3,1.9c1.2-0.2,1.2-0.2,1.2-0.2c0.3,0,0.6-0.2,0.7-0.4
							c0.2-0.2,0.2-0.5,0.1-0.7c0-0.3-0.1-0.5-0.4-0.7c-0.2-0.1-0.5-0.2-0.8-0.1L207.4,221.3z M209.9,220.5c0.4,0.2,0.7,0.7,0.8,1.2
							s0,1-0.3,1.4s-0.7,0.6-1.3,0.7c-1.2,0.2-1.2,0.2-1.2,0.2c0.4,2.2,0.4,2.2,0.4,2.2c-0.9,0.1-0.9,0.1-0.9,0.1
							c-1-5.8-1-5.8-1-5.8c2.1-0.4,2.1-0.4,2.1-0.4C209,220.2,209.5,220.3,209.9,220.5z"/>
						<polygon class="st11" points="218.7,218.5 217.2,224.8 216.9,224.8 213.3,219.4 214.4,219.2 216.7,222.9 217.7,218.6 						
							"/>
						<polygon class="st11" points="220.7,224.1 221.6,223.9 220.6,218.1 219.7,218.3 						"/>
						<polygon class="st11" points="226,218.1 223.1,218.6 223.4,220 225.5,219.7 225.7,220.5 223.5,220.9 223.8,222.7 226.8,222.2 
							226.9,223 223,223.7 222.1,217.9 225.8,217.2 						"/>
						<polygon class="st11" points="235.2,215.6 234,221.9 233.6,221.9 231.2,218.1 230.2,222.5 229.9,222.6 226.6,217.1 
							227.6,216.9 229.7,220.6 230.7,216.3 231,216.2 233.4,219.9 234.2,215.8 						"/>
						<path class="st11" d="M185,228.7c0,0.1-0.1,0.3-0.2,0.4c0,0.1-0.1,0.2-0.1,0.3c-0.4,0.8-0.9,1.4-1.4,1.9c-0.1,0-0.2,0-0.3-0.1
							c-0.1,0-0.2-0.1-0.3-0.2l0,0c-0.1,0-0.2-0.1-0.3-0.2c-0.1,0-0.2-0.1-0.2-0.2h-0.1c-0.1-0.1-0.2-0.1-0.2-0.2c0,0,0,0-0.1,0
							c0,0-0.1-0.1-0.2-0.2c0,0,0,0-0.1,0c0-0.1-0.1-0.2-0.2-0.2v-0.1c-0.1,0-0.2-0.1-0.2-0.2c0,0,0,0-0.1-0.1
							c0-0.1-0.1-0.1-0.2-0.2c0,0,0-0.1-0.1-0.1c0-0.1-0.1-0.2-0.2-0.2V229c0,0-0.1-0.1-0.2-0.2v-0.1c0,0-0.1-0.1-0.1-0.2
							c0,0,0-0.1-0.1-0.1c0-0.1-0.1-0.1-0.1-0.2c0,0,0-0.1-0.1-0.2c0-0.1,0-0.1,0-0.2c0-0.1,0-0.1,0-0.2c0,0,0-0.1-0.1-0.2
							c0-0.1,0-0.2-0.1-0.2v-0.1c0-0.1,0-0.2-0.1-0.3c0,0,0-0.1,0-0.2c-0.1-0.3-0.1-0.6,0-0.9c0.1-0.5,0.2-0.9,0.5-1.3
							c0.2-0.2,0.5-0.5,0.8-0.6c0.3-0.2,0.6-0.3,1-0.4c0.1,0,0.2,0,0.3,0l0,0c0.3,0,0.7,0,1,0.1c0,0,0,0,0.1,0s0.2,0.1,0.2,0.1
							s0,0,0.1,0s0.2,0.1,0.3,0.1c0,0.1,0.2,0.1,0.2,0.2c0.2,0.2,0.4,0.4,0.5,0.6c0.2,0.3,0.4,0.7,0.5,1.1c0,0,0,0.1,0,0.2
							C185.3,226.9,185.2,227.8,185,228.7z M186,225.7c0-0.1,0-0.1,0-0.1c-0.2-1-0.8-1.8-1.6-2.4c-0.3-0.2-0.7-0.3-1.1-0.4h-0.1
							c-0.2,0-0.5-0.1-0.7,0c-0.1,0-0.2,0-0.3,0c0,0,0,0-0.1,0s-0.2,0-0.3,0c-1,0.2-1.8,0.6-2.3,1.3c-0.6,0.8-0.9,1.8-0.7,2.9v0.1
							c0,0.1,0,0.3,0.1,0.4v0.1c0,0.1,0,0.2,0.1,0.2c0,0.1,0,0.2,0.1,0.2v0.2c0,0.1,0.1,0.2,0.1,0.3c0.8,1.8,2.2,3.1,4,3.8
							c0.1,0,0.2,0,0.2,0c0.1,0,0.2,0,0.2-0.1c0.9-0.8,1.6-1.7,2.1-2.8C186.1,228.3,186.3,227,186,225.7L186,225.7z"/>
						<path class="st11" d="M183,227c-0.1,0.2-0.3,0.3-0.5,0.3s-0.4,0-0.5-0.2c-0.2-0.1-0.2-0.2-0.3-0.4c-0.1-0.4,0.2-0.7,0.5-0.8
							c0.4-0.1,0.8,0.2,0.8,0.5C183.1,226.6,183.1,226.8,183,227z M182.2,225.1L182.2,225.1C182.2,225.2,182.2,225.2,182.2,225.1
							c-0.6,0.1-1.1,0.5-1.2,1.1c-0.1,0.6,0.1,1.2,0.6,1.5c0.3,0.2,0.7,0.3,1,0.2c0.2,0,0.4-0.1,0.5-0.2c0.5-0.3,0.7-0.9,0.6-1.5
							C183.7,225.5,183,225,182.2,225.1z"/>
						<path class="st12" d="M113.8,286.3c-0.1,0.2-0.1,0.3-0.2,0.6c0,0.1-0.1,0.3-0.2,0.5c-0.5,1.1-1.3,2.1-2.1,2.9
							c-0.1,0-0.2-0.1-0.4-0.2c-0.2-0.1-0.3-0.2-0.5-0.2l0,0c-0.1,0-0.3-0.2-0.4-0.2l0,0c-0.2-0.1-0.3-0.2-0.4-0.3c0,0,0,0-0.1,0
							c-0.1-0.1-0.2-0.2-0.3-0.2l-0.1-0.1c-0.1-0.1-0.2-0.2-0.3-0.3c0,0-0.1,0-0.1-0.1c-0.1-0.1-0.2-0.2-0.3-0.3c0,0,0-0.1-0.1-0.1
							c-0.1-0.1-0.2-0.2-0.3-0.3l-0.1-0.1c-0.1-0.1-0.2-0.2-0.2-0.3c0,0-0.1-0.1-0.1-0.2c-0.1-0.1-0.2-0.2-0.2-0.3
							c0,0-0.1-0.1-0.1-0.2c-0.1-0.1-0.2-0.2-0.2-0.3c0-0.1-0.1-0.1-0.1-0.2s-0.1-0.2-0.1-0.3c-0.1-0.1-0.1-0.2-0.2-0.2
							c0-0.1-0.1-0.2-0.1-0.3c0-0.1-0.1-0.2-0.1-0.3c0-0.1-0.1-0.1-0.1-0.2s-0.1-0.2-0.1-0.3c0,0,0-0.2-0.1-0.2
							c0-0.1-0.1-0.2-0.1-0.3c0-0.1,0-0.1,0-0.2c0-0.2-0.1-0.3-0.1-0.5c0-0.1,0-0.2,0-0.2c-0.1-0.5,0-0.9,0-1.3
							c0.1-0.7,0.3-1.3,0.8-1.9c0.3-0.4,0.7-0.7,1.1-0.9c0.4-0.3,0.9-0.5,1.4-0.5c0.2,0,0.3,0,0.4,0c0.5-0.1,1.1,0,1.6,0.1h0.1
							c0.1,0,0.2,0.1,0.3,0.1c0.1,0,0.1,0,0.1,0c0.2,0.1,0.3,0.1,0.4,0.2s0.2,0.2,0.3,0.3c0.3,0.2,0.6,0.5,0.8,0.9
							c0.3,0.5,0.5,1,0.6,1.6c0,0.1,0,0.1,0,0.2C114.3,283.7,114.2,285.1,113.8,286.3z M115.3,281.9c0-0.2,0-0.2,0-0.2
							c-0.3-1.5-1.1-2.7-2.4-3.4c-0.5-0.3-1-0.5-1.6-0.6h-0.1c-0.3,0-0.7-0.1-1-0.1c-0.1,0-0.3,0-0.4,0c0,0,0,0-0.1,0
							c-0.2,0-0.3,0-0.5,0.1c-1.4,0.2-2.6,0.9-3.4,1.9c-0.9,1.1-1.3,2.6-1,4.2c0,0.1,0,0.2,0,0.2c0,0.2,0.1,0.4,0.1,0.6l0.1,0.2
							c0,0.1,0.1,0.2,0.1,0.3c0,0.1,0.1,0.2,0.1,0.3c0,0.1,0.1,0.2,0.1,0.3c0,0.1,0.1,0.2,0.2,0.4l0,0l0,0c1.1,2.6,3.2,4.6,5.9,5.6
							c0.1,0.1,0.2,0.1,0.3,0c0.1,0,0.2-0.1,0.3-0.2c1.4-1.1,2.4-2.6,3-4.2c0.7-1.6,0.8-3.5,0.5-5.3L115.3,281.9z"/>
						<path class="st2" d="M102.1,244.8c-0.2,0-0.3,0-0.5-0.1c-0.2-0.2-0.3-0.4-0.3-0.7s0.2-0.5,0.5-0.5c6.3-1.1,6.3-1.1,6.3-1.1
							c0.3,0,0.7,0.2,0.7,0.6c0.1,0.3-0.2,0.7-0.5,0.7L102.1,244.8z"/>
						<path class="st2" d="M101.3,240.1c-0.2,0-0.4,0-0.5-0.1c-0.2-0.2-0.3-0.4-0.2-0.7c0-0.2,0.2-0.4,0.5-0.5
							c6.3-1.1,6.3-1.1,6.3-1.1c0.3,0,0.6,0.2,0.7,0.5s-0.2,0.7-0.5,0.7L101.3,240.1z"/>
						<path class="st2" d="M101.7,242.4c-0.2,0-0.4,0-0.5-0.1c-0.2-0.2-0.3-0.4-0.3-0.7s0.2-0.5,0.5-0.5c6.3-1.1,6.3-1.1,6.3-1.1
							c0.3-0.1,0.6,0.2,0.7,0.5s-0.2,0.7-0.5,0.8L101.7,242.4z"/>
						<polygon class="st12" points="110.1,281 110.9,285.5 110,285.7 109.4,282.3 108.6,282.7 108.2,281.9 109.8,281 						"/>
						<path class="st13" d="M169.7,172.4c-0.1,0.2-0.2,0.5-0.3,0.7c-1.2,1.8-2.5,3.6-3.8,5.4c-0.4,0.5-0.8,0.6-1.3,0.2
							c-0.6-0.4-1.1-0.8-1.7-1.2c-0.4-0.3-0.5-0.8-0.3-1.1c0.3-0.3,0.7-0.4,1.2-0.1c0.3,0.2,0.7,0.5,1.1,0.7l0,0
							c0,0,0.1-0.1,0.2-0.2c1.1-1.6,2.2-3.2,3.4-4.8c0.4-0.5,1-0.5,1.3,0.1l0,0C169.6,172.2,169.7,172.3,169.7,172.4z"/>
					</g>
				</g>
			</g>
		</g>
	</g>
</g>
<g>
	<g>
		<g>
			<g>
				<polygon class="st5" points="42.2,77.8 234,44.3 243.1,96 51.2,129.5 				"/>
			</g>
		</g>
	</g>
</g>
<g>
	<g>
		<g>
			<g>
				<g>
					<g>
						
							<rect x="144.6" y="60.6" transform="matrix(0.9851 -0.1719 0.1719 0.9851 -10.1385 33.1407)" class="st14" width="83.3" height="29"/>
						<g>
							<g>
								
									<rect x="144.6" y="60.6" transform="matrix(0.9851 -0.1719 0.1719 0.9851 -10.1385 33.1407)" class="st14" width="83.3" height="29"/>
								<path class="st6" d="M85.1,92.7c-1.4-7.9-9-13.2-17.1-11.7c-8.1,1.4-13.6,9-12.2,16.8c1.4,7.9,9,13.1,17.1,11.7
									C81,108.1,86.4,100.6,85.1,92.7z"/>
							</g>
							<g>
								
									<rect x="144.6" y="60.6" transform="matrix(0.9851 -0.1719 0.1719 0.9851 -10.1385 33.1407)" class="st14" width="83.3" height="29"/>
								<path class="st2" d="M62.7,93.1c-0.1-0.5-0.1-1,0.1-1.4c0.1-0.5,0.3-0.8,0.6-1.1c0.2-0.3,0.5-0.6,0.9-0.8
									c0.4-0.2,0.7-0.3,1.1-0.4c0.4-0.1,0.8-0.1,1.2,0c0.4,0,0.8,0.2,1.2,0.4c0.3,0.2,0.7,0.5,0.9,0.9c0.3,0.3,0.4,0.8,0.5,1.3
									c0.1,0.7,0.1,0.7,0.1,0.7c-1.9,0.4-1.9,0.4-1.9,0.4c-0.1-0.7-0.1-0.7-0.1-0.7c-0.1-0.4-0.3-0.7-0.6-0.9
									c-0.3-0.2-0.6-0.2-1-0.2c-0.3,0.1-0.6,0.2-0.9,0.5c-0.2,0.3-0.3,0.6-0.2,1.1c1.2,6.9,1.2,6.9,1.2,6.9
									c0.1,0.4,0.3,0.7,0.6,0.9c0.3,0.2,0.6,0.2,1,0.2c0.3-0.1,0.6-0.2,0.9-0.5c0.2-0.3,0.3-0.6,0.2-1.1c-0.4-2.4-0.4-2.4-0.4-2.4
									c-1.5,0.3-1.5,0.3-1.5,0.3c-0.3-1.7-0.3-1.7-0.3-1.7c3.4-0.6,3.4-0.6,3.4-0.6c0.7,4.1,0.7,4.1,0.7,4.1
									c0.1,0.5,0.1,1-0.1,1.5c-0.1,0.4-0.3,0.8-0.5,1.1c-0.3,0.3-0.6,0.6-0.9,0.8c-0.4,0.2-0.7,0.3-1.1,0.4s-0.8,0.1-1.2,0
									c-0.4,0-0.8-0.2-1.2-0.4c-0.3-0.2-0.6-0.5-0.9-0.9c-0.3-0.3-0.4-0.8-0.5-1.4L62.7,93.1z"/>
							</g>
							<g>
								
									<rect x="144.6" y="60.6" transform="matrix(0.9851 -0.1719 0.1719 0.9851 -10.1385 33.1407)" class="st14" width="83.3" height="29"/>
								<polygon class="st2" points="71.2,101.9 72.7,94.6 69.1,88.8 71.2,88.4 73.3,92 74.1,87.9 76.1,87.6 74.6,94.2 78.6,100.6 
									76.6,100.9 74.1,96.8 73.2,101.5 								"/>
							</g>
							<g>
								
									<rect x="144.6" y="60.6" transform="matrix(0.9851 -0.1719 0.1719 0.9851 -10.1385 33.1407)" class="st14" width="83.3" height="29"/>
								<polygon points="92,98.3 89.7,85.3 95.4,84.2 95.7,86 91.9,86.7 92.6,90.6 95.9,90.1 96.2,91.8 92.9,92.4 93.9,98 								
									"/>
							</g>
							<g>
								
									<rect x="144.6" y="60.6" transform="matrix(0.9851 -0.1719 0.1719 0.9851 -10.1385 33.1407)" class="st14" width="83.3" height="29"/>
								<path d="M96.8,91.1c-0.1-0.3-0.1-0.7-0.1-1s0-0.6,0.1-0.9c0.2-0.5,0.4-0.8,0.8-1.1c0.3-0.3,0.9-0.5,1.4-0.6
									c0.6-0.1,1.2-0.1,1.6,0.1c0.5,0.2,0.8,0.4,1.1,0.8c0.2,0.2,0.3,0.5,0.4,0.8s0.2,0.7,0.3,1c0.5,3.1,0.5,3.1,0.5,3.1
									c0,0.3,0.1,0.7,0.1,1s0,0.6-0.2,0.9c-0.2,0.5-0.4,0.8-0.8,1.1c-0.4,0.3-0.9,0.5-1.5,0.6s-1.1,0.1-1.6-0.1
									c-0.4-0.2-0.8-0.5-1.1-0.8c-0.2-0.2-0.3-0.5-0.4-0.8s-0.2-0.7-0.3-1L96.8,91.1z M99.4,94.1c0,0.3,0.2,0.6,0.4,0.8
									c0.2,0.2,0.4,0.2,0.7,0.1c0.3,0,0.5-0.1,0.7-0.4c0.1-0.2,0.2-0.5,0.1-0.8c-0.6-3.6-0.6-3.6-0.6-3.6
									c-0.1-0.3-0.2-0.6-0.4-0.8c-0.2-0.2-0.5-0.2-0.8-0.1c-0.3,0-0.5,0.1-0.6,0.4c-0.2,0.2-0.2,0.5-0.1,0.8L99.4,94.1z"/>
							</g>
							<g>
								
									<rect x="144.6" y="60.6" transform="matrix(0.9851 -0.1719 0.1719 0.9851 -10.1385 33.1407)" class="st14" width="83.3" height="29"/>
								<path d="M103.4,89.9c0-0.4-0.1-0.7-0.1-1s0-0.7,0.2-0.9c0.2-0.4,0.4-0.8,0.8-1.1c0.4-0.3,0.9-0.5,1.5-0.6s1.1-0.1,1.6,0.1
									s0.8,0.4,1.1,0.8c0.2,0.2,0.3,0.5,0.5,0.8c0.1,0.3,0.2,0.7,0.2,1c0.5,3,0.5,3,0.5,3c0.1,0.4,0.1,0.7,0.1,1.1
									c0,0.3,0,0.6-0.1,0.9c-0.2,0.4-0.4,0.8-0.8,1.1c-0.3,0.3-0.9,0.6-1.4,0.6c-0.6,0.1-1.2,0.1-1.6-0.1
									c-0.5-0.2-0.8-0.4-1.1-0.8c-0.2-0.2-0.3-0.5-0.4-0.8s-0.2-0.7-0.3-1L103.4,89.9z M105.9,93c0.1,0.3,0.2,0.6,0.4,0.7
									c0.2,0.2,0.4,0.2,0.7,0.2c0.3-0.1,0.5-0.2,0.6-0.4c0.2-0.2,0.2-0.5,0.1-0.8c-0.6-3.7-0.6-3.7-0.6-3.7
									c-0.1-0.3-0.2-0.6-0.4-0.7c-0.2-0.2-0.4-0.2-0.7-0.2c-0.3,0.1-0.5,0.2-0.6,0.4c-0.2,0.2-0.2,0.5-0.1,0.8L105.9,93z"/>
							</g>
							<g>
								
									<rect x="144.6" y="60.6" transform="matrix(0.9851 -0.1719 0.1719 0.9851 -10.1385 33.1407)" class="st14" width="83.3" height="29"/>
								<path d="M109.6,85.6c-0.5-2.8-0.5-2.8-0.5-2.8c1.9-0.3,1.9-0.3,1.9-0.3c0.5,2.8,0.5,2.8,0.5,2.8c1.2-0.2,1.2-0.2,1.2-0.2
									c0.3,1.5,0.3,1.5,0.3,1.5c-1.2,0.2-1.2,0.2-1.2,0.2c0.9,5.1,0.9,5.1,0.9,5.1c0,0.2,0.1,0.4,0.1,0.5c0.1,0.1,0.2,0.2,0.3,0.3
									c0.1,0,0.2,0,0.4,0c0.2,0,0.3,0,0.5-0.1c0.3,1.7,0.3,1.7,0.3,1.7c-0.8,0.1-0.8,0.1-0.8,0.1c-0.5,0.1-0.8,0.1-1.2,0
									c-0.3-0.1-0.6-0.2-0.8-0.4c-0.2-0.2-0.4-0.4-0.5-0.6c-0.1-0.3-0.2-0.5-0.2-0.8c-1-5.6-1-5.6-1-5.6c-1,0.2-1,0.2-1,0.2
									c-0.3-1.5-0.3-1.5-0.3-1.5L109.6,85.6z"/>
							</g>
							<g>
								
									<rect x="144.6" y="60.6" transform="matrix(0.9851 -0.1719 0.1719 0.9851 -10.1385 33.1407)" class="st14" width="83.3" height="29"/>
								<polygon points="122.3,83.4 121.7,93.1 120,93.4 118,88.1 118,88.1 117.9,93.8 116.2,94 112.3,85.2 114.3,84.8 116.5,90.4 
									116.6,84.4 118.1,84.1 120.1,89.7 120.2,89.7 120.3,83.8 								"/>
							</g>
							<g>
								
									<rect x="144.6" y="60.6" transform="matrix(0.9851 -0.1719 0.1719 0.9851 -10.1385 33.1407)" class="st14" width="83.3" height="29"/>
								<path d="M129.1,87.7c-3.8,0.7-3.8,0.7-3.8,0.7c0.2,1.3,0.2,1.3,0.2,1.3c0,0.3,0.1,0.5,0.3,0.6c0.2,0.2,0.5,0.2,0.7,0.1
									c0.4-0.1,0.6-0.2,0.7-0.4c0.1-0.2,0.1-0.5,0.1-0.7c1.9-0.4,1.9-0.4,1.9-0.4c0.1,0.8,0,1.5-0.4,2.1c-0.2,0.3-0.5,0.6-0.8,0.8
									c-0.3,0.2-0.7,0.4-1.2,0.5c-0.6,0.1-1.1,0.1-1.6-0.1s-0.8-0.4-1.1-0.8c-0.2-0.2-0.3-0.5-0.4-0.8s-0.2-0.7-0.3-1
									c-0.5-3.1-0.5-3.1-0.5-3.1c-0.1-0.3-0.1-0.7-0.1-1s0-0.6,0.1-0.9c0.2-0.5,0.4-0.8,0.8-1.1c0.4-0.3,0.9-0.5,1.5-0.6
									c0.4-0.1,0.8-0.1,1.2,0c0.4,0.1,0.7,0.2,1,0.5c0.6,0.4,1,1.1,1.1,1.9L129.1,87.7z M125.1,86.9c1.9-0.3,1.9-0.3,1.9-0.3
									c-0.2-1-0.2-1-0.2-1c0-0.3-0.2-0.6-0.4-0.8c-0.2-0.2-0.5-0.2-0.7-0.1c-0.3,0-0.5,0.1-0.7,0.4c-0.1,0.2-0.2,0.5-0.1,0.8
									L125.1,86.9z"/>
							</g>
							<g>
								
									<rect x="144.6" y="60.6" transform="matrix(0.9851 -0.1719 0.1719 0.9851 -10.1385 33.1407)" class="st14" width="83.3" height="29"/>
								<path d="M134.5,90.9c-0.2-1-0.2-1-0.2-1l0,0c-0.2,0.4-0.4,0.7-0.6,0.9c-0.2,0.2-0.6,0.4-1,0.5c-0.2,0-0.5,0-0.7,0
									s-0.5-0.1-0.7-0.3c-0.2-0.2-0.5-0.4-0.6-0.7c-0.2-0.3-0.3-0.7-0.4-1.2c-0.1-0.5-0.1-1-0.1-1.4s0.1-0.8,0.3-1.1
									c0.2-0.3,0.4-0.5,0.8-0.8c0.3-0.2,0.8-0.3,1.4-0.4c0.1,0,0.2,0,0.2,0c0.1,0,0.2,0,0.2,0c0.1,0,0.2,0,0.2,0
									c0.1,0,0.2,0,0.3,0c-0.2-1-0.2-1-0.2-1c-0.1-0.3-0.2-0.5-0.3-0.7c-0.2-0.2-0.5-0.2-0.8-0.2c-0.3,0.1-0.5,0.2-0.7,0.4
									s-0.3,0.5-0.3,0.8c-1.9,0.3-1.9,0.3-1.9,0.3c-0.1-0.8,0.1-1.6,0.5-2.2c0.2-0.3,0.5-0.5,0.8-0.7s0.7-0.3,1.2-0.4
									c0.4-0.1,0.8-0.1,1.2,0s0.7,0.2,1,0.4c0.3,0.2,0.6,0.5,0.8,0.8s0.4,0.7,0.5,1.2c1.1,6.5,1.1,6.5,1.1,6.5L134.5,90.9z
									 M133.8,86.9c-0.2,0-0.4,0-0.5,0.1c-0.4,0.1-0.8,0.2-1,0.5c-0.2,0.2-0.4,0.6-0.2,1.1c0.1,0.3,0.2,0.6,0.4,0.8
									c0.2,0.2,0.5,0.3,0.8,0.2c0.3,0,0.6-0.2,0.7-0.5c0.1-0.2,0.2-0.5,0.1-0.9L133.8,86.9z"/>
							</g>
							<g>
								
									<rect x="144.6" y="60.6" transform="matrix(0.9851 -0.1719 0.1719 0.9851 -10.1385 33.1407)" class="st14" width="83.3" height="29"/>
								<path d="M137.4,90.4c-1.6-9.3-1.6-9.3-1.6-9.3c1.9-0.3,1.9-0.3,1.9-0.3c0.2,1,0.2,1,0.2,1c0.4-0.4,0.7-0.8,1-1
									c0.3-0.3,0.8-0.4,1.4-0.5c0.3,2,0.3,2,0.3,2c-0.2,0-0.4,0-0.6,0c-0.2,0-0.4,0.1-0.6,0.2c-0.2,0.1-0.4,0.3-0.6,0.5
									c-0.2,0.2-0.3,0.4-0.4,0.7c-0.1,0.3-0.1,0.6,0,1c1,5.5,1,5.5,1,5.5L137.4,90.4z"/>
							</g>
							<g>
								
									<rect x="144.6" y="60.6" transform="matrix(0.9851 -0.1719 0.1719 0.9851 -10.1385 33.1407)" class="st14" width="83.3" height="29"/>
								<path class="st6" d="M224.8,58c-10.3,1.8-10.3,1.8-10.3,1.8c-0.5,0.1-0.8-0.2-0.9-0.7c0-0.1,0-0.1,0-0.1
									c-0.1-0.4,0.2-0.8,0.7-0.9c10.3-1.8,10.3-1.8,10.3-1.8c0.4-0.1,0.8,0.2,0.9,0.7c0,0.1,0,0.1,0,0.1
									C225.5,57.5,225.2,58,224.8,58z"/>
							</g>
							<g>
								
									<rect x="144.6" y="60.6" transform="matrix(0.9851 -0.1719 0.1719 0.9851 -10.1385 33.1407)" class="st14" width="83.3" height="29"/>
								<path class="st6" d="M225.3,61.3C215,63.1,215,63.1,215,63.1c-0.5,0.1-0.9-0.2-1-0.7c0-0.1,0-0.1,0-0.1
									c-0.1-0.5,0.2-0.8,0.7-1c10.3-1.8,10.3-1.8,10.3-1.8c0.5-0.1,0.9,0.2,1,0.7c0,0.1,0,0.1,0,0.1
									C226.1,60.8,225.8,61.2,225.3,61.3z"/>
							</g>
							<g>
								<path class="st6" d="M225.9,64.5c-10.3,1.8-10.3,1.8-10.3,1.8c-0.5,0.1-0.8-0.2-1-0.6c0-0.1,0-0.1,0-0.1
									c-0.1-0.4,0.2-0.8,0.7-0.9c10.3-1.8,10.3-1.8,10.3-1.8c0.4-0.1,0.8,0.2,0.9,0.6c0,0.1,0,0.1,0,0.1
									C226.7,64,226.4,64.4,225.9,64.5z"/>
							</g>
						</g>
					</g>
				</g>
			</g>
		</g>
	</g>
</g>
<g>
	<g>
		<g>
			<g>
				<line class="st15" x1="60.2" y1="121.2" x2="230.1" y2="91.5"/>
			</g>
		</g>
	</g>
</g>
<g>
	<path class="st11" d="M122.9,277.9l1,5.7l-1.2,0.2l-0.7-4.4l-1,0.5l-0.5-1l2-1.1L122.9,277.9z"/>
	<path class="st11" d="M125,282.7c-0.1-0.5,0.2-0.9,0.7-0.9c0.5-0.1,0.9,0.2,0.9,0.7c0.1,0.5-0.2,0.9-0.7,0.9
		C125.5,283.5,125.1,283.2,125,282.7z"/>
	<path class="st11" d="M130.9,278.6c0.1,0.7-0.1,1.2-0.5,1.9l-1.1,2.2l-1.4,0.2l1-2.1l0,0c-1,0.2-2-0.5-2.2-1.6
		c-0.2-1.2,0.6-2.2,1.8-2.4C129.6,276.7,130.7,277.3,130.9,278.6z M129.7,278.7c-0.1-0.5-0.6-0.9-1.1-0.8s-0.9,0.6-0.8,1.1
		s0.6,0.9,1.1,0.8C129.5,279.8,129.8,279.3,129.7,278.7z"/>
	<path class="st11" d="M136.1,279.6c0.2,1.2-0.6,2.2-1.8,2.4c-1.1,0.2-2.3-0.5-2.5-1.7c-0.1-0.7,0.1-1.2,0.5-1.9l1.1-2.2l1.4-0.2
		l-1,2.1l0,0C134.8,277.8,135.9,278.4,136.1,279.6z M134.9,279.8c-0.1-0.6-0.6-0.9-1.1-0.8s-0.9,0.6-0.8,1.1
		c0.1,0.5,0.6,0.9,1.1,0.8C134.7,280.8,135,280.3,134.9,279.8z"/>
	<path class="st11" d="M146,277.2l0.5,2.7l-1.2,0.2l-0.4-2.5c-0.1-0.5-0.4-0.8-0.9-0.7c-0.5,0.1-0.7,0.5-0.7,0.9l0.4,2.5l-1.2,0.2
		l-0.4-2.5c-0.1-0.5-0.4-0.8-0.9-0.7c-0.5,0.1-0.7,0.5-0.7,1l0.4,2.5l-1.2,0.2l-0.7-4.3l1.1-0.2l0.1,0.4c0.2-0.3,0.6-0.6,1.1-0.7
		c0.6-0.1,1,0.1,1.4,0.4c0.3-0.4,0.7-0.8,1.3-0.9C145.1,275.5,145.8,276.1,146,277.2z"/>
	<path class="st11" d="M146.4,273.8c-0.1-0.4,0.2-0.8,0.6-0.9c0.4-0.1,0.8,0.2,0.9,0.6c0.1,0.4-0.2,0.8-0.6,0.9
		C146.9,274.5,146.5,274.2,146.4,273.8z M146.9,275.3l1.2-0.2l0.7,4.3l-1.2,0.2L146.9,275.3z"/>
	<path class="st11" d="M148.8,272.7l1.2-0.2l1.1,6.5l-1.2,0.2L148.8,272.7z"/>
	<path class="st11" d="M155.9,276.4l-3,0.5c0.2,0.5,0.7,0.8,1.4,0.7c0.5-0.1,0.8-0.3,1.1-0.6l0.6,0.7c-0.4,0.5-1,0.8-1.6,0.9
		c-1.4,0.2-2.5-0.6-2.7-1.9s0.6-2.4,1.9-2.6c1.2-0.2,2.2,0.5,2.4,1.7C156,276,155.9,276.3,155.9,276.4z M152.8,276.1l2-0.3
		c-0.1-0.5-0.6-0.8-1.1-0.7C153.2,275.1,152.8,275.5,152.8,276.1z"/>
	<path class="st11" d="M156.7,277.4l0.5-0.8c0.4,0.3,0.8,0.5,1.3,0.4c0.3-0.1,0.5-0.2,0.5-0.4c0-0.2-0.2-0.2-0.5-0.3L158,276
		c-0.8-0.2-1.3-0.4-1.4-1.1c-0.1-0.8,0.5-1.4,1.4-1.6c0.6-0.1,1.2,0,1.7,0.4l-0.5,0.8c-0.3-0.2-0.7-0.3-1-0.2
		c-0.3,0-0.4,0.2-0.4,0.4c0,0.2,0.2,0.2,0.5,0.3l0.4,0.1c0.8,0.2,1.3,0.4,1.4,1.1c0.1,0.9-0.5,1.5-1.4,1.7
		C157.9,278,157.2,277.8,156.7,277.4z"/>
	<path class="st11" d="M123.1,289.9l1.5-0.3l1.2,7.3l-1.5,0.3L123.1,289.9z"/>
	<path class="st11" d="M131.7,292.4l0.6,3.4l-1.5,0.2l-0.5-3.2c-0.1-0.6-0.6-1-1.2-0.9c-0.6,0.1-1,0.6-0.9,1.2l0.5,3.2l-1.5,0.3
		l-0.9-5.5l1.4-0.2l0.1,0.5c0.3-0.4,0.8-0.8,1.5-0.9C130.6,290.4,131.5,291.1,131.7,292.4z"/>
	<path class="st11" d="M132.6,288.3l2.7-0.5c1.5-0.3,2.8,0.5,3,1.9s-0.7,2.5-2.2,2.8l-1.2,0.2l0.4,2.6l-1.5,0.3L132.6,288.3z
		 M135.9,291.2c0.7-0.1,1-0.6,0.9-1.2s-0.6-1-1.3-0.9l-1.2,0.2l0.4,2.1L135.9,291.2z"/>
	<path class="st11" d="M139.4,291.8c-0.3-1.6,0.8-3.1,2.4-3.3c1.6-0.3,3.1,0.8,3.4,2.3c0.3,1.6-0.8,3.1-2.5,3.4
		C141.1,294.5,139.6,293.4,139.4,291.8z M143.7,291.1c-0.1-0.9-0.9-1.4-1.7-1.3s-1.3,0.9-1.2,1.7c0.1,0.9,0.8,1.4,1.7,1.2
		C143.3,292.7,143.8,291.9,143.7,291.1z"/>
	<path class="st11" d="M146.2,292.5l0.6-1c0.5,0.4,1.1,0.6,1.7,0.5c0.4-0.1,0.7-0.3,0.6-0.6c0-0.3-0.3-0.3-0.6-0.4l-0.6-0.1
		c-1-0.2-1.6-0.6-1.8-1.4c-0.2-1,0.6-1.8,1.7-2c0.8-0.1,1.5,0,2.1,0.5l-0.6,1c-0.4-0.3-0.9-0.4-1.3-0.3c-0.4,0.1-0.6,0.2-0.5,0.5
		c0,0.2,0.2,0.3,0.7,0.4l0.6,0.1c1,0.2,1.7,0.6,1.8,1.4c0.2,1.1-0.6,1.9-1.8,2.1C147.7,293.4,146.8,293.1,146.2,292.5z"/>
	<path class="st11" d="M155.1,290.7l0.2,1.2c-0.3,0.1-0.6,0.2-1,0.3c-1.3,0.2-2.3-0.3-2.5-1.7l-0.4-2.3l-0.9,0.1l-0.2-1.3l0.9-0.1
		l-0.2-1.4l1.5-0.3l0.2,1.4l1.5-0.3l0.2,1.3l-1.5,0.3l0.4,2.1c0.1,0.6,0.5,0.8,1.2,0.7C154.6,290.8,154.9,290.8,155.1,290.7z"/>
	<path class="st11" d="M158.4,283.9l1.5-0.3l1,5.9l3.2-0.5l0.2,1.3l-4.7,0.8L158.4,283.9z"/>
	<path class="st11" d="M164.5,287.6c-0.3-1.6,0.8-3.1,2.4-3.3c1.6-0.3,3.1,0.8,3.4,2.3c0.3,1.6-0.8,3.1-2.5,3.4
		C166.2,290.2,164.7,289.2,164.5,287.6z M168.8,286.9c-0.1-0.9-0.9-1.4-1.7-1.3s-1.3,0.9-1.2,1.7c0.1,0.9,0.8,1.4,1.7,1.2
		C168.4,288.4,168.9,287.7,168.8,286.9z"/>
	<path class="st11" d="M171.2,286.5c-0.3-1.6,0.8-3.1,2.4-3.3c1.1-0.2,2,0.2,2.6,0.9l-0.9,1c-0.4-0.4-0.8-0.7-1.4-0.6
		c-0.8,0.1-1.3,0.9-1.2,1.7c0.1,0.9,0.8,1.4,1.7,1.3c0.6-0.1,0.9-0.5,1.2-1l1.2,0.6c-0.3,0.9-1.1,1.6-2.1,1.8
		C172.9,289.1,171.4,288.1,171.2,286.5z"/>
	<path class="st11" d="M181.7,287.5l-2.7-2.7l0.5,3l-1.5,0.3l-1.4-8.3l1.5-0.3l0.9,5.1l1.6-2.7l1.8-0.3l-1.6,2.8l2.7,2.7
		L181.7,287.5z"/>
	<path class="st11" d="M188.6,284l-3.8,0.6c0.3,0.7,0.9,1,1.7,0.8c0.6-0.1,1-0.4,1.4-0.8l0.8,0.9c-0.5,0.6-1.2,1-2,1.2
		c-1.7,0.3-3.2-0.7-3.5-2.4c-0.3-1.6,0.8-3.1,2.4-3.3c1.5-0.3,2.8,0.7,3,2.1C188.6,283.5,188.6,283.8,188.6,284z M184.6,283.6
		l2.5-0.4c-0.1-0.7-0.7-1-1.4-0.9C185.1,282.4,184.7,282.9,184.6,283.6z"/>
	<path class="st11" d="M192.7,280l0.2,1.3l-0.4,0.1c-0.9,0.1-1.4,0.7-1.2,1.7l0.5,2.7l-1.5,0.3l-0.9-5.5l1.4-0.2l0.1,0.6
		c0.3-0.5,0.8-0.9,1.4-1C192.4,280,192.5,280,192.7,280z"/>
	<path class="st11" d="M202.5,282.7l0.2,1.3l-5.4,0.9l-0.1-0.3l2.1-3.3c0.6-0.9,0.8-1.4,0.7-2s-0.6-1-1.2-0.9
		c-0.6,0.1-0.9,0.6-0.8,1.3c0,0.1,0.1,0.3,0.1,0.5l-1.5,0.3c-0.1-0.2-0.2-0.4-0.2-0.6c-0.2-1.2,0.6-2.6,2.2-2.8
		c1.5-0.2,2.7,0.6,2.9,1.9c0.2,1.1-0.4,2.1-1.1,3.1l-0.8,1.1L202.5,282.7z"/>
	<path class="st11" d="M209.3,281.6l-0.9,0.2l0.2,1.2l-1.5,0.3l-0.2-1.2l-3.6,0.6l-0.1-0.4l1.3-6.1l1.5-0.3l-1.1,5.2l1.8-0.3l-0.3-2
		l1.5-0.3l0.3,2l0.9-0.2L209.3,281.6z"/>
	<path class="st11" d="M213.8,273.2l1.6-0.3l-4.1,10.9l-1.6,0.3L213.8,273.2z"/>
	<path class="st11" d="M221.1,273.4l0.1,0.4l-2.2,7.4l-1.6,0.3l2-6.4l-3.1,0.5l-0.2-1.3L221.1,273.4z"/>
	<path class="st11" d="M129.9,300.7l0.9,5.5l-0.6,0.1l-0.7-3.9l-1.3,2.7H128l-2.2-2.1l0.7,3.9l-0.6,0.1l-0.9-5.5h0.2l2.8,2.8
		l1.8-3.5L129.9,300.7z"/>
	<path class="st11" d="M131.7,304c-0.2-1.2,0.6-2.3,1.8-2.5s2.3,0.6,2.5,1.7c0.2,1.2-0.6,2.3-1.8,2.5
		C132.9,306,131.9,305.2,131.7,304z M135.2,303.5c-0.1-0.9-0.9-1.4-1.7-1.3s-1.3,0.9-1.2,1.8s0.9,1.4,1.7,1.3
		C134.8,305.1,135.4,304.3,135.2,303.5z"/>
	<path class="st11" d="M138.8,300.8l0.1,0.6h-0.2c-0.7,0.1-1.2,0.6-1.1,1.4l0.4,2.3l-0.6,0.1l-0.7-4l0.6-0.1l0.1,0.6
		c0.2-0.4,0.7-0.7,1.1-0.8C138.6,300.8,138.7,300.8,138.8,300.8z"/>
	<path class="st11" d="M141.8,300.3l0.1,0.6h-0.2c-0.7,0.1-1.2,0.6-1.1,1.4l0.4,2.3l-0.6,0.1l-0.7-4l0.6-0.1l0.1,0.6
		c0.2-0.4,0.7-0.7,1.1-0.8C141.6,300.3,141.7,300.3,141.8,300.3z"/>
	<path class="st11" d="M142.2,298.6c0-0.3,0.1-0.5,0.4-0.5c0.3,0,0.5,0.1,0.5,0.4s-0.1,0.5-0.4,0.5
		C142.5,299.1,142.3,298.9,142.2,298.6z M142.6,300.1l0.6-0.1l0.7,4l-0.6,0.1L142.6,300.1z"/>
	<path class="st11" d="M144.9,303.2l0.3-0.5c0.4,0.3,0.8,0.5,1.3,0.4c0.4-0.1,0.7-0.3,0.7-0.7c-0.1-0.3-0.4-0.4-0.8-0.5l-0.4-0.1
		c-0.7-0.2-1.1-0.4-1.2-0.9c-0.1-0.7,0.4-1.2,1.2-1.4c0.6-0.1,1.1,0.1,1.5,0.4l-0.3,0.5c-0.3-0.2-0.7-0.3-1.1-0.3
		c-0.4,0.1-0.6,0.3-0.6,0.6c0,0.3,0.3,0.4,0.8,0.5l0.4,0.1c0.8,0.2,1.2,0.4,1.3,1c0.1,0.8-0.5,1.3-1.2,1.4
		C145.8,303.8,145.2,303.6,144.9,303.2z"/>
	<path class="st11" d="M148.5,301.2c-0.2-1.2,0.6-2.3,1.8-2.5s2.3,0.6,2.5,1.7c0.2,1.2-0.6,2.3-1.8,2.5
		C149.8,303.2,148.7,302.4,148.5,301.2z M152,300.6c-0.1-0.9-0.9-1.4-1.7-1.3s-1.3,0.9-1.2,1.8s0.9,1.4,1.7,1.3
		C151.7,302.2,152.2,301.5,152,300.6z"/>
	<path class="st11" d="M157,299.2l0.4,2.5l-0.6,0.1l-0.4-2.5c-0.1-0.6-0.6-1-1.2-0.9c-0.6,0.1-1,0.6-0.9,1.3l0.4,2.5l-0.6,0.1
		l-0.7-4l0.6-0.1l0.1,0.4c0.2-0.4,0.6-0.6,1.2-0.7C156.2,297.8,156.9,298.3,157,299.2z"/>
	<path class="st11" d="M158.3,300.9l0.3-0.5c0.4,0.3,0.8,0.5,1.3,0.4c0.4-0.1,0.7-0.3,0.7-0.7c-0.1-0.3-0.4-0.4-0.8-0.5l-0.4-0.1
		c-0.7-0.2-1.1-0.4-1.2-0.9c-0.1-0.7,0.4-1.2,1.2-1.4c0.6-0.1,1.1,0.1,1.5,0.4l-0.3,0.5c-0.3-0.2-0.7-0.3-1.1-0.3
		c-0.4,0.1-0.6,0.3-0.6,0.6c0,0.3,0.3,0.4,0.8,0.5l0.4,0.1c0.8,0.2,1.2,0.4,1.3,1c0.1,0.8-0.5,1.3-1.2,1.4
		C159.3,301.6,158.7,301.3,158.3,300.9z"/>
	<path class="st11" d="M164,295.1l0.6-0.1l0.4,2.2l3.1-0.5l-0.4-2.2l0.6-0.1l0.9,5.4l-0.6,0.1l-0.4-2.6l-3.1,0.5l0.4,2.6l-0.6,0.1
		L164,295.1z"/>
	<path class="st11" d="M169.6,294c0-0.3,0.1-0.5,0.4-0.5c0.3,0,0.5,0.1,0.5,0.4s-0.1,0.5-0.4,0.5C169.9,294.4,169.6,294.3,169.6,294
		z M170,295.5l0.6-0.1l0.7,4l-0.6,0.1L170,295.5z"/>
	<path class="st11" d="M175.9,294.5l0.6,3.6c0.2,1.2-0.5,2.1-1.6,2.3c-0.8,0.1-1.6-0.1-2-0.5l0.3-0.5c0.4,0.3,0.9,0.5,1.6,0.4
		c0.8-0.1,1.3-0.7,1.1-1.6l-0.1-0.4c-0.3,0.5-0.8,0.8-1.4,0.9c-1.1,0.2-2.1-0.5-2.3-1.7s0.5-2.2,1.6-2.4c0.6-0.1,1.3,0.1,1.7,0.5
		l-0.1-0.6L175.9,294.5z M175.6,296.6c-0.2-1-1-1.3-1.6-1.2c-0.8,0.1-1.3,0.8-1.2,1.7c0.1,0.9,0.9,1.3,1.7,1.2
		C175.2,298.1,175.8,297.6,175.6,296.6z"/>
	<path class="st11" d="M180.9,295.2l0.4,2.5l-0.6,0.1l-0.4-2.4c-0.1-0.6-0.6-1-1.2-0.9c-0.6,0.1-1,0.6-0.9,1.3l0.4,2.4l-0.6,0.1
		l-1-6.2l0.6-0.1l0.4,2.6c0.2-0.4,0.6-0.7,1.1-0.7C180.1,293.7,180.7,294.3,180.9,295.2z"/>
	<path class="st11" d="M184.4,296.1l0.4-0.4c0.4,0.4,1,0.8,1.7,0.7c0.6-0.1,1-0.5,0.9-1.1c-0.1-0.5-0.5-0.6-1.1-0.8l-0.7-0.2
		c-0.6-0.2-1.3-0.4-1.5-1.3c-0.1-0.9,0.5-1.5,1.4-1.7c0.7-0.1,1.4,0.2,1.9,0.6l-0.4,0.4c-0.4-0.4-0.9-0.6-1.4-0.5s-0.9,0.4-0.8,1
		c0.1,0.5,0.5,0.6,1,0.8l0.7,0.2c0.9,0.2,1.4,0.6,1.5,1.3c0.2,0.9-0.5,1.6-1.5,1.8C185.8,297.1,185,296.8,184.4,296.1z"/>
	<path class="st11" d="M191.7,295.5l0.1,0.5c-0.2,0.1-0.4,0.2-0.7,0.2c-0.8,0.1-1.4-0.2-1.6-1.1l-0.4-2.2l-0.7,0.1l-0.1-0.6l0.7-0.1
		l-0.2-1.1l0.6-0.1l0.2,1.1l1.3-0.2l0.1,0.6l-1.3,0.2l0.4,2.2c0.1,0.6,0.5,0.7,1,0.6C191.3,295.6,191.5,295.5,191.7,295.5z"/>
	<path class="st11" d="M194.2,291.5l0.1,0.6h-0.2c-0.7,0.1-1.2,0.6-1.1,1.4l0.4,2.3l-0.6,0.1l-0.7-4l0.6-0.1l0.1,0.6
		c0.2-0.4,0.7-0.7,1.1-0.8C194,291.4,194.1,291.4,194.2,291.5z"/>
	<path class="st11" d="M198.8,292.9l-3.2,0.5c0.2,0.8,0.9,1.2,1.7,1.1c0.5-0.1,0.9-0.4,1.1-0.8l0.4,0.4c-0.3,0.5-0.8,0.9-1.5,1
		c-1.2,0.2-2.3-0.6-2.5-1.7c-0.2-1.2,0.5-2.3,1.7-2.5c1-0.2,2,0.4,2.1,1.5C198.9,292.7,198.8,292.8,198.8,292.9z M195.6,292.9
		l2.6-0.4c-0.1-0.7-0.8-1.1-1.4-1C196.1,291.6,195.6,292.2,195.6,292.9z"/>
	<path class="st11" d="M203.6,292.1l-3.2,0.5c0.2,0.8,0.9,1.2,1.7,1.1c0.5-0.1,0.9-0.4,1.1-0.8l0.4,0.4c-0.3,0.5-0.8,0.9-1.5,1
		c-1.2,0.2-2.3-0.6-2.5-1.7c-0.2-1.2,0.5-2.3,1.7-2.5c1-0.2,2,0.4,2.1,1.5C203.6,291.9,203.6,292,203.6,292.1z M200.3,292.1l2.6-0.4
		c-0.1-0.7-0.8-1.1-1.4-1C200.8,290.8,200.3,291.4,200.3,292.1z"/>
	<path class="st11" d="M207.1,292.8l0.1,0.5c-0.2,0.1-0.4,0.2-0.7,0.2c-0.8,0.1-1.4-0.2-1.6-1.1l-0.4-2.2l-0.7,0.1l-0.1-0.6l0.7-0.1
		l-0.2-1.1l0.6-0.1l0.2,1.1l1.3-0.2l0.1,0.6l-1.3,0.2l0.4,2.2c0.1,0.6,0.5,0.7,1,0.6C206.8,293,206.9,292.9,207.1,292.8z"/>
</g>
</svg>
