<?xml version="1.0" encoding="utf-8"?>
<!-- Generator: Adobe Illustrator 25.2.2, SVG Export Plug-In . SVG Version: 6.00 Build 0)  -->
<svg version="1.1" id="Layer_1" xmlns="http://www.w3.org/2000/svg" xmlns:xlink="http://www.w3.org/1999/xlink" x="0px" y="0px"
	 viewBox="0 0 314.9 314.9" style="enable-background:new 0 0 314.9 314.9;" xml:space="preserve">
<style type="text/css">
	.st0{fill:#0691CC;}
	.st1{fill:#B4923E;}
	.st2{fill:#FDCC58;}
	.st3{fill:#FFFFFF;}
	.st4{fill:#EE5C68;}
	.st5{fill:#A7A3A8;}
	.st6{fill:#4F4E50;}
	.st7{fill:#C4C4C6;}
	.st8{fill:#1EA9DD;}
	.st9{fill:#077FB9;}
	.st10{fill:#AEC9E9;}
	.st11{fill:#F0CB61;}
	.st12{fill:#CDAE54;}
	.st13{fill:#F5D98E;}
	.st14{fill:#D0D1D3;}
	.st15{fill:#A18A43;}
	.st16{fill:#B79C4C;}
	.st17{fill:#A38B44;}
	.st18{fill:#6D6E71;}
	.st19{fill:#887538;}
	.st20{fill:#434244;}
	.st21{fill:#F1F1F2;}
	.st22{fill:#F6DC98;}
	.st23{fill:#F9E9C0;}
	.st24{fill:#F1C86A;}
	.st25{fill:#BEBBB9;}
	.st26{fill:#D6D2D2;}
	.st27{fill:#ECEBEC;}
	.st28{fill:#939598;}
	.st29{fill:none;}
	.st30{fill:#9BD0EC;}
	.st31{fill:#C5E4F4;}
	.st32{fill:#F6EEDC;}
	.st33{fill:#C0D885;}
	.st34{fill:#41B28E;}
	.st35{fill:#C57751;}
	.st36{fill:#1D866B;}
	.st37{fill:#DFEDF6;}
	.st38{fill:#CFA84A;}
	.st39{fill:#FBC958;}
</style>
<g>
	<circle class="st0" cx="156.6" cy="158.5" r="156.7"/>
	<g>
		<g>
			<g>
				<path class="st1" d="M311.4,218.3L298.9,127c-0.6-5.1-5.5-8.7-10.8-7.9L152,136.6c-5.3,0.6-9,5.3-8.2,10.4l12.5,91.3
					c0.6,5.1,5.5,8.7,10.8,7.9l136.1-17.5C308.3,228.1,312,223.4,311.4,218.3z M162.5,157.1c-3.7,0-6.8-2.9-6.8-6.6
					c0-3.6,3-6.6,6.8-6.6c3.7,0,6.8,2.9,6.8,6.6C169.3,154.1,166.4,157.1,162.5,157.1z M279.3,141.3c-3.7,0-6.8-2.9-6.8-6.6
					s3-6.6,6.8-6.6c3.7,0,6.8,2.9,6.8,6.6S283,141.3,279.3,141.3z"/>
			</g>
		</g>
		<g>
			<g>
				<path class="st2" d="M314.5,218.9L302,127.6c-0.6-5.1-5.5-8.7-10.8-7.9l-136.1,17.5c-5.3,0.6-9,5.3-8.2,10.4l12.5,91.3
					c0.6,5.1,5.5,8.7,10.8,7.9l136.1-17.5C311.5,228.7,315.1,223.9,314.5,218.9z M165.7,157.1c-3.7,0-6.8-2.9-6.8-6.6
					c0-3.6,3-6.6,6.8-6.6s6.8,2.9,6.8,6.6C172.4,154.1,169.5,157.1,165.7,157.1z M282.5,141.3c-3.7,0-6.8-2.9-6.8-6.6s3-6.6,6.8-6.6
					c3.7,0,6.8,2.9,6.8,6.6S286.1,141.3,282.5,141.3z"/>
			</g>
		</g>
		<g>
			<g>
				<path class="st3" d="M295.7,218.6c-118.1,15.8-118.1,15.8-118.1,15.8c-3.3,0.4-6.4-1.7-6.9-4.9c-7.8-52.9-7.8-52.9-7.8-52.9
					c-0.4-3.2,1.9-6.2,5.2-6.7c118.1-15.8,118.1-15.8,118.1-15.8c3.5-0.4,6.5,1.8,6.9,4.9c7.8,52.9,7.8,52.9,7.8,52.9
					C301.3,215.1,299.1,218.2,295.7,218.6z"/>
			</g>
			<g>
				<path class="st4" d="M203.4,202.2c1,6.4,1,6.4,1,6.4c-23.3,3.1-23.3,3.1-23.3,3.1c-0.3-1.5-0.3-1.5-0.3-1.5
					c8.7-8.4,8.7-8.4,8.7-8.4c1.5-1.5,2.7-2.7,3.2-3.6c0.5-0.9,0.9-1.9,0.6-2.8c-0.1-0.8-0.4-1.5-1.2-2c-0.7-0.4-1.5-0.6-2.5-0.5
					c-1,0.2-1.6,0.4-2.2,1.1c-0.4,0.6-0.5,1.4-0.4,2.3c0,0.3,0.2,0.7,0.4,1.5c-7.7,1-7.7,1-7.7,1c-0.4-0.8-0.5-1.6-0.6-2.2
					c-0.4-2.4,0.4-4.7,2.1-6.9c1.8-2.1,4.4-3.4,7.7-3.9c3.1-0.4,5.9,0.1,8.3,1.6c2.4,1.4,3.7,3.4,4.1,6c0.3,1.6,0.1,3.1-0.8,4.6
					c-0.6,1.5-1.8,3.1-3.7,4.9L203.4,202.2z"/>
			</g>
			<g>
				<polygon class="st4" points="233.6,204.5 230.1,205 230.9,210.2 223,211.4 222.3,206.1 207.3,208.1 207.1,206.2 212.4,183.3 
					220.5,182.3 216,200.5 221.3,199.8 220.2,192.7 228.1,191.6 229.2,198.7 232.7,198.2 				"/>
			</g>
			<g>
				<polygon class="st4" points="243,208.7 234.9,209.8 252.9,167.2 261.1,166 				"/>
			</g>
			<g>
				<polygon class="st4" points="283.6,173.6 283.9,175.6 275,204.3 266.4,205.4 274.1,181.8 262.7,183.3 261.6,176.6 				"/>
			</g>
		</g>
		<g>
			<g>
				<path class="st5" d="M165.7,148.6c-0.4,0-0.8-0.1-1.2-0.3c-1-0.5-1.2-1.9-0.5-2.8L220.5,60c0.4-0.5,2.2-3.5,5.3-3.8
					c1.3-0.1,3.3,0.3,5.3,2.7c3.1,3.9,48.5,68.6,50.5,71.3c0.6,0.9,0.4,2.1-0.5,2.8c-1,0.6-2.2,0.4-2.8-0.5
					c-0.4-0.6-47.4-67.4-50.3-71c-0.6-0.8-1.2-1.2-1.7-1.2c-0.8,0.1-1.7,1.2-2,1.8l-0.1,0.1l-56.5,85.5
					C167.1,148.3,166.5,148.6,165.7,148.6z"/>
			</g>
		</g>
		<g>
			<polygon class="st6" points="221.1,65.9 216.8,66.4 219.8,63.4 246.1,50.8 247.4,53.3 			"/>
		</g>
		<g>
			<polygon class="st7" points="220.4,64.7 216.8,66.4 219.8,63.4 228.7,59.1 246.3,51.2 246.7,52 			"/>
		</g>
		<g>
			<polygon class="st6" points="220.4,64.6 216.8,66.4 220.9,65.5 247.2,52.8 246.7,52 			"/>
		</g>
		<g>
			<path class="st6" d="M232,59.1c-0.2-0.4-0.4-0.8-0.8-1.2c-2.4,1.2-2.4,1.2-2.4,1.2c0.1,0.4,0.3,0.8,0.5,1.3
				c0.2,0.4,0.4,0.8,0.8,1.2c2.5-1.2,2.5-1.2,2.5-1.2C232.3,59.9,232.2,59.5,232,59.1z"/>
		</g>
		<g>
			<path class="st8" d="M241.1,61.5c3.5,7.7,3.5,7.7,3.5,7.7c5-3.4,6.3-10.8,2.9-17.3c-3.7-7.1-11.4-10.5-17.5-7.6l0,0
				c0,0-0.1,0-0.1,0.1c-3.1,1.6-2.8,8.5,0.9,15.6c1,1.9,2,3.5,3.1,4.9c0.4-0.1,1.3-0.4,3.7-1.5C240.8,61.7,241.1,61.5,241.1,61.5z"
				/>
		</g>
		<g>
			<path class="st9" d="M243.3,70L243.3,70c0.1,0,0.1-0.1,0.2-0.1c0,0,0,0,0.1,0c0,0,0.1,0,0.1-0.1l0,0c0,0,0.1,0,0.1-0.1l0,0
				c0.1,0,0.1-0.1,0.2-0.1l0,0c0.1,0,0.1-0.1,0.2-0.1l0,0l0.1-0.1l0,0c5.2-3.3,6.7-10.8,3.2-17.5c-0.4-0.9-1-1.8-1.5-2.5
				c1.2,4.5-0.8,9.3-4.9,12.1l0,0c0,0-0.3,0.4-3.7,1.9c-2.3,1-3.2,1.4-3.7,1.5c3.2,4.1,6.9,6.3,9.3,5.2C243.2,70,243.2,70,243.3,70z
				"/>
		</g>
		<g>
			<path class="st9" d="M243.1,70c0.2-0.1,0.3-0.2,0.4-0.3c-2.9,0.8-7.7-2.8-11-8.7c-0.9,0.4-0.9,0.4-0.9,0.4
				C235.3,67.7,240.2,71.3,243.1,70z"/>
		</g>
		<g>
			<path class="st8" d="M251.2,43.3c-8.7,4.3-8.7,4.3-8.7,4.3c-1.4,0.7-1.4,3.7,0.2,6.8c1.5,3,4,4.9,5.4,4.2
				c8.7-4.3,8.7-4.3,8.7-4.3L251.2,43.3z"/>
		</g>
		<g>
			<path class="st10" d="M251.9,44.8c-10.6,5.1-10.6,5.1-10.6,5.1c0,0.5,0.1,1.2,0.1,1.6c11.1-5.3,11.1-5.3,11.1-5.3L251.9,44.8z"/>
		</g>
		<g>
			<path class="st8" d="M252.8,46.4c-11.1,5.4-11.1,5.4-11.1,5.4c0.2,0.7,0.4,1.6,1,2.4c11.4-5.4,11.4-5.4,11.4-5.4L252.8,46.4z"/>
		</g>
		<g>
			<path class="st8" d="M256.2,54.4c0.5-0.3,0.5-0.3,0.5-0.3c-2.8-5.4-2.8-5.4-2.8-5.4c-11.4,5.4-11.4,5.4-11.4,5.4l0,0
				c0.6,1.2,1.4,2.2,2.2,3c10.4-5,10.4-5,10.4-5L256.2,54.4z"/>
		</g>
		<g>
			<path class="st8" d="M265.4,56.4c-5,2.4-11.3-0.4-14.3-6.3c-2.9-5.8-1.4-12.5,3.6-14.9L265.4,56.4z"/>
		</g>
		<g>
			<path class="st9" d="M262.3,50.2c-4.3,2-9.3,1-12.1-2.4c0.2,0.7,0.5,1.5,1,2.2c2.9,5.8,9.4,8.6,14.3,6.3L262.3,50.2z"/>
		</g>
		<g>
			<path class="st8" d="M256,47.7c2.8,5.5,7.1,9.3,9.7,8.4c2.3-1.6,1.9-7.1-1-12.6c-2.8-5.5-7.1-9.3-9.7-8.4
				C252.8,36.7,253.2,42.1,256,47.7z"/>
		</g>
		<g>
			<g>
				<path class="st5" d="M228,56.6c-0.8-0.3-1.5-0.4-2.1-0.3c-3,0.3-5,3.1-5.3,3.8l-56.5,85.5c-0.5,0.9-0.4,2.1,0.5,2.8
					c0.4,0.2,0.8,0.3,1.2,0.3c0.6,0,1.3-0.4,1.7-0.9L224,62.3l0.1-0.1c0.4-0.5,1.3-1.7,2-1.8C226.1,58.9,226.8,57.5,228,56.6z"/>
			</g>
		</g>
	</g>
	<g>
		<path class="st11" d="M44.4,80.6C42,79.2,42,79.2,42,79.2c-4.3-2.5-10.2-2.1-16.8,1.6c2.4,1.4,2.4,1.4,2.4,1.4
			C34.2,78.5,40.1,78.1,44.4,80.6z"/>
		<path class="st11" d="M8.6,136.8c2.4,1.4,2.4,1.4,2.4,1.4c-4.2-2.5-6.9-7.7-6.9-15.1c0-15,10.5-33.2,23.5-40.8
			c-2.4-1.4-2.4-1.4-2.4-1.4c-13,7.5-23.6,25.8-23.5,40.8C1.7,129.1,4.3,134.3,8.6,136.8z"/>
		<path class="st12" d="M27.6,82.3c-13,7.5-23.6,25.8-23.5,40.8c0,15,10.7,21,23.7,13.5s23.6-25.8,23.5-40.8
			C51.2,80.8,40.6,74.7,27.6,82.3z"/>
		<path class="st12" d="M81.1,146.5c11.7-6.8,11.7-6.8,11.7-6.8c2.3-1.3,1.8-5.8,1.8-9.7c-11.7,6.8-11.7,6.8-11.7,6.8
			C82.9,140.7,83.4,145.2,81.1,146.5z"/>
		<path class="st13" d="M20.9,101c0.5-0.8,1.1-1.6,2-2.4c3.2-2.8,6.2-5.4,10.5-3.9c4.1,1.5,7.5,4.4,11.3,6.5
			c5.9,3.4,11.9,6.9,17.8,10.3c10.7,6.2,21.4,12.3,32.1,18.5c-11.7,6.8-11.7,6.8-11.7,6.8C20.9,101,20.9,101,20.9,101L20.9,101z"/>
		<path class="st11" d="M56.3,135.6c-5.2-2-9.9-3.1-14.8-2.3c-7.5,1.2-13.8-1.3-17.7-3.6c-2.7-1.6-4.2-2.9-4.3-3
			c0-6.3-0.1-12.6,0.1-18.9c0.1-2.6,0.2-4.7,1.2-6.7c62.1,35.8,62.1,35.8,62.1,35.8c0,4.7,0.7,10.4-3.8,10c-1.2-0.1-2.5-0.5-3.8-1.2
			C70.3,143,61,137.4,56.3,135.6z"/>
		<path class="st14" d="M72.3,99.8c0,28.1,0,28.1,0,28.1c0,1.4,0.9,2.7,2.7,3.8c3.6,2.1,9.5,2.1,13.1,0c1.8-1.1,2.7-2.4,2.7-3.8
			c0-28.1,0-28.1,0-28.1c0,1.4-0.9,2.8-2.7,3.8c-3.6,2.1-9.5,2.1-13.1,0C73.2,102.6,72.3,101.2,72.3,99.8z"/>
		<path class="st15" d="M75.1,96c-3.6,2.1-3.7,5.5-0.1,7.6s9.5,2.1,13.1,0s3.7-5.5,0-7.6C84.6,93.9,78.7,93.9,75.1,96z"/>
		<path class="st11" d="M75,103.6c2.2,1.3,5.2,1.8,8.1,1.5c0,28.1,0,28.1,0,28.1c-2.8,0.3-5.8-0.2-8-1.5c-1.8-1.1-2.7-2.4-2.7-3.8
			c0-28.1,0-28.1,0-28.1C72.3,101.2,73.2,102.6,75,103.6z"/>
		<path class="st12" d="M88.2,103.6c1.8-1.1,2.7-2.4,2.7-3.8c0,28.1,0,28.1,0,28.1c0,1.4-0.9,2.8-2.7,3.8c-1.4,0.8-3.2,1.3-5.1,1.5
			c0-28.1,0-28.1,0-28.1C84.9,104.9,86.7,104.4,88.2,103.6z"/>
		<path class="st11" d="M83.1,133.2c-2.8,0.3-5.8-0.2-8-1.5c-1.8-1.1-2.7-2.4-2.7-3.8c0-21.8,0-21.8,0-21.8
			c10.8,6.5,10.8,6.5,10.8,6.5v20.6H83.1z"/>
		<path class="st16" d="M75,103.6c2.2,1.3,5.2,1.8,8.1,1.5c0,7.6,0,7.6,0,7.6c-10.8-6.5-10.8-6.5-10.8-6.5c0-6.4,0-6.4,0-6.4
			C72.3,101.2,73.2,102.6,75,103.6z"/>
		<path class="st15" d="M73,109.1c-1.8,1.1-1.8,1.1-1.8,1.1c0.7-0.4,1.7-0.4,2.8,0.3c1.8-1.1,1.8-1.1,1.8-1.1
			C74.7,108.8,73.7,108.7,73,109.1z"/>
		<path class="st15" d="M76.7,119.7c1.8-1.1,1.8-1.1,1.8-1.1c0.7-0.4,1.1-1.3,1.1-2.5c0-2.5-1.7-5.5-3.9-6.7
			c-1.8,1.1-1.8,1.1-1.8,1.1c2.1,1.2,3.9,4.2,3.9,6.7C77.8,118.4,77.4,119.3,76.7,119.7z"/>
		<path class="st11" d="M73.9,110.5c-2.1-1.2-3.9-0.2-3.9,2.2c0,2.5,1.7,5.5,3.9,6.7c2.1,1.2,3.9,0.2,3.9-2.2
			C77.8,114.7,76.1,111.7,73.9,110.5z"/>
		<path class="st17" d="M31.8,80.3c10.4-3.9,18.4,1.4,19.4,13.1c-15.3-9.2-15.3-9.2-15.3-9.2C34.3,83.2,32.9,81.9,31.8,80.3z"/>
		<path class="st17" d="M88.2,103.6c1.8-1.1,2.7-2.4,2.7-3.8c0,17.7,0,17.7,0,17.7c-7.8-4.7-7.8-4.7-7.8-4.7c0-7.6,0-7.6,0-7.6
			C84.9,104.9,86.7,104.4,88.2,103.6z"/>
		<path class="st18" d="M165.1,74C68.4,16.5,68.4,16.5,68.4,16.5c-4.7-2.7-11.3-2.4-18.5,1.8c96.7,57.5,96.7,57.5,96.7,57.5
			C153.8,71.6,160.4,71.3,165.1,74z"/>
		<path class="st12" d="M38.6,81.6c83.6,50.5,83.6,50.5,83.6,50.5c-4.7-2.7-7.6-8.5-7.6-16.7c0-16.5,11.6-36.6,25.9-44.9
			C56.9,20,56.9,20,56.9,20c-14.4,8.3-26,28.4-25.9,44.9C31,73.2,33.9,78.9,38.6,81.6z"/>
		<path class="st19" d="M176.9,69c-0.3-0.4-0.7-0.7-1.2-1c-9.5-6.5-20.1-11.7-30-17.5C131.5,42.2,117.2,34,103,25.7
			c-7.3-4.2-27.6-15.4-34.9-19.6c5.1,3,21.5,16.3,21.5,25.3c0,0.4,0.1,0.6,0.3,0.7c2.7,1.6,5.5,3.2,8.3,4.8
			c9.7,5.6,19.3,11.2,29,16.8c5.8,3.4,11.6,6.8,17.5,10.2c2.5,1.5,5.1,2.9,7.5,4.5c2.9,1.9,3.9,4.5,6.2,6.9c1.9,2,4.8,2.7,7.6,3.1
			c2.3,0.3,4.7,0.5,7-0.1c2.2-0.6,4.4-2.1,5.2-4.3C178.8,72.1,178.2,70.3,176.9,69z"/>
		<path class="st12" d="M156.7,68.2c-5.9,3.4-11,8.2-15.3,13.5c-2.3,2.8-4.2,4.9-7.4,6.7c-3.1,1.7-6.6,2.8-10,3.7
			c-5.5,1.4-11.1,2.2-16.4,4c-1.7,0.6-5.8,2.7-5.2,5c0.2,0.9-1.9,0.4-1,0.7c0.9,0.3-2.8,0.5,1.9,1c5.5,0.6,15.7,0.3,20.6-2.3
			c7.9-4.1,11.5-8.1,16-14.3c4.4-6,10.2-11.7,16.6-15.4c4.6-2.7,16.7-7.5,20.3-0.7c1.4,2.7-0.5,6.1-3.1,7.5
			c-1.7,0.9-3.6,1.1-5.5,1.2c-1.2,0-3.4-0.6-4,0.8c2.8,0.9,6.5,0.7,9.3-0.1c3-0.9,5.8-3.1,6.8-6c1.9-5.5-2.7-8.5-7.5-9.2
			C167.3,63.3,161.6,65.4,156.7,68.2z"/>
		<path class="st14" d="M43.2,69.9c-1.5-5-2.7-10.1-4-15.2c-2.6-10.4-5-20.9-7.9-31.2c-0.2-0.7-0.5-1.3-0.9-1.7
			c4.9-6.9,10.9-12.6,17.3-16.3l109,62.7c-0.6-0.3-4.7,3.1-5.2,3.5c-1.8,1.4-3.5,2.9-5.1,4.5c-3.6,3.6-6.9,8.5-10.1,12.3
			c-4.3,5.1-9.6,9.5-15.9,11.8c-1.9,0.7-3.8,1.2-5.7,1.6c-9.2,1.8-18.8,0.4-27.5-2.9c-4.4-1.7-8.3-4.3-12.3-6.7
			c-4.2-2.5-8.5-4.9-12.7-7.4c-4.2-2.4-10.5-6-17.2-9.7C44.3,73.4,43.8,71.6,43.2,69.9z"/>
		<path class="st15" d="M140.5,70.6c-14.4,8.3-26,28.4-25.9,44.9s11.7,23.2,26.1,14.9s26-28.4,25.9-44.9
			C166.6,69,154.9,62.3,140.5,70.6z"/>
		<path class="st20" d="M140.5,74.8c-12.3,7.1-22.3,24.4-22.2,38.5c0,14.2,10.1,19.9,22.4,12.8c12.3-7.1,22.3-24.4,22.2-38.5
			C162.9,73.4,152.8,67.7,140.5,74.8z"/>
		<path d="M125,108.5c0.4-9.7,7.2-21.2,15.6-26c0.3-0.2,0.6-0.4,0.9-0.5c8.2-4.2,14.8-0.1,14.8,9.5c0,9.9-7,22.1-15.6,27
			c-8.7,5-15.7,1-15.7-9C124.9,109.2,124.9,108.8,125,108.5z"/>
		<path class="st21" d="M151.3,91.1c0,2.5-1.7,5.5-3.9,6.8c-2.1,1.2-3.8,0.3-3.9-2c0.1-2.7,2-5.9,4.3-7.2c0.1-0.1,0.2-0.1,0.3-0.1
			C149.9,87.8,151.3,88.9,151.3,91.1z"/>
		<path class="st22" d="M178.7,66C69.7,3.4,69.7,3.4,69.7,3.4c-5.6-3.3-13.4-2.8-22,2.1c109,62.7,109,62.7,109,62.7
			C165.3,63.2,173,62.8,178.7,66z"/>
		<path class="st12" d="M101.5,101.7c-0.9-0.3,1.2,0.2,1-0.7c-0.6-2.3,3.5-4.4,5.2-5c5.3-1.8,10.9-2.7,16.4-4c3.5-0.9,6.9-2,10-3.7
			c3.2-1.7,5.2-3.9,7.4-6.7c4.3-5.3,9.4-10.1,15.3-13.5c4.9-2.8,10.6-4.9,16.3-4.1c4.8,0.7,9.3,3.7,7.5,9.2c-1,3-3.7,5.1-6.8,6
			c-1.6,0.5-3.4,0.7-5.2,0.7c0.1-0.4,0.2-0.9,0.2-1.4c1.8-0.1,3.6-0.4,5.2-1.2c2.7-1.4,4.5-4.8,3.1-7.5c-3.6-6.9-15.7-2-20.3,0.7
			c-6.5,3.7-12.3,9.4-16.6,15.4c-4.5,6.2-8.2,10.2-16,14.3c-4.9,2.5-15.1,2.8-20.6,2.3C98.7,102.2,102.4,102,101.5,101.7z"/>
		<path class="st11" d="M23.8,57c0.9,2.4,2.2,4.6,3.7,6.6c2.8,3.6,6.2,5.3,10,7.4c8.2,4.6,16.4,9.2,24.5,13.9
			c4.2,2.5,8.5,4.9,12.7,7.4c4.1,2.4,8,5,12.3,6.7c8.7,3.3,18.3,4.7,27.5,2.9c1.9-0.4,3.9-0.9,5.7-1.6c6.3-2.3,11.6-6.7,15.9-11.8
			c3.3-3.9,6.5-8.7,10.1-12.3c1.6-1.6,3.3-3.1,5.1-4.5c0.4-0.3,1.7-1.3,3.1-2.1c0.5-0.3,1.9-1.5,2.1-1.4
			c0.2,0-108.8-62.7-108.8-62.7c-1.4-0.8-9,6.7-10.1,7.7c-3.3,3.2-6.3,6.9-8.9,10.7c-5.4,7.9-8.1,18.2-6.5,27.7
			C22.6,53.5,23.1,55.3,23.8,57z"/>
		<path class="st23" d="M115.3,95.8c0.1,0,0.3,0,0.4,0c6.9-1.5,15.8-7.9,16.5-15.6c0-0.4,0-0.8-0.3-0.9s-0.6,0.1-0.8,0.4
			c-4.8,4.8-9.2,10.7-16.2,12.2c-1.1,0.2-1.8,1.3-1.6,2.4C113.5,95.1,114.3,95.8,115.3,95.8z"/>
	</g>
	<g>
		<path class="st24" d="M184.4,41L184.4,41c-0.3-1.6-1.1-3.2-2.3-4.4c1.7-0.3,3.3-1.2,4.4-2.3c0.3,1.6,1.2,3.1,2.4,4.4
			C187.2,39.1,185.7,39.8,184.4,41z"/>
		<path class="st24" d="M187.1,55.6L187.1,55.6c-0.2-1.2-0.8-2.3-1.5-3.1c1.2-0.2,2.3-0.8,3.1-1.6c0.2,1.2,0.8,2.3,1.6,3.1
			C189,54.3,187.9,54.9,187.1,55.6z"/>
		<path class="st24" d="M197.7,32.4L197.7,32.4c-0.5-2.8-1.7-5.2-3.6-7.2c2.7-0.5,5.2-1.8,7.2-3.7c0.5,2.7,1.7,5.2,3.6,7.2
			C202.2,29.2,199.7,30.5,197.7,32.4z"/>
	</g>
	<g>
		<path class="st25" d="M75.4,299.3l-24.5-40.5l-0.1,0.1l-20.7-76.5l-27.8-6.5L1,175.3c-0.2,3-2.1,9.3-0.5,12.1c0,0,0,0.1,0.1,0.1
			l0,0c23.8,40.5,47.7,80.7,71.5,121.2v-0.1c0,0,0,0.1,0.1,0.1L75.4,299.3z"/>
		<path class="st3" d="M167.1,270.5c-3.6-6,1.6,1.7-50.3-62.5l0,0c-1.3-1.6-2.6-3.2-4-5l0,0c-8.4-10.4-27.7-34-32.2-39.7
			c-1.7-2-4.7-2.7-7.3-2.4c0,0,0,0-4.4,0.8c-2.3,0.7-32.9,5-66.2,11.7c-1.5,0.7-2.3,2.4-1.4,3.9c0,0,2.2,4.1,49.5,81.7
			c1,1.1,24.3,43.6,25.1,44.5c4.1,4.7,17.9,2.5,32.4-3.4c5.9-2.4,19.3-5.5,27.4-9.4c8.1-4,10.9-8.7,29.1-15.4
			C167,274.7,167.8,272.4,167.1,270.5z M42.2,200.4c0,0.1,0.1,0.1,0.1,0.2C42.3,200.5,42.2,200.5,42.2,200.4z M40.7,198
			c0.1,0.1,0.1,0.2,0.3,0.4C40.9,198.3,40.8,198.1,40.7,198z M41,198.6L41,198.6C41.1,198.6,41.1,198.6,41,198.6z M44.3,203.5
			C44.3,203.6,44.3,203.6,44.3,203.5L44.3,203.5z"/>
		<g>
			<polygon class="st3" points="75.4,299.3 72.1,308.7 73.3,310.5 76.5,301.2 			"/>
			<path class="st26" d="M164.9,275.3l-78,29.5l-3.6,9.2l76.4-29.7l0,0c0.8-0.3,1.5-0.9,2-1.6c5.3-9,5.3-9,5.3-9
				C166.4,274.4,165.8,275.1,164.9,275.3 M159.8,284.1L159.8,284.1C159.9,284.1,159.9,284.1,159.8,284.1z"/>
			<path class="st27" d="M76.5,301.2c-3.3,9.3-3.3,9.3-3.3,9.3c2,3.3,6.4,5,10,3.6c3.6-9.2,3.6-9.2,3.6-9.2
				C83.2,306.2,78.7,304.7,76.5,301.2z"/>
		</g>
		<path class="st28" d="M51.8,168.3c0.8-1.5,5-0.1,3.4,1.6C54.1,170.4,51.3,169.9,51.8,168.3z"/>
		<path class="st28" d="M36.7,171.3c0.2-0.3,0.8-0.5,1.1-0.5s0.6-0.1,0.9-0.1c0.6-0.1,1.2-0.2,1.9-0.3c1.1-0.1,2-0.3,3.1-0.5
			c1.6-0.3,3.1-0.6,4.7-0.8c0.4-0.1,0.6-0.1,1,0.1c0.3,0.1,0.6,0.3,0.7,0.7c0,0.2-0.1,0.4-0.3,0.5s-0.4,0.1-0.6,0.2
			c-0.4,0.1-0.8,0.2-1.2,0.2c-0.7,0.2-1.4,0.3-2.2,0.4c-1.2,0.2-2.3,0.4-3.4,0.6c-0.8,0.1-1.5,0.3-2.3,0.4c-0.4,0.1-0.8,0.1-1.3,0.2
			c-0.4,0.1-0.9,0.2-1.3,0.1c-0.1-0.1-0.2-0.1-0.3-0.1c-0.2-0.1-0.3-0.2-0.5-0.4C36.7,171.6,36.7,171.5,36.7,171.3z"/>
		<g>
			<g>
				<path class="st29" d="M156.5,288.6L156.5,288.6C156.6,288.7,156.5,288.6,156.5,288.6z"/>
			</g>
		</g>
		<g>
			<polygon class="st30" points="139.8,246.2 106.1,203.9 106.1,203.9 79.5,170.4 12.7,182.3 32.8,214.5 59.8,257.7 77.8,286.5 
				151.6,261 			"/>
			<g>
				<g>
					<path class="st31" d="M66,179l12.5-1l0.5,0.3c0.1,0.1,2.9,2,6.4,4.1l1-0.1l2.1-0.7l-9-11.3l-25.1,4.5l6.4,7.4L66,179z"/>
				</g>
				<path class="st32" d="M105.5,229.6L105.5,229.6L105.5,229.6C105.4,229.6,105.5,229.6,105.5,229.6z"/>
				<path class="st32" d="M111.3,228.8C111.3,228.8,111.2,228.8,111.3,228.8L111.3,228.8C111.3,228.8,111.2,228.8,111.3,228.8z"/>
				<path class="st32" d="M105.4,229.6L105.4,229.6L105.4,229.6L105.4,229.6z"/>
				<path class="st32" d="M111.4,228.8L111.4,228.8L111.4,228.8z"/>
				<path class="st32" d="M105.3,229.6C105.3,229.6,105.4,229.6,105.3,229.6C105.4,229.6,105.3,229.6,105.3,229.6z"/>
				<path class="st32" d="M105.3,229.6L105.3,229.6L105.3,229.6z"/>
				<path class="st32" d="M106,229.4C106.1,229.4,106.1,229.4,106,229.4L106,229.4z"/>
				<path class="st32" d="M105.5,229.6C105.5,229.6,105.5,229.5,105.5,229.6C105.5,229.5,105.5,229.6,105.5,229.6z"/>
				<path class="st32" d="M105.8,229.5C105.7,229.5,105.7,229.5,105.8,229.5L105.8,229.5L105.8,229.5L105.8,229.5L105.8,229.5z"/>
				<path class="st32" d="M111.1,228.9L111.1,228.9L111.1,228.9z"/>
				<path class="st32" d="M110.7,229L110.7,229L110.7,229z"/>
				<path class="st32" d="M110.8,229L110.8,229L110.8,229z"/>
				<path class="st32" d="M110.7,229L110.7,229L110.7,229z"/>
				<path class="st32" d="M111,228.9L111,228.9L111,228.9z"/>
				<path class="st3" d="M48,186c-1.2-0.1-4.2-0.8-5.7-2.1c-1.1-1-2.8-1.6-4.8-1.9c-1.3-0.1-2-0.2-2.2-0.2c-0.5,0-0.7,0.4-0.5,0.8
					c0.2,0.5,0.8,0.8,1.3,0.8c1-0.1,3.6,0.1,4.9,1.3c1.1,1,2.7,1.7,4.8,2.3c1.4,0.4,2.6,0.5,2.7,0.5l1.2,0l12.6-1.2L84.9,212
					l1.3,3.1l-19.6-2.8h-0.1h-0.1c0,0-0.6-0.1-1.7-0.2c-1.2-0.3-2-0.3-2.1-0.3h0.1l0,0c-0.3-0.1-0.7-0.1-1.1-0.2
					c-2.7-0.6-6.7-1.6-10.7-3.7c-2.9-1.5-5.6-3.9-7.8-6.4c-3.7-4-6.2-8-6.2-8.1c-0.3-0.5-0.8-0.7-1.4-0.6c-0.5,0.1-0.6,0.5-0.4,0.9
					c0.1,0.1,1.7,2.8,4.4,6.1c1.9,2.3,3.7,4.2,5.6,5.8c1.7,1.5,3.4,2.7,5.1,3.6c2.3,1.2,4.8,2.1,6.9,2.8c-0.3,0-0.6,0.1-0.8,0.1
					c-0.3-0.1-0.6-0.1-0.9-0.1c-2.5,0.2-4.6,1-6.4,2.4c-0.5,0.5-1.1,0.9-1.5,1.5c-0.7,0.8-1.4,1.9-1.9,3c-0.3,0.2-0.8,0.4-1.2,0.6
					c-0.9,0.5-2,1.1-3.3,1.7c-1.7,0.8-3.6,1.4-5.3,1.7l2.2,3.6c0.2-0.1,0.4-0.1,0.5-0.1c1.7-0.4,3.6-0.9,5.2-1.7
					c-0.4,2-0.6,4-0.6,5.4c-1.3-1.1-3-2.2-4.8-3.1l8,12.9c1.6-3.7,1.5-6.3,1.5-6.5c0-0.1-0.2-4.5,1-9c0.2-0.7,0.4-1.4,0.6-2.1
					c1.1,1.4,2.3,2.3,3.4,2.9c0.1,0.1,0.1,0.1,0.2,0.1c2.5,1.2,5.6,1.7,9.2,1.6c-3.8,3-6.2,5.7-7.8,8.2c-1.7,2.7-2.6,5.1-3.3,7.2
					c-0.5,1.2-0.8,2.3-1.4,3.3l2.8,4.5c0.5-0.6,1-1.3,1.4-2c0.8-1.3,1.2-2.6,1.7-4.1c0.8-2.4,1.9-5.1,4.4-8.4
					c3-3.8,7.6-7.5,14.2-11.2c2.3-1.3,7.4-3,14-4.8l1.4,3.3l0,0l9.1,21.4l-24.3,0.9l-3.2-10.8c-0.1-0.5-0.7-0.8-1.2-0.8
					c-0.6,0-0.9,0.3-0.8,0.8L83,286.1l2-0.6l-10.5-38.9l10.3-0.4l3.4,10.2l0,0l0,0l8,25.7l2-0.6l-1-3.1l19.7-2.2l4-1.1
					c0-0.1,0-0.1-0.1-0.1c-0.2-0.4-0.8-0.7-1.4-0.6l-22.7,2.5l-2-6.5l32.9-2.8l1.9,5l2-0.6l-1.7-4.7l27.4-2.5l1.6-0.5l-1-1.2
					l-28.6,2.6l-4.1-10.4l24.9-1.6l-1.2-1.4l-24.3,1.5l-3.8-9.2l20.7-1.2l-1.2-1.4l-9,0.5l-11.8-25.6l-6.2-7.5
					c-8.4,1.9-15.6,3.6-21.6,5c-1,0.3-2,0.5-3,0.7h-0.2l-1.6-3.7l-15.6-17.7l21.3-2.8l-0.5-4.1c1.3,0.5,2.5,1,3.7,1.3l-1.5-1.9
					c-1-0.3-2-0.8-3-1.2c-0.1,0-0.1-0.1-0.1-0.1c-1.1-0.5-2.2-1.1-3.3-1.6l3-1.1l-1.2-1.4l-3.3,1.1l-1,0.1c-3.6-2.1-6.4-4.1-6.4-4.1
					l-0.5-0.3l-12.5,0.9l-5.2,3.2l-7.5-8.7l-1.6,0.3l9.5,11L48,186z M69.4,218.1c0.6,1.6,0.2,2.9-1.4,3.8c-1.3,0.8-2.8,1-3,1h-0.1
					h-0.1c0,0-1.7,0.4-4.1,0.5c-2.7,0.1-4.9-0.3-6.4-1c-1.4-0.8-1.9-1.9-2.2-2.6c-0.3-1-0.1-1.7,0.5-2.3c1-1,3.1-1.6,6.1-2
					c2.2-0.2,4.2-0.1,4.6-0.1c0.3,0,1.6,0.2,3.1,0.6C67.2,216.2,68.9,216.8,69.4,218.1z M74.4,219.6c-0.1-0.5-0.2-1.1-0.5-1.6
					c-0.5-1.4-1.6-2.5-3.2-3.6l14.2,2C80.4,217.6,77,218.7,74.4,219.6z M96.8,235.3l-3.9-9.1l7.5-0.1l3.4-0.1l1.4-0.1l4.7-0.1
					l3.3-0.1l8.1-0.3l3.9,8.4L96.8,235.3z M127.2,266.2l-32.8,2.7l-3.7-11.5l32.4-1.7L127.2,266.2z M122.4,254.2l-32.3,1.6l-3.1-9.4
					l31.7-1.5L122.4,254.2z M129.1,242.8l-28.5,1.4l-3.1-7.3l28.3-1.4L129.1,242.8z M115.3,213l5.3,11.1l-9.4,0.2l0,0l-2.8,0.1
					l-3.6,0.1h-0.5l0,0l-2.1,0.1l-2.2,0.1l-7.8,0.1l-0.8-1.9l-1.6-3.7C97.3,217.1,106.3,215,115.3,213z M89.8,186.3l0.5,3.7
					l-20.5,2.7l-5.7-6.5l21.3-2.1C86.8,184.9,88.4,185.6,89.8,186.3z M78.3,179.6c0.8,0.6,2.6,1.7,4.8,3.1l-20.3,1.9l-0.8-0.9
					l5.2-3.2L78.3,179.6z"/>
				<path class="st3" d="M76,288.1l0.5-0.1C76.3,288,76.1,288.1,76,288.1L76,288.1z"/>
				<path class="st32" d="M106.3,229.4"/>
				<polygon class="st33" points="115.3,225.7 115.3,225.7 115.3,225.7 113.3,225.8 113.3,225.8 100.4,226.1 100.4,226.1 
					92.9,226.2 96.8,235.3 125.1,233.9 121.2,225.5 				"/>
				<g>
					<g>
						<path class="st34" d="M101.4,230c3.1-0.8,3.1-0.8,3.1-0.8c1.2-0.3,1.2-1.4,0.1-2.2c-4.1-2.9-4.1-2.9-4.1-2.9
							c-1.4-1.1-3.4-0.5-3.1,0.7c0.9,3.7,0.9,3.7,0.9,3.7C98.7,229.6,100.2,230.4,101.4,230"/>
					</g>
					<g>
						<path class="st35" d="M104.2,231.3L104.2,231.3c0.2-0.1,0.3-0.2,0.1-0.4c-1.1-1.4-1.1-1.4-1.1-1.4c-0.7,0.2-0.7,0.2-0.7,0.2
							c1.1,1.4,1.1,1.4,1.1,1.4C103.8,231.3,104.1,231.4,104.2,231.3"/>
					</g>
					<g>
						<path class="st36" d="M102.7,228.3c-0.3-0.7-0.8-1.4-1.6-2c-0.7-0.6-1.5-1.2-2.1-1.9c-0.2-0.3-0.5-0.5-0.5-0.7
							c0.6-0.1,1.4,0.1,2.1,0.5c4.1,2.9,4.1,2.9,4.1,2.9c1.1,0.8,1.1,1.9-0.1,2.2c-2.3,0.6-2.3,0.6-2.3,0.6c0.1-0.2,0.4-0.3,0.5-0.5
							C102.8,229,102.8,228.6,102.7,228.3L102.7,228.3z"/>
					</g>
				</g>
				<g>
					<g>
						<path class="st34" d="M110.8,231.5c3.1-0.8,3.1-0.8,3.1-0.8c1.2-0.3,1.2-1.4,0.1-2.2c-4.2-2.9-4.2-2.9-4.2-2.9
							c-1.4-1-3.4-0.5-3.1,0.7c1,3.7,1,3.7,1,3.7C108,231.1,109.6,231.8,110.8,231.5"/>
					</g>
					<g>
						<path class="st35" d="M113.7,232.8L113.7,232.8c0.2-0.1,0.3-0.2,0.1-0.4c-1.1-1.4-1.1-1.4-1.1-1.4c-0.7,0.2-0.7,0.2-0.7,0.2
							c1.1,1.4,1.1,1.4,1.1,1.4C113.2,232.8,113.4,232.8,113.7,232.8"/>
					</g>
					<g>
						<path class="st36" d="M112.1,229.7c-0.3-0.7-0.9-1.4-1.6-2s-1.5-1.2-2.2-1.9c-0.2-0.3-0.5-0.5-0.5-0.7
							c0.6-0.1,1.4,0.1,2.1,0.5c4.2,2.9,4.2,2.9,4.2,2.9c1.1,0.8,1.1,1.9-0.1,2.2c-2.3,0.6-2.3,0.6-2.3,0.6c0.1-0.2,0.4-0.3,0.5-0.5
							C112.2,230.5,112.2,230.2,112.1,229.7L112.1,229.7z"/>
					</g>
				</g>
				<g>
					<path class="st2" d="M54.3,235.2c0-0.5,0-0.8,0-0.9c0-2.6-0.5-5.6-1.4-8.9c-0.1-0.1-0.1-0.1-0.2-0.1c-1.1-0.6-2.4-1.5-3.4-2.9
						c-0.3,0.6-0.5,1.4-0.6,2.1c-1.2,4.5-1,8.9-1,9s0.1,1.6-0.5,3.8l3.7,5.9c0.1-0.3,0.2-0.5,0.3-0.7
						C51.6,240.2,52.5,237.8,54.3,235.2z"/>
					<path class="st2" d="M35,199c3,6.2,6.4,13.4,8.7,19.6c0.1,0.3,0.2,0.6,0.3,0.9c0.5-0.3,0.8-0.5,1.2-0.6c0.5-1.1,1.2-2.2,1.9-3
						c0.5-0.6,1-1.1,1.5-1.5c-1.2-2.8-2.5-5.8-4.1-8.7c-0.5-1-3-5.9-3.4-6.9c-3.4-7.1-5.7-13.4-7-17.5c-0.3-0.9-0.5-1.7-0.8-2.5
						l-6,1.1c0.1,0.3,0.1,0.5,0.2,0.7C30,188.2,33,194.8,35,199z"/>
				</g>
			</g>
		</g>
		<path class="st37" d="M119,276.3c5.1-2.2,12.8,5.8,6.4,9C120.3,287.6,112.5,279.5,119,276.3z M124.4,283.9
			c4.4-2.2-0.8-7.7-4.2-6.2C115.7,279.8,120.9,285.3,124.4,283.9z"/>
		<g>
			<path class="st38" d="M116.2,182.1c-8.3-3.5-9.2-15.3-3.9-17.8l-6.3,2.9c-5.4,2.5-4.5,14.3,3.9,17.8c2,0.7,3.7,0.7,4.9,0.1
				l6.3-2.9C119.9,182.8,118.2,182.8,116.2,182.1z"/>
			<path class="st38" d="M132.9,163c-3.5-6-8.7-10.8-14.6-13c-4.7-1.8-9.3-1.7-13,0l-6.3,2.9c3.7-1.7,8.2-1.8,13,0
				c6,2.2,11.1,7.1,14.6,13c5.6,9.2,6.8,20.6,1.4,29.2c-5.6,8.8-12.4,15.7-18.8,23.6c1-1.1,3.8-4.1,5.1-5.2
				c4.2-3.9,14.3-12.4,20-21.4C139.7,183.7,138.4,172.2,132.9,163z"/>
			<g>
				<path class="st39" d="M126.6,166c5.6,9.2,6.8,20.6,1.4,29.2c-5.7,8.9-12.5,15.8-19,23.9c-0.1,0.1-0.3,0.1-0.3,0.1
					c-0.1,0-0.1-0.1-0.3-0.3c-1.6-3.7-3.9-7.5-5.5-11.2c-3.3-7.5-6.5-15.1-9.8-22.8c-5.3-12.1-4.1-22.8,1.4-28.5
					c4.1-4.6,10.6-6.1,17.6-3.5C117.9,155.2,123,160.1,126.6,166z M109.9,185.1c10.4,3.7,11.5-13.5,1.1-17.6
					C100.7,163.7,99.7,180.9,109.9,185.1"/>
			</g>
		</g>
	</g>
</g>
</svg>
