<?xml version="1.0" encoding="utf-8"?>
<!-- Generator: Adobe Illustrator 25.2.2, SVG Export Plug-In . SVG Version: 6.00 Build 0)  -->
<svg version="1.1" id="Layer_1" xmlns="http://www.w3.org/2000/svg" xmlns:xlink="http://www.w3.org/1999/xlink" x="0px" y="0px"
	 viewBox="0 0 314.9 314.9" style="enable-background:new 0 0 314.9 314.9;" xml:space="preserve">
<style type="text/css">
	.st0{fill:#D1D3D4;}
	.st1{fill:#3D4041;}
	.st2{fill:#292B2D;}
	.st3{fill:#656768;}
	.st4{fill:#545455;}
	.st5{fill:#A7A9AC;}
	.st6{fill:#797A7D;}
	.st7{fill:#4F4E50;}
	.st8{fill:#454748;}
	.st9{fill:#FFFFFF;}
	.st10{fill:#00A0D7;}
	.st11{fill:#EF9B65;}
	.st12{fill:#DFE9F1;}
	.st13{fill:#E8D5C4;}
	.st14{fill:#DEEBF2;}
	.st15{fill:#E4BC92;}
	.st16{fill:#ECF2F7;}
	.st17{fill:#DAA679;}
	.st18{fill:#C92027;}
	.st19{fill:#44B491;}
	.st20{fill:#7F171C;}
	.st21{fill:#F2CDBD;}
	.st22{fill:#B12453;}
	.st23{fill:#ED7786;}
	.st24{fill:#EC846B;}
	.st25{enable-background:new    ;}
	.st26{fill:#585B5C;}
	.st27{fill:#505252;}
	.st28{fill:#191617;}
	.st29{fill:#656566;}
	.st30{fill:#EB5F70;}
	.st31{fill:#CFCCCE;}
	.st32{fill:#9F9D9E;}
	.st33{fill:#B2B0AF;}
	.st34{fill:#BAB5BA;}
	.st35{fill:#1D3456;}
	.st36{fill:#5F2D45;}
	.st37{fill:#D8D7D2;}
	.st38{fill:#7B7C95;}
	.st39{fill:#9E82B9;}
	.st40{fill:#9AD0EB;}
	.st41{fill:#C42126;}
	.st42{fill:#CD9362;}
	.st43{fill:#3F3D3B;}
	.st44{fill:#C67F73;}
	.st45{fill:#454541;}
	.st46{fill:#1A1718;}
	.st47{fill:#6C9773;}
	.st48{fill-rule:evenodd;clip-rule:evenodd;fill:#FFFFFF;}
	.st49{fill:#E3E9EE;}
	.st50{fill:#D6E4EA;}
	.st51{fill:#EE9867;}
	.st52{fill:#EF936D;}
	.st53{fill:#EBB6B5;}
	.st54{fill:#EE856E;}
	.st55{fill:#EF8171;}
	.st56{fill:#EF8773;}
	.st57{fill:#F8C0B2;}
	.st58{fill:#DDE8ED;}
	.st59{fill:#F0AA7F;}
	.st60{fill:#F1A783;}
	.st61{fill:#F19A83;}
	.st62{fill:#F7DAC9;}
	.st63{fill:#EC8963;}
	.st64{fill:#E3ECF0;}
	.st65{fill:#D6E3EA;}
	.st66{fill:#DFC3AE;}
	.st67{fill:#E1CCBB;}
	.st68{fill:#DFC2B0;}
	.st69{fill:#E2CBBD;}
	.st70{fill:#FFC860;}
	.st71{fill:#EF866E;}
	.st72{fill:#F9C1B3;}
	.st73{fill:#8D8D8D;}
	.st74{fill:#B4923E;}
	.st75{fill:#FDCC58;}
	.st76{fill:#EE5C68;}
	.st77{fill:#A7A3A8;}
	.st78{fill:#C4C4C6;}
	.st79{fill:#1EA9DD;}
	.st80{fill:#077FB9;}
	.st81{fill:#AEC9E9;}
	.st82{fill:#E0B891;}
	.st83{fill:#A01F23;}
	.st84{fill:#D0A780;}
	.st85{fill:none;}
	.st86{fill:#1B3355;}
	.st87{fill:#5E0E11;}
	.st88{fill:#C37377;}
	.st89{fill:#CB9266;}
	.st90{fill:#1C1C1A;}
	.st91{fill:#D08A2A;}
	.st92{fill:#481F14;}
	.st93{fill:#CC636B;}
</style>
<g>
	<circle class="st0" cx="158.3" cy="156.9" r="157.1"/>
	<g>
		<g>
			<polyline class="st1" points="85.5,21.7 89.8,20.1 89.8,34.2 85.5,35.3 85.5,23.6 			"/>
		</g>
		<g>
			<path class="st2" d="M296.4,71.3c-10.3-2.2-75-15.3-86.3-17.5C152.9,43.2,89.8,34.2,89.8,34.2l-4.6,1.2l0.7,18.3
				c32.8,4.9,149,25.7,201.7,29.9C290.6,79.1,293.1,75.3,296.4,71.3z"/>
		</g>
		<g>
			<path class="st3" d="M-3.2,38.4"/>
		</g>
		<g>
			<path class="st1" d="M22.7,51.4V38.4L88,21l-2.2,20.4L22.7,51.4z"/>
		</g>
		<g>
			<path class="st4" d="M296.2,62L90.1,20.1l-0.3,14.1l206.6,37.1L296.2,62z"/>
		</g>
		<g>
			<g>
				<path class="st5" d="M290.3,239.8L71.9,267l1.3,22c6.7,4.3,13.7,8.2,21.1,11.4L274,263.2c6-6.5,11.5-13.6,16.3-21V239.8z"/>
			</g>
			<g>
				<path class="st6" d="M290.3,229.1L71.9,256.2l2.2,37.6l216.2-44.7V229.1z"/>
			</g>
			<g>
				<path class="st7" d="M74.1,293.8l-44.5-14c-3.8-0.7-6-2.7-6-5.9V199c0-3.4,2.7-5.9,6-5.9h44.5c3.4,0,6,2.7,6,5.9v88.9
					C79.7,291.3,77.1,293.8,74.1,293.8z"/>
			</g>
			<g>
				<path class="st8" d="M290.3,226.4c-87.3,2.2-382.7,20.3-210.5,55.8c0.7-3.1,153.5-31.5,210.5-41.3
					C290.5,236.9,290,230.5,290.3,226.4z"/>
			</g>
		</g>
		<g>
			<path class="st9" d="M294.9,73.1L72.7,34.3l3.4,239.9l218.8-37.6"/>
		</g>
		<g>
			<polygon class="st10" points="79.3,271.7 127.8,264.3 126.9,46.7 79.7,38.6 			"/>
		</g>
		<g>
			<polygon class="st10" points="16.3,42.7 75.9,27.9 76,274.4 16.3,259.5 			"/>
		</g>
		<g>
			<g>
				<path class="st11" d="M32.3,95.5L32.3,95.5L32.3,95.5C32.3,95.7,32.3,95.7,32.3,95.5C32.3,95.7,32.3,95.7,32.3,95.5
					C32.3,95.7,32.3,95.7,32.3,95.5C32.3,95.7,32.3,95.7,32.3,95.5C32.3,95.7,32.3,95.7,32.3,95.5C32.3,95.7,32.3,95.7,32.3,95.5
					L32.3,95.5L32.3,95.5L32.3,95.5L32.3,95.5L32.3,95.5z"/>
			</g>
		</g>
		<g>
			<g>
				<path class="st11" d="M32.3,95.5L32.3,95.5L32.3,95.5z"/>
			</g>
		</g>
		<g>
			<g>
				<path class="st11" d="M33.4,93.6L33.4,93.6L33.4,93.6L33.4,93.6L33.4,93.6L33.4,93.6L33.4,93.6L33.4,93.6L33.4,93.6z"/>
			</g>
		</g>
		<g>
			<g>
				<path class="st12" d="M33.8,106.4L33.8,106.4L33.8,106.4z"/>
			</g>
		</g>
		<g>
			<g>
				<path class="st13" d="M37.4,90.4l0.5,0.3L37.4,90.4z"/>
			</g>
		</g>
		<g>
			<g>
				<path class="st11" d="M41.5,111.3L41.5,111.3c0.3,0,0.3,0,0.3-0.3C41.8,111.2,41.8,111.3,41.5,111.3
					C41.8,111.3,41.8,111.3,41.5,111.3L41.5,111.3z"/>
			</g>
		</g>
		<g>
			<g>
				<path class="st11" d="M56.4,92.6L56.4,92.6L56.4,92.6z"/>
			</g>
		</g>
		<g>
			<g>
				<path class="st11" d="M56.4,92.9L56.4,92.9L56.4,92.9L56.4,92.9L56.4,92.9L56.4,92.9L56.4,92.9L56.4,92.9L56.4,92.9L56.4,92.9
					L56.4,92.9L56.4,92.9L56.4,92.9L56.4,92.9z"/>
			</g>
		</g>
		<g>
			<g>
				<path class="st14" d="M57.9,95.5l0.3-0.3c0,0.3-0.3,0.7-0.3,1.2l0,0l0,0C57.9,96.2,57.9,96,57.9,95.5z"/>
			</g>
		</g>
		<g>
			<g>
				<path class="st15" d="M29.7,240.2c5.5,7.6-0.7,13.8-5.5,3.4L29.7,240.2z"/>
			</g>
		</g>
		<g>
			<g>
				<path class="st11" d="M32.3,96L32.3,96L32.3,96L32.3,96L32.3,96L32.3,96L32.3,96L32.3,96L32.3,96L32.3,96L32.3,96z"/>
			</g>
		</g>
		<g>
			<g>
				<path class="st11" d="M32.3,95.7L32.3,95.7L32.3,95.7C32.3,95.7,32.3,96,32.3,95.7C32.3,96,32.3,96,32.3,95.7
					C32.3,96,32.3,96,32.3,95.7L32.3,95.7L32.3,95.7L32.3,95.7L32.3,95.7L32.3,95.7L32.3,95.7L32.3,95.7z"/>
			</g>
		</g>
		<g>
			<g>
				<path class="st11" d="M32.3,95.7L32.3,95.7L32.3,95.7L32.3,95.7L32.3,95.7L32.3,95.7L32.3,95.7L32.3,95.7L32.3,95.7L32.3,95.7
					L32.3,95.7L32.3,95.7L32.3,95.7z"/>
			</g>
		</g>
		<g>
			<g>
				<path class="st11" d="M32.3,95.7L32.3,95.7L32.3,95.7z"/>
			</g>
		</g>
		<g>
			<g>
				<path class="st11" d="M32.3,95.5L32.3,95.5L32.3,95.5z"/>
			</g>
		</g>
		<g>
			<g>
				<path class="st12" d="M33.4,106.4C33.1,106.4,33.1,106.4,33.4,106.4C33.1,106.4,33.1,106.4,33.4,106.4L33.4,106.4L33.4,106.4
					L33.4,106.4L33.4,106.4L33.4,106.4L33.4,106.4L33.4,106.4C33.1,106.4,33.1,106.4,33.4,106.4C33.1,106.4,33.1,106.4,33.4,106.4
					C33.1,106.4,33.1,106.4,33.4,106.4z"/>
			</g>
		</g>
		<g>
			<g>
				<path class="st12" d="M33.4,106.4L33.4,106.4L33.4,106.4L33.4,106.4L33.4,106.4L33.4,106.4L33.4,106.4L33.4,106.4L33.4,106.4z"
					/>
			</g>
		</g>
		<g>
			<g>
				<path class="st12" d="M33.4,106.4L33.4,106.4L33.4,106.4L33.4,106.4L33.4,106.4L33.4,106.4L33.4,106.4L33.4,106.4L33.4,106.4z"
					/>
			</g>
		</g>
		<g>
			<g>
				<path class="st12" d="M33.4,106.4L33.4,106.4L33.4,106.4z"/>
			</g>
		</g>
		<g>
			<g>
				<path class="st12" d="M33.4,106.4L33.4,106.4L33.4,106.4L33.4,106.4L33.4,106.4L33.4,106.4L33.4,106.4L33.4,106.4L33.4,106.4z"
					/>
			</g>
		</g>
		<g>
			<g>
				<path class="st12" d="M33.5,106.4L33.5,106.4L33.5,106.4L33.5,106.4L33.5,106.4L33.5,106.4L33.5,106.4L33.5,106.4L33.5,106.4z"
					/>
			</g>
		</g>
		<g>
			<g>
				<path class="st12" d="M33.5,106.4L33.5,106.4L33.5,106.4L33.5,106.4C33.8,106.4,33.8,106.4,33.5,106.4
					C33.8,106.4,33.8,106.4,33.5,106.4L33.5,106.4L33.5,106.4L33.5,106.4z"/>
			</g>
		</g>
		<g>
			<g>
				<path class="st12" d="M33.8,106.4L33.8,106.4L33.8,106.4L33.8,106.4L33.8,106.4C34.1,106.4,34.1,106.4,33.8,106.4L33.8,106.4
					L33.8,106.4L33.8,106.4z"/>
			</g>
		</g>
		<g>
			<g>
				<path class="st12" d="M34.1,106.4L34.1,106.4L34.1,106.4L34.1,106.4L34.1,106.4L34.1,106.4L34.1,106.4L34.1,106.4L34.1,106.4z"
					/>
			</g>
		</g>
		<g>
			<g>
				<path class="st12" d="M34.1,106.4C34.3,106.4,34.3,106.4,34.1,106.4C34.3,106.4,34.3,106.4,34.1,106.4
					C34.3,106.4,34.3,106.4,34.1,106.4L34.1,106.4L34.1,106.4C34.3,106.4,34.3,106.4,34.1,106.4C34.3,106.4,34.3,106.4,34.1,106.4
					C34.3,106.4,34.3,106.4,34.1,106.4z"/>
			</g>
		</g>
		<g>
			<g>
				<polygon class="st16" points="37.4,90.4 37.4,90.4 38.1,89.8 				"/>
			</g>
		</g>
		<g>
			<g>
				<path class="st15" d="M42,187.1L42,187.1L42,187.1L42,187.1L42,187.1L42,187.1L42,187.1L42,187.1L42,187.1L42,187.1z"/>
			</g>
		</g>
		<g>
			<g>
				<path class="st17" d="M42.2,187.4L42.2,187.4L42.2,187.4L42.2,187.4L42.2,187.4L42.2,187.4L42.2,187.4L42.2,187.4
					c0,0.3-0.3-0.5-0.3-0.5l0,0l0,0l0,0l0,0C42.2,187.1,42.2,187.3,42.2,187.4L42.2,187.4L42.2,187.4L42.2,187.4z"/>
			</g>
		</g>
		<g>
			<g>
				<path class="st15" d="M42.2,182.1c0.3,0,0.7,0.3,1,0.3C43,182.2,42.5,182.2,42.2,182.1z"/>
			</g>
		</g>
		<g>
			<g>
				<path class="st11" d="M43.2,115.6L43.2,115.6L43.2,115.6z"/>
			</g>
		</g>
		<g>
			<g>
				<path class="st18" d="M35.7,135.1c2.5-1.9,5.6-2.5,8.5-3.8C41.3,132.4,38.1,133,35.7,135.1z"/>
			</g>
		</g>
		<g>
			<g>
				<polygon class="st19" points="57.1,209.4 57.1,209.4 57.1,209.4 57.1,209.4 57,209.4 57,209.4 57,209.4 				"/>
			</g>
		</g>
		<g>
			<g>
				<path class="st18" d="M47.5,182.5c-0.3,0.3-0.3,0.3-0.5,0.5C47.3,182.8,47.5,182.5,47.5,182.5L47.5,182.5L47.5,182.5L47.5,182.5
					z"/>
			</g>
		</g>
		<g>
			<g>
				<path class="st18" d="M52.7,131.8L52.7,131.8L52.7,131.8L52.7,131.8L52.7,131.8L52.7,131.8L52.7,131.8L52.7,131.8z"/>
			</g>
		</g>
		<g>
			<g>
				<path class="st20" d="M53.3,178L53.3,178L53.3,178L53.3,178c0,0.3-0.3,0.3-0.3,0.3l0,0l0,0l0,0l0,0l0,0l0,0l0,0l0,0
					C53.3,178.3,53.3,178,53.3,178z"/>
			</g>
		</g>
		<g>
			<g>
				<path class="st18" d="M53.3,178C53.3,177.8,53.5,177.8,53.3,178C53.5,177.8,53.5,178,53.3,178L53.3,178L53.3,178L53.3,178
					L53.3,178L53.3,178z"/>
			</g>
		</g>
		<g>
			<g>
				<path class="st18" d="M55.5,134.4L55.5,134.4L55.5,134.4C55.5,134.4,55.2,134.4,55.5,134.4C55.2,134.4,55.2,134.4,55.5,134.4
					C55.2,134.4,55.2,134.4,55.5,134.4C55.2,134.4,55.5,134.4,55.5,134.4L55.5,134.4L55.5,134.4z"/>
			</g>
		</g>
		<g>
			<g>
				<path class="st20" d="M35.6,134.9c8-6.1,16.5-6.4,21.8,4.5c-4.8-4-10.7-7.5-16.7-4.6c6.8,3.4-6.3,10.3-7.6,3.2
					c-2.2,1.2-3.1,2.7-4.2,4.8C29.1,139.2,31.2,133.6,35.6,134.9z"/>
			</g>
		</g>
		<g>
			<g>
				<path class="st18" d="M53.5,132.4L53.5,132.4L53.5,132.4L53.5,132.4L53.5,132.4L53.5,132.4L53.5,132.4L53.5,132.4L53.5,132.4z"
					/>
			</g>
		</g>
		<g>
			<g>
				<path class="st18" d="M54,132.8L54,132.8C54,132.8,54.2,133,54,132.8C54.2,133,54.2,133,54,132.8C54.2,133,54.2,133,54,132.8
					C54.2,133,54.2,133,54,132.8C54.2,133,54,132.8,54,132.8L54,132.8z"/>
			</g>
		</g>
		<g>
			<g>
				<path class="st18" d="M54.8,133.8C54.8,133.8,54.8,133.6,54.8,133.8C54.8,133.6,54.8,133.8,54.8,133.8z"/>
			</g>
		</g>
		<g>
			<g>
				<path class="st21" d="M54.8,181.5L54.8,181.5L54.8,181.5L54.8,181.5L54.8,181.5L54.8,181.5L54.8,181.5L54.8,181.5L54.8,181.5
					L54.8,181.5L54.8,181.5L54.8,181.5L54.8,181.5z"/>
			</g>
		</g>
		<g>
			<g>
				<path class="st21" d="M54.8,181.5L54.8,181.5L54.8,181.5z"/>
			</g>
		</g>
		<g>
			<g>
				<path class="st21" d="M54.9,181.5L54.9,181.5L54.9,181.5z"/>
			</g>
		</g>
		<g>
			<g>
				<path class="st21" d="M54.9,181.3L54.9,181.3L54.9,181.3C54.9,181.5,54.9,181.5,54.9,181.3L54.9,181.3L54.9,181.3
					C54.9,181.5,54.9,181.5,54.9,181.3C54.9,181.5,54.9,181.3,54.9,181.3L54.9,181.3L54.9,181.3z"/>
			</g>
		</g>
		<g>
			<g>
				<path class="st18" d="M54.9,181L54.9,181L54.9,181z"/>
			</g>
		</g>
		<g>
			<g>
				<path class="st11" d="M56.2,92.1L56.2,92.1L56.2,92.1z"/>
			</g>
		</g>
		<g>
			<g>
				<path class="st11" d="M56.2,92.1C56.2,92.3,56.2,92.1,56.2,92.1C56.2,92.3,56.2,92.3,56.2,92.1z"/>
			</g>
		</g>
		<g>
			<g>
				<path class="st11" d="M56.2,92.3L56.2,92.3C56.2,92.6,56.2,92.3,56.2,92.3z"/>
			</g>
		</g>
		<g>
			<g>
				<path class="st19" d="M56.2,214.6L56.2,214.6L56.2,214.6L56.2,214.6L56.2,214.6L56.2,214.6L56.2,214.6L56.2,214.6L56.2,214.6
					L56.2,214.6L56.2,214.6L56.2,214.6L56.2,214.6L56.2,214.6z"/>
			</g>
		</g>
		<g>
			<g>
				<path class="st19" d="M56.2,214.6L56.2,214.6L56.2,214.6z"/>
			</g>
		</g>
		<g>
			<g>
				<path class="st19" d="M56.2,214.6L56.2,214.6L56.2,214.6L56.2,214.6L56.2,214.6L56.2,214.6L56.2,214.6z"/>
			</g>
		</g>
		<g>
			<g>
				<path class="st19" d="M56.2,214.6L56.2,214.6L56.2,214.6L56.2,214.6L56.2,214.6L56.2,214.6L56.2,214.6L56.2,214.6L56.2,214.6
					L56.2,214.6L56.2,214.6z"/>
			</g>
		</g>
		<g>
			<g>
				<path class="st19" d="M56.2,214.9L56.2,214.9L56.2,214.9z"/>
			</g>
		</g>
		<g>
			<g>
				<path class="st19" d="M56.2,214.9L56.2,214.9L56.2,214.9z"/>
			</g>
		</g>
		<g>
			<g>
				<path class="st18" d="M56.2,214.9L56.2,214.9L56.2,214.9z"/>
			</g>
		</g>
		<g>
			<g>
				<path class="st19" d="M56.2,214.9L56.2,214.9L56.2,214.9z"/>
			</g>
		</g>
		<g>
			<g>
				<polygon class="st19" points="56.4,215.3 56.4,215.1 56.4,215.1 56.4,215.1 				"/>
			</g>
		</g>
		<g>
			<g>
				<path class="st19" d="M56.4,215.3L56.4,215.3L56.4,215.3z"/>
			</g>
		</g>
		<g>
			<g>
				<path class="st18" d="M56.2,214.9L56.2,214.9L56.2,214.9z"/>
			</g>
		</g>
		<g>
			<g>
				<path class="st11" d="M56.2,92.3L56.2,92.3L56.2,92.3z"/>
			</g>
		</g>
		<g>
			<g>
				<path class="st11" d="M56.2,92.3L56.2,92.3L56.2,92.3L56.2,92.3L56.2,92.3L56.2,92.3L56.2,92.3L56.2,92.3L56.2,92.3L56.2,92.3z"
					/>
			</g>
		</g>
		<g>
			<g>
				<path class="st19" d="M56.2,214.9L56.2,214.9L56.2,214.9z"/>
			</g>
		</g>
		<g>
			<g>
				<path class="st19" d="M56.2,215.1C56.2,215.1,56.2,214.9,56.2,215.1C56.2,214.9,56.2,214.9,56.2,215.1
					C56.2,214.9,56.2,214.9,56.2,215.1C56.2,214.9,56.2,214.9,56.2,215.1C56.2,214.9,56.2,214.9,56.2,215.1L56.2,215.1L56.2,215.1
					L56.2,215.1C56.2,214.9,56.2,215.1,56.2,215.1L56.2,215.1L56.2,215.1L56.2,215.1L56.2,215.1L56.2,215.1L56.2,215.1L56.2,215.1
					L56.2,215.1L56.2,215.1L56.2,215.1z"/>
			</g>
		</g>
		<g>
			<g>
				<path class="st19" d="M56.2,215.1L56.2,215.1L56.2,215.1L56.2,215.1L56.2,215.1L56.2,215.1L56.2,215.1L56.2,215.1L56.2,215.1z"
					/>
			</g>
		</g>
		<g>
			<g>
				<path class="st19" d="M56.2,215.1L56.2,215.1L56.2,215.1L56.2,215.1L56.2,215.1L56.2,215.1L56.2,215.1L56.2,215.1L56.2,215.1
					L56.2,215.1L56.2,215.1L56.2,215.1L56.2,215.1L56.2,215.1L56.2,215.1L56.2,215.1L56.2,215.1L56.2,215.1L56.2,215.1L56.2,215.1z"
					/>
			</g>
		</g>
		<g>
			<g>
				<path class="st11" d="M56.2,92.3C56.2,92.6,56.2,92.6,56.2,92.3C56.2,92.6,56.2,92.6,56.2,92.3C56.2,92.6,56.2,92.6,56.2,92.3
					C56.2,92.6,56.2,92.6,56.2,92.3C56.2,92.6,56.2,92.6,56.2,92.3C56.2,92.6,56.2,92.6,56.2,92.3C56.2,92.6,56.2,92.6,56.2,92.3
					C56.2,92.6,56.2,92.3,56.2,92.3L56.2,92.3L56.2,92.3L56.2,92.3L56.2,92.3z"/>
			</g>
		</g>
		<g>
			<g>
				<path class="st11" d="M56.2,92.6L56.2,92.6L56.2,92.6L56.2,92.6L56.2,92.6L56.2,92.6L56.2,92.6L56.2,92.6
					C56.4,92.6,56.4,92.6,56.2,92.6L56.2,92.6C56.4,92.6,56.4,92.6,56.2,92.6L56.2,92.6L56.2,92.6z"/>
			</g>
		</g>
		<g>
			<g>
				<polygon class="st19" points="56.4,215.3 56.4,215.3 56.4,215.3 56.4,215.1 				"/>
			</g>
		</g>
		<g>
			<g>
				<path class="st19" d="M56.2,215.1C56.2,215.1,56.4,215.1,56.2,215.1C56.4,215.1,56.4,215.1,56.2,215.1
					C56.4,215.1,56.4,215.1,56.2,215.1C56.4,215.1,56.4,215.1,56.2,215.1L56.2,215.1C56.4,215.3,56.4,215.3,56.2,215.1
					C56.4,215.1,56.4,215.1,56.2,215.1C56.4,215.1,56.4,215.1,56.2,215.1C56.4,215.1,56.4,215.1,56.2,215.1z"/>
			</g>
		</g>
		<g>
			<g>
				<path class="st19" d="M56.2,214.4L56.2,214.4L56.2,214.4L56.2,214.4L56.2,214.4C56.2,214.2,56.2,214.2,56.2,214.4
					C56.2,214.2,56.2,214.2,56.2,214.4c0.3,0,0,0.3,0,0.3l0,0l0,0l0,0l0,0l0,0l0,0l0,0l0,0l0,0l0,0l0,0l0,0l0,0l0,0l0,0l0,0l0,0l0,0
					l0,0l0,0l0,0l0,0l0,0l0,0l0,0l0,0l0,0C56.2,214.4,56.2,214.4,56.2,214.4L56.2,214.4L56.2,214.4L56.2,214.4L56.2,214.4
					L56.2,214.4L56.2,214.4z"/>
			</g>
		</g>
		<g>
			<g>
				<path class="st19" d="M56.4,215.3L56.4,215.3L56.4,215.3z"/>
			</g>
		</g>
		<g>
			<g>
				<polygon class="st19" points="56.4,215.3 56.4,215.3 56.4,215.3 56.4,215.3 				"/>
			</g>
		</g>
		<g>
			<g>
				<path class="st19" d="M56.4,215.3L56.4,215.3L56.4,215.3L56.4,215.3L56.4,215.3L56.4,215.3L56.4,215.3L56.4,215.3L56.4,215.3z"
					/>
			</g>
		</g>
		<g>
			<g>
				<path class="st11" d="M56.4,92.9L56.4,92.9L56.4,92.9L56.4,92.9L56.4,92.9L56.4,92.9L56.4,92.9L56.4,92.9L56.4,92.9L56.4,92.9
					L56.4,92.9L56.4,92.9L56.4,92.9z"/>
			</g>
		</g>
		<g>
			<g>
				<path class="st11" d="M56.4,92.9L56.4,92.9L56.4,92.9z"/>
			</g>
		</g>
		<g>
			<g>
				<path class="st19" d="M56.4,215.8L56.4,215.8L56.4,215.8z"/>
			</g>
		</g>
		<g>
			<g>
				<path class="st19" d="M56.4,215.3L56.4,215.3L56.4,215.3L56.4,215.3c0,0,0,0.3,0,0.5l0,0l0,0l0,0l0,0l0,0l0,0l0,0l0,0l0,0l0,0
					l0,0C56.4,215.8,56.4,215.6,56.4,215.3L56.4,215.3L56.4,215.3C56.4,215.6,56.4,215.6,56.4,215.3
					C56.4,215.6,56.4,215.6,56.4,215.3C56.4,215.6,56.4,215.3,56.4,215.3L56.4,215.3L56.4,215.3L56.4,215.3L56.4,215.3L56.4,215.3z"
					/>
			</g>
		</g>
		<g>
			<g>
				<path class="st19" d="M56.4,215.8L56.4,215.8L56.4,215.8L56.4,215.8L56.4,215.8L56.4,215.8L56.4,215.8L56.4,215.8L56.4,215.8
					L56.4,215.8L56.4,215.8L56.4,215.8L56.4,215.8z"/>
			</g>
		</g>
		<g>
			<g>
				<path class="st19" d="M56.4,210.8L56.4,210.8C56.7,210.8,56.4,210.8,56.4,210.8C56.7,210.8,56.4,210.8,56.4,210.8z"/>
			</g>
		</g>
		<g>
			<g>
				<path class="st19" d="M56.4,210.5L56.4,210.5L56.4,210.5C56.7,210.5,56.7,210.5,56.4,210.5L56.4,210.5
					C56.7,210.5,56.7,210.5,56.4,210.5C56.7,210.5,56.7,210.5,56.4,210.5L56.4,210.5L56.4,210.5L56.4,210.5L56.4,210.5L56.4,210.5
					L56.4,210.5L56.4,210.5z"/>
			</g>
		</g>
		<g>
			<g>
				<path class="st19" d="M56.4,215.8L56.4,215.8L56.4,215.8L56.4,215.8L56.4,215.8L56.4,215.8C56.4,216.1,56.4,216.1,56.4,215.8
					L56.4,215.8L56.4,215.8L56.4,215.8L56.4,215.8L56.4,215.8L56.4,215.8L56.4,215.8L56.4,215.8L56.4,215.8L56.4,215.8L56.4,215.8
					L56.4,215.8L56.4,215.8L56.4,215.8L56.4,215.8L56.4,215.8L56.4,215.8L56.4,215.8L56.4,215.8L56.4,215.8L56.4,215.8L56.4,215.8
					L56.4,215.8L56.4,215.8L56.4,215.8L56.4,215.8L56.4,215.8L56.4,215.8L56.4,215.8C56.7,216.1,56.4,215.8,56.4,215.8L56.4,215.8
					L56.4,215.8L56.4,215.8L56.4,215.8z"/>
			</g>
		</g>
		<g>
			<g>
				<path class="st18" d="M57,136.9C57,136.9,56.7,136.9,57,136.9L57,136.9z"/>
			</g>
		</g>
		<g>
			<g>
				<path class="st19" d="M57,212.5L57,212.5L57,212.5c-0.3,0.5-0.3,0.3-0.3,0.5C56.7,212.7,57,212.5,57,212.5L57,212.5L57,212.5z"
					/>
			</g>
		</g>
		<g>
			<g>
				<path class="st19" d="M57.1,209.4L57.1,209.4L57.1,209.4L57.1,209.4L57.1,209.4L57.1,209.4C57,209.4,57,209.4,57.1,209.4
					C57,209.4,57,209.4,57.1,209.4C57,209.4,57,209.4,57.1,209.4C57,209.4,57,209.4,57.1,209.4C57,209.4,57,209.4,57.1,209.4
					C57,209.4,57,209.4,57.1,209.4C57,209.4,57,209.4,57.1,209.4C57,209.4,57,209.4,57.1,209.4z"/>
			</g>
		</g>
		<g>
			<g>
				<path class="st18" d="M57.1,209.4L57.1,209.4L57.1,209.4z"/>
			</g>
		</g>
		<g>
			<g>
				<path class="st19" d="M57.1,209.2L57.1,209.2L57.1,209.2L57.1,209.2L57.1,209.2L57.1,209.2L57.1,209.2L57.1,209.2L57.1,209.2
					L57.1,209.2L57.1,209.2L57.1,209.2L57.1,209.2z"/>
			</g>
		</g>
		<g>
			<g>
				<path class="st19" d="M57.1,209.4L57.1,209.4L57.1,209.4L57.1,209.4L57.1,209.4L57.1,209.4L57.1,209.4L57.1,209.4L57.1,209.4
					L57.1,209.4L57.1,209.4L57.1,209.4L57.1,209.4z"/>
			</g>
		</g>
		<g>
			<g>
				<path class="st19" d="M57.1,209.2c0-0.3,0.3-0.5,0.3-0.5l0,0l0,0l0,0l0,0l0,0l0,0l0,0l0,0l0,0l0,0l0,0l0,0l0,0l0,0l0,0l0,0l0,0
					l0,0l0,0l0,0l0,0l0,0l0,0l0,0l0,0l0,0C57.1,209.2,57.1,209.2,57.1,209.2L57.1,209.2L57.1,209.2z"/>
			</g>
		</g>
		<g>
			<g>
				<path class="st22" d="M50.5,257l7,1.6V270l-24.6-6.1V252l6.5,0.1v-2.7l11.1,2.4L50.5,257L50.5,257z"/>
			</g>
		</g>
		<g>
			<g>
				<path class="st18" d="M57.7,166L57.7,166L57.7,166z"/>
			</g>
		</g>
		<g>
			<g>
				<path class="st18" d="M57.7,164.7L57.7,164.7L57.7,164.7L57.7,164.7L57.7,164.7L57.7,164.7L57.7,164.7L57.7,164.7L57.7,164.7z"
					/>
			</g>
		</g>
		<g>
			<g>
				<path class="st18" d="M57.7,165.6L57.7,165.6L57.7,165.6L57.7,165.6L57.7,165.6L57.7,165.6L57.7,165.6L57.7,165.6L57.7,165.6z"
					/>
			</g>
		</g>
		<g>
			<g>
				<path class="st12" d="M58.3,96.2c0.7-2.7,0.5,0.5,0.5,1.6C58.3,98.3,58.1,96.3,58.3,96.2z"/>
			</g>
		</g>
		<g>
			<g>
				<path class="st18" d="M58.9,219.6L58.9,219.6L58.9,219.6L58.9,219.6L58.9,219.6L58.9,219.6C58.9,219.8,59.1,219.8,58.9,219.6
					C58.9,219.8,58.9,219.6,58.9,219.6L58.9,219.6z"/>
			</g>
		</g>
		<g>
			<g>
				<path class="st18" d="M59.3,207.5C59.3,207.8,59.3,207.8,59.3,207.5C59.3,207.8,59.3,207.8,59.3,207.5
					C59.3,207.8,59.3,207.8,59.3,207.5c0,0.3,0,0.3,0,0.3S59.3,207.8,59.3,207.5z"/>
			</g>
		</g>
		<g>
			<g>
				<path class="st18" d="M60.4,220.8c0.3,0,0.3,0,0.3,0S60.7,220.8,60.4,220.8C60.7,220.8,60.4,220.8,60.4,220.8
					c-0.3,0-0.3,0-0.3,0H60.4L60.4,220.8z"/>
			</g>
		</g>
		<g>
			<g>
				<path class="st23" d="M65.6,94.8c0.5,0,0.5,0.5,0,0.7l0,0c-0.3,0-0.3,0-0.5-0.3C65.1,95,65.6,95,65.6,94.8z"/>
			</g>
		</g>
		<g>
			<g>
				<path class="st12" d="M66.1,90.4c6.3,2.4,3.7,12.1-1.9,11c-1,1.5-2.9,2.2-4.6,1.6c0.7-0.7,1.7-1.6,1.7-2.7
					C57,96.7,60,88.4,66.1,90.4z"/>
			</g>
		</g>
		<g>
			<g>
				<path class="st15" d="M64.1,265.7c-3.8-1.2-4.6-5.7-2.9-9.1c2.5,1.6,5,3.1,7.5,4.5C67.9,263.4,67,266.5,64.1,265.7z"/>
			</g>
		</g>
		<g>
			<g>
				<path class="st12" d="M69.7,92.6c1.5,0.7,1.7,3.1,0.5,3.8C70.4,94.8,70.1,93.8,69.7,92.6L69.7,92.6z"/>
			</g>
		</g>
		<g>
			<g>
				<path class="st12" d="M70.9,93.3c0.5,0,0.7,0.7,0.3,1C71.3,94.1,70.9,93.8,70.9,93.3z"/>
			</g>
		</g>
		<g>
			<g>
				<path class="st24" d="M104.3,249.3L104.3,249.3L104.3,249.3L104.3,249.3L104.3,249.3C104.1,249.3,104.3,249.3,104.3,249.3
					L104.3,249.3L104.3,249.3L104.3,249.3L104.3,249.3L104.3,249.3L104.3,249.3z"/>
			</g>
		</g>
		<g>
			<g>
				<path class="st24" d="M94.5,229.6L94.5,229.6L94.5,229.6L94.5,229.6L94.5,229.6L94.5,229.6L94.5,229.6L94.5,229.6L94.5,229.6z"
					/>
			</g>
		</g>
		<g>
			<g>
				<path class="st24" d="M94.2,229.9C94.2,229.9,94.2,229.6,94.2,229.9C94.2,229.6,94.2,229.6,94.2,229.9
					C94.5,229.6,94.5,229.9,94.2,229.9C94.2,229.6,94.2,229.6,94.2,229.9L94.2,229.9L94.2,229.9L94.2,229.9L94.2,229.9L94.2,229.9z"
					/>
			</g>
		</g>
		<g>
			<g>
				<g class="st25">
					<g>
						<g>
							<path class="st26" d="M167.3,150.4"/>
						</g>
					</g>
					<g>
						<g>
							<path class="st27" d="M167.3,138.5"/>
						</g>
					</g>
					<g>
						<g>
							<path class="st27" d="M151.9,167.8c-0.3-0.3-1-0.3-0.7-0.7C151.4,167.2,152.2,167.5,151.9,167.8z"/>
						</g>
					</g>
					<g>
						<g>
							<path class="st28" d="M151.9,120.9c-0.5,0,1,47.6-0.5,46.6"/>
						</g>
					</g>
					<g>
						<g>
							<path class="st29" d="M130.7,168c-0.1,0-0.6,0-0.6,0s-0.5-47.9,0.4-48.1L130.7,168z"/>
						</g>
					</g>
				</g>
			</g>
		</g>
		<g>
			<g>
				<path class="st30" d="M66.3,94.5c1.7,1.6-1.2,3.8-2.7,4c-2.7-2.2-0.5-7.1,1-3.8C65.1,94.5,65.8,94.3,66.3,94.5z M64.1,94.5
					c0-0.5-0.7-0.3-0.7,0.3C63.2,95,64.1,94.8,64.1,94.5 M63.2,94.5c0-0.3-0.3-0.3-0.3,0C62.9,94.8,63.2,94.8,63.2,94.5"/>
			</g>
		</g>
		<g>
			<g>
				<path class="st17" d="M43.2,180.9c3.8,0,5.3,2.1,4.4,3.8c-0.9,1.6-3.9,3.7-3.8,6.5C42.3,189.3,41,180.3,43.2,180.9z"/>
			</g>
		</g>
		<g>
			<polygon class="st31" points="130.5,119.9 151.9,120.7 151.7,166.3 130.5,168 			"/>
		</g>
		<g>
			<path class="st32" d="M161.8,121.1l-10,10.5l-0.2,35.9l19.5-0.3V121"/>
		</g>
		<g>
			<g>
				<path class="st33" d="M151.9,120.7l-0.1,11.1l10-10.6L151.9,120.7z"/>
			</g>
			<g>
				<path class="st34" d="M136,148.3c-3.8,3-5.5,9.2-5.5,9.2V168l21.3-0.5c0,0,0-35.7,0-35.9l-6.8,7.1"/>
			</g>
		</g>
		<g>
			<polygon class="st9" points="75.9,34.9 75.9,27.9 83.1,28.6 83.1,39.1 77.8,38.6 			"/>
		</g>
		<g>
			<path class="st34" d="M294.3,112.5C273.4,110.6,185,101.1,157,98.1c-10.3-1.1-19.8-2.2-27.6-3l0.2-1.6c7.8,0.8,17.3,1.8,27.6,3
				c28,3,116.3,12.5,137.3,14.5L294.3,112.5z"/>
		</g>
		<g>
			
				<rect x="170.6" y="53.1" transform="matrix(1 -2.201652e-03 2.201652e-03 1 -0.3424 0.3778)" class="st34" width="1.6" height="205.3"/>
		</g>
		<g>
			<path class="st34" d="M240.5,116c-7.4-0.5-39.2-3.5-46.6-4c-7.5-0.6-15.2-1.4-22.9-1.9l0.1-1.6c7.7,0.6,15.5,1.3,23,1.9
				c7.3,0.6,39.1,3.5,46.5,4L240.5,116z"/>
		</g>
		<g>
			<path class="st34" d="M240.2,135.7c-4.1-0.1-52-1.9-56-2.1c-3.9-0.2-8.1-0.4-12.3-0.5l0.1-1.6c4,0.1,8.2,0.4,12.3,0.5
				c4,0.2,51.9,1.9,56,2.1L240.2,135.7z"/>
		</g>
		<g>
			<rect x="171.5" y="154.6" class="st34" width="68.7" height="1.6"/>
		</g>
		<g>
			<path class="st34" d="M171.7,179.3l-0.1-1.6c3.3-0.1,6.4-0.3,9.6-0.4c3.6-0.1,56.1-2.7,59.5-2.8l0.1,1.6
				c-3.5,0.2-56,2.7-59.5,2.8C178.1,179,174.9,179.1,171.7,179.3z"/>
		</g>
		<g>
			
				<rect x="127.5" y="201.8" transform="matrix(0.9967 -8.081034e-02 8.081034e-02 0.9967 -15.8823 12.73)" class="st34" width="43.7" height="1.6"/>
		</g>
		<g>
			<path class="st34" d="M171.7,167.1l-0.1-1.6c3.7-0.2,7.2-0.3,10.7-0.3c2.5,0,110.3-2.4,112.7-2.5l0.1,1.6
				c-2.4,0.1-110.2,2.4-112.7,2.5C178.9,166.9,175.2,167,171.7,167.1z"/>
		</g>
		<g>
			<path class="st34" d="M128.1,193.1l-0.1-1.6c13.2-0.9,26.6-1.6,39.7-2.1c9.8-0.5,117.3-8.4,127-9l0.1,1.6
				c-10,0.5-117.4,8.5-127.1,9C154.7,191.6,141.4,192.1,128.1,193.1z"/>
		</g>
		<g>
			<path class="st34" d="M128.1,217.5L128,216c18.8-1.5,37.7-3.6,56.1-5.4c11.3-1.2,99.3-10.5,110.8-11.6l0.2,1.6
				c-11.4,1.1-99.5,10.4-110.8,11.6C165.8,214.1,146.9,216.2,128.1,217.5z"/>
		</g>
		<g>
			<path class="st34" d="M294.9,146.6c-2.7-0.1-109.2-2.1-111.8-2.2c-3.8-0.1-8-0.1-12-0.3l0.1-1.6c4,0.2,8.1,0.3,12,0.3
				c2.7,0,109.1,2.1,111.8,2.2L294.9,146.6z"/>
		</g>
		<g>
			<polygon class="st34" points="171.1,121.6 171.2,120 294.6,127.7 294.5,129.3 			"/>
		</g>
		<g>
			
				<rect x="102.4" y="69.1" transform="matrix(8.636841e-02 -0.9963 0.9963 8.636841e-02 1.9291 187.5039)" class="st9" width="1.6" height="47.1"/>
		</g>
		<g>
			
				<rect x="102.4" y="82.1" transform="matrix(6.154511e-02 -0.9981 0.9981 6.154511e-02 -8.558 202.1561)" class="st9" width="1.6" height="47"/>
		</g>
		<g>
			
				<rect x="102.4" y="95.2" transform="matrix(5.580661e-02 -0.9984 0.9984 5.580661e-02 -21.0936 215.0504)" class="st9" width="1.6" height="47"/>
		</g>
		<g>
			
				<rect x="102.3" y="107.2" transform="matrix(1.926540e-02 -0.9998 0.9998 1.926540e-02 -29.5025 231.1935)" class="st9" width="1.6" height="46.9"/>
		</g>
		<g>
			
				<rect x="102.5" y="120" transform="matrix(2.118028e-02 -0.9998 0.9998 2.118028e-02 -42.3798 243.6353)" class="st9" width="1.6" height="46.9"/>
		</g>
		<g>
			
				<rect x="79.7" y="155.2" transform="matrix(1 -9.607733e-03 9.607733e-03 1 -1.4935 0.9987)" class="st9" width="46.9" height="1.6"/>
		</g>
		<g>
			
				<rect x="79.7" y="168.1" transform="matrix(0.9999 -1.130035e-02 1.130035e-02 0.9999 -1.9023 1.1768)" class="st9" width="46.9" height="1.6"/>
		</g>
		<g>
			
				<rect x="79.7" y="180.4" transform="matrix(0.9993 -3.674353e-02 3.674353e-02 0.9993 -6.5875 3.9138)" class="st9" width="46.9" height="1.6"/>
		</g>
		<g>
			
				<rect x="79.6" y="193.3" transform="matrix(0.9977 -6.724142e-02 6.724142e-02 0.9977 -12.8164 7.3746)" class="st9" width="47" height="1.6"/>
		</g>
		<g>
			
				<rect x="79.6" y="219" transform="matrix(0.9957 -9.213270e-02 9.213270e-02 0.9957 -19.8094 10.4416)" class="st9" width="47.1" height="1.6"/>
		</g>
		<g>
			<polygon class="st9" points="79.8,273.3 78.2,273.3 79.2,38.6 126.7,45.7 126.6,47.3 80.8,40.5 			"/>
		</g>
		<g>
			<path class="st19" d="M31.6,209.9c0,7.4,0,36.1,0,42.8c0,0.3,7.7,1.6,8.7,1.9c0.3-12.5,0.3-25,0.5-37.6c0-3.8,0.3-7.4-0.5-11.3
				c-1-5.2-2.7-10.1-3.4-15.2c-1,0.3-1.9,1.5-2.7,1.9c-1,0.7-1.9,1.5-2.9,2.2c-1.9,1.6-3.8,3.4-5.3,5.2c-1.9,2.7-3.4,5.9-4,9.1
				c-3.4,11-3.4,24.8,1.7,35.2c3.9-1.2,7.3-3.8,7.3-3.8S24,220.1,31.6,209.9z"/>
		</g>
		<g>
			<path class="st35" d="M40.9,187.4c-1.6,0-1.8-2.9-1.6,9.3c0.3,18.2,0.6,53.3,0.6,53.3l14.9,3.3l-1.6-59.7
				C47.3,181.5,43.6,198.3,40.9,187.4z"/>
		</g>
		<g>
			<g>
				<path class="st19" d="M67.9,211.8c0.3,0.5,0.5,1.2,0.5,1.6c1.2,3.6,1.9,7.6,2.7,11.3c1.5,8.6,2.5,17.4,1.2,26
					c-0.4,2.2-3,11.3-3,11.3s-2.5-0.9-5.9-2.8c-0.5-0.3-3.2-1.9-3.2-2.4c1.9-6.7,3.4-16.2,2.7-24.2c0.3-2.9-0.7-5.5-1.2-8
					c-0.3-1.2-0.5-2.7-0.7-3.8c-0.3-1.2-0.7-2.2-1.5-3.4c0.3,14,0.5,27.8,0.5,41.8c-3.4-0.3-6.8-0.7-9.9-1.6
					c-0.3-15.7-0.7-31.2,0.5-46.6c0.3-2.4,0.5-4.9,1.9-6.7c1.9-2.2,5.3-2.9,8.2-1.6C64.8,203.9,66.8,208,67.9,211.8z"/>
			</g>
		</g>
		<g>
			<g>
				<path class="st19" d="M37.1,190.5c0,0,2-2.6,2.3-2.7v12.5L37.1,190.5z"/>
			</g>
		</g>
		<g>
			<g>
				<path class="st36" d="M37.4,189.1l4.9,22.9l-2.2-0.2c0,0,0.5,0.5,0,0c-1-4.7-4.8-20.5-4.8-20.5L37.4,189.1z"/>
			</g>
		</g>
		<g>
			<g>
				<path class="st37" d="M42,185.1l2.2,6.7c0,0-1.6,1.6-3.4,2.4c-0.3-0.5-1.9-6.7-1.9-6.9C39.3,187.3,42,185.1,42,185.1z"/>
			</g>
		</g>
		<g>
			<g>
				<path class="st38" d="M45.8,222.7v1.7l0,0c0.3,0,0.3,0,0,0c0,0,0,26.4,0,26.2c-0.3,0-2.9-0.7-2.9-0.7l0.2-27.2
					c0,0,1.6,0.7,2.7,1.8l0,0l0,0l0,0V222.7z"/>
			</g>
		</g>
		<g>
			<g>
				<path class="st38" d="M45.6,197.1l-0.4-3l-0.6-1.5c1.5,3.6,1.4,19.7,1.4,19.7s-3.2-0.5-2.9-0.5c0.4-0.9,0.1-19.4,0.1-19.4
					s1-1.2,1.3-1.2v1.2l0.2,0.2c0,0.5-0.4,0.9-0.4,1.4l0,0C44,194.7,45.3,196.9,45.6,197.1z"/>
			</g>
		</g>
		<g>
			<path class="st20" d="M65.2,185.4c-0.5-1.6-0.9-2.5-0.7-2.2c0.7-2.2,1-4.2,0.5-6.4c-1-3.8-4-6.7-5.3-10.2c-1,1.5-1.5,2.7-1.5,3.8
				c-0.3,0.3-0.3,0.7-0.5,1c-0.5,0.7-1,1.5-1.2,2.2c-0.3,0.3-0.3,0.5-0.5,0.7l0,0c-0.5,1.2-1.2,2.2-2.2,3.1c-0.5,0.5-1,0.7-1.2,1
				c-0.5,0.3-0.7,0.7-1.2,1c0.3-0.3,0.3-0.3,0.5-0.5c-6.5,3.6-11.5,11-5.8,17.8c-0.5-7.4,5-9.8,7.5-13.3c1.5-0.7,2.5-1.9,3.2-3.4
				c1.9,2.4,4.6,4.2,6.5,6.9c1.7,2.2,2.7,4.5,2.7,7.1C66.4,191.1,66.2,188.3,65.2,185.4z"/>
		</g>
		<g>
			<g>
				<path class="st39" d="M37.8,215.6l4.6,0.7c-1,1.6-1,3.6-0.3,5.2c-0.5,0-4.2-0.7-4.2-0.7L37.8,215.6z"/>
			</g>
		</g>
		<g>
			<g>
				<path class="st40" d="M37.9,220.7c0,0,4.2,0.7,4.2,0.5c0.3,0.7,0.7,1.2,1.2,1.9c-0.5-0.3-5.4-0.6-5.4-0.6L37.9,220.7z"/>
			</g>
		</g>
		<g>
			<g>
				<path class="st40" d="M45.8,215.8c3.7,0.5,4,8,0,7.7C42.5,223,41.2,215.5,45.8,215.8z"/>
			</g>
		</g>
		<g>
			<g>
				<path class="st40" d="M52,224.1l-4.1-0.5c0.2-0.5,1.1-1.1,1.5-1.3c1.1-0.5,2.8,0.6,2.8,0.6L52,224.1z"/>
			</g>
		</g>
		<g>
			<path class="st40" d="M37.8,211.4c0,0-0.3,2.5-0.1,4c1.5,0.5,4.6,0.7,4.6,0.7s3.5-3.7,7,0.9l2.7,0.5c0.2-0.7-0.1-4.5-0.1-4.5
				L37.8,211.4z"/>
		</g>
		<g>
			<g>
				<path class="st39" d="M52,217.4l-0.1,5.7c0,0-2.8-0.1-3.1-0.5c-0.8-1.2,1.5-3.8,0.1-5.6L52,217.4z"/>
			</g>
		</g>
		<g>
			<path class="st41" d="M67.2,203.6c0-1.5-0.5-2.7-1.2-3.8c0,0,0,0.3-0.3,0.3c1.7-3.1,0.3-8.4,0.3-8.4s-3-10.6-11.2-14.3
				c-0.7,2.2-2.5,3.8-3.2,5.9c-0.3,0.5-0.3,1-0.5,1.5c-3.2,2.7-4.3,4.9-4.6,6.9l0,0c-0.3,0.3-0.5,1.6-0.5,1.9
				c-0.3,0.7-0.3,1.5-0.3,2.2c-0.7-1-1.5-1.9-1.9-3.1c-0.5,8.3,8.9,12.3,2.7,19.5c3.7,2.9,8.2-0.5,9.9-3.8c0.5-1,1-2.4,0.7-3.6
				c0-0.5-0.3-0.7-0.3-1.2c0.7,0.7,1.2,1.2,1.7,2.2c-0.7,4.9-6.2,7.4-0.3,12.3c0.7,0.5,2.2,1.9,1.9,0
				C60,212.1,67.5,209.4,67.2,203.6z M65.4,200.8L65.4,200.8c0.3-0.3,0.3-0.5,0.3-0.5S65.6,200.5,65.4,200.8z"/>
		</g>
		<g>
			<g>
				<path class="st15" d="M29.7,160.8c-5.8-7.6,8-8,1.7,0.5"/>
			</g>
		</g>
		<g>
			<g>
				<path class="st42" d="M32.3,156.4c-0.7,1-1,2.2-0.5,3.4c-1-0.3-2.2-0.7-2.7-1.6C31.2,159.6,30.4,156.2,32.3,156.4z"/>
			</g>
		</g>
		<g>
			<g>
				<path class="st41" d="M30.6,165.6c-0.7-1.5-1.2-3.4-1.5-4.9c2.9,1.2,2.7-4.2,4.7-7.1c5.9,6.8-0.5,11.7-0.1,16.1
					C32.8,168.4,31.3,166.8,30.6,165.6z"/>
			</g>
		</g>
		<g>
			<g>
				<path class="st18" d="M32.3,154.7c1.5-4.8,2.9-9.3,5-13.5C40,151.2,62,151,56.3,162.1c-2.2,4.9,0.5,13.8-5,18.4
					c16.1-11.3,13.7-55.7-12.7-46.4c6.8,3.4-3.8,10.4-5.1,3.3c-6.8,3.4-6.2,12.4-5.2,18.7c1,1.5,1.9-1,3.2-0.5
					C32.1,155.2,32.3,155,32.3,154.7z"/>
			</g>
		</g>
		<g>
			<path class="st15" d="M56.2,156.2c0.5-4.8-3.8-7-8.7-7c-3.7-1.5-7.5-2.7-10.3-8.4c-0.7,2.9-6.6,12.4-4.1,13.9l1.1-1.7
				c-1.5,1.6,0.7,4.2-0.3,6.4c-1.5,2.9-1.2,5.2-0.5,8.6c1.9,19.5,23.1,19.9,22.4-1C57,163.3,61,159.5,56.2,156.2z"/>
		</g>
		<g>
			<g>
				<path class="st43" d="M40.3,155.7c0.3,0.7,0.3,1.9-0.5,1.9c-0.5,0-1-0.7-1.2-1.2c0-0.3-0.2-1.4,0.1-1.6
					C39,154.5,39.8,154,40.3,155.7z"/>
			</g>
		</g>
		<g>
			<g>
				<path class="st43" d="M50.3,155.7c0.3,0.7,0.3,1.9-0.5,1.9c-0.5,0-1-0.7-1.2-1.2c0-0.3-0.2-1.4,0.1-1.6
					C49,154.5,49.8,154,50.3,155.7z"/>
			</g>
		</g>
		<g>
			<g>
				<path class="st44" d="M42.2,164.9c5,2.2-0.3,2.9-2.7,2.4C40,165.9,41,164.7,42.2,164.9z"/>
			</g>
		</g>
		<g>
			<g>
				<path class="st44" d="M44.3,171.8c1.9,0.3,3.7-0.7,4.6-2.4c-0.5,5.9-8.2,5.9-8.9,0C41,170.9,42.7,171.8,44.3,171.8z"/>
			</g>
		</g>
		<g>
			<g>
				<path class="st44" d="M46.5,164.9c1.2,0,2.5,1.2,2.7,2.4c-1.3,0.2-5.2,1.2-6.2,0.7C42.1,167.6,43.9,165.9,46.5,164.9z"/>
			</g>
		</g>
		<g>
			<g>
				<path class="st45" d="M57.1,153.5c0.3,5.5-4.6,11-10.2,6.4c-3.8-7.4-2.7-3.6-6.8,0.5c-4.8,2.9-7.7-1.2-8.7-5.5
					c-0.7-3.8,10.2-1.2,12.4-1.2C48.7,153.1,52.7,152.5,57.1,153.5z M42.5,155.7c-0.5-3.4-12-4.2-8.4,3.6
					C36.7,162.6,42.7,159.6,42.5,155.7 M55.2,158.5c3.2-5.9-6.7-7.2-8.9-3.2C45.5,160.2,53,162.9,55.2,158.5"/>
			</g>
		</g>
		<g>
			<path class="st9" d="M44,167.2c-0.7,0-5,0-5,0c0.3,2.4,1.9,3.8,3.8,4.5c1.2,0.5,3.5,0.2,4.6-0.3c1.5-0.7,2.2-2.4,2.2-4
				C49.2,167.5,44.3,167.2,44,167.2z"/>
		</g>
		<g>
			<path class="st9" d="M268.1,228.2"/>
		</g>
		<g>
			<polygon class="st34" points="207.4,59.4 209,59.7 209,251.9 207.4,251.9 			"/>
		</g>
		<g>
			<polygon class="st34" points="239.9,64.7 241.3,65 241.3,246.3 239.9,246.3 			"/>
		</g>
		<g>
			<rect x="270.1" y="69.3" class="st34" width="1.6" height="170.6"/>
		</g>
		<path class="st46" d="M155.6,137.1l11.3,0.3v11.4h-11.3V137.1L155.6,137.1z M165.3,142.6v-1.2h-2.7v1.3L165.3,142.6L165.3,142.6z
			 M165.3,146.5v-1.3h-2.7v1.3H165.3L165.3,146.5z M165.3,144.6v-1.3l-2.7-0.1v1.3L165.3,144.6L165.3,144.6z M165.3,140.8v-1.3
			l-2.7-0.1v1.3L165.3,140.8L165.3,140.8z M162,142.6v-1.2h-1.2v1.3L162,142.6L162,142.6z M160.3,142.5v-1.3H159v1.3H160.3
			L160.3,142.5z M158.6,142.5v-1.3h-1.3v1.3H158.6L158.6,142.5z M162,146.4v-1.3h-1.2v1.3H162L162,146.4z M162,144.5v-1.3h-1.2v1.3
			H162L162,144.5z M160.3,144.5v-1.3H159v1.3H160.3L160.3,144.5z M160.3,146.4v-1.3H159v1.3H160.3L160.3,146.4z M162,140.8v-1.3
			h-1.2v1.3H162L162,140.8z M160.3,140.7v-1.3H159v1.3H160.3L160.3,140.7z M158.6,144.5v-1.3h-1.3v1.3H158.6L158.6,144.5z
			 M158.6,146.4v-1.3h-1.3v1.3H158.6L158.6,146.4z M158.6,140.7v-1.3h-1.3v1.3H158.6L158.6,140.7z"/>
		<polygon class="st47" points="147,137.6 147,147.8 136.5,147.6 136.5,137.4 		"/>
		<path class="st20" d="M60.4,173.5"/>
		<g>
			<g>
				<polyline class="st48" points="34.1,60.3 34.5,57.9 33.4,58.1 33.1,60.5 34.1,60.3 				"/>
				<polygon class="st48" points="32.7,63.6 33.7,63.4 34,61 33,61.1 				"/>
				<polygon class="st48" points="32.3,66.6 33.3,66.4 33.6,64.1 32.6,64.2 				"/>
				<polygon class="st48" points="33,58.2 23,59.9 23,60.5 24.8,62 32.6,60.6 				"/>
				<polygon class="st48" points="28.8,65 28.8,65.4 30.6,67 31.8,66.7 32.2,64.3 				"/>
				<polygon class="st48" points="32.5,61.2 25.9,62.5 25.9,62.9 27.8,64.5 32.3,63.7 				"/>
			</g>
			<g>
				<path class="st48" d="M67.7,53.5l-0.1,0.8c-0.1,0.4-0.2,0.5-0.5,0.5l-1,0.2c-0.5,0.1-0.5,0.2-0.7,0.3c-0.1,0.1-0.1,0.3-0.1,0.5
					c0,0.2,0.1,0.3,0.4,0.3l1,0.2c0.7,0.1,0.9,0.4,1,1c0,0.6-0.1,1.6-0.4,2.2c-0.3,0.5-0.6,0.7-1.2,0.9l-2.5,0.5
					c-0.2,0-0.3-0.1-0.3-0.3l0.2-1.5h0.2c0.1,0.3,0.3,0.4,0.8,0.3l1-0.2c0.4-0.1,0.5-0.2,0.6-0.4s0.2-0.4,0.1-0.5
					c0-0.3-0.1-0.4-0.6-0.4l-0.9-0.1c-0.5-0.1-0.8-0.4-0.8-0.9c0-0.5,0.1-1.3,0.3-1.8c0.3-0.6,0.6-0.9,1.4-1.1L67.7,53.5z
					 M44.1,57.8c-1.1,0.2-1.7,0.6-2.2,1.5c-0.5,0.8-0.8,2.7-0.7,3.8c0,0.7,0.3,1.2,0.7,1.4c0.3,0.1,0.7,0.1,1.5,0
					c0.8-0.2,1.3-0.4,1.6-0.5c0.2-0.2,0.2-0.3,0.3-0.9l0.1-0.9h-0.1c-0.3,0.5-0.6,0.8-1.6,0.9c-0.5,0.1-0.7,0.1-0.8,0
					c-0.1-0.1-0.2-0.3-0.2-0.5c0-0.1,0-0.3,0-0.4l0.1-0.5l2.4-0.5c0.5-0.1,0.6-0.2,0.7-0.5c0.1-0.4,0.2-1.2,0.2-1.6
					C45.8,58,45.2,57.6,44.1,57.8 M44.6,60.1l-1.8,0.4c0.2-1.1,0.5-1.5,1.1-1.6c0.5-0.1,0.7,0.1,0.8,0.5
					C44.7,59.7,44.7,59.9,44.6,60.1 M61.2,54.6c-1.1,0.2-1.7,0.6-2.2,1.5c-0.5,0.8-0.8,2.7-0.7,3.8c0,0.7,0.3,1.2,0.7,1.4
					c0.3,0.1,0.7,0.1,1.5,0c0.8-0.2,1.3-0.4,1.6-0.5c0.2-0.2,0.2-0.3,0.3-0.9l0.1-0.9h-0.1c-0.3,0.5-0.6,0.8-1.6,0.9
					c-0.5,0.1-0.7,0.1-0.8,0c-0.2-0.1-0.3-0.3-0.3-0.5c0-0.1,0-0.3,0-0.4l0.1-0.5l2.4-0.5c0.5-0.1,0.6-0.2,0.7-0.5
					c0.1-0.4,0.2-1.2,0.2-1.6C62.9,54.7,62.3,54.4,61.2,54.6 M61.8,57L60,57.4c0.2-1.1,0.5-1.5,1.1-1.6c0.5-0.1,0.7,0.1,0.8,0.5
					C61.8,56.6,61.8,56.7,61.8,57 M50.3,56.7l-0.1,0.9c-0.1,0.4-0.2,0.5-0.5,0.5l-0.5,0.1c-0.5,0.1-0.7,0.4-0.8,1.1L47.8,63
					c0,0.2,0,0.3,0,0.4c0,0.1,0.1,0.2,0.2,0.2v0.1L46.5,64c-0.2,0-0.3-0.1-0.3-0.3l0.8-5.7v-0.1c0-0.1-0.1-0.2-0.2-0.2v-0.2l1.3-0.3
					c0.2,0,0.3,0.1,0.3,0.3l-0.1,0.6l0.4-0.7c0.2-0.3,0.2-0.4,0.5-0.4L50.3,56.7z M40.9,57.2c0,0-0.6,4.8-1,7.1
					c0,0.3-0.1,0.5,0.2,0.6c0,0.1,0,0.1,0,0.2l-1.5,0.3c-0.2,0-0.3-0.1-0.3-0.3l0.5-3.6l-2,0.4c0,0-0.4,2.6-0.5,3.1
					c0,0.2,0,0.3,0,0.4c0,0.2,0.1,0.3,0.2,0.3c0,0.1,0,0.1,0,0.2l-1.5,0.3c-0.2,0-0.3-0.1-0.3-0.3c0,0,0.6-4.8,1-7.1
					c0-0.3,0.1-0.5-0.2-0.6c0-0.1,0-0.1,0-0.2l1.5-0.4c0.2,0,0.3,0.1,0.3,0.3L37,60.6l2-0.4c0,0,0.2-1.5,0.3-2.2c0-0.2,0-0.3,0-0.4
					c0-0.2-0.1-0.2-0.2-0.3c0-0.1,0-0.1,0-0.2l1.5-0.3C40.9,56.8,40.9,57,40.9,57.2 M56.7,55.5l-0.7,0.1c-0.4,0.1-0.5,0.2-0.8,0.6
					l-0.3,0.5c0-0.5-0.3-1-1-0.8L53.2,56c-0.5,0.1-0.6,0.4-0.8,0.6l-0.3,0.5l0.1-0.6c0-0.2-0.1-0.4-0.3-0.3l-1.3,0.4v0.2
					c0.1,0,0.2,0.1,0.2,0.2c0,0.1,0,0.1,0,0.1l-0.6,5.7c0,0.2,0.1,0.4,0.3,0.3l1.4-0.3v-0.2c-0.1,0-0.2-0.1-0.2-0.2
					c0-0.1,0-0.2,0-0.4c0,0,0.5-3.5,0.5-3.6c0.1-0.9,0.3-1,0.6-1.2c0.1,0,0.2,0,0.3-0.1c0.4-0.1,0.5,0.2,0.5,0.5
					c0,0.2-0.5,4.3-0.5,4.3c0,0.2,0.1,0.4,0.3,0.3l1.4-0.3v-0.1c-0.1,0-0.2-0.1-0.2-0.2c0-0.1,0-0.2,0-0.4l0.5-3.6
					c0.1-0.9,0.3-1,0.7-1.2c0.1,0,0.2,0,0.3-0.1c0.4-0.1,0.5,0.2,0.5,0.5c0,0.1-0.5,4.3-0.5,4.3c0,0.2,0.1,0.4,0.3,0.3l1.4-0.3V61
					c-0.1,0-0.2-0.1-0.2-0.2c0-0.1,0-0.2,0-0.4c0,0,0.5-4.2,0.5-4.6C57.8,56.2,57.7,55.3,56.7,55.5"/>
			</g>
		</g>
		<g>
			<g>
				<polyline class="st48" points="93.4,64.9 93.9,62.8 93.1,62.7 92.6,64.8 93.4,64.9 				"/>
				<polygon class="st48" points="92,67.4 92.9,67.4 93.4,65.4 92.4,65.3 				"/>
				<polygon class="st48" points="91.4,70 92.4,70.1 92.8,68 91.9,67.9 				"/>
				<polygon class="st48" points="92.6,62.6 83.9,61.6 83.9,62 85.4,64 92.2,64.7 				"/>
				<polygon class="st48" points="88.6,67.5 88.6,67.9 90.1,69.8 91.1,70 91.5,67.9 				"/>
				<polygon class="st48" points="92.1,65.3 86.2,64.6 86.2,65 87.8,66.9 91.6,67.3 				"/>
			</g>
			<g>
				<path class="st48" d="M122.9,67.6l-0.2,0.6c-0.1,0.3-0.2,0.4-0.5,0.4l-0.9-0.1c-0.4,0-0.5,0-0.6,0.1c-0.1,0.1-0.1,0.3-0.1,0.4
					c0,0.2,0.1,0.3,0.3,0.4l0.9,0.4c0.6,0.3,0.8,0.5,0.7,1.1c0,0.5-0.2,1.4-0.5,1.7c-0.3,0.4-0.5,0.5-1.1,0.5l-2.2-0.3
					c-0.2,0-0.3-0.2-0.2-0.4l0.3-1.3h0.1c0.1,0.3,0.2,0.4,0.7,0.5l0.8,0.1c0.3,0,0.5,0,0.5-0.1c0.1-0.1,0.2-0.3,0.2-0.5
					c0-0.3-0.1-0.3-0.5-0.5l-0.8-0.4c-0.5-0.2-0.6-0.5-0.6-1c0-0.5,0.2-1.1,0.4-1.5c0.3-0.5,0.6-0.6,1.3-0.5L122.9,67.6z
					 M102.2,65.3c-1-0.1-1.6,0.1-2,0.7c-0.5,0.6-0.8,2.2-0.9,3.3c0,0.6,0.2,1.2,0.5,1.5c0.3,0.2,0.6,0.3,1.3,0.4
					c0.7,0.1,1.1,0.1,1.4-0.1c0.2-0.1,0.2-0.2,0.4-0.7l0.2-0.7H103c-0.3,0.4-0.6,0.5-1.5,0.5c-0.4,0-0.6-0.1-0.7-0.2
					c-0.2-0.1-0.2-0.3-0.2-0.5c0-0.1,0-0.2,0-0.4l0.1-0.5l2,0.2c0.5,0.1,0.5,0,0.6-0.2c0.1-0.3,0.3-1,0.3-1.5
					C103.8,65.9,103.3,65.4,102.2,65.3 M102.6,67.4l-1.6-0.2c0.2-0.9,0.5-1.2,1.1-1.1c0.5,0.1,0.6,0.3,0.6,0.7
					C102.7,67.1,102.7,67.2,102.6,67.4 M117.1,66.9c-1-0.1-1.6,0.1-2,0.7c-0.5,0.6-0.8,2.2-0.9,3.2c0,0.6,0.2,1.1,0.5,1.4
					c0.3,0.2,0.6,0.3,1.3,0.4c0.7,0.1,1.1,0.1,1.4-0.1c0.2-0.1,0.2-0.2,0.4-0.7L118,71h-0.1c-0.3,0.4-0.6,0.5-1.5,0.5
					c-0.4,0-0.6-0.1-0.7-0.2c-0.2-0.1-0.2-0.3-0.2-0.5c0-0.1,0-0.2,0-0.4l0.1-0.5l2,0.2c0.5,0.1,0.5,0,0.6-0.2
					c0.1-0.3,0.3-1,0.3-1.4C118.7,67.5,118.2,67,117.1,66.9 M117.5,69.2l-1.6-0.2c0.2-0.9,0.5-1.1,1.1-1.1c0.5,0.1,0.6,0.3,0.6,0.6
					C117.6,68.7,117.6,68.9,117.5,69.2 M107.6,65.9l-0.2,0.7c-0.1,0.3-0.2,0.4-0.5,0.4l-0.5-0.1c-0.5-0.1-0.6,0.1-0.8,0.7l-0.6,3
					c0,0.1-0.1,0.3-0.1,0.3c0,0.1,0.1,0.2,0.2,0.3v0.1l-1.2-0.1c-0.2,0-0.3-0.2-0.2-0.4l1.1-4.8V66c0-0.1-0.1-0.2-0.2-0.3v-0.1
					l1.2,0.1c0.2,0,0.3,0.2,0.2,0.4l-0.1,0.5l0.4-0.5c0.2-0.3,0.2-0.3,0.5-0.2L107.6,65.9z M99.6,63.9c0,0-0.9,4-1.4,5.9
					c0,0.2-0.1,0.5,0.1,0.6c0,0.1,0,0.1,0,0.1l-1.2-0.2c-0.2,0-0.3-0.2-0.2-0.4l0.6-3l-1.8-0.2c0,0-0.5,2.1-0.5,2.7
					c0,0.2-0.1,0.3-0.1,0.4s0.1,0.2,0.2,0.3c0,0.1,0,0.1,0,0.2L94,70.1c-0.2,0-0.3-0.2-0.2-0.4c0,0,0.9-4.1,1.4-5.9
					c0-0.2,0.1-0.5-0.1-0.5c0-0.1,0-0.1,0-0.2l1.3,0.2c0.2,0,0.3,0.2,0.2,0.4L96,65.9l1.7,0.2c0,0,0.3-1.3,0.5-1.9
					c0-0.2,0.1-0.3,0.1-0.3c0-0.1-0.1-0.2-0.2-0.3c0-0.1,0-0.1,0-0.2l1.3,0.2C99.6,63.6,99.7,63.7,99.6,63.9 M113.2,66.4l-0.6-0.1
					c-0.4,0-0.5,0-0.7,0.4l-0.3,0.4c0-0.5-0.2-0.9-0.8-1l-0.5-0.1c-0.5-0.1-0.6,0.2-0.7,0.4l-0.3,0.4l0.1-0.5c0-0.2,0-0.3-0.2-0.4
					l-1.2-0.1v0.1c0.1,0.1,0.2,0.1,0.2,0.3v0.1L107,71c0,0.2,0,0.3,0.2,0.4l1.2,0.1v-0.1c-0.1-0.1-0.2-0.1-0.2-0.3
					c0-0.1,0-0.2,0.1-0.3c0,0,0.6-2.8,0.6-2.9c0.2-0.7,0.4-0.8,0.6-0.8c0.1,0,0.1,0,0.3,0c0.4,0,0.5,0.3,0.4,0.5
					c0,0.2-0.8,3.7-0.8,3.7c0,0.2,0,0.3,0.2,0.4l1.2,0.1v-0.1c-0.1-0.1-0.2-0.1-0.2-0.3c0-0.1,0-0.2,0.1-0.3l0.6-2.9
					c0.2-0.7,0.4-0.8,0.6-0.8c0.1,0,0.1,0,0.3,0c0.4,0,0.5,0.3,0.4,0.5c0,0.1-0.8,3.7-0.8,3.7c0,0.2,0,0.3,0.2,0.4l1.2,0.1v-0.1
					c-0.1-0.1-0.2-0.1-0.2-0.3c0-0.1,0-0.2,0.1-0.3c0,0,0.7-3.6,0.8-3.8C114.1,67.4,114.1,66.5,113.2,66.4"/>
			</g>
		</g>
		<g>
			<g>
				<path class="st49" d="M48.7,216.4c2.5,2.4,1.5,8.8-2.9,8l0,0c-5-0.7-6-10.1,0-10.1l0,0l0,0l0,0l0,0l0,0l0,0l0,0l0,0l0,0l0,0l0,0
					l0,0l0,0l0,0l0,0l0,0l0,0l0,0l0,0l0,0l0,0l0,0l0,0l0,0l0,0l0,0l0,0l0,0l0,0l0,0l0,0l0,0l0,0l0,0l0,0
					C48,214.6,48.7,216.4,48.7,216.4L48.7,216.4L48.7,216.4z M45.8,222.9c4,0.3,3.7-6.4,0-6.9C41.8,215.8,42.5,222.5,45.8,222.9"/>
			</g>
		</g>
		<g>
			<path class="st50" d="M46.3,96.7c0,0,2.7,1,3.8-3c0.5-1.3-0.2-4.5-2.7-5.2c-2.6-0.7-8.2-3.4-9.2-3.8s-1.6,0.8-1,1.8
				c0.5,0.6,2.5,3.3,2.5,3.3s-0.6-0.3-0.9,0c-0.3,0.3-0.1,1.6,2,3.5c-0.6-0.3-0.5,0.8,0.5,1.5c0.9,0.6,1.3,0.9,1.3,0.9
				s-0.8,0.2-0.1,0.7C43.2,96.8,45.5,97.7,46.3,96.7"/>
			<g>
				<path class="st9" d="M51.9,92.2h-1.1c0,0-0.4,2.5-2.9,3c-2.2,0.5-3.5-1.2-3.7-2.3c-0.3-1.6,1-2.3,1.8-2c0.6,0.3,0.6,0.9,0.5,1.6
					c0,0.1,0.1,0.2,0.2,0c0.1-0.2,0.3-0.6,0.1-1.4c-0.5-1.4-2.1-1.1-2.8,0.1c-0.6,1.1-0.9,4.2,2.3,5.4s4.2,0.5,4.2,0.5L51.9,92.2"/>
			</g>
			<path class="st51" d="M32.2,96.9l0.2,11.6c0,1,0.5,1.9,1.3,2.4l9.7,5.5c0.7,0.5,1.6,0.4,2.3-0.1l9.4-6.2c0.7-0.5,1.2-1.5,1.2-2.5
				l-0.3-11.5c0-1-0.5-1.9-1.3-2.4l-9.6-5.4c-0.7-0.5-1.6-0.4-2.3,0.1l-9.4,6.2C32.6,95,32.2,95.9,32.2,96.9"/>
			<g>
				<path class="st52" d="M43.7,116.5c-0.1,0-0.2-0.1-0.3-0.2l-9-5.1l0,0c0.1-0.2,0-0.5-0.2-0.5l-1.5-0.8c-0.2-0.4-0.4-0.8-0.4-1.3
					l0,0c0,0,0.4,0.1,0.8,0.1c0.9,0,2.3-0.5,3.1-3.1c0.5-1.3-0.1-4.5-2.7-5.3c-0.4-0.1-0.8-0.3-1.4-0.5l0.2,8.6l0,0l-0.2-11.5
					c0-0.4,0.1-0.8,0.2-1.2l2.7,1.5c0.1,0,0.1,0,0.2,0c0.1,0,0.2-0.1,0.3-0.2c0.1,0.1,0.2,0.1,0.3,0.2c0.2,0.1,0.4,0.2,0.5,0.3
					c0,0.2,0.1,0.4,0.2,0.4l2.7,1.6c0.1,0,0.1,0,0.2,0c0.1,0,0.1,0,0.2-0.1c1,0.5,2,1.1,2.7,1.6c0.1,0.1,0.3,0.2,0.4,0.2
					c0.1,0,0.2,0.1,0.3,0.1c0.8,0.4,1.3,1.2,1.4,2.1l0,0c0,0.1,0,0.3,0,0.4l0,0c0,0.3,0,0.5,0,0.9c0,2.8,0.1,7.3,0.2,10.4
					C44.4,115.7,44.1,116.3,43.7,116.5 M39.4,108.3c-0.3,0-0.5,0.3-0.5,0.6l0.1,2.2c0,0.3,0.2,0.5,0.4,0.5l2.8,1.5
					c0.1,0,0.2,0.1,0.3,0.1c0.3,0,0.5-0.3,0.5-0.6l-0.1-2.2c0-0.3-0.2-0.5-0.4-0.5l-2.8-1.5C39.6,108.4,39.5,108.3,39.4,108.3
					 M42,112.3L42,112.3l-2.6-1.1c-0.1,0-0.1-0.2-0.1-0.3c0-0.1,0.1-0.1,0.2-0.1h0.1l2.5,1.2c0.1,0,0.1,0.2,0.1,0.3
					C42.1,112.2,42.1,112.3,42,112.3 M42,111.3L42,111.3l-2.7-1.3c-0.1,0-0.1-0.2-0.1-0.3s0.1-0.1,0.2-0.1h0.1l2.5,1.2
					c0.1,0,0.1,0.2,0.1,0.3C42.1,111.2,42,111.2,42,111.3"/>
			</g>
			<g>
				<path class="st53" d="M45.1,116.5L45.1,116.5c0.2-0.1,0.4-0.2,0.5-0.3L49,114l0,0l-3.4,2.2C45.4,116.4,45.2,116.5,45.1,116.5"/>
				<path class="st54" d="M45.1,116.5c-0.4-0.4-0.6-0.9-0.6-1.5c-0.1-2.4-0.2-6.8-0.2-10.4c0-0.4,0-0.6,0-0.9c0-1.1,0.5-2.2,1.4-2.7
					l0,0c0,0,0.1,0,0.1-0.1l2.8-1.9l0,0l0,0c0.1,0.2,0.2,0.5,0.2,0.8c0,0.1,0,0.2,0,0.2c0,0.6-0.1,1.3-0.1,1.3l0,0l0,0l0,0
					c0,0,0,0.5,0.3,0.5H49c0.1,0,0.1,0,0.2-0.1c0.3-0.2,1-0.5,1.6-0.9c0.4-0.2,0.6-0.4,0.7-0.5l0,0l0,0c0.2-0.2,0.3-0.3,0.4-0.5
					c0-0.1,0-0.3,0-0.5c0-0.6,0-1.6,0-2l0,0l0,0l0,0l0,0l0,0c0-0.2,0-0.4-0.1-0.5l0,0l0,0l3.1-2.1l0,0l0.1-0.1
					c0.1,0,0.1-0.1,0.2-0.1l0,0c0.4,0,0.8,0.4,0.8,0.4l0,0c0.1,0.3,0.1,0.5,0.1,0.8l0.2,11.5c0,1-0.5,1.9-1.2,2.5l-6,3.9l-3.4,2.2
					C45.4,116.4,45.2,116.5,45.1,116.5"/>
				<path class="st55" d="M44.3,104.6c0-0.3,0-0.5,0-0.9l0,0C44.2,103.9,44.3,104.3,44.3,104.6"/>
			</g>
			<g>
				<path class="st9" d="M37.3,91.9"/>
				<path class="st9" d="M37.3,91.9l10.9,6.7c0,0,0.6,0.5,0.5,1.6c0,0.6-0.1,1.3-0.1,1.3s0.1,0.7,0.5,0.5c0.5-0.3,2-1.2,2.3-1.4
					c0.3-0.3,0.4-0.4,0.4-0.9c0-0.6-0.1-1.6,0-2c0-0.5-0.1-0.7-0.6-1.2"/>
			</g>
			<g>
				<path class="st56" d="M49,101.9C48.9,101.9,48.9,101.9,49,101.9C48.9,101.9,48.9,101.9,49,101.9c0.1,0,0.1,0,0.2-0.1
					c0.3-0.2,1-0.5,1.6-0.9c-0.5,0.4-1.3,0.7-1.6,0.9C49.1,101.9,49,101.9,49,101.9 M51.8,100c0-0.1,0-0.3,0-0.5c0-0.6,0-1.6,0-2
					c0,0.5,0,1.4,0,2C51.8,99.7,51.8,99.9,51.8,100 M51.8,97.5c0-0.2,0-0.4-0.1-0.5l0,0C51.8,97.2,51.8,97.4,51.8,97.5"/>
				<path class="st57" d="M49,101.9C48.9,101.9,48.9,101.9,49,101.9c-0.4-0.1-0.4-0.5-0.4-0.5l0,0c0,0,0.1-0.5,0.1-1.3
					c0-0.1,0-0.2,0-0.2c0-0.4-0.1-0.6-0.2-0.8l3.2-2.1c0.1,0.2,0.1,0.4,0.1,0.5l0,0l0,0l0,0c0,0.5,0,1.4,0,2c0,0.2,0,0.4,0,0.5
					c-0.1,0.2-0.2,0.3-0.4,0.5l0,0l0,0c-0.1,0.1-0.4,0.3-0.7,0.5c-0.5,0.4-1.3,0.7-1.6,0.9C49.1,101.9,49,101.9,49,101.9"/>
			</g>
			<g>
				<path class="st9" d="M33.4,94.5L33.4,94.5l3.8-2.7L33.4,94.5L33.4,94.5 M54.8,93.8L54.8,93.8L50,91l0,0L54.8,93.8L54.8,93.8
					L54.8,93.8"/>
				<path class="st58" d="M50,91l-4.8-2.8L50,91L50,91 M45.1,88.2c-0.1-0.1-0.2-0.1-0.3-0.1c0,0,0,0,0.1,0
					C44.9,88.1,45,88.2,45.1,88.2"/>
				<path class="st59" d="M44.2,101.5L44.2,101.5c-0.5,0-1-0.1-1.6-0.4c-0.1-0.1-0.3-0.2-0.4-0.2c-0.7-0.5-1.7-1-2.7-1.6
					c0,0,0.1-0.1,0.1-0.2c0.1-0.2,0-0.5-0.2-0.5l-2.7-1.6c-0.1,0-0.1,0-0.2,0c-0.1,0-0.3,0.1-0.3,0.2c0,0,0,0.1,0,0.2
					c-0.2-0.1-0.4-0.2-0.5-0.3c-0.1-0.1-0.2-0.1-0.3-0.2c0,0,0,0,0-0.1c0.1-0.2,0-0.5-0.2-0.5L32.8,95c0-0.2,0.1-0.4,0.3-0.5
					c0.1-0.1,0.1-0.1,0.2-0.2c0,0,0,0,0.1,0l3.8-2.6l0.5,0.3l10.4,6.3c0,0,0.2,0.2,0.4,0.5l-2.9,2l-0.1,0.1
					C45.2,101.3,44.6,101.5,44.2,101.5 M51.6,97c-0.1-0.2-0.3-0.4-0.5-0.5c-0.9-0.5-7.6-4.5-11-6.5l1.4-0.9l0.9,0.5
					c0.1,0,0.1,0,0.2,0c0.1,0,0.3-0.1,0.3-0.2c0-0.1,0-0.1,0-0.2l0,0c0-0.2-0.1-0.3-0.2-0.4l-0.5-0.2l0.5-0.4
					c0.4-0.3,0.7-0.4,1.2-0.4c0.3,0,0.5,0.1,0.9,0.2c0.1,0,0.2,0.1,0.3,0.1l0,0l0,0L50,91l4.7,2.7l0,0c0.5,0.3,0.5,1,0,1.3L51.6,97"
					/>
				<path class="st60" d="M42.3,100.9c-0.8-0.5-1.7-1-2.7-1.6l0,0C40.6,99.9,41.5,100.5,42.3,100.9 M36.4,97.5
					c-0.2-0.1-0.4-0.2-0.5-0.3C36,97.3,36.2,97.4,36.4,97.5L36.4,97.5"/>
				<path class="st61" d="M45.6,101L45.6,101l2.9-1.9l0,0L45.6,101C45.7,101,45.6,101,45.6,101 M51.6,97L51.6,97l3.2-2.1l0,0
					L51.6,97"/>
				<path class="st9" d="M48.5,99.1L48.5,99.1c-0.2-0.4-0.4-0.5-0.4-0.5l-10.4-6.3L39,93c0.1,0,0.1,0,0.2,0c0.1,0,0.3-0.1,0.3-0.2
					c0.1-0.2,0-0.5-0.2-0.5l-1.4-0.7l2.2-1.5c3.4,2,10.1,5.9,11,6.5c0.3,0.2,0.5,0.4,0.5,0.5l0,0L48.5,99.1"/>
			</g>
			<g>
				<path class="st62" d="M42.3,113.4c-0.1,0-0.2,0-0.3-0.1l-2.8-1.5c-0.2-0.1-0.4-0.4-0.4-0.5V109c0-0.4,0.3-0.7,0.5-0.6
					c0.1,0,0.2,0,0.3,0.1l2.8,1.5c0.2,0.1,0.4,0.4,0.4,0.5l0.1,2.2C42.9,113,42.6,113.4,42.3,113.4 M39.5,110.7
					c-0.1,0-0.1,0.1-0.2,0.1c0,0.1,0,0.2,0.1,0.3l2.5,1.2H42c0.1,0,0.1-0.1,0.2-0.1c0-0.1,0-0.2-0.1-0.3L39.5,110.7
					C39.6,110.7,39.6,110.7,39.5,110.7 M39.5,109.6c-0.1,0-0.1,0.1-0.2,0.1c0,0.1,0,0.2,0.1,0.3l2.5,1.2H42c0.1,0,0.1-0.1,0.2-0.1
					c0-0.1,0-0.2-0.1-0.3L39.5,109.6C39.6,109.6,39.6,109.6,39.5,109.6"/>
			</g>
			<g>
				<path class="st63" d="M33.3,108.6c-0.5,0-0.8-0.1-0.8-0.1l0,0v-0.1l-0.2-8.6c0.5,0.2,1,0.4,1.4,0.5c2.6,0.8,3.2,3.9,2.7,5.3
					C35.6,108.1,34.2,108.6,33.3,108.6"/>
			</g>
			<g>
				<path class="st50" d="M31,101.7c0.7-1.2,2.4-1.5,2.8-0.1c0.3,0.6,0,1.1-0.1,1.4c-0.1,0.1-0.2,0.1-0.2,0c0.1-0.6,0.1-1.4-0.5-1.6
					c-0.7-0.4-2,0.4-1.8,2c0.2,1.1,1.5,2.7,3.6,2.4c1.2-0.2,1.9-0.9,2.4-1.6c0.4-1.4-0.3-4.3-2.7-5.1c-2.6-0.8-8.1-3.6-9.1-3.9
					c-1-0.4-1.6,0.8-1,1.8c0.5,0.7,2.5,3.4,2.5,3.4s-0.6-0.3-0.9,0c-0.3,0.3-0.1,1.6,2,3.6c-0.6-0.3-0.5,0.8,0.5,1.5
					c0.9,0.6,1.3,0.9,1.3,0.9s-0.8,0.2-0.2,0.7c0.6,0.5,3,1.6,3.8,0.5C30,106,30.2,102.8,31,101.7z"/>
				<path class="st50" d="M33.3,107.1C33.3,107.1,33.2,107.1,33.3,107.1C33.2,107.1,33.2,107.1,33.3,107.1z"/>
				<path class="st9" d="M37,104.1c0-0.1,0-0.1,0.1-0.2c-0.5,0.6-1.2,1.3-2.4,1.6c-2.2,0.5-3.5-1.3-3.6-2.4c-0.3-1.6,1.1-2.3,1.8-2
					c0.6,0.3,0.6,0.9,0.5,1.6c0,0.1,0.1,0.2,0.2,0c0.1-0.2,0.3-0.6,0.1-1.4c-0.5-1.5-2.1-1.1-2.8,0.1c-0.6,1.1-1,4.2,2.2,5.4l0,0
					C33.4,107.2,35.9,108,37,104.1z"/>
			</g>
			<path class="st64" d="M35.2,85.6C35,85.5,34.9,85.2,35,85c0.1-0.2,0.2-0.2,0.3-0.2c0.1,0,0.1,0,0.2,0l1.7,0.9
				c0,0.3,0.1,0.5,0.3,0.6c0.1,0.1,0.2,0.3,0.4,0.5"/>
			<path class="st64" d="M37.7,87"/>
			<path class="st65" d="M41.6,89l-3.9-2c-0.2-0.2-0.3-0.4-0.4-0.5c-0.2-0.2-0.2-0.5-0.3-0.6l5,2.8L41.6,89"/>
			<polyline class="st66" points="41.6,89 41.6,89 42.2,88.6 42.2,88.6 41.6,89 			"/>
			<path class="st67" d="M42.6,89.6c-0.1,0-0.1,0-0.2,0l-0.9-0.5l0.7-0.5l0.5,0.3c0.1,0.1,0.2,0.2,0.2,0.4l0,0c0,0.1,0,0.1,0,0.2
				C42.9,89.5,42.7,89.6,42.6,89.6"/>
			<path class="st64" d="M33.4,84.5c-0.1,0-0.2,0-0.3-0.1c-0.1-0.1-0.1-0.2-0.1-0.3c0-0.1,0-0.2,0.1-0.3c0.1-0.1,0.1-0.1,0.3-0.1
				l0,0c0.1,0,0.2,0,0.2,0.1c0.1,0.1,0.1,0.2,0.1,0.3c0,0.1,0,0.2-0.1,0.3C33.6,84.5,33.5,84.5,33.4,84.5"/>
			<path class="st64" d="M25.5,103.9c-0.1,0-0.1,0-0.2-0.1l-2.7-2.2c-0.2-0.1-0.2-0.4-0.1-0.5c0.1-0.1,0.2-0.2,0.3-0.2
				s0.1,0,0.2,0.1l2.7,2.2c0.2,0.1,0.2,0.4,0.1,0.5S25.6,103.9,25.5,103.9"/>
			<path class="st64" d="M21.6,100.9c-0.1,0-0.2-0.1-0.2-0.2c-0.1-0.1-0.1-0.2-0.1-0.3c0-0.1,0.1-0.2,0.2-0.3s0.2-0.1,0.3-0.1
				s0.2,0.1,0.2,0.2c0.1,0.1,0.1,0.2,0.1,0.3c0,0.1-0.1,0.2-0.2,0.3C21.7,100.8,21.6,100.9,21.6,100.9"/>
			<path class="st64" d="M35.6,88.6c-0.1,0-0.1,0-0.2,0l-3-1.6c-0.2-0.1-0.3-0.4-0.2-0.5c0.1-0.2,0.2-0.2,0.3-0.2s0.1,0,0.2,0l3,1.6
				c0.2,0.1,0.3,0.4,0.2,0.5C35.7,88.5,35.6,88.6,35.6,88.6"/>
			<path class="st64" d="M33.3,93c-0.1,0-0.1,0-0.2,0l-3-1.6c-0.2-0.1-0.3-0.4-0.2-0.5c0.1-0.2,0.2-0.2,0.3-0.2c0.1,0,0.1,0,0.2,0
				l3,1.6c0.2,0.1,0.3,0.4,0.2,0.5C33.5,92.9,33.4,93,33.3,93"/>
			<path class="st64" d="M36.7,89.2c-0.1,0-0.2,0-0.3-0.1c-0.1-0.1-0.1-0.2-0.1-0.3s0-0.2,0.1-0.3c0.1-0.1,0.2-0.1,0.3-0.1
				s0.2,0,0.3,0.1c0.1,0.1,0.1,0.2,0.1,0.3s0,0.2-0.1,0.3S36.8,89.2,36.7,89.2"/>
			<path class="st64" d="M32.4,95.8l-3.7-2c-0.2-0.1-0.3-0.4-0.2-0.5c0.1-0.2,0.2-0.2,0.3-0.2c0.1,0,0.1,0,0.2,0l3.7,2
				C32.6,95.3,32.5,95.5,32.4,95.8"/>
			<path class="st66" d="M35.6,97.1c-0.9-0.5-1.8-1-2.5-1.4c-0.1,0-0.3,0-0.4,0c-0.1,0-0.1,0-0.2,0.1v0.1l0,0
				c0.1-0.3,0.2-0.5,0.4-0.6l0.2,0.1c0,0.3,0.1,0.5,0.4,0.6C33.9,96.2,34.7,96.6,35.6,97.1L35.6,97.1"/>
			<path class="st68" d="M35.3,97.3c-0.1,0-0.1,0-0.2,0l-2.7-1.5v-0.1c0.1,0,0.1,0,0.2-0.1c0.1,0,0.3,0,0.4,0.1
				c0.7,0.4,1.6,0.8,2.5,1.4C35.5,97.2,35.4,97.2,35.3,97.3"/>
			<path class="st67" d="M35.6,97.1c-0.8-0.5-1.6-0.9-2.3-1.3c-0.3-0.1-0.4-0.5-0.4-0.6l2.5,1.4C35.6,96.5,35.6,96.8,35.6,97.1
				C35.6,97,35.6,97,35.6,97.1"/>
			<path class="st68" d="M39.3,99.5c-0.1,0-0.1,0-0.2,0l-2.7-1.6c-0.1-0.1-0.2-0.3-0.2-0.4c1.1,0.6,2.2,1.3,3.3,1.8
				C39.5,99.4,39.4,99.5,39.3,99.5"/>
			<path class="st67" d="M39.5,99.4c-1.1-0.5-2.2-1.3-3.3-1.8c0-0.1,0-0.1,0-0.2c0.1-0.2,0.2-0.2,0.3-0.2c0.1,0,0.1,0,0.2,0l2.7,1.6
				C39.6,98.8,39.7,99.1,39.5,99.4C39.6,99.3,39.6,99.4,39.5,99.4"/>
			<path class="st69" d="M39.5,99.4c-1.1-0.6-2.2-1.3-3.3-1.8l0,0C37.3,98.1,38.5,98.7,39.5,99.4L39.5,99.4"/>
			<path class="st64" d="M37.2,91.9l-3.7-2c-0.2-0.1-0.3-0.4-0.2-0.5s0.2-0.2,0.3-0.2c0.1,0,0.1,0,0.2,0l3.9,2.2L37.2,91.9
				L37.2,91.9L37.2,91.9"/>
			<polyline class="st64" points="37.3,91.9 37.3,91.9 37.9,91.4 37.9,91.4 37.3,91.9 			"/>
			<polyline class="st67" points="37.7,92.2 37.2,91.9 37.3,91.9 37.3,91.9 37.7,92.2 			"/>
			<path class="st64" d="M39.2,93c-0.1,0-0.1,0-0.2,0l-1.3-0.7l-0.5-0.4l0,0l0.6-0.5l1.4,0.7c0.2,0.1,0.3,0.4,0.2,0.5
				C39.5,92.9,39.3,93,39.2,93"/>
			<path class="st64" d="M32,88.8c-0.1,0-0.2,0-0.3-0.1c-0.1-0.1-0.1-0.2-0.1-0.3s0-0.2,0.1-0.3s0.2-0.1,0.3-0.1s0.2,0,0.3,0.1
				c0.1,0.1,0.1,0.2,0.1,0.3c0,0.1,0,0.2-0.1,0.3S32.1,88.8,32,88.8"/>
			<path class="st70" d="M23,98.3L23,98.3c-0.1,0.3-0.3,0.5-0.5,0.5c0.2,0.1,0.4,0.3,0.5,0.5c0.1-0.3,0.3-0.5,0.5-0.5
				C23.3,98.6,23.2,98.5,23,98.3"/>
			<path class="st70" d="M20.9,95L20.9,95c-0.2,0.4-0.5,0.7-0.8,1c0.4,0.2,0.6,0.5,0.9,0.9c0.2-0.4,0.5-0.7,0.8-1
				C21.5,95.8,21.2,95.4,20.9,95"/>
			<path class="st70" d="M24.8,89.8L24.8,89.8c-0.2,0.4-0.5,0.7-0.8,1c0.4,0.2,0.6,0.5,0.9,0.9c0.2-0.4,0.5-0.7,0.8-1
				C25.3,90.6,25,90.2,24.8,89.8"/>
		</g>
		<g>
			<path class="st50" d="M110.5,240.9c0,0,2.6,1.1,3.8-2.7c0.5-1.3,0-4.2-2.6-5.1c-2.5-0.8-8-3.6-9-4c-0.9-0.5-1.6,0.7-1,1.6
				c0.4,0.6,2.4,3.3,2.4,3.3s-0.6-0.3-0.9,0c-0.3,0.3-0.2,1.5,1.9,3.4c-0.6-0.3-0.5,0.7,0.4,1.5c0.9,0.6,1.2,0.9,1.2,0.9
				s-0.8,0.1-0.2,0.6C107.4,240.8,109.6,241.8,110.5,240.9"/>
			<g>
				<path class="st9" d="M116.1,236.8l-1.1-0.1c0,0-0.5,2.4-3,2.7c-2.1,0.4-3.4-1.3-3.5-2.3c-0.2-1.5,1.1-2.2,1.8-1.8
					c0.6,0.3,0.5,0.9,0.5,1.6c0,0.1,0.1,0.2,0.2,0c0.1-0.2,0.4-0.6,0.1-1.3c-0.5-1.4-2-1.1-2.8,0c-0.7,1-1.1,3.9,2.1,5.2
					c3.1,1.3,4.2,0.6,4.2,0.6L116.1,236.8"/>
			</g>
			<path class="st51" d="M96.5,240.4l-0.2,11.1c0,0.9,0.5,1.8,1.2,2.3l9.3,5.7c0.7,0.5,1.6,0.5,2.3,0l9.6-5.5
				c0.7-0.5,1.3-1.3,1.3-2.3l0.2-11.1c0-0.9-0.5-1.8-1.2-2.3l-9.3-5.7c-0.7-0.5-1.6-0.5-2.3,0l-9.6,5.5
				C97,238.7,96.6,239.5,96.5,240.4"/>
			<g>
				<path class="st52" d="M107,259.6c-0.1,0-0.2-0.1-0.3-0.2l-8.6-5.3l0,0c0.1-0.2,0-0.5-0.2-0.5l-1.5-0.8c-0.2-0.4-0.4-0.8-0.4-1.3
					l0,0c0,0,0.4,0.1,0.8,0.2c0.8,0,2.3-0.5,3.1-2.8c0.5-1.3,0-4.2-2.5-5.1c-0.4-0.2-0.8-0.3-1.4-0.5l-0.2,8.2l0,0l0.2-11.1
					c0-0.4,0.1-0.7,0.3-1.1l2.7,1.6c0.1,0,0.1,0,0.2,0c0.1,0,0.2,0,0.3-0.2c0.1,0.1,0.2,0.1,0.3,0.2c0.2,0.1,0.4,0.2,0.5,0.3
					c0,0.2,0.1,0.3,0.2,0.4l2.7,1.6c0.1,0,0.1,0,0.2,0c0.1,0,0.1,0,0.2-0.1c1,0.6,1.9,1.2,2.7,1.6c0.1,0.1,0.3,0.2,0.4,0.2
					c0.1,0,0.2,0.1,0.3,0.1c0.7,0.4,1.3,1.2,1.3,2.1l0,0c0,0.1,0,0.2,0,0.4l0,0c0,0.3,0,0.5,0,0.8c-0.1,2.7-0.2,7-0.2,10
					C107.8,258.9,107.4,259.3,107,259.6 M103.2,251.7c-0.3,0-0.5,0.3-0.6,0.6v2.1c0,0.3,0.1,0.5,0.3,0.5l2.7,1.6
					c0.1,0,0.2,0.1,0.3,0.1c0.3,0,0.5-0.3,0.6-0.6v-2.1c0-0.3-0.1-0.5-0.3-0.5l-2.7-1.6C103.4,251.7,103.3,251.7,103.2,251.7
					 M105.5,255.5L105.5,255.5l-2.5-1.3c-0.1,0-0.1-0.2-0.1-0.3c0-0.1,0.1-0.1,0.2-0.1h0.1l2.5,1.3c0.1,0,0.1,0.2,0.1,0.3
					C105.6,255.4,105.6,255.5,105.5,255.5 M105.5,254.5L105.5,254.5l-2.5-1.3c-0.1,0-0.1-0.2-0.1-0.3c0-0.1,0.1-0.1,0.2-0.1h0.1
					l2.5,1.3c0.1,0,0.1,0.2,0.1,0.3C105.7,254.5,105.6,254.5,105.5,254.5"/>
			</g>
			<g>
				<path class="st53" d="M108.4,259.7L108.4,259.7c0.2,0,0.4-0.2,0.5-0.3l3.4-2l0,0l-3.4,2C108.8,259.5,108.6,259.6,108.4,259.7"/>
				<path class="st54" d="M108.4,259.7c-0.4-0.4-0.5-0.9-0.5-1.5c0-2.3,0.1-6.5,0.2-10c0-0.3,0-0.6,0-0.8c0-1.1,0.6-2.1,1.5-2.6l0,0
					c0,0,0.1,0,0.1-0.1l2.9-1.6l0,0l0,0c0.1,0.2,0.1,0.5,0.1,0.8c0,0.1,0,0.2,0,0.2c-0.1,0.6-0.2,1.2-0.2,1.2l0,0l0,0l0,0
					c0,0,0,0.5,0.3,0.5h0.1c0.1,0,0.1,0,0.2,0c0.3-0.2,1-0.5,1.6-0.8c0.4-0.2,0.6-0.4,0.7-0.5l0,0l0,0c0.2-0.1,0.3-0.2,0.4-0.4
					c0-0.1,0-0.3,0.1-0.5c0-0.6,0-1.5,0-1.9l0,0l0,0l0,0l0,0l0,0c0-0.2,0-0.4-0.1-0.5l0,0l0,0l3.2-1.8l0,0l0.1-0.1
					c0.1,0,0.1-0.1,0.2,0l0,0c0.4,0,0.8,0.5,0.8,0.5l0,0c0.1,0.3,0.1,0.5,0.1,0.8l-0.2,11.1c0,0.9-0.5,1.8-1.3,2.3l-6.1,3.7l-3.4,2
					C108.8,259.5,108.6,259.6,108.4,259.7"/>
				<path class="st55" d="M108.1,248.3c0-0.3,0-0.5,0-0.8l0,0C108.1,247.7,108.1,248,108.1,248.3"/>
			</g>
			<g>
				<path class="st9" d="M101.7,235.8"/>
				<path class="st9" d="M101.7,235.8l10.5,6.8c0,0,0.5,0.5,0.5,1.6c-0.1,0.6-0.2,1.2-0.2,1.2s0,0.7,0.5,0.5c0.5-0.2,2-1,2.4-1.2
					c0.4-0.2,0.4-0.4,0.5-0.8c0-0.6,0-1.5,0-1.9s-0.1-0.7-0.6-1.1"/>
			</g>
			<g>
				<path class="st56" d="M112.8,245.9C112.7,245.9,112.7,245.9,112.8,245.9C112.7,245.9,112.7,245.9,112.8,245.9c0.1,0,0.1,0,0.2,0
					c0.3-0.2,1-0.5,1.6-0.8c-0.5,0.3-1.3,0.6-1.6,0.8C112.9,245.9,112.8,245.9,112.8,245.9 M115.7,244.3c0-0.1,0-0.3,0.1-0.5
					c0-0.6,0-1.5,0-1.9c0,0.5,0,1.3,0,1.9C115.7,244,115.7,244.2,115.7,244.3 M115.8,241.9c0-0.2,0-0.4-0.1-0.5l0,0
					C115.8,241.5,115.8,241.7,115.8,241.9"/>
				<path class="st57" d="M112.8,245.9C112.7,245.9,112.7,245.9,112.8,245.9c-0.4-0.1-0.4-0.5-0.4-0.5l0,0c0,0,0.1-0.5,0.2-1.2
					c0-0.1,0-0.2,0-0.2c0-0.4-0.1-0.5-0.1-0.8l3.2-1.8c0.1,0.2,0.1,0.4,0.1,0.5l0,0l0,0l0,0c0,0.5,0,1.3,0,1.9c0,0.2,0,0.4-0.1,0.5
					c-0.1,0.2-0.2,0.3-0.4,0.4l0,0l0,0c-0.1,0.1-0.4,0.3-0.7,0.5c-0.5,0.3-1.3,0.6-1.6,0.8C112.9,245.9,112.8,245.9,112.8,245.9"/>
			</g>
			<g>
				<path class="st9" d="M97.7,238.2L97.7,238.2l3.9-2.4L97.7,238.2L97.7,238.2 M118.9,238.4L118.9,238.4l-4.6-2.8l0,0L118.9,238.4
					L118.9,238.4L118.9,238.4"/>
				<path class="st58" d="M114.2,235.6l-4.7-2.9L114.2,235.6L114.2,235.6 M109.5,232.5c-0.1-0.1-0.2-0.1-0.3-0.1c0,0,0,0,0.1,0
					C109.4,232.5,109.5,232.5,109.5,232.5"/>
				<path class="st59" d="M108.1,245.3L108.1,245.3c-0.5,0-1-0.2-1.5-0.5c-0.1-0.1-0.3-0.2-0.4-0.2c-0.7-0.5-1.6-1-2.7-1.6l0.1-0.1
					c0.1-0.2,0-0.5-0.2-0.5l-2.7-1.6c-0.1,0-0.1,0-0.2,0c-0.1,0-0.3,0.1-0.3,0.2v0.1c-0.2-0.1-0.4-0.2-0.5-0.3
					c-0.1-0.1-0.2-0.1-0.3-0.2c0,0,0,0,0-0.1c0.1-0.2,0-0.5-0.2-0.5l-2.4-1.4c0-0.2,0.1-0.4,0.3-0.5c0.1-0.1,0.1-0.1,0.2-0.1
					c0,0,0,0,0.1,0l3.8-2.3l0.5,0.3l10.1,6.5c0,0,0.2,0.2,0.4,0.5l-2.9,1.6l-0.1,0.1C109.2,245.2,108.6,245.3,108.1,245.3
					 M115.7,241.3c-0.1-0.2-0.3-0.4-0.5-0.5c-0.9-0.6-7.3-4.6-10.6-6.6l1.4-0.8l0.8,0.5c0.1,0,0.1,0,0.2,0c0.1,0,0.3-0.1,0.3-0.2
					c0-0.1,0-0.1,0-0.2l0,0c0-0.2-0.1-0.3-0.2-0.3l-0.5-0.3l0.5-0.4c0.4-0.2,0.7-0.3,1.2-0.3c0.3,0,0.5,0.1,0.8,0.2
					c0.1,0,0.2,0.1,0.3,0.1l0,0l0,0l4.7,2.9l4.6,2.8l0,0c0.5,0.3,0.4,0.9,0,1.2L115.7,241.3"/>
				<path class="st60" d="M106.3,244.7c-0.7-0.5-1.6-1-2.7-1.6l0,0C104.6,243.7,105.5,244.3,106.3,244.7 M100.5,241.1
					c-0.2-0.1-0.4-0.2-0.5-0.3C100.1,241,100.3,241,100.5,241.1L100.5,241.1"/>
				<path class="st61" d="M109.6,244.9L109.6,244.9l3-1.7l0,0L109.6,244.9L109.6,244.9 M115.7,241.3L115.7,241.3l3.2-1.8l0,0
					L115.7,241.3"/>
				<path class="st9" d="M112.5,243.2L112.5,243.2c-0.2-0.4-0.4-0.5-0.4-0.5l-10.1-6.5l1.2,0.7c0.1,0,0.1,0,0.2,0
					c0.1,0,0.3-0.1,0.3-0.2c0.1-0.2,0-0.5-0.2-0.5l-1.4-0.8l2.2-1.3c3.3,2,9.7,6,10.6,6.6c0.3,0.2,0.5,0.4,0.5,0.5l0,0L112.5,243.2"
					/>
			</g>
			<g>
				<path class="st62" d="M105.8,256.5c-0.1,0-0.2,0-0.3-0.1l-2.7-1.6c-0.2-0.1-0.3-0.4-0.3-0.5v-2.1c0-0.4,0.3-0.6,0.6-0.6
					c0.1,0,0.2,0,0.3,0.1l2.7,1.6c0.2,0.1,0.3,0.4,0.3,0.5v2.1C106.3,256.2,106.1,256.5,105.8,256.5 M103.2,253.9
					c-0.1,0-0.1,0.1-0.2,0.1c0,0.1,0,0.2,0.1,0.3l2.5,1.3h0.1c0.1,0,0.1-0.1,0.2-0.1c0-0.1,0-0.2-0.1-0.3L103.2,253.9L103.2,253.9
					 M103.2,252.8c-0.1,0-0.1,0.1-0.2,0.1c0,0.1,0,0.2,0.1,0.3l2.5,1.3h0.1c0.1,0,0.1-0.1,0.2-0.1c0-0.1,0-0.2-0.1-0.3L103.2,252.8
					C103.3,252.8,103.2,252.8,103.2,252.8"/>
			</g>
			<g>
				<path class="st63" d="M97.1,251.7c-0.5,0-0.8-0.2-0.8-0.2l0,0v-0.1l0.2-8.2c0.5,0.2,1,0.4,1.4,0.5c2.5,0.9,3,3.9,2.5,5.1
					C99.3,251.3,97.9,251.7,97.1,251.7"/>
			</g>
			<g>
				<path class="st50" d="M95.1,245c0.8-1.1,2.4-1.3,2.8,0c0.2,0.6,0,1.1-0.1,1.3c-0.1,0.1-0.2,0.1-0.2,0c0.1-0.6,0.1-1.3-0.5-1.6
					c-0.7-0.4-2,0.3-1.8,1.8c0.1,1,1.3,2.7,3.5,2.4c1.2-0.2,1.9-0.7,2.4-1.4c0.5-1.4-0.1-4.1-2.6-4.9c-2.5-0.9-8-3.8-8.9-4.1
					c-0.9-0.5-1.6,0.7-1,1.6c0.4,0.7,2.3,3.3,2.3,3.3s-0.6-0.3-0.9,0c-0.3,0.3-0.2,1.5,1.8,3.5c-0.6-0.3-0.5,0.7,0.4,1.5
					c0.9,0.6,1.2,0.9,1.2,0.9s-0.8,0.1-0.2,0.6c0.6,0.5,2.9,1.6,3.8,0.6C94,248.9,94.4,245.9,95.1,245z"/>
				<path class="st50" d="M97.1,250.2L97.1,250.2L97.1,250.2z"/>
				<path class="st9" d="M100.9,247.6c0-0.1,0-0.1,0.1-0.2c-0.5,0.5-1.2,1.2-2.4,1.4c-2.2,0.3-3.4-1.4-3.5-2.4
					c-0.2-1.5,1.1-2.2,1.8-1.8c0.6,0.3,0.5,0.9,0.5,1.6c0,0.1,0.1,0.2,0.2,0c0.1-0.2,0.4-0.6,0.1-1.3c-0.5-1.4-2-1.1-2.8,0
					c-0.7,1-1.1,3.9,2,5.2l0,0C97.3,250.3,99.7,251.1,100.9,247.6z"/>
			</g>
			<path class="st64" d="M99.8,229.8c-0.2-0.1-0.3-0.4-0.2-0.5c0.1-0.1,0.2-0.2,0.3-0.2c0.1,0,0.1,0,0.2,0l1.6,0.9
				c0,0.2,0.1,0.5,0.2,0.6c0.1,0.1,0.2,0.3,0.4,0.5"/>
			<path class="st64" d="M102.3,231.2"/>
			<path class="st65" d="M106,233.4l-3.8-2.2c-0.2-0.2-0.3-0.4-0.4-0.5c-0.2-0.2-0.2-0.5-0.2-0.6l4.8,2.9L106,233.4"/>
			<polyline class="st66" points="106,233.4 106,233.4 106.6,232.9 106.6,232.9 106,233.4 			"/>
			<path class="st67" d="M107,233.9c-0.1,0-0.1,0-0.2,0l-0.8-0.5l0.7-0.5l0.5,0.3c0.1,0.1,0.2,0.2,0.2,0.3l0,0c0,0.1,0,0.1,0,0.2
				C107.2,233.8,107.1,233.9,107,233.9"/>
			<path class="st64" d="M98.1,228.7c-0.1,0-0.2,0-0.3-0.1c-0.1-0.1-0.1-0.2-0.1-0.3s0-0.2,0.1-0.3c0.1-0.1,0.1-0.1,0.3-0.1l0,0
				c0.1,0,0.2,0,0.2,0.1c0.1,0.1,0.1,0.2,0.1,0.3s0,0.2-0.1,0.3C98.3,228.7,98.2,228.7,98.1,228.7"/>
			<path class="st64" d="M89.6,247c-0.1,0-0.1,0-0.2-0.1l-2.7-2.2c-0.2-0.1-0.2-0.4-0.1-0.5c0.1-0.1,0.2-0.2,0.3-0.2
				c0.1,0,0.1,0,0.2,0.1l2.7,2.2c0.2,0.1,0.2,0.4,0.1,0.5C89.8,246.9,89.7,247,89.6,247"/>
			<path class="st64" d="M85.9,243.8c-0.1,0-0.2-0.1-0.2-0.2s-0.1-0.2-0.1-0.3s0.1-0.2,0.2-0.3c0.1-0.1,0.2-0.1,0.3-0.1
				c0.1,0,0.2,0.1,0.2,0.2s0.1,0.2,0.1,0.3s-0.1,0.2-0.2,0.3C86,243.8,85.9,243.8,85.9,243.8"/>
			<path class="st64" d="M100,232.5c-0.1,0-0.1,0-0.2,0l-2.9-1.7c-0.2-0.1-0.3-0.4-0.2-0.5c0.1-0.1,0.2-0.2,0.3-0.2s0.1,0,0.2,0
				l2.9,1.7c0.2,0.1,0.3,0.4,0.2,0.5C100.2,232.5,100.1,232.5,100,232.5"/>
			<path class="st64" d="M97.7,236.8c-0.1,0-0.1,0-0.2,0l-2.9-1.7c-0.2-0.1-0.3-0.4-0.2-0.5c0.1-0.1,0.2-0.2,0.3-0.2
				c0.1,0,0.1,0,0.2,0l2.9,1.7c0.2,0.1,0.3,0.4,0.2,0.5C97.8,236.7,97.7,236.8,97.7,236.8"/>
			<path class="st64" d="M101.3,233.4c-0.1,0-0.2,0-0.3-0.1c-0.1-0.1-0.1-0.2-0.1-0.3s0-0.2,0.1-0.3c0.1-0.1,0.2-0.1,0.3-0.1
				c0.1,0,0.2,0,0.3,0.1c0.1,0.1,0.1,0.2,0.1,0.3s0,0.2-0.1,0.3C101.5,233.3,101.4,233.4,101.3,233.4"/>
			<path class="st64" d="M96.7,239.3l-3.5-2.1c-0.2-0.1-0.3-0.4-0.2-0.5c0.1-0.1,0.2-0.2,0.3-0.2c0.1,0,0.1,0,0.2,0l3.6,2.1
				C97,238.9,96.8,239.1,96.7,239.3"/>
			<path class="st66" d="M99.7,240.7c-0.9-0.5-1.7-1-2.4-1.5c-0.1-0.1-0.3-0.1-0.4-0.1c-0.1,0-0.1,0-0.2,0v0.1l0,0
				c0.1-0.2,0.3-0.5,0.4-0.6l0.2,0.1c0,0.3,0.1,0.5,0.4,0.6C98.2,239.9,98.9,240.2,99.7,240.7L99.7,240.7"/>
			<path class="st68" d="M99.4,240.9c-0.1,0-0.1,0-0.2,0l-2.7-1.6l0,0c0.1,0,0.1,0,0.2,0c0.1,0,0.3,0.1,0.4,0.1
				C97.7,239.9,98.7,240.2,99.4,240.9C99.7,240.8,99.6,240.9,99.4,240.9"/>
			<path class="st67" d="M99.7,240.7c-0.8-0.5-1.6-0.9-2.2-1.3c-0.3-0.1-0.4-0.5-0.4-0.6l2.4,1.4C99.8,240.2,99.9,240.5,99.7,240.7
				C99.8,240.7,99.8,240.7,99.7,240.7"/>
			<path class="st68" d="M103.5,243.2c-0.1,0-0.1,0-0.2,0l-2.7-1.6c-0.1-0.1-0.2-0.3-0.2-0.4c1,0.6,2.1,1.3,3.2,1.9
				C103.6,243.2,103.5,243.2,103.5,243.2"/>
			<path class="st67" d="M103.7,243.1c-1-0.6-2.1-1.3-3.2-1.9c0-0.1,0-0.1,0-0.1c0.1-0.1,0.2-0.2,0.3-0.2c0.1,0,0.1,0,0.2,0l2.7,1.6
				C103.8,242.5,103.9,242.8,103.7,243.1C103.7,243,103.7,243.1,103.7,243.1"/>
			<path class="st69" d="M103.7,243.1c-1-0.6-2.1-1.3-3.2-1.9l0,0C101.5,241.8,102.6,242.4,103.7,243.1L103.7,243.1"/>
			<path class="st64" d="M101.7,235.8l-3.5-2.1c-0.2-0.1-0.3-0.4-0.2-0.5c0.1-0.1,0.2-0.2,0.3-0.2s0.1,0,0.2,0l3.8,2.3L101.7,235.8
				L101.7,235.8L101.7,235.8"/>
			<polyline class="st64" points="101.7,235.8 101.7,235.8 102.4,235.5 102.4,235.5 101.7,235.8 			"/>
			<polyline class="st67" points="102.2,236.2 101.7,235.8 101.7,235.8 101.7,235.8 102.2,236.2 			"/>
			<path class="st64" d="M103.6,236.9c-0.1,0-0.1,0-0.2,0l-1.2-0.7l-0.5-0.3l0,0l0.7-0.4l1.4,0.8c0.2,0.1,0.3,0.4,0.2,0.5
				C103.8,236.8,103.7,236.9,103.6,236.9"/>
			<path class="st64" d="M96.6,232.7c-0.1,0-0.2,0-0.3-0.1s-0.1-0.2-0.1-0.3c0-0.1,0-0.2,0.1-0.3c0.1-0.1,0.2-0.1,0.3-0.1
				s0.2,0,0.3,0.1c0.1,0.1,0.1,0.2,0.1,0.3c0,0.1,0,0.2-0.1,0.3C96.7,232.7,96.6,232.7,96.6,232.7"/>
			<path class="st70" d="M87.4,241.3L87.4,241.3c-0.1,0.2-0.3,0.4-0.5,0.5c0.2,0.1,0.4,0.3,0.5,0.5c0.1-0.2,0.3-0.4,0.5-0.5
				C87.7,241.8,87.5,241.6,87.4,241.3"/>
			<path class="st70" d="M85.4,238.1L85.4,238.1c-0.2,0.4-0.5,0.7-0.8,0.9c0.4,0.2,0.6,0.5,0.8,0.9c0.2-0.4,0.5-0.7,0.8-0.9
				C85.9,238.9,85.6,238.6,85.4,238.1"/>
			<path class="st70" d="M89.5,233.4L89.5,233.4c-0.2,0.4-0.5,0.7-0.8,0.9c0.4,0.2,0.6,0.5,0.8,0.9c0.2-0.4,0.5-0.7,0.8-0.9
				C89.8,234.1,89.6,233.7,89.5,233.4"/>
		</g>
		<g>
			<path class="st71" d="M214,82.4c0,19.5,0,19.5,0,19.5c0,0.8,0.6,1.6,1.5,1.6c18.8,1.8,18.8,1.8,18.8,1.8c0.9,0.1,1.8-0.6,1.8-1.6
				c0-19.5,0-19.5,0-19.5c0-0.8-0.6-1.6-1.5-1.6c-18.8-1.9-18.8-1.9-18.8-1.9C214.9,80.6,214,81.3,214,82.4L214,82.4z"/>
			<path class="st71" d="M234.7,82.6c-6.3-0.6-6.3-0.6-6.3-0.6c0,0.1,0.1,0.2,0.1,0.4c0,2.5,0,2.5,0,2.5c0,0.6-0.5,1.2-1.3,1.1
				c-3.4-0.4-3.4-0.4-3.4-0.4c-0.5-0.1-1-0.5-1-1.1c0-2.5,0-2.5,0-2.5c0-0.2,0.1-0.4,0.2-0.5c-7.1-0.7-7.1-0.7-7.1-0.7
				c-0.9-0.1-1.8,0.6-1.8,1.6c0,19.5,0,19.5,0,19.5c0,0.8,0.6,1.6,1.5,1.6c18.8,1.8,18.8,1.8,18.8,1.8c0.9,0.1,1.8-0.6,1.8-1.6
				c0-19.5,0-19.5,0-19.5C236.1,83.5,235.5,82.7,234.7,82.6L234.7,82.6z"/>
			<path class="st72" d="M222.9,84.5c0,0.6,0.5,1.1,1,1.1c3.4,0.4,3.4,0.4,3.4,0.4c0.6,0.1,1.3-0.5,1.3-1.1c0-2.5,0-2.5,0-2.5
				c0-0.1,0-0.2-0.1-0.4c-5.4-0.5-5.4-0.5-5.4-0.5c-0.1,0.2-0.2,0.4-0.2,0.5V84.5z"/>
		</g>
	</g>
	<polygon class="st73" points="211.7,100.3 211.7,101 211.7,101 216,101.1 250.6,98.2 248.8,97.3 	"/>
	<polygon class="st9" points="248.8,97.4 250.6,98.3 250.6,54.6 248.8,53.8 	"/>
	<g>
		<g>
			<g>
				<path class="st74" d="M200.6,147.9l-7-51.3c-0.3-2.9-3.1-4.9-6.1-4.4L111,102c-3,0.3-5.1,3-4.6,5.8l7,51.3
					c0.3,2.9,3.1,4.9,6.1,4.4l76.5-9.8C198.8,153.4,200.9,150.8,200.6,147.9z M116.9,113.5c-2.1,0-3.8-1.6-3.8-3.7
					c0-2,1.7-3.7,3.8-3.7c2.1,0,3.8,1.6,3.8,3.7C120.7,111.8,119.1,113.5,116.9,113.5z M182.5,104.6c-2.1,0-3.8-1.6-3.8-3.7
					s1.7-3.7,3.8-3.7s3.8,1.6,3.8,3.7C186.4,103,184.6,104.6,182.5,104.6z"/>
			</g>
		</g>
		<g>
			<g>
				<path class="st75" d="M202.3,148.2l-7-51.3c-0.3-2.9-3.1-4.9-6.1-4.4l-76.5,9.8c-3,0.3-5.1,3-4.6,5.8l7,51.3
					c0.3,2.9,3.1,4.9,6.1,4.4l76.5-9.8C200.6,153.8,202.7,151.1,202.3,148.2z M118.7,113.5c-2.1,0-3.8-1.6-3.8-3.7
					c0-2,1.7-3.7,3.8-3.7c2.1,0,3.8,1.6,3.8,3.7C122.5,111.8,120.8,113.5,118.7,113.5z M184.3,104.6c-2.1,0-3.8-1.6-3.8-3.7
					s1.7-3.7,3.8-3.7s3.8,1.6,3.8,3.7C188.2,103,186.4,104.6,184.3,104.6z"/>
			</g>
		</g>
		<g>
			<g>
				<path class="st9" d="M191.8,148.1c-66.4,8.9-66.4,8.9-66.4,8.9c-1.9,0.2-3.6-1-3.9-2.8c-4.4-29.7-4.4-29.7-4.4-29.7
					c-0.2-1.8,1.1-3.5,2.9-3.8c66.4-8.9,66.4-8.9,66.4-8.9c2-0.2,3.7,1,3.9,2.8c4.4,29.7,4.4,29.7,4.4,29.7
					C194.9,146.1,193.7,147.8,191.8,148.1z"/>
			</g>
			<g>
				<path class="st76" d="M139.9,138.9c0.6,3.6,0.6,3.6,0.6,3.6c-13.1,1.7-13.1,1.7-13.1,1.7c-0.2-0.8-0.2-0.8-0.2-0.8
					c4.9-4.7,4.9-4.7,4.9-4.7c0.8-0.8,1.5-1.5,1.8-2s0.5-1.1,0.3-1.6c-0.1-0.4-0.2-0.8-0.7-1.1c-0.4-0.2-0.8-0.3-1.4-0.3
					c-0.6,0.1-0.9,0.2-1.2,0.6c-0.2,0.3-0.3,0.8-0.2,1.3c0,0.2,0.1,0.4,0.2,0.8c-4.3,0.6-4.3,0.6-4.3,0.6c-0.2-0.4-0.3-0.9-0.3-1.2
					c-0.2-1.3,0.2-2.6,1.2-3.9c1-1.2,2.5-1.9,4.3-2.2c1.7-0.2,3.3,0.1,4.7,0.9c1.3,0.8,2.1,1.9,2.3,3.4c0.2,0.9,0.1,1.7-0.4,2.6
					c-0.3,0.8-1,1.7-2.1,2.8L139.9,138.9z"/>
			</g>
			<g>
				<polygon class="st76" points="156.9,140.1 154.9,140.4 155.3,143.4 150.9,144 150.5,141 142.1,142.2 142,141.1 144.9,128.2 
					149.5,127.7 147,137.9 149.9,137.5 149.3,133.5 153.8,132.9 154.4,136.9 156.3,136.6 				"/>
			</g>
			<g>
				<polygon class="st76" points="162.1,142.5 157.6,143.1 167.7,119.2 172.3,118.5 				"/>
			</g>
			<g>
				<polygon class="st76" points="185,122.8 185.1,123.9 180.1,140 175.3,140.7 179.6,127.4 173.2,128.2 172.6,124.5 				"/>
			</g>
		</g>
		<g>
			<g>
				<path class="st77" d="M118.7,108.7c-0.2,0-0.4-0.1-0.7-0.2c-0.6-0.3-0.7-1.1-0.3-1.6l31.8-48.1c0.2-0.3,1.2-2,3-2.1
					c0.7-0.1,1.9,0.2,3,1.5c1.7,2.2,27.3,38.6,28.4,40.1c0.3,0.5,0.2,1.2-0.3,1.6c-0.6,0.3-1.2,0.2-1.6-0.3
					c-0.2-0.3-26.6-37.9-28.3-39.9c-0.3-0.4-0.7-0.7-1-0.7c-0.4,0.1-1,0.7-1.1,1l-0.1,0.1l-31.7,48.1
					C119.5,108.6,119.1,108.7,118.7,108.7z"/>
			</g>
		</g>
		<g>
			<polygon class="st7" points="149.8,62.2 147.4,62.5 149.1,60.8 163.9,53.8 164.6,55.2 			"/>
		</g>
		<g>
			<polygon class="st78" points="149.4,61.6 147.4,62.5 149.1,60.8 154.1,58.4 164,54 164.2,54.4 			"/>
		</g>
		<g>
			<polygon class="st7" points="149.4,61.5 147.4,62.5 149.7,62 164.5,54.9 164.2,54.4 			"/>
		</g>
		<g>
			<path class="st7" d="M156,58.4c-0.1-0.2-0.2-0.4-0.4-0.7c-1.3,0.7-1.3,0.7-1.3,0.7c0.1,0.2,0.2,0.4,0.3,0.7
				c0.1,0.2,0.2,0.4,0.4,0.7c1.4-0.7,1.4-0.7,1.4-0.7C156.1,58.9,156.1,58.6,156,58.4z"/>
		</g>
		<g>
			<path class="st79" d="M161.1,59.8c2,4.3,2,4.3,2,4.3c2.8-1.9,3.5-6.1,1.6-9.7c-2.1-4-6.4-5.9-9.8-4.3l0,0c0,0-0.1,0-0.1,0.1
				c-1.7,0.9-1.6,4.8,0.5,8.8c0.6,1.1,1.1,2,1.7,2.8c0.2-0.1,0.7-0.2,2.1-0.8C160.9,59.9,161.1,59.8,161.1,59.8z"/>
		</g>
		<g>
			<path class="st80" d="M162.3,64.5L162.3,64.5c0.1,0,0.1-0.1,0.1-0.1s0,0,0.1,0c0,0,0.1,0,0.1-0.1l0,0c0,0,0.1,0,0.1-0.1l0,0
				c0.1,0,0.1-0.1,0.1-0.1l0,0c0.1,0,0.1-0.1,0.1-0.1l0,0l0.1-0.1l0,0c2.9-1.9,3.8-6.1,1.8-9.8c-0.2-0.5-0.6-1-0.8-1.4
				c0.7,2.5-0.4,5.2-2.8,6.8l0,0c0,0-0.2,0.2-2.1,1.1c-1.3,0.6-1.8,0.8-2.1,0.8c1.8,2.3,3.9,3.5,5.2,2.9
				C162.2,64.5,162.2,64.5,162.3,64.5z"/>
		</g>
		<g>
			<path class="st80" d="M162.2,64.5c0.1-0.1,0.2-0.1,0.2-0.2c-1.6,0.4-4.3-1.6-6.2-4.9c-0.5,0.2-0.5,0.2-0.5,0.2
				C157.8,63.3,160.6,65.3,162.2,64.5z"/>
		</g>
		<g>
			<path class="st79" d="M166.7,49.5c-4.9,2.4-4.9,2.4-4.9,2.4c-0.8,0.4-0.8,2.1,0.1,3.8c0.8,1.7,2.2,2.8,3,2.4
				c4.9-2.4,4.9-2.4,4.9-2.4L166.7,49.5z"/>
		</g>
		<g>
			<path class="st81" d="M167.1,50.4c-6,2.9-6,2.9-6,2.9c0,0.3,0.1,0.7,0.1,0.9c6.2-3,6.2-3,6.2-3L167.1,50.4z"/>
		</g>
		<g>
			<path class="st79" d="M167.6,51.3c-6.2,3-6.2,3-6.2,3c0.1,0.4,0.2,0.9,0.6,1.3c6.4-3,6.4-3,6.4-3L167.6,51.3z"/>
		</g>
		<g>
			<path class="st79" d="M169.6,55.8c0.3-0.2,0.3-0.2,0.3-0.2c-1.6-3-1.6-3-1.6-3c-6.4,3-6.4,3-6.4,3l0,0c0.3,0.7,0.8,1.2,1.2,1.7
				c5.8-2.8,5.8-2.8,5.8-2.8L169.6,55.8z"/>
		</g>
		<g>
			<path class="st79" d="M174.7,56.9c-2.8,1.3-6.4-0.2-8-3.5s-0.8-7,2-8.4L174.7,56.9z"/>
		</g>
		<g>
			<path class="st80" d="M173,53.4c-2.4,1.1-5.2,0.6-6.8-1.3c0.1,0.4,0.3,0.8,0.6,1.2c1.6,3.3,5.3,4.8,8,3.5L173,53.4z"/>
		</g>
		<g>
			<path class="st79" d="M169.4,52c1.6,3.1,4,5.2,5.5,4.7c1.3-0.9,1.1-4-0.6-7.1c-1.6-3.1-4-5.2-5.5-4.7
				C167.6,45.8,167.9,48.9,169.4,52z"/>
		</g>
		<g>
			<g>
				<path class="st77" d="M153.7,57c-0.4-0.2-0.8-0.2-1.2-0.2c-1.7,0.2-2.8,1.7-3,2.1L117.7,107c-0.3,0.5-0.2,1.2,0.3,1.6
					c0.2,0.1,0.4,0.2,0.7,0.2c0.3,0,0.7-0.2,1-0.5l31.8-48.1l0.1-0.1c0.2-0.3,0.7-1,1.1-1C152.6,58.3,153,57.5,153.7,57z"/>
			</g>
		</g>
	</g>
	<g>
		<g>
			<g>
				<path class="st82" d="M183.8,248.2c-1.1,0.4-1.8,0.6-2.7,0.8c-7.4,2.1-14.5,1.1-20.8-2.7c-4.1-2.5-7.5-6-10.6-10.4
					c-2.5-3.6-4.4-8.3-6-13.3c-2.5-8-4.1-17.8-4.9-29.4c-1.1-18.9-0.7-30.7-0.3-31.4c0.6-5.6,5.3-9.5,10.8-9.1
					c5.6,0.6,9.5,5.3,9.1,10.8c0.1,0.2-0.5,11,0.4,28.4c0.6,9.9,2,18.1,4.2,24.5c1.9,6.4,4.6,11,7.5,12.5c1.7,1,3.3,1.4,5.6,0.6
					c2.7-0.8,6.2-2.6,9.7-5.5c3.3-2.8,6.7-6.6,10.3-10.9c6.1-7.8,10.2-15,10.2-15c2.8-5,9-6.4,13.5-3.7c4.9,2.6,6.4,9,3.7,13.5
					c-0.3,0.3-5,8.8-12,17.7c-4.2,5.5-8.8,10.2-13.1,13.7C193.6,243.4,188.7,246.4,183.8,248.2z"/>
				<path class="st83" d="M182,222.7c19.1,17.8,19.1,17.8,19.1,17.8c24.3-28.1,24.3-28.1,24.3-28.1c-3.7-27.3-3.7-27.3-3.7-27.3
					s-5.4,2.1-10.9,6.8c-4.4,3.6-8.3,8.4-13.7,15C182.5,223,182,222.7,182,222.7z"/>
				<path class="st84" d="M211.3,209.5c0-18.1,14.9-33.2,33.2-33.2c18.1,0,33.2,14.9,33.2,33.2c0,120.1,0,81,0,81"/>
				<path class="st84" d="M243.9,186.4L243.9,186.4c-3.2,0-6-2.6-6.5-6c0-13.4,0-13.4,0-13.4c0.4-3.5,3.2-6,6.5-6s6,2.6,6.7,6
					c0.6,0,0.6,13.4,0,13.4C250.3,183.8,247.5,186.4,243.9,186.4z"/>
				<path class="st82" d="M222.8,319.2"/>
				<path class="st9" d="M240.8,314.4"/>
				<path class="st9" d="M240.8,314.4"/>
				<path class="st9" d="M240.8,314.4"/>
				<line class="st85" x1="220.1" y1="314.1" x2="222.8" y2="314.1"/>
				<path class="st86" d="M197.3,316c0.2-0.4,0.2-0.4,0.2-0.4C197.3,315.8,197.3,315.8,197.3,316C197.3,315.8,197.3,316,197.3,316z"
					/>
				<path class="st83" d="M277.9,314.1c0-92,0-83.7,0-83.7c1.5,2.2,3,5.2,4.8,9.1c20.5-9.3,20.5-9.3,20.5-9.3
					c-11.8-26.5-24.2-36.2-31.5-39.7c-3.5-5-9.1-9.5-14.7-12.1c-13.6,25.7-13.6,25.7-13.6,25.7c-6-13.2-6-13.2-6-13.2
					c-6.7-11.4-6.7-11.4-6.7-11.4c-5.6,2.4-9.5,6-13.2,10.8c-6,39.4-6,39.4-6,39.4c-0.6,0-0.6,84.4,0,84.4"/>
				<path class="st87" d="M226.3,182.3c3.2-2.2,6.9-4.5,11-5.2c0,0,0-1.1,0-2.8c-6.3,1.1-6.3,1.1-6.3,1.1L226.3,182.3z"/>
				<path class="st87" d="M257.9,175.3c-6.9-1.1-6.9-1.1-6.9-1.1c0,1.7,0,2.8,0,2.8c3.7,0.6,7.3,2.2,10.6,4.1L257.9,175.3z"/>
				<path class="st86" d="M197.5,315.7c-0.4,0.2-0.4,0.2-0.4,0.2v0.2L197.5,315.7z"/>
				<polygon class="st88" points="231.2,175.2 222.8,182.3 229.4,204.9 240.4,194.6 				"/>
				<polygon class="st88" points="265.4,182.5 257.9,175.2 247.3,194.4 259,204.7 				"/>
				<path class="st83" d="M209.8,195c1.3,34.7,1.3,34.7,1.3,34.7c8.4-40.5,8.4-40.5,8.4-40.5C217.6,189.9,212.6,192.5,209.8,195z"/>
				<path class="st83" d="M278.4,195c-1.3,34.7-1.3,34.7-1.3,34.7c-8.4-40.5-8.4-40.5-8.4-40.5C270.8,189.9,275.6,192.5,278.4,195z"
					/>
				<line class="st85" x1="220.1" y1="314.1" x2="222.8" y2="314.1"/>
				<line class="st85" x1="264.8" y1="314.1" x2="267.6" y2="314.1"/>
			</g>
		</g>
		<g>
			<path class="st82" d="M271,91.6c0.4,3.7-0.2,24.6-0.2,24.6c1.1,0,6,0.6,6,5.4c0,4.5-3,5.4-4.8,5.2c0,0-1.7,28.4-6,33.8
				c-5.6,7.3-18.1,16.4-35.4,6.9c-7.3-4.1-12.5-11.8-14.4-20c-3-14.9-3.7-21.3-3.7-21.3s-13.6,0.9-9.7-10.6
				c1.7-6.9,12.1-3.5,12.1-3.5s-3-11.9,1.7-25.6C222.3,70.9,266.3,69.2,271,91.6z"/>
			<path class="st89" d="M213.5,114.7c-1.3,0-4.8,1.7-4.3,4.3c-0.4,0.4-1.1,0.6-1.5,0.6c-0.9,0-1.9-0.4-2.6-1.5
				c1.1,3,5.4,3.9,6.7,3.9c0.2,0,0.2,0,0.4,0c0,0-1.7-5,1.9-7.1C213.9,114.7,213.7,114.7,213.5,114.7z"/>
			<path class="st89" d="M243.2,113.2c-7.3,0-14.5,1.5-17.2,4.5c35.3,0,35.3,0,35.3,0C257.7,114.6,250.3,113.2,243.2,113.2z"/>
			<path class="st90" d="M257.7,117.4c0,0.2,0,0.2,0,0.4c-4.3,0-4.3,0-4.3,0c0-0.2,0-0.2,0-0.4c0-3,1.1-5.6,2.2-5.6
				C257,111.8,257.7,114.2,257.7,117.4z"/>
			<path class="st90" d="M233.5,117.4c0,0.2,0,0.2,0,0.4c-4.3,0-4.3,0-4.3,0c0-0.2,0-0.2,0-0.4c0-3,1.1-5.6,2.2-5.6
				C232.7,111.8,233.5,114.2,233.5,117.4z"/>
			<path class="st91" d="M270.6,83.6c2.6-1.7,2.6-1.7,2.6-1.7c-1.3,26.9-1.3,26.9-1.3,26.9c0,1.3,0.4,8.6-0.9,9
				c-1.3,0.2-1.7-5-1.9-6.9c-2.6-26.5-2.6-26.5-2.6-26.5L270.6,83.6z"/>
			<path class="st91" d="M213.7,116.4L213.7,116.4c1.1,2.2,2.4-2.4,2.8-4.8c4.1-23.5,4.1-23.5,4.1-23.5s40.5,8,50.9-2.6
				c6-5.4-2.6-11.2-2.6-11.2s10.6-18.7-5-11.9c-4.3-23.5-8-13.6-44.8,12.7c-5.6-1.9-13.8,7.3-10.3,17.9c3.5,10.3,5,13.6,5,13.6
				c-0.2,8.2-0.2,8.2-0.2,8.2C213.5,115.7,213.5,116,213.7,116.4z"/>
			<g>
				<path class="st92" d="M257.7,149.4c2.2-3,3.5-6.5,3.5-10.6c0-0.2-0.9-0.2-2.2-0.4v2.4h-31.2v-2.4c-1.3,0.2-2.2,0.2-2.2,0.4
					c0,3,0.9,6,2.2,8.4c3.5-1.1,7.6-1.5,12.3-1.5C247.8,145.7,254.2,147.2,257.7,149.4z"/>
				<path class="st93" d="M243.5,156.5c5.8,0,10.8-2.8,14-7.1c-3.5-2.2-9.9-3.7-17.3-3.7c-4.8,0-9,0.6-12.3,1.5
					C231.2,152.8,236.8,156.5,243.5,156.5z"/>
				<path class="st9" d="M259,140.7v-2.5c-3.2-0.2-10.3-0.4-16.6-0.4c-5.8,0-11.4,0.2-14.4,0.4v2.4h31V140.7z"/>
			</g>
		</g>
	</g>
	<path class="st82" d="M301.6,229c-6.2,2.6-12.7,4.4-19.3,5.3c2,5.5,3.3,10.4,4,14.8c1.2,6.6,1,11.9-0.9,14.6
		c-1.1,1.6-2.3,2.7-4.7,3.1c-2.8,0.5-6.7,0.5-11.2-0.4c-4.3-0.9-9-2.8-14.2-4.9c-9-4.1-16-8.6-16-8.6c-4.7-3.1-10.9-1.6-13.7,2.9
		c-3.2,4.6-1.6,10.9,2.9,13.7c0.4,0.1,8.4,5.5,18.8,10.2c6.2,3,12.5,5,17.9,6.1c6.2,1.6,11.9,2,17.1,1.3c1.1-0.1,1.8-0.2,2.8-0.5
		c7.5-1.5,13.4-5.7,17.2-12c2.5-4.1,3.9-8.8,4.6-14.1c0.6-4.4,0.1-9.4-0.8-14.6C305.3,240.5,303.8,235,301.6,229z"/>
	<path class="st83" d="M303.2,230.4c-20.5,9.5-20.5,9.5-20.5,9.5c-1.9-4.5-3.7-8-5.4-10.6c-4.3-37.9-4.3-37.9-4.3-37.9
		C279.9,195.2,291.1,203.2,303.2,230.4z"/>
</g>
</svg>
