<svg width="1740" height="1740" viewBox="0 0 1740 1740" fill="none" xmlns="http://www.w3.org/2000/svg">
<g id="Group 1">
<g id="Frame">
<path id="home-circle1" d="M1276.87 870C1276.87 1094.71 1094.71 1276.88 869.994 1276.88C645.283 1276.88 463.118 1094.71 463.118 870C463.118 645.289 645.283 463.124 869.994 463.124C1094.71 463.124 1276.87 645.289 1276.87 870Z" stroke="#001F5E" stroke-opacity="0.02" stroke-width="3.22095"/>
<path id="home-circle2" d="M1217.77 870.001C1217.77 1062.06 1062.08 1217.75 870.02 1217.75C677.961 1217.75 522.267 1062.06 522.267 870.001C522.267 677.942 677.961 522.248 870.02 522.248C1062.08 522.248 1217.77 677.942 1217.77 870.001Z" stroke="#001F5E" stroke-opacity="0.02" stroke-width="3.22095"/>
<path id="home-circle3" d="M1158.63 870C1158.63 1029.41 1029.4 1158.63 869.998 1158.63C710.592 1158.63 581.368 1029.41 581.368 870C581.368 710.594 710.592 581.37 869.998 581.37C1029.4 581.37 1158.63 710.594 1158.63 870Z" stroke="#001F5E" stroke-opacity="0.02" stroke-width="3.22095"/>
<path id="home-circle4" d="M1099.51 870C1099.51 996.753 996.753 1099.51 870 1099.51C743.247 1099.51 640.493 996.753 640.493 870C640.493 743.247 743.247 640.493 870 640.493C996.753 640.493 1099.51 743.247 1099.51 870Z" stroke="#001F5E" stroke-opacity="0.02" stroke-width="3.22095"/>
<path id="home-circle5" d="M1043.07 869.998C1043.07 965.582 965.586 1043.07 870.002 1043.07C774.418 1043.07 696.931 965.582 696.931 869.998C696.931 774.414 774.418 696.927 870.002 696.927C965.586 696.927 1043.07 774.414 1043.07 869.998Z" stroke="#001F5E" stroke-opacity="0.02" stroke-width="3.22095"/>
<path id="home-circle6" d="M1000.08 870C1000.08 941.837 941.848 1000.07 870.011 1000.07C798.174 1000.07 739.938 941.837 739.938 870C739.938 798.163 798.174 739.927 870.011 739.927C941.848 739.927 1000.08 798.163 1000.08 870Z" stroke="#001F5E" stroke-opacity="0.02" stroke-width="3.22095"/>
<path id="Vector" d="M1333.31 870.003C1333.31 1125.88 1125.88 1333.31 870 1333.31C614.12 1333.31 406.689 1125.88 406.689 870.003C406.689 614.123 614.12 406.692 870 406.692C1125.88 406.692 1333.31 614.123 1333.31 870.003Z" stroke="#001F5E" stroke-opacity="0.02" stroke-width="3.22095"/>
<path id="Vector_2" d="M1387.05 870.003C1387.05 1155.57 1155.55 1387.06 869.99 1387.06C584.426 1387.06 352.93 1155.57 352.93 870.003C352.93 584.439 584.426 352.943 869.99 352.943C1155.55 352.943 1387.05 584.439 1387.05 870.003Z" stroke="#001F5E" stroke-opacity="0.02" stroke-width="3.22095"/>
<path id="Vector_3" d="M1456.03 870C1456.03 1193.65 1193.65 1456.03 869.998 1456.03C546.344 1456.03 283.97 1193.65 283.97 870C283.97 546.346 546.344 283.972 869.998 283.972C1193.65 283.972 1456.03 546.346 1456.03 870Z" stroke="#001F5E" stroke-opacity="0.02" stroke-width="3.22095"/>
<path id="Vector_4" d="M1526.42 870C1526.42 1232.53 1232.53 1526.41 870.001 1526.41C507.474 1526.41 213.587 1232.53 213.587 870C213.587 507.473 507.474 213.586 870.001 213.586C1232.53 213.586 1526.42 507.473 1526.42 870Z" stroke="#001F5E" stroke-opacity="0.02" stroke-width="3.22095"/>
<path id="Vector_5" d="M1617.26 870C1617.26 1282.7 1282.7 1617.26 869.996 1617.26C457.295 1617.26 122.735 1282.7 122.735 870C122.735 457.299 457.295 122.739 869.996 122.739C1282.7 122.739 1617.26 457.299 1617.26 870Z" stroke="#001F5E" stroke-opacity="0.02" stroke-width="3.22095"/>
<path id="Vector_6" d="M1738.39 870C1738.39 1349.6 1349.6 1738.39 870 1738.39C390.401 1738.39 1.60999 1349.6 1.60999 870C1.60999 390.402 390.401 1.61011 870 1.61011C1349.6 1.61011 1738.39 390.402 1738.39 870Z" stroke="#001F5E" stroke-opacity="0.02" stroke-width="3.22095"/>
<g id="Group">
<g id="address-default" opacity="0.2621">
<path id="Vector_7" opacity="0.2621" d="M865.653 1128.48C881.674 1128.48 894.661 1115.49 894.661 1099.47C894.661 1083.45 881.674 1070.46 865.653 1070.46C849.633 1070.46 836.646 1083.45 836.646 1099.47C836.646 1115.49 849.633 1128.48 865.653 1128.48Z" fill="white"/>
<path id="Vector_8" opacity="0.2621" d="M851.655 1114.03L852.144 1112.57H854.373L854.865 1114.03H856.011L853.921 1108.11H852.596L850.509 1114.03H851.655ZM852.434 1111.71L853.235 1109.32H853.282L854.083 1111.71H852.434ZM858.015 1114.11C858.779 1114.11 859.123 1113.66 859.288 1113.33H859.352V1114.03H860.382V1108.11H859.331V1110.32H859.288C859.129 1110 858.802 1109.53 858.018 1109.53C856.99 1109.53 856.183 1110.33 856.183 1111.82C856.183 1113.28 856.967 1114.11 858.015 1114.11ZM858.307 1113.25C857.615 1113.25 857.251 1112.64 857.251 1111.81C857.251 1110.98 857.61 1110.39 858.307 1110.39C858.981 1110.39 859.352 1110.95 859.352 1111.81C859.352 1112.67 858.976 1113.25 858.307 1113.25ZM862.903 1114.11C863.667 1114.11 864.012 1113.66 864.177 1113.33H864.24V1114.03H865.271V1108.11H864.22V1110.32H864.177C864.018 1110 863.691 1109.53 862.906 1109.53C861.879 1109.53 861.072 1110.33 861.072 1111.82C861.072 1113.28 861.856 1114.11 862.903 1114.11ZM863.196 1113.25C862.504 1113.25 862.139 1112.64 862.139 1111.81C862.139 1110.98 862.498 1110.39 863.196 1110.39C863.87 1110.39 864.24 1110.95 864.24 1111.81C864.24 1112.67 863.864 1113.25 863.196 1113.25ZM866.142 1114.03H867.19V1111.42C867.19 1110.85 867.615 1110.46 868.191 1110.46C868.368 1110.46 868.588 1110.49 868.678 1110.52V1109.55C868.582 1109.54 868.417 1109.52 868.301 1109.52C867.792 1109.52 867.367 1109.81 867.205 1110.33H867.158V1109.59H866.142V1114.03ZM870.914 1114.12C871.95 1114.12 872.662 1113.61 872.847 1112.84L871.869 1112.73C871.727 1113.11 871.38 1113.3 870.928 1113.3C870.251 1113.3 869.803 1112.86 869.794 1112.1H872.89V1111.78C872.89 1110.22 871.953 1109.53 870.859 1109.53C869.586 1109.53 868.755 1110.46 868.755 1111.84C868.755 1113.23 869.574 1114.12 870.914 1114.12ZM869.797 1111.39C869.829 1110.82 870.248 1110.35 870.873 1110.35C871.475 1110.35 871.88 1110.79 871.886 1111.39H869.797ZM877.045 1110.76C876.901 1110.01 876.299 1109.53 875.257 1109.53C874.186 1109.53 873.457 1110.06 873.46 1110.88C873.457 1111.53 873.856 1111.95 874.71 1112.13L875.468 1112.29C875.876 1112.38 876.067 1112.54 876.067 1112.8C876.067 1113.1 875.737 1113.33 875.24 1113.33C874.759 1113.33 874.447 1113.12 874.357 1112.72L873.335 1112.82C873.466 1113.64 874.151 1114.12 875.243 1114.12C876.354 1114.12 877.138 1113.54 877.141 1112.7C877.138 1112.07 876.73 1111.68 875.891 1111.5L875.133 1111.34C874.681 1111.23 874.502 1111.08 874.505 1110.82C874.502 1110.52 874.834 1110.31 875.271 1110.31C875.755 1110.31 876.009 1110.57 876.09 1110.87L877.045 1110.76ZM881.274 1110.76C881.129 1110.01 880.527 1109.53 879.485 1109.53C878.414 1109.53 877.685 1110.06 877.688 1110.88C877.685 1111.53 878.084 1111.95 878.938 1112.13L879.696 1112.29C880.104 1112.38 880.295 1112.54 880.295 1112.8C880.295 1113.1 879.965 1113.33 879.468 1113.33C878.987 1113.33 878.675 1113.12 878.585 1112.72L877.563 1112.82C877.694 1113.64 878.38 1114.12 879.471 1114.12C880.582 1114.12 881.366 1113.54 881.369 1112.7C881.366 1112.07 880.958 1111.68 880.119 1111.5L879.361 1111.34C878.909 1111.23 878.73 1111.08 878.733 1110.82C878.73 1110.52 879.063 1110.31 879.5 1110.31C879.983 1110.31 880.237 1110.57 880.318 1110.87L881.274 1110.76Z" fill="#9AA1C1"/>
<path id="Vector_9" opacity="0.2621" d="M874.659 1089.33L865.928 1082.85C865.76 1082.73 865.531 1082.73 865.363 1082.85L856.632 1089.33C856.418 1089.49 856.372 1089.79 856.528 1090.01C856.684 1090.23 856.984 1090.27 857.197 1090.11L865.646 1083.85L874.093 1090.11C874.179 1090.18 874.278 1090.21 874.376 1090.21C874.524 1090.21 874.669 1090.14 874.763 1090.01C874.919 1089.79 874.873 1089.49 874.659 1089.33Z" fill="#9AA1C1"/>
<path id="Vector_10" opacity="0.2621" d="M874.659 1089.33L865.928 1082.85C865.76 1082.73 865.531 1082.73 865.363 1082.85L856.632 1089.33C856.418 1089.49 856.372 1089.79 856.528 1090.01C856.684 1090.23 856.984 1090.27 857.197 1090.11L865.646 1083.85L874.093 1090.11C874.179 1090.18 874.278 1090.21 874.376 1090.21C874.524 1090.21 874.669 1090.14 874.763 1090.01C874.919 1089.79 874.873 1089.49 874.659 1089.33Z" stroke="#9AA1C1" stroke-width="0.861321" stroke-miterlimit="10"/>
<path id="Vector_11" opacity="0.2621" d="M872.338 1090.22C872.074 1090.22 871.86 1090.44 871.86 1090.71V1098.43H868.032V1094.21C868.032 1092.88 866.958 1091.79 865.638 1091.79C864.319 1091.79 863.245 1092.88 863.245 1094.21V1098.43H859.417V1090.71C859.417 1090.44 859.202 1090.22 858.938 1090.22C858.674 1090.22 858.46 1090.44 858.46 1090.71V1098.91C858.46 1099.18 858.674 1099.39 858.938 1099.39H863.724C863.975 1099.39 864.181 1099.2 864.201 1098.95C864.201 1098.94 864.202 1098.92 864.202 1098.91V1094.21C864.202 1093.41 864.847 1092.76 865.638 1092.76C866.43 1092.76 867.074 1093.41 867.074 1094.21V1098.91C867.074 1098.92 867.075 1098.94 867.076 1098.95C867.094 1099.2 867.302 1099.39 867.553 1099.39H872.338C872.603 1099.39 872.818 1099.18 872.818 1098.91V1090.71C872.818 1090.44 872.603 1090.22 872.338 1090.22Z" fill="#9AA1C1"/>
<path id="Vector_12" opacity="0.2621" d="M872.338 1090.22C872.074 1090.22 871.86 1090.44 871.86 1090.71V1098.43H868.032V1094.21C868.032 1092.88 866.958 1091.79 865.638 1091.79C864.319 1091.79 863.245 1092.88 863.245 1094.21V1098.43H859.417V1090.71C859.417 1090.44 859.202 1090.22 858.938 1090.22C858.674 1090.22 858.46 1090.44 858.46 1090.71V1098.91C858.46 1099.18 858.674 1099.39 858.938 1099.39H863.724C863.975 1099.39 864.181 1099.2 864.201 1098.95C864.201 1098.94 864.202 1098.92 864.202 1098.91V1094.21C864.202 1093.41 864.847 1092.76 865.638 1092.76C866.43 1092.76 867.074 1093.41 867.074 1094.21V1098.91C867.074 1098.92 867.075 1098.94 867.076 1098.95C867.094 1099.2 867.302 1099.39 867.553 1099.39H872.338C872.603 1099.39 872.818 1099.18 872.818 1098.91V1090.71C872.818 1090.44 872.603 1090.22 872.338 1090.22Z" stroke="#9AA1C1" stroke-width="0.861321" stroke-miterlimit="10"/>
</g>
<g id="device-default" opacity="0.2621">
<path id="Vector_13" opacity="0.2621" d="M700.451 1132.62C716.471 1132.62 729.458 1119.63 729.458 1103.61C729.458 1087.59 716.471 1074.6 700.451 1074.6C684.43 1074.6 671.443 1087.59 671.443 1103.61C671.443 1119.63 684.43 1132.62 700.451 1132.62Z" fill="white"/>
<path id="Vector_14" opacity="0.2621" d="M690.171 1118.17C691.977 1118.17 693.048 1117.06 693.048 1115.2C693.048 1113.36 691.977 1112.25 690.212 1112.25H688.163V1118.17H690.171ZM689.237 1117.25V1113.18H690.151C691.355 1113.18 691.983 1113.85 691.983 1115.2C691.983 1116.57 691.355 1117.25 690.119 1117.25H689.237ZM695.745 1118.26C696.781 1118.26 697.493 1117.75 697.678 1116.98L696.7 1116.87C696.558 1117.25 696.211 1117.44 695.76 1117.44C695.083 1117.44 694.634 1117 694.625 1116.24H697.722V1115.92C697.722 1114.36 696.784 1113.67 695.69 1113.67C694.417 1113.67 693.586 1114.61 693.586 1115.98C693.586 1117.37 694.405 1118.26 695.745 1118.26ZM694.628 1115.53C694.66 1114.96 695.08 1114.49 695.705 1114.49C696.307 1114.49 696.712 1114.93 696.718 1115.53H694.628ZM702.207 1113.73H701.092L700.068 1117.03H700.022L699 1113.73H697.883L699.466 1118.17H700.624L702.207 1113.73ZM702.687 1118.17H703.735V1113.73H702.687V1118.17ZM703.214 1113.1C703.547 1113.1 703.819 1112.84 703.819 1112.53C703.819 1112.22 703.547 1111.96 703.214 1111.96C702.878 1111.96 702.606 1112.22 702.606 1112.53C702.606 1112.84 702.878 1113.1 703.214 1113.1ZM706.506 1118.26C707.623 1118.26 708.335 1117.6 708.411 1116.65H707.409C707.32 1117.13 706.975 1117.41 706.515 1117.41C705.861 1117.41 705.439 1116.86 705.439 1115.95C705.439 1115.05 705.87 1114.52 706.515 1114.52C707.019 1114.52 707.328 1114.84 707.409 1115.27H708.411C708.338 1114.3 707.586 1113.67 706.501 1113.67C705.198 1113.67 704.376 1114.61 704.376 1115.97C704.376 1117.31 705.178 1118.26 706.506 1118.26ZM710.994 1118.26C712.03 1118.26 712.742 1117.75 712.927 1116.98L711.949 1116.87C711.807 1117.25 711.46 1117.44 711.009 1117.44C710.332 1117.44 709.883 1117 709.874 1116.24H712.971V1115.92C712.971 1114.36 712.033 1113.67 710.939 1113.67C709.666 1113.67 708.835 1114.61 708.835 1115.98C708.835 1117.37 709.654 1118.26 710.994 1118.26ZM709.877 1115.53C709.909 1114.96 710.329 1114.49 710.954 1114.49C711.556 1114.49 711.961 1114.93 711.967 1115.53H709.877Z" fill="#9AA1C1"/>
<path id="Vector_15" opacity="0.2621" d="M708.094 1089.19C708.094 1089.56 708.094 1089.94 708.094 1090.31C708.094 1091.2 708.094 1092.09 708.094 1092.98C708.094 1094.05 708.094 1095.13 708.094 1096.21C708.094 1097.13 708.094 1098.06 708.094 1098.98C708.094 1099.42 708.098 1099.86 708.094 1100.31C708.094 1100.34 708.093 1100.37 708.089 1100.4C708.098 1100.33 708.108 1100.26 708.116 1100.19C708.108 1100.24 708.097 1100.28 708.079 1100.32C708.104 1100.26 708.132 1100.19 708.157 1100.13C708.139 1100.17 708.118 1100.21 708.091 1100.24C708.132 1100.19 708.172 1100.14 708.213 1100.08C708.186 1100.12 708.157 1100.15 708.124 1100.17C708.176 1100.13 708.228 1100.09 708.281 1100.05C708.246 1100.08 708.211 1100.1 708.172 1100.12C708.234 1100.09 708.296 1100.06 708.358 1100.04C708.318 1100.06 708.277 1100.07 708.234 1100.08C708.302 1100.07 708.372 1100.06 708.44 1100.05C708.281 1100.07 708.114 1100.06 707.953 1100.06C707.57 1100.06 707.19 1100.06 706.808 1100.06C706.239 1100.06 705.67 1100.06 705.103 1100.06C704.408 1100.06 703.713 1100.06 703.018 1100.06C702.255 1100.06 701.494 1100.06 700.732 1100.06C699.963 1100.06 699.192 1100.06 698.424 1100.06C697.707 1100.06 696.991 1100.06 696.273 1100.06C695.669 1100.06 695.063 1100.06 694.46 1100.06C694.027 1100.06 693.596 1100.06 693.163 1100.06C692.963 1100.06 692.761 1100.06 692.561 1100.06C692.528 1100.06 692.493 1100.05 692.46 1100.05C692.528 1100.06 692.598 1100.07 692.666 1100.08C692.623 1100.07 692.582 1100.06 692.542 1100.04C692.604 1100.06 692.666 1100.09 692.728 1100.12C692.689 1100.1 692.654 1100.08 692.619 1100.05C692.672 1100.09 692.724 1100.13 692.777 1100.17C692.744 1100.15 692.715 1100.12 692.687 1100.08C692.728 1100.14 692.769 1100.19 692.81 1100.24C692.784 1100.21 692.763 1100.17 692.744 1100.13C692.769 1100.19 692.796 1100.26 692.821 1100.32C692.804 1100.28 692.792 1100.24 692.784 1100.19C692.794 1100.26 692.804 1100.33 692.811 1100.4C692.796 1100.28 692.806 1100.16 692.806 1100.04C692.806 1099.77 692.806 1099.5 692.806 1099.24C692.806 1098.35 692.806 1097.46 692.806 1096.57C692.806 1095.49 692.806 1094.41 692.806 1093.33C692.806 1092.4 692.806 1091.47 692.806 1090.54C692.806 1090.1 692.802 1089.65 692.806 1089.21C692.806 1089.17 692.807 1089.14 692.811 1089.11C692.802 1089.18 692.792 1089.25 692.784 1089.32C692.792 1089.27 692.804 1089.23 692.821 1089.19C692.796 1089.25 692.769 1089.32 692.744 1089.38C692.761 1089.34 692.782 1089.3 692.81 1089.27C692.769 1089.32 692.728 1089.37 692.687 1089.43C692.715 1089.39 692.744 1089.36 692.777 1089.34C692.724 1089.38 692.672 1089.42 692.619 1089.46C692.654 1089.43 692.689 1089.41 692.728 1089.39C692.666 1089.42 692.604 1089.45 692.542 1089.47C692.582 1089.45 692.623 1089.44 692.666 1089.43C692.598 1089.44 692.528 1089.45 692.46 1089.46C692.619 1089.44 692.786 1089.46 692.947 1089.46C693.33 1089.46 693.71 1089.46 694.093 1089.46C694.661 1089.46 695.23 1089.46 695.797 1089.46C696.492 1089.46 697.187 1089.46 697.882 1089.46C698.645 1089.46 699.406 1089.46 700.169 1089.46C700.937 1089.46 701.708 1089.46 702.477 1089.46C703.193 1089.46 703.909 1089.46 704.628 1089.46C705.231 1089.46 705.837 1089.46 706.441 1089.46C706.874 1089.46 707.304 1089.46 707.737 1089.46C707.937 1089.46 708.139 1089.45 708.339 1089.46C708.372 1089.46 708.407 1089.46 708.44 1089.46C708.372 1089.45 708.302 1089.44 708.234 1089.43C708.277 1089.44 708.318 1089.45 708.358 1089.47C708.296 1089.45 708.234 1089.42 708.172 1089.39C708.211 1089.41 708.246 1089.43 708.281 1089.46C708.228 1089.42 708.176 1089.38 708.124 1089.34C708.157 1089.36 708.186 1089.39 708.213 1089.43C708.172 1089.37 708.132 1089.32 708.091 1089.27C708.116 1089.3 708.137 1089.34 708.157 1089.38C708.132 1089.32 708.104 1089.25 708.079 1089.19C708.097 1089.23 708.108 1089.27 708.116 1089.32C708.106 1089.25 708.097 1089.18 708.089 1089.11C708.093 1089.14 708.094 1089.16 708.094 1089.19C708.1 1089.39 708.178 1089.59 708.322 1089.74C708.456 1089.87 708.677 1089.98 708.871 1089.97C709.283 1089.95 709.659 1089.62 709.648 1089.19C709.628 1088.48 709.069 1087.92 708.355 1087.9C708.31 1087.9 708.263 1087.9 708.219 1087.9C707.978 1087.9 707.737 1087.9 707.497 1087.9C707.087 1087.9 706.678 1087.9 706.268 1087.9C705.73 1087.9 705.193 1087.9 704.655 1087.9C704.034 1087.9 703.41 1087.9 702.789 1087.9C702.118 1087.9 701.446 1087.9 700.774 1087.9C700.099 1087.9 699.423 1087.9 698.75 1087.9C698.105 1087.9 697.461 1087.9 696.816 1087.9C696.247 1087.9 695.677 1087.9 695.108 1087.9C694.656 1087.9 694.203 1087.9 693.751 1087.9C693.452 1087.9 693.153 1087.9 692.854 1087.9C692.652 1087.9 692.46 1087.9 692.258 1087.94C691.666 1088.05 691.263 1088.62 691.259 1089.21C691.259 1089.28 691.259 1089.34 691.259 1089.41C691.259 1089.75 691.259 1090.08 691.259 1090.42C691.259 1090.95 691.259 1091.47 691.259 1092C691.259 1092.65 691.259 1093.3 691.259 1093.94C691.259 1094.62 691.259 1095.3 691.259 1095.98C691.259 1096.61 691.259 1097.23 691.259 1097.86C691.259 1098.36 691.259 1098.86 691.259 1099.35C691.259 1099.64 691.259 1099.92 691.259 1100.2C691.259 1100.26 691.257 1100.32 691.261 1100.37C691.28 1100.6 691.332 1100.83 691.472 1101.02C691.563 1101.15 691.641 1101.24 691.761 1101.33C691.883 1101.42 691.984 1101.47 692.134 1101.53C692.266 1101.58 692.414 1101.6 692.553 1101.6C692.699 1101.6 692.847 1101.6 692.992 1101.6C693.324 1101.6 693.656 1101.6 693.988 1101.6C694.469 1101.6 694.951 1101.6 695.43 1101.6C696.018 1101.6 696.606 1101.6 697.195 1101.6C697.845 1101.6 698.497 1101.6 699.148 1101.6C699.827 1101.6 700.508 1101.6 701.188 1101.6C701.85 1101.6 702.514 1101.6 703.176 1101.6C703.787 1101.6 704.397 1101.6 705.008 1101.6C705.523 1101.6 706.039 1101.6 706.553 1101.6C706.93 1101.6 707.308 1101.6 707.685 1101.6C707.887 1101.6 708.091 1101.6 708.293 1101.6C708.424 1101.6 708.555 1101.59 708.685 1101.56C709.259 1101.42 709.642 1100.87 709.646 1100.3C709.648 1100.08 709.646 1099.87 709.646 1099.66C709.646 1099.22 709.646 1098.77 709.646 1098.32C709.646 1097.72 709.646 1097.13 709.646 1096.53C709.646 1095.85 709.646 1095.18 709.646 1094.51C709.646 1093.84 709.646 1093.18 709.646 1092.52C709.646 1091.95 709.646 1091.38 709.646 1090.81C709.646 1090.41 709.646 1090.01 709.646 1089.61C709.646 1089.47 709.646 1089.33 709.646 1089.19C709.646 1088.78 709.288 1088.39 708.869 1088.41C708.45 1088.43 708.094 1088.75 708.094 1089.19ZM701.355 1100.83C701.355 1101.66 701.355 1102.5 701.355 1103.34C701.355 1103.45 701.355 1103.57 701.355 1103.69C701.613 1103.43 701.873 1103.17 702.131 1102.92C701.753 1102.92 701.374 1102.92 700.996 1102.92C700.396 1102.92 699.794 1102.92 699.194 1102.92C699.054 1102.92 698.915 1102.92 698.775 1102.92C699.033 1103.17 699.293 1103.43 699.551 1103.69C699.551 1102.86 699.551 1102.02 699.551 1101.18C699.551 1101.07 699.551 1100.95 699.551 1100.83C699.293 1101.09 699.033 1101.35 698.775 1101.6C699.153 1101.6 699.532 1101.6 699.91 1101.6C700.51 1101.6 701.112 1101.6 701.712 1101.6C701.852 1101.6 701.991 1101.6 702.131 1101.6C702.537 1101.6 702.927 1101.25 702.908 1100.83C702.888 1100.41 702.566 1100.05 702.131 1100.05C701.753 1100.05 701.374 1100.05 700.996 1100.05C700.396 1100.05 699.794 1100.05 699.194 1100.05C699.054 1100.05 698.915 1100.05 698.775 1100.05C698.356 1100.05 697.998 1100.41 697.998 1100.83C697.998 1101.66 697.998 1102.5 697.998 1103.34C697.998 1103.45 697.998 1103.57 697.998 1103.69C697.998 1104.11 698.354 1104.47 698.775 1104.47C699.153 1104.47 699.532 1104.47 699.91 1104.47C700.51 1104.47 701.112 1104.47 701.712 1104.47C701.852 1104.47 701.991 1104.47 702.131 1104.47C702.55 1104.47 702.908 1104.11 702.908 1103.69C702.908 1102.86 702.908 1102.02 702.908 1101.18C702.908 1101.07 702.908 1100.95 702.908 1100.83C702.908 1100.42 702.55 1100.03 702.131 1100.05C701.71 1100.07 701.355 1100.39 701.355 1100.83ZM708.094 1097.96C708.094 1098.66 708.094 1099.36 708.094 1100.05C708.094 1100.17 708.102 1100.28 708.089 1100.4C708.098 1100.33 708.108 1100.26 708.116 1100.19C708.108 1100.24 708.097 1100.28 708.079 1100.32C708.104 1100.25 708.132 1100.19 708.157 1100.13C708.139 1100.17 708.118 1100.2 708.091 1100.24C708.132 1100.19 708.172 1100.13 708.213 1100.08C708.186 1100.12 708.157 1100.14 708.124 1100.17C708.176 1100.13 708.228 1100.09 708.281 1100.05C708.246 1100.07 708.211 1100.1 708.172 1100.12C708.234 1100.09 708.296 1100.06 708.358 1100.04C708.318 1100.06 708.277 1100.07 708.234 1100.07C708.302 1100.06 708.372 1100.06 708.44 1100.05C708.281 1100.07 708.114 1100.05 707.953 1100.05C707.57 1100.05 707.19 1100.05 706.808 1100.05C706.239 1100.05 705.67 1100.05 705.103 1100.05C704.408 1100.05 703.713 1100.05 703.018 1100.05C702.255 1100.05 701.494 1100.05 700.732 1100.05C699.963 1100.05 699.192 1100.05 698.424 1100.05C697.707 1100.05 696.991 1100.05 696.273 1100.05C695.669 1100.05 695.063 1100.05 694.46 1100.05C694.027 1100.05 693.596 1100.05 693.163 1100.05C692.963 1100.05 692.761 1100.06 692.561 1100.05C692.528 1100.05 692.493 1100.05 692.46 1100.05C692.528 1100.06 692.598 1100.07 692.666 1100.07C692.623 1100.07 692.582 1100.06 692.542 1100.04C692.604 1100.06 692.666 1100.09 692.728 1100.12C692.689 1100.1 692.654 1100.08 692.619 1100.05C692.672 1100.09 692.724 1100.13 692.777 1100.17C692.744 1100.14 692.715 1100.12 692.687 1100.08C692.728 1100.13 692.769 1100.19 692.81 1100.24C692.784 1100.2 692.763 1100.17 692.744 1100.13C692.769 1100.19 692.796 1100.25 692.821 1100.32C692.804 1100.28 692.792 1100.24 692.784 1100.19C692.794 1100.26 692.804 1100.33 692.811 1100.4C692.8 1100.31 692.806 1100.21 692.806 1100.12C692.806 1099.93 692.806 1099.75 692.806 1099.56C692.806 1099.13 692.806 1098.7 692.806 1098.27C692.806 1098.17 692.806 1098.07 692.806 1097.96C692.547 1098.22 692.287 1098.48 692.029 1098.74C692.179 1098.74 692.328 1098.74 692.478 1098.74C692.885 1098.74 693.293 1098.74 693.701 1098.74C694.306 1098.74 694.912 1098.74 695.518 1098.74C696.253 1098.74 696.991 1098.74 697.727 1098.74C698.532 1098.74 699.34 1098.74 700.145 1098.74C700.959 1098.74 701.774 1098.74 702.587 1098.74C703.35 1098.74 704.111 1098.74 704.874 1098.74C705.515 1098.74 706.157 1098.74 706.798 1098.74C707.26 1098.74 707.72 1098.74 708.182 1098.74C708.401 1098.74 708.619 1098.74 708.838 1098.74C708.848 1098.74 708.857 1098.74 708.867 1098.74C709.273 1098.74 709.663 1098.38 709.644 1097.96C709.624 1097.54 709.302 1097.19 708.867 1097.19C708.718 1097.19 708.568 1097.19 708.419 1097.19C708.011 1097.19 707.604 1097.19 707.196 1097.19C706.59 1097.19 705.985 1097.19 705.379 1097.19C704.643 1097.19 703.905 1097.19 703.17 1097.19C702.364 1097.19 701.557 1097.19 700.751 1097.19C699.938 1097.19 699.122 1097.19 698.309 1097.19C697.546 1097.19 696.785 1097.19 696.022 1097.19C695.382 1097.19 694.739 1097.19 694.099 1097.19C693.637 1097.19 693.176 1097.19 692.714 1097.19C692.495 1097.19 692.278 1097.19 692.058 1097.19C692.048 1097.19 692.039 1097.19 692.029 1097.19C691.61 1097.19 691.253 1097.54 691.253 1097.96C691.253 1098.72 691.253 1099.48 691.253 1100.24C691.253 1100.63 691.377 1101.01 691.678 1101.27C691.93 1101.49 692.223 1101.6 692.559 1101.61C692.664 1101.61 692.769 1101.61 692.874 1101.61C693.411 1101.61 693.949 1101.61 694.487 1101.61C695.335 1101.61 696.183 1101.61 697.032 1101.61C698.045 1101.61 699.058 1101.61 700.072 1101.61C701.102 1101.61 702.133 1101.61 703.164 1101.61C704.065 1101.61 704.967 1101.61 705.868 1101.61C706.493 1101.61 707.118 1101.61 707.743 1101.61C707.906 1101.61 708.069 1101.61 708.232 1101.61C708.269 1101.61 708.304 1101.61 708.341 1101.61C708.679 1101.6 709.003 1101.48 709.248 1101.25C709.529 1100.98 709.644 1100.61 709.644 1100.23C709.644 1100.06 709.644 1099.87 709.644 1099.7C709.644 1099.21 709.644 1098.73 709.644 1098.25C709.644 1098.16 709.644 1098.06 709.644 1097.97C709.644 1097.56 709.286 1097.17 708.867 1097.19C708.45 1097.21 708.094 1097.53 708.094 1097.96ZM704.125 1102.92C703.88 1102.92 703.637 1102.92 703.393 1102.92C702.811 1102.92 702.228 1102.92 701.646 1102.92C700.937 1102.92 700.229 1102.92 699.522 1102.92C698.911 1102.92 698.297 1102.92 697.686 1102.92C697.389 1102.92 697.092 1102.91 696.795 1102.92C696.791 1102.92 696.785 1102.92 696.781 1102.92C696.375 1102.92 695.985 1103.27 696.005 1103.69C696.024 1104.11 696.346 1104.47 696.781 1104.47C697.026 1104.47 697.269 1104.47 697.513 1104.47C698.096 1104.47 698.678 1104.47 699.26 1104.47C699.969 1104.47 700.677 1104.47 701.384 1104.47C701.995 1104.47 702.609 1104.47 703.22 1104.47C703.517 1104.47 703.814 1104.48 704.111 1104.47C704.115 1104.47 704.121 1104.47 704.125 1104.47C704.531 1104.47 704.921 1104.11 704.901 1103.69C704.882 1103.27 704.56 1102.92 704.125 1102.92Z" fill="#9AA1C1"/>
</g>
<g id="selfie-default" opacity="0.2621">
<g id="Frame_2" clip-path="url(#clip0_1_139)">
<path id="Vector_16" opacity="0.2621" d="M643.589 936.795C659.609 936.795 672.596 923.807 672.596 907.786C672.596 891.765 659.609 878.777 643.589 878.777C627.568 878.777 614.581 891.765 614.581 907.786C614.581 923.807 627.568 936.795 643.589 936.795Z" fill="white"/>
<path id="Vector_17" opacity="0.2621" d="M636.867 918.055H637.9C637.879 917.053 637.026 916.344 635.764 916.344C634.52 916.344 633.585 917.045 633.588 918.092C633.588 918.943 634.193 919.432 635.168 919.684L635.842 919.858C636.482 920.02 636.904 920.219 636.907 920.679C636.904 921.186 636.424 921.524 635.723 921.524C635.052 921.524 634.531 921.224 634.488 920.601H633.432C633.475 921.779 634.352 922.442 635.732 922.442C637.153 922.442 637.978 921.733 637.981 920.688C637.978 919.661 637.13 919.192 636.239 918.981L635.683 918.842C635.197 918.726 634.67 918.52 634.676 918.026C634.679 917.58 635.078 917.253 635.75 917.253C636.389 917.253 636.812 917.551 636.867 918.055ZM640.615 922.439C641.651 922.439 642.363 921.933 642.548 921.16L641.57 921.05C641.428 921.426 641.081 921.623 640.629 921.623C639.952 921.623 639.504 921.177 639.495 920.416H642.592V920.095C642.592 918.535 641.654 917.849 640.56 917.849C639.287 917.849 638.456 918.784 638.456 920.156C638.456 921.551 639.275 922.439 640.615 922.439ZM639.498 919.71C639.53 919.143 639.949 918.665 640.575 918.665C641.176 918.665 641.582 919.105 641.587 919.71H639.498ZM644.281 916.425H643.233V922.352H644.281V916.425ZM647.365 917.907H646.442V917.557C646.442 917.209 646.587 917.016 646.977 917.016C647.142 917.016 647.281 917.053 647.368 917.079L647.579 916.269C647.443 916.223 647.145 916.147 646.784 916.147C646.011 916.147 645.394 916.59 645.394 917.487V917.907H644.737V918.717H645.394V922.352H646.442V918.717H647.365V917.907ZM647.941 922.352H648.989V917.907H647.941V922.352ZM648.468 917.276C648.801 917.276 649.073 917.021 649.073 916.709C649.073 916.393 648.801 916.139 648.468 916.139C648.132 916.139 647.86 916.393 647.86 916.709C647.86 917.021 648.132 917.276 648.468 917.276ZM651.789 922.439C652.825 922.439 653.537 921.933 653.723 921.16L652.744 921.05C652.603 921.426 652.255 921.623 651.804 921.623C651.127 921.623 650.678 921.177 650.669 920.416H653.766V920.095C653.766 918.535 652.828 917.849 651.734 917.849C650.461 917.849 649.631 918.784 649.631 920.156C649.631 921.551 650.45 922.439 651.789 922.439ZM650.672 919.71C650.704 919.143 651.124 918.665 651.749 918.665C652.351 918.665 652.756 919.105 652.762 919.71H650.672Z" fill="#9AA1C1"/>
<mask id="mask0_1_139" style="mask-type:alpha" maskUnits="userSpaceOnUse" x="634" y="892" width="19" height="18">
<g id="mask0_2682_36458" opacity="0.2621">
<path id="Vector_18" opacity="0.2621" d="M640.777 897.939C640.554 897.939 640.352 898.121 640.352 898.364V899.577C640.352 899.799 640.534 900.002 640.777 900.002C640.999 900.002 641.201 899.82 641.201 899.577V898.364C641.181 898.121 640.999 897.939 640.777 897.939Z" fill="#373F61" stroke="#373F61" stroke-width="0.370602"/>
<path id="Vector_19" opacity="0.2621" d="M646.398 900.002C646.62 900.002 646.823 899.82 646.823 899.577V898.364C646.823 898.141 646.641 897.939 646.398 897.939C646.175 897.939 645.973 898.121 645.973 898.364V899.577C645.993 899.799 646.175 900.002 646.398 900.002Z" fill="#373F61" stroke="#373F61" stroke-width="0.370602"/>
<path id="Vector_20" opacity="0.2621" d="M646.396 903.097C646.234 902.935 645.971 902.935 645.81 903.097C645.223 903.683 644.434 904.007 643.585 904.007C642.756 904.007 641.967 903.683 641.36 903.097C641.199 902.935 640.936 902.935 640.774 903.097C640.612 903.258 640.612 903.521 640.774 903.683C641.522 904.431 642.513 904.856 643.585 904.856C644.637 904.856 645.648 904.452 646.396 903.683C646.558 903.521 646.558 903.258 646.396 903.097Z" fill="#373F61" stroke="#373F61" stroke-width="0.370602"/>
<path id="Vector_21" opacity="0.2621" d="M643.973 900.184V898.667C643.973 898.465 643.811 898.283 643.589 898.283C643.386 898.283 643.204 898.445 643.204 898.667V900.993V901.276C643.204 901.479 643.366 901.661 643.589 901.661C643.811 901.661 643.973 901.499 643.973 901.276V900.184Z" fill="#373F61" stroke="#373F61" stroke-width="0.370602"/>
<path id="Vector_22" opacity="0.2621" d="M635.5 899.173C635.277 899.173 635.095 898.991 635.095 898.768C635.095 895.148 638.028 892.216 641.648 892.216C641.87 892.216 642.052 892.398 642.052 892.62C642.052 892.842 641.87 893.025 641.648 893.025C638.473 893.025 635.904 895.593 635.904 898.768C635.904 898.991 635.722 899.173 635.5 899.173Z" fill="#373F61" stroke="#373F61" stroke-width="0.370602"/>
<path id="Vector_23" opacity="0.2621" d="M641.648 909.204C638.028 909.204 635.095 906.272 635.095 902.652C635.095 902.429 635.277 902.247 635.5 902.247C635.722 902.247 635.904 902.429 635.904 902.652C635.904 905.827 638.473 908.395 641.648 908.395C641.87 908.395 642.052 908.577 642.052 908.8C642.052 909.022 641.87 909.204 641.648 909.204Z" fill="#373F61" stroke="#373F61" stroke-width="0.370602"/>
<path id="Vector_24" opacity="0.2621" d="M645.535 909.204C645.313 909.204 645.131 909.022 645.131 908.8C645.131 908.577 645.313 908.395 645.535 908.395C648.71 908.395 651.279 905.827 651.279 902.652C651.279 902.429 651.461 902.247 651.683 902.247C651.906 902.247 652.088 902.429 652.088 902.652C652.088 906.272 649.155 909.204 645.535 909.204Z" fill="#373F61" stroke="#373F61" stroke-width="0.370602"/>
<path id="Vector_25" opacity="0.2621" d="M651.683 899.173C651.461 899.173 651.279 898.991 651.279 898.768C651.279 895.593 648.71 893.025 645.535 893.025C645.313 893.025 645.131 892.842 645.131 892.62C645.131 892.398 645.313 892.216 645.535 892.216C649.155 892.216 652.088 895.148 652.088 898.768C652.088 898.991 651.906 899.173 651.683 899.173Z" fill="#373F61" stroke="#373F61" stroke-width="0.370602"/>
</g>
</mask>
<g mask="url(#mask0_1_139)">
<g id="Group_2" opacity="0.2621">
<path id="Vector_26" opacity="0.2621" d="M649.889 891.443H637.287C635.649 891.443 634.322 892.771 634.322 894.408V907.011C634.322 908.649 635.649 909.976 637.287 909.976H649.889C651.527 909.976 652.854 908.649 652.854 907.011V894.408C652.854 892.771 651.527 891.443 649.889 891.443Z" fill="#9AA1C1"/>
<path id="Vector_27" opacity="0.2621" d="M649.889 891.443H637.287C635.649 891.443 634.322 892.771 634.322 894.408V907.011C634.322 908.649 635.649 909.976 637.287 909.976H649.889C651.527 909.976 652.854 908.649 652.854 907.011V894.408C652.854 892.771 651.527 891.443 649.889 891.443Z" fill="#9AA1C1"/>
</g>
</g>
</g>
</g>
<g id="name-default" opacity="0.2621">
<path id="Vector_28" opacity="0.2621" d="M532.218 816.075C548.238 816.075 561.225 803.087 561.225 787.066C561.225 771.045 548.238 758.057 532.218 758.057C516.197 758.057 503.21 771.045 503.21 787.066C503.21 803.087 516.197 816.075 532.218 816.075Z" fill="white"/>
<path id="Vector_29" opacity="0.2621" d="M526.96 795.705H525.892V799.745H525.84L523.05 795.705H522.09V801.632H523.163V797.595H523.212L526.005 801.632H526.96V795.705ZM529.118 801.722C529.816 801.722 530.232 801.395 530.423 801.021H530.458V801.632H531.465V798.657C531.465 797.482 530.507 797.129 529.659 797.129C528.725 797.129 528.007 797.546 527.775 798.356L528.754 798.495C528.858 798.191 529.153 797.931 529.665 797.931C530.151 797.931 530.418 798.18 530.418 798.616V798.634C530.418 798.935 530.102 798.949 529.318 799.033C528.456 799.126 527.631 799.383 527.631 800.385C527.631 801.259 528.27 801.722 529.118 801.722ZM529.39 800.952C528.953 800.952 528.641 800.752 528.641 800.367C528.641 799.965 528.991 799.797 529.46 799.731C529.735 799.693 530.284 799.624 530.42 799.514V800.037C530.42 800.532 530.021 800.952 529.39 800.952ZM532.274 801.632H533.322V798.929C533.322 798.382 533.686 798.012 534.138 798.012C534.581 798.012 534.884 798.31 534.884 798.767V801.632H535.912V798.86C535.912 798.359 536.21 798.012 536.716 798.012C537.139 798.012 537.475 798.261 537.475 798.81V801.632H538.525V798.648C538.525 797.656 537.952 797.129 537.136 797.129C536.491 797.129 535.999 797.447 535.802 797.942H535.755C535.585 797.439 535.154 797.129 534.555 797.129C533.958 797.129 533.513 797.436 533.327 797.942H533.275V797.187H532.274V801.632ZM541.311 801.719C542.347 801.719 543.059 801.212 543.244 800.44L542.266 800.33C542.124 800.706 541.777 800.903 541.326 800.903C540.648 800.903 540.2 800.457 540.191 799.696H543.288V799.375C543.288 797.815 542.35 797.129 541.256 797.129C539.983 797.129 539.152 798.064 539.152 799.436C539.152 800.83 539.971 801.719 541.311 801.719ZM540.194 798.99C540.226 798.423 540.646 797.945 541.271 797.945C541.873 797.945 542.278 798.385 542.284 798.99H540.194Z" fill="#9AA1C1"/>
<mask id="mask1_1_139" style="mask-type:alpha" maskUnits="userSpaceOnUse" x="526" y="771" width="12" height="18">
<g id="mask0_2682_36570" opacity="0.2621">
<path id="Vector_30" opacity="0.2621" d="M526.616 781.4C526.497 781.288 526.439 781.145 526.439 780.973C526.439 780.792 526.512 780.609 526.661 780.428L533.93 771.614C534.076 771.433 534.236 771.321 534.404 771.282C534.574 771.243 534.727 771.261 534.865 771.334C535.003 771.407 535.097 771.524 535.151 771.683C535.205 771.842 535.188 772.032 535.1 772.254L532.758 778.433H533.156L531.661 781.57H527.072C526.885 781.57 526.734 781.514 526.616 781.4ZM529.914 788.721C529.742 788.759 529.589 788.744 529.453 788.673C529.317 788.602 529.222 788.486 529.169 788.326C529.115 788.167 529.132 787.977 529.22 787.755L531.562 781.57H531.166L532.667 778.433H537.248C537.428 778.433 537.579 778.489 537.696 778.603C537.814 778.715 537.872 778.859 537.872 779.03C537.872 779.217 537.799 779.398 537.65 779.575L530.39 788.397C530.246 788.572 530.086 788.682 529.914 788.721Z" fill="#373F61"/>
</g>
</mask>
<g mask="url(#mask1_1_139)">
<g id="Group_3" opacity="0.2621">
<path id="Vector_31" opacity="0.2621" d="M535.476 771.225H528.755C527.432 771.225 526.36 772.298 526.36 773.62V786.576C526.36 787.899 527.432 788.971 528.755 788.971H535.476C536.798 788.971 537.87 787.899 537.87 786.576V773.62C537.87 772.298 536.798 771.225 535.476 771.225Z" fill="#9AA1C1"/>
<path id="Vector_32" opacity="0.2621" d="M535.476 771.225H528.755C527.432 771.225 526.36 772.298 526.36 773.62V786.576C526.36 787.899 527.432 788.971 528.755 788.971H535.476C536.798 788.971 537.87 787.899 537.87 786.576V773.62C537.87 772.298 536.798 771.225 535.476 771.225Z" fill="#9AA1C1"/>
</g>
</g>
</g>
</g>
</g>
</g>
<defs>
<clipPath id="clip0_1_139">
<rect width="58.6458" height="58.648" fill="white" transform="translate(614.192 878.341)"/>
</clipPath>
</defs>
</svg>
