<svg width="26" height="26" viewBox="0 0 26 26" fill="none" xmlns="http://www.w3.org/2000/svg">
<g clip-path="url(#clip0_1_66)">
<path d="M7.03346 3.45798C7.03003 4.43598 7.55287 4.76881 7.94946 5.16921C8.76261 5.98507 8.4121 6.98384 7.09611 6.97922L1.02114 6.9579L0.99982 13.0329C0.995204 14.3479 1.99398 14.6994 2.80984 13.8862C3.21023 13.4896 3.54307 12.9668 4.52106 12.9702C5.60805 12.974 6.99616 14.0869 6.98952 15.9789C6.98287 17.8709 5.58699 18.974 4.5 18.9702C3.52201 18.9668 3.19285 18.4416 2.79525 18.0422C1.98512 17.2233 0.983905 17.5668 0.979286 18.8828L0.957964 24.9578L7.03293 24.9791C8.34792 24.9837 8.69943 23.985 7.88629 23.1691C7.48969 22.7687 6.96685 22.4359 6.97028 21.4579C6.9741 20.3709 8.08698 18.9828 9.97897 18.9894C11.871 18.9961 12.9741 20.3919 12.9702 21.4789C12.9668 22.4569 12.4417 22.7861 12.0423 23.1837C11.2234 23.9938 11.5669 24.995 12.8829 24.9996L18.9579 25.021L18.9792 18.946C18.9838 17.631 19.985 17.2865 20.7951 18.1054C21.1927 18.5048 21.5219 19.0299 22.4999 19.0334C23.5869 19.0372 24.9828 17.9341 24.9894 16.0421C24.996 14.1501 23.6079 13.0372 22.5209 13.0334C21.543 13.03 21.2101 13.5528 20.8097 13.9494C19.9939 14.7625 18.9951 14.412 18.9997 13.096L19.021 7.02108L12.9461 6.99976C11.6311 6.99514 11.2866 5.99392 12.1054 5.18379C12.5048 4.78619 13.03 4.45703 13.0334 3.47904C13.0372 2.39205 11.9341 0.996167 10.0421 0.989526C8.15016 0.982885 7.03728 2.37099 7.03346 3.45798V3.45798Z" fill="#96D76E"/>
</g>
<defs>
<clipPath id="clip0_1_66">
<rect width="24" height="24" fill="white" transform="translate(25.0421 1.04218) rotate(90.2011)"/>
</clipPath>
</defs>
</svg>
