<svg width="24" height="24" viewBox="0 0 24 24" fill="none" xmlns="http://www.w3.org/2000/svg">
<path fill-rule="evenodd" clip-rule="evenodd" d="M22.5 7C23.328 7 24 7.672 24 8.5V22.5C24 23.326 23.329 24 22.5 24H15.5C14.671 24 14 23.325 14 22.5V8.5C14 7.673 14.673 7 15.5 7H22.5ZM13.593 24H4L6.599 21H13V22.804C13 23.383 13.336 23.894 13.593 24ZM19 23C18.447 23 18 22.552 18 22C18 21.448 18.447 21 19 21C19.552 21 19.999 21.448 19.999 22C19.999 22.552 19.552 23 19 23ZM23 20V9.976H15V20H23ZM22 6H20V2H2V17H13V19H0V0H22V6ZM19.5 9C19.775 9 20 8.776 20 8.5C20 8.224 19.775 8 19.5 8H18.5C18.224 8 18 8.224 18 8.5C18 8.776 18.224 9 18.5 9H19.5Z" fill="#FF0000"/>
</svg>
