<svg width="58" height="36" viewBox="0 0 58 36" fill="none" xmlns="http://www.w3.org/2000/svg">
<path d="M57.6 34.1C57.6 35.2 56.7 36 55.7 36H2C0.9 36 0 35.1 0 34.1V2C0 0.9 0.9 0 2 0H55.7C56.8 0 57.6 0.9 57.6 1.9V34.1Z" fill="#FAFAFA"/>
<path d="M40.75 19.2595V7H18.065V29.6378H40.75V23.0216C40.685 23.0216 40.75 19.2595 40.75 19.2595Z" fill="#2A6CB4"/>
<path d="M37.955 17.9622H39.71V14.0054H37.825V14.5892L37.5 14.0054H35.875V14.7189L35.55 14.0054H32.56C32.43 14.0054 32.365 14.0703 32.235 14.0703C32.105 14.0703 32.105 14.1351 31.975 14.2C31.845 14.2649 31.845 14.2649 31.715 14.3297V14.0703H23.2L22.94 14.7189L22.68 14.0703H20.665V14.7189L20.34 14.0054H18.715L18 15.6919V17.9622H19.17L19.365 17.3784H19.755L19.95 17.9622H28.855V17.4432L29.31 17.9622H31.78V17.6378C31.845 17.7027 31.91 17.7027 31.975 17.7676C32.04 17.8324 32.105 17.8324 32.17 17.8973C32.3 17.9622 32.365 17.9622 32.495 17.9622H34.315L34.51 17.3784H34.9L35.095 17.9622H37.565V17.4432C37.565 17.4432 37.955 17.9622 37.955 17.9622ZM40.75 23.0216V19.2595H26.84L26.515 19.7784L26.125 19.2595H22.095V23.2162H26.125L26.45 22.6973L26.775 23.2162H29.31V22.373C29.635 22.373 29.96 22.3081 30.22 22.2432V23.2811H32.04V22.7622L32.365 23.2811H39.905C40.23 23.2162 40.49 23.1513 40.75 23.0216Z" fill="white"/>
<path d="M39.905 22.0486H38.54V22.6324H39.84C40.425 22.6324 40.75 22.3081 40.75 21.7892C40.75 21.2703 40.425 21.0108 39.97 21.0108H39.385C39.255 21.0108 39.125 20.8811 39.125 20.7513C39.125 20.6216 39.255 20.4919 39.385 20.4919H40.555L40.815 19.9081H39.45C38.865 19.9081 38.54 20.2324 38.54 20.6865C38.54 21.2054 38.865 21.4649 39.32 21.4649H39.905C40.035 21.4649 40.165 21.5946 40.165 21.7243C40.23 21.9838 40.1 22.0486 39.905 22.0486ZM37.435 22.0486H36.07V22.6324H37.37C37.955 22.6324 38.28 22.3081 38.28 21.7892C38.28 21.2703 37.955 21.0108 37.5 21.0108H36.915C36.785 21.0108 36.655 20.8811 36.655 20.7513C36.655 20.6216 36.785 20.4919 36.915 20.4919H38.085L38.345 19.9081H36.98C36.395 19.9081 36.07 20.2324 36.07 20.6865C36.07 21.2054 36.395 21.4649 36.85 21.4649H37.435C37.565 21.4649 37.695 21.5946 37.695 21.7243C37.695 21.9838 37.565 22.0486 37.435 22.0486ZM35.68 20.427V19.9081H33.535V22.5676H35.68V21.9838H34.185V21.4H35.68V20.8162H34.185V20.2973L35.68 20.427ZM32.235 20.427C32.495 20.427 32.56 20.5568 32.56 20.7513C32.56 20.9459 32.43 21.0757 32.235 21.0757H31.455V20.427H32.235ZM31.455 21.5946H31.78L32.56 22.5676H33.34L32.43 21.5297C32.885 21.4 33.145 21.1405 33.145 20.7513C33.145 20.2324 32.82 19.9081 32.235 19.9081H30.805V22.5676H31.39L31.455 21.5946ZM29.83 20.8162C29.83 21.0108 29.7 21.1405 29.505 21.1405H28.66V20.427H29.44C29.7 20.427 29.83 20.6216 29.83 20.8162ZM28.075 19.9081V22.5676H28.66V21.6595H29.44C30.025 21.6595 30.415 21.3351 30.415 20.7513C30.415 20.2324 30.09 19.8432 29.505 19.8432C29.57 19.8432 28.075 19.9081 28.075 19.9081ZM27.165 22.5676H27.945L26.84 21.2054L27.88 19.9081H27.1L26.45 20.7513L25.8 19.9081H25.02L26.06 21.2054L25.02 22.5027H25.8L26.45 21.6595C26.515 21.6595 27.165 22.5676 27.165 22.5676ZM24.89 20.427V19.9081H22.745V22.5676H24.89V21.9838H23.395V21.4H24.89V20.8162H23.395V20.2973L24.89 20.427ZM37.175 15.6919L38.215 17.3135H38.995V14.6541H38.41V16.4054L38.28 16.1459L37.305 14.6541H36.46V17.3135H37.045V15.4973L37.175 15.6919ZM34.51 15.6919L34.705 15.1081L34.9 15.6919L35.16 16.2757H34.25C34.315 16.2757 34.51 15.6919 34.51 15.6919ZM35.615 17.3135H36.265L35.095 14.6541H34.315L33.145 17.3135H33.795L34.055 16.7297H35.355C35.355 16.7946 35.615 17.3135 35.615 17.3135ZM32.755 17.3135L33.015 16.7297H32.885C32.43 16.7297 32.17 16.4054 32.17 15.9513V15.8865C32.17 15.4324 32.43 15.1081 32.885 15.1081H33.535V14.5243H32.82C32.04 14.5243 31.585 15.1081 31.585 15.8216V16.0162C31.585 16.7946 32.04 17.3135 32.755 17.3135ZM30.48 17.3135H31.065V14.7189H30.48V17.3135V17.3135ZM29.18 15.2378C29.44 15.2378 29.505 15.3676 29.505 15.5622C29.505 15.6919 29.375 15.8865 29.18 15.8865H28.4V15.2378C28.4 15.173 29.18 15.2378 29.18 15.2378ZM28.4 16.3405H28.725L29.505 17.3135H30.285L29.375 16.2757C29.83 16.1459 30.09 15.8865 30.09 15.4973C30.09 14.9784 29.765 14.6541 29.18 14.6541H27.75V17.3135H28.335C28.4 17.3135 28.4 16.3405 28.4 16.3405ZM27.295 15.2378V14.6541H25.15V17.3135H27.295V16.7297H25.8V16.1459H27.295V15.5622H25.8V15.0432L27.295 15.2378ZM22.745 17.3135H23.33L24.11 15.173V17.3135H24.695V14.6541H23.655L23.07 16.4703L22.485 14.6541H21.445V17.3135H22.03V15.173C22.03 15.173 22.745 17.3135 22.745 17.3135ZM19.43 15.6919L19.625 15.1081L19.82 15.6919L20.08 16.2757H19.17C19.17 16.2757 19.43 15.6919 19.43 15.6919ZM20.47 17.3135H21.12L19.95 14.6541H19.17L18.065 17.3135H18.715L18.975 16.7297H20.275C20.275 16.7946 20.47 17.3135 20.47 17.3135Z" fill="#2A6CB4"/>
</svg>
