<svg width="58" height="36" viewBox="0 0 58 36" fill="none" xmlns="http://www.w3.org/2000/svg">
<path d="M57.6 34.1C57.6 35.2 56.7 36 55.7 36H2C0.9 36 0 35.1 0 34.1V2C0 0.9 0.9 0 2 0H55.7C56.8 0 57.6 0.9 57.6 1.9V34.1Z" fill="#FAFAFA"/>
<path fill-rule="evenodd" clip-rule="evenodd" d="M22.5266 21.4443H22.5727C22.6901 21.4443 22.8153 21.4286 22.8153 21.2591V19.5525C22.8153 19.3824 22.6901 19.3673 22.5727 19.3673H22.5269V19.2678C22.6549 19.2678 22.8511 19.2813 23.0121 19.2813C23.176 19.2813 23.3725 19.2678 23.5263 19.2678V19.367H23.4804C23.3627 19.367 23.2378 19.3827 23.2378 19.5522V21.2588C23.2378 21.4289 23.3627 21.4443 23.4804 21.4443H23.5263V21.5425C23.3693 21.5425 23.1722 21.53 23.0084 21.53C22.8477 21.53 22.6549 21.5425 22.5269 21.5425V21.4443H22.5266ZM25.7784 20.9006L25.7847 20.8943V19.6727C25.7847 19.4056 25.5979 19.367 25.499 19.367H25.4275V19.2681C25.5813 19.2681 25.7326 19.2813 25.8864 19.2813C26.0204 19.2813 26.1554 19.2681 26.2891 19.2681V19.367H26.2407C26.1026 19.367 25.9482 19.3921 25.9482 19.7801V21.2625C25.9482 21.3765 25.952 21.4901 25.9683 21.5912H25.8437L24.1556 19.7217V21.0632C24.1556 21.3476 24.2109 21.4443 24.4632 21.4443H24.5191V21.5425C24.3785 21.5425 24.2372 21.53 24.096 21.53C23.9494 21.53 23.7981 21.5425 23.6509 21.5425V21.4443H23.6967C23.9227 21.4443 23.9918 21.292 23.9918 21.0309V19.6592C23.9918 19.4768 23.8405 19.367 23.6936 19.367H23.6509V19.2681C23.7749 19.2681 23.9029 19.2813 24.0272 19.2813C24.1261 19.2813 24.2215 19.2681 24.3191 19.2681L25.7784 20.9006V20.9006ZM26.78 19.4313C26.5339 19.4313 26.5251 19.49 26.4755 19.7276H26.3773C26.3908 19.6366 26.4065 19.5456 26.4168 19.4505C26.4294 19.3594 26.4366 19.2681 26.4366 19.1743H26.5151C26.5418 19.2719 26.6234 19.2681 26.7119 19.2681H28.4034C28.4913 19.2681 28.5738 19.265 28.5804 19.1677L28.6583 19.1808C28.6463 19.2681 28.6332 19.3566 28.6228 19.4445C28.6162 19.5324 28.6162 19.6203 28.6162 19.7082L28.5183 19.7449C28.5117 19.6237 28.4947 19.431 28.2753 19.431H27.738V21.1646C27.738 21.416 27.8528 21.4443 28.0101 21.4443H28.0719V21.5425C27.9445 21.5425 27.7147 21.5296 27.5377 21.5296C27.3415 21.5296 27.1115 21.5425 26.9837 21.5425V21.4443H27.0459C27.2266 21.4443 27.3177 21.4286 27.3177 21.1715V19.4313H26.78V19.4313ZM28.7634 21.4443H28.8093C28.927 21.4443 29.0516 21.4286 29.0516 21.2591V19.5525C29.0516 19.3824 28.927 19.3673 28.8093 19.3673H28.7634V19.2678C28.9627 19.2678 29.3049 19.2813 29.5795 19.2813C29.8551 19.2813 30.1957 19.2678 30.4176 19.2678C30.4123 19.4084 30.4157 19.6241 30.4254 19.7672L30.3263 19.7932C30.3106 19.5817 30.2713 19.4125 29.927 19.4125H29.4725V20.265H29.8614C30.0585 20.265 30.1012 20.1551 30.1203 19.9794H30.2183C30.212 20.1062 30.2089 20.233 30.2089 20.3601C30.2089 20.4841 30.212 20.6078 30.2183 20.7311L30.1203 20.7509C30.1012 20.5553 30.0912 20.4282 29.8645 20.4282H29.4722V21.1872C29.4722 21.3991 29.6618 21.3991 29.8708 21.3991C30.265 21.3991 30.4383 21.373 30.5366 21.0017L30.6282 21.0249C30.5855 21.1979 30.5466 21.3692 30.5168 21.5428C30.3074 21.5428 29.9298 21.5296 29.6351 21.5296C29.34 21.5296 28.9502 21.5425 28.7634 21.5425V21.4443ZM31.4904 20.3695H31.6505C31.9785 20.3695 32.1553 20.2462 32.1553 19.8613C32.1553 19.5723 31.9685 19.3858 31.6769 19.3858C31.5777 19.3858 31.536 19.3962 31.4904 19.399V20.3695V20.3695ZM31.0711 19.6137C31.0711 19.3758 30.9399 19.3667 30.8382 19.3667H30.7786V19.2681C30.8834 19.2681 31.0868 19.2813 31.2871 19.2813C31.4832 19.2813 31.6408 19.2681 31.815 19.2681C32.2271 19.2681 32.5941 19.3789 32.5941 19.8422C32.5941 20.1351 32.3982 20.314 32.1389 20.416L32.7002 21.249C32.7915 21.3871 32.8565 21.4254 33.0172 21.4443V21.5425C32.9092 21.5425 32.8044 21.5296 32.6964 21.5296C32.5941 21.5296 32.4895 21.5425 32.3882 21.5425C32.1358 21.2139 31.9192 20.8614 31.7064 20.4866H31.4904V21.1837C31.4904 21.4355 31.6082 21.4443 31.7585 21.4443H31.8181V21.5425C31.6308 21.5425 31.4409 21.5296 31.2541 21.5296C31.0972 21.5296 30.9427 21.5425 30.7786 21.5425V21.4443H30.8382C30.9587 21.4443 31.0711 21.3896 31.0711 21.2685V19.6137V19.6137ZM35.2426 20.9006L35.2489 20.8943V19.6727C35.2489 19.4056 35.0621 19.367 34.9642 19.367H34.892V19.2681C35.0461 19.2681 35.1962 19.2813 35.3509 19.2813C35.4859 19.2813 35.6196 19.2681 35.7542 19.2681V19.367H35.7056C35.5675 19.367 35.4134 19.3921 35.4134 19.7801V21.2625C35.4134 21.3765 35.4162 21.4901 35.4322 21.5912H35.3085L33.6205 19.7217V21.0632C33.6205 21.3476 33.6763 21.4443 33.9287 21.4443H33.9849V21.5425C33.8436 21.5425 33.7021 21.53 33.5611 21.53C33.4136 21.53 33.263 21.5425 33.1157 21.5425V21.4443H33.1609C33.3879 21.4443 33.456 21.292 33.456 21.0309V19.6592C33.456 19.4768 33.3053 19.367 33.1584 19.367H33.1157V19.2681C33.2397 19.2681 33.3687 19.2813 33.4924 19.2813C33.5903 19.2813 33.6854 19.2681 33.784 19.2681L35.2426 20.9006V20.9006ZM36.7602 19.6335H36.754L36.4489 20.5553H37.0613L36.7602 19.6335ZM36.2822 21.0767C36.2489 21.1872 36.2088 21.2729 36.2088 21.3303C36.2088 21.4286 36.3475 21.4443 36.4552 21.4443H36.4916V21.5422C36.3597 21.5359 36.2257 21.5296 36.0942 21.5296C35.9762 21.5296 35.8588 21.5359 35.7411 21.5422V21.4443H35.7599C35.888 21.4443 35.9969 21.3692 36.0446 21.2327L36.5697 19.7383C36.6121 19.6171 36.672 19.4549 36.6912 19.3334C36.796 19.2979 36.9272 19.233 36.9894 19.1937C36.9997 19.1903 37.0051 19.1878 37.0157 19.1878C37.0252 19.1878 37.0314 19.1878 37.0387 19.1972C37.0484 19.2232 37.0581 19.2524 37.0685 19.2788L37.6711 20.9825C37.7104 21.0965 37.7499 21.2173 37.792 21.3153C37.8318 21.406 37.9009 21.4443 38.0089 21.4443H38.028V21.5422C37.8811 21.5359 37.7333 21.5296 37.5763 21.5296C37.4163 21.5296 37.2518 21.5359 37.0851 21.5422V21.4443H37.1212C37.1959 21.4443 37.324 21.432 37.324 21.3504C37.324 21.3077 37.2948 21.2198 37.2578 21.1156L37.13 20.7377H36.3861L36.2825 21.0767H36.2822ZM38.173 19.4313C37.9266 19.4313 37.9172 19.49 37.8679 19.7276H37.7691C37.7826 19.6366 37.7992 19.5456 37.8089 19.4505C37.8221 19.3594 37.8287 19.2681 37.8287 19.1743H37.9072C37.9332 19.2719 38.0155 19.2681 38.1037 19.2681H39.7952C39.8834 19.2681 39.9647 19.265 39.9716 19.1677L40.0504 19.1808C40.0378 19.2681 40.0253 19.3566 40.0146 19.4445C40.0064 19.5324 40.0064 19.6203 40.0064 19.7082L39.9091 19.7449C39.9038 19.6237 39.8865 19.431 39.6674 19.431H39.1294V21.1646C39.1294 21.416 39.2443 21.4443 39.4019 21.4443H39.4637V21.5425C39.3363 21.5425 39.1068 21.5296 38.9295 21.5296C38.7333 21.5296 38.5032 21.5425 38.3749 21.5425V21.4443H38.4376C38.6188 21.4443 38.7107 21.4286 38.7107 21.1715V19.4313H38.173V19.4313ZM40.1712 21.4443H40.2171C40.3357 21.4443 40.4597 21.4286 40.4597 21.2591V19.5525C40.4597 19.3824 40.3357 19.3673 40.2171 19.3673H40.1712V19.2678C40.299 19.2678 40.4955 19.2813 40.6559 19.2813C40.82 19.2813 41.0165 19.2678 41.1716 19.2678V19.367H41.1257C41.0068 19.367 40.8819 19.3827 40.8819 19.5522V21.2588C40.8819 21.4289 41.0068 21.4443 41.1257 21.4443H41.1716V21.5425C41.0137 21.5425 40.8169 21.53 40.653 21.53C40.492 21.53 40.299 21.5425 40.1712 21.5425V21.4443ZM42.5276 21.448C43.1644 21.448 43.2743 20.8909 43.2743 20.416C43.2743 19.9398 43.0166 19.3632 42.472 19.3632C41.8988 19.3632 41.7281 19.8714 41.7281 20.3074C41.7281 20.8909 41.9971 21.448 42.5276 21.448ZM42.4786 19.2198C43.177 19.2198 43.7341 19.6498 43.7341 20.3441C43.7341 21.0933 43.1936 21.5912 42.4952 21.5912C41.7993 21.5912 41.2698 21.1228 41.2698 20.4213C41.2698 19.7449 41.7971 19.2198 42.4783 19.2198H42.4786ZM45.9432 20.9006L45.9498 20.8943V19.6727C45.9498 19.4056 45.7628 19.367 45.6636 19.367H45.5929V19.2681C45.7461 19.2681 45.8974 19.2813 46.0512 19.2813C46.1865 19.2813 46.3205 19.2681 46.4546 19.2681V19.367H46.4056C46.2672 19.367 46.113 19.3921 46.113 19.7801V21.2625C46.113 21.3765 46.1168 21.4901 46.1331 21.5912H46.0082L44.3205 19.7217V21.0632C44.3205 21.3476 44.376 21.4443 44.6287 21.4443H44.6842V21.5425C44.5433 21.5425 44.4027 21.53 44.2614 21.53C44.1139 21.53 43.9629 21.5425 43.8151 21.5425V21.4443H43.8616C44.0885 21.4443 44.1557 21.292 44.1557 21.0309V19.6592C44.1557 19.4768 44.0059 19.367 43.8575 19.367H43.8151V19.2681C43.94 19.2681 44.0675 19.2813 44.1927 19.2813C44.2906 19.2813 44.3857 19.2681 44.484 19.2681L45.9436 20.9006H45.9432ZM47.4599 19.6335H47.4536L47.1482 20.5553H47.7625L47.4599 19.6335ZM46.9813 21.0767C46.9492 21.1872 46.9094 21.2729 46.9094 21.3303C46.9094 21.4286 47.0481 21.4443 47.1548 21.4443H47.1916V21.5422C47.06 21.5359 46.926 21.5296 46.7948 21.5296C46.6755 21.5296 46.5584 21.5359 46.4414 21.5422V21.4443H46.4593C46.588 21.4443 46.6969 21.3692 46.7452 21.2327L47.2703 19.7383C47.313 19.6171 47.3714 19.4549 47.3912 19.3334C47.496 19.2979 47.6269 19.233 47.6894 19.1937C47.6994 19.1903 47.706 19.1878 47.7161 19.1878C47.7255 19.1878 47.7314 19.1878 47.7387 19.1972C47.7487 19.2232 47.7581 19.2524 47.7691 19.2788L48.3718 20.9825C48.41 21.0965 48.4502 21.2173 48.4929 21.3153C48.5315 21.406 48.6012 21.4443 48.7092 21.4443H48.7286V21.5422C48.5814 21.5359 48.4336 21.5296 48.2766 21.5296C48.1156 21.5296 47.9515 21.5359 47.7842 21.5422V21.4443H47.8209C47.8956 21.4443 48.0243 21.432 48.0243 21.3504C48.0243 21.3077 47.9942 21.2198 47.9581 21.1156L47.8309 20.7377H47.0873L46.9813 21.0767V21.0767ZM49.5551 21.2233C49.5551 21.3536 49.6461 21.3928 49.7513 21.406C49.8853 21.4157 50.0328 21.4157 50.1844 21.3997C50.3213 21.3837 50.4399 21.3049 50.4983 21.2233C50.5507 21.1511 50.5796 21.0607 50.6003 20.9885H50.6954C50.6587 21.1743 50.6129 21.3573 50.573 21.5425C50.2852 21.5425 49.9964 21.5296 49.7089 21.5296C49.4201 21.5296 49.1314 21.5425 48.8432 21.5425V21.4443H48.8881C49.0074 21.4443 49.1348 21.4286 49.1348 21.2261V19.5522C49.1348 19.3824 49.0074 19.367 48.8881 19.367H48.8432V19.2681C49.0168 19.2681 49.1875 19.2813 49.3605 19.2813C49.5281 19.2813 49.692 19.2681 49.8596 19.2681V19.367H49.777C49.6527 19.367 49.5551 19.3701 49.5551 19.5428V21.2233V21.2233Z" fill="#231F20"/>
<mask id="mask0_4_375" style="mask-type:alpha" maskUnits="userSpaceOnUse" x="50" y="19" width="1" height="1">
<path d="M50.3098 19.1763H51V19.8619H50.3098V19.1763Z" fill="white"/>
</mask>
<g mask="url(#mask0_4_375)">
<path fill-rule="evenodd" clip-rule="evenodd" d="M50.6001 19.52H50.6409C50.6852 19.52 50.7059 19.4868 50.7059 19.4328C50.7059 19.3778 50.6729 19.359 50.6381 19.359H50.6004V19.52H50.6001ZM50.4836 19.7011V19.6842C50.5254 19.6782 50.5339 19.6801 50.5339 19.6531V19.3998C50.5336 19.3637 50.5295 19.3515 50.4843 19.3534V19.3358H50.6616C50.7213 19.3358 50.7778 19.365 50.7778 19.4268C50.7778 19.4786 50.7439 19.5153 50.6961 19.5304L50.7523 19.6095C50.7793 19.644 50.8091 19.6785 50.8289 19.6902V19.7011H50.7624C50.73 19.7011 50.7021 19.6333 50.6384 19.5433H50.6007V19.6569C50.6007 19.6801 50.6086 19.6782 50.6503 19.6842V19.7011H50.484H50.4836ZM50.655 19.7984C50.8095 19.7984 50.9281 19.6679 50.9281 19.52C50.9281 19.3725 50.812 19.24 50.655 19.24C50.4993 19.24 50.3813 19.3722 50.3813 19.52C50.3813 19.6679 50.4993 19.7981 50.655 19.7981V19.7984ZM50.655 19.1763C50.8525 19.1763 51.0003 19.3276 51.0003 19.52C51.0003 19.7128 50.8525 19.8622 50.655 19.8622C50.4579 19.8622 50.3098 19.7128 50.3098 19.52C50.3098 19.3276 50.4579 19.1763 50.655 19.1763V19.1763Z" fill="#231F20"/>
</g>
<path fill-rule="evenodd" clip-rule="evenodd" d="M43.2313 14.8681H43.0806C42.9667 14.1681 42.4663 13.8866 41.7924 13.8866C41.0987 13.8866 40.0924 14.3474 40.0924 15.7834C40.0924 16.9937 40.9619 17.8619 41.8885 17.8619C42.4849 17.8619 42.9789 17.4551 43.0994 16.8261L43.2375 16.8616L43.0994 17.736C42.8464 17.8924 42.165 18.0531 41.7673 18.0531C40.358 18.0531 39.4672 17.1494 39.4672 15.8025C39.4672 14.5752 40.5689 13.6948 41.7501 13.6948C42.2381 13.6948 42.7074 13.8505 43.1713 14.0118L43.2313 14.8681V14.8681ZM43.4482 17.8076H43.563C43.7319 17.8076 43.8528 17.8076 43.8528 17.6092V14.2764C43.8528 13.8866 43.7624 13.8746 43.5332 13.8087V13.713C43.7737 13.6348 44.027 13.5278 44.1538 13.4556C44.2197 13.4195 44.2683 13.3891 44.2859 13.3891C44.3226 13.3891 44.3343 13.4252 44.3343 13.4738V17.6089C44.3343 17.8073 44.467 17.8073 44.6356 17.8073H44.7379V17.9633C44.5339 17.9633 44.3226 17.9517 44.1051 17.9517C43.8889 17.9517 43.672 17.958 43.4482 17.9633V17.8073V17.8076ZM47.3165 17.634C47.3165 17.7423 47.3824 17.7477 47.4853 17.7477C47.5569 17.7477 47.6479 17.7423 47.7264 17.7423V17.8685C47.4665 17.892 46.9731 18.0176 46.8579 18.0537L46.8284 18.0355V17.5512C46.4674 17.8443 46.1893 18.0534 45.7612 18.0534C45.4363 18.0534 45.0995 17.8443 45.0995 17.3418V15.8088C45.0995 15.6525 45.0747 15.5028 44.7385 15.4733V15.3596C44.9557 15.353 45.4363 15.3179 45.5151 15.3179C45.5819 15.3179 45.5819 15.3596 45.5819 15.4911V17.0355C45.5819 17.2147 45.5819 17.7298 46.1058 17.7298C46.3098 17.7298 46.5814 17.5738 46.834 17.3657V15.7539C46.834 15.6346 46.5453 15.5693 46.3287 15.5087V15.4011C46.8708 15.365 47.2085 15.3179 47.2684 15.3179C47.3165 15.3179 47.3165 15.3596 47.3165 15.4255V17.634V17.634ZM48.5149 17.2869C48.5149 17.5148 48.7315 17.8977 49.1357 17.8977C49.7808 17.8977 50.0517 17.2687 50.0517 16.7357C50.0517 16.0897 49.5576 15.5508 49.088 15.5508C48.8636 15.5508 48.6778 15.6949 48.5149 15.833V17.2869V17.2869ZM48.5149 15.6581C48.7559 15.4554 49.0818 15.2281 49.4126 15.2281C50.1113 15.2281 50.5332 15.833 50.5332 16.4849C50.5332 17.2687 49.955 18.0534 49.0927 18.0534C48.647 18.0534 48.4129 17.9099 48.2559 17.8443L48.0754 17.9815L47.9493 17.9159C48.0023 17.5628 48.0328 17.215 48.0328 16.8503V14.2764C48.0328 13.8866 47.9427 13.8743 47.7138 13.8087V13.7127C47.9555 13.6352 48.2076 13.5281 48.3344 13.4553C48.4003 13.4195 48.4486 13.3894 48.4672 13.3894C48.5033 13.3894 48.5149 13.4252 48.5149 13.4738V15.6584V15.6581ZM23.6776 17.2571C23.6776 17.7185 24.009 17.7718 24.3041 17.7718C25.6057 17.7718 26.0323 16.7963 26.0323 15.9039C26.0323 14.7849 25.3101 13.9767 24.1474 13.9767C23.9004 13.9767 23.7865 13.9939 23.6776 14.0002V17.2574V17.2571ZM23.0875 14.4487C23.0875 13.9104 22.804 13.9459 22.5334 13.9396V13.7852C22.7679 13.7959 23.009 13.7959 23.2441 13.7959C23.4971 13.7959 23.8405 13.7852 24.2862 13.7852C25.8462 13.7852 26.6955 14.8201 26.6955 15.8804C26.6955 16.473 26.3465 17.9636 24.214 17.9636C23.9076 17.9636 23.6236 17.952 23.3408 17.952C23.0696 17.952 22.804 17.9583 22.5334 17.9636V17.8076C22.8941 17.7718 23.0696 17.7599 23.0875 17.3528V14.4487V14.4487ZM27.5518 14.3056C27.3943 14.3056 27.2561 14.1619 27.2561 14.0065C27.2561 13.8564 27.4005 13.7183 27.5518 13.7183C27.7075 13.7183 27.8469 13.8442 27.8469 14.0065C27.8469 14.1678 27.7141 14.3056 27.5518 14.3056ZM26.9068 17.8076H27.021C27.1896 17.8076 27.3098 17.8076 27.3098 17.6092V15.9877C27.3098 15.7244 27.2204 15.6883 26.9966 15.5693V15.4733C27.28 15.3888 27.6174 15.2761 27.6419 15.2573C27.684 15.2341 27.7198 15.2278 27.7502 15.2278C27.78 15.2278 27.7919 15.2633 27.7919 15.3113V17.6092C27.7919 17.8076 27.925 17.8076 28.0933 17.8076H28.1956V17.9636C27.9906 17.9636 27.78 17.952 27.5634 17.952C27.3465 17.952 27.1297 17.9583 26.9068 17.9636V17.8076V17.8076ZM28.7681 16.0235C28.7681 15.8025 28.7019 15.7426 28.4191 15.6293V15.5147C28.6777 15.4309 28.9244 15.3527 29.2138 15.2278C29.232 15.2278 29.2496 15.2394 29.2496 15.2868V15.677C29.5933 15.4309 29.889 15.2278 30.2927 15.2278C30.8043 15.2278 30.9854 15.5982 30.9854 16.0659V17.6096C30.9854 17.8079 31.1182 17.8079 31.2864 17.8079H31.3947V17.9636C31.1831 17.9636 30.9725 17.952 30.7566 17.952C30.5394 17.952 30.3225 17.9583 30.1056 17.9636V17.8079H30.2142C30.3831 17.8079 30.5026 17.8079 30.5026 17.6096V16.0599C30.5026 15.7181 30.2923 15.5511 29.9486 15.5511C29.7559 15.5511 29.4493 15.7062 29.2496 15.8383V17.6096C29.2496 17.8079 29.3833 17.8079 29.5519 17.8079H29.6602V17.9636C29.4493 17.9636 29.2377 17.952 29.0205 17.952C28.8045 17.952 28.5873 17.9583 28.3707 17.9636V17.8079H28.4794C28.6479 17.8079 28.7681 17.8079 28.7681 17.6096V16.0235ZM32.9192 16.1195C33.0693 16.1195 33.0869 16.0417 33.0869 15.9701C33.0869 15.6641 32.9004 15.419 32.5633 15.419C32.1961 15.419 31.9431 15.688 31.8706 16.1195H32.9192V16.1195ZM31.853 16.3116C31.8404 16.3653 31.8404 16.4548 31.853 16.6585C31.8881 17.2276 32.2563 17.6943 32.7378 17.6943C33.0693 17.6943 33.3292 17.5144 33.5514 17.2932L33.6358 17.377C33.3584 17.742 33.0156 18.0531 32.5219 18.0531C31.5633 18.0531 31.3712 17.1312 31.3712 16.7486C31.3712 15.575 32.1659 15.2278 32.5868 15.2278C33.0752 15.2278 33.6001 15.5326 33.6057 16.1669C33.6057 16.204 33.6057 16.2391 33.6001 16.2755L33.5451 16.3116H31.853V16.3116ZM33.7438 17.8076H33.907C34.0756 17.8076 34.1952 17.8076 34.1952 17.6092V15.9278C34.1952 15.7426 33.9729 15.7065 33.8826 15.6581V15.5693C34.322 15.3832 34.5637 15.2278 34.618 15.2278C34.6538 15.2278 34.6717 15.2451 34.6717 15.3056V15.844H34.6845C34.8346 15.6111 35.0876 15.2278 35.4551 15.2278C35.6058 15.2278 35.7979 15.3289 35.7979 15.5448C35.7979 15.7065 35.6846 15.8509 35.5154 15.8509C35.328 15.8509 35.328 15.7065 35.1177 15.7065C35.0154 15.7065 34.6776 15.844 34.6776 16.204V17.6092C34.6776 17.8076 34.7982 17.8076 34.9667 17.8076H35.3041V17.9636C34.9727 17.958 34.7203 17.952 34.4614 17.952C34.2137 17.952 33.961 17.9583 33.7438 17.9636V17.8076V17.8076ZM36.0628 17.1315C36.1419 17.5264 36.3826 17.8622 36.8224 17.8622C37.1777 17.8622 37.3095 17.6463 37.3095 17.4369C37.3095 16.7307 35.9975 16.9573 35.9975 15.994C35.9975 15.6581 36.2687 15.2281 36.9313 15.2281C37.1237 15.2281 37.3827 15.2815 37.6175 15.4011L37.6598 16.0119H37.5217C37.4615 15.6349 37.2499 15.4186 36.8644 15.4186C36.6234 15.4186 36.3949 15.5568 36.3949 15.8141C36.3949 16.515 37.792 16.2994 37.792 17.2392C37.792 17.634 37.4728 18.0534 36.7565 18.0534C36.5148 18.0534 36.2317 17.9699 36.021 17.8503L35.9548 17.1616L36.0628 17.1315Z" fill="#231F20"/>
<mask id="mask1_4_375" style="mask-type:alpha" maskUnits="userSpaceOnUse" x="8" y="12" width="14" height="12">
<path d="M8 12H21.2509V23.3836H8V12Z" fill="white"/>
</mask>
<g mask="url(#mask1_4_375)">
<path fill-rule="evenodd" clip-rule="evenodd" d="M13.7767 23.3836C10.6081 23.398 8 20.8471 8 17.7412C8 14.3469 10.6081 11.999 13.7767 11.9997H15.262C18.393 11.999 21.2509 14.3456 21.2509 17.7412C21.2509 20.8455 18.393 23.3836 15.262 23.3836H13.7767V23.3836Z" fill="#004C97"/>
</g>
<mask id="mask2_4_375" style="mask-type:alpha" maskUnits="userSpaceOnUse" x="8" y="12" width="12" height="12">
<path d="M8 12H19.7317V23.3836H8V12Z" fill="white"/>
</mask>
<g mask="url(#mask2_4_375)">
<path fill-rule="evenodd" clip-rule="evenodd" d="M13.7767 23.3836C10.6081 23.398 8 20.8471 8 17.7412C8 14.3469 10.6081 11.999 13.7767 11.9997H13.8599C16.9906 11.999 19.7317 14.3456 19.7317 17.7412C19.7317 20.8455 16.9906 23.3836 13.8599 23.3836H13.7767V23.3836Z" fill="#004C97"/>
</g>
<path fill-rule="evenodd" clip-rule="evenodd" d="M13.7896 12.4706C10.894 12.4716 8.54773 14.8037 8.54773 17.6817C8.54773 20.5591 10.894 22.891 13.7896 22.8913C16.6855 22.8913 19.0321 20.5591 19.033 17.6817C19.0321 14.8034 16.6852 12.4713 13.7896 12.4706" fill="#FEFEFE"/>
<path fill-rule="evenodd" clip-rule="evenodd" d="M12.5993 20.7628V14.5994C11.3532 15.0765 10.4696 16.2749 10.4665 17.6818C10.4696 19.088 11.3535 20.287 12.5993 20.7628V20.7628ZM17.1133 17.6818C17.1108 16.2743 16.2259 15.0743 14.9786 14.5988V20.7644C16.2259 20.2882 17.1108 19.0895 17.113 17.6818" fill="#004C97"/>
</svg>
