<svg width="58" height="34" viewBox="0 0 58 34" fill="none" xmlns="http://www.w3.org/2000/svg">
<path d="M57.6 34.1C57.6 35.2 56.7 36 55.7 36H2C0.9 36 0 35.1 0 34.1V2C0 0.9 0.9 0 2 0H55.7C56.8 0 57.6 0.9 57.6 1.9V34.1Z" fill="#FAFAFA"/>
<path d="M23.7054 5.74437H14.75V28.1489H23.7054V5.74437Z" fill="url(#paint0_linear_4_382)" stroke="#979797"/>
<path d="M34.1357 5.53102H24.7589V28.1489H34.1357V5.53102Z" fill="url(#paint1_linear_4_382)" stroke="#979797"/>
<path d="M44.3554 5.74437H34.9786V28.2556H44.3554V5.74437Z" fill="url(#paint2_linear_4_382)" stroke="#979797"/>
<path fill-rule="evenodd" clip-rule="evenodd" d="M46.3488 24.7768C46.3488 26.2059 45.7657 27.5949 44.7496 28.5867C43.7786 29.5346 42.4692 30.0648 41.1218 30.0683C40.9627 30.0687 40.8036 30.0683 40.6444 30.0683H39.3885H37.4823H35.0653H32.284H29.2663H26.1369H23.0527H20.1382H17.5208H15.3473H13.7584H12.8814C12.8627 30.0683 12.7663 30.0823 12.7519 30.0683C12.7378 30.0546 12.7514 29.9536 12.7514 29.9345V28.8263V26.8201V24.1722V21.1303V17.9632V14.9415V12.3128V10.33V9.26376C12.7514 8.39379 12.922 7.54461 13.3118 6.76499C13.9348 5.51843 15.0453 4.55138 16.3576 4.11868C16.9398 3.92666 17.54 3.85956 18.1488 3.85956H19.0884H20.7288H22.9432H25.5904H28.5235H31.6156H34.7417H37.755H40.5103H42.8826H44.7417H45.9423H46.3488V4.42166V5.95102V8.20326V10.9491V13.9663V17.0105V19.8461V22.2305V23.9411C46.3488 24.2093 46.3486 24.4774 46.3488 24.7456V24.7768ZM14.6949 18.7772C14.6289 18.7455 14.6293 18.7588 14.6177 18.7117C14.6106 18.6835 14.6177 18.6433 14.6177 18.6144V18.2419V16.9013V13.0457V9.88165C14.6177 9.66765 14.6122 9.45248 14.6211 9.23859C14.6655 8.18544 15.1569 7.18265 15.9538 6.50597C16.5222 6.02335 17.2299 5.7191 17.9681 5.64314C18.404 5.59834 18.8519 5.62362 19.2896 5.62362H21.565H22.698H23.2649H23.5527H23.6872C23.7077 5.62362 23.8122 5.60911 23.8257 5.62362C23.8333 5.63184 23.8257 5.68539 23.8257 5.69584V5.8996V6.67207V9.37567V13.0507V17.0763V20.7722V23.4758C23.8257 23.8253 23.8271 24.1748 23.8257 24.5243C23.8211 25.5825 23.3806 26.6027 22.6082 27.3172C22.0517 27.8319 21.3413 28.1702 20.5938 28.2703C20.1438 28.3307 19.6804 28.3044 19.227 28.3044H18.0854H15.8193H14.6892C14.6177 28.3044 14.6313 28.3194 14.6177 28.2776C14.6083 28.2489 14.6177 28.2009 14.6177 28.1711V27.7551V24.3318V20.9104V20.3379C15.3456 20.5368 16.1037 20.6493 16.8531 20.7251C17.5813 20.7987 18.3159 20.8281 19.0472 20.7935C20.0697 20.7451 21.19 20.581 22.0326 19.95C22.3844 19.6866 22.6653 19.3383 22.8363 18.9292C22.9998 18.5383 23.0571 18.1149 23.0577 17.6929C23.0583 17.3087 23.0577 16.9246 23.0577 16.5404V13.3876C23.0577 13.346 23.0644 13.3443 23.0398 13.3296C23.0144 13.3145 22.9359 13.3296 22.9053 13.3296H22.7614H22.2125H21.1067H20.009C19.9677 13.3296 19.8638 13.3132 19.8473 13.3431C19.8334 13.3681 19.8473 13.4406 19.8473 13.469V14.043V17.4529C19.8473 17.5404 19.8478 17.628 19.8473 17.7155C19.8436 18.2351 19.6704 18.749 19.2811 19.1016C18.7661 19.568 18.0592 19.6224 17.4019 19.5699C16.6455 19.5093 15.9078 19.299 15.2078 19.0076C15.0348 18.9356 14.8639 18.8584 14.6949 18.7772ZM25.0232 14.288C24.9971 14.3093 24.9713 14.331 24.9459 14.353V11.7933V10.099C24.9459 9.77273 24.9323 9.44149 24.9567 9.1159C25.0884 7.35184 26.4675 5.87923 28.1979 5.65499C28.6185 5.60047 29.0508 5.62373 29.4742 5.62373H30.5267H32.6583H33.7188H33.9799C34.0065 5.62373 34.1394 5.60815 34.1543 5.62576C34.1632 5.63632 34.1543 5.69499 34.1543 5.70822V7.11384V9.8377V13.3651V17.1181V20.579V23.2119C34.1543 23.6357 34.1546 24.0596 34.1543 24.4834C34.1531 25.927 33.356 27.2728 32.0734 27.9146C31.518 28.1926 30.9223 28.3044 30.3062 28.3044H29.241H27.1188H26.0569H25.5268H25.2569C25.1711 28.3044 25.0689 28.32 24.9846 28.3044C24.9288 28.294 24.9586 28.3148 24.9459 28.2798C24.9378 28.2575 24.9459 28.2165 24.9459 28.1929V27.8488V26.5989V23.0088V20.0423V19.5765C25.5557 20.1063 26.3285 20.4058 27.1048 20.58C27.6936 20.712 28.2965 20.7749 28.8987 20.7978C29.4885 20.8202 30.0825 20.8098 30.6705 20.7565C31.2714 20.702 31.8686 20.6064 32.4598 20.486C32.6102 20.4554 32.7604 20.4229 32.9101 20.3884C32.9469 20.3798 33.0964 20.3675 33.1164 20.3384C33.1312 20.3169 33.1164 20.2313 33.1164 20.2063V18.8543V18.7397C32.4762 19.0632 31.8055 19.321 31.1023 19.4619C30.2448 19.6335 29.295 19.6814 28.4763 19.3255C27.6478 18.9653 27.1557 18.1927 27.0734 17.2917C26.9889 16.3656 27.2626 15.3918 28.0447 14.8431C28.855 14.2746 29.9168 14.2704 30.8551 14.4205C31.5535 14.5322 32.2264 14.7592 32.8648 15.0647C32.9492 15.1051 33.033 15.1469 33.1164 15.1893V14.0199V13.7218C33.1164 13.6988 33.1309 13.6092 33.1164 13.5901C33.0932 13.5596 32.9493 13.5487 32.9101 13.5396C32.8367 13.5226 32.7632 13.5063 32.6896 13.4903C32.1028 13.3631 31.5097 13.2614 30.913 13.1962C30.3282 13.1323 29.7385 13.1125 29.1504 13.1238C28.5528 13.1354 27.9539 13.1837 27.3659 13.2952C26.6381 13.4331 25.9127 13.6677 25.2929 14.0872C25.2001 14.15 25.11 14.217 25.0232 14.288ZM37.0991 17.4235H38.5228C38.7613 17.4235 39 17.4217 39.2386 17.4235C39.504 17.4255 39.7537 17.4928 39.9549 17.6756C40.2035 17.9013 40.315 18.2458 40.2659 18.5784C40.223 18.8695 40.0524 19.1307 39.8018 19.2803C39.5956 19.4035 39.3725 19.4178 39.1399 19.4178H38.4241H37.7122H37.3518C37.2953 19.4178 37.1183 19.4419 37.0991 19.3992C37.0864 19.3711 37.0991 19.3065 37.0991 19.2759V19.0613V18.4737V17.4786V17.4235ZM40.0001 15.1664C40.0651 15.467 39.9886 15.7944 39.775 16.0172C39.5863 16.2139 39.3291 16.2941 39.0634 16.299C38.849 16.3029 38.634 16.299 38.4196 16.299H37.7664H37.4376H37.2668C37.2358 16.299 37.1325 16.3164 37.1086 16.299C37.0807 16.2787 37.0991 16.1408 37.0991 16.1007V15.6205V14.5931C37.0991 14.5644 37.0875 14.5054 37.0991 14.4787C37.1122 14.4488 37.1192 14.4587 37.1634 14.4587H37.4876H38.1534H38.8065C38.928 14.4587 39.0503 14.4541 39.1715 14.4641C39.4266 14.485 39.6673 14.5981 39.8291 14.8024C39.9134 14.9089 39.9704 15.0335 40.0001 15.1664ZM44.468 5.62362H44.4827V6.05813V7.25017V9.02448V11.2295V13.6812V16.2339V18.7109V20.9365V22.763V24.0095C44.4827 24.1798 44.4834 24.3502 44.4827 24.5204C44.478 25.7135 43.9183 26.8485 42.9726 27.561C42.2809 28.0823 41.4691 28.3044 40.6172 28.3044H39.1758H37.7391H36.2979H35.5772C35.5316 28.3044 35.2983 28.332 35.274 28.3024C35.2641 28.2904 35.274 28.2269 35.274 28.2121V26.7828V24.3765V22.008V20.6575C35.274 20.6151 35.2649 20.6107 35.2941 20.5979C35.3383 20.5785 35.4374 20.5979 35.4865 20.5979H35.6667H36.3873H37.8286H39.2612H40.7025C40.97 20.5979 41.2379 20.6045 41.5039 20.5707C42.0356 20.5031 42.5719 20.303 42.9545 19.9115C43.4387 19.4162 43.587 18.626 43.2789 17.9948C43.0149 17.454 42.469 17.1305 41.9096 16.9835C41.7355 16.9377 41.5575 16.9077 41.3785 16.8912C41.3666 16.89 41.3073 16.893 41.2999 16.8846C41.2665 16.8468 41.3263 16.8393 41.3425 16.8341C41.4551 16.7975 41.5791 16.7878 41.6934 16.7527C42.2805 16.5724 42.7878 16.1485 42.9465 15.53C43.1106 14.8909 42.892 14.2084 42.3691 13.8113C41.9942 13.5267 41.5245 13.3954 41.0628 13.3541C40.5921 13.312 40.1163 13.3296 39.6442 13.3296H38.2077H36.7663H35.3315C35.2508 13.3296 35.274 13.3073 35.274 13.2316V12.9103V11.8425V9.63288C35.274 9.29011 35.2848 8.95098 35.356 8.61355C35.4939 7.95842 35.8064 7.34715 36.2525 6.8529C36.8671 6.17196 37.7236 5.73457 38.6307 5.64261C39.1558 5.58938 39.6979 5.62373 40.2255 5.62373H41.6621H43.1034C43.5582 5.62373 44.0132 5.62426 44.468 5.62362Z" fill="white"/>
<defs>
<linearGradient id="paint0_linear_4_382" x1="14.75" y1="15.4328" x2="23.7054" y2="15.4328" gradientUnits="userSpaceOnUse">
<stop stop-color="#1D2970"/>
<stop offset="1" stop-color="#006DBA"/>
</linearGradient>
<linearGradient id="paint1_linear_4_382" x1="24.7589" y1="15.3117" x2="34.1357" y2="15.3117" gradientUnits="userSpaceOnUse">
<stop stop-color="#6F2B2F"/>
<stop offset="1" stop-color="#E30138"/>
</linearGradient>
<linearGradient id="paint2_linear_4_382" x1="34.9786" y1="15.479" x2="44.3554" y2="15.479" gradientUnits="userSpaceOnUse">
<stop stop-color="#007B40"/>
<stop offset="1" stop-color="#55B330"/>
</linearGradient>
</defs>
</svg>
