<svg width="58" height="36" viewBox="0 0 58 36" fill="none" xmlns="http://www.w3.org/2000/svg">
<g clip-path="url(#clip0_3_637)">
<path d="M57.6 34.1C57.6 35.2 56.7 36 55.7 36H2C0.9 36 0 35.1 0 34.1V2C0 0.9 0.9 0 2 0H55.7C56.8 0 57.6 0.9 57.6 1.9V34.1Z" fill="#FAFAFA"/>
<path d="M45.677 21.1857V20.7737H45.575L45.456 21.0484L45.337 20.7737H45.235V21.1857H45.303V20.8767L45.422 21.1514H45.507L45.626 20.8767V21.1857H45.677ZM44.997 21.1857V20.8424H45.133V20.7737H44.793V20.8424H44.929V21.1857H44.997Z" fill="#00A2E5"/>
<path d="M33.59 22.9541H24.393V6.26625H33.59V22.9541Z" fill="#7375CF"/>
<path d="M24.988 14.6102C24.988 11.228 26.552 8.2063 29 6.26625C27.215 4.84126 24.954 4 22.506 4C16.709 4 12 8.75569 12 14.6102C12 20.4647 16.709 25.2203 22.506 25.2203C24.954 25.2203 27.215 24.3791 29 22.9541C26.552 21.014 24.988 17.9924 24.988 14.6102Z" fill="#EB001B"/>
<path d="M46 14.6102C46 20.4647 41.291 25.2203 35.494 25.2203C33.046 25.2203 30.785 24.3791 29 22.9541C31.448 21.014 33.012 17.9924 33.012 14.6102C33.012 11.228 31.448 8.2063 29 6.26625C30.785 4.84126 33.046 4 35.494 4C41.291 4 46 8.75569 46 14.6102Z" fill="#00A2E5"/>
<path d="M36.684 27.6754C36.803 27.6754 36.99 27.6926 37.109 27.7441L36.922 28.3279C36.786 28.2763 36.667 28.2592 36.548 28.2592C36.157 28.2592 35.953 28.5167 35.953 28.9803V30.5598H35.341V27.7441H35.936V28.0875C36.106 27.83 36.344 27.6754 36.684 27.6754ZM34.44 28.2935H33.454V29.564C33.454 29.8387 33.556 30.0275 33.862 30.0275C34.015 30.0275 34.219 29.976 34.406 29.873L34.576 30.4053C34.389 30.5426 34.083 30.6284 33.811 30.6284C33.097 30.6284 32.842 30.2336 32.842 29.5812V28.2935H32.281V27.727H32.842V26.8685H33.454V27.727H34.44V28.2935V28.2935ZM26.671 28.8944C26.739 28.4824 26.977 28.2077 27.419 28.2077C27.81 28.2077 28.065 28.448 28.133 28.8944H26.671ZM28.762 29.1519C28.762 28.2763 28.218 27.6754 27.436 27.6754C26.62 27.6754 26.042 28.2763 26.042 29.1519C26.042 30.0447 26.637 30.6284 27.47 30.6284C27.895 30.6284 28.269 30.5254 28.609 30.2336L28.303 29.7872C28.065 29.976 27.776 30.079 27.487 30.079C27.096 30.079 26.739 29.8902 26.654 29.3923H28.728C28.745 29.3065 28.762 29.2378 28.762 29.1519ZM31.431 28.4652C31.261 28.3622 30.921 28.2248 30.564 28.2248C30.224 28.2248 30.037 28.345 30.037 28.551C30.037 28.7399 30.241 28.7914 30.513 28.8257L30.802 28.8601C31.414 28.9459 31.771 29.2035 31.771 29.7013C31.771 30.2336 31.312 30.6284 30.496 30.6284C30.037 30.6284 29.612 30.5083 29.289 30.2679L29.578 29.7872C29.782 29.9417 30.088 30.079 30.513 30.079C30.921 30.079 31.142 29.9589 31.142 29.7357C31.142 29.5812 30.989 29.4953 30.649 29.4438L30.36 29.4095C29.731 29.3236 29.391 29.0318 29.391 28.5854C29.391 28.0188 29.85 27.6754 30.547 27.6754C30.989 27.6754 31.397 27.7785 31.686 27.9673L31.431 28.4652ZM38.911 28.242C38.792 28.242 38.673 28.2592 38.571 28.3107C38.469 28.3622 38.367 28.4137 38.299 28.4995C38.231 28.5854 38.163 28.6712 38.112 28.7914C38.061 28.8944 38.044 29.0318 38.044 29.1519C38.044 29.2893 38.061 29.4095 38.112 29.5125C38.163 29.6155 38.214 29.7185 38.299 29.8044C38.384 29.8902 38.469 29.9417 38.571 29.9932C38.673 30.0447 38.792 30.0619 38.911 30.0619C39.03 30.0619 39.149 30.0447 39.251 29.9932C39.353 29.9417 39.455 29.8902 39.523 29.8044C39.608 29.7185 39.659 29.6327 39.71 29.5125C39.761 29.4095 39.778 29.2721 39.778 29.1519C39.778 29.0146 39.761 28.8944 39.71 28.7914C39.659 28.6884 39.608 28.5854 39.523 28.4995C39.438 28.4137 39.353 28.3622 39.251 28.3107C39.149 28.2763 39.03 28.242 38.911 28.242ZM38.911 27.6754C39.132 27.6754 39.336 27.7098 39.506 27.7956C39.693 27.8643 39.846 27.9673 39.982 28.1047C40.118 28.242 40.22 28.3965 40.305 28.5682C40.373 28.7571 40.424 28.9459 40.424 29.1519C40.424 29.358 40.39 29.564 40.305 29.7357C40.237 29.9245 40.118 30.0791 39.982 30.1992C39.846 30.3366 39.693 30.4396 39.506 30.5083C39.319 30.5769 39.115 30.6284 38.911 30.6284C38.69 30.6284 38.486 30.5941 38.316 30.5083C38.129 30.4396 37.976 30.3366 37.84 30.1992C37.704 30.0619 37.602 29.9074 37.517 29.7357C37.449 29.5468 37.398 29.358 37.398 29.1519C37.398 28.9459 37.432 28.7399 37.517 28.5682C37.585 28.3794 37.704 28.2248 37.84 28.1047C37.976 27.9673 38.129 27.8643 38.316 27.7956C38.486 27.7098 38.69 27.6754 38.911 27.6754ZM23.135 29.1519C23.135 28.6541 23.458 28.242 23.985 28.242C24.495 28.242 24.818 28.6369 24.818 29.1519C24.818 29.667 24.478 30.0447 23.985 30.0447C23.458 30.0447 23.135 29.6498 23.135 29.1519ZM25.396 29.1519V27.7441H24.784V28.0875C24.597 27.83 24.308 27.6754 23.9 27.6754C23.118 27.6754 22.506 28.2935 22.506 29.1519C22.506 30.0104 23.118 30.6284 23.9 30.6284C24.291 30.6284 24.58 30.4739 24.784 30.2164V30.5598H25.396V29.1519ZM21.979 30.5598V28.7914C21.979 28.1218 21.554 27.6754 20.874 27.6754C20.517 27.6754 20.143 27.7785 19.888 28.1733C19.701 27.8643 19.395 27.6754 18.97 27.6754C18.681 27.6754 18.375 27.7613 18.154 28.0875V27.7441H17.542V30.5598H18.154V28.9974C18.154 28.5167 18.426 28.242 18.834 28.242C19.242 28.242 19.446 28.4995 19.446 28.9803V30.5426H20.058V28.9803C20.058 28.4995 20.347 28.2248 20.738 28.2248C21.146 28.2248 21.35 28.4824 21.35 28.9631V30.5254H21.979V30.5598Z" fill="black"/>
<path d="M41.07 30.3366V30.4052H41.138C41.155 30.4052 41.172 30.4052 41.172 30.3881C41.189 30.3881 41.189 30.3709 41.189 30.3537C41.189 30.3366 41.189 30.3366 41.172 30.3366C41.172 30.3366 41.155 30.3194 41.138 30.3194H41.07V30.3366ZM41.138 30.3022C41.172 30.3022 41.189 30.3022 41.206 30.3194C41.223 30.3366 41.24 30.3537 41.24 30.3881C41.24 30.4052 41.24 30.4224 41.223 30.4396C41.206 30.4568 41.189 30.4568 41.155 30.4568L41.24 30.5598H41.172L41.087 30.4568H41.07V30.5598H41.019V30.3022H41.138ZM41.121 30.6456C41.155 30.6456 41.172 30.6456 41.206 30.6284C41.24 30.6113 41.257 30.5941 41.274 30.5769C41.291 30.5598 41.308 30.5426 41.325 30.5083C41.342 30.4739 41.342 30.4568 41.342 30.4224C41.342 30.3881 41.342 30.3709 41.325 30.3366C41.308 30.3022 41.291 30.2851 41.274 30.2679C41.257 30.2507 41.24 30.2336 41.206 30.2164C41.189 30.1992 41.155 30.1992 41.121 30.1992C41.087 30.1992 41.07 30.1992 41.036 30.2164C41.002 30.2336 40.985 30.2507 40.968 30.2679C40.951 30.2851 40.934 30.3194 40.917 30.3366C40.9 30.3709 40.9 30.3881 40.9 30.4224C40.9 30.4568 40.9 30.4739 40.917 30.5083C40.934 30.5426 40.951 30.5598 40.968 30.5769C40.985 30.5941 41.019 30.6113 41.036 30.6284C41.07 30.6456 41.087 30.6456 41.121 30.6456ZM41.121 30.1477C41.155 30.1477 41.189 30.1477 41.223 30.1649C41.257 30.1821 41.291 30.1992 41.308 30.2164C41.325 30.2336 41.359 30.2679 41.376 30.3022C41.393 30.3366 41.393 30.3709 41.393 30.4052C41.393 30.4396 41.393 30.4739 41.376 30.5083C41.359 30.5426 41.342 30.5769 41.308 30.5941C41.274 30.6113 41.257 30.6456 41.223 30.6628C41.189 30.6799 41.155 30.6799 41.121 30.6799C41.087 30.6799 41.036 30.6799 41.002 30.6628C40.968 30.6456 40.934 30.6284 40.917 30.5941C40.9 30.5769 40.866 30.5426 40.849 30.5083C40.832 30.4739 40.832 30.4396 40.832 30.4052C40.832 30.3709 40.832 30.3366 40.849 30.3022C40.866 30.2679 40.883 30.2336 40.917 30.2164C40.934 30.1992 40.968 30.1649 41.002 30.1649C41.036 30.1477 41.087 30.1477 41.121 30.1477Z" fill="black"/>
</g>
<defs>
<clipPath id="clip0_3_637">
<rect width="57.6" height="36" fill="white"/>
</clipPath>
</defs>
</svg>
