<svg width="58" height="36" viewBox="0 0 58 36" fill="none" xmlns="http://www.w3.org/2000/svg">
<path d="M57.6 34.1C57.6 35.2 56.7 36 55.7 36H2C0.9 36 0 35.1 0 34.1V2C0 0.9 0.9 0 2 0H55.7C56.8 0 57.6 0.9 57.6 1.9V34.1Z" fill="#FAFAFA"/>
<path fill-rule="evenodd" clip-rule="evenodd" d="M29.2078 15.886L29.2344 15.8588H26.4491L23.8363 18.6356L24.7148 13H22.1783L20.7134 22.3949L20.7108 22.4139H23.2473L23.7903 18.93L25.5093 22.4042L25.5136 22.4139H28.5263L26.5328 18.6331L29.2078 15.886ZM17.493 17.2151C17.329 17.0432 17.0826 16.9561 16.7606 16.9561C16.0436 16.9561 15.5694 17.4046 15.351 18.2888H17.7336C17.7531 18.0514 17.7907 17.5266 17.493 17.2151ZM19.9103 17.2998C20.1096 17.8396 20.1105 18.4288 19.9138 19.6333L19.9119 19.6463H15.1016L15.099 19.6685C15.0633 19.9304 14.9801 20.4784 15.3125 20.8431C15.4882 21.0352 15.7582 21.133 16.115 21.133C16.7759 21.133 17.247 20.8581 17.4075 20.2623L17.4102 20.2509H19.7832L19.7773 20.2719C19.5647 21.0434 19.0749 21.6361 18.3209 22.0319C17.6687 22.3752 16.8315 22.5568 15.9008 22.5568C14.7031 22.5568 13.8319 22.2594 13.3107 21.6726C12.8098 21.1088 12.6435 20.2889 12.8167 19.2374C12.9919 18.1093 13.4216 17.2253 14.0934 16.6101C14.8074 15.9565 15.7773 15.6248 16.9763 15.6248C18.5959 15.6248 19.5285 16.1574 19.9103 17.2998ZM33.7562 19.3346C32.7075 19.3475 31.7207 19.3649 31.5811 20.283C31.5404 20.5371 31.5925 20.7626 31.7285 20.917C31.8602 21.0681 32.0677 21.1477 32.3273 21.1477C32.4847 21.1477 33.0263 21.103 33.3841 20.531C33.657 20.1026 33.7346 19.5645 33.7562 19.3346ZM36.2998 18.1133L35.8205 21.1542C35.7566 21.617 35.7312 21.778 35.7008 22.3982L35.701 22.4139H33.3303L33.3295 22.398C33.3169 22.1849 33.3632 21.9265 33.4157 21.5151C32.9752 22.0314 32.3503 22.544 31.1057 22.544C30.3216 22.544 29.7477 22.3438 29.4007 21.9489C29.0922 21.5975 28.9788 21.0956 29.0731 20.4974C29.318 18.9236 30.7175 18.1584 33.3519 18.1584C33.5458 18.1584 33.7491 18.1628 33.9568 18.1716C34.0269 17.7453 34.0679 17.2804 33.8565 17.0375C33.7481 16.9127 33.5829 16.8523 33.3519 16.8523C33.0852 16.8523 32.4523 16.9469 32.3321 17.8266L32.3301 17.8401H29.9254L29.9397 17.7705C30.0028 17.4562 30.1084 16.9305 30.6573 16.4474C31.2533 15.9322 32.3321 15.6248 33.5432 15.6248C34.2059 15.6248 35.4041 15.7234 35.9845 16.3844C36.3226 16.7568 36.4287 17.3382 36.2998 18.1133ZM13.0068 15.8074L12.5495 17.8611H12.0228C10.8954 17.8611 10.2136 18.4081 9.99989 19.5635L9.496 22.4139H7L7.00356 22.3949C7.00356 22.3949 7.80423 17.887 7.9041 17.2619C8.0036 16.6368 8.07881 15.8588 8.07881 15.8588H10.4605C10.4605 15.8588 10.4481 16.0668 10.4293 16.3268C10.4114 16.5774 10.3435 17.144 10.3435 17.144C11.0464 15.9446 12.0114 15.8036 12.6811 15.8036C12.7533 15.8036 12.8202 15.8052 12.8798 15.8067L13.0068 15.8074Z" fill="#043D80"/>
<path fill-rule="evenodd" clip-rule="evenodd" d="M38.2914 17.9552H40.5216L40.8535 15.8611H38.617L38.2914 17.9552Z" fill="#DE0722"/>
<path fill-rule="evenodd" clip-rule="evenodd" d="M52 15.8611H43.384L43.0572 17.9552H45.4079L45.0413 20.2978H42.6912L42.3605 22.4134H50.977L52 15.8611Z" fill="#DE0722"/>
<path fill-rule="evenodd" clip-rule="evenodd" d="M37.594 22.4134H39.8245L40.1549 20.2978H37.9245L37.594 22.4134Z" fill="#DE0722"/>
</svg>
