<svg width="58" height="36" viewBox="0 0 58 36" fill="none" xmlns="http://www.w3.org/2000/svg">
<path d="M57.6 34.1C57.6 35.2 56.7 36 55.7 36H2C0.9 36 0 35.1 0 34.1V2C0 0.9 0.9 0 2 0H55.7C56.8 0 57.6 0.9 57.6 1.9V34.1Z" fill="#FAFAFA"/>
<path d="M48.6333 8H10.3667C9.61188 8 9 8.61188 9 9.36667V27.1333C9 27.8881 9.61188 28.5 10.3667 28.5H48.6333C49.3881 28.5 50 27.8881 50 27.1333V9.36667C50 8.61188 49.3881 8 48.6333 8Z" fill="black"/>
<path d="M22.489 20.9802C22.489 21.1255 22.3865 21.3053 22.2635 21.3745L17.8697 23.9408C17.7467 24.0168 17.5417 24.0168 17.4187 23.9408L13.0248 21.3745C12.9018 21.2984 12.7993 21.1255 12.7993 20.9802V15.8407C12.7993 15.6955 12.9018 15.5156 13.0248 15.4465L17.4187 12.8802C17.5417 12.8041 17.7467 12.8041 17.8697 12.8802L22.2635 15.4465C22.3865 15.5225 22.489 15.6955 22.489 15.8407V20.9802Z" fill="white"/>
<path d="M46.884 16.2142V17.1619H45.4695V21.2292H44.3557V17.1619H42.948V16.2142H46.884ZM29.008 16.2142V17.1619H27.6004V21.2292H26.4865V17.1619H25.072V16.2142H29.008ZM40.3992 16.0551C41.636 16.0551 42.3467 16.8575 42.3467 18.0127V21.2292H41.2465V17.985C41.2465 17.5493 40.9527 17.0927 40.4129 17.0927C39.8662 17.0927 39.5724 17.4801 39.5724 17.985V21.2292H38.4722V18.0127C38.4722 16.8575 39.1624 16.0551 40.3992 16.0551ZM36.2377 16.2142H37.3447V21.2292H36.2377V16.2142ZM32.5067 18.2064L32.4725 18.4277L31.4407 21.2292H30.9897L29.582 16.2142H30.6685L31.3382 18.8497L31.3792 19.1333L31.4339 18.8497L32.329 16.2142H32.6844L33.5864 18.8497L33.641 19.1333L33.6752 18.8497L34.3517 16.2142H35.4382L34.0305 21.2292H33.5795L32.5477 18.4277L32.5067 18.2064Z" fill="white"/>
<path d="M19.9265 18.4278L18.7853 20.1294L18.1977 19.2163L18.8742 18.1926C18.9972 18.0127 19.2705 17.5078 18.9562 16.823C18.7033 16.2696 18.1567 15.9998 17.6783 15.9998C17.2 15.9998 16.6738 16.2489 16.4005 16.823C16.0862 17.4801 16.3595 17.9989 16.4757 18.1718C16.4757 18.1718 16.8515 18.7321 17.1658 19.2025L17.6783 19.9496L18.4437 21.1324C18.4505 21.1393 18.5735 21.3261 18.7853 21.3261C18.9903 21.3261 19.1133 21.1393 19.1338 21.1186L20.931 18.4278H19.9265ZM17.6783 18.4693C17.6783 18.4693 17.3777 18.0058 17.1863 17.6876C16.9745 17.3418 17.2137 16.8299 17.6783 16.8299C18.1498 16.8299 18.3822 17.3418 18.1703 17.6876C17.979 18.0127 17.6783 18.4693 17.6783 18.4693Z" fill="url(#paint0_radial_4_378)"/>
<path d="M16.5713 20.074L15.4438 18.4762C15.4438 18.4762 15.1432 18.0127 14.9518 17.6945C14.74 17.3487 14.9792 16.8368 15.4438 16.8368C15.5053 16.8368 15.56 16.8437 15.6078 16.8576L16.0042 16.1243C15.8197 16.0482 15.6283 16.0067 15.4438 16.0067C14.9655 16.0067 14.4393 16.2558 14.166 16.8299C13.8517 17.487 14.125 18.0058 14.2412 18.1787L16.2092 21.1324C16.2228 21.16 16.3527 21.3468 16.5577 21.3468C16.7695 21.3468 16.8857 21.167 16.9062 21.1393L17.5007 20.2262L16.9882 19.4653L16.5713 20.074Z" fill="url(#paint1_radial_4_378)"/>
<defs>
<radialGradient id="paint0_radial_4_378" cx="0" cy="0" r="1" gradientUnits="userSpaceOnUse" gradientTransform="translate(17.2999 15.0231) scale(5.29399)">
<stop stop-color="#FFCC00"/>
<stop offset="0.0915684" stop-color="#FFC800"/>
<stop offset="0.1739" stop-color="#FFBD00"/>
<stop offset="0.2528" stop-color="#FFAB00"/>
<stop offset="0.3295" stop-color="#FF9100"/>
<stop offset="0.4046" stop-color="#FF7000"/>
<stop offset="0.4786" stop-color="#FF4700"/>
<stop offset="0.5503" stop-color="#FF1800"/>
<stop offset="0.5822" stop-color="#FF0000"/>
<stop offset="1" stop-color="#FF0000"/>
</radialGradient>
<radialGradient id="paint1_radial_4_378" cx="0" cy="0" r="1" gradientUnits="userSpaceOnUse" gradientTransform="translate(14.1087 12.5489) scale(4.85415)">
<stop stop-color="#00B4E6"/>
<stop offset="0.201" stop-color="#00B0E3"/>
<stop offset="0.3898" stop-color="#01A5DB"/>
<stop offset="0.5737" stop-color="#0292CD"/>
<stop offset="0.7546" stop-color="#0377BA"/>
<stop offset="0.9316" stop-color="#0455A1"/>
<stop offset="1" stop-color="#054696"/>
</radialGradient>
</defs>
</svg>
