<svg width="58" height="36" viewBox="0 0 58 36" fill="none" xmlns="http://www.w3.org/2000/svg">
<path d="M57.6 34.1C57.6 35.2 56.7 36 55.7 36H2C0.9 36 0 35.1 0 34.1V2C0 0.9 0.9 0 2 0H55.7C56.8 0 57.6 0.9 57.6 1.9V34.1Z" fill="#FAFAFA"/>
<path d="M26.5067 22.8486H23.3533L25.3333 10.8081H28.4867L26.5067 22.8486Z" fill="#1166B0"/>
<path d="M20.7133 10.8081L17.7067 19.0541L17.34 17.3027L16.3133 11.9027C16.3133 11.9027 16.1667 10.8081 14.8467 10.8081H9.85999L9.78665 11.027C9.78665 11.027 11.3267 11.3189 13.0867 12.4135L15.8 22.8486H19.1L24.0867 10.8081H20.7133Z" fill="#1166B0"/>
<path d="M45.4267 22.8486H48.2867L45.7934 10.8081H43.3C42.1267 10.8081 41.8334 11.6838 41.8334 11.6838L37.14 22.7757H40.44L41.1 21.0243H45.06L45.4267 22.8486ZM41.98 18.6162L43.6667 14.0919L44.62 18.6162H41.98Z" fill="#1166B0"/>
<path d="M37.36 13.727L37.8 11.173C37.8 11.173 36.4067 10.6622 34.94 10.6622C33.4 10.6622 29.66 11.3189 29.66 14.6027C29.66 17.7405 33.9867 17.7405 33.9867 19.3459C33.9867 20.9513 30.1 20.6595 28.78 19.6378L28.34 22.3378C28.34 22.3378 29.7333 22.9946 31.86 22.9946C33.9867 22.9946 37.2133 21.9 37.2133 18.9081C37.2133 15.7703 32.8133 15.4784 32.8133 14.1649C32.96 12.7784 36.04 12.9973 37.36 13.727Z" fill="#1166B0"/>
<path d="M17.4133 17.3027L16.3867 11.9027C16.3867 11.9027 16.24 10.8081 14.92 10.8081H9.85999L9.78665 11.027C9.78665 11.027 12.1333 11.5378 14.48 13.3622C16.68 15.1135 17.4133 17.3027 17.4133 17.3027Z" fill="#F7A536"/>
</svg>
