<svg width="333" height="333" viewBox="0 0 333 333" fill="none" xmlns="http://www.w3.org/2000/svg">
<path d="M85.973 2.2206L90.9432 0.317139V16.6023L85.973 17.977V4.44131" fill="#3D4041"/>
<path d="M329.828 59.5359C317.878 56.998 243.114 41.876 230.002 39.3381C163.909 27.0713 90.9432 16.6023 90.9432 16.6023L85.6558 17.977L86.5017 39.1266C124.465 44.837 258.765 68.8417 319.676 73.7061C323.06 68.5245 326.021 64.1888 329.828 59.5359Z" fill="#292B2D"/>
<path d="M13.43 36.5888V21.4668L88.8282 1.37476L86.2903 24.9565L13.43 36.5888Z" fill="#3D4041"/>
<path d="M329.616 48.7497L91.2604 0.317139L90.9432 16.6023L329.828 59.5359L329.616 48.7497Z" fill="url(#paint0_linear_314_26)"/>
<path d="M322.742 241.951L70.2166 273.358L72.7545 316.821L322.742 265.11V241.951Z" fill="url(#paint1_linear_314_26)"/>
<path d="M72.7545 316.821L21.3611 300.641C16.9197 299.795 14.3817 297.574 14.3817 293.767V207.16C14.3817 203.247 17.4484 200.286 21.3611 200.286H72.7545C76.6672 200.286 79.7339 203.353 79.7339 207.16V309.947C79.3109 313.86 76.2442 316.821 72.7545 316.821Z" fill="url(#paint2_linear_314_26)"/>
<path d="M322.742 238.884C221.859 241.422 -119.707 262.36 79.4166 303.39C80.2626 299.795 256.862 267.013 322.742 255.698C322.954 251.045 322.425 243.643 322.742 238.884Z" fill="url(#paint3_linear_314_26)"/>
<path d="M328.136 61.6511L71.1683 16.814L75.081 294.191L328.03 250.728" fill="url(#paint4_linear_314_26)"/>
<path d="M78.7822 291.23L134.934 282.664L133.877 31.09L79.3109 21.7842L78.7822 291.23Z" fill="url(#paint5_linear_314_26)"/>
<path d="M5.92188 26.437L74.8695 9.41162L74.9752 294.402L6.02762 277.165L5.92188 26.437Z" fill="url(#paint6_linear_314_26)"/>
<path d="M30.3496 81.6372L30.8784 81.9545L30.3496 81.6372Z" fill="#E8D5C4"/>
<path d="M35.1083 105.853C35.4248 105.853 35.4248 105.853 35.4248 105.536C35.4248 105.642 35.4248 105.853 35.1083 105.853C35.4248 105.853 35.4248 105.853 35.1083 105.853Z" fill="#EF9B65"/>
<path d="M54.0372 87.5592L54.3544 87.2419C54.3544 87.5592 54.0372 88.0879 54.0372 88.6167C54.0372 88.2994 54.0372 88.0879 54.0372 87.5592Z" fill="#DEEBF2"/>
<path d="M30.3496 81.6374L31.1956 80.8972L30.3496 81.6374Z" fill="#ECF2F7"/>
<path d="M35.9543 193.836C35.9543 194.153 35.637 193.307 35.637 193.307C35.9543 193.413 35.9543 193.624 35.9543 193.836Z" fill="#DAA679"/>
<path d="M35.9543 187.597C36.2715 187.597 36.8003 187.914 37.1175 187.914C36.8003 187.808 36.2715 187.808 35.9543 187.597Z" fill="#E4BC92"/>
<path d="M42.0876 188.125C41.7704 188.443 41.7704 188.443 41.5589 188.654C41.7704 188.443 42.0876 188.125 42.0876 188.125Z" fill="#C92027"/>
<path d="M48.7491 182.944C48.7491 183.26 48.4325 183.26 48.4325 183.26C48.7491 183.26 48.7491 182.944 48.7491 182.944Z" fill="#7F171C"/>
<path d="M48.7498 182.943C48.7498 182.627 48.9608 182.627 48.7498 182.943C48.9608 182.627 48.9608 182.943 48.7498 182.943Z" fill="#C92027"/>
<path d="M49.5958 130.704C49.5958 130.704 49.8071 130.916 49.5958 130.704C49.8071 130.916 49.8071 130.916 49.5958 130.704C49.8071 130.916 49.8071 130.916 49.5958 130.704C49.8071 130.916 49.8071 130.916 49.5958 130.704C49.8071 130.916 49.5958 130.704 49.5958 130.704Z" fill="#C92027"/>
<path d="M52.1337 225.772C52.1337 225.772 52.3447 225.772 52.1337 225.772C52.3447 225.772 52.3447 225.772 52.1337 225.772C52.3447 225.772 52.3447 225.772 52.1337 225.772C52.3447 225.772 52.3447 225.772 52.1337 225.772C52.3447 226.088 52.3447 226.088 52.1337 225.772C52.3447 225.772 52.3447 225.772 52.1337 225.772C52.3447 225.772 52.3447 225.772 52.1337 225.772C52.3447 225.772 52.3447 225.772 52.1337 225.772Z" fill="#44B491"/>
<path d="M52.1337 225.031C52.1337 224.714 52.1337 224.714 52.1337 225.031C52.1337 224.714 52.1337 224.714 52.1337 225.031C52.451 225.031 52.1337 225.349 52.1337 225.349C52.1337 225.031 52.1337 225.031 52.1337 225.031Z" fill="#44B491"/>
<path d="M52.3452 226.618C52.3452 226.934 52.3452 226.934 52.3452 226.618C52.6617 226.934 52.3452 226.618 52.3452 226.618Z" fill="#44B491"/>
<path d="M52.9797 222.811C52.6624 223.34 52.6624 223.128 52.6624 223.34C52.6624 223.022 52.9797 222.811 52.9797 222.811Z" fill="#44B491"/>
<path d="M53.1912 219.004C53.1912 218.687 53.5084 218.475 53.5084 218.475C53.1912 219.004 53.1912 219.004 53.1912 219.004Z" fill="#44B491"/>
<path d="M55.2004 230.953C55.2004 231.27 55.4114 231.27 55.2004 230.953C55.2004 231.27 55.2004 230.953 55.2004 230.953Z" fill="#C92027"/>
<path d="M62.92 86.7131C63.4487 86.7131 63.4487 87.2419 62.92 87.5591C62.6027 87.5591 62.6027 87.5591 62.3912 87.2419C62.3912 86.9246 62.92 86.9246 62.92 86.7131Z" fill="#ED7786"/>
<path d="M96.019 242.902C96.019 242.902 96.019 242.586 96.019 242.902C96.019 242.586 96.019 242.586 96.019 242.902C96.3356 242.586 96.3356 242.902 96.019 242.902C96.019 242.586 96.019 242.586 96.019 242.902Z" fill="#EC846B"/>
<path d="M162.746 171.1C162.429 170.783 161.583 170.783 161.9 170.254C162.217 170.466 163.063 170.783 162.746 171.1Z" fill="#505252"/>
<path d="M162.746 116.852C162.217 116.852 163.909 171.84 162.217 170.783L162.746 116.852Z" fill="#191617"/>
<path d="M138.212 171.312C138.107 171.312 137.472 171.312 137.472 171.312C137.472 171.312 136.838 115.9 137.895 115.688L138.212 171.312Z" fill="#656566"/>
<path d="M138.001 115.794L162.746 116.64L162.534 169.408L138.001 171.312V115.794Z" fill="#CFCCCE"/>
<path d="M174.167 117.169L162.64 129.33L162.429 170.783L184.953 170.466V117.063" fill="#9F9D9E"/>
<path d="M162.746 116.64L162.64 129.435L174.167 117.169L162.746 116.64Z" fill="#B2B0AF"/>
<path d="M144.346 148.576C140.01 152.065 138.001 159.256 138.001 159.256V171.312L162.64 170.783C162.64 170.783 162.64 129.541 162.64 129.33L154.815 137.578" fill="#BAB5BA"/>
<path d="M74.8695 17.4485V9.41162L83.2236 10.1519V22.3129L77.0902 21.7841L74.8695 17.4485Z" fill="white"/>
<path d="M327.395 107.228C303.179 105.008 201.027 94.0097 168.668 90.5201C156.718 89.2511 145.721 87.9821 136.732 87.0304L136.943 85.2327C145.932 86.1844 156.93 87.3476 168.879 88.7223C201.238 92.212 303.391 103.21 327.607 105.431L327.395 107.228Z" fill="#BAB5BA"/>
<path d="M185.961 38.4907L184.164 38.4946L184.686 275.793L186.484 275.789L185.961 38.4907Z" fill="#BAB5BA"/>
<path d="M265.216 111.247C256.65 110.612 219.85 107.228 211.39 106.594C202.719 105.854 193.836 105.008 184.953 104.373L185.059 102.575C193.942 103.316 202.93 104.056 211.601 104.796C220.061 105.536 256.756 108.815 265.321 109.449L265.216 111.247Z" fill="#BAB5BA"/>
<path d="M264.793 133.983C260.034 133.877 204.728 131.762 200.075 131.55C195.528 131.339 190.663 131.127 185.905 131.022L186.01 129.224C190.663 129.33 195.528 129.647 200.181 129.753C204.834 129.964 260.14 131.973 264.898 132.185L264.793 133.983Z" fill="#BAB5BA"/>
<path d="M264.793 155.872H185.376V157.67H264.793V155.872Z" fill="#BAB5BA"/>
<path d="M185.588 184.424L185.482 182.626C189.289 182.521 192.884 182.309 196.585 182.203C200.709 182.098 261.409 179.031 265.321 178.925L265.427 180.723C261.409 180.934 200.709 183.895 196.691 184.001C192.99 184.107 189.289 184.213 185.588 184.424Z" fill="#BAB5BA"/>
<path d="M184.899 208.392L134.518 212.477L134.663 214.269L185.044 210.184L184.899 208.392Z" fill="#BAB5BA"/>
<path d="M185.588 170.36L185.482 168.562C189.712 168.351 193.836 168.245 197.854 168.245C200.709 168.245 325.386 165.495 328.136 165.39L328.241 167.187C325.492 167.293 200.815 169.937 197.96 170.043C193.942 170.043 189.712 170.148 185.588 170.36Z" fill="#BAB5BA"/>
<path d="M135.251 200.392L135.146 198.595C150.373 197.537 165.918 196.797 181.04 196.162C192.355 195.634 316.609 186.434 327.924 185.799L328.03 187.597C316.503 188.231 192.25 197.431 181.04 197.96C166.024 198.595 150.585 199.229 135.251 200.392Z" fill="#BAB5BA"/>
<path d="M135.251 228.627L135.146 226.829C156.824 225.137 178.714 222.705 199.969 220.59C213.082 219.215 314.811 208.429 328.03 207.16L328.241 208.958C315.023 210.227 213.188 221.013 200.181 222.388C178.82 224.609 156.93 227.041 135.251 228.627Z" fill="#BAB5BA"/>
<path d="M328.136 146.566C324.963 146.461 201.873 144.134 198.912 144.029C194.47 143.923 189.712 143.923 185.059 143.711L185.165 141.914C189.817 142.125 194.576 142.231 199.017 142.231C202.084 142.231 325.175 144.663 328.241 144.769L328.136 146.566Z" fill="#BAB5BA"/>
<path d="M184.953 117.697L185.059 115.9L327.713 124.782L327.607 126.58L184.953 117.697Z" fill="#BAB5BA"/>
<path d="M79.4344 81.0517L79.2791 82.8428L133.538 87.5464L133.693 85.7554L79.4344 81.0517Z" fill="white"/>
<path d="M79.3531 96.7069L79.2425 98.5012L133.494 101.846L133.604 100.052L79.3531 96.7069Z" fill="white"/>
<path d="M79.2975 111.877L79.1972 113.672L133.465 116.705L133.565 114.911L79.2975 111.877Z" fill="white"/>
<path d="M79.185 126.725L79.1503 128.523L133.388 129.568L133.423 127.77L79.185 126.725Z" fill="white"/>
<path d="M79.438 141.452L79.3999 143.249L133.638 144.398L133.676 142.601L79.438 141.452Z" fill="white"/>
<path d="M133.556 156.253L79.3071 156.775L79.3244 158.572L133.573 158.051L133.556 156.253Z" fill="white"/>
<path d="M133.543 171.21L79.2997 171.823L79.32 173.621L133.563 173.008L133.543 171.21Z" fill="white"/>
<path d="M133.505 184.693L79.2944 186.686L79.3604 188.482L133.571 186.489L133.505 184.693Z" fill="white"/>
<path d="M133.433 198.771L79.2038 202.426L79.3247 204.219L133.554 200.564L133.433 198.771Z" fill="white"/>
<path d="M133.461 227.803L79.2355 232.82L79.4012 234.61L133.627 229.593L133.461 227.803Z" fill="white"/>
<path d="M79.4166 293.133H77.5132L78.6764 21.7842L133.665 29.9268L133.454 31.8302L80.5799 23.8991L79.4166 293.133Z" fill="white"/>
<path d="M226.935 45.7888L228.733 46.1061V268.388H226.935V45.7888Z" fill="#BAB5BA"/>
<path d="M264.475 51.9221L266.167 52.2394V261.832H264.475V51.9221Z" fill="#BAB5BA"/>
<path d="M301.17 57.2095H299.372V254.429H301.17V57.2095Z" fill="#BAB5BA"/>
<path d="M174.484 125.194V148.047L144.875 147.635V124.782L174.484 125.194Z" fill="white"/>
<path d="M152.059 138.158V139.019H149.547V138.158H152.059ZM149.927 134.042V139.019H148.812V134.042H149.927ZM152.398 137.208V137.136C152.398 136.865 152.437 136.615 152.514 136.387C152.591 136.157 152.705 135.958 152.856 135.789C153.006 135.62 153.191 135.489 153.409 135.396C153.628 135.3 153.879 135.252 154.161 135.252C154.449 135.252 154.701 135.3 154.92 135.396C155.141 135.489 155.327 135.62 155.477 135.789C155.628 135.958 155.742 136.157 155.819 136.387C155.897 136.615 155.935 136.865 155.935 137.136V137.208C155.935 137.476 155.897 137.726 155.819 137.956C155.742 138.184 155.628 138.383 155.477 138.554C155.327 138.723 155.142 138.854 154.924 138.947C154.705 139.041 154.453 139.087 154.168 139.087C153.886 139.087 153.634 139.041 153.413 138.947C153.192 138.854 153.006 138.723 152.856 138.554C152.705 138.383 152.591 138.184 152.514 137.956C152.437 137.726 152.398 137.476 152.398 137.208ZM153.468 137.136V137.208C153.468 137.353 153.479 137.49 153.502 137.618C153.527 137.745 153.567 137.857 153.621 137.953C153.676 138.048 153.748 138.124 153.837 138.178C153.928 138.231 154.038 138.257 154.168 138.257C154.298 138.257 154.408 138.231 154.496 138.178C154.585 138.124 154.657 138.048 154.712 137.953C154.766 137.857 154.805 137.745 154.828 137.618C154.853 137.49 154.866 137.353 154.866 137.208V137.136C154.866 136.992 154.853 136.858 154.828 136.732C154.805 136.605 154.766 136.492 154.712 136.394C154.657 136.296 154.584 136.22 154.493 136.165C154.404 136.11 154.294 136.083 154.161 136.083C154.034 136.083 153.926 136.11 153.837 136.165C153.748 136.22 153.676 136.296 153.621 136.394C153.567 136.492 153.527 136.605 153.502 136.732C153.479 136.858 153.468 136.992 153.468 137.136ZM158.041 138.257C158.155 138.257 158.254 138.235 158.338 138.192C158.423 138.149 158.487 138.088 158.533 138.011C158.581 137.931 158.605 137.835 158.605 137.724H159.61C159.61 137.993 159.54 138.229 159.401 138.435C159.264 138.64 159.08 138.8 158.847 138.917C158.615 139.03 158.353 139.087 158.061 139.087C157.774 139.087 157.524 139.041 157.309 138.947C157.095 138.852 156.916 138.718 156.773 138.547C156.629 138.376 156.521 138.178 156.448 137.953C156.377 137.725 156.342 137.479 156.342 137.214V137.125C156.342 136.863 156.377 136.618 156.448 136.391C156.521 136.163 156.629 135.963 156.773 135.792C156.916 135.622 157.094 135.489 157.306 135.396C157.52 135.3 157.771 135.252 158.058 135.252C158.361 135.252 158.629 135.311 158.861 135.427C159.096 135.543 159.279 135.71 159.411 135.929C159.544 136.146 159.61 136.407 159.61 136.712H158.605C158.605 136.593 158.583 136.487 158.54 136.394C158.499 136.298 158.435 136.223 158.348 136.168C158.264 136.111 158.159 136.083 158.034 136.083C157.904 136.083 157.797 136.111 157.713 136.168C157.631 136.223 157.568 136.299 157.525 136.397C157.481 136.495 157.452 136.607 157.436 136.732C157.42 136.855 157.412 136.986 157.412 137.125V137.214C157.412 137.356 157.42 137.49 157.436 137.618C157.452 137.743 157.481 137.854 157.525 137.949C157.57 138.045 157.634 138.12 157.716 138.175C157.798 138.229 157.906 138.257 158.041 138.257ZM161.213 133.766V139.019H160.143V133.766H161.213ZM163.561 135.321L161.951 137.18L161.1 138.035L160.673 137.313L161.363 136.421L162.276 135.321H163.561ZM162.433 139.019L161.39 137.32L162.156 136.722L163.657 139.019H162.433ZM165.806 135.321V136.069H163.612V135.321H165.806ZM164.115 134.405H165.184V137.86C165.184 137.963 165.197 138.042 165.222 138.096C165.247 138.151 165.288 138.19 165.345 138.212C165.402 138.233 165.475 138.243 165.564 138.243C165.628 138.243 165.682 138.241 165.728 138.236C165.773 138.232 165.816 138.226 165.854 138.219V138.992C165.763 139.021 165.666 139.044 165.564 139.06C165.461 139.078 165.35 139.087 165.229 139.087C164.999 139.087 164.799 139.05 164.631 138.975C164.464 138.899 164.337 138.781 164.248 138.619C164.159 138.455 164.115 138.242 164.115 137.98V134.405ZM168.062 139.087C167.768 139.087 167.505 139.041 167.273 138.947C167.04 138.854 166.843 138.725 166.681 138.561C166.522 138.395 166.4 138.203 166.316 137.987C166.231 137.77 166.189 137.539 166.189 137.293V137.163C166.189 136.887 166.228 136.633 166.305 136.401C166.383 136.168 166.496 135.967 166.644 135.796C166.794 135.623 166.979 135.489 167.198 135.396C167.416 135.3 167.666 135.252 167.946 135.252C168.208 135.252 168.442 135.296 168.647 135.382C168.852 135.467 169.025 135.589 169.166 135.748C169.308 135.905 169.415 136.096 169.488 136.319C169.563 136.54 169.6 136.788 169.6 137.064V137.501H166.62V136.814H168.555V136.732C168.555 136.603 168.531 136.489 168.483 136.391C168.437 136.293 168.369 136.217 168.278 136.165C168.189 136.11 168.076 136.083 167.939 136.083C167.809 136.083 167.701 136.11 167.615 136.165C167.528 136.22 167.458 136.297 167.406 136.397C167.356 136.495 167.319 136.611 167.297 136.743C167.274 136.873 167.263 137.013 167.263 137.163V137.293C167.263 137.437 167.282 137.568 167.321 137.686C167.359 137.805 167.416 137.906 167.492 137.99C167.567 138.075 167.658 138.141 167.765 138.188C167.872 138.236 167.994 138.26 168.131 138.26C168.299 138.26 168.46 138.228 168.613 138.165C168.765 138.098 168.897 137.996 169.009 137.857L169.508 138.428C169.433 138.537 169.327 138.643 169.19 138.746C169.056 138.846 168.894 138.928 168.705 138.992C168.516 139.056 168.302 139.087 168.062 139.087ZM171.665 138.257C171.779 138.257 171.878 138.235 171.962 138.192C172.047 138.149 172.111 138.088 172.157 138.011C172.205 137.931 172.229 137.835 172.229 137.724H173.234C173.234 137.993 173.164 138.229 173.025 138.435C172.888 138.64 172.704 138.8 172.471 138.917C172.239 139.03 171.977 139.087 171.685 139.087C171.398 139.087 171.148 139.041 170.933 138.947C170.719 138.852 170.54 138.718 170.397 138.547C170.253 138.376 170.145 138.178 170.072 137.953C170.001 137.725 169.966 137.479 169.966 137.214V137.125C169.966 136.863 170.001 136.618 170.072 136.391C170.145 136.163 170.253 135.963 170.397 135.792C170.54 135.622 170.718 135.489 170.93 135.396C171.144 135.3 171.395 135.252 171.682 135.252C171.985 135.252 172.253 135.311 172.485 135.427C172.72 135.543 172.903 135.71 173.035 135.929C173.168 136.146 173.234 136.407 173.234 136.712H172.229C172.229 136.593 172.207 136.487 172.164 136.394C172.123 136.298 172.059 136.223 171.972 136.168C171.888 136.111 171.783 136.083 171.658 136.083C171.528 136.083 171.421 136.111 171.337 136.168C171.255 136.223 171.192 136.299 171.149 136.397C171.105 136.495 171.076 136.607 171.06 136.732C171.044 136.855 171.036 136.986 171.036 137.125V137.214C171.036 137.356 171.044 137.49 171.06 137.618C171.076 137.743 171.105 137.854 171.149 137.949C171.194 138.045 171.258 138.12 171.34 138.175C171.422 138.229 171.53 138.257 171.665 138.257Z" fill="#2F2E41"/>
<defs>
<linearGradient id="paint0_linear_314_26" x1="210.385" y1="0.317139" x2="210.385" y2="59.5359" gradientUnits="userSpaceOnUse">
<stop stop-color="white"/>
<stop offset="1" stop-color="#545455" stop-opacity="0"/>
</linearGradient>
<linearGradient id="paint1_linear_314_26" x1="196.479" y1="241.951" x2="196.479" y2="316.821" gradientUnits="userSpaceOnUse">
<stop stop-color="#797A7D"/>
<stop offset="1" stop-color="#797A7D" stop-opacity="0"/>
</linearGradient>
<linearGradient id="paint2_linear_314_26" x1="47.0578" y1="200.286" x2="47.0578" y2="316.821" gradientUnits="userSpaceOnUse">
<stop stop-color="#4F4E50"/>
<stop offset="1" stop-color="#4F4E50" stop-opacity="0"/>
</linearGradient>
<linearGradient id="paint3_linear_314_26" x1="170.488" y1="238.884" x2="170.488" y2="303.39" gradientUnits="userSpaceOnUse">
<stop stop-color="#454748"/>
<stop offset="1" stop-color="#454748" stop-opacity="0"/>
</linearGradient>
<linearGradient id="paint4_linear_314_26" x1="199.652" y1="16.814" x2="199.652" y2="294.191" gradientUnits="userSpaceOnUse">
<stop stop-color="white"/>
<stop offset="1" stop-color="white" stop-opacity="0"/>
</linearGradient>
<linearGradient id="paint5_linear_314_26" x1="106.858" y1="21.7842" x2="106.858" y2="291.23" gradientUnits="userSpaceOnUse">
<stop stop-color="white"/>
<stop offset="1" stop-color="#CE111E" stop-opacity="0"/>
</linearGradient>
<linearGradient id="paint6_linear_314_26" x1="40.4485" y1="9.41162" x2="40.4485" y2="294.402" gradientUnits="userSpaceOnUse">
<stop stop-color="white"/>
<stop offset="1" stop-color="#CE111E" stop-opacity="0"/>
</linearGradient>
</defs>
</svg>
