<svg width="24" height="24" viewBox="0 0 24 24" fill="none" xmlns="http://www.w3.org/2000/svg">
<path d="M20.043 11.76C19.902 11.333 19.729 10.916 19.527 10.518L17.073 11.624C17.29 12.017 17.463 12.434 17.59 12.866L20.043 11.76ZM7.471 10.856C7.742 10.502 8.05 10.182 8.389 9.899L6.499 7.931C6.171 8.224 5.862 8.545 5.58 8.888L7.471 10.856ZM9.185 9.342C9.565 9.121 9.966 8.946 10.383 8.819L9.35 6.25C8.938 6.392 8.537 6.567 8.15 6.774L9.185 9.342V9.342ZM6.426 12.957C6.547 12.522 6.713 12.103 6.924 11.707L4.454 10.641C4.258 11.044 4.09 11.464 3.956 11.891L6.426 12.957ZM15.86 6.757C15.473 6.552 15.07 6.378 14.66 6.238L13.637 8.811C14.055 8.936 14.457 9.11 14.837 9.33L15.86 6.757V6.757ZM18.461 8.888C18.18 8.546 17.871 8.224 17.543 7.931L15.652 9.899C15.992 10.182 16.3 10.503 16.571 10.856L18.461 8.888V8.888ZM12.67 5.828C12.451 5.811 12.233 5.802 12.022 5.802C11.809 5.802 11.59 5.811 11.372 5.828V8.612C11.588 8.587 11.806 8.574 12.022 8.574C12.237 8.574 12.456 8.587 12.67 8.612V5.828V5.828ZM24 14C24 7.373 18.627 2 12 2C5.373 2 0 7.373 0 14C0 16.583 0.816 19.042 2.205 21H21.795C23.184 19.042 24 16.583 24 14ZM14.92 19C14.913 17.914 14.314 16.969 13.424 16.478L12.022 9.907L10.62 16.478C9.731 16.969 9.131 17.914 9.124 19H3.303C2.458 17.5 2 15.758 2 14C2 8.486 6.486 4 12 4C17.514 4 22 8.486 22 14C22 15.758 21.542 17.5 20.697 19H14.92V19Z" fill="white"/>
</svg>
