<svg width="24" height="24" viewBox="0 0 24 24" fill="none" xmlns="http://www.w3.org/2000/svg">
<path fill-rule="evenodd" clip-rule="evenodd" d="M20.025 16C22.221 16.014 24 17.801 24 20C24 22.208 22.207 24 20 24H4C1.792 24 0 22.208 0 20C0 17.792 1.792 16 4 16H20.025ZM20 22C21.103 22 22 21.104 22 20C22 18.9 21.11 18.007 20.013 18H4C2.896 18 2 18.896 2 20C2 21.104 2.896 22 4 22H20V22ZM4 19C4.552 19 5 19.448 5 20C5 20.552 4.552 21 4 21C3.448 21 3 20.552 3 20C3 19.448 3.448 19 4 19ZM12 19C12.552 19 13 19.448 13 20C13 20.552 12.552 21 12 21C11.448 21 11 20.552 11 20C11 19.448 11.448 19 12 19ZM8 19C8.552 19 9 19.448 9 20C9 20.552 8.552 21 8 21C7.448 21 7 20.552 7 20C7 19.448 7.448 19 8 19ZM16 19C16.552 19 17 19.448 17 20C17 20.552 16.552 21 16 21C15.448 21 15 20.552 15 20C15 19.448 15.448 19 16 19ZM20 19C20.552 19 21 19.448 21 20C21 20.552 20.552 21 20 21C19.448 21 19 20.552 19 20C19 19.448 19.448 19 20 19ZM20 15H4V0H20V15ZM10 2H6V13H18V2H14V7H10V2ZM17 12H13V10H17V12Z" fill="white"/>
</svg>
