<svg width="24" height="24" viewBox="0 0 24 24" fill="none" xmlns="http://www.w3.org/2000/svg">
<path d="M21.169 19.754C21.691 18.964 22 18.019 22 17C22 14.239 19.762 12 17 12C14.238 12 12 14.239 12 17C12 19.761 14.238 22 17 22C18.019 22 18.964 21.691 19.755 21.168L22.586 24L24 22.586L21.169 19.754V19.754ZM17 20C15.346 20 14 18.654 14 17C14 15.346 15.346 14 17 14C18.654 14 20 15.346 20 17C20 18.654 18.654 20 17 20ZM12.11 22H5L7.599 19H10.295C10.64 20.152 11.271 21.18 12.11 22ZM10 17H0V0H22V12.11C21.426 11.524 20.749 11.042 20 10.685V2H2V15H10.295C10.105 15.634 10 16.305 10 17ZM6 13H4V7H6V13ZM9 13H7V4H9V13ZM12 13H10V9H12V13Z" fill="white"/>
</svg>
