<svg width="24" height="24" viewBox="0 0 24 24" fill="none" xmlns="http://www.w3.org/2000/svg">
<path d="M21 21V24H24V21H23V20H22V21H21ZM23 22V23H22V22H23ZM0 24H8V16H0V24ZM1 17H7V23H1V17ZM21 20V19H22V20H21ZM2 18H6V22H2V18ZM10 15V17H9V15H10ZM12 7H13V8H12V7ZM13 6H14V7H13V6ZM14 8V7H15V8H14ZM14 6H15V0H12V1H9V2H12V3H14V6ZM13 2V1H14V2H13ZM6 6H2V2H6V6ZM12 6H11V4H9V3H12V4H13V5H12V6ZM8 0H0V8H8V0ZM7 7H1V1H7V7ZM10 7H9V6H11V8H10V7ZM7 10V11H6V10H7ZM22 16H24V19H23V18H21V19H20V18H19V17H20V16H21V17H22V16ZM18 18H17V19H16V18H15V17H16V16H14V15H13V16H12V17H10V18H9V24H14V23H13V21H12V23H10V22H11V21H10V20H13V19H15V21H14V22H15V24H16V22H17V23H18V22H19V20H20V19H18V18ZM17 21H16V20H17V21ZM23 15V13H24V15H23ZM14 20V21H13V20H14ZM19 23V22H20V24H18V23H19ZM16 0V8H24V0H16ZM23 7H17V1H23V7ZM22 6H18V2H22V6ZM23 10H24V12H23V13H21V9H22V11H23V10ZM19 16V13H20V16H19ZM6 9V10H4V11H5V12H2V11H3V10H1V11H0V9H6ZM5 13V12H6V15H5V14H4V15H3V14H2V15H0V14H1V13H5ZM1 12V13H0V12H1ZM20 10H19V9H20V10ZM7 14H8V15H7V14ZM22 16H21V15H22V16ZM17 17V16H18V17H17ZM16 16H17V13H19V12H20V11H19V10H17V9H16V10H15V9H14V10H13V9H12V10H11V11H10V10H11V9H7V10H9V11H7V12H8V14H9V13H11V15H12V11H13V13H16V14H14V15H16V16ZM17 11H18V12H17V11ZM15 12H14V11H15V12Z" fill="white"/>
</svg>
