<svg width="24" height="24" viewBox="0 0 24 24" fill="none" xmlns="http://www.w3.org/2000/svg">
<g clip-path="url(#clip0_1_62)">
<path d="M21.854 13.683L23.852 13.842C23.72 14.696 23.501 15.518 23.2 16.302L21.4 15.397C21.6 14.846 21.753 14.274 21.854 13.683ZM19.306 21.509L17.893 20.066C17.407 20.422 16.887 20.734 16.338 20.999L17.007 22.898C17.828 22.521 18.598 22.054 19.306 21.509ZM20.532 17.2C20.197 17.746 19.813 18.257 19.383 18.728L20.787 20.161C21.37 19.534 21.886 18.845 22.326 18.103L20.532 17.2ZM0 12C0 18.627 5.375 24 12.004 24C13.085 24 14.128 23.844 15.124 23.576L14.459 21.682C13.672 21.882 12.852 22 12.004 22C6.488 22 2.001 17.514 2.001 12C2.001 6.486 6.488 2 12.004 2C14.239 2 16.297 2.744 17.963 3.989L15.913 6.038L22.928 7.392L21.573 0.379L19.389 2.562C17.353 0.964 14.794 0 12.004 0C5.375 0 0 5.373 0 12ZM14.768 15V13.581H12.174V12.286L14.896 8.633H16.184V12.322H17V13.581H16.185V15H14.768ZM14.768 12.321V10.626L13.505 12.321H14.768ZM7 15C7 14.039 7.275 13.291 8.234 12.581C9.363 11.745 10.224 11.416 10.224 10.642C10.224 10.13 9.916 9.812 9.42 9.812C8.73 9.812 8.565 10.535 8.565 11.223H7.144C7.084 9.441 8.095 8.51 9.482 8.51C10.769 8.51 11.702 9.366 11.702 10.546C11.702 11.135 11.519 11.602 11.126 12.015C10.505 12.67 9.574 13 8.963 13.697H11.737V15H7Z" fill="#074681"/>
<path d="M23.5928 9.44531V9.69922L22.1206 13H21.6445L23.1143 9.81641H21.1904V9.44531H23.5928Z" fill="#074681"/>
</g>
<defs>
<clipPath id="clip0_1_62">
<rect width="24" height="24" fill="white"/>
</clipPath>
</defs>
</svg>
