<svg width="134" height="196" viewBox="0 0 134 196" fill="none" xmlns="http://www.w3.org/2000/svg">
<path d="M133.604 0H0V195.611H133.604V0Z" fill="#E6E6E6"/>
<path d="M104.768 86.9855C104.098 104.545 100.353 118.958 92.2635 132.123C91.1876 133.879 90.1726 134.356 89.0054 133.655C88.3979 133.192 87.9867 132.518 87.8532 131.766C87.7198 131.014 87.8738 130.239 88.2847 129.595C89.452 127.504 90.7715 125.535 91.8169 123.333C98.9828 108.504 101.815 92.9537 99.3482 76.5716C98.6121 71.7284 97.1331 67.0278 94.9634 62.6357C94.5963 61.9502 94.3718 61.1975 94.3037 60.423C94.2088 59.8564 94.3289 59.2748 94.6406 58.7922C94.9523 58.3096 95.4331 57.9609 95.9886 57.8144C97.2675 57.4795 98.0186 58.3016 98.4855 59.3471C100.926 64.1312 102.601 69.2687 103.449 74.5721C104.169 79.4441 104.494 84.3161 104.768 86.9855Z" fill="#B3B3B3"/>
<path d="M68.9388 29.3437C68.9802 29.6751 68.9513 30.0116 68.8538 30.3311C68.7564 30.6506 68.5926 30.946 68.3733 31.1979C68.1539 31.4498 67.8839 31.6527 67.5808 31.7931C67.2778 31.9336 66.9485 32.0086 66.6145 32.0131C52.506 32.4902 42.3154 39.6256 34.5608 50.8617C31.3211 55.6572 28.8805 60.9463 27.334 66.5231C26.7656 68.4516 25.8622 69.2535 24.6239 68.9693C24.2872 68.8485 23.9781 68.6616 23.7148 68.4194C23.4515 68.1773 23.2393 67.8849 23.0908 67.5595C22.9423 67.2341 22.8604 66.8823 22.85 66.5247C22.8396 66.1672 22.901 65.8111 23.0304 65.4777C28.1967 48.2227 37.6565 34.5811 55.5103 28.4708C58.9207 27.3035 62.6864 27.1411 66.3099 26.6945C67.9745 26.4408 68.9489 27.5979 68.9388 29.3437Z" fill="#B3B3B3"/>
<path d="M113.152 80.9463C113.152 82.0831 113.152 83.1184 113.152 84.1435C113.152 85.8995 112.208 87.1073 110.939 87.1174C109.671 87.1276 108.778 85.9198 108.767 84.1334C108.756 78.3544 107.957 72.6038 106.392 67.0408C102.87 54.8608 96.5671 44.7108 85.7776 37.6971C84.9555 37.1693 84.0724 36.7329 83.2503 36.2152C82.6482 35.873 82.1878 35.3274 81.9515 34.6764C81.7153 34.0253 81.7187 33.3114 81.9612 32.6627C82.5195 31.0083 83.7172 30.5211 85.3006 31.3737C90.0806 33.9776 94.3568 37.415 97.9272 41.5237C105.956 50.7094 110.412 61.5192 112.3 73.4657C112.685 75.9829 112.878 78.5204 113.152 80.9463Z" fill="#B3B3B3"/>
<path d="M66.9799 48.2531C67.6904 48.2531 68.6749 48.2531 69.6392 48.4257C70.3043 48.5746 70.8864 48.9742 71.2645 49.5413C71.6425 50.1084 71.7875 50.7994 71.6691 51.4707C71.6713 51.8021 71.6031 52.1302 71.4691 52.4333C71.3351 52.7365 71.1384 53.0078 70.8919 53.2293C70.6454 53.4509 70.3548 53.6177 70.0391 53.7187C69.7234 53.8197 69.3899 53.8526 69.0606 53.8153C60.9406 53.0236 54.6882 56.3325 49.664 62.3515C44.6397 68.3704 42.4575 75.6784 42.1631 83.5142C42.1738 84.0514 42.133 84.5885 42.0413 85.1179C41.9944 85.629 41.7621 86.1053 41.3881 86.4569C41.0141 86.8084 40.5244 87.0109 40.0113 87.0261C39.501 87.0484 39.0024 86.8694 38.6227 86.5277C38.2431 86.186 38.0127 85.7089 37.9813 85.1991C37.8563 83.8487 37.8563 82.4896 37.9813 81.1391C38.7527 71.3545 42.0413 62.656 49.2275 55.7134C51.5416 53.3517 54.3037 51.4754 57.3519 50.1944C60.4002 48.9134 63.6734 48.2534 66.9799 48.2531V48.2531Z" fill="#B3B3B3"/>
<path d="M80.9056 99.4802C80.9056 100.262 80.9056 101.043 80.9056 101.825C80.9056 103.51 80.0328 104.677 78.8148 104.738C77.5968 104.799 76.6122 103.601 76.5208 101.845C76.4092 99.5512 76.3686 97.2472 76.1757 94.9634C75.9538 90.3148 74.9484 85.7371 73.2018 81.4233C72.6046 80.0329 71.8079 78.737 70.8369 77.5765C70.3672 76.9731 69.7739 76.4773 69.0968 76.1222C68.4197 75.7671 67.6744 75.561 66.911 75.5177C66.1477 75.4744 65.3839 75.595 64.671 75.8713C63.9581 76.1476 63.3125 76.5733 62.7777 77.1197C61.8303 77.9747 61.0705 79.0168 60.5464 80.1804C60.0222 81.3439 59.7452 82.6036 59.7327 83.8796C59.7633 84.4172 59.7633 84.956 59.7327 85.4935C59.5094 86.681 58.9512 87.7062 57.6012 87.7163C57.3146 87.7236 57.0295 87.6718 56.7637 87.5641C56.4978 87.4565 56.257 87.2953 56.0562 87.0906C55.8553 86.886 55.6987 86.6422 55.5961 86.3744C55.4934 86.1066 55.447 85.8206 55.4596 85.5341C55.3525 84.0715 55.4343 82.6011 55.7032 81.1594C56.7182 76.0844 59.1745 72.0244 64.5032 70.4309C65.9451 69.9918 67.4785 69.9486 68.9428 70.3058C70.4071 70.6629 71.7484 71.4073 72.8262 72.4609C75.6682 74.9882 77.1704 78.3377 78.2565 81.8801C79.9354 87.5991 80.8266 93.5203 80.9056 99.4802Z" fill="#B3B3B3"/>
<path d="M95.5521 98.2926C93.5221 114.36 87.5539 129.413 74.6837 141.156C73.1003 142.597 72.1259 142.739 71.1616 141.724C70.6264 141.081 70.3639 140.254 70.4303 139.419C70.4967 138.585 70.8866 137.809 71.5169 137.258C73.3947 135.401 75.3536 133.615 77.0588 131.605C84.8235 122.47 89.0155 111.66 90.8527 99.8862C91.0049 98.8712 91.0861 97.9475 91.2181 96.9833C91.4617 95.2172 92.3447 94.1819 93.5323 94.2428C94.7198 94.3037 95.6739 95.5826 95.5521 98.2926Z" fill="#B3B3B3"/>
<path d="M29.2117 84.4988C29.5771 70.9485 33.2717 58.9106 42.4067 48.9129C43.9301 47.3274 45.5577 45.8456 47.2787 44.4773C48.6895 43.2898 49.603 43.2898 50.4861 44.2337C50.952 44.7748 51.2206 45.4577 51.2483 46.1711C51.2759 46.8846 51.0609 47.5863 50.6384 48.1618C50.4478 48.3843 50.2334 48.5851 49.9989 48.7606C40.6304 55.9773 35.8599 65.7923 34.2664 77.2415C33.8886 81.1269 33.7699 85.0332 33.9111 88.9343C33.9111 91.0455 33.2615 92.3549 31.8811 92.4564C30.5007 92.5579 29.6279 91.3703 29.5061 89.2084C29.3741 87.5539 29.2929 85.8893 29.2117 84.4988Z" fill="#B3B3B3"/>
<path d="M66.4825 59.5095C69.0862 59.5082 71.6574 60.0879 74.0086 61.2064C76.3598 62.325 78.4317 63.9541 80.0733 65.975C80.6353 66.8051 80.8703 67.8138 80.7331 68.8069C80.6459 69.1946 80.4666 69.5556 80.2104 69.8595C79.9543 70.1634 79.6288 70.4011 79.2614 70.5527C78.8476 70.5795 78.4328 70.5183 78.0444 70.3731C77.656 70.2278 77.3028 70.0019 77.0081 69.7102C73.5266 66.1476 69.426 64.28 64.4424 65.2239C59.2354 66.2389 55.8758 69.6392 53.5311 74.2067C53.3681 74.7182 53.1322 75.2036 52.8308 75.648C52.303 76.1453 51.5925 76.7949 50.9835 76.7746C50.6171 76.7118 50.27 76.5657 49.969 76.3475C49.6681 76.1292 49.4213 75.8448 49.2478 75.516C48.892 74.7742 48.8339 73.9243 49.0854 73.1409C51.9376 66.2592 56.5051 61.2451 64.1683 59.7632C64.9348 59.6386 65.7072 59.5539 66.4825 59.5095V59.5095Z" fill="#B3B3B3"/>
<path d="M66.9798 42.9548C65.4675 43.0969 64.1987 43.1883 62.9198 43.3405C60.7985 43.6044 59.753 42.9853 59.479 41.2192C59.2049 39.4531 60.1996 38.2452 62.1789 37.9407C67.3051 37.1603 72.5456 37.7018 77.4039 39.514C81.9444 41.1786 86.0666 43.8147 89.4824 47.2381C90.1468 47.918 90.5278 48.8252 90.5481 49.7756C90.4342 50.7084 89.9563 51.5585 89.2185 52.1406C88.3862 52.78 87.493 52.1406 86.7723 51.4707C82.7141 47.4607 77.5688 44.7292 71.9736 43.6146C70.2583 43.239 68.4922 43.1781 66.9798 42.9548Z" fill="#B3B3B3"/>
<path d="M44.3758 107.377C44.4049 114.288 43.4653 121.169 41.5845 127.819C41.0263 129.727 40.0925 130.549 38.844 130.184C37.5956 129.819 36.8141 128.235 37.3317 126.53C39.1637 120.425 40.0436 114.075 39.9403 107.702C39.8489 104.007 39.3008 100.312 38.9253 96.6178C38.8218 95.9465 38.7878 95.2662 38.8238 94.5878C38.9659 93.4307 39.5241 92.4969 40.8538 92.436C41.3758 92.4131 41.8865 92.5923 42.2798 92.9364C42.673 93.2804 42.9184 93.7629 42.9649 94.2834C43.4115 96.7904 43.7972 99.3076 44.0611 101.835C44.2844 103.906 44.2844 106.017 44.3758 107.377Z" fill="#B3B3B3"/>
<path d="M95.6638 82.2049C95.7298 83.1273 95.7298 84.0534 95.6638 84.9758C95.4912 86.1837 94.8315 87.1682 93.4714 87.0769C92.9024 87.0302 92.3736 86.7655 91.9953 86.338C91.617 85.9105 91.4185 85.3534 91.4414 84.783C91.1775 82.2049 91.1064 79.5963 90.6294 77.069C89.4841 70.4152 86.2362 64.3036 81.3624 59.6313C80.6193 58.8949 80.0867 57.9733 79.8196 56.9618C79.7342 56.7008 79.7027 56.4251 79.727 56.1514C79.7512 55.8778 79.8308 55.612 79.9608 55.37C80.0908 55.128 80.2685 54.915 80.4833 54.7437C80.698 54.5724 80.9453 54.4465 81.2102 54.3736C81.6435 54.3134 82.0845 54.3437 82.5055 54.4625C82.9265 54.5813 83.3184 54.786 83.6563 55.0638C87.3782 58.3423 90.2955 62.4335 92.1823 67.0205C94.277 71.8214 95.4577 76.9709 95.6638 82.2049V82.2049Z" fill="#B3B3B3"/>
<path d="M71.4763 111.752C70.8456 121.359 69.0529 130.854 66.1374 140.029C65.5893 141.765 64.7164 142.415 63.468 142.11C62.2195 141.806 61.4379 140.182 61.8845 138.608C62.5646 136.112 63.3563 133.645 63.9856 131.138C65.6519 124.555 66.6951 117.83 67.1016 111.051C67.1016 110.96 67.1016 110.858 67.1016 110.757C67.2437 109.001 68.1776 107.823 69.3956 107.854C70.6136 107.884 71.5474 109.173 71.5068 111.021C71.5068 111.264 71.4864 111.508 71.4763 111.752Z" fill="#B3B3B3"/>
<path d="M54.0386 106.798C54.0386 108.118 54.0386 109.437 54.0386 110.757C53.9676 112.35 52.9323 113.548 51.7549 113.497C50.5775 113.447 49.7249 112.269 49.7249 110.726C49.6607 103.103 48.8241 95.5059 47.228 88.0513C47.175 87.8141 47.141 87.5732 47.1265 87.3306C47.0047 85.7472 47.8065 84.4379 48.9941 84.2856C50.1816 84.1334 51.1459 85.0063 51.491 86.6506C52.8913 93.2852 53.7434 100.024 54.0386 106.798V106.798Z" fill="#B3B3B3"/>
<path d="M28.3084 105.702C28.1663 107.113 27.7603 108.24 26.39 108.493C25.0198 108.747 24.36 107.752 23.9743 106.626C21.6304 99.5124 20.4413 92.0695 20.4523 84.58C20.4248 83.9016 20.6249 83.2335 21.0207 82.6819C21.2671 82.4045 21.5664 82.1791 21.901 82.0188C22.2356 81.8584 22.5989 81.7664 22.9695 81.7481C23.4867 81.8257 23.9564 82.0933 24.2867 82.4988C24.6171 82.9042 24.7844 83.4183 24.7559 83.9405C24.8777 85.5036 24.8878 87.0667 24.969 88.6298C25.2946 93.9544 26.3183 99.2131 28.014 104.271C28.1364 104.743 28.2346 105.22 28.3084 105.702V105.702Z" fill="#B3B3B3"/>
<path d="M88.5486 94.1514C88.5486 95.6638 88.5486 97.1964 88.5486 98.6986C88.5486 100.201 87.6148 101.216 86.4476 101.246C86.1287 101.223 85.8175 101.137 85.5319 100.993C85.2464 100.85 84.992 100.651 84.7836 100.408C84.5751 100.166 84.4166 99.8848 84.3172 99.5809C84.2178 99.277 84.1795 98.9565 84.2044 98.6377C84.2044 97.0746 84.4176 95.4912 84.2044 93.9585C83.6157 89.1677 82.8646 84.3972 82.1744 79.6166C81.9741 78.979 81.9741 78.2953 82.1744 77.6577C82.621 76.9573 83.4736 76.0946 84.1334 76.1047C84.5589 76.1941 84.9558 76.3873 85.2887 76.6671C85.6217 76.9468 85.8803 77.3046 86.0416 77.7084C86.8637 80.9158 87.5539 84.1638 88.0716 87.4321C88.4268 89.6448 88.4471 91.9083 88.6197 94.1514H88.5486Z" fill="#B3B3B3"/>
<path d="M62.3616 110.909C62.189 113.457 61.9759 116.573 61.7424 119.699C61.7083 120.088 61.6334 120.472 61.5192 120.846C61.4284 121.333 61.1626 121.77 60.7719 122.075C60.3811 122.38 59.8924 122.531 59.3978 122.5C58.8973 122.482 58.4214 122.278 58.0617 121.93C57.7019 121.581 57.4837 121.112 57.449 120.612C57.3324 119.886 57.3324 119.146 57.449 118.42C58.1005 112.439 58.046 106.402 57.2866 100.434C57.2165 99.906 57.2441 99.3693 57.3678 98.8509C57.439 98.365 57.6839 97.9213 58.0572 97.6022C58.4304 97.283 58.9067 97.11 59.3978 97.1152C59.9028 97.1127 60.3906 97.2985 60.766 97.6363C61.1413 97.9741 61.3773 98.4398 61.4278 98.9422C61.7101 100.527 61.9066 102.127 62.0165 103.733C62.1688 105.936 62.2296 108.138 62.3616 110.909Z" fill="#B3B3B3"/>
<path d="M36.0426 106.859C35.5148 110.818 35.0276 114.776 34.4694 118.735C34.4454 119.272 34.2733 119.792 33.972 120.237C33.5353 120.794 32.9179 121.182 32.2262 121.333C31.8824 121.304 31.5496 121.197 31.2526 121.022C30.9556 120.846 30.7021 120.605 30.5109 120.318C30.1508 119.531 30.0478 118.65 30.2165 117.801C31.289 112.579 31.6306 107.233 31.2315 101.916C31.1809 101.43 31.1809 100.94 31.2315 100.455C31.4041 99.2975 31.9826 98.4246 33.2615 98.3332C33.5365 98.3195 33.8115 98.3618 34.0696 98.4576C34.3277 98.5535 34.5637 98.7008 34.763 98.8907C34.9624 99.0806 35.1211 99.3091 35.2294 99.5622C35.3377 99.8154 35.3934 100.088 35.393 100.363C35.6366 102.535 35.7178 104.738 35.8701 106.92L36.0426 106.859Z" fill="#B3B3B3"/>
<path d="M112.137 95.9581C111.599 101.824 110.285 107.592 108.229 113.112C107.661 114.614 106.727 115.202 105.631 114.868C105.035 114.631 104.545 114.185 104.253 113.613C103.962 113.042 103.889 112.383 104.048 111.762C104.281 110.676 104.799 109.64 105.063 108.554C105.966 104.555 106.829 100.556 107.692 96.5468C107.803 96.0291 107.813 95.481 107.945 94.9532C108.219 93.8773 108.798 93.0349 109.975 93.0552C111.153 93.0755 111.782 93.9179 112.005 95.004C112.075 95.3179 112.119 95.637 112.137 95.9581V95.9581Z" fill="#B3B3B3"/>
<path d="M71.1718 99.3482C71.2226 100.078 71.2226 100.811 71.1718 101.541C71.0094 102.627 70.4917 103.571 69.2737 103.642C69.0033 103.686 68.7264 103.673 68.4614 103.603C68.1963 103.533 67.9492 103.408 67.7362 103.235C67.5233 103.062 67.3494 102.846 67.226 102.602C67.1026 102.357 67.0325 102.089 67.0204 101.815C66.7667 99.9369 66.7667 98.0186 66.5332 96.1307C66.1171 92.8319 65.5994 89.5535 65.1224 86.2649C65.1224 86.0213 65.031 85.7878 65.0209 85.5442C64.9145 84.8845 65.0557 84.2086 65.4172 83.6466C65.7788 83.0846 66.3353 82.6759 66.9798 82.4992C68.076 82.3571 69.1316 83.2503 69.3752 84.8033C70.1263 89.6245 70.7861 94.4661 71.4763 99.2975L71.1718 99.3482Z" fill="#B3B3B3"/>
<path d="M80.3068 111.802C79.6869 117.274 78.3878 122.648 76.4396 127.799C76.2543 128.168 75.9802 128.486 75.6418 128.723C75.3035 128.961 74.9115 129.11 74.501 129.159C74.0837 129.049 73.6968 128.846 73.3697 128.565C73.0426 128.283 72.7839 127.931 72.6131 127.535C72.4033 126.696 72.4421 125.814 72.7247 124.997C73.7397 120.44 74.8461 115.862 75.9118 111.346C75.9118 111.203 75.9118 111.061 75.9829 110.919C76.2975 109.397 77.2415 108.493 78.358 108.615C79.4745 108.737 80.3372 109.955 80.3068 111.802Z" fill="#B3B3B3"/>
<path d="M53.4195 121.333C52.1507 125.982 50.9124 130.631 49.5828 135.259C49.5445 135.493 49.4572 135.717 49.3265 135.915C49.1958 136.113 49.0247 136.282 48.8244 136.409C48.6241 136.536 48.3992 136.62 48.1643 136.655C47.9294 136.689 47.6899 136.673 47.4614 136.609C46.6693 136.224 46.0449 135.564 45.7055 134.751C45.5429 133.998 45.5921 133.215 45.8476 132.488C46.7509 128.601 47.705 124.723 48.6388 120.846C48.72 120.511 48.6388 120.064 48.8926 119.831C49.5117 119.242 50.2324 118.319 50.9226 118.329C51.6128 118.339 52.3131 119.273 52.8815 119.922C53.115 120.186 53.0135 120.755 53.0642 121.191L53.4195 121.333Z" fill="#B3B3B3"/>
<path d="M60.2809 128.743C59.9459 130.093 59.5298 131.899 59.0121 133.686C58.4945 135.472 57.9971 137.035 57.378 138.7C57.2699 139.211 56.9692 139.66 56.5382 139.955C56.1072 140.25 55.5791 140.368 55.0638 140.283C54.5274 140.18 54.047 139.886 53.7125 139.454C53.378 139.022 53.2124 138.483 53.2469 137.939C53.2119 137.45 53.26 136.959 53.389 136.487C54.2348 133.53 55.0976 130.576 55.9772 127.626C56.3223 126.479 56.9313 125.596 58.332 125.677C59.3978 125.779 60.2504 126.956 60.2809 128.743Z" fill="#B3B3B3"/>
<path d="M122.724 157.914H105.733V155.072H119.872V140.923H122.724V157.914Z" fill="#B3B3B3"/>
<path d="M11.5609 157.914H28.5519V155.072H14.4028V140.923H11.5609V157.914Z" fill="#B3B3B3"/>
<path d="M122.724 8.49554H105.733V11.3375H119.872V25.4866H122.724V8.49554Z" fill="#B3B3B3"/>
<path d="M11.5609 8.49554H28.5519V11.3375H14.4028V25.4866H11.5609V8.49554Z" fill="#B3B3B3"/>
<path opacity="0.46" d="M122.724 168.663H11.5609V173.088H122.724V168.663Z" fill="white"/>
<path opacity="0.46" d="M109.366 179.959H11.5609V184.385H109.366V179.959Z" fill="white"/>
<path d="M93.5 139.994C103.717 139.994 112 131.712 112 121.497C112 111.281 103.717 103 93.5 103C83.2827 103 75 111.281 75 121.497C75 131.712 83.2827 139.994 93.5 139.994Z" fill="#F50004"/>
<path d="M85.9819 112L84 113.982L100.599 130.577L102.581 128.596L85.9819 112Z" fill="white"/>
<path d="M102.581 113.982L100.599 112L84 128.596L85.9819 130.577L102.581 113.982Z" fill="white"/>
</svg>
