<svg width="406" height="306" viewBox="0 0 406 306" fill="none" xmlns="http://www.w3.org/2000/svg">
<path opacity="0.3" d="M98.0794 40.335C63.2954 51.3985 37.484 79.4633 32.3988 113.415C28.1155 142.028 16.4329 204.044 88.7922 218.975C204.959 242.868 338.878 229.724 366.902 182.435C394.926 135.146 366.902 50.5459 294.949 39.32C253.405 32.8443 166.024 18.7155 98.0794 40.335Z" fill="#E6E6E6"/>
<path opacity="0.45" d="M203 269.106C294.171 269.106 368.08 264.425 368.08 258.651C368.08 252.877 294.171 248.197 203 248.197C111.829 248.197 37.9204 252.877 37.9204 258.651C37.9204 264.425 111.829 269.106 203 269.106Z" fill="#E6E6E6"/>
<path d="M197.925 61.1019H64.3206V256.713H197.925V61.1019Z" fill="#E6E6E6"/>
<path d="M252.187 98.9614H207.71V132.791H252.187V98.9614Z" fill="#E6E6E6"/>
<path d="M238.109 101.529H211.597V113.273H238.109V101.529Z" fill="#FFD200"/>
<path d="M216.987 115.404H211.597V118.713H216.987V115.404Z" fill="#B3B3B3"/>
<path d="M224.01 115.404H218.621V118.713H224.01V115.404Z" fill="#B3B3B3"/>
<path d="M231.085 115.404H225.695V118.713H231.085V115.404Z" fill="#B3B3B3"/>
<path d="M238.109 115.404H232.719V118.713H238.109V115.404Z" fill="#B3B3B3"/>
<path d="M216.987 120.114H211.597V123.423H216.987V120.114Z" fill="#B3B3B3"/>
<path d="M224.01 120.114H218.621V123.423H224.01V120.114Z" fill="#B3B3B3"/>
<path d="M231.085 120.114H225.695V123.423H231.085V120.114Z" fill="#B3B3B3"/>
<path d="M238.109 120.114H232.719V123.423H238.109V120.114Z" fill="#B3B3B3"/>
<path d="M216.987 124.813H211.597V128.122H216.987V124.813Z" fill="#B3B3B3"/>
<path d="M224.01 124.813H218.621V128.122H224.01V124.813Z" fill="#B3B3B3"/>
<path d="M231.085 124.813H225.695V128.122H231.085V124.813Z" fill="#B3B3B3"/>
<path d="M238.109 124.813H232.719V128.122H238.109V124.813Z" fill="#B3B3B3"/>
<path d="M246.33 109.122H243.021C241.542 109.122 240.342 110.321 240.342 111.801V122.134C240.342 123.614 241.542 124.813 243.021 124.813H246.33C247.81 124.813 249.01 123.614 249.01 122.134V111.801C249.01 110.321 247.81 109.122 246.33 109.122Z" fill="#B3B3B3"/>
<path d="M247.772 112.512H241.58V122.256H247.772V112.512Z" fill="#24285B"/>
<path d="M169.089 148.087C168.419 165.647 164.674 180.06 156.584 193.224C155.508 194.98 154.493 195.457 153.326 194.757C152.718 194.294 152.307 193.62 152.174 192.868C152.04 192.116 152.194 191.341 152.605 190.697C153.773 188.606 155.092 186.637 156.137 184.435C163.303 169.605 166.135 154.056 163.669 137.673C162.933 132.83 161.454 128.13 159.284 123.738C158.917 123.052 158.692 122.299 158.624 121.525C158.529 120.958 158.649 120.377 158.961 119.894C159.273 119.411 159.754 119.063 160.309 118.916C161.588 118.581 162.339 119.403 162.806 120.449C165.247 125.233 166.921 130.371 167.769 135.674C168.49 140.546 168.815 145.418 169.089 148.087Z" fill="#B3B3B3"/>
<path d="M133.259 90.4456C133.301 90.7771 133.272 91.1135 133.174 91.433C133.077 91.7525 132.913 92.0479 132.694 92.2998C132.474 92.5518 132.204 92.7546 131.901 92.8951C131.598 93.0355 131.269 93.1105 130.935 93.115C116.826 93.5921 106.636 100.728 98.8813 111.964C95.6416 116.759 93.201 122.048 91.6545 127.625C91.0861 129.554 90.1827 130.355 88.9444 130.071C88.6077 129.95 88.2986 129.763 88.0353 129.521C87.772 129.279 87.5598 128.987 87.4113 128.661C87.2628 128.336 87.1809 127.984 87.1706 127.627C87.1602 127.269 87.2215 126.913 87.3509 126.58C92.5172 109.325 101.977 95.683 119.831 89.5727C123.241 88.4054 127.007 88.243 130.63 87.7964C132.295 87.5427 133.269 88.6998 133.259 90.4456Z" fill="#B3B3B3"/>
<path d="M177.473 142.048C177.473 143.185 177.473 144.22 177.473 145.245C177.473 147.001 176.529 148.209 175.26 148.219C173.991 148.229 173.098 147.022 173.088 145.235C173.077 139.456 172.278 133.706 170.713 128.143C167.191 115.963 160.888 105.813 150.098 98.799C149.276 98.2712 148.393 97.8347 147.571 97.3171C146.969 96.9748 146.508 96.4292 146.272 95.7782C146.036 95.1272 146.039 94.4133 146.282 93.7646C146.84 92.1101 148.038 91.6229 149.621 92.4755C154.401 95.0794 158.677 98.5168 162.248 102.626C170.276 111.811 174.732 122.621 176.62 134.568C177.006 137.085 177.199 139.622 177.473 142.048Z" fill="#B3B3B3"/>
<path d="M131.3 109.355C132.011 109.355 132.995 109.355 133.96 109.528C134.625 109.676 135.207 110.076 135.585 110.643C135.963 111.21 136.108 111.901 135.99 112.573C135.992 112.904 135.924 113.232 135.79 113.535C135.656 113.838 135.459 114.11 135.212 114.331C134.966 114.553 134.675 114.72 134.36 114.821C134.044 114.922 133.71 114.954 133.381 114.917C125.261 114.125 119.009 117.434 113.984 123.453C108.96 129.472 106.778 136.78 106.484 144.616C106.494 145.153 106.454 145.69 106.362 146.22C106.315 146.731 106.083 147.207 105.709 147.559C105.335 147.91 104.845 148.113 104.332 148.128C103.822 148.15 103.323 147.971 102.943 147.63C102.564 147.288 102.333 146.811 102.302 146.301C102.177 144.951 102.177 143.591 102.302 142.241C103.073 132.456 106.362 123.758 113.548 116.815C115.862 114.454 118.624 112.577 121.672 111.296C124.721 110.015 127.994 109.355 131.3 109.355V109.355Z" fill="#B3B3B3"/>
<path d="M145.226 160.582C145.226 161.364 145.226 162.145 145.226 162.927C145.226 164.612 144.353 165.779 143.135 165.84C141.917 165.901 140.933 164.703 140.841 162.947C140.73 160.653 140.689 158.349 140.496 156.065C140.274 151.417 139.269 146.839 137.522 142.525C136.925 141.135 136.128 139.839 135.157 138.678C134.688 138.075 134.094 137.579 133.417 137.224C132.74 136.869 131.995 136.663 131.232 136.619C130.468 136.576 129.704 136.697 128.992 136.973C128.279 137.249 127.633 137.675 127.098 138.222C126.151 139.076 125.391 140.119 124.867 141.282C124.343 142.446 124.066 143.705 124.053 144.981C124.084 145.519 124.084 146.058 124.053 146.595C123.83 147.783 123.272 148.808 121.922 148.818C121.635 148.825 121.35 148.774 121.084 148.666C120.818 148.558 120.578 148.397 120.377 148.192C120.176 147.988 120.019 147.744 119.917 147.476C119.814 147.208 119.768 146.922 119.78 146.636C119.673 145.173 119.755 143.703 120.024 142.261C121.039 137.186 123.495 133.126 128.824 131.533C130.266 131.094 131.799 131.05 133.263 131.408C134.728 131.765 136.069 132.509 137.147 133.563C139.989 136.09 141.491 139.44 142.577 142.982C144.256 148.701 145.147 154.622 145.226 160.582Z" fill="#B3B3B3"/>
<path d="M159.873 159.394C157.843 175.462 151.874 190.514 139.004 202.258C137.421 203.699 136.446 203.841 135.482 202.826C134.947 202.183 134.684 201.355 134.751 200.521C134.817 199.687 135.207 198.911 135.837 198.36C137.715 196.503 139.674 194.716 141.379 192.707C149.144 183.572 153.336 172.762 155.173 160.988C155.325 159.973 155.407 159.049 155.539 158.085C155.782 156.319 156.665 155.284 157.853 155.345C159.04 155.405 159.994 156.684 159.873 159.394Z" fill="#B3B3B3"/>
<path d="M93.5323 145.601C93.8977 132.05 97.5923 120.013 106.727 110.015C108.251 108.429 109.878 106.948 111.599 105.579C113.01 104.392 113.924 104.392 114.807 105.336C115.273 105.877 115.541 106.56 115.569 107.273C115.596 107.986 115.381 108.688 114.959 109.264C114.768 109.486 114.554 109.687 114.319 109.863C104.951 117.079 100.181 126.894 98.587 138.343C98.2091 142.229 98.0905 146.135 98.2317 150.036C98.2317 152.147 97.5821 153.457 96.2017 153.558C94.8213 153.66 93.9484 152.472 93.8266 150.31C93.6947 148.656 93.6135 146.991 93.5323 145.601Z" fill="#B3B3B3"/>
<path d="M130.803 120.611C133.407 120.61 135.978 121.19 138.329 122.308C140.68 123.427 142.752 125.056 144.394 127.077C144.956 127.907 145.191 128.916 145.054 129.909C144.966 130.296 144.787 130.658 144.531 130.961C144.275 131.265 143.949 131.503 143.582 131.655C143.168 131.681 142.753 131.62 142.365 131.475C141.977 131.33 141.623 131.104 141.329 130.812C137.847 127.249 133.747 125.382 128.763 126.326C123.556 127.341 120.196 130.741 117.852 135.309C117.689 135.82 117.453 136.306 117.151 136.75C116.624 137.247 115.913 137.897 115.304 137.876C114.938 137.814 114.591 137.668 114.29 137.449C113.989 137.231 113.742 136.947 113.568 136.618C113.213 135.876 113.154 135.026 113.406 134.243C116.258 127.361 120.826 122.347 128.489 120.865C129.255 120.74 130.028 120.656 130.803 120.611V120.611Z" fill="#B3B3B3"/>
<path d="M131.3 104.057C129.788 104.199 128.519 104.29 127.24 104.442C125.119 104.706 124.074 104.087 123.8 102.321C123.526 100.555 124.52 99.3471 126.499 99.0426C131.626 98.2621 136.866 98.8037 141.724 100.616C146.265 102.28 150.387 104.917 153.803 108.34C154.467 109.02 154.848 109.927 154.869 110.877C154.755 111.81 154.277 112.66 153.539 113.242C152.707 113.882 151.814 113.242 151.093 112.573C147.035 108.563 141.889 105.831 136.294 104.716C134.579 104.341 132.813 104.28 131.3 104.057Z" fill="#B3B3B3"/>
<path d="M108.696 168.479C108.725 175.39 107.786 182.271 105.905 188.921C105.347 190.829 104.413 191.651 103.165 191.286C101.916 190.92 101.135 189.337 101.652 187.632C103.484 181.527 104.364 175.176 104.261 168.804C104.169 165.109 103.621 161.414 103.246 157.72C103.142 157.048 103.108 156.368 103.144 155.69C103.286 154.533 103.845 153.599 105.174 153.538C105.696 153.515 106.207 153.694 106.6 154.038C106.994 154.382 107.239 154.865 107.286 155.385C107.732 157.892 108.118 160.41 108.382 162.937C108.605 165.007 108.605 167.119 108.696 168.479Z" fill="#B3B3B3"/>
<path d="M159.984 143.307C160.05 144.229 160.05 145.155 159.984 146.078C159.812 147.286 159.152 148.27 157.792 148.179C157.223 148.132 156.694 147.867 156.316 147.44C155.938 147.012 155.739 146.455 155.762 145.885C155.498 143.307 155.427 140.698 154.95 138.171C153.805 131.517 150.557 125.406 145.683 120.733C144.94 119.997 144.407 119.075 144.14 118.064C144.055 117.803 144.023 117.527 144.048 117.253C144.072 116.98 144.151 116.714 144.281 116.472C144.411 116.23 144.589 116.017 144.804 115.846C145.019 115.674 145.266 115.548 145.531 115.476C145.964 115.415 146.405 115.446 146.826 115.564C147.247 115.683 147.639 115.888 147.977 116.166C151.699 119.444 154.616 123.535 156.503 128.122C158.598 132.923 159.778 138.073 159.984 143.307V143.307Z" fill="#B3B3B3"/>
<path d="M135.797 172.853C135.166 182.46 133.373 191.956 130.458 201.131C129.91 202.867 129.037 203.517 127.788 203.212C126.54 202.908 125.758 201.284 126.205 199.71C126.885 197.213 127.677 194.747 128.306 192.24C129.972 185.657 131.016 178.932 131.422 172.153C131.422 172.062 131.422 171.96 131.422 171.859C131.564 170.103 132.498 168.925 133.716 168.956C134.934 168.986 135.868 170.275 135.827 172.123C135.827 172.366 135.807 172.61 135.797 172.853Z" fill="#B3B3B3"/>
<path d="M118.359 167.9C118.359 169.22 118.359 170.539 118.359 171.859C118.288 173.452 117.253 174.65 116.075 174.599C114.898 174.548 114.045 173.371 114.045 171.828C113.981 164.205 113.145 156.608 111.549 149.153C111.496 148.916 111.462 148.675 111.447 148.433C111.325 146.849 112.127 145.54 113.315 145.388C114.502 145.235 115.466 146.108 115.811 147.752C117.212 154.387 118.064 161.126 118.359 167.9V167.9Z" fill="#B3B3B3"/>
<path d="M92.6289 166.804C92.4868 168.215 92.0808 169.341 90.7106 169.595C89.3403 169.849 88.6805 168.854 88.2948 167.728C85.9509 160.614 84.7619 153.171 84.7728 145.682C84.7454 145.003 84.9454 144.335 85.3412 143.784C85.5877 143.506 85.887 143.281 86.2216 143.121C86.5562 142.96 86.9194 142.868 87.29 142.85C87.8072 142.928 88.2769 143.195 88.6073 143.601C88.9376 144.006 89.1049 144.52 89.0764 145.042C89.1982 146.605 89.2084 148.169 89.2896 149.732C89.6151 155.056 90.6389 160.315 92.3346 165.373C92.4569 165.845 92.5552 166.322 92.6289 166.804V166.804Z" fill="#B3B3B3"/>
<path d="M152.869 155.253C152.869 156.766 152.869 158.298 152.869 159.801C152.869 161.303 151.935 162.318 150.768 162.348C150.449 162.325 150.138 162.239 149.852 162.095C149.567 161.952 149.313 161.753 149.104 161.51C148.896 161.268 148.737 160.987 148.638 160.683C148.538 160.379 148.5 160.058 148.525 159.74C148.525 158.177 148.738 156.593 148.525 155.06C147.936 150.27 147.185 145.499 146.495 140.719C146.295 140.081 146.295 139.397 146.495 138.76C146.942 138.059 147.794 137.196 148.454 137.207C148.879 137.296 149.276 137.489 149.609 137.769C149.942 138.049 150.201 138.406 150.362 138.81C151.184 142.018 151.874 145.266 152.392 148.534C152.747 150.747 152.768 153.01 152.94 155.253H152.869Z" fill="#B3B3B3"/>
<path d="M126.682 172.011C126.51 174.559 126.296 177.675 126.063 180.801C126.029 181.19 125.954 181.574 125.84 181.948C125.749 182.435 125.483 182.872 125.092 183.177C124.702 183.482 124.213 183.633 123.718 183.602C123.218 183.583 122.742 183.38 122.382 183.032C122.022 182.683 121.804 182.214 121.77 181.714C121.653 180.988 121.653 180.248 121.77 179.522C122.421 173.541 122.367 167.504 121.607 161.536C121.537 161.008 121.565 160.471 121.688 159.953C121.76 159.467 122.004 159.023 122.378 158.704C122.751 158.385 123.227 158.212 123.718 158.217C124.223 158.215 124.711 158.4 125.087 158.738C125.462 159.076 125.698 159.542 125.748 160.044C126.031 161.629 126.227 163.229 126.337 164.835C126.489 167.038 126.55 169.24 126.682 172.011Z" fill="#B3B3B3"/>
<path d="M100.363 167.961C99.8354 171.92 99.3482 175.878 98.79 179.837C98.766 180.374 98.5938 180.894 98.2926 181.339C97.8558 181.896 97.2385 182.284 96.5468 182.435C96.2029 182.406 95.8701 182.299 95.5731 182.124C95.2761 181.948 95.0226 181.707 94.8315 181.42C94.4714 180.633 94.3684 179.752 94.5371 178.903C95.6096 173.681 95.9512 168.334 95.5521 163.018C95.5014 162.532 95.5014 162.042 95.5521 161.557C95.7246 160.399 96.3032 159.527 97.5821 159.435C97.8571 159.421 98.132 159.464 98.3902 159.56C98.6483 159.655 98.8842 159.803 99.0836 159.993C99.283 160.183 99.4417 160.411 99.55 160.664C99.6583 160.917 99.7139 161.19 99.7136 161.465C99.9572 163.637 100.038 165.84 100.191 168.022L100.363 167.961Z" fill="#B3B3B3"/>
<path d="M176.458 157.06C175.92 162.926 174.606 168.694 172.55 174.213C171.982 175.716 171.048 176.304 169.952 175.969C169.355 175.733 168.865 175.287 168.574 174.715C168.283 174.144 168.209 173.485 168.368 172.864C168.602 171.778 169.119 170.742 169.383 169.656C170.287 165.657 171.149 161.658 172.012 157.649C172.124 157.131 172.134 156.583 172.266 156.055C172.54 154.979 173.118 154.137 174.296 154.157C175.473 154.177 176.102 155.02 176.326 156.106C176.395 156.42 176.44 156.739 176.458 157.06V157.06Z" fill="#B3B3B3"/>
<path d="M135.492 160.45C135.543 161.18 135.543 161.913 135.492 162.643C135.33 163.729 134.812 164.673 133.594 164.744C133.324 164.788 133.047 164.775 132.782 164.705C132.517 164.635 132.27 164.51 132.057 164.337C131.844 164.164 131.67 163.948 131.547 163.704C131.423 163.459 131.353 163.191 131.341 162.917C131.087 161.039 131.087 159.121 130.854 157.233C130.438 153.934 129.92 150.655 129.443 147.367C129.443 147.123 129.352 146.89 129.341 146.646C129.235 145.986 129.376 145.311 129.738 144.749C130.099 144.186 130.656 143.778 131.3 143.601C132.397 143.459 133.452 144.352 133.696 145.905C134.447 150.726 135.107 155.568 135.797 160.399L135.492 160.45Z" fill="#B3B3B3"/>
<path d="M144.627 172.904C144.007 178.376 142.708 183.75 140.76 188.9C140.575 189.27 140.301 189.588 139.962 189.825C139.624 190.062 139.232 190.212 138.822 190.261C138.404 190.151 138.017 189.948 137.69 189.666C137.363 189.385 137.104 189.033 136.934 188.637C136.724 187.798 136.763 186.916 137.045 186.099C138.06 181.542 139.167 176.964 140.232 172.447C140.232 172.305 140.232 172.163 140.303 172.021C140.618 170.499 141.562 169.595 142.679 169.717C143.795 169.839 144.658 171.057 144.627 172.904Z" fill="#B3B3B3"/>
<path d="M117.74 182.435C116.471 187.084 115.233 191.732 113.903 196.361C113.865 196.595 113.778 196.819 113.647 197.017C113.516 197.215 113.345 197.383 113.145 197.511C112.945 197.638 112.72 197.722 112.485 197.757C112.25 197.791 112.01 197.775 111.782 197.711C110.99 197.326 110.365 196.666 110.026 195.853C109.863 195.1 109.913 194.317 110.168 193.59C111.071 189.702 112.026 185.825 112.959 181.948C113.041 181.613 112.959 181.166 113.213 180.933C113.832 180.344 114.553 179.42 115.243 179.431C115.933 179.441 116.634 180.375 117.202 181.024C117.435 181.288 117.334 181.856 117.385 182.293L117.74 182.435Z" fill="#B3B3B3"/>
<path d="M124.601 189.845C124.266 191.194 123.85 193.001 123.333 194.788C122.815 196.574 122.318 198.137 121.699 199.802C121.59 200.313 121.29 200.762 120.859 201.057C120.428 201.352 119.9 201.469 119.384 201.385C118.848 201.282 118.368 200.988 118.033 200.556C117.699 200.124 117.533 199.585 117.567 199.04C117.532 198.552 117.581 198.061 117.71 197.589C118.555 194.632 119.418 191.678 120.298 188.728C120.643 187.581 121.252 186.698 122.653 186.779C123.718 186.881 124.571 188.058 124.601 189.845Z" fill="#B3B3B3"/>
<path d="M301.983 123.413H299.882C298.225 124.365 296.358 124.893 294.448 124.952C292.537 125.01 290.642 124.597 288.93 123.748C288.775 123.732 288.622 123.701 288.473 123.656C286.21 135.715 283.449 148.077 272.893 151.112C259.14 155.081 247.772 118.043 246.452 115.739C246.056 115.029 245.163 114.329 244.676 114.46C242.534 115.019 244.27 117.983 244.615 118.825C243.052 120.185 241.052 122.449 241.397 124.458C241.563 125.462 241.906 126.428 242.412 127.31C242.798 127.96 244.716 129.442 244.798 129.99C244.798 129.99 249.771 165.18 276.192 163.942C295.162 163.059 304.916 144.119 308.905 124.052C306.652 123.87 304.297 123.697 301.983 123.413Z" fill="#F4A28C"/>
<path opacity="0.08" d="M301.983 123.413H299.882C298.225 124.365 296.358 124.893 294.448 124.952C292.537 125.01 290.642 124.597 288.93 123.748C288.775 123.732 288.622 123.701 288.473 123.656C286.21 135.715 283.449 148.077 272.893 151.112C259.14 155.081 247.772 118.043 246.452 115.739C246.056 115.029 245.163 114.329 244.676 114.46C242.534 115.019 244.27 117.983 244.615 118.825C243.052 120.185 241.052 122.449 241.397 124.458C241.563 125.462 241.906 126.428 242.412 127.31C242.798 127.96 244.716 129.442 244.798 129.99C244.798 129.99 249.771 165.18 276.192 163.942C295.162 163.059 304.916 144.119 308.905 124.052C306.652 123.87 304.297 123.697 301.983 123.413Z" fill="black"/>
<path d="M308.682 109.558C308.682 109.558 290.27 105.914 287.681 120.804C286.288 129.335 283.904 137.674 280.576 145.651L294.644 150.209L308.682 109.558Z" fill="#68E1FD"/>
<path opacity="0.46" d="M308.682 109.558C308.682 109.558 290.27 105.914 287.681 120.804C286.288 129.335 283.904 137.674 280.576 145.651L294.644 150.209L308.682 109.558Z" fill="white"/>
<path d="M309.484 84.6194C309.484 84.6194 306.824 90.2425 306.368 94.4751C306.325 94.8849 306.364 95.2991 306.482 95.6939C306.6 96.0887 306.795 96.4564 307.055 96.776C307.315 97.0955 307.636 97.3606 307.999 97.5562C308.361 97.7518 308.759 97.8741 309.169 97.9159C310.484 98.1233 311.832 97.9462 313.049 97.406C314.266 96.8658 315.302 95.9855 316.03 94.8709L319.664 90.4252C320.294 89.4572 320.609 88.318 320.565 87.1639C320.521 86.0099 320.122 84.8977 319.42 83.98C317.005 80.4275 310.925 81.1075 309.484 84.6194Z" fill="#F4A28C"/>
<path d="M317.401 91.4606L318.7 109.548L308.682 109.558L311.676 96.7284L317.401 91.4606Z" fill="#F4A28C"/>
<path d="M307.829 88.8622L305.647 90.3238C305.519 90.4029 305.413 90.5135 305.34 90.6449C305.267 90.7764 305.228 90.9244 305.228 91.0749C305.228 91.2254 305.267 91.3734 305.34 91.5048C305.413 91.6363 305.519 91.7468 305.647 91.826L307.545 92.9323L307.829 88.8622Z" fill="#F4A28C"/>
<path opacity="0.31" d="M311.605 97.0836C312.817 96.8711 313.947 96.3305 314.873 95.5205C314.873 95.5205 315.513 99.4384 310.742 100.758L311.605 97.0836Z" fill="#CE8172"/>
<path d="M314.65 91.2271C314.65 91.2271 315.523 88.9941 317.147 89.796C318.771 90.5978 317.533 93.856 315.117 93.2774L314.65 91.2271Z" fill="#F4A28C"/>
<path d="M290.584 212.55L282.109 251.059H287.032L303.526 212.55H290.584Z" fill="#F4A28C"/>
<path d="M318.152 207.871L327.185 251.059H332.138L331.398 207.566L318.152 207.871Z" fill="#F4A28C"/>
<path d="M282.109 251.059C282.109 251.059 279.379 254.52 275.877 254.358C272.375 254.195 271.868 259.128 277.491 258.621C279.243 258.475 280.978 258.176 282.678 257.728C284.248 257.365 285.886 257.421 287.428 257.89C287.728 257.961 288.044 257.938 288.331 257.824C288.618 257.709 288.862 257.509 289.031 257.251C290.625 255.373 286.707 251.059 286.707 251.059H282.109Z" fill="#68E1FD"/>
<path d="M331.783 251.059C331.783 251.059 334.514 254.52 338.015 254.358C341.517 254.195 342.075 259.128 336.401 258.621C334.65 258.475 332.914 258.176 331.215 257.728C329.644 257.365 328.006 257.421 326.465 257.89C326.164 257.961 325.849 257.938 325.562 257.824C325.275 257.709 325.03 257.509 324.861 257.251C323.267 255.373 327.185 251.059 327.185 251.059H331.783Z" fill="#68E1FD"/>
<path d="M343.506 153.051C338.431 161.1 332.666 171.321 330.119 179.38C329.446 181.375 329.014 183.443 328.83 185.541L289.884 183.572C289.884 183.572 290.178 181.115 290.351 177.289C290.666 170.651 290.625 159.861 288.158 150.747C287.55 148.375 286.699 146.073 285.621 143.875C285.621 143.875 272.355 121.159 308.682 109.548H318.71C318.71 109.548 319.39 109.548 320.578 109.548C342.42 110.248 355.108 134.527 343.506 153.051Z" fill="#68E1FD"/>
<path opacity="0.08" d="M333.417 167.332L330.119 179.39L290.351 177.299C290.666 170.661 290.625 159.872 288.158 150.757C298.684 155.913 319.238 164.185 320.09 150.808C321.237 132.801 326.079 122.794 326.079 122.794C343.852 148.666 333.417 167.332 333.417 167.332Z" fill="black"/>
<path d="M290.351 177.289L330.119 179.38L340.735 219.665L283.256 217.615L290.351 177.289Z" fill="#24285B"/>
<path d="M326.404 124.702C326.332 122.927 326.821 121.174 327.799 119.692C328.778 118.209 330.198 117.072 331.859 116.44C333.519 115.808 335.336 115.714 337.053 116.171C338.77 116.629 340.299 117.614 341.426 118.987C347.064 125.769 350.047 134.368 349.82 143.185C349.485 166.753 346.318 192.27 295.466 164.388L298.207 156.918C298.207 156.918 320.77 167.768 330.2 164.246C337.132 161.658 327.124 140.891 326.404 124.702Z" fill="#F4A28C"/>
<path d="M298.207 156.918C298.207 156.918 289.722 152.858 286.118 156.918C282.515 160.978 288.25 164.551 295.466 164.388L298.207 156.918Z" fill="#F4A28C"/>
<path d="M308.489 81.6353L306.53 86.5276L314.65 89.5726C314.65 89.5726 315.107 95.013 312.255 95.9976C312.903 95.9646 313.538 95.8031 314.124 95.5226C314.709 95.2421 315.233 94.8481 315.665 94.3634C316.008 93.9915 316.482 93.7669 316.987 93.7366C317.493 93.7064 317.99 93.8728 318.375 94.201L318.477 94.2924C320.792 92.0132 322.42 89.1293 323.176 85.9694C324.1 81.1684 318.751 80.4376 318.751 80.4376C318.751 80.4376 311.676 75.454 308.489 81.6353Z" fill="#24285B"/>
<path d="M318.771 80.4377C318.771 80.4377 319.146 75.8194 327.439 76.5604C335.732 77.3013 327.439 88.5069 334.27 98.9512C334.27 98.9512 321.725 96.3021 321.359 85.0458L318.771 80.4377Z" fill="#24285B"/>
<path d="M318.253 80.1027C318.883 79.764 319.597 79.6163 320.309 79.6776C321.021 79.7389 321.7 80.0066 322.262 80.4478C324.617 81.9297 325.653 87.3599 321.958 89.2275C321.958 89.2275 325.023 81.8789 318.253 80.1027Z" fill="#FFD200"/>
<path d="M329.631 150.209H351.292C351.292 150.209 353.667 118.602 335.742 114.552C317.817 110.502 329.631 150.209 329.631 150.209Z" fill="#68E1FD"/>
<path opacity="0.46" d="M329.631 150.209H351.292C351.292 150.209 353.667 118.602 335.742 114.552C317.817 110.502 329.631 150.209 329.631 150.209Z" fill="white"/>
<path d="M187.044 219.016H170.053V216.174H184.192V202.025H187.044V219.016Z" fill="#B3B3B3"/>
<path d="M75.8814 219.016H92.8725V216.174H78.7234V202.025H75.8814V219.016Z" fill="#B3B3B3"/>
<path d="M187.044 69.5974H170.053V72.4394H184.192V86.5885H187.044V69.5974Z" fill="#B3B3B3"/>
<path d="M75.8814 69.5974H92.8725V72.4394H78.7234V86.5885H75.8814V69.5974Z" fill="#B3B3B3"/>
<path opacity="0.46" d="M187.044 229.764H75.8814V234.19H187.044V229.764Z" fill="white"/>
<path opacity="0.46" d="M173.687 241.061H75.8814V245.487H173.687V241.061Z" fill="white"/>
<path d="M161.152 198.299C169.829 198.299 176.864 191.265 176.864 182.587C176.864 173.91 169.829 166.875 161.152 166.875C152.474 166.875 145.439 173.91 145.439 182.587C145.439 191.265 152.474 198.299 161.152 198.299Z" fill="#24285B"/>
<path d="M157.64 192.25L151.296 180.293L155.488 178.07L159.061 184.81L169.485 175.929L172.56 179.532L157.64 192.25Z" fill="#68E1FD"/>
<path opacity="0.58" d="M233.338 242.523C233.338 242.523 223.838 239.935 221.767 231.084C221.767 231.084 236.495 228.11 236.911 243.264L233.338 242.523Z" fill="#68E1FD"/>
<path opacity="0.73" d="M234.465 241.589C234.465 241.589 227.827 231.094 233.663 221.289C233.663 221.289 244.828 228.394 239.885 241.589H234.465Z" fill="#68E1FD"/>
<path d="M236.211 241.589C236.211 241.589 239.723 230.505 250.329 228.394C250.329 228.394 252.359 235.601 243.458 241.589H236.211Z" fill="#68E1FD"/>
<path d="M229.329 241.346L231.247 254.52L243.377 254.571L245.173 241.406L229.329 241.346Z" fill="#24285B"/>
</svg>
