<svg width="44" height="27" viewBox="0 0 44 27" fill="none" xmlns="http://www.w3.org/2000/svg">
<g clip-path="url(#clip0_4_405)">
<g clip-path="url(#clip1_4_405)">
<path d="M50.6 30.1C50.6 31.2 49.7 32 48.7 32H-5C-6.1 32 -7 31.1 -7 30.1V-2C-7 -3.1 -6.1 -4 -5 -4H48.7C49.8 -4 50.6 -3.1 50.6 -2.1V30.1Z" fill="#FAFAFA"/>
</g>
<path d="M9.46 18.6811C12.32 18.6811 14.8867 16.346 14.8867 13.573C14.8867 10.5081 12.32 8.39191 9.46 8.39191H7.04C4.18 8.39191 1.83333 10.5081 1.83333 13.573C1.83333 16.4189 4.18 18.6811 7.04 18.6811H9.46Z" fill="#077ABF"/>
<path d="M7.04 8.75677C4.4 8.75677 2.27333 10.873 2.27333 13.5C2.27333 16.127 4.4 18.2433 7.04 18.2433C9.68 18.2433 11.8067 16.127 11.8067 13.5C11.8067 10.873 9.68 8.75677 7.04 8.75677ZM4.03333 13.5C4.03333 12.1865 4.84 11.1649 5.94 10.727V16.346C4.84 15.8352 4.03333 14.8135 4.03333 13.5ZM8.14 16.273V10.6541C9.24 11.0919 10.0467 12.1865 10.0467 13.427C10.0467 14.8135 9.24 15.8352 8.14 16.273Z" fill="white"/>
<path d="M16.5733 10.5811C16.5733 10.0703 16.3533 10.1433 16.06 10.1433V9.99731C16.28 9.99731 16.5 9.99731 16.72 9.99731C16.94 9.99731 17.2333 9.99731 17.6733 9.99731C19.0667 9.99731 19.8733 10.946 19.8733 11.8946C19.8733 12.4054 19.58 13.7919 17.6 13.7919C17.3067 13.7919 17.0867 13.7919 16.7933 13.7919C16.5733 13.7919 16.28 13.7919 16.06 13.7919V13.646C16.3533 13.646 16.5733 13.573 16.5733 13.2081V10.5811ZM17.16 13.1352C17.16 13.573 17.4533 13.573 17.7467 13.573C18.92 13.573 19.2867 12.6973 19.2867 11.8946C19.2867 10.873 18.6267 10.1433 17.6 10.1433C17.38 10.1433 17.3067 10.1433 17.16 10.1433V13.1352Z" fill="#221F20"/>
<path d="M20.0933 13.646H20.1667C20.3133 13.646 20.46 13.646 20.46 13.5V12.0406C20.46 11.8216 20.3867 11.7487 20.1667 11.6757V11.6027C20.46 11.5298 20.7533 11.4568 20.7533 11.3838C20.8267 11.3838 20.8267 11.3838 20.8267 11.3838C20.8267 11.3838 20.9 11.3838 20.9 11.4568V13.573C20.9 13.7189 21.0467 13.7189 21.1933 13.7189H21.2667V13.8649C21.0467 13.8649 20.9 13.8649 20.68 13.8649C20.46 13.8649 20.3133 13.8649 20.0933 13.8649V13.646ZM20.6067 10.4352C20.46 10.4352 20.3133 10.2892 20.3133 10.1433C20.3133 9.99733 20.46 9.85138 20.6067 9.85138C20.7533 9.85138 20.9 9.99733 20.9 10.1433C20.9 10.2892 20.8267 10.4352 20.6067 10.4352Z" fill="#221F20"/>
<path d="M21.78 11.9676C21.78 11.7487 21.7067 11.7487 21.4867 11.6027V11.5297C21.7067 11.4568 21.9267 11.3838 22.22 11.2379C22.22 11.2379 22.22 11.2379 22.22 11.3108V11.6757C22.5133 11.4568 22.8067 11.2379 23.1733 11.2379C23.6133 11.2379 23.8333 11.6027 23.8333 11.9676V13.3541C23.8333 13.5 23.98 13.5 24.1267 13.5H24.2V13.646C23.98 13.646 23.8333 13.646 23.6133 13.646C23.3933 13.646 23.2467 13.646 23.0267 13.646V13.5H23.1C23.2467 13.5 23.3933 13.5 23.3933 13.3541V11.9676C23.3933 11.6757 23.1733 11.5297 22.88 11.5297C22.7333 11.5297 22.44 11.6757 22.22 11.8216V13.427C22.22 13.573 22.3667 13.573 22.5133 13.573H22.5867V13.7189C22.3667 13.7189 22.22 13.7189 22 13.7189C21.78 13.7189 21.6333 13.7189 21.4133 13.7189V13.573H21.4867C21.6333 13.573 21.78 13.573 21.78 13.427V11.9676Z" fill="#221F20"/>
<path d="M24.5667 12.2595C24.5667 12.3324 24.5667 12.4054 24.5667 12.5514C24.5667 13.0622 24.9333 13.5 25.3733 13.5C25.6667 13.5 25.8867 13.3541 26.1067 13.1352L26.18 13.2081C25.96 13.573 25.5933 13.7919 25.1533 13.7919C24.2733 13.7919 24.1267 12.9892 24.1267 12.6243C24.1267 11.5297 24.86 11.2379 25.2267 11.2379C25.6667 11.2379 26.18 11.5297 26.18 12.1135V12.1865H26.1067H24.5667V12.2595ZM25.52 12.1135C25.6667 12.1135 25.6667 12.0406 25.6667 11.9676C25.6667 11.6757 25.52 11.4568 25.2267 11.4568C24.86 11.4568 24.64 11.6757 24.5667 12.1135H25.52Z" fill="#221F20"/>
<path d="M26.2533 13.646H26.4C26.5467 13.646 26.6933 13.646 26.6933 13.5V11.9676C26.6933 11.8216 26.4733 11.7487 26.4 11.7487V11.6757C26.7667 11.5297 26.9867 11.3838 27.06 11.3838C27.06 11.3838 27.1333 11.3838 27.1333 11.4568V11.9676C27.28 11.7487 27.5 11.3838 27.8667 11.3838C28.0133 11.3838 28.16 11.4568 28.16 11.6757C28.16 11.8216 28.0867 11.9676 27.94 11.9676C27.7933 11.9676 27.7933 11.8216 27.5733 11.8216C27.5 11.8216 27.2067 11.9676 27.2067 12.2595V13.573C27.2067 13.7189 27.28 13.7189 27.5 13.7189H27.7933V13.8649C27.5 13.8649 27.28 13.8649 27.06 13.8649C26.84 13.8649 26.62 13.8649 26.4 13.8649L26.2533 13.646Z" fill="#221F20"/>
<path d="M28.38 12.9892C28.4533 13.3541 28.6733 13.646 29.04 13.646C29.3333 13.646 29.48 13.427 29.48 13.2811C29.48 12.6243 28.3067 12.8433 28.3067 11.9676C28.3067 11.6757 28.5267 11.2379 29.1867 11.2379C29.3333 11.2379 29.6267 11.3108 29.7733 11.3838L29.8467 11.9676H29.7C29.6267 11.6027 29.48 11.4568 29.1133 11.4568C28.8933 11.4568 28.6733 11.6027 28.6733 11.8216C28.6733 12.4784 29.92 12.2595 29.92 13.1352C29.92 13.5 29.6267 13.8649 28.9667 13.8649C28.7467 13.8649 28.5267 13.7919 28.3067 13.646L28.2333 12.9892H28.38Z" fill="#221F20"/>
<path d="M34.8333 10.946H34.6867C34.6133 10.2892 34.1 10.0703 33.5133 10.0703C32.8533 10.0703 31.9733 10.5081 31.9733 11.8216C31.9733 12.9162 32.78 13.7189 33.5867 13.7189C34.1 13.7189 34.54 13.3541 34.6867 12.7703H34.8333L34.6867 13.573C34.4667 13.7189 33.8067 13.8649 33.5133 13.8649C32.2667 13.8649 31.46 13.0622 31.46 11.8216C31.46 10.727 32.4867 9.92435 33.5133 9.92435C33.9533 9.92435 34.3933 10.0703 34.8333 10.2162V10.946Z" fill="#221F20"/>
<path d="M35.0533 13.646H35.2C35.3467 13.646 35.4933 13.646 35.4933 13.5V10.4351C35.4933 10.0703 35.42 10.0703 35.2 9.99731V9.92434C35.42 9.85137 35.64 9.77839 35.7867 9.70542C35.86 9.70542 35.86 9.63245 35.9333 9.63245C35.9333 9.63245 36.0067 9.63245 36.0067 9.70542V13.427C36.0067 13.573 36.1533 13.573 36.3 13.573H36.3733V13.7189C36.1533 13.7189 36.0067 13.7189 35.7867 13.7189C35.5667 13.7189 35.42 13.7189 35.2 13.7189L35.0533 13.646Z" fill="#221F20"/>
<path d="M38.5733 13.427C38.5733 13.5 38.6467 13.5 38.72 13.5C38.7933 13.5 38.8667 13.5 38.94 13.5V13.646C38.72 13.646 38.28 13.7919 38.1333 13.7919V13.3541C37.84 13.646 37.5467 13.7919 37.18 13.7919C36.8867 13.7919 36.5933 13.573 36.5933 13.1351V11.7487C36.5933 11.6027 36.5933 11.4568 36.3 11.4568V11.3838C36.52 11.3838 36.96 11.3108 37.0333 11.3108C37.1067 11.3108 37.1067 11.3838 37.1067 11.4568V12.8433C37.1067 12.9892 37.1067 13.5 37.5467 13.5C37.7667 13.5 37.9867 13.3541 38.2067 13.1351V11.6757C38.2067 11.6027 37.9133 11.5297 37.7667 11.4568V11.3838C38.28 11.3838 38.5733 11.3108 38.6467 11.3108C38.72 11.3108 38.72 11.3838 38.72 11.3838L38.5733 13.427Z" fill="#221F20"/>
<path d="M39.6733 11.6757C39.8933 11.4568 40.1867 11.3108 40.48 11.3108C41.14 11.3108 41.5067 11.8946 41.5067 12.4784C41.5067 13.2081 40.9933 13.9378 40.1867 13.9378C39.7467 13.9378 39.6 13.7919 39.4533 13.7189L39.3067 13.8649L39.16 13.7919C39.2333 13.5 39.2333 13.1351 39.2333 12.8433V10.5081C39.2333 10.1433 39.16 10.1433 38.94 10.0703V9.99731C39.16 9.92433 39.38 9.85136 39.5267 9.77839C39.6 9.77839 39.6 9.70541 39.6733 9.70541C39.6733 9.70541 39.7467 9.70541 39.7467 9.77839L39.6733 11.6757ZM39.6733 13.1351C39.6733 13.3541 39.8933 13.7189 40.26 13.7189C40.8467 13.7189 41.0667 13.1351 41.0667 12.6973C41.0667 12.1135 40.6267 11.6027 40.1867 11.6027C39.9667 11.6027 39.82 11.7487 39.6733 11.8946V13.1351Z" fill="#221F20"/>
<path d="M16.06 16.9297C16.2067 16.9297 16.3533 16.9297 16.3533 16.7838V15.2514C16.3533 15.1054 16.2067 15.1054 16.1333 15.1054H16.06V15.0324C16.2067 15.0324 16.3533 15.0324 16.5 15.0324C16.6467 15.0324 16.7933 15.0324 16.94 15.0324V15.1054H16.8667C16.7933 15.1054 16.6467 15.1054 16.6467 15.2514V16.7838C16.6467 16.9297 16.7933 16.9297 16.8667 16.9297H16.94V17.0027C16.7933 17.0027 16.6467 17.0027 16.5 17.0027C16.3533 17.0027 16.2067 17.0027 16.06 17.0027V16.9297Z" fill="#221F20"/>
<path d="M17.0133 17.0027C16.8667 17.0027 16.72 17.0027 16.5733 17.0027C16.4267 17.0027 16.28 17.0027 16.1333 17.0027V16.9297V16.9297C16.2067 16.9297 16.3533 16.9297 16.3533 16.7838V15.2514C16.3533 15.1054 16.28 15.1054 16.1333 15.1054H16.06V15.0324C16.2067 15.0324 16.3533 15.0324 16.5 15.0324C16.6467 15.0324 16.7933 15.0324 16.94 15.0324V15.1054H16.8667C16.7933 15.1054 16.6467 15.1054 16.6467 15.2514V16.7838C16.6467 16.9297 16.72 16.9297 16.8667 16.9297H16.94L17.0133 17.0027ZM17.0133 17.0027C16.8667 16.9297 16.72 16.9297 16.72 16.7838V15.2514C16.72 15.1054 16.8667 15.1054 16.94 15.1054V15.0324C16.7933 15.0324 16.6467 15.0324 16.5 15.0324C16.3533 15.0324 16.2067 15.0324 16.06 15.0324V15.1054C16.1333 15.1054 16.28 15.1054 16.28 15.2514V16.7838C16.28 16.9297 16.1333 16.9297 16.06 16.9297V17.0027C16.2067 17.0027 16.3533 17.0027 16.5 17.0027C16.6467 17.0027 16.8667 17.0027 17.0133 17.0027Z" fill="#221F20"/>
<path d="M19.0667 16.4189V15.3243C19.0667 15.1054 18.92 15.0324 18.7733 15.0324H18.7V14.9595C18.8467 14.9595 18.9933 14.9595 19.14 14.9595C19.2867 14.9595 19.36 14.9595 19.5067 14.9595V15.0324H19.4333C19.2867 15.0324 19.14 15.0324 19.14 15.3973V16.7838C19.14 16.8568 19.14 17.0027 19.14 17.0757H19.0667L17.5267 15.3243V16.5649C17.5267 16.8568 17.6 16.9297 17.82 16.9297H17.8933V17.0027C17.7467 17.0027 17.6733 17.0027 17.5267 17.0027C17.38 17.0027 17.2333 17.0027 17.0867 17.0027V16.9297H17.16C17.38 16.9297 17.4533 16.7838 17.4533 16.5649V15.3243C17.4533 15.1784 17.3067 15.0324 17.16 15.0324H17.0867V14.9595C17.2333 14.9595 17.3067 14.9595 17.4533 14.9595C17.5267 14.9595 17.6 14.9595 17.7467 14.9595L19.0667 16.4189Z" fill="#221F20"/>
<path d="M19.2133 17.0757H19.0667L17.6 15.3973V16.5649C17.6 16.8568 17.6733 16.9297 17.8933 16.9297H17.9667V17.0027C17.82 17.0027 17.6733 17.0027 17.6 17.0027C17.4533 17.0027 17.3067 17.0027 17.16 17.0027V16.9297H17.2333C17.4533 16.9297 17.4533 16.7838 17.4533 16.5649V15.3243C17.4533 15.1784 17.3067 15.1054 17.16 15.1054H17.0867V15.0324C17.2333 15.0324 17.3067 15.0324 17.4533 15.0324C17.5267 15.0324 17.6 15.0324 17.7467 15.0324L19.0667 16.4919V15.3243C19.0667 15.1054 18.92 15.0324 18.8467 15.0324H18.7733V14.9595C18.92 14.9595 19.0667 14.9595 19.2133 14.9595C19.36 14.9595 19.4333 14.9595 19.58 14.9595V15.0324H19.5067C19.36 15.0324 19.2867 15.0324 19.2867 15.3973V16.7838C19.2133 16.8568 19.2133 16.9297 19.2133 17.0757ZM19.0667 17.0027H19.14C19.14 16.9297 19.14 16.7838 19.14 16.7108V15.3973C19.14 15.0324 19.2867 15.0324 19.4333 15.0324V14.9595C19.2867 14.9595 19.2133 14.9595 19.0667 14.9595C18.92 14.9595 18.7733 14.9595 18.7 14.9595V15.0324H18.7733C18.8467 15.0324 19.0667 15.1054 19.0667 15.3243V16.4189L17.7467 14.9595C17.6733 14.9595 17.6 14.9595 17.4533 14.9595C17.38 14.9595 17.2333 14.9595 17.16 14.9595V15.0324C17.3067 15.0324 17.4533 15.1054 17.4533 15.3243V16.5649C17.4533 16.7838 17.38 16.9297 17.16 16.9297V17.0027C17.3067 17.0027 17.4533 17.0027 17.5267 17.0027C17.6733 17.0027 17.7467 17.0027 17.8933 17.0027V16.9297H17.82C17.6 16.9297 17.5267 16.8568 17.5267 16.5649V15.3243L19.0667 17.0027Z" fill="#221F20"/>
<path d="M19.9467 15.1054C19.7267 15.1054 19.7267 15.1784 19.6533 15.3973H19.58C19.58 15.3243 19.58 15.2514 19.58 15.1784C19.58 15.1054 19.58 15.0324 19.58 14.9595H19.6533C19.6533 15.0324 19.7267 15.0324 19.8 15.0324H21.34C21.4133 15.0324 21.4867 15.0324 21.4867 14.9595H21.56C21.56 15.0324 21.56 15.1054 21.56 15.1784C21.56 15.2514 21.56 15.3243 21.56 15.3973H21.4867C21.4867 15.3243 21.4867 15.1054 21.2667 15.1054H20.7533V16.7108C20.7533 16.9297 20.8267 16.9297 20.9733 16.9297H21.0467V17.0027C20.9 17.0027 20.7533 17.0027 20.5333 17.0027C20.3867 17.0027 20.1667 17.0027 20.02 17.0027V16.9297H20.0933C20.24 16.9297 20.3133 16.9297 20.3133 16.7108V15.1054H19.9467Z" fill="#221F20"/>
<path d="M21.12 17.0027C20.9733 17.0027 20.8267 17.0027 20.6067 17.0027C20.46 17.0027 20.24 17.0027 20.0933 17.0027V16.9297H20.1667C20.3133 16.9297 20.3867 16.9297 20.3867 16.7108V15.1784H19.9467H20.46V16.7838C20.46 17.0027 20.3867 17.0757 20.1667 17.0757H20.0933V17.1487C20.24 17.1487 20.3867 17.1487 20.6067 17.1487C20.7533 17.0027 20.9733 17.0027 21.12 17.0027V16.9297H21.0467C20.9 16.9297 20.7533 16.9297 20.7533 16.6379V15.0325H21.2667C21.4867 15.0325 21.4867 15.1784 21.4867 15.3243H21.56C21.56 15.2514 21.56 15.1784 21.56 15.1054C21.56 15.0325 21.56 14.9595 21.56 14.8865H21.4867C21.4867 14.9595 21.4133 14.9595 21.34 14.9595H19.8C19.7267 14.9595 19.6533 14.9595 19.6533 14.8865H19.58C19.58 14.9595 19.58 15.0325 19.58 15.1054C19.58 15.1784 19.58 15.2514 19.58 15.3243H19.6533C19.7267 15.1054 19.7267 15.0325 19.9467 15.0325C19.7267 15.0325 19.7267 15.1054 19.6533 15.3243H19.58C19.58 15.2514 19.58 15.1784 19.58 15.1054C19.58 15.0325 19.58 14.9595 19.58 14.8865H19.6533C19.6533 14.9595 19.7267 14.9595 19.8 14.9595H21.34C21.4133 14.9595 21.4867 14.9595 21.4867 14.8865H21.56C21.56 14.9595 21.56 15.0325 21.56 15.1054C21.56 15.1784 21.56 15.2514 21.56 15.3243L21.4867 15.3973C21.4867 15.2514 21.4867 15.1054 21.2667 15.1054H20.8267V16.6379C20.8267 16.8568 20.9 16.8568 21.0467 16.8568H21.12V17.0027Z" fill="#221F20"/>
<path d="M21.7067 16.9297C21.8533 16.9297 22 16.9297 22 16.7838V15.2514C22 15.1054 21.8533 15.1054 21.78 15.1054H21.7067V15.0324C21.8533 15.0324 22.22 15.0324 22.44 15.0324C22.66 15.0324 23.0267 15.0324 23.1733 15.0324C23.1733 15.1784 23.1733 15.3243 23.1733 15.4703H23.1C23.1 15.2514 23.0267 15.1054 22.7333 15.1054H22.2933V15.9081H22.7333C22.88 15.9081 22.9533 15.8351 22.9533 15.6162H23.0267C23.0267 15.7622 23.0267 15.8351 23.0267 15.9811C23.0267 16.127 23.0267 16.2 23.0267 16.346H22.9533C22.9533 16.2 22.9533 16.0541 22.7333 16.0541H22.3667V16.7108C22.3667 16.9297 22.5133 16.9297 22.7333 16.9297C23.1 16.9297 23.2467 16.9297 23.32 16.5649H23.3933C23.32 16.7108 23.32 16.8568 23.32 17.0027C23.1 17.0027 22.8067 17.0027 22.5133 17.0027C22.22 17.0027 21.9267 17.0027 21.7067 17.0027V16.9297V16.9297Z" fill="#221F20"/>
<path d="M23.32 17.0027C23.1 17.0027 22.8067 17.0027 22.5133 17.0027C22.22 17.0027 21.9267 17.0027 21.7067 17.0027V16.9297H21.78C21.8533 16.9297 22 16.9297 22 16.7838V15.2514C22 15.1054 21.9267 15.1054 21.78 15.1054H21.7067V15.0324C21.8533 15.0324 22.22 15.0324 22.44 15.0324C22.66 15.0324 23.0267 15.0324 23.1733 15.0324C23.1733 15.1054 23.1733 15.1054 23.1733 15.1784C23.1733 15.2514 23.1733 15.3973 23.1733 15.4703H23.1C23.1 15.2514 23.0267 15.1054 22.7333 15.1054H22.3667V15.8351H22.7333C22.88 15.8351 22.9533 15.7622 22.9533 15.6162H23.0267C23.0267 15.7622 23.0267 15.8351 23.0267 15.9811C23.0267 16.127 23.0267 16.2 23.0267 16.346H22.9533C22.9533 16.2 22.9533 16.0541 22.7333 16.0541H22.3667V16.7108C22.3667 16.8568 22.5133 16.8568 22.7333 16.8568C23.1 16.8568 23.2467 16.8568 23.32 16.4919H23.3933C23.3933 16.7108 23.3933 16.8568 23.32 17.0027ZM23.32 17.0027C23.32 16.8568 23.3933 16.7108 23.3933 16.5649H23.32C23.2467 16.9297 23.0267 16.9297 22.7333 16.9297C22.5133 16.9297 22.3667 16.9297 22.3667 16.7108V15.9811H22.7333C22.9533 15.9811 22.9533 16.127 22.9533 16.273H23.0267C23.0267 16.2 23.0267 16.0541 23.0267 15.9811C23.0267 15.8351 23.0267 15.7622 23.0267 15.6162H22.9533C22.9533 15.7622 22.88 15.9081 22.7333 15.9081H22.3667V15.1054H22.8067C23.1 15.1054 23.1733 15.2514 23.1733 15.4703H23.2467C23.2467 15.3973 23.2467 15.2514 23.2467 15.1784C23.2467 15.1054 23.2467 15.1054 23.2467 15.0324C23.0267 15.0324 22.7333 15.0324 22.5133 15.0324C22.2933 15.0324 22 15.0324 21.78 15.0324V15.1054C21.8533 15.1054 22 15.1054 22 15.2514V16.7838C22 16.9297 21.8533 16.9297 21.78 16.9297V17.0027C21.9267 17.0027 22.2933 17.0027 22.5867 17.0027C22.8067 17.0027 23.1 17.0027 23.32 17.0027Z" fill="#221F20"/>
<path d="M23.8333 15.2514C23.8333 15.0324 23.6867 15.0324 23.6133 15.0324H23.54V14.9595C23.6133 14.9595 23.8333 14.9595 23.98 14.9595C24.1267 14.9595 24.2733 14.9595 24.4933 14.9595C24.86 14.9595 25.2267 15.0324 25.2267 15.4703C25.2267 15.7622 25.08 15.9081 24.7867 15.9811L25.3 16.7108C25.3733 16.8568 25.4467 16.8568 25.5933 16.8568V16.9297C25.52 16.9297 25.3733 16.9297 25.3 16.9297C25.2267 16.9297 25.08 16.9297 25.0067 16.9297C24.7867 16.6379 24.5667 16.346 24.42 15.9811H24.2V16.6379C24.2 16.8568 24.2733 16.8568 24.42 16.8568H24.4933V16.9297C24.3467 16.9297 24.1267 16.9297 23.98 16.9297C23.8333 16.9297 23.6867 16.9297 23.54 16.9297V16.8568H23.6133C23.76 16.8568 23.8333 16.7838 23.8333 16.7108V15.2514ZM24.2 15.9081H24.3467C24.64 15.9081 24.7867 15.7622 24.7867 15.4703C24.7867 15.1784 24.64 15.0324 24.3467 15.0324C24.2733 15.0324 24.2 15.0324 24.2 15.0324V15.9081Z" fill="#221F20"/>
<path d="M25.5933 17.0027C25.52 17.0027 25.3733 17.0027 25.3 17.0027C25.2267 17.0027 25.08 17.0027 25.0067 17.0027C24.7867 16.7108 24.5667 16.4189 24.42 16.0541H24.2V16.6379C24.2 16.8568 24.2733 16.8568 24.42 16.8568H24.4933V16.9297C24.3467 16.9297 24.1267 16.9297 23.98 16.9297C23.8333 16.9297 23.6867 16.9297 23.54 16.9297V16.8568H23.6133C23.6867 16.8568 23.8333 16.7838 23.8333 16.7108V15.1784C23.8333 14.9595 23.76 14.9595 23.6133 14.9595H23.54V14.8865C23.6133 14.8865 23.8333 14.8865 23.98 14.8865C24.1267 14.8865 24.2733 14.8865 24.4933 14.8865C24.86 14.8865 25.2267 14.9595 25.2267 15.3973C25.2267 15.6892 25.08 15.8352 24.7867 15.9081L25.3 16.6379C25.3733 16.7838 25.4467 16.7838 25.5933 16.7838V17.0027ZM24.2 16.0541H24.42C24.64 16.4189 24.7867 16.7108 25.0067 17.0027C25.08 17.0027 25.2267 17.0027 25.3 17.0027C25.3733 17.0027 25.52 17.0027 25.5933 17.0027V16.9297C25.4467 16.9297 25.3733 16.8568 25.3 16.7838L24.7867 15.9811C25.0067 15.9081 25.2267 15.7622 25.2267 15.4703C25.2267 15.0325 24.9333 14.9595 24.5667 14.9595C24.42 14.9595 24.2733 14.9595 24.0533 14.9595C23.9067 14.9595 23.6867 14.9595 23.6133 14.9595V15.0325H23.6867C23.76 15.0325 23.9067 15.0325 23.9067 15.2514V16.7838C23.9067 16.9297 23.76 16.9297 23.6867 16.9297H23.6133V17.0027C23.76 17.0027 23.9067 17.0027 24.0533 17.0027C24.2 17.0027 24.42 17.0027 24.5667 17.0027V16.9297H24.4933C24.3467 16.9297 24.2733 16.9297 24.2733 16.7108L24.2 16.0541ZM24.2 15.9811V15.1054C24.2733 15.1054 24.2733 15.1054 24.3467 15.1054C24.64 15.1054 24.7867 15.2514 24.7867 15.5433C24.7867 15.9081 24.64 15.9811 24.3467 15.9811H24.2ZM24.3467 15.9081C24.64 15.9081 24.7867 15.8352 24.7867 15.4703C24.7867 15.1784 24.64 15.0325 24.3467 15.0325C24.2733 15.0325 24.2 15.0325 24.2 15.0325V15.9081H24.3467V15.9081Z" fill="#221F20"/>
<path d="M27.6467 16.4189V15.3243C27.6467 15.1054 27.5 15.0324 27.3533 15.0324H27.28V14.9595C27.4267 14.9595 27.5733 14.9595 27.72 14.9595C27.8667 14.9595 27.94 14.9595 28.0867 14.9595V15.0324H28.0133C27.8667 15.0324 27.72 15.0324 27.72 15.3973V16.7838C27.72 16.8568 27.72 17.0027 27.72 17.0757H27.5733L26.18 15.3243V16.5649C26.18 16.8568 26.2533 16.9297 26.4733 16.9297H26.5467V17.0027C26.4 17.0027 26.3267 17.0027 26.18 17.0027C26.0333 17.0027 25.8867 17.0027 25.74 17.0027V16.9297H25.8133C26.0333 16.9297 26.1067 16.7838 26.1067 16.5649V15.3243C26.1067 15.1784 25.96 15.0324 25.8133 15.0324H25.6667V14.9595C25.8133 14.9595 25.8867 14.9595 26.0333 14.9595C26.1067 14.9595 26.18 14.9595 26.3267 14.9595L27.6467 16.4189Z" fill="#221F20"/>
<path d="M27.7933 17.0757H27.6467L26.1067 15.3973V16.5649C26.1067 16.8568 26.18 16.9297 26.4 16.9297H26.4733V17.0027C26.3267 17.0027 26.2533 17.0027 26.1067 17.0027C25.96 17.0027 25.8133 17.0027 25.6667 17.0027V16.9297H25.74C25.96 16.9297 25.96 16.7838 25.96 16.5649V15.3243C25.96 15.1784 25.8133 15.1054 25.6667 15.1054V15.1054V15.0324C25.8133 15.0324 25.8867 15.0324 26.0333 15.0324C26.1067 15.0324 26.18 15.0324 26.3267 15.0324L27.6467 16.4919V15.3243C27.6467 15.1054 27.5 15.0324 27.4267 15.0324H27.3533V14.9595C27.5 14.9595 27.6467 14.9595 27.7933 14.9595C27.94 14.9595 28.0133 14.9595 28.16 14.9595V15.0324H28.0867C27.94 15.0324 27.8667 15.0324 27.8667 15.3973V16.7838C27.7933 16.8568 27.7933 16.9297 27.7933 17.0757ZM27.6467 17.0027H27.72C27.72 16.9297 27.72 16.7838 27.72 16.7108V15.3973C27.72 15.0324 27.8667 15.0324 28.0133 15.0324V14.9595C27.8667 14.9595 27.7933 14.9595 27.6467 14.9595C27.5 14.9595 27.3533 14.9595 27.2067 14.9595V15.0324H27.28C27.3533 15.0324 27.5733 15.1054 27.5733 15.3243V16.4189L26.2533 14.9595C26.18 14.9595 26.1067 14.9595 25.96 14.9595C25.8133 14.9595 25.74 14.9595 25.6667 14.9595V15.0324C25.8133 15.0324 25.96 15.1054 25.96 15.3243V16.5649C25.96 16.7838 25.8867 16.9297 25.6667 16.9297V17.0027C25.8133 17.0027 25.96 17.0027 26.0333 17.0027C26.18 17.0027 26.2533 17.0027 26.4 17.0027V16.9297V16.9297C26.18 16.9297 26.1067 16.8568 26.1067 16.5649V15.3243L27.6467 17.0027Z" fill="#221F20"/>
<path d="M28.6 16.5649C28.6 16.6379 28.5267 16.7108 28.5267 16.7838C28.5267 16.8568 28.6733 16.8568 28.7467 16.8568V16.9298C28.6 16.9298 28.5267 16.9298 28.38 16.9298C28.3067 16.9298 28.16 16.9298 28.0867 16.9298V16.8568C28.2333 16.8568 28.3067 16.7838 28.38 16.6379L28.82 15.2514C28.8933 15.1054 28.8933 14.9595 28.9667 14.8865C29.04 14.8865 29.1867 14.8135 29.26 14.7406V14.8135L29.7733 16.346C29.7733 16.4189 29.8467 16.5649 29.8467 16.6379C29.8467 16.7108 29.92 16.7838 30.0667 16.7838V16.8568C29.92 16.8568 29.7733 16.8568 29.6267 16.8568C29.48 16.8568 29.3333 16.8568 29.1867 16.8568V16.7838C29.26 16.7838 29.4067 16.7838 29.4067 16.7108C29.4067 16.6379 29.4067 16.5649 29.3333 16.4919V16.273H28.6733L28.6 16.5649ZM28.9667 15.2514L28.6733 16.0541H29.26L28.9667 15.2514Z" fill="#221F20"/>
<path d="M30.14 17.0027C29.9933 17.0027 29.8467 17.0027 29.7 17.0027C29.5533 17.0027 29.4067 17.0027 29.26 17.0027V16.9298C29.3333 16.9298 29.4067 16.9298 29.4067 16.8568C29.4067 16.8568 29.4067 16.7108 29.3333 16.6379V16.273H28.6733L28.6 16.5649C28.6 16.6379 28.5267 16.7108 28.5267 16.7838C28.5267 16.8568 28.6733 16.8568 28.7467 16.8568H28.82V16.9298C28.6733 16.9298 28.6 16.9298 28.4533 16.9298C28.38 16.9298 28.2333 16.9298 28.16 16.9298V16.8568C28.3067 16.8568 28.38 16.7838 28.38 16.6379L28.82 15.2514C28.8933 15.1054 28.8933 14.9595 28.9667 14.8865C29.04 14.8865 29.1867 14.8135 29.26 14.7406V14.8135L29.7733 16.346C29.7733 16.4189 29.8467 16.5649 29.8467 16.6379C29.8467 16.7108 29.92 16.7838 30.0667 16.7838L30.14 17.0027ZM29.3333 17.0027C29.48 17.0027 29.6267 17.0027 29.7733 17.0027C29.92 17.0027 30.0667 17.0027 30.14 17.0027V16.9298C30.0667 16.9298 29.9933 16.8568 29.92 16.7838C29.8467 16.7108 29.8467 16.5649 29.8467 16.4919L29.3333 14.9595V14.8865C29.26 14.9595 29.1867 14.9595 29.04 15.0325C29.04 15.1784 28.9667 15.3244 28.8933 15.3973L28.4533 16.7838C28.38 16.9298 28.3067 17.0027 28.16 17.0027V17.0757C28.2333 17.0757 28.38 17.0757 28.4533 17.0757C28.6 17.0757 28.6733 17.0757 28.82 17.0757V17.0027C28.7467 17.0027 28.6 17.0027 28.6 16.8568C28.6 16.7838 28.6733 16.7108 28.6733 16.6379L28.7467 16.346H29.3333L29.48 16.7108C29.48 16.7838 29.5533 16.8568 29.5533 16.9298C29.5533 16.9298 29.4067 16.9298 29.3333 17.0027ZM28.6733 16.1271L28.9667 15.2514L29.26 16.1271H28.6733ZM28.7467 16.1271H29.26L28.9667 15.3244L28.7467 16.1271Z" fill="#221F20"/>
<path d="M30.2867 15.1054C30.0667 15.1054 30.0667 15.1784 29.9933 15.3973H29.92C29.92 15.3243 29.92 15.2514 29.92 15.1784C29.92 15.1054 29.92 15.0324 29.92 14.9595H30.0667C30.0667 15.0324 30.14 15.0324 30.2133 15.0324H31.7533C31.8267 15.0324 31.9 15.0324 31.9 14.9595H31.9733C31.9733 15.0324 31.9733 15.1054 31.9733 15.1784C31.9733 15.2514 31.9733 15.3243 31.9733 15.3973H31.9C31.9 15.3243 31.9 15.1054 31.68 15.1054H31.1667V16.7108C31.1667 16.9297 31.24 16.9297 31.3867 16.9297H31.46V17.0027C31.3133 17.0027 31.1667 17.0027 30.9467 17.0027C30.8 17.0027 30.58 17.0027 30.4333 17.0027V16.9297H30.5067C30.6533 16.9297 30.7267 16.9297 30.7267 16.7108V15.1054H30.2867Z" fill="#221F20"/>
<path d="M31.46 17.0027C31.3133 17.0027 31.1667 17.0027 30.9467 17.0027C30.8 17.0027 30.58 17.0027 30.4333 17.0027V16.9297H30.5067C30.6533 16.9297 30.7267 16.9297 30.7267 16.7108V15.1784H30.2867H30.8V16.7838C30.8 17.0027 30.7267 17.0757 30.5067 17.0757H30.4333V17.1487C30.58 17.1487 30.7267 17.1487 30.9467 17.1487C31.0933 17.0027 31.3133 17.0027 31.46 17.0027V16.9297H31.3867C31.24 16.9297 31.0933 16.9297 31.0933 16.6379V15.0325H31.6067C31.8267 15.0325 31.8267 15.1784 31.8267 15.3243H31.9C31.9 15.2514 31.9 15.1784 31.9 15.1054C31.9 15.0325 31.9 14.9595 31.9 14.8865H31.8267C31.8267 14.9595 31.7533 14.9595 31.68 14.9595H30.14C30.0667 14.9595 29.9933 14.9595 29.9933 14.8865H29.92C29.92 14.9595 29.92 15.0325 29.92 15.1054C29.92 15.1784 29.92 15.2514 29.92 15.3243H29.9933C30.0667 15.1054 30.0667 15.0325 30.2867 15.0325C30.0667 15.0325 30.0667 15.1054 29.9933 15.3243H29.92C29.92 15.2514 29.92 15.1784 29.92 15.1054C29.92 15.0325 29.92 14.9595 29.92 14.8865H30.0667C30.0667 14.9595 30.14 14.9595 30.2133 14.9595H31.7533C31.8267 14.9595 31.9 14.9595 31.9 14.8865H31.9733C31.9733 14.9595 31.9733 15.0325 31.9733 15.1054C31.9733 15.1784 31.9733 15.2514 31.9733 15.3243L31.9 15.3973C31.9 15.2514 31.9 15.1054 31.68 15.1054H31.24V16.6379C31.24 16.8568 31.3133 16.8568 31.46 16.8568H31.5333L31.46 17.0027Z" fill="#221F20"/>
<path d="M32.12 16.9297C32.2667 16.9297 32.4133 16.9297 32.4133 16.7838V15.2514C32.4133 15.1054 32.2667 15.1054 32.1933 15.1054H32.12V15.0324C32.2667 15.0324 32.4133 15.0324 32.56 15.0324C32.7067 15.0324 32.8533 15.0324 33 15.0324V15.1054H32.9267C32.8533 15.1054 32.7067 15.1054 32.7067 15.2514V16.7838C32.7067 16.9297 32.8533 16.9297 32.9267 16.9297H33V17.0027C32.8533 17.0027 32.7067 17.0027 32.56 17.0027C32.4133 17.0027 32.2667 17.0027 32.12 17.0027V16.9297Z" fill="#221F20"/>
<path d="M33 17.0027C32.8533 17.0027 32.7067 17.0027 32.56 17.0027C32.4133 17.0027 32.2667 17.0027 32.12 17.0027V16.9297H32.1933C32.2667 16.9297 32.4133 16.9297 32.4133 16.7838V15.2514C32.4133 15.1054 32.34 15.1054 32.1933 15.1054H32.12V15.0324C32.2667 15.0324 32.4133 15.0324 32.56 15.0324C32.7067 15.0324 32.8533 15.0324 33 15.0324V15.1054H32.9267C32.8533 15.1054 32.7067 15.1054 32.7067 15.2514V16.7838C32.7067 16.9297 32.78 16.9297 32.9267 16.9297H33V17.0027ZM33 17.0027C32.8533 16.9297 32.7067 16.9297 32.7067 16.7838V15.2514C32.7067 15.1054 32.8533 15.1054 32.9267 15.1054V15.0324C32.78 15.0324 32.6333 15.0324 32.4867 15.0324C32.34 15.0324 32.1933 15.0324 32.0467 15.0324V15.1054C32.12 15.1054 32.2667 15.1054 32.2667 15.2514V16.7838C32.2667 16.9297 32.12 16.9297 32.0467 16.9297V17.0027C32.1933 17.0027 32.34 17.0027 32.4867 17.0027C32.7067 17.0027 32.8533 17.0027 33 17.0027Z" fill="#221F20"/>
<path d="M34.1733 14.8865C34.8333 14.8865 35.3467 15.2514 35.3467 15.9081C35.3467 16.5649 34.8333 17.0757 34.2467 17.0757C33.5867 17.0757 33.1467 16.6379 33.1467 15.9811C33.0733 15.3973 33.5867 14.8865 34.1733 14.8865ZM34.2467 16.9297C34.8333 16.9297 34.9067 16.4189 34.9067 15.9811C34.9067 15.5433 34.6867 15.0325 34.1733 15.0325C33.66 15.0325 33.5133 15.4703 33.5133 15.9081C33.5133 16.4189 33.7333 16.9297 34.2467 16.9297Z" fill="#221F20"/>
<path d="M33.0733 15.9811C33.0733 15.3243 33.5867 14.8865 34.1733 14.8865C33.5867 14.8865 33.0733 15.3973 33.0733 15.9811C33.0733 16.6379 33.5867 17.0027 34.1733 17.0027C34.8333 17.0027 35.2733 16.5649 35.2733 15.9081C35.2733 15.2514 34.76 14.8865 34.1733 14.8865C34.8333 14.8865 35.3467 15.2514 35.3467 15.9081C35.3467 16.5649 34.8333 17.0757 34.2467 17.0757C33.5867 17.0757 33.0733 16.6379 33.0733 15.9811ZM33.5133 15.9081C33.5133 15.5433 33.66 15.0325 34.1733 15.0325C34.6867 15.0325 34.9067 15.5433 34.9067 15.9811C34.9067 16.4189 34.8333 16.9297 34.2467 16.9297C34.8333 16.9297 34.9067 16.4189 34.9067 15.9811C34.9067 15.5433 34.6867 15.0325 34.1733 15.0325C33.66 15.0325 33.5133 15.4703 33.5133 15.9081C33.5133 16.4189 33.8067 16.9297 34.2467 16.9297C33.7333 16.9297 33.5133 16.4189 33.5133 15.9081Z" fill="#221F20"/>
<path d="M37.3267 16.4189V15.3243C37.3267 15.1054 37.18 15.0324 37.0333 15.0324H36.96V14.9595C37.1067 14.9595 37.2533 14.9595 37.4 14.9595C37.5467 14.9595 37.62 14.9595 37.7667 14.9595V15.0324H37.6933C37.5467 15.0324 37.4 15.0324 37.4 15.3973V16.7838C37.4 16.8568 37.4 17.0027 37.4 17.0757L35.86 15.3243V16.5649C35.86 16.8568 35.9333 16.9297 36.1533 16.9297H36.2267V17.0027C36.08 17.0027 36.0067 17.0027 35.86 17.0027C35.7133 17.0027 35.5667 17.0027 35.42 17.0027V16.9297H35.4933C35.7133 16.9297 35.7867 16.7838 35.7867 16.5649V15.3243C35.7867 15.1784 35.64 15.0324 35.4933 15.0324H35.42V14.9595C35.5667 14.9595 35.64 14.9595 35.7867 14.9595C35.86 14.9595 35.9333 14.9595 36.08 14.9595L37.3267 16.4189Z" fill="#221F20"/>
<path d="M37.4733 17.0757H37.3267L35.7867 15.3973V16.5649C35.7867 16.8568 35.86 16.9297 36.08 16.9297H36.1533V17.0027C36.0067 17.0027 35.9333 17.0027 35.7867 17.0027C35.64 17.0027 35.4933 17.0027 35.3467 17.0027V16.9297H35.42C35.64 16.9297 35.64 16.7838 35.64 16.5649V15.3243C35.64 15.1784 35.4933 15.1054 35.3467 15.1054H35.2733V15.0324C35.42 15.0324 35.4933 15.0324 35.64 15.0324C35.7133 15.0324 35.7867 15.0324 35.9333 15.0324L37.2533 16.4919V15.3243C37.2533 15.1054 37.1067 15.0324 37.0333 15.0324H36.96V14.9595C37.1067 14.9595 37.2533 14.9595 37.4 14.9595C37.5467 14.9595 37.62 14.9595 37.7667 14.9595V15.0324H37.6933C37.5467 15.0324 37.4733 15.0324 37.4733 15.3973V16.7838C37.4733 16.8568 37.4733 16.9297 37.4733 17.0757ZM37.4 17.0027H37.4733C37.4733 16.9297 37.4733 16.7838 37.4733 16.7108V15.3973C37.4733 15.0324 37.62 15.0324 37.7667 15.0324V14.9595C37.62 14.9595 37.5467 14.9595 37.4 14.9595C37.2533 14.9595 37.1067 14.9595 37.0333 14.9595V15.0324H37.1067C37.18 15.0324 37.4 15.1054 37.4 15.3243V16.4189L36.08 14.9595C36.0067 14.9595 35.9333 14.9595 35.7867 14.9595C35.7133 14.9595 35.5667 14.9595 35.4933 14.9595V15.0324C35.64 15.0324 35.7867 15.1054 35.7867 15.3243V16.5649C35.7867 16.7838 35.7133 16.9297 35.4933 16.9297V17.0027C35.64 17.0027 35.7867 17.0027 35.86 17.0027C36.0067 17.0027 36.08 17.0027 36.2267 17.0027V16.9297H36.1533C35.9333 16.9297 35.86 16.8568 35.86 16.5649V15.3243L37.4 17.0027Z" fill="#221F20"/>
<path d="M38.28 16.5649C38.28 16.6379 38.2067 16.7108 38.2067 16.7838C38.2067 16.8568 38.3533 16.8568 38.4267 16.8568V16.9298C38.28 16.9298 38.2067 16.9298 38.06 16.9298C37.9867 16.9298 37.84 16.9298 37.7667 16.9298V16.8568C37.9133 16.8568 37.9867 16.7838 38.06 16.6379L38.5 15.2514C38.5733 15.1054 38.5733 14.9595 38.5733 14.8865C38.6467 14.8865 38.7933 14.8135 38.8667 14.7406V14.8135L39.38 16.346C39.38 16.4189 39.4533 16.5649 39.5267 16.6379C39.5267 16.7108 39.6 16.7838 39.7467 16.7838V16.8568C39.6 16.8568 39.4533 16.8568 39.3067 16.8568C39.16 16.8568 39.0133 16.8568 38.8667 16.8568V16.7838C38.94 16.7838 39.0867 16.7838 39.0867 16.7108C39.0867 16.6379 39.0867 16.5649 39.0133 16.4919L38.8667 16.1271H38.2067L38.28 16.5649ZM38.72 15.2514L38.4267 16.0541H39.0133L38.72 15.2514Z" fill="#221F20"/>
<path d="M39.82 17.0027C39.6733 17.0027 39.5267 17.0027 39.38 17.0027C39.2333 17.0027 39.0867 17.0027 38.94 17.0027V16.9298C39.0133 16.9298 39.0867 16.9298 39.0867 16.8568C39.0867 16.8568 39.0867 16.7108 39.0133 16.6379L38.8667 16.273H38.2067L38.1333 16.5649C38.1333 16.6379 38.06 16.7108 38.06 16.7838C38.06 16.8568 38.2067 16.8568 38.28 16.8568H38.3533V16.9298C38.2067 16.9298 38.1333 16.9298 37.9867 16.9298C37.9133 16.9298 37.7667 16.9298 37.6933 16.9298V16.8568C37.84 16.8568 37.9133 16.7838 37.9133 16.6379L38.3533 15.2514C38.4267 15.1054 38.4267 14.9595 38.5 14.8865C38.5733 14.8865 38.72 14.8135 38.7933 14.7406V14.8135L39.3067 16.346C39.3067 16.4189 39.38 16.5649 39.38 16.6379C39.38 16.7108 39.4533 16.7108 39.6 16.7838L39.82 17.0027ZM39.0133 17.0027C39.16 17.0027 39.3067 17.0027 39.4533 17.0027C39.6 17.0027 39.7467 17.0027 39.82 17.0027V16.9298C39.7467 16.9298 39.6733 16.8568 39.6 16.7838C39.5267 16.7108 39.5267 16.5649 39.4533 16.4919L38.94 14.9595V14.8865C38.8667 14.8865 38.7933 14.9595 38.6467 15.0325C38.6467 15.1784 38.5733 15.3244 38.5 15.3973L38.06 16.7838C37.9867 16.9298 37.9133 17.0027 37.7667 17.0027V17.0757C37.84 17.0757 37.9867 17.0757 38.06 17.0757C38.2067 17.0757 38.28 17.0757 38.4267 17.0757V17.0027C38.3533 17.0027 38.2067 17.0027 38.2067 16.8568C38.2067 16.7838 38.28 16.7108 38.28 16.6379L38.3533 16.346H39.0133L39.16 16.7108C39.16 16.7838 39.2333 16.8568 39.2333 16.9298C39.2333 16.9298 39.0867 16.9298 39.0133 17.0027ZM38.4267 16.1271L38.72 15.2514L39.0133 16.1271H38.4267ZM38.4267 16.1271H38.94L38.72 15.3244L38.4267 16.1271Z" fill="#221F20"/>
<path d="M40.6267 16.7108C40.6267 16.8568 40.7 16.8568 40.7733 16.8568C40.92 16.8568 40.9933 16.8568 41.14 16.8568C41.2867 16.8568 41.36 16.7838 41.4333 16.7108C41.5067 16.6379 41.5067 16.5649 41.5067 16.4919H41.58C41.58 16.6379 41.5067 16.8568 41.4333 17.0027C41.14 17.0027 40.92 17.0027 40.6267 17.0027C40.3333 17.0027 40.1133 17.0027 39.82 17.0027V16.9297H39.8933C39.9667 16.9297 40.1133 16.9297 40.1133 16.7108V15.1784C40.1133 15.0324 39.9667 15.0324 39.8933 15.0324H39.82V14.9595C39.9667 14.9595 40.1133 14.9595 40.26 14.9595C40.4067 14.9595 40.5533 14.9595 40.7 14.9595V15.0324H40.6267C40.48 15.0324 40.4067 15.0324 40.4067 15.1784V16.7108H40.6267Z" fill="#221F20"/>
<path d="M41.5067 17.0027C41.2133 17.0027 40.9933 17.0027 40.7 17.0027C40.4067 17.0027 40.1867 17.0027 39.8933 17.0027V16.9297H39.9667C40.04 16.9297 40.1867 16.9297 40.1867 16.7108V15.1784C40.1867 15.0324 40.1133 15.0324 39.9667 15.0324H39.8933V14.9595C40.04 14.9595 40.1867 14.9595 40.3333 14.9595C40.48 14.9595 40.6267 14.9595 40.7733 14.9595V15.0324H40.7C40.5533 15.0324 40.48 15.0324 40.48 15.1784V16.7108C40.48 16.8568 40.5533 16.8568 40.6267 16.8568C40.7 16.8568 40.7 16.8568 40.7733 16.8568C40.8467 16.8568 40.92 16.8568 40.9933 16.8568C41.14 16.8568 41.2133 16.7838 41.2867 16.7108C41.36 16.6379 41.36 16.5649 41.36 16.4919H41.4333C41.6533 16.7108 41.58 16.8568 41.5067 17.0027ZM41.5067 17.0027C41.5067 16.8568 41.58 16.7108 41.58 16.4919H41.5067C41.5067 16.5649 41.4333 16.6379 41.4333 16.7108C41.36 16.7838 41.2867 16.8568 41.14 16.8568C41.0667 16.8568 40.9933 16.8568 40.92 16.8568C40.8467 16.8568 40.7733 16.8568 40.7733 16.8568C40.7 16.8568 40.5533 16.7838 40.5533 16.7108V15.1784C40.5533 15.0324 40.6267 15.0324 40.7733 15.0324H40.8467V14.9595C40.7 14.9595 40.5533 14.9595 40.4067 14.9595C40.26 14.9595 40.1133 14.9595 39.9667 14.9595V15.0324C40.04 15.0324 40.1867 15.0324 40.1867 15.1784V16.7108C40.1867 16.9297 40.04 16.9297 39.9667 16.9297V17.0027C40.26 17.0027 40.48 17.0027 40.7733 17.0027C41.0667 17.0027 41.2867 17.0027 41.5067 17.0027Z" fill="#221F20"/>
<path d="M41.58 14.8865C41.7267 14.8865 41.8733 15.0325 41.8733 15.1784C41.8733 15.3243 41.7267 15.4703 41.58 15.4703C41.4333 15.4703 41.2867 15.3243 41.2867 15.1784C41.2867 14.9595 41.4333 14.8865 41.58 14.8865ZM41.58 15.3973C41.7267 15.3973 41.8 15.2514 41.8 15.1784C41.8 15.0325 41.7267 14.9595 41.58 14.9595C41.4333 14.9595 41.36 15.1054 41.36 15.1784C41.36 15.3243 41.4333 15.3973 41.58 15.3973ZM41.4333 15.3243C41.5067 15.3243 41.5067 15.3243 41.4333 15.3243L41.5067 15.0325C41.5067 15.0325 41.5067 14.9595 41.4333 14.9595H41.58C41.6533 14.9595 41.6533 14.9595 41.6533 15.0325C41.6533 15.1054 41.6533 15.1054 41.58 15.1054L41.6533 15.1784L41.7267 15.2514H41.6533C41.6533 15.2514 41.58 15.1784 41.5067 15.1054V15.3243C41.5067 15.3243 41.5067 15.3243 41.58 15.3243H41.4333ZM41.58 15.1784C41.6533 15.1784 41.6533 15.1784 41.6533 15.1054C41.6533 15.0325 41.6533 15.0325 41.58 15.0325V15.1784Z" fill="#221F20"/>
<path d="M9.46 18.6811C12.32 18.6811 14.8867 16.346 14.8867 13.573C14.8867 10.5081 12.32 8.39191 9.46 8.39191H7.04C4.18 8.39191 1.83333 10.5081 1.83333 13.573C1.83333 16.4189 4.18 18.6811 7.04 18.6811H9.46Z" fill="#077ABF"/>
<path d="M7.04 8.75677C4.4 8.75677 2.27333 10.873 2.27333 13.5C2.27333 16.127 4.4 18.2433 7.04 18.2433C9.68 18.2433 11.8067 16.127 11.8067 13.5C11.8067 10.873 9.68 8.75677 7.04 8.75677ZM4.03333 13.5C4.03333 12.1865 4.84 11.1649 5.94 10.727V16.346C4.84 15.8352 4.03333 14.8135 4.03333 13.5ZM8.14 16.273V10.6541C9.24 11.0919 10.0467 12.1865 10.0467 13.427C10.0467 14.8135 9.24 15.8352 8.14 16.273Z" fill="white"/>
<path d="M16.5733 10.5811C16.5733 10.0703 16.3533 10.1433 16.06 10.1433V9.99731C16.28 9.99731 16.5 9.99731 16.72 9.99731C16.94 9.99731 17.2333 9.99731 17.6733 9.99731C19.0667 9.99731 19.8733 10.946 19.8733 11.8946C19.8733 12.4054 19.58 13.7919 17.6 13.7919C17.3067 13.7919 17.0867 13.7919 16.7933 13.7919C16.5733 13.7919 16.28 13.7919 16.06 13.7919V13.646C16.3533 13.646 16.5733 13.573 16.5733 13.2081V10.5811ZM17.16 13.1352C17.16 13.573 17.4533 13.573 17.7467 13.573C18.92 13.573 19.2867 12.6973 19.2867 11.8946C19.2867 10.873 18.6267 10.1433 17.6 10.1433C17.38 10.1433 17.3067 10.1433 17.16 10.1433V13.1352Z" fill="#221F20"/>
<path d="M20.0933 13.646H20.1667C20.3133 13.646 20.46 13.646 20.46 13.5V12.0406C20.46 11.8216 20.3867 11.7487 20.1667 11.6757V11.6027C20.46 11.5298 20.7533 11.4568 20.7533 11.3838C20.8267 11.3838 20.8267 11.3838 20.8267 11.3838C20.8267 11.3838 20.9 11.3838 20.9 11.4568V13.573C20.9 13.7189 21.0467 13.7189 21.1933 13.7189H21.2667V13.8649C21.0467 13.8649 20.9 13.8649 20.68 13.8649C20.46 13.8649 20.3133 13.8649 20.0933 13.8649V13.646ZM20.6067 10.4352C20.46 10.4352 20.3133 10.2892 20.3133 10.1433C20.3133 9.99733 20.46 9.85138 20.6067 9.85138C20.7533 9.85138 20.9 9.99733 20.9 10.1433C20.9 10.2892 20.8267 10.4352 20.6067 10.4352Z" fill="#221F20"/>
<path d="M21.78 11.9676C21.78 11.7487 21.7067 11.7487 21.4867 11.6027V11.5297C21.7067 11.4568 21.9267 11.3838 22.22 11.2379C22.22 11.2379 22.22 11.2379 22.22 11.3108V11.6757C22.5133 11.4568 22.8067 11.2379 23.1733 11.2379C23.6133 11.2379 23.8333 11.6027 23.8333 11.9676V13.3541C23.8333 13.5 23.98 13.5 24.1267 13.5H24.2V13.646C23.98 13.646 23.8333 13.646 23.6133 13.646C23.3933 13.646 23.2467 13.646 23.0267 13.646V13.5H23.1C23.2467 13.5 23.3933 13.5 23.3933 13.3541V11.9676C23.3933 11.6757 23.1733 11.5297 22.88 11.5297C22.7333 11.5297 22.44 11.6757 22.22 11.8216V13.427C22.22 13.573 22.3667 13.573 22.5133 13.573H22.5867V13.7189C22.3667 13.7189 22.22 13.7189 22 13.7189C21.78 13.7189 21.6333 13.7189 21.4133 13.7189V13.573H21.4867C21.6333 13.573 21.78 13.573 21.78 13.427V11.9676Z" fill="#221F20"/>
<path d="M24.5667 12.2595C24.5667 12.3324 24.5667 12.4054 24.5667 12.5514C24.5667 13.0622 24.9333 13.5 25.3733 13.5C25.6667 13.5 25.8867 13.3541 26.1067 13.1352L26.18 13.2081C25.96 13.573 25.5933 13.7919 25.1533 13.7919C24.2733 13.7919 24.1267 12.9892 24.1267 12.6243C24.1267 11.5297 24.86 11.2379 25.2267 11.2379C25.6667 11.2379 26.18 11.5297 26.18 12.1135V12.1865H26.1067H24.5667V12.2595ZM25.52 12.1135C25.6667 12.1135 25.6667 12.0406 25.6667 11.9676C25.6667 11.6757 25.52 11.4568 25.2267 11.4568C24.86 11.4568 24.64 11.6757 24.5667 12.1135H25.52Z" fill="#221F20"/>
<path d="M26.2533 13.646H26.4C26.5467 13.646 26.6933 13.646 26.6933 13.5V11.9676C26.6933 11.8216 26.4733 11.7487 26.4 11.7487V11.6757C26.7667 11.5297 26.9867 11.3838 27.06 11.3838C27.06 11.3838 27.1333 11.3838 27.1333 11.4568V11.9676C27.28 11.7487 27.5 11.3838 27.8667 11.3838C28.0133 11.3838 28.16 11.4568 28.16 11.6757C28.16 11.8216 28.0867 11.9676 27.94 11.9676C27.7933 11.9676 27.7933 11.8216 27.5733 11.8216C27.5 11.8216 27.2067 11.9676 27.2067 12.2595V13.573C27.2067 13.7189 27.28 13.7189 27.5 13.7189H27.7933V13.8649C27.5 13.8649 27.28 13.8649 27.06 13.8649C26.84 13.8649 26.62 13.8649 26.4 13.8649L26.2533 13.646Z" fill="#221F20"/>
<path d="M28.38 12.9892C28.4533 13.3541 28.6733 13.646 29.04 13.646C29.3333 13.646 29.48 13.427 29.48 13.2811C29.48 12.6243 28.3067 12.8433 28.3067 11.9676C28.3067 11.6757 28.5267 11.2379 29.1867 11.2379C29.3333 11.2379 29.6267 11.3108 29.7733 11.3838L29.8467 11.9676H29.7C29.6267 11.6027 29.48 11.4568 29.1133 11.4568C28.8933 11.4568 28.6733 11.6027 28.6733 11.8216C28.6733 12.4784 29.92 12.2595 29.92 13.1352C29.92 13.5 29.6267 13.8649 28.9667 13.8649C28.7467 13.8649 28.5267 13.7919 28.3067 13.646L28.2333 12.9892H28.38Z" fill="#221F20"/>
<path d="M34.8333 10.946H34.6867C34.6133 10.2892 34.1 10.0703 33.5133 10.0703C32.8533 10.0703 31.9733 10.5081 31.9733 11.8216C31.9733 12.9162 32.78 13.7189 33.5867 13.7189C34.1 13.7189 34.54 13.3541 34.6867 12.7703H34.8333L34.6867 13.573C34.4667 13.7189 33.8067 13.8649 33.5133 13.8649C32.2667 13.8649 31.46 13.0622 31.46 11.8216C31.46 10.727 32.4867 9.92435 33.5133 9.92435C33.9533 9.92435 34.3933 10.0703 34.8333 10.2162V10.946Z" fill="#221F20"/>
<path d="M35.0533 13.646H35.2C35.3467 13.646 35.4933 13.646 35.4933 13.5V10.4351C35.4933 10.0703 35.42 10.0703 35.2 9.99731V9.92434C35.42 9.85137 35.64 9.77839 35.7867 9.70542C35.86 9.70542 35.86 9.63245 35.9333 9.63245C35.9333 9.63245 36.0067 9.63245 36.0067 9.70542V13.427C36.0067 13.573 36.1533 13.573 36.3 13.573H36.3733V13.7189C36.1533 13.7189 36.0067 13.7189 35.7867 13.7189C35.5667 13.7189 35.42 13.7189 35.2 13.7189L35.0533 13.646Z" fill="#221F20"/>
<path d="M38.5733 13.427C38.5733 13.5 38.6467 13.5 38.72 13.5C38.7933 13.5 38.8667 13.5 38.94 13.5V13.646C38.72 13.646 38.28 13.7919 38.1333 13.7919V13.3541C37.84 13.646 37.5467 13.7919 37.18 13.7919C36.8867 13.7919 36.5933 13.573 36.5933 13.1351V11.7487C36.5933 11.6027 36.5933 11.4568 36.3 11.4568V11.3838C36.52 11.3838 36.96 11.3108 37.0333 11.3108C37.1067 11.3108 37.1067 11.3838 37.1067 11.4568V12.8433C37.1067 12.9892 37.1067 13.5 37.5467 13.5C37.7667 13.5 37.9867 13.3541 38.2067 13.1351V11.6757C38.2067 11.6027 37.9133 11.5297 37.7667 11.4568V11.3838C38.28 11.3838 38.5733 11.3108 38.6467 11.3108C38.72 11.3108 38.72 11.3838 38.72 11.3838L38.5733 13.427Z" fill="#221F20"/>
<path d="M39.6733 11.6757C39.8933 11.4568 40.1867 11.3108 40.48 11.3108C41.14 11.3108 41.5067 11.8946 41.5067 12.4784C41.5067 13.2081 40.9933 13.9378 40.1867 13.9378C39.7467 13.9378 39.6 13.7919 39.4533 13.7189L39.3067 13.8649L39.16 13.7919C39.2333 13.5 39.2333 13.1351 39.2333 12.8433V10.5081C39.2333 10.1433 39.16 10.1433 38.94 10.0703V9.99731C39.16 9.92433 39.38 9.85136 39.5267 9.77839C39.6 9.77839 39.6 9.70541 39.6733 9.70541C39.6733 9.70541 39.7467 9.70541 39.7467 9.77839L39.6733 11.6757ZM39.6733 13.1351C39.6733 13.3541 39.8933 13.7189 40.26 13.7189C40.8467 13.7189 41.0667 13.1351 41.0667 12.6973C41.0667 12.1135 40.6267 11.6027 40.1867 11.6027C39.9667 11.6027 39.82 11.7487 39.6733 11.8946V13.1351Z" fill="#221F20"/>
<path d="M16.06 16.9297C16.2067 16.9297 16.3533 16.9297 16.3533 16.7838V15.2514C16.3533 15.1054 16.2067 15.1054 16.1333 15.1054H16.06V15.0324C16.2067 15.0324 16.3533 15.0324 16.5 15.0324C16.6467 15.0324 16.7933 15.0324 16.94 15.0324V15.1054H16.8667C16.7933 15.1054 16.6467 15.1054 16.6467 15.2514V16.7838C16.6467 16.9297 16.7933 16.9297 16.8667 16.9297H16.94V17.0027C16.7933 17.0027 16.6467 17.0027 16.5 17.0027C16.3533 17.0027 16.2067 17.0027 16.06 17.0027V16.9297Z" fill="#221F20"/>
<path d="M17.0133 17.0027C16.8667 17.0027 16.72 17.0027 16.5733 17.0027C16.4267 17.0027 16.28 17.0027 16.1333 17.0027V16.9297V16.9297C16.2067 16.9297 16.3533 16.9297 16.3533 16.7838V15.2514C16.3533 15.1054 16.28 15.1054 16.1333 15.1054H16.06V15.0324C16.2067 15.0324 16.3533 15.0324 16.5 15.0324C16.6467 15.0324 16.7933 15.0324 16.94 15.0324V15.1054H16.8667C16.7933 15.1054 16.6467 15.1054 16.6467 15.2514V16.7838C16.6467 16.9297 16.72 16.9297 16.8667 16.9297H16.94L17.0133 17.0027ZM17.0133 17.0027C16.8667 16.9297 16.72 16.9297 16.72 16.7838V15.2514C16.72 15.1054 16.8667 15.1054 16.94 15.1054V15.0324C16.7933 15.0324 16.6467 15.0324 16.5 15.0324C16.3533 15.0324 16.2067 15.0324 16.06 15.0324V15.1054C16.1333 15.1054 16.28 15.1054 16.28 15.2514V16.7838C16.28 16.9297 16.1333 16.9297 16.06 16.9297V17.0027C16.2067 17.0027 16.3533 17.0027 16.5 17.0027C16.6467 17.0027 16.8667 17.0027 17.0133 17.0027Z" fill="#221F20"/>
<path d="M19.0667 16.4189V15.3243C19.0667 15.1054 18.92 15.0324 18.7733 15.0324H18.7V14.9595C18.8467 14.9595 18.9933 14.9595 19.14 14.9595C19.2867 14.9595 19.36 14.9595 19.5067 14.9595V15.0324H19.4333C19.2867 15.0324 19.14 15.0324 19.14 15.3973V16.7838C19.14 16.8568 19.14 17.0027 19.14 17.0757H19.0667L17.5267 15.3243V16.5649C17.5267 16.8568 17.6 16.9297 17.82 16.9297H17.8933V17.0027C17.7467 17.0027 17.6733 17.0027 17.5267 17.0027C17.38 17.0027 17.2333 17.0027 17.0867 17.0027V16.9297H17.16C17.38 16.9297 17.4533 16.7838 17.4533 16.5649V15.3243C17.4533 15.1784 17.3067 15.0324 17.16 15.0324H17.0867V14.9595C17.2333 14.9595 17.3067 14.9595 17.4533 14.9595C17.5267 14.9595 17.6 14.9595 17.7467 14.9595L19.0667 16.4189Z" fill="#221F20"/>
<path d="M19.2133 17.0757H19.0667L17.6 15.3973V16.5649C17.6 16.8568 17.6733 16.9297 17.8933 16.9297H17.9667V17.0027C17.82 17.0027 17.6733 17.0027 17.6 17.0027C17.4533 17.0027 17.3067 17.0027 17.16 17.0027V16.9297H17.2333C17.4533 16.9297 17.4533 16.7838 17.4533 16.5649V15.3243C17.4533 15.1784 17.3067 15.1054 17.16 15.1054H17.0867V15.0324C17.2333 15.0324 17.3067 15.0324 17.4533 15.0324C17.5267 15.0324 17.6 15.0324 17.7467 15.0324L19.0667 16.4919V15.3243C19.0667 15.1054 18.92 15.0324 18.8467 15.0324H18.7733V14.9595C18.92 14.9595 19.0667 14.9595 19.2133 14.9595C19.36 14.9595 19.4333 14.9595 19.58 14.9595V15.0324H19.5067C19.36 15.0324 19.2867 15.0324 19.2867 15.3973V16.7838C19.2133 16.8568 19.2133 16.9297 19.2133 17.0757ZM19.0667 17.0027H19.14C19.14 16.9297 19.14 16.7838 19.14 16.7108V15.3973C19.14 15.0324 19.2867 15.0324 19.4333 15.0324V14.9595C19.2867 14.9595 19.2133 14.9595 19.0667 14.9595C18.92 14.9595 18.7733 14.9595 18.7 14.9595V15.0324H18.7733C18.8467 15.0324 19.0667 15.1054 19.0667 15.3243V16.4189L17.7467 14.9595C17.6733 14.9595 17.6 14.9595 17.4533 14.9595C17.38 14.9595 17.2333 14.9595 17.16 14.9595V15.0324C17.3067 15.0324 17.4533 15.1054 17.4533 15.3243V16.5649C17.4533 16.7838 17.38 16.9297 17.16 16.9297V17.0027C17.3067 17.0027 17.4533 17.0027 17.5267 17.0027C17.6733 17.0027 17.7467 17.0027 17.8933 17.0027V16.9297H17.82C17.6 16.9297 17.5267 16.8568 17.5267 16.5649V15.3243L19.0667 17.0027Z" fill="#221F20"/>
<path d="M19.9467 15.1054C19.7267 15.1054 19.7267 15.1784 19.6533 15.3973H19.58C19.58 15.3243 19.58 15.2514 19.58 15.1784C19.58 15.1054 19.58 15.0324 19.58 14.9595H19.6533C19.6533 15.0324 19.7267 15.0324 19.8 15.0324H21.34C21.4133 15.0324 21.4867 15.0324 21.4867 14.9595H21.56C21.56 15.0324 21.56 15.1054 21.56 15.1784C21.56 15.2514 21.56 15.3243 21.56 15.3973H21.4867C21.4867 15.3243 21.4867 15.1054 21.2667 15.1054H20.7533V16.7108C20.7533 16.9297 20.8267 16.9297 20.9733 16.9297H21.0467V17.0027C20.9 17.0027 20.7533 17.0027 20.5333 17.0027C20.3867 17.0027 20.1667 17.0027 20.02 17.0027V16.9297H20.0933C20.24 16.9297 20.3133 16.9297 20.3133 16.7108V15.1054H19.9467Z" fill="#221F20"/>
<path d="M21.12 17.0027C20.9733 17.0027 20.8267 17.0027 20.6067 17.0027C20.46 17.0027 20.24 17.0027 20.0933 17.0027V16.9297H20.1667C20.3133 16.9297 20.3867 16.9297 20.3867 16.7108V15.1784H19.9467H20.46V16.7838C20.46 17.0027 20.3867 17.0757 20.1667 17.0757H20.0933V17.1487C20.24 17.1487 20.3867 17.1487 20.6067 17.1487C20.7533 17.0027 20.9733 17.0027 21.12 17.0027V16.9297H21.0467C20.9 16.9297 20.7533 16.9297 20.7533 16.6379V15.0325H21.2667C21.4867 15.0325 21.4867 15.1784 21.4867 15.3243H21.56C21.56 15.2514 21.56 15.1784 21.56 15.1054C21.56 15.0325 21.56 14.9595 21.56 14.8865H21.4867C21.4867 14.9595 21.4133 14.9595 21.34 14.9595H19.8C19.7267 14.9595 19.6533 14.9595 19.6533 14.8865H19.58C19.58 14.9595 19.58 15.0325 19.58 15.1054C19.58 15.1784 19.58 15.2514 19.58 15.3243H19.6533C19.7267 15.1054 19.7267 15.0325 19.9467 15.0325C19.7267 15.0325 19.7267 15.1054 19.6533 15.3243H19.58C19.58 15.2514 19.58 15.1784 19.58 15.1054C19.58 15.0325 19.58 14.9595 19.58 14.8865H19.6533C19.6533 14.9595 19.7267 14.9595 19.8 14.9595H21.34C21.4133 14.9595 21.4867 14.9595 21.4867 14.8865H21.56C21.56 14.9595 21.56 15.0325 21.56 15.1054C21.56 15.1784 21.56 15.2514 21.56 15.3243L21.4867 15.3973C21.4867 15.2514 21.4867 15.1054 21.2667 15.1054H20.8267V16.6379C20.8267 16.8568 20.9 16.8568 21.0467 16.8568H21.12V17.0027Z" fill="#221F20"/>
<path d="M21.7067 16.9297C21.8533 16.9297 22 16.9297 22 16.7838V15.2514C22 15.1054 21.8533 15.1054 21.78 15.1054H21.7067V15.0324C21.8533 15.0324 22.22 15.0324 22.44 15.0324C22.66 15.0324 23.0267 15.0324 23.1733 15.0324C23.1733 15.1784 23.1733 15.3243 23.1733 15.4703H23.1C23.1 15.2514 23.0267 15.1054 22.7333 15.1054H22.2933V15.9081H22.7333C22.88 15.9081 22.9533 15.8351 22.9533 15.6162H23.0267C23.0267 15.7622 23.0267 15.8351 23.0267 15.9811C23.0267 16.127 23.0267 16.2 23.0267 16.346H22.9533C22.9533 16.2 22.9533 16.0541 22.7333 16.0541H22.3667V16.7108C22.3667 16.9297 22.5133 16.9297 22.7333 16.9297C23.1 16.9297 23.2467 16.9297 23.32 16.5649H23.3933C23.32 16.7108 23.32 16.8568 23.32 17.0027C23.1 17.0027 22.8067 17.0027 22.5133 17.0027C22.22 17.0027 21.9267 17.0027 21.7067 17.0027V16.9297V16.9297Z" fill="#221F20"/>
<path d="M23.32 17.0027C23.1 17.0027 22.8067 17.0027 22.5133 17.0027C22.22 17.0027 21.9267 17.0027 21.7067 17.0027V16.9297H21.78C21.8533 16.9297 22 16.9297 22 16.7838V15.2514C22 15.1054 21.9267 15.1054 21.78 15.1054H21.7067V15.0324C21.8533 15.0324 22.22 15.0324 22.44 15.0324C22.66 15.0324 23.0267 15.0324 23.1733 15.0324C23.1733 15.1054 23.1733 15.1054 23.1733 15.1784C23.1733 15.2514 23.1733 15.3973 23.1733 15.4703H23.1C23.1 15.2514 23.0267 15.1054 22.7333 15.1054H22.3667V15.8351H22.7333C22.88 15.8351 22.9533 15.7622 22.9533 15.6162H23.0267C23.0267 15.7622 23.0267 15.8351 23.0267 15.9811C23.0267 16.127 23.0267 16.2 23.0267 16.346H22.9533C22.9533 16.2 22.9533 16.0541 22.7333 16.0541H22.3667V16.7108C22.3667 16.8568 22.5133 16.8568 22.7333 16.8568C23.1 16.8568 23.2467 16.8568 23.32 16.4919H23.3933C23.3933 16.7108 23.3933 16.8568 23.32 17.0027ZM23.32 17.0027C23.32 16.8568 23.3933 16.7108 23.3933 16.5649H23.32C23.2467 16.9297 23.0267 16.9297 22.7333 16.9297C22.5133 16.9297 22.3667 16.9297 22.3667 16.7108V15.9811H22.7333C22.9533 15.9811 22.9533 16.127 22.9533 16.273H23.0267C23.0267 16.2 23.0267 16.0541 23.0267 15.9811C23.0267 15.8351 23.0267 15.7622 23.0267 15.6162H22.9533C22.9533 15.7622 22.88 15.9081 22.7333 15.9081H22.3667V15.1054H22.8067C23.1 15.1054 23.1733 15.2514 23.1733 15.4703H23.2467C23.2467 15.3973 23.2467 15.2514 23.2467 15.1784C23.2467 15.1054 23.2467 15.1054 23.2467 15.0324C23.0267 15.0324 22.7333 15.0324 22.5133 15.0324C22.2933 15.0324 22 15.0324 21.78 15.0324V15.1054C21.8533 15.1054 22 15.1054 22 15.2514V16.7838C22 16.9297 21.8533 16.9297 21.78 16.9297V17.0027C21.9267 17.0027 22.2933 17.0027 22.5867 17.0027C22.8067 17.0027 23.1 17.0027 23.32 17.0027Z" fill="#221F20"/>
<path d="M23.8333 15.2514C23.8333 15.0324 23.6867 15.0324 23.6133 15.0324H23.54V14.9595C23.6133 14.9595 23.8333 14.9595 23.98 14.9595C24.1267 14.9595 24.2733 14.9595 24.4933 14.9595C24.86 14.9595 25.2267 15.0324 25.2267 15.4703C25.2267 15.7622 25.08 15.9081 24.7867 15.9811L25.3 16.7108C25.3733 16.8568 25.4467 16.8568 25.5933 16.8568V16.9297C25.52 16.9297 25.3733 16.9297 25.3 16.9297C25.2267 16.9297 25.08 16.9297 25.0067 16.9297C24.7867 16.6379 24.5667 16.346 24.42 15.9811H24.2V16.6379C24.2 16.8568 24.2733 16.8568 24.42 16.8568H24.4933V16.9297C24.3467 16.9297 24.1267 16.9297 23.98 16.9297C23.8333 16.9297 23.6867 16.9297 23.54 16.9297V16.8568H23.6133C23.76 16.8568 23.8333 16.7838 23.8333 16.7108V15.2514ZM24.2 15.9081H24.3467C24.64 15.9081 24.7867 15.7622 24.7867 15.4703C24.7867 15.1784 24.64 15.0324 24.3467 15.0324C24.2733 15.0324 24.2 15.0324 24.2 15.0324V15.9081Z" fill="#221F20"/>
<path d="M25.5933 17.0027C25.52 17.0027 25.3733 17.0027 25.3 17.0027C25.2267 17.0027 25.08 17.0027 25.0067 17.0027C24.7867 16.7108 24.5667 16.4189 24.42 16.0541H24.2V16.6379C24.2 16.8568 24.2733 16.8568 24.42 16.8568H24.4933V16.9297C24.3467 16.9297 24.1267 16.9297 23.98 16.9297C23.8333 16.9297 23.6867 16.9297 23.54 16.9297V16.8568H23.6133C23.6867 16.8568 23.8333 16.7838 23.8333 16.7108V15.1784C23.8333 14.9595 23.76 14.9595 23.6133 14.9595H23.54V14.8865C23.6133 14.8865 23.8333 14.8865 23.98 14.8865C24.1267 14.8865 24.2733 14.8865 24.4933 14.8865C24.86 14.8865 25.2267 14.9595 25.2267 15.3973C25.2267 15.6892 25.08 15.8352 24.7867 15.9081L25.3 16.6379C25.3733 16.7838 25.4467 16.7838 25.5933 16.7838V17.0027ZM24.2 16.0541H24.42C24.64 16.4189 24.7867 16.7108 25.0067 17.0027C25.08 17.0027 25.2267 17.0027 25.3 17.0027C25.3733 17.0027 25.52 17.0027 25.5933 17.0027V16.9297C25.4467 16.9297 25.3733 16.8568 25.3 16.7838L24.7867 15.9811C25.0067 15.9081 25.2267 15.7622 25.2267 15.4703C25.2267 15.0325 24.9333 14.9595 24.5667 14.9595C24.42 14.9595 24.2733 14.9595 24.0533 14.9595C23.9067 14.9595 23.6867 14.9595 23.6133 14.9595V15.0325H23.6867C23.76 15.0325 23.9067 15.0325 23.9067 15.2514V16.7838C23.9067 16.9297 23.76 16.9297 23.6867 16.9297H23.6133V17.0027C23.76 17.0027 23.9067 17.0027 24.0533 17.0027C24.2 17.0027 24.42 17.0027 24.5667 17.0027V16.9297H24.4933C24.3467 16.9297 24.2733 16.9297 24.2733 16.7108L24.2 16.0541ZM24.2 15.9811V15.1054C24.2733 15.1054 24.2733 15.1054 24.3467 15.1054C24.64 15.1054 24.7867 15.2514 24.7867 15.5433C24.7867 15.9081 24.64 15.9811 24.3467 15.9811H24.2ZM24.3467 15.9081C24.64 15.9081 24.7867 15.8352 24.7867 15.4703C24.7867 15.1784 24.64 15.0325 24.3467 15.0325C24.2733 15.0325 24.2 15.0325 24.2 15.0325V15.9081H24.3467V15.9081Z" fill="#221F20"/>
<path d="M27.6467 16.4189V15.3243C27.6467 15.1054 27.5 15.0324 27.3533 15.0324H27.28V14.9595C27.4267 14.9595 27.5733 14.9595 27.72 14.9595C27.8667 14.9595 27.94 14.9595 28.0867 14.9595V15.0324H28.0133C27.8667 15.0324 27.72 15.0324 27.72 15.3973V16.7838C27.72 16.8568 27.72 17.0027 27.72 17.0757H27.5733L26.18 15.3243V16.5649C26.18 16.8568 26.2533 16.9297 26.4733 16.9297H26.5467V17.0027C26.4 17.0027 26.3267 17.0027 26.18 17.0027C26.0333 17.0027 25.8867 17.0027 25.74 17.0027V16.9297H25.8133C26.0333 16.9297 26.1067 16.7838 26.1067 16.5649V15.3243C26.1067 15.1784 25.96 15.0324 25.8133 15.0324H25.6667V14.9595C25.8133 14.9595 25.8867 14.9595 26.0333 14.9595C26.1067 14.9595 26.18 14.9595 26.3267 14.9595L27.6467 16.4189Z" fill="#221F20"/>
<path d="M27.7933 17.0757H27.6467L26.1067 15.3973V16.5649C26.1067 16.8568 26.18 16.9297 26.4 16.9297H26.4733V17.0027C26.3267 17.0027 26.2533 17.0027 26.1067 17.0027C25.96 17.0027 25.8133 17.0027 25.6667 17.0027V16.9297H25.74C25.96 16.9297 25.96 16.7838 25.96 16.5649V15.3243C25.96 15.1784 25.8133 15.1054 25.6667 15.1054V15.1054V15.0324C25.8133 15.0324 25.8867 15.0324 26.0333 15.0324C26.1067 15.0324 26.18 15.0324 26.3267 15.0324L27.6467 16.4919V15.3243C27.6467 15.1054 27.5 15.0324 27.4267 15.0324H27.3533V14.9595C27.5 14.9595 27.6467 14.9595 27.7933 14.9595C27.94 14.9595 28.0133 14.9595 28.16 14.9595V15.0324H28.0867C27.94 15.0324 27.8667 15.0324 27.8667 15.3973V16.7838C27.7933 16.8568 27.7933 16.9297 27.7933 17.0757ZM27.6467 17.0027H27.72C27.72 16.9297 27.72 16.7838 27.72 16.7108V15.3973C27.72 15.0324 27.8667 15.0324 28.0133 15.0324V14.9595C27.8667 14.9595 27.7933 14.9595 27.6467 14.9595C27.5 14.9595 27.3533 14.9595 27.2067 14.9595V15.0324H27.28C27.3533 15.0324 27.5733 15.1054 27.5733 15.3243V16.4189L26.2533 14.9595C26.18 14.9595 26.1067 14.9595 25.96 14.9595C25.8133 14.9595 25.74 14.9595 25.6667 14.9595V15.0324C25.8133 15.0324 25.96 15.1054 25.96 15.3243V16.5649C25.96 16.7838 25.8867 16.9297 25.6667 16.9297V17.0027C25.8133 17.0027 25.96 17.0027 26.0333 17.0027C26.18 17.0027 26.2533 17.0027 26.4 17.0027V16.9297V16.9297C26.18 16.9297 26.1067 16.8568 26.1067 16.5649V15.3243L27.6467 17.0027Z" fill="#221F20"/>
<path d="M28.6 16.5649C28.6 16.6379 28.5267 16.7108 28.5267 16.7838C28.5267 16.8568 28.6733 16.8568 28.7467 16.8568V16.9298C28.6 16.9298 28.5267 16.9298 28.38 16.9298C28.3067 16.9298 28.16 16.9298 28.0867 16.9298V16.8568C28.2333 16.8568 28.3067 16.7838 28.38 16.6379L28.82 15.2514C28.8933 15.1054 28.8933 14.9595 28.9667 14.8865C29.04 14.8865 29.1867 14.8135 29.26 14.7406V14.8135L29.7733 16.346C29.7733 16.4189 29.8467 16.5649 29.8467 16.6379C29.8467 16.7108 29.92 16.7838 30.0667 16.7838V16.8568C29.92 16.8568 29.7733 16.8568 29.6267 16.8568C29.48 16.8568 29.3333 16.8568 29.1867 16.8568V16.7838C29.26 16.7838 29.4067 16.7838 29.4067 16.7108C29.4067 16.6379 29.4067 16.5649 29.3333 16.4919V16.273H28.6733L28.6 16.5649ZM28.9667 15.2514L28.6733 16.0541H29.26L28.9667 15.2514Z" fill="#221F20"/>
<path d="M30.14 17.0027C29.9933 17.0027 29.8467 17.0027 29.7 17.0027C29.5533 17.0027 29.4067 17.0027 29.26 17.0027V16.9298C29.3333 16.9298 29.4067 16.9298 29.4067 16.8568C29.4067 16.8568 29.4067 16.7108 29.3333 16.6379V16.273H28.6733L28.6 16.5649C28.6 16.6379 28.5267 16.7108 28.5267 16.7838C28.5267 16.8568 28.6733 16.8568 28.7467 16.8568H28.82V16.9298C28.6733 16.9298 28.6 16.9298 28.4533 16.9298C28.38 16.9298 28.2333 16.9298 28.16 16.9298V16.8568C28.3067 16.8568 28.38 16.7838 28.38 16.6379L28.82 15.2514C28.8933 15.1054 28.8933 14.9595 28.9667 14.8865C29.04 14.8865 29.1867 14.8135 29.26 14.7406V14.8135L29.7733 16.346C29.7733 16.4189 29.8467 16.5649 29.8467 16.6379C29.8467 16.7108 29.92 16.7838 30.0667 16.7838L30.14 17.0027ZM29.3333 17.0027C29.48 17.0027 29.6267 17.0027 29.7733 17.0027C29.92 17.0027 30.0667 17.0027 30.14 17.0027V16.9298C30.0667 16.9298 29.9933 16.8568 29.92 16.7838C29.8467 16.7108 29.8467 16.5649 29.8467 16.4919L29.3333 14.9595V14.8865C29.26 14.9595 29.1867 14.9595 29.04 15.0325C29.04 15.1784 28.9667 15.3244 28.8933 15.3973L28.4533 16.7838C28.38 16.9298 28.3067 17.0027 28.16 17.0027V17.0757C28.2333 17.0757 28.38 17.0757 28.4533 17.0757C28.6 17.0757 28.6733 17.0757 28.82 17.0757V17.0027C28.7467 17.0027 28.6 17.0027 28.6 16.8568C28.6 16.7838 28.6733 16.7108 28.6733 16.6379L28.7467 16.346H29.3333L29.48 16.7108C29.48 16.7838 29.5533 16.8568 29.5533 16.9298C29.5533 16.9298 29.4067 16.9298 29.3333 17.0027ZM28.6733 16.1271L28.9667 15.2514L29.26 16.1271H28.6733ZM28.7467 16.1271H29.26L28.9667 15.3244L28.7467 16.1271Z" fill="#221F20"/>
<path d="M30.2867 15.1054C30.0667 15.1054 30.0667 15.1784 29.9933 15.3973H29.92C29.92 15.3243 29.92 15.2514 29.92 15.1784C29.92 15.1054 29.92 15.0324 29.92 14.9595H30.0667C30.0667 15.0324 30.14 15.0324 30.2133 15.0324H31.7533C31.8267 15.0324 31.9 15.0324 31.9 14.9595H31.9733C31.9733 15.0324 31.9733 15.1054 31.9733 15.1784C31.9733 15.2514 31.9733 15.3243 31.9733 15.3973H31.9C31.9 15.3243 31.9 15.1054 31.68 15.1054H31.1667V16.7108C31.1667 16.9297 31.24 16.9297 31.3867 16.9297H31.46V17.0027C31.3133 17.0027 31.1667 17.0027 30.9467 17.0027C30.8 17.0027 30.58 17.0027 30.4333 17.0027V16.9297H30.5067C30.6533 16.9297 30.7267 16.9297 30.7267 16.7108V15.1054H30.2867Z" fill="#221F20"/>
<path d="M31.46 17.0027C31.3133 17.0027 31.1667 17.0027 30.9467 17.0027C30.8 17.0027 30.58 17.0027 30.4333 17.0027V16.9297H30.5067C30.6533 16.9297 30.7267 16.9297 30.7267 16.7108V15.1784H30.2867H30.8V16.7838C30.8 17.0027 30.7267 17.0757 30.5067 17.0757H30.4333V17.1487C30.58 17.1487 30.7267 17.1487 30.9467 17.1487C31.0933 17.0027 31.3133 17.0027 31.46 17.0027V16.9297H31.3867C31.24 16.9297 31.0933 16.9297 31.0933 16.6379V15.0325H31.6067C31.8267 15.0325 31.8267 15.1784 31.8267 15.3243H31.9C31.9 15.2514 31.9 15.1784 31.9 15.1054C31.9 15.0325 31.9 14.9595 31.9 14.8865H31.8267C31.8267 14.9595 31.7533 14.9595 31.68 14.9595H30.14C30.0667 14.9595 29.9933 14.9595 29.9933 14.8865H29.92C29.92 14.9595 29.92 15.0325 29.92 15.1054C29.92 15.1784 29.92 15.2514 29.92 15.3243H29.9933C30.0667 15.1054 30.0667 15.0325 30.2867 15.0325C30.0667 15.0325 30.0667 15.1054 29.9933 15.3243H29.92C29.92 15.2514 29.92 15.1784 29.92 15.1054C29.92 15.0325 29.92 14.9595 29.92 14.8865H30.0667C30.0667 14.9595 30.14 14.9595 30.2133 14.9595H31.7533C31.8267 14.9595 31.9 14.9595 31.9 14.8865H31.9733C31.9733 14.9595 31.9733 15.0325 31.9733 15.1054C31.9733 15.1784 31.9733 15.2514 31.9733 15.3243L31.9 15.3973C31.9 15.2514 31.9 15.1054 31.68 15.1054H31.24V16.6379C31.24 16.8568 31.3133 16.8568 31.46 16.8568H31.5333L31.46 17.0027Z" fill="#221F20"/>
<path d="M32.12 16.9297C32.2667 16.9297 32.4133 16.9297 32.4133 16.7838V15.2514C32.4133 15.1054 32.2667 15.1054 32.1933 15.1054H32.12V15.0324C32.2667 15.0324 32.4133 15.0324 32.56 15.0324C32.7067 15.0324 32.8533 15.0324 33 15.0324V15.1054H32.9267C32.8533 15.1054 32.7067 15.1054 32.7067 15.2514V16.7838C32.7067 16.9297 32.8533 16.9297 32.9267 16.9297H33V17.0027C32.8533 17.0027 32.7067 17.0027 32.56 17.0027C32.4133 17.0027 32.2667 17.0027 32.12 17.0027V16.9297Z" fill="#221F20"/>
<path d="M33 17.0027C32.8533 17.0027 32.7067 17.0027 32.56 17.0027C32.4133 17.0027 32.2667 17.0027 32.12 17.0027V16.9297H32.1933C32.2667 16.9297 32.4133 16.9297 32.4133 16.7838V15.2514C32.4133 15.1054 32.34 15.1054 32.1933 15.1054H32.12V15.0324C32.2667 15.0324 32.4133 15.0324 32.56 15.0324C32.7067 15.0324 32.8533 15.0324 33 15.0324V15.1054H32.9267C32.8533 15.1054 32.7067 15.1054 32.7067 15.2514V16.7838C32.7067 16.9297 32.78 16.9297 32.9267 16.9297H33V17.0027ZM33 17.0027C32.8533 16.9297 32.7067 16.9297 32.7067 16.7838V15.2514C32.7067 15.1054 32.8533 15.1054 32.9267 15.1054V15.0324C32.78 15.0324 32.6333 15.0324 32.4867 15.0324C32.34 15.0324 32.1933 15.0324 32.0467 15.0324V15.1054C32.12 15.1054 32.2667 15.1054 32.2667 15.2514V16.7838C32.2667 16.9297 32.12 16.9297 32.0467 16.9297V17.0027C32.1933 17.0027 32.34 17.0027 32.4867 17.0027C32.7067 17.0027 32.8533 17.0027 33 17.0027Z" fill="#221F20"/>
<path d="M34.1733 14.8865C34.8333 14.8865 35.3467 15.2514 35.3467 15.9081C35.3467 16.5649 34.8333 17.0757 34.2467 17.0757C33.5867 17.0757 33.1467 16.6379 33.1467 15.9811C33.0733 15.3973 33.5867 14.8865 34.1733 14.8865ZM34.2467 16.9297C34.8333 16.9297 34.9067 16.4189 34.9067 15.9811C34.9067 15.5433 34.6867 15.0325 34.1733 15.0325C33.66 15.0325 33.5133 15.4703 33.5133 15.9081C33.5133 16.4189 33.7333 16.9297 34.2467 16.9297Z" fill="#221F20"/>
<path d="M33.0733 15.9811C33.0733 15.3243 33.5867 14.8865 34.1733 14.8865C33.5867 14.8865 33.0733 15.3973 33.0733 15.9811C33.0733 16.6379 33.5867 17.0027 34.1733 17.0027C34.8333 17.0027 35.2733 16.5649 35.2733 15.9081C35.2733 15.2514 34.76 14.8865 34.1733 14.8865C34.8333 14.8865 35.3467 15.2514 35.3467 15.9081C35.3467 16.5649 34.8333 17.0757 34.2467 17.0757C33.5867 17.0757 33.0733 16.6379 33.0733 15.9811ZM33.5133 15.9081C33.5133 15.5433 33.66 15.0325 34.1733 15.0325C34.6867 15.0325 34.9067 15.5433 34.9067 15.9811C34.9067 16.4189 34.8333 16.9297 34.2467 16.9297C34.8333 16.9297 34.9067 16.4189 34.9067 15.9811C34.9067 15.5433 34.6867 15.0325 34.1733 15.0325C33.66 15.0325 33.5133 15.4703 33.5133 15.9081C33.5133 16.4189 33.8067 16.9297 34.2467 16.9297C33.7333 16.9297 33.5133 16.4189 33.5133 15.9081Z" fill="#221F20"/>
<path d="M37.3267 16.4189V15.3243C37.3267 15.1054 37.18 15.0324 37.0333 15.0324H36.96V14.9595C37.1067 14.9595 37.2533 14.9595 37.4 14.9595C37.5467 14.9595 37.62 14.9595 37.7667 14.9595V15.0324H37.6933C37.5467 15.0324 37.4 15.0324 37.4 15.3973V16.7838C37.4 16.8568 37.4 17.0027 37.4 17.0757L35.86 15.3243V16.5649C35.86 16.8568 35.9333 16.9297 36.1533 16.9297H36.2267V17.0027C36.08 17.0027 36.0067 17.0027 35.86 17.0027C35.7133 17.0027 35.5667 17.0027 35.42 17.0027V16.9297H35.4933C35.7133 16.9297 35.7867 16.7838 35.7867 16.5649V15.3243C35.7867 15.1784 35.64 15.0324 35.4933 15.0324H35.42V14.9595C35.5667 14.9595 35.64 14.9595 35.7867 14.9595C35.86 14.9595 35.9333 14.9595 36.08 14.9595L37.3267 16.4189Z" fill="#221F20"/>
<path d="M37.4733 17.0757H37.3267L35.7867 15.3973V16.5649C35.7867 16.8568 35.86 16.9297 36.08 16.9297H36.1533V17.0027C36.0067 17.0027 35.9333 17.0027 35.7867 17.0027C35.64 17.0027 35.4933 17.0027 35.3467 17.0027V16.9297H35.42C35.64 16.9297 35.64 16.7838 35.64 16.5649V15.3243C35.64 15.1784 35.4933 15.1054 35.3467 15.1054H35.2733V15.0324C35.42 15.0324 35.4933 15.0324 35.64 15.0324C35.7133 15.0324 35.7867 15.0324 35.9333 15.0324L37.2533 16.4919V15.3243C37.2533 15.1054 37.1067 15.0324 37.0333 15.0324H36.96V14.9595C37.1067 14.9595 37.2533 14.9595 37.4 14.9595C37.5467 14.9595 37.62 14.9595 37.7667 14.9595V15.0324H37.6933C37.5467 15.0324 37.4733 15.0324 37.4733 15.3973V16.7838C37.4733 16.8568 37.4733 16.9297 37.4733 17.0757ZM37.4 17.0027H37.4733C37.4733 16.9297 37.4733 16.7838 37.4733 16.7108V15.3973C37.4733 15.0324 37.62 15.0324 37.7667 15.0324V14.9595C37.62 14.9595 37.5467 14.9595 37.4 14.9595C37.2533 14.9595 37.1067 14.9595 37.0333 14.9595V15.0324H37.1067C37.18 15.0324 37.4 15.1054 37.4 15.3243V16.4189L36.08 14.9595C36.0067 14.9595 35.9333 14.9595 35.7867 14.9595C35.7133 14.9595 35.5667 14.9595 35.4933 14.9595V15.0324C35.64 15.0324 35.7867 15.1054 35.7867 15.3243V16.5649C35.7867 16.7838 35.7133 16.9297 35.4933 16.9297V17.0027C35.64 17.0027 35.7867 17.0027 35.86 17.0027C36.0067 17.0027 36.08 17.0027 36.2267 17.0027V16.9297H36.1533C35.9333 16.9297 35.86 16.8568 35.86 16.5649V15.3243L37.4 17.0027Z" fill="#221F20"/>
<path d="M38.28 16.5649C38.28 16.6379 38.2067 16.7108 38.2067 16.7838C38.2067 16.8568 38.3533 16.8568 38.4267 16.8568V16.9298C38.28 16.9298 38.2067 16.9298 38.06 16.9298C37.9867 16.9298 37.84 16.9298 37.7667 16.9298V16.8568C37.9133 16.8568 37.9867 16.7838 38.06 16.6379L38.5 15.2514C38.5733 15.1054 38.5733 14.9595 38.5733 14.8865C38.6467 14.8865 38.7933 14.8135 38.8667 14.7406V14.8135L39.38 16.346C39.38 16.4189 39.4533 16.5649 39.5267 16.6379C39.5267 16.7108 39.6 16.7838 39.7467 16.7838V16.8568C39.6 16.8568 39.4533 16.8568 39.3067 16.8568C39.16 16.8568 39.0133 16.8568 38.8667 16.8568V16.7838C38.94 16.7838 39.0867 16.7838 39.0867 16.7108C39.0867 16.6379 39.0867 16.5649 39.0133 16.4919L38.8667 16.1271H38.2067L38.28 16.5649ZM38.72 15.2514L38.4267 16.0541H39.0133L38.72 15.2514Z" fill="#221F20"/>
<path d="M39.82 17.0027C39.6733 17.0027 39.5267 17.0027 39.38 17.0027C39.2333 17.0027 39.0867 17.0027 38.94 17.0027V16.9298C39.0133 16.9298 39.0867 16.9298 39.0867 16.8568C39.0867 16.8568 39.0867 16.7108 39.0133 16.6379L38.8667 16.273H38.2067L38.1333 16.5649C38.1333 16.6379 38.06 16.7108 38.06 16.7838C38.06 16.8568 38.2067 16.8568 38.28 16.8568H38.3533V16.9298C38.2067 16.9298 38.1333 16.9298 37.9867 16.9298C37.9133 16.9298 37.7667 16.9298 37.6933 16.9298V16.8568C37.84 16.8568 37.9133 16.7838 37.9133 16.6379L38.3533 15.2514C38.4267 15.1054 38.4267 14.9595 38.5 14.8865C38.5733 14.8865 38.72 14.8135 38.7933 14.7406V14.8135L39.3067 16.346C39.3067 16.4189 39.38 16.5649 39.38 16.6379C39.38 16.7108 39.4533 16.7108 39.6 16.7838L39.82 17.0027ZM39.0133 17.0027C39.16 17.0027 39.3067 17.0027 39.4533 17.0027C39.6 17.0027 39.7467 17.0027 39.82 17.0027V16.9298C39.7467 16.9298 39.6733 16.8568 39.6 16.7838C39.5267 16.7108 39.5267 16.5649 39.4533 16.4919L38.94 14.9595V14.8865C38.8667 14.8865 38.7933 14.9595 38.6467 15.0325C38.6467 15.1784 38.5733 15.3244 38.5 15.3973L38.06 16.7838C37.9867 16.9298 37.9133 17.0027 37.7667 17.0027V17.0757C37.84 17.0757 37.9867 17.0757 38.06 17.0757C38.2067 17.0757 38.28 17.0757 38.4267 17.0757V17.0027C38.3533 17.0027 38.2067 17.0027 38.2067 16.8568C38.2067 16.7838 38.28 16.7108 38.28 16.6379L38.3533 16.346H39.0133L39.16 16.7108C39.16 16.7838 39.2333 16.8568 39.2333 16.9298C39.2333 16.9298 39.0867 16.9298 39.0133 17.0027ZM38.4267 16.1271L38.72 15.2514L39.0133 16.1271H38.4267ZM38.4267 16.1271H38.94L38.72 15.3244L38.4267 16.1271Z" fill="#221F20"/>
<path d="M40.6267 16.7108C40.6267 16.8568 40.7 16.8568 40.7733 16.8568C40.92 16.8568 40.9933 16.8568 41.14 16.8568C41.2867 16.8568 41.36 16.7838 41.4333 16.7108C41.5067 16.6379 41.5067 16.5649 41.5067 16.4919H41.58C41.58 16.6379 41.5067 16.8568 41.4333 17.0027C41.14 17.0027 40.92 17.0027 40.6267 17.0027C40.3333 17.0027 40.1133 17.0027 39.82 17.0027V16.9297H39.8933C39.9667 16.9297 40.1133 16.9297 40.1133 16.7108V15.1784C40.1133 15.0324 39.9667 15.0324 39.8933 15.0324H39.82V14.9595C39.9667 14.9595 40.1133 14.9595 40.26 14.9595C40.4067 14.9595 40.5533 14.9595 40.7 14.9595V15.0324H40.6267C40.48 15.0324 40.4067 15.0324 40.4067 15.1784V16.7108H40.6267Z" fill="#221F20"/>
<path d="M41.5067 17.0027C41.2133 17.0027 40.9933 17.0027 40.7 17.0027C40.4067 17.0027 40.1867 17.0027 39.8933 17.0027V16.9297H39.9667C40.04 16.9297 40.1867 16.9297 40.1867 16.7108V15.1784C40.1867 15.0324 40.1133 15.0324 39.9667 15.0324H39.8933V14.9595C40.04 14.9595 40.1867 14.9595 40.3333 14.9595C40.48 14.9595 40.6267 14.9595 40.7733 14.9595V15.0324H40.7C40.5533 15.0324 40.48 15.0324 40.48 15.1784V16.7108C40.48 16.8568 40.5533 16.8568 40.6267 16.8568C40.7 16.8568 40.7 16.8568 40.7733 16.8568C40.8467 16.8568 40.92 16.8568 40.9933 16.8568C41.14 16.8568 41.2133 16.7838 41.2867 16.7108C41.36 16.6379 41.36 16.5649 41.36 16.4919H41.4333C41.6533 16.7108 41.58 16.8568 41.5067 17.0027ZM41.5067 17.0027C41.5067 16.8568 41.58 16.7108 41.58 16.4919H41.5067C41.5067 16.5649 41.4333 16.6379 41.4333 16.7108C41.36 16.7838 41.2867 16.8568 41.14 16.8568C41.0667 16.8568 40.9933 16.8568 40.92 16.8568C40.8467 16.8568 40.7733 16.8568 40.7733 16.8568C40.7 16.8568 40.5533 16.7838 40.5533 16.7108V15.1784C40.5533 15.0324 40.6267 15.0324 40.7733 15.0324H40.8467V14.9595C40.7 14.9595 40.5533 14.9595 40.4067 14.9595C40.26 14.9595 40.1133 14.9595 39.9667 14.9595V15.0324C40.04 15.0324 40.1867 15.0324 40.1867 15.1784V16.7108C40.1867 16.9297 40.04 16.9297 39.9667 16.9297V17.0027C40.26 17.0027 40.48 17.0027 40.7733 17.0027C41.0667 17.0027 41.2867 17.0027 41.5067 17.0027Z" fill="#221F20"/>
<path d="M41.58 14.8865C41.7267 14.8865 41.8733 15.0325 41.8733 15.1784C41.8733 15.3243 41.7267 15.4703 41.58 15.4703C41.4333 15.4703 41.2867 15.3243 41.2867 15.1784C41.2867 14.9595 41.4333 14.8865 41.58 14.8865ZM41.58 15.3973C41.7267 15.3973 41.8 15.2514 41.8 15.1784C41.8 15.0325 41.7267 14.9595 41.58 14.9595C41.4333 14.9595 41.36 15.1054 41.36 15.1784C41.36 15.3243 41.4333 15.3973 41.58 15.3973ZM41.4333 15.3243C41.5067 15.3243 41.5067 15.3243 41.4333 15.3243L41.5067 15.0325C41.5067 15.0325 41.5067 14.9595 41.4333 14.9595H41.58C41.6533 14.9595 41.6533 14.9595 41.6533 15.0325C41.6533 15.1054 41.6533 15.1054 41.58 15.1054L41.6533 15.1784L41.7267 15.2514H41.6533C41.6533 15.2514 41.58 15.1784 41.5067 15.1054V15.3243C41.5067 15.3243 41.5067 15.3243 41.58 15.3243H41.4333ZM41.58 15.1784C41.6533 15.1784 41.6533 15.1784 41.6533 15.1054C41.6533 15.0325 41.6533 15.0325 41.58 15.0325V15.1784Z" fill="#221F20"/>
</g>
<defs>
<clipPath id="clip0_4_405">
<rect width="44" height="27" fill="white"/>
</clipPath>
<clipPath id="clip1_4_405">
<rect width="57.6" height="36" fill="white" transform="translate(-7 -4)"/>
</clipPath>
</defs>
</svg>
