<svg width="58" height="36" viewBox="0 0 58 36" fill="none" xmlns="http://www.w3.org/2000/svg">
<path d="M57.6 34.1C57.6 35.2 56.7 36 55.7 36H2C0.9 36 0 35.1 0 34.1V2C0 0.9 0.9 0 2 0H55.7C56.8 0 57.6 0.9 57.6 1.9V34.1Z" fill="#FAFAFA"/>
<path fill-rule="evenodd" clip-rule="evenodd" d="M26.1195 13.8755V13.5358H27.19V7.5398H26.1195V7.19899H28.7546V8.15545C29.495 7.13522 30.5158 7.00495 30.977 7.00495C31.3065 7.00495 32.5249 7.10169 33.018 8.18788C33.2156 8.64138 33.2156 9.0465 33.2156 9.54892V13.5358H34.3023V13.8755H30.6141V13.5358H31.6521V9.17568C31.6521 9.01407 31.6359 8.85136 31.6359 8.68975C31.6181 8.28518 31.5695 7.86357 31.1747 7.6206C30.9268 7.47438 30.6973 7.47438 30.5979 7.47438C30.0216 7.47438 29.4291 7.84763 29.1326 8.34949C28.7546 8.98164 28.7708 10.0024 28.7546 10.6994V13.5358H29.8563V13.8755H26.1195ZM36.1846 9.64182H38.9012V9.00912C38.9012 8.83102 38.8833 8.66886 38.8666 8.49076C38.8336 8.11862 38.67 7.35675 37.6163 7.35675C36.7609 7.35675 36.4158 7.89215 36.2996 8.18294C36.2332 8.39347 36.2003 8.62104 36.2003 9.05805L36.1846 9.64182ZM36.2003 9.98593V10.6829C36.1852 11.8499 36.1679 12.465 36.4644 12.9845C36.6291 13.2593 37.0083 13.6969 37.8146 13.6969C37.9961 13.6969 38.3417 13.681 38.7527 13.5023C39.4775 13.1785 40.0532 12.4167 40.1693 11.6389L40.5809 11.6548C40.5474 11.7845 40.4809 12.1583 40.3011 12.514C40.0699 12.9515 39.296 14.069 37.7487 14.069C36.662 14.069 35.9378 13.5023 35.6419 13.2593C34.5055 12.2875 34.3916 11.1529 34.3916 10.5856C34.3916 10.197 34.4402 9.4027 34.9829 8.57597C35.2633 8.15545 36.136 7.00495 37.7163 7.00495C38.0943 7.00495 39.0492 7.08575 39.8242 7.86357C40.6294 8.64138 40.7121 9.63028 40.7283 9.98593H36.2003ZM26.0118 10.5329C26.0118 11.0677 25.9146 12.2347 24.8112 13.1906C24.465 13.4985 23.7073 14.0657 22.5218 14.0657C21.7652 14.0657 21.123 13.8552 20.5133 13.4177C20.0202 13.0768 19 12.1863 19 10.5329C19 10.1283 19.0815 9.17183 19.8058 8.29672C20.1514 7.87511 21.0242 7 22.5391 7C23.3298 7 24.0702 7.2589 24.6794 7.74538C25.1239 8.11862 26.0118 8.99318 26.0118 10.5329ZM24.1356 9.22076C24.1021 8.58861 24.0205 7.93997 23.4113 7.58432C23.1478 7.4381 22.8351 7.37269 22.5391 7.37269C22.1929 7.37269 21.2219 7.47054 20.9248 8.52375C20.8109 8.97779 20.8109 9.83586 20.8109 10.955C20.8109 11.2134 20.826 11.4888 20.826 11.7482C20.8595 12.4777 20.9912 13.1906 21.7484 13.5303C22.0946 13.6925 22.4073 13.6925 22.5391 13.6925C22.9998 13.6925 23.8882 13.5474 24.0859 12.3809C24.1853 11.7482 24.1518 9.8529 24.1356 9.22076Z" fill="#1A1919"/>
<path fill-rule="evenodd" clip-rule="evenodd" d="M26.4356 26.6356V28.1109L21.7434 26.0694C21.4463 25.9435 20.8209 25.6555 20.5088 25.5917C20.1626 25.5202 19.9817 25.7429 19.9817 26.0677C19.9817 26.4239 20.3446 27.1127 21.0689 27.7795C22.0723 28.6969 23.5213 29.2829 23.8173 29.4252L26.4356 30.5406V32L19.9817 29.2274V30.6857L19.6511 30.5378V27.6041L21.3972 28.3973C21.1995 28.2593 21.0192 28.0928 20.8209 27.9246C20.0967 27.2573 19.4707 26.32 19.4707 25.3801C19.4707 25.2822 19.488 24.8809 19.6857 24.5814C19.899 24.2521 20.2938 24.1537 20.7227 24.2411C20.9041 24.2774 21.0845 24.3461 21.4139 24.5115C21.2822 24.4033 20.9862 24.1812 20.6573 23.8541C20.0152 23.1884 19.4545 22.3463 19.4707 21.4904C19.4707 21.3772 19.4707 21.198 19.5534 20.9567C19.8158 20.2481 20.4597 20.2976 20.7556 20.3581C20.9862 20.4048 21.2157 20.4845 21.677 20.6752L24.0976 21.7202C24.7894 22.0066 25.464 22.3062 25.7102 22.3557C25.9744 22.409 26.0235 22.2413 26.0235 22.1275C26.0235 22.0148 25.9582 21.79 25.7599 21.5388C25.1831 20.7582 24.3115 20.2234 24.0814 20.0794L24.1964 19.8111C24.4432 19.9579 25.612 20.667 26.2212 21.6982C26.3033 21.8285 26.5992 22.3749 26.5992 22.9097C26.5992 23.4122 26.3362 23.6502 26.1709 23.7139C25.9247 23.8255 25.5801 23.7557 25.4964 23.7387C25.2339 23.6848 24.9034 23.5529 24.6566 23.4539L21.4139 22.0484C21.1174 21.923 20.8209 21.7818 20.525 21.7213C20.0308 21.6213 19.999 22.0676 19.999 22.1803C19.999 22.5695 20.3279 23.0098 20.3765 23.0686C20.7556 23.5996 21.3972 24.2323 22.6318 24.9216C23.0104 25.1283 23.4057 25.3059 23.7855 25.4801L26.4356 26.6356ZM24.6644 15.4922C27.348 17.1407 28.7462 18.2676 29.7352 19.3934C30.7392 20.5532 31.1183 21.5383 31.1183 22.1215C31.1183 22.2512 31.1016 22.6201 30.8056 22.8515C30.7392 22.9031 30.5912 23.0186 30.3282 22.9653C30.2785 22.9548 30.1629 22.9158 30.0646 22.8471C29.6687 22.6047 29.6536 22.2127 29.6536 22.0825C29.6536 21.7746 29.8502 21.5388 30.212 21.613C30.245 21.6202 30.2785 21.6262 30.3606 21.6751C30.3606 21.6751 30.4426 21.7081 30.4756 21.7153C30.5247 21.7092 30.6241 21.6477 30.6241 21.5031C30.6241 21.3569 30.5247 21.1584 30.3432 20.8462C30.0976 20.39 29.619 19.6616 28.6982 18.825C28.4341 18.593 28.1873 18.3649 27.9075 18.1621C27.2816 17.6778 26.8868 17.4843 26.5417 17.4134C26.1949 17.3425 25.7348 17.3623 24.9933 17.4387L22.0299 17.6464L21.1895 17.7174C21.0091 17.73 20.8282 17.7415 20.6635 17.7723C20.4652 17.7971 20.2201 17.8603 20.2201 18.0714C20.2201 18.2005 20.334 18.3533 20.4334 18.455C20.9108 18.9904 21.3877 19.1839 21.9472 19.622L21.816 19.8551C21.1895 19.4522 20.8444 19.1872 20.5814 18.9877C19.9565 18.4875 19.7254 18.1654 19.5768 17.8108C19.5282 17.7201 19.4456 17.4931 19.4456 17.2166C19.4456 16.9252 19.5595 16.7224 19.626 16.6542C19.8901 16.3195 20.3016 16.3222 21.1576 16.253L24.8458 15.9985C24.8458 15.9985 23.3488 15.1591 22.4079 14.5957C21.5949 14.1103 20.7489 13.6716 20.3424 13.322C19.3032 12.4244 19.1323 11.6279 19.0754 11.2387C19.0011 10.7214 19.4182 10.3042 19.8906 10.3092C21.0153 10.324 20.7707 11.5548 20.8751 12.2171C20.9784 12.874 21.2073 13.1824 21.5508 13.4386C22.2448 13.9564 23.241 14.6798 24.6644 15.4922Z" fill="#D8232A"/>
</svg>
