<svg width="58" height="36" viewBox="0 0 58 36" fill="none" xmlns="http://www.w3.org/2000/svg">
<path d="M57.6 34.1C57.6 35.2 56.7 36 55.7 36H2C0.9 36 0 35.1 0 34.1V2C0 0.9 0.9 0 2 0H55.7C56.8 0 57.6 0.9 57.6 1.9V34.1Z" fill="#FAFAFA"/>
<path d="M44.5333 7H14.4667C13.6566 7 13 7.65665 13 8.46667V27.5333C13 28.3434 13.6566 29 14.4667 29H44.5333C45.3434 29 46 28.3434 46 27.5333V8.46667C46 7.65665 45.3434 7 44.5333 7Z" fill="#FCD202"/>
<path fill-rule="evenodd" clip-rule="evenodd" d="M38.637 17.426L38.9079 16.1526H16.8005L16.5294 17.426H38.637Z" fill="white"/>
<path fill-rule="evenodd" clip-rule="evenodd" d="M41.2997 14.4169C41.2997 14.4169 41.5962 13.0677 41.6003 13.0551H39.7165C39.7165 13.0636 39.327 14.8455 39.327 14.854H39.8097C39.8138 14.854 40.106 13.509 40.106 13.509H41.0203C41.0203 13.509 40.7324 14.8581 40.724 14.8666H42.1167L41.9348 15.6987H40.5503C40.5503 15.7072 40.271 16.968 40.271 16.968H39.2254C39.2254 16.9721 39.1322 17.4218 39.1281 17.426H40.6688C40.6688 17.4218 40.9442 16.1526 40.9442 16.1526H42.3285C42.3285 16.1484 42.6926 14.4252 42.6926 14.4169H41.2997Z" fill="#ED1C24"/>
<path fill-rule="evenodd" clip-rule="evenodd" d="M37.8909 14.8163C38.0898 14.8163 38.2253 14.9507 38.2253 15.1735C38.2253 15.2112 38.2211 15.2448 38.217 15.2827H37.3575C37.4464 15.0012 37.6368 14.8163 37.8909 14.8163ZM38.3184 16.489L38.4286 15.9888C38.2423 16.0518 38.0602 16.1021 37.8275 16.1021C37.5564 16.1021 37.3194 16.0098 37.3068 15.6861H38.7038C38.7545 15.5221 38.7841 15.3584 38.7841 15.2071C38.7841 14.7447 38.5132 14.3664 37.9332 14.3664C37.1796 14.3664 36.7225 14.9802 36.7225 15.6568C36.7225 16.2367 37.1119 16.5772 37.7173 16.5772C37.9628 16.5772 38.1575 16.5393 38.3184 16.489ZM36.0198 16.0644C35.7446 16.0644 35.5583 15.9468 35.5583 15.6064C35.5583 15.2071 35.8122 14.875 36.2146 14.875C36.3416 14.875 36.4855 14.9128 36.6294 14.9676L36.731 14.4884C36.5658 14.4296 36.371 14.3875 36.1764 14.3875C35.5117 14.3875 34.9444 14.8792 34.9444 15.6359C34.9444 16.2578 35.3297 16.5519 35.8842 16.5519C36.0705 16.5519 36.2271 16.5183 36.3416 16.4722L36.4516 15.9803C36.3246 16.0266 36.1848 16.0644 36.0198 16.0644ZM33.0945 16.5141L33.3274 15.4508C33.4204 15.0221 33.6322 14.875 33.8523 14.875C34.136 14.875 34.1699 15.0853 34.1147 15.3247L33.8607 16.5141H34.4661L34.7328 15.2953C34.864 14.6859 34.5804 14.3664 34.136 14.3664C33.8903 14.3664 33.6534 14.4631 33.4501 14.6775L33.5051 14.4296H32.9421L32.4891 16.5141H33.0945ZM30.9186 15.9131C30.9186 15.7031 31.1049 15.5852 31.4138 15.5852C31.4732 15.5852 31.6042 15.5896 31.723 15.6064L31.6975 15.7241C31.6254 15.9718 31.4224 16.1402 31.1812 16.1402C31.0075 16.1402 30.9186 16.0561 30.9186 15.9131ZM31.5029 14.379C31.2234 14.379 30.9398 14.4421 30.8467 14.4715L30.7451 14.9549C30.8803 14.9172 31.1471 14.8456 31.3843 14.8456C31.7017 14.8456 31.816 14.9422 31.816 15.1062C31.816 15.1355 31.816 15.1693 31.8077 15.2028L31.7991 15.2448C31.6467 15.2281 31.5029 15.2156 31.4349 15.2156C30.8339 15.2156 30.3515 15.4466 30.3515 15.993C30.3515 16.3502 30.6307 16.5646 30.9948 16.5646C31.2531 16.5646 31.4732 16.4637 31.6171 16.2956L31.5705 16.5141H32.1081L32.3706 15.3206C32.3918 15.2322 32.4001 15.1399 32.4001 15.0516C32.4001 14.6943 32.2013 14.379 31.5029 14.379ZM28.5691 16.5141L28.8019 15.4508C28.8951 15.0221 29.1066 14.875 29.327 14.875C29.6107 14.875 29.6444 15.0853 29.5895 15.3247L29.3354 16.5141H29.9407L30.2073 15.2953C30.3386 14.6859 30.0551 14.3664 29.6107 14.3664C29.3648 14.3664 29.1277 14.4631 28.9246 14.6775L28.9796 14.4296H28.4166L27.9636 16.5141H28.5691ZM27.4854 13.8537C27.4726 14.0428 27.6124 14.1899 27.7986 14.1899C28.006 14.1899 28.1542 14.0428 28.1667 13.8537C28.1796 13.6647 28.0399 13.5175 27.8536 13.5175C27.6462 13.5175 27.498 13.6647 27.4854 13.8537ZM27.4006 14.4296L26.9477 16.5141H27.5489L28.0019 14.4296H27.4006ZM25.6902 16.5141L25.9273 15.4256H26.8419L26.952 14.8918H26.0417L26.1815 14.2236H27.1425L27.261 13.6897H25.6735L25.0724 16.5141H25.6902ZM25.0934 14.8877L25.1908 14.4296H24.5433L24.6701 13.8496L24.0393 13.9882L23.6456 15.7701C23.5357 16.2746 23.8149 16.5519 24.3229 16.5519C24.4289 16.5519 24.6065 16.531 24.7337 16.489L24.8353 16.0308C24.7337 16.0561 24.6065 16.0812 24.4966 16.0812C24.3229 16.0812 24.2001 16.0225 24.2426 15.8122L24.4416 14.8877H25.0934ZM22.7989 15.9005C22.7989 16.0687 22.5916 16.098 22.418 16.098C22.1978 16.098 21.9524 16.0393 21.8213 15.9971L21.7195 16.4678C21.9101 16.5141 22.1513 16.5519 22.3799 16.5519C22.9216 16.5519 23.3621 16.3502 23.3621 15.8459C23.3621 15.1944 22.5747 15.308 22.5747 15.018C22.5747 14.8877 22.7017 14.8414 22.9005 14.8414C23.091 14.8414 23.358 14.9172 23.4467 14.9422L23.5483 14.4674C23.3663 14.417 23.1504 14.3875 22.9556 14.3875C22.3673 14.3875 22.0117 14.6482 22.0117 15.0811C22.0117 15.7155 22.7989 15.6106 22.7989 15.9005ZM20.5214 16.5772C21.1861 16.5772 21.6349 16.098 21.7364 15.4719C21.8423 14.8456 21.491 14.3664 20.8262 14.3664C20.1617 14.3664 19.7129 14.8456 19.6113 15.4719C19.5055 16.098 19.8569 16.5772 20.5214 16.5772ZM20.5767 16.0939C20.3352 16.0939 20.1448 15.9047 20.2335 15.4719C20.3224 15.039 20.5342 14.8499 20.7755 14.8499C21.0168 14.8499 21.2073 15.0431 21.1141 15.4719C21.0252 15.9005 20.8178 16.0939 20.5767 16.0939ZM18.0238 15.6525H18.2906C19.1415 15.6525 19.6157 15.2365 19.6157 14.543C19.6157 14.026 19.2471 13.6897 18.6164 13.6897H17.8292L17.228 16.5141H17.8376L18.0238 15.6525ZM18.1296 15.1355L18.3286 14.2068H18.5826C18.862 14.2068 18.9974 14.3203 18.9974 14.5851C18.9974 14.9255 18.7816 15.1355 18.3838 15.1355H18.1296Z" fill="#231F20"/>
<path fill-rule="evenodd" clip-rule="evenodd" d="M27.9189 20.2396H26.6115L26.5009 20.7576H27.701L27.6088 21.1813H26.4087L26.2746 21.8085H27.6423L27.5484 22.2471H25.6762L26.2008 19.8076H28.0127L27.9189 20.2396ZM28.0194 21.0787H28.9815L28.8843 21.5255H27.9222L28.0194 21.0787ZM29.6168 19.8109H31.3683L31.2761 20.2396H30.0375L29.9168 20.8006H31.0013L30.9107 21.2243H29.8263L29.6067 22.2471H29.0938L29.6168 19.8109ZM32.0773 20.228H31.5929L31.6868 19.7927H32.1712L32.0773 20.228ZM31.546 20.4431H32.0304L31.6432 22.2471H31.1588L31.546 20.4431ZM34.0233 21.0323L33.7618 22.2471H33.2724L33.5071 21.1498C33.5283 21.0549 33.5311 20.9821 33.5154 20.9314C33.4886 20.8387 33.4093 20.7923 33.2774 20.7923C33.1154 20.7923 32.9897 20.8602 32.9003 20.9959C32.8534 21.0676 32.8182 21.1592 32.7947 21.2706L32.5852 22.2471H32.1092L32.4964 20.4464H32.9573L32.9003 20.7096C32.9819 20.6169 33.0545 20.5501 33.1182 20.5093C33.2322 20.4365 33.3646 20.4001 33.5154 20.4001C33.7043 20.4001 33.8482 20.4489 33.947 20.5466C34.0459 20.6442 34.0714 20.8061 34.0233 21.0323ZM35.3977 21.3699C35.3642 21.3887 35.3307 21.4039 35.2972 21.4155C35.2636 21.427 35.219 21.4378 35.1631 21.4477L35.0525 21.4676C34.9474 21.4852 34.8703 21.5068 34.8211 21.5321C34.7385 21.5752 34.6876 21.6419 34.6686 21.7324C34.6507 21.8129 34.6605 21.8711 34.698 21.907C34.7354 21.9429 34.7865 21.9608 34.8513 21.9608C34.9541 21.9608 35.0552 21.931 35.1547 21.8714C35.2541 21.8118 35.3229 21.7032 35.3609 21.5454L35.3977 21.3699ZM35.1547 21.1498C35.2463 21.1388 35.3128 21.125 35.3542 21.1084C35.4279 21.0798 35.4715 21.0351 35.4849 20.9744C35.5005 20.9005 35.4855 20.8494 35.4396 20.8213C35.3938 20.7932 35.3206 20.7791 35.2201 20.7791C35.1072 20.7791 35.0212 20.8067 34.9619 20.8618C34.9206 20.9027 34.8865 20.9578 34.8597 21.0274H34.3988C34.4435 20.8696 34.5161 20.7399 34.6167 20.6384C34.7776 20.4795 35.0117 20.4001 35.319 20.4001C35.519 20.4001 35.6883 20.4393 35.8268 20.5176C35.9654 20.5959 36.0112 20.7438 35.9643 20.9611L35.7849 21.7887C35.7726 21.846 35.7592 21.9156 35.7447 21.9972C35.7346 22.059 35.7349 22.1009 35.7455 22.123C35.7561 22.1451 35.7754 22.1633 35.8034 22.1776L35.79 22.2471H35.2704C35.2636 22.2107 35.2609 22.1765 35.262 22.1445C35.2631 22.1125 35.2664 22.0761 35.272 22.0353C35.1905 22.1059 35.1016 22.166 35.0055 22.2157C34.8893 22.2741 34.7664 22.3034 34.6368 22.3034C34.4714 22.3034 34.3449 22.2568 34.2571 22.1635C34.1694 22.0703 34.144 21.9382 34.1809 21.7672C34.2289 21.5454 34.3502 21.3848 34.5446 21.2855C34.6507 21.2315 34.7988 21.1929 34.9888 21.1697L35.1547 21.1498ZM38.0293 21.0323L37.7678 22.2471H37.2784L37.513 21.1498C37.5342 21.0549 37.537 20.9821 37.5214 20.9314C37.4946 20.8387 37.4152 20.7923 37.2834 20.7923C37.1214 20.7923 36.9956 20.8602 36.9062 20.9959C36.8593 21.0676 36.8241 21.1592 36.8007 21.2706L36.5911 22.2471H36.1151L36.5023 20.4464H36.9632L36.9062 20.7096C36.9878 20.6169 37.0605 20.5501 37.1241 20.5093C37.2381 20.4365 37.3705 20.4001 37.5214 20.4001C37.7102 20.4001 37.8541 20.4489 37.953 20.5466C38.0519 20.6442 38.0773 20.8061 38.0293 21.0323ZM39.5478 21.0902C39.5534 21.0229 39.5434 20.9623 39.5177 20.9082C39.4797 20.8354 39.4042 20.799 39.2914 20.799C39.1305 20.799 39.0036 20.8778 38.9109 21.0356C38.8617 21.1195 38.8221 21.2309 38.7919 21.3699C38.764 21.5023 38.7567 21.6088 38.7701 21.6894C38.7947 21.8394 38.8858 21.9144 39.0433 21.9144C39.1551 21.9144 39.2408 21.8847 39.3006 21.8251C39.3604 21.7655 39.4054 21.6883 39.4355 21.5934H39.9233C39.8819 21.7368 39.8004 21.8725 39.6786 22.0005C39.4841 22.2068 39.24 22.31 38.9461 22.31C38.6522 22.31 38.4547 22.2239 38.3536 22.0518C38.2525 21.8797 38.2315 21.6563 38.2907 21.3815C38.3567 21.0715 38.4849 20.8304 38.6754 20.6583C38.8659 20.4862 39.0958 20.4001 39.3651 20.4001C39.5942 20.4001 39.7707 20.4508 39.8948 20.5524C40.0188 20.6539 40.0663 20.8332 40.0373 21.0902H39.5478ZM40.6993 21.1647H41.4418C41.4608 21.04 41.4427 20.9454 41.3874 20.8809C41.3321 20.8163 41.2536 20.7841 41.1519 20.7841C41.0413 20.7841 40.9482 20.8183 40.8728 20.8867C40.7974 20.9551 40.7395 21.0478 40.6993 21.1647ZM41.8726 20.746C41.9218 20.853 41.9413 20.9771 41.9313 21.1184C41.9268 21.2011 41.9067 21.3203 41.8709 21.4759H40.6205C40.5881 21.6568 40.6183 21.7837 40.7111 21.8565C40.7669 21.9018 40.8412 21.9244 40.934 21.9244C41.0323 21.9244 41.1184 21.8968 41.1921 21.8416C41.2312 21.8118 41.2698 21.7705 41.3078 21.7175H41.7955C41.7597 21.8245 41.6799 21.9332 41.5558 22.0435C41.3614 22.219 41.1234 22.3067 40.8418 22.3067C40.6094 22.3067 40.4202 22.2328 40.2744 22.0849C40.1286 21.9371 40.0914 21.6965 40.163 21.3633C40.23 21.0511 40.3616 20.8116 40.5577 20.645C40.7538 20.4784 40.9798 20.3951 41.2357 20.3951C41.3877 20.3951 41.5187 20.4233 41.6287 20.4795C41.7388 20.5358 41.8201 20.6246 41.8726 20.746Z" fill="black"/>
</svg>
