<svg width="510" height="529" viewBox="0 0 510 529" fill="none" xmlns="http://www.w3.org/2000/svg">
<g id="Group 5">
<g id="Group 4">
<g id="p">
<g id="Group 3">
<g id="part">
<g id="graph">
<g id="Group 2">
<g id="Group 1">
<g id="partThree">
<path id="Vector" d="M467.544 417.113L256.001 294.738L44.456 416.63C66.545 449.041 95.78 476.008 129.88 495.27C168.403 517.029 212.151 528.529 256.393 528.529C301.087 528.529 345.298 516.643 384.248 494.156C417.526 474.944 446.012 448.533 467.544 417.113Z" fill="#A3D0EA"/>
<path id="Vector_2" d="M435 398.64L256.001 295L77 398.231C95.6908 425.681 120.428 448.519 149.282 464.832C181.879 483.26 218.897 493 256.333 493C294.151 493 331.56 482.933 364.518 463.889C392.677 447.618 416.78 425.25 435 398.64Z" fill="#008AD8"/>
<path id="Vector_3" d="M54.1592 392.877L58.0308 392.265L89.3442 387.29L92.0938 386.861C92.2807 386.833 92.4127 386.854 92.4819 386.924C92.5511 386.995 92.556 387.112 92.4963 387.269C92.4366 387.426 92.3135 387.619 92.1346 387.838C91.9557 388.056 91.7247 388.295 91.4556 388.539C91.2035 388.767 90.9226 388.996 90.6287 389.212L77.2409 399.082C76.6291 399.533 76.0867 400.026 75.7319 400.454C75.377 400.881 75.2386 401.209 75.3468 401.365L96.4589 430.003C96.5715 430.156 96.4376 430.48 96.0865 430.907C95.7353 431.333 95.1954 431.825 94.5845 432.278L75.6813 446.213C75.0667 446.666 74.4323 447.039 73.9178 447.251C73.4032 447.463 73.0506 447.496 72.9375 447.343L51.8255 418.704C51.7091 418.556 51.3581 418.59 50.8483 418.8C50.3385 419.01 49.711 419.378 49.1013 419.826L35.4155 429.915C35.1219 430.132 34.8203 430.333 34.5276 430.506C34.2143 430.691 33.9177 430.841 33.6561 430.947C33.3945 431.053 33.1734 431.113 33.0062 431.123C32.839 431.133 32.7293 431.093 32.6837 431.005C32.6382 430.917 32.6577 430.784 32.7412 430.613L33.9954 428.093L48.2482 399.476L50.006 395.935C50.1278 395.696 50.3648 395.396 50.6904 395.069C51.016 394.742 51.4172 394.4 51.8489 394.082C52.2806 393.764 52.7256 393.483 53.1338 393.27C53.542 393.057 53.8971 392.921 54.1592 392.877V392.877Z" fill="#A3D0EA"/>
</g>
<g id="partOne">
<path id="Vector_4" d="M0 272.925C0 311.35 8.628 349.224 25.074 383.581L236.52 261.501L236.482 17.4607C104.383 27.5687 0 138.283 0 272.925Z" fill="#A3D0EA"/>
<path id="Vector_5" d="M33 271.794C33 304.854 40.4417 337.44 54.6265 367L237 261.965L236.967 51.9997C123.031 60.6964 33 155.952 33 271.794Z" fill="#008AD8"/>
<path id="Vector_6" d="M246.694 36.8936L245.564 40.1631L236.442 66.6195L235.636 68.9384C235.581 69.0956 235.517 69.1848 235.449 69.2008C235.382 69.2168 235.311 69.1591 235.241 69.0313C235.172 68.9036 235.105 68.7084 235.045 68.4576C234.986 68.2069 234.934 67.9058 234.894 67.5729C234.857 67.2611 234.83 66.9274 234.816 66.5901L234.158 51.2208C234.128 50.5186 234.046 49.847 233.931 49.3526C233.816 48.8583 233.676 48.5812 233.543 48.5819L208.559 49.6514C208.425 49.6571 208.286 49.3849 208.17 48.8941C208.054 48.4033 207.972 47.7338 207.941 47.0316L207.012 25.3307C206.982 24.6252 207.006 23.9462 207.079 23.4433C207.153 22.9403 207.269 22.6545 207.403 22.6488L232.387 21.5794C232.52 21.5687 232.634 21.2834 232.707 20.7851C232.78 20.2868 232.804 19.6156 232.775 18.9166L232.103 3.20529C232.088 2.86799 232.086 2.53318 232.096 2.2194C232.108 1.88388 232.134 1.57941 232.172 1.3246C232.211 1.0698 232.261 0.870008 232.319 0.737436C232.377 0.604865 232.443 0.5423 232.512 0.553563C232.582 0.564826 232.653 0.649678 232.721 0.80294L233.722 3.07885L245.083 28.9326L246.492 32.1277C246.585 32.3454 246.671 32.683 246.738 33.1026C246.805 33.5221 246.852 34.0068 246.873 34.5022C246.894 34.9976 246.888 35.4839 246.857 35.9064C246.825 36.3289 246.769 36.6708 246.694 36.8936Z" fill="#A3D0EA"/>
</g>
<g id="partTwo">
<path id="Vector_7" d="M378.92 50.661C345.482 31.357 308.167 19.865 270 17L270.038 261.503L481.69 383.699C508.396 328.44 514.349 266.132 498.302 206.241C480.587 140.134 438.19 84.881 378.92 50.661Z" fill="#A3D0EA"/>
<path id="Vector_8" d="M363.84 80.9153C335.075 64.3329 302.975 54.4611 270.142 52L270.175 262.032L452.247 367C475.221 319.532 480.342 266.008 466.537 214.561C451.298 157.774 414.826 110.311 363.84 80.9153Z" fill="#008AD8"/>
<path id="Vector_9" d="M458.756 381.202L456.436 378.636L437.656 357.888L436.013 356.064C435.902 355.94 435.854 355.842 435.873 355.774C435.892 355.707 435.976 355.673 436.122 355.674C436.267 355.674 436.47 355.71 436.719 355.779C436.967 355.847 437.256 355.947 437.567 356.072C437.858 356.19 438.163 356.328 438.466 356.478L452.248 363.312C452.878 363.624 453.505 363.876 453.994 364.014C454.482 364.151 454.792 364.162 454.856 364.045L465.965 341.641C466.024 341.522 466.33 341.53 466.816 341.666C467.302 341.801 467.928 342.052 468.558 342.363L488.018 352.012C488.651 352.326 489.234 352.674 489.639 352.981C490.045 353.288 490.239 353.527 490.179 353.647L479.07 376.052C479.016 376.173 479.21 376.411 479.612 376.715C480.013 377.019 480.59 377.364 481.216 377.675L495.305 384.661C495.607 384.811 495.902 384.971 496.171 385.131C496.46 385.303 496.714 385.473 496.919 385.629C497.124 385.786 497.275 385.926 497.363 386.041C497.45 386.156 497.474 386.244 497.43 386.299C497.387 386.354 497.279 386.375 497.111 386.362L494.635 386.141L466.507 383.629L463.028 383.323C462.793 383.3 462.456 383.212 462.056 383.069C461.656 382.925 461.208 382.733 460.764 382.512C460.32 382.292 459.897 382.052 459.542 381.821C459.187 381.589 458.915 381.375 458.756 381.202Z" fill="#A3D0EA"/>
</g>
</g>
</g>
</g>
</g>
</g>
</g>
</g>
</g>
</svg>
