<svg width="509" height="529" viewBox="0 0 509 529" fill="none" xmlns="http://www.w3.org/2000/svg">
<g id="Group 4">
<g id="p">
<g id="Group 3">
<g id="part">
<g id="graph">
<g id="Group 2">
<g id="Group 1">
<g id="partThree">
<path id="Vector" d="M467.544 417.113L256.001 294.738L44.456 416.63C66.545 449.041 95.78 476.008 129.88 495.27C168.403 517.029 212.151 528.529 256.393 528.529C301.087 528.529 345.298 516.643 384.248 494.156C417.526 474.944 446.012 448.533 467.544 417.113Z" fill="#A3D0EA"/>
<path id="Vector_2" d="M435 398.64L256.001 295L77 398.231C95.6908 425.681 120.428 448.519 149.282 464.832C181.879 483.26 218.897 493 256.333 493C294.151 493 331.56 482.933 364.518 463.889C392.677 447.618 416.78 425.25 435 398.64Z" fill="#008AD8"/>
<path id="Vector_3" d="M54.1592 392.877L58.0308 392.265L89.3442 387.29L92.0938 386.861C92.2807 386.833 92.4127 386.854 92.4819 386.924C92.5511 386.995 92.556 387.112 92.4963 387.269C92.4366 387.426 92.3135 387.619 92.1346 387.838C91.9557 388.056 91.7247 388.295 91.4556 388.539C91.2035 388.767 90.9226 388.996 90.6287 389.212L77.2409 399.082C76.6291 399.533 76.0867 400.026 75.7319 400.454C75.377 400.881 75.2386 401.209 75.3468 401.365L96.4589 430.003C96.5715 430.156 96.4376 430.48 96.0865 430.907C95.7353 431.333 95.1954 431.825 94.5845 432.278L75.6813 446.213C75.0667 446.666 74.4323 447.039 73.9178 447.251C73.4032 447.463 73.0506 447.496 72.9375 447.343L51.8255 418.704C51.7091 418.556 51.3581 418.59 50.8483 418.8C50.3385 419.01 49.711 419.378 49.1013 419.826L35.4155 429.915C35.1219 430.132 34.8203 430.333 34.5276 430.506C34.2143 430.691 33.9177 430.841 33.6561 430.947C33.3945 431.053 33.1734 431.113 33.0062 431.123C32.839 431.133 32.7293 431.093 32.6837 431.005C32.6382 430.917 32.6577 430.784 32.7412 430.613L33.9954 428.093L48.2482 399.476L50.006 395.935C50.1278 395.696 50.3648 395.396 50.6904 395.069C51.016 394.742 51.4172 394.4 51.8489 394.082C52.2806 393.764 52.7256 393.483 53.1338 393.27C53.542 393.057 53.8971 392.921 54.1592 392.877V392.877Z" fill="#A3D0EA"/>
</g>
<g id="partOne">
<path id="Vector_4" d="M0 272.925C0 311.35 8.628 349.224 25.074 383.581L236.52 261.501L236.482 17.4607C104.383 27.5687 0 138.283 0 272.925Z" fill="#A3D0EA"/>
<path id="Vector_5" d="M33 271.794C33 304.854 40.4417 337.44 54.6265 367L237 261.965L236.967 51.9997C123.031 60.6964 33 155.952 33 271.794Z" fill="#008AD8"/>
<path id="Vector_6" d="M246.694 36.8936L245.564 40.1631L236.442 66.6195L235.636 68.9384C235.581 69.0956 235.517 69.1848 235.449 69.2008C235.382 69.2168 235.311 69.1591 235.241 69.0313C235.172 68.9036 235.105 68.7084 235.045 68.4576C234.986 68.2069 234.934 67.9058 234.894 67.5729C234.857 67.2611 234.83 66.9274 234.816 66.5901L234.158 51.2208C234.128 50.5186 234.046 49.847 233.931 49.3526C233.816 48.8583 233.676 48.5812 233.543 48.5819L208.559 49.6514C208.425 49.6571 208.286 49.3849 208.17 48.8941C208.054 48.4033 207.972 47.7338 207.941 47.0316L207.012 25.3307C206.982 24.6252 207.006 23.9462 207.079 23.4433C207.153 22.9403 207.269 22.6545 207.403 22.6488L232.387 21.5794C232.52 21.5687 232.634 21.2834 232.707 20.7851C232.78 20.2868 232.804 19.6156 232.775 18.9166L232.103 3.20529C232.088 2.86799 232.086 2.53318 232.096 2.2194C232.108 1.88388 232.134 1.57941 232.172 1.3246C232.211 1.0698 232.261 0.870008 232.319 0.737436C232.377 0.604865 232.443 0.5423 232.512 0.553563C232.582 0.564826 232.653 0.649678 232.721 0.80294L233.722 3.07885L245.083 28.9326L246.492 32.1277C246.585 32.3454 246.671 32.683 246.738 33.1026C246.805 33.5221 246.852 34.0068 246.873 34.5022C246.894 34.9976 246.888 35.4839 246.857 35.9064C246.825 36.3289 246.769 36.6708 246.694 36.8936Z" fill="#A3D0EA"/>
</g>
<g id="partTwo">
<path id="Vector_7" d="M377.92 52.661C344.482 33.357 307.167 21.865 269 19L269.038 263.503L480.69 385.699C507.396 330.44 513.349 268.132 497.302 208.241C479.587 142.134 437.19 86.881 377.92 52.661Z" fill="#A3D0EA"/>
<path id="Vector_8" d="M362.84 82.9153C334.075 66.3329 301.975 56.4611 269.142 54L269.175 264.032L451.247 369C474.221 321.532 479.342 268.008 465.537 216.561C450.298 159.774 413.826 112.311 362.84 82.9153Z" fill="#008AD8"/>
<path id="Vector_9" d="M457.756 383.202L455.436 380.636L436.656 359.888L435.013 358.064C434.902 357.94 434.854 357.842 434.873 357.774C434.892 357.707 434.976 357.673 435.122 357.674C435.267 357.674 435.47 357.71 435.719 357.779C435.967 357.847 436.256 357.947 436.567 358.072C436.858 358.19 437.163 358.328 437.466 358.478L451.248 365.312C451.878 365.624 452.505 365.876 452.994 366.014C453.482 366.151 453.792 366.162 453.856 366.045L464.965 343.641C465.024 343.522 465.33 343.53 465.816 343.666C466.302 343.801 466.928 344.052 467.558 344.363L487.018 354.012C487.651 354.326 488.234 354.674 488.639 354.981C489.045 355.288 489.239 355.527 489.179 355.647L478.07 378.052C478.016 378.173 478.21 378.411 478.612 378.715C479.013 379.019 479.59 379.364 480.216 379.675L494.305 386.661C494.607 386.811 494.902 386.971 495.171 387.131C495.46 387.303 495.714 387.473 495.919 387.629C496.124 387.786 496.275 387.926 496.363 388.041C496.45 388.156 496.474 388.244 496.43 388.299C496.387 388.354 496.279 388.375 496.111 388.362L493.635 388.141L465.507 385.629L462.028 385.323C461.793 385.3 461.456 385.212 461.056 385.069C460.656 384.925 460.208 384.733 459.764 384.512C459.32 384.292 458.897 384.052 458.542 383.821C458.187 383.589 457.915 383.375 457.756 383.202Z" fill="#A3D0EA"/>
</g>
</g>
</g>
</g>
</g>
</g>
</g>
</g>
</svg>
