<?xml version="1.0" encoding="utf-8"?>
<!-- Generator: Adobe Illustrator 22.1.0, SVG Export Plug-In . SVG Version: 6.00 Build 0)  -->
<svg version="1.1" id="Ebene_1" xmlns="http://www.w3.org/2000/svg" xmlns:xlink="http://www.w3.org/1999/xlink" x="0px" y="0px"
	 viewBox="0 0 201 766" style="enable-background:new 0 0 201 766;" xml:space="preserve">
<style type="text/css">
	.st0{opacity:0.4;fill:#79170E;}
	.st1{fill:url(#SVGID_1_);}
	.st2{fill:#9A9999;}
	.st3{fill:url(#SVGID_2_);}
	.st4{fill:url(#SVGID_3_);}
	.st5{fill:url(#SVGID_4_);}
	.st6{fill:#999999;}
	.st7{fill:#B3B2B2;}
	.st8{fill:#929292;}
	.st9{fill:#C7C6C6;}
	.st10{fill:#B7B7B6;}
	.st11{fill:url(#SVGID_5_);}
	.st12{fill:url(#SVGID_6_);}
	.st13{fill:#D8D8D8;}
	.st14{fill:#515151;}
	.st15{fill:url(#SVGID_7_);}
	.st16{fill:url(#SVGID_8_);}
	.st17{opacity:0.25;fill:url(#SVGID_9_);enable-background:new    ;}
</style>
<g>
	<linearGradient id="SVGID_1_" gradientUnits="userSpaceOnUse" x1="98.1546" y1="6.3942" x2="98.1546" y2="246.6259">
		<stop  offset="0" style="stop-color:#FFFFFF"/>
		<stop  offset="1" style="stop-color:#EDEDED"/>
	</linearGradient>
	<rect x="6.1" y="6.4" class="st1" width="184.1" height="238.8"/>
	<path class="st2" d="M190.4,245.4H5.9V6.2h184.4V245.4z M6.3,245.1H190V6.6H6.3V245.1z"/>
</g>
<g>
	<linearGradient id="SVGID_2_" gradientUnits="userSpaceOnUse" x1="98.3559" y1="245.2214" x2="98.3559" y2="485.4532">
		<stop  offset="0" style="stop-color:#FFFFFF"/>
		<stop  offset="1" style="stop-color:#EDEDED"/>
	</linearGradient>
	<rect x="6.1" y="245.2" class="st3" width="184.5" height="238.8"/>
	<path class="st2" d="M190.8,484.2H5.9V245.1h184.8V484.2z M6.3,483.9h184.2V245.4H6.3V483.9z"/>
</g>
<g>
	<linearGradient id="SVGID_3_" gradientUnits="userSpaceOnUse" x1="98.3559" y1="485.2056" x2="98.3559" y2="725.4374">
		<stop  offset="0" style="stop-color:#FFFFFF"/>
		<stop  offset="1" style="stop-color:#EDEDED"/>
	</linearGradient>
	<rect x="6.1" y="485.2" class="st4" width="184.5" height="238.8"/>
	<path class="st2" d="M190.8,724.2H5.9V485h184.8V724.2z M6.3,723.9h184.2V485.4H6.3V723.9z"/>
</g>
<g>
	<g>
		<g>
			<linearGradient id="SVGID_4_" gradientUnits="userSpaceOnUse" x1="16.9604" y1="123.5647" x2="55.9025" y2="123.5647">
				<stop  offset="0" style="stop-color:#C6C6C6"/>
				<stop  offset="0.5246" style="stop-color:#EDEDED"/>
				<stop  offset="0.6551" style="stop-color:#E6E6E6"/>
				<stop  offset="0.8647" style="stop-color:#D5D5D5"/>
				<stop  offset="1" style="stop-color:#C6C6C6"/>
			</linearGradient>
			<path class="st5" d="M18.3,145.5h36.2c0.8,0,1.4-0.6,1.4-1.4V103c0-0.8-0.6-1.4-1.4-1.4H18.3c-0.8,0-1.4,0.6-1.4,1.4v41.1
				C17,144.9,17.6,145.5,18.3,145.5z"/>
			<path class="st6" d="M54.5,145.6H18.3c-0.8,0-1.5-0.7-1.5-1.5V103c0-0.8,0.7-1.5,1.5-1.5h36.2c0.8,0,1.5,0.7,1.5,1.5v41.1
				C56,144.9,55.3,145.6,54.5,145.6z M18.3,101.8c-0.7,0-1.3,0.6-1.3,1.3v41.1c0,0.7,0.6,1.3,1.3,1.3h36.2c0.7,0,1.3-0.6,1.3-1.3
				V103c0-0.7-0.6-1.3-1.3-1.3H18.3z"/>
		</g>
	</g>
	<g>
		<path class="st7" d="M40.2,129.4c0,1.6-1.3,3-2.9,3c-1.6,0-2.9-1.3-2.9-3c0-1.6,1.3-3,2.9-3C38.9,126.4,40.2,127.7,40.2,129.4z"/>
	</g>
	<g>
		<path class="st7" d="M39.4,134c0,2.3-1,4.2-2.2,4.2c-1.2,0-2.2-1.9-2.2-4.2c0-2.3,1-4.2,2.2-4.2C38.5,129.8,39.4,131.7,39.4,134z"
			/>
	</g>
	<g>
		<g>
			<path class="st8" d="M40,129.4c0,1.5-1.2,2.7-2.7,2.7c-1.5,0-2.7-1.2-2.7-2.7c0-1.5,1.2-2.7,2.7-2.7
				C38.8,126.6,40,127.9,40,129.4z"/>
		</g>
		<g>
			<path class="st9" d="M39.1,130.3c0,0.8-0.8,1.4-1.8,1.4c-1,0-1.8-0.6-1.8-1.4c0-0.8,0.8-1.4,1.8-1.4
				C38.3,128.8,39.1,129.5,39.1,130.3z"/>
		</g>
	</g>
	<g>
		<g>
			<path class="st8" d="M39.2,134.1c0,2.1-0.9,3.9-2,3.9c-1.1,0-2-1.7-2-3.9c0-2.1,0.9-3.9,2-3.9C38.3,130.2,39.2,131.9,39.2,134.1z
				"/>
		</g>
		<g>
			<path class="st9" d="M38.6,135.4c0,1.1-0.6,2-1.3,2c-0.7,0-1.3-0.9-1.3-2c0-1.1,0.6-2,1.3-2C38,133.3,38.6,134.3,38.6,135.4z"/>
		</g>
	</g>
	<path class="st10" d="M39.7,129.4c0-1.4-1.1-2.5-2.4-2.5c-1.3,0-2.4,1.1-2.4,2.5c0,0.9,0.5,1.7,1.3,2.2c-0.3,0.6-0.6,1.5-0.6,2.5
		c0,1.9,0.8,3.5,1.8,3.5c1,0,1.8-1.6,1.8-3.5c0-1-0.2-1.9-0.6-2.6C39.2,131.1,39.7,130.3,39.7,129.4z"/>
</g>
<g>
	<g>
		<g>
			<linearGradient id="SVGID_5_" gradientUnits="userSpaceOnUse" x1="16.9604" y1="366.3918" x2="55.9025" y2="366.3918">
				<stop  offset="0" style="stop-color:#C6C6C6"/>
				<stop  offset="0.5246" style="stop-color:#EDEDED"/>
				<stop  offset="0.6551" style="stop-color:#E6E6E6"/>
				<stop  offset="0.8647" style="stop-color:#D5D5D5"/>
				<stop  offset="1" style="stop-color:#C6C6C6"/>
			</linearGradient>
			<path class="st11" d="M18.3,388.3h36.2c0.8,0,1.4-0.6,1.4-1.4v-41.1c0-0.8-0.6-1.4-1.4-1.4H18.3c-0.8,0-1.4,0.6-1.4,1.4v41.1
				C17,387.7,17.6,388.3,18.3,388.3z"/>
			<path class="st6" d="M54.5,388.4H18.3c-0.8,0-1.5-0.7-1.5-1.5v-41.1c0-0.8,0.7-1.5,1.5-1.5h36.2c0.8,0,1.5,0.7,1.5,1.5v41.1
				C56,387.7,55.3,388.4,54.5,388.4z M18.3,344.6c-0.7,0-1.3,0.6-1.3,1.3v41.1c0,0.7,0.6,1.3,1.3,1.3h36.2c0.7,0,1.3-0.6,1.3-1.3
				v-41.1c0-0.7-0.6-1.3-1.3-1.3H18.3z"/>
		</g>
	</g>
	<g>
		<path class="st7" d="M40.2,372.2c0,1.6-1.3,3-2.9,3c-1.6,0-2.9-1.3-2.9-3c0-1.6,1.3-3,2.9-3C38.9,369.2,40.2,370.6,40.2,372.2z"/>
	</g>
	<g>
		<path class="st7" d="M39.4,376.8c0,2.3-1,4.2-2.2,4.2c-1.2,0-2.2-1.9-2.2-4.2c0-2.3,1-4.2,2.2-4.2
			C38.5,372.6,39.4,374.5,39.4,376.8z"/>
	</g>
	<g>
		<g>
			<path class="st8" d="M40,372.2c0,1.5-1.2,2.7-2.7,2.7c-1.5,0-2.7-1.2-2.7-2.7c0-1.5,1.2-2.7,2.7-2.7
				C38.8,369.5,40,370.7,40,372.2z"/>
		</g>
		<g>
			<path class="st9" d="M39.1,373.1c0,0.8-0.8,1.4-1.8,1.4c-1,0-1.8-0.6-1.8-1.4c0-0.8,0.8-1.4,1.8-1.4
				C38.3,371.7,39.1,372.3,39.1,373.1z"/>
		</g>
	</g>
	<g>
		<g>
			<path class="st8" d="M39.2,376.9c0,2.1-0.9,3.9-2,3.9c-1.1,0-2-1.7-2-3.9c0-2.1,0.9-3.9,2-3.9C38.3,373,39.2,374.8,39.2,376.9z"
				/>
		</g>
		<g>
			<path class="st9" d="M38.6,378.2c0,1.1-0.6,2-1.3,2c-0.7,0-1.3-0.9-1.3-2c0-1.1,0.6-2,1.3-2C38,376.2,38.6,377.1,38.6,378.2z"/>
		</g>
	</g>
	<path class="st10" d="M39.7,372.2c0-1.4-1.1-2.5-2.4-2.5c-1.3,0-2.4,1.1-2.4,2.5c0,0.9,0.5,1.7,1.3,2.2c-0.3,0.6-0.6,1.5-0.6,2.5
		c0,1.9,0.8,3.5,1.8,3.5c1,0,1.8-1.6,1.8-3.5c0-1-0.2-1.9-0.6-2.6C39.2,373.9,39.7,373.1,39.7,372.2z"/>
</g>
<g>
	<g>
		<g>
			<linearGradient id="SVGID_6_" gradientUnits="userSpaceOnUse" x1="16.9604" y1="608.2692" x2="55.9025" y2="608.2692">
				<stop  offset="0" style="stop-color:#C6C6C6"/>
				<stop  offset="0.5246" style="stop-color:#EDEDED"/>
				<stop  offset="0.6551" style="stop-color:#E6E6E6"/>
				<stop  offset="0.8647" style="stop-color:#D5D5D5"/>
				<stop  offset="1" style="stop-color:#C6C6C6"/>
			</linearGradient>
			<path class="st12" d="M18.3,630.2h36.2c0.8,0,1.4-0.6,1.4-1.4v-41.1c0-0.8-0.6-1.4-1.4-1.4H18.3c-0.8,0-1.4,0.6-1.4,1.4v41.1
				C17,629.6,17.6,630.2,18.3,630.2z"/>
			<path class="st6" d="M54.5,630.3H18.3c-0.8,0-1.5-0.7-1.5-1.5v-41.1c0-0.8,0.7-1.5,1.5-1.5h36.2c0.8,0,1.5,0.7,1.5,1.5v41.1
				C56,629.6,55.3,630.3,54.5,630.3z M18.3,586.5c-0.7,0-1.3,0.6-1.3,1.3v41.1c0,0.7,0.6,1.3,1.3,1.3h36.2c0.7,0,1.3-0.6,1.3-1.3
				v-41.1c0-0.7-0.6-1.3-1.3-1.3H18.3z"/>
		</g>
	</g>
	<g>
		<path class="st7" d="M40.2,614.1c0,1.6-1.3,3-2.9,3c-1.6,0-2.9-1.3-2.9-3c0-1.6,1.3-3,2.9-3C38.9,611.1,40.2,612.4,40.2,614.1z"/>
	</g>
	<g>
		<path class="st7" d="M39.4,618.7c0,2.3-1,4.2-2.2,4.2c-1.2,0-2.2-1.9-2.2-4.2c0-2.3,1-4.2,2.2-4.2
			C38.5,614.5,39.4,616.4,39.4,618.7z"/>
	</g>
	<g>
		<g>
			<path class="st8" d="M40,614.1c0,1.5-1.2,2.7-2.7,2.7c-1.5,0-2.7-1.2-2.7-2.7c0-1.5,1.2-2.7,2.7-2.7
				C38.8,611.3,40,612.6,40,614.1z"/>
		</g>
		<g>
			<path class="st9" d="M39.1,615c0,0.8-0.8,1.4-1.8,1.4c-1,0-1.8-0.6-1.8-1.4c0-0.8,0.8-1.4,1.8-1.4
				C38.3,613.6,39.1,614.2,39.1,615z"/>
		</g>
	</g>
	<g>
		<g>
			<path class="st8" d="M39.2,618.8c0,2.1-0.9,3.9-2,3.9c-1.1,0-2-1.7-2-3.9c0-2.1,0.9-3.9,2-3.9C38.3,614.9,39.2,616.6,39.2,618.8z
				"/>
		</g>
		<g>
			<path class="st9" d="M38.6,620.1c0,1.1-0.6,2-1.3,2c-0.7,0-1.3-0.9-1.3-2c0-1.1,0.6-2,1.3-2C38,618,38.6,619,38.6,620.1z"/>
		</g>
	</g>
	<path class="st10" d="M39.7,614.1c0-1.4-1.1-2.5-2.4-2.5c-1.3,0-2.4,1.1-2.4,2.5c0,0.9,0.5,1.7,1.3,2.2c-0.3,0.6-0.6,1.5-0.6,2.5
		c0,1.9,0.8,3.5,1.8,3.5c1,0,1.8-1.6,1.8-3.5c0-1-0.2-1.9-0.6-2.6C39.2,615.8,39.7,615,39.7,614.1z"/>
</g>
<rect x="-356.1" y="367.6" transform="matrix(6.123234e-17 -1 1 6.123234e-17 -366.2341 372.6409)" class="st13" width="718.6" height="3.8"/>
<rect x="-360" y="363.2" transform="matrix(6.123234e-17 -1 1 6.123234e-17 -361.8335 368.829)" class="st13" width="727" height="4.3"/>
<rect x="1.3" y="1.1" transform="matrix(-1 -1.224647e-16 1.224647e-16 -1 3.2005 730.7512)" class="st2" width="0.6" height="728.5"/>
<rect x="3.7" y="725.6" transform="matrix(-1 -9.892427e-15 9.892427e-15 -1 196.4885 1455.1908)" class="st13" width="189.2" height="4.1"/>
<rect x="1.9" y="724" transform="matrix(-1 -1.224647e-16 1.224647e-16 -1 196.39 1453.2933)" class="st13" width="192.5" height="5.2"/>
<rect x="97.7" y="632.6" transform="matrix(-1.836970e-16 1 -1 -1.836970e-16 827.3701 631.1005)" class="st2" width="0.8" height="193.3"/>
<rect x="-166.4" y="358.7" transform="matrix(-1.836970e-16 1 -1 -1.836970e-16 553.3944 167.6647)" class="st13" width="718.6" height="3.8"/>
<rect x="-170.9" y="362.5" transform="matrix(-1.836970e-16 1 -1 -1.836970e-16 557.2063 172.0653)" class="st13" width="727" height="4.3"/>
<rect x="194.1" y="1.1" class="st2" width="0.6" height="727.7"/>
<rect x="1.9" y="1.2" class="st13" width="188.5" height="5.2"/>
<rect x="98" y="-94.9" transform="matrix(6.123234e-17 -1 1 6.123234e-17 96.84 99.8718)" class="st2" width="0.8" height="192.9"/>
<rect x="5.3" y="242.5" class="st13" width="184.9" height="4.4"/>
<rect x="5.9" y="246.9" class="st2" width="184.4" height="0.7"/>
<rect x="5.9" y="241.9" class="st2" width="184.4" height="0.7"/>
<rect x="5.3" y="482.5" class="st13" width="184.9" height="4.5"/>
<rect x="5.9" y="487" class="st2" width="184.4" height="0.7"/>
<rect x="5.9" y="481.8" class="st2" width="184.4" height="0.7"/>
<g>
	<path class="st14" d="M36.5,114.9c0,2.2-0.8,3.5-2.3,3.5c-1.3,0-2.1-1.2-2.2-3.4c0-2.2,0.9-3.4,2.3-3.4
		C35.8,111.6,36.5,112.8,36.5,114.9z M33,115c0,1.7,0.5,2.7,1.3,2.7c0.9,0,1.3-1.1,1.3-2.7c0-1.6-0.4-2.7-1.3-2.7
		C33.6,112.3,33,113.2,33,115z"/>
	<path class="st14" d="M39.3,112.6L39.3,112.6l-1.2,0.6l-0.2-0.7l1.4-0.8h0.8v6.5h-0.9V112.6z"/>
</g>
<g>
	<path class="st14" d="M36.5,357.2c0,2.2-0.8,3.5-2.3,3.5c-1.3,0-2.1-1.2-2.2-3.4c0-2.2,0.9-3.4,2.3-3.4
		C35.8,353.9,36.5,355.1,36.5,357.2z M33,357.3c0,1.7,0.5,2.7,1.3,2.7c0.9,0,1.3-1.1,1.3-2.7c0-1.6-0.4-2.7-1.3-2.7
		C33.6,354.6,33,355.5,33,357.3z"/>
	<path class="st14" d="M37.4,360.5V360l0.7-0.7c1.7-1.6,2.4-2.4,2.4-3.4c0-0.7-0.3-1.3-1.3-1.3c-0.6,0-1.1,0.3-1.4,0.6l-0.3-0.6
		c0.5-0.4,1.1-0.7,1.9-0.7c1.4,0,2,1,2,1.9c0,1.2-0.9,2.2-2.3,3.5l-0.5,0.5v0h2.9v0.7H37.4z"/>
</g>
<g>
	<path class="st14" d="M36.5,598.8c0,2.2-0.8,3.5-2.3,3.5c-1.3,0-2.1-1.2-2.2-3.4c0-2.2,0.9-3.4,2.3-3.4
		C35.8,595.5,36.5,596.7,36.5,598.8z M33,598.9c0,1.7,0.5,2.7,1.3,2.7c0.9,0,1.3-1.1,1.3-2.7c0-1.6-0.4-2.7-1.3-2.7
		C33.6,596.1,33,597.1,33,598.9z"/>
	<path class="st14" d="M37.6,601.1c0.3,0.2,0.8,0.4,1.4,0.4c1.1,0,1.5-0.7,1.5-1.3c0-0.9-0.8-1.3-1.7-1.3h-0.5v-0.7h0.5
		c0.6,0,1.5-0.3,1.5-1.1c0-0.5-0.3-1-1.1-1c-0.5,0-1,0.2-1.3,0.4l-0.2-0.6c0.3-0.3,1-0.5,1.7-0.5c1.3,0,1.9,0.8,1.9,1.6
		c0,0.7-0.4,1.2-1.2,1.5v0c0.8,0.2,1.5,0.8,1.5,1.7c0,1-0.8,2-2.4,2c-0.7,0-1.4-0.2-1.7-0.4L37.6,601.1z"/>
</g>
<g>
	<g>
		
			<linearGradient id="SVGID_7_" gradientUnits="userSpaceOnUse" x1="97.781" y1="538.0989" x2="97.781" y2="552.2598" gradientTransform="matrix(1 0 0 1 0 193.23)">
			<stop  offset="0" style="stop-color:#FFFFFF"/>
			<stop  offset="1" style="stop-color:#EDEDED"/>
		</linearGradient>
		<rect x="1.3" y="729.1" class="st15" width="193" height="17.5"/>
		<path class="st2" d="M194.5,746.7H1.1v-17.8h193.4V746.7z M1.4,746.4h192.7v-17.2H1.4V746.4z"/>
	</g>
	<g>
		<linearGradient id="SVGID_8_" gradientUnits="userSpaceOnUse" x1="0.998" y1="737.8044" x2="194.5093" y2="737.8044">
			<stop  offset="0" style="stop-color:#FFFFFF"/>
			<stop  offset="1" style="stop-color:#EDEDED"/>
		</linearGradient>
		<path class="st16" d="M194.5,746.8H1v-17.9h193.5V746.8z M1.5,746.3h192.6v-17H1.5L1.5,746.3L1.5,746.3z"/>
		<path class="st2" d="M194.7,746.9H0.8v-18.3h193.8V746.9z M1.2,746.6h193.2V729H1.2V746.6z M194.2,746.5H1.3l0-17.3h192.9V746.5z
			 M1.7,746.2h192.2v-16.6H1.7V746.2z"/>
	</g>
</g>
<linearGradient id="SVGID_9_" gradientUnits="userSpaceOnUse" x1="97.7536" y1="47.0456" x2="97.7536" y2="53.6945" gradientTransform="matrix(1 0 0 -1 0 802)">
	<stop  offset="0" style="stop-color:#FFFFFF;stop-opacity:0"/>
	<stop  offset="1" style="stop-color:#020203"/>
</linearGradient>
<rect x="1" y="746.8" class="st17" width="193.5" height="8.2"/>
</svg>
