<?xml version="1.0" encoding="utf-8"?>
<!-- Generator: Adobe Illustrator 24.0.1, SVG Export Plug-In . SVG Version: 6.00 Build 0)  -->
<svg version="1.1" id="Ebene_1" xmlns="http://www.w3.org/2000/svg" xmlns:xlink="http://www.w3.org/1999/xlink" x="0px"
  y="0px" viewBox="0 0 57.6 36" style="enable-background:new 0 0 57.6 36;" xml:space="preserve">
  <style type="text/css">
    .st0 {
      fill: #FAFAFA;
    }

    .st1 {
      fill-rule: evenodd;
      clip-rule: evenodd;
      fill: #F9B334;
    }

    .st2 {
      fill-rule: evenodd;
      clip-rule: evenodd;
      fill: #E62532;
    }

    .st3 {
      fill-rule: evenodd;
      clip-rule: evenodd;
      fill: #FFFFFF;
    }

    .st4 {
      fill: none;
      stroke: #FFFFFF;
      stroke-width: 0.216;
      stroke-miterlimit: 2.6131;
    }
  </style>
  <g>
    <path class="st0" d="M57.6,34.1c0,1.1-0.9,1.9-1.9,1.9H2C0.9,36,0,35.1,0,34.1V2C0,0.9,0.9,0,2,0h53.7c1.1,0,1.9,0.9,1.9,1.9V34.1z
		" />
    <g>
      <polygon class="st1" points="35.7,28.3 36.2,28.3 36.8,28.3 37.3,28.2 37.8,28.1 38.3,28 38.8,27.9 39.3,27.7 39.7,27.5 
			40.2,27.3 40.6,27.1 41.1,26.8 41.5,26.6 41.9,26.3 42.3,26 42.7,25.7 43,25.3 43.4,25 43.7,24.6 44,24.2 44.3,23.8 44.6,23.4 
			44.8,22.9 45,22.5 45.2,22 45.4,21.6 45.6,21.1 45.7,20.6 45.8,20.1 45.9,19.6 46,19.1 46,18.5 46,18 46,17.5 46,16.9 45.9,16.4 
			45.8,15.9 45.7,15.4 45.6,14.9 45.4,14.5 45.2,14 45,13.5 44.8,13.1 44.6,12.7 44.3,12.2 44,11.8 43.7,11.5 43.4,11.1 43,10.7 
			42.7,10.4 42.3,10.1 41.9,9.7 41.5,9.5 41.1,9.2 40.6,8.9 40.2,8.7 39.7,8.5 39.3,8.3 38.8,8.2 38.3,8 37.8,7.9 37.3,7.8 
			36.8,7.7 36.2,7.7 35.7,7.7 35.2,7.7 34.7,7.7 34.1,7.8 33.6,7.9 33.1,8 32.6,8.2 32.2,8.3 31.7,8.5 31.2,8.7 30.8,8.9 30.4,9.2 
			29.9,9.5 29.5,9.7 29.2,10.1 28.8,10.4 28.4,10.7 28.1,11.1 27.8,11.5 27.4,11.8 27.2,12.2 26.9,12.7 26.6,13.1 26.4,13.5 
			26.2,14 26,14.5 25.9,14.9 25.7,15.4 25.6,15.9 25.5,16.4 25.5,16.9 25.4,17.5 25.4,18 25.4,18.5 25.5,19.1 25.5,19.6 25.6,20.1 
			25.7,20.6 25.9,21.1 26,21.6 26.2,22 26.4,22.5 26.6,22.9 26.9,23.4 27.2,23.8 27.4,24.2 27.8,24.6 28.1,25 28.4,25.3 28.8,25.7 
			29.2,26 29.5,26.3 29.9,26.6 30.4,26.8 30.8,27.1 31.2,27.3 31.7,27.5 32.2,27.7 32.6,27.9 33.1,28 33.6,28.1 34.1,28.2 
			34.7,28.3 35.2,28.3 35.7,28.3 35.7,28.3 		" />
      <polygon class="st2" points="21.9,28.3 22.4,28.3 23,28.3 23.5,28.2 24,28.1 24.5,28 25,27.9 25.4,27.7 25.9,27.5 26.4,27.3 
			26.8,27.1 27.2,26.8 27.7,26.6 28.1,26.3 28.5,26 28.8,25.7 29.2,25.3 29.5,25 29.9,24.6 30.2,24.2 30.4,23.8 30.7,23.4 31,22.9 
			31.2,22.5 31.4,22 31.6,21.6 31.7,21.1 31.9,20.6 32,20.1 32.1,19.6 32.1,19.1 32.2,18.5 32.2,18 32.2,17.5 32.1,16.9 32.1,16.4 
			32,15.9 31.9,15.4 31.7,14.9 31.6,14.5 31.4,14 31.2,13.5 31,13.1 30.7,12.7 30.4,12.2 30.2,11.8 29.9,11.5 29.5,11.1 29.2,10.7 
			28.8,10.4 28.5,10.1 28.1,9.7 27.7,9.5 27.2,9.2 26.8,8.9 26.4,8.7 25.9,8.5 25.4,8.3 25,8.2 24.5,8 24,7.9 23.5,7.8 23,7.7 
			22.4,7.7 21.9,7.7 21.4,7.7 20.8,7.7 20.3,7.8 19.8,7.9 19.3,8 18.8,8.2 18.3,8.3 17.9,8.5 17.4,8.7 17,8.9 16.5,9.2 16.1,9.5 
			15.7,9.7 15.3,10.1 14.9,10.4 14.6,10.7 14.2,11.1 13.9,11.5 13.6,11.8 13.3,12.2 13.1,12.7 12.8,13.1 12.6,13.5 12.4,14 
			12.2,14.5 12,14.9 11.9,15.4 11.8,15.9 11.7,16.4 11.6,16.9 11.6,17.5 11.6,18 11.6,18.5 11.6,19.1 11.7,19.6 11.8,20.1 
			11.9,20.6 12,21.1 12.2,21.6 12.4,22 12.6,22.5 12.8,22.9 13.1,23.4 13.3,23.8 13.6,24.2 13.9,24.6 14.2,25 14.6,25.3 14.9,25.7 
			15.3,26 15.7,26.3 16.1,26.6 16.5,26.8 17,27.1 17.4,27.3 17.9,27.5 18.3,27.7 18.8,27.9 19.3,28 19.8,28.1 20.3,28.2 20.8,28.3 
			21.4,28.3 21.9,28.3 21.9,28.3 		" />
      <polygon class="st1" points="27.6,11.7 33.1,11.7 33.1,11.1 28.1,11.1 27.6,11.7 27.6,11.7 		" />
      <polygon class="st1" points="26.8,12.9 33.1,12.9 33.1,12.3 27.1,12.3 26.8,12.9 26.8,12.9 		" />
      <polygon class="st1" points="26.2,14.1 33.1,14.1 33.1,13.6 26.4,13.6 26.2,14.1 26.2,14.1 		" />
      <polygon class="st1" points="25.7,15.4 33.1,15.4 33.1,14.8 25.9,14.8 25.7,15.4 25.7,15.4 		" />
      <polygon class="st1" points="26,21.4 33.1,21.4 33.1,20.9 25.8,20.9 26,21.4 26,21.4 		" />
      <polygon class="st1" points="26.5,22.7 33.1,22.7 33.1,22.1 26.2,22.1 26.5,22.7 26.5,22.7 		" />
      <polygon class="st1" points="27.2,23.9 33.1,23.9 33.1,23.3 26.9,23.3 27.2,23.9 27.2,23.9 		" />
      <polygon class="st1" points="28.3,25.2 33.1,25.2 33.1,24.6 27.8,24.6 28.3,25.2 28.3,25.2 		" />
      <polygon class="st1" points="25.5,16.6 33.1,16.6 33.1,16.1 25.6,16.1 25.5,16.6 25.5,16.6 		" />
      <polygon class="st1" points="30.1,20.2 33,20.2 33,19.6 30.2,19.6 30.1,20.2 30.1,20.2 		" />
      <polygon class="st1" points="30.3,18.9 33,18.9 33,18.4 30.5,18.4 30.3,18.9 30.3,18.9 		" />
      <polygon class="st1" points="25.3,18.4 26.1,18.4 26.1,18.9 25.3,18.9 25.3,18.4 25.3,18.4 		" />
      <polygon class="st3" points="23.9,17.7 23.8,17.7 23.8,17.7 23.8,17.7 23.7,17.7 23.7,17.7 23.6,17.6 23.6,17.6 23.5,17.6 
			23.5,17.6 23.4,17.6 23.4,17.6 23.3,17.6 23.2,17.6 23.1,17.6 23.1,17.6 23,17.6 22.9,17.6 22.8,17.7 22.8,17.7 22.7,17.7 
			22.7,17.7 22.6,17.7 22.6,17.8 22.5,17.8 22.5,17.9 22.5,17.9 22.5,17.9 22.5,18 22.5,18 22.5,18.1 22.5,18.1 22.6,18.2 
			22.7,18.2 22.7,18.3 22.8,18.3 22.9,18.4 23.1,18.4 23.2,18.4 23.3,18.5 23.4,18.5 23.5,18.6 23.6,18.7 23.7,18.7 23.8,18.8 
			23.8,19 23.8,19.1 23.9,19.3 23.8,19.5 23.8,19.7 23.8,19.8 23.7,20 23.7,20.1 23.6,20.2 23.5,20.3 23.4,20.4 23.3,20.4 
			23.2,20.5 23.1,20.5 22.9,20.6 22.8,20.6 22.7,20.6 22.6,20.6 22.5,20.6 22.4,20.6 22.2,20.6 22.1,20.6 21.9,20.6 21.8,20.6 
			21.7,20.6 21.6,20.6 21.5,20.6 21.5,20.6 21.4,20.6 21.3,20.6 21.3,20.6 21.2,20.5 21.1,20.5 21.1,20.5 21,20.5 21,20.5 
			21.1,19.7 21.2,19.7 21.2,19.7 21.2,19.7 21.3,19.7 21.4,19.8 21.4,19.8 21.5,19.8 21.6,19.8 21.7,19.8 21.8,19.8 21.9,19.8 
			22,19.9 22.1,19.9 22.2,19.9 22.3,19.9 22.4,19.9 22.5,19.8 22.6,19.8 22.6,19.8 22.7,19.7 22.7,19.7 22.7,19.6 22.7,19.6 
			22.8,19.5 22.8,19.4 22.7,19.3 22.7,19.2 22.6,19.2 22.5,19.1 22.4,19.1 22.2,19 22.1,19 22,18.9 21.8,18.8 21.7,18.8 21.6,18.6 
			21.5,18.5 21.4,18.4 21.4,18.2 21.4,17.9 21.4,17.8 21.5,17.7 21.5,17.6 21.5,17.5 21.6,17.3 21.6,17.3 21.7,17.2 21.8,17.1 
			21.9,17 22,17 22.1,16.9 22.3,16.9 22.4,16.9 22.6,16.8 22.8,16.8 23,16.8 23.1,16.8 23.2,16.8 23.4,16.8 23.5,16.8 23.5,16.8 
			23.6,16.8 23.7,16.8 23.8,16.8 23.8,16.9 23.9,16.9 23.9,16.9 24,16.9 24,16.9 24,16.9 24,16.9 24.1,16.9 23.9,17.7 23.9,17.7 		
			" />
      <polyline class="st4" points="23.9,17.7 23.9,17.7 23.8,17.7 23.8,17.7 23.8,17.7 23.7,17.7 23.7,17.7 23.6,17.6 23.6,17.6 
			23.5,17.6 23.5,17.6 23.4,17.6 23.4,17.6 23.3,17.6 23.2,17.6 23.1,17.6 23.1,17.6 23,17.6 23,17.6 22.9,17.6 22.8,17.7 
			22.8,17.7 22.7,17.7 22.7,17.7 22.6,17.7 22.6,17.8 22.5,17.8 22.5,17.9 22.5,17.9 22.5,17.9 22.5,18 22.5,18 22.5,18.1 
			22.5,18.1 22.6,18.2 22.6,18.2 22.7,18.2 22.7,18.3 22.8,18.3 22.9,18.4 23.1,18.4 23.2,18.4 23.3,18.5 23.4,18.5 23.5,18.6 
			23.6,18.7 23.7,18.7 23.8,18.8 23.8,19 23.8,19.1 23.9,19.3 23.8,19.5 23.8,19.5 23.8,19.7 23.8,19.8 23.7,20 23.7,20.1 
			23.6,20.2 23.5,20.3 23.4,20.4 23.3,20.4 23.2,20.5 23.1,20.5 22.9,20.6 22.8,20.6 22.7,20.6 22.6,20.6 22.5,20.6 22.4,20.6 
			22.4,20.6 22.2,20.6 22.1,20.6 21.9,20.6 21.8,20.6 21.7,20.6 21.6,20.6 21.5,20.6 21.5,20.6 21.4,20.6 21.3,20.6 21.3,20.6 
			21.2,20.5 21.1,20.5 21.1,20.5 21,20.5 21,20.5 21.1,19.7 21.1,19.7 21.2,19.7 21.2,19.7 21.2,19.7 21.3,19.7 21.4,19.8 
			21.4,19.8 21.5,19.8 21.6,19.8 21.7,19.8 21.8,19.8 21.9,19.8 22,19.9 22.1,19.9 22.2,19.9 22.3,19.9 22.4,19.9 22.4,19.9 
			22.5,19.8 22.6,19.8 22.6,19.8 22.7,19.7 22.7,19.7 22.7,19.6 22.7,19.6 22.8,19.5 22.8,19.5 22.8,19.4 22.7,19.3 22.7,19.2 
			22.6,19.2 22.5,19.1 22.4,19.1 22.2,19 22.1,19 22,18.9 21.8,18.8 21.7,18.8 21.6,18.6 21.5,18.5 21.4,18.4 21.4,18.2 21.4,17.9 
			21.4,17.9 21.4,17.8 21.5,17.7 21.5,17.6 21.5,17.5 21.6,17.3 21.6,17.3 21.7,17.2 21.8,17.1 21.9,17 22,17 22.1,16.9 22.3,16.9 
			22.4,16.9 22.6,16.8 22.8,16.8 23,16.8 23,16.8 23.1,16.8 23.2,16.8 23.4,16.8 23.5,16.8 23.5,16.8 23.6,16.8 23.7,16.8 
			23.8,16.8 23.8,16.9 23.9,16.9 23.9,16.9 24,16.9 24,16.9 24,16.9 24,16.9 24.1,16.9 23.9,17.7 		" />
      <polygon class="st3"
        points="24.7,16 25.7,16 25.5,16.9 26.1,16.9 26,17.7 25.4,17.7 25.1,19.6 25.1,19.7 25.1,19.7 25.1,19.8 
			25.1,19.8 25.2,19.8 25.3,19.9 25.4,19.9 25.4,19.9 25.5,19.9 25.6,19.9 25.6,19.9 25.7,19.8 25.8,19.8 25.8,19.8 25.8,19.8 
			25.8,19.8 25.7,20.5 25.7,20.5 25.6,20.5 25.6,20.5 25.6,20.5 25.6,20.5 25.5,20.5 25.5,20.5 25.5,20.6 25.4,20.6 25.4,20.6 
			25.4,20.6 25.3,20.6 25.3,20.6 25.2,20.6 25.2,20.6 25.1,20.6 24.8,20.6 24.7,20.6 24.6,20.6 24.5,20.6 24.4,20.5 24.3,20.5 
			24.2,20.5 24.2,20.4 24.1,20.4 24.1,20.3 24.1,20.3 24.1,20.2 24,20.2 24,20.1 24,20 24,19.9 24.1,19.8 24.7,16 24.7,16 		" />
      <polyline class="st4" points="24.7,16 25.7,16 25.5,16.9 26.1,16.9 26,17.7 25.4,17.7 25.1,19.6 25.1,19.6 25.1,19.7 25.1,19.7 
			25.1,19.8 25.1,19.8 25.2,19.8 25.3,19.9 25.4,19.9 25.4,19.9 25.4,19.9 25.5,19.9 25.6,19.9 25.6,19.9 25.7,19.8 25.8,19.8 
			25.8,19.8 25.8,19.8 25.8,19.8 25.7,20.5 25.7,20.5 25.7,20.5 25.6,20.5 25.6,20.5 25.6,20.5 25.6,20.5 25.5,20.5 25.5,20.5 
			25.5,20.6 25.4,20.6 25.4,20.6 25.4,20.6 25.3,20.6 25.3,20.6 25.2,20.6 25.2,20.6 25.1,20.6 24.8,20.6 24.8,20.6 24.7,20.6 
			24.6,20.6 24.5,20.6 24.4,20.5 24.3,20.5 24.2,20.5 24.2,20.4 24.1,20.4 24.1,20.3 24.1,20.3 24.1,20.2 24,20.2 24,20.1 24,20 
			24,19.9 24.1,19.8 24.7,16 		" />
      <polyline class="st4" points="26.9,19 26.9,19 26.9,19 26.9,19.1 26.9,19.2 26.9,19.2 26.9,19.3 27,19.4 27,19.4 27,19.5 
			27.1,19.5 27.1,19.6 27.2,19.7 27.3,19.7 27.3,19.7 27.4,19.8 27.5,19.8 27.5,19.8 27.5,19.8 27.6,19.8 27.7,19.8 27.8,19.8 
			27.9,19.8 28,19.8 28.1,19.8 28.2,19.8 28.3,19.8 28.3,19.8 28.4,19.8 28.5,19.8 28.6,19.8 28.7,19.7 28.8,19.7 28.9,19.6 
			29,19.6 28.9,20.4 28.9,20.4 28.8,20.4 28.8,20.5 28.7,20.5 28.7,20.5 28.6,20.5 28.6,20.5 28.5,20.6 28.4,20.6 28.4,20.6 
			28.3,20.6 28.2,20.6 28.2,20.6 28.1,20.6 28,20.6 27.9,20.6 27.8,20.6 27.8,20.6 27.6,20.6 27.4,20.6 27.2,20.6 27.1,20.5 
			26.9,20.5 26.7,20.4 26.6,20.3 26.4,20.2 26.3,20.1 26.2,20 26.1,19.8 26,19.6 25.9,19.4 25.9,19.2 25.9,18.9 25.9,18.6 
			25.9,18.6 25.9,18.5 25.9,18.4 26,18.3 26,18.1 26,18 26.1,17.8 26.2,17.7 26.3,17.5 26.4,17.4 26.5,17.2 26.7,17.1 26.9,17 
			27.1,16.9 27.3,16.9 27.5,16.8 27.8,16.8 27.8,16.8 28,16.8 28.1,16.8 28.2,16.9 28.4,16.9 28.5,16.9 28.7,17 28.8,17.1 
			28.9,17.2 29,17.3 29.1,17.4 29.2,17.6 29.2,17.8 29.2,18 29.2,18.2 29.2,18.5 29.2,18.8 29.2,19 26.6,19 26.8,18.3 28.3,18.3 
			28.3,18.3 28.3,18.2 28.3,18.1 28.3,18.1 28.3,18 28.3,17.9 28.2,17.9 28.2,17.8 28.2,17.8 28.1,17.7 28.1,17.7 28,17.7 28,17.6 
			27.9,17.6 27.9,17.6 27.8,17.6 27.7,17.6 27.7,17.6 27.7,17.6 27.6,17.6 27.6,17.6 27.5,17.6 27.4,17.7 27.4,17.7 27.3,17.7 
			27.3,17.8 27.2,17.8 27.2,17.9 27.2,17.9 27.1,18 27.1,18 27.1,18.1 27,18.2 27,18.3 26.9,19 		" />
      <polygon class="st3" points="35.2,17.1 35.2,17.1 35.1,17 35.1,17 35,17 35,17 34.9,17 34.8,16.9 34.8,16.9 34.7,16.9 34.6,16.9 
			34.6,16.9 34.5,16.9 34.4,16.9 34.3,16.8 34.3,16.8 34.2,16.8 34.1,16.8 34,16.9 33.9,16.9 33.8,16.9 33.7,16.9 33.6,16.9 
			33.5,17 33.4,17.1 33.3,17.1 33.2,17.2 33.1,17.3 33.1,17.5 33,17.6 32.9,17.8 32.8,18 32.8,18.2 32.8,18.3 32.7,18.5 32.7,18.6 
			32.7,18.7 32.8,18.8 32.8,18.9 32.8,19 32.8,19.1 32.9,19.2 33,19.3 33,19.4 33.1,19.5 33.2,19.5 33.3,19.6 33.4,19.6 33.6,19.7 
			33.6,19.7 33.7,19.7 33.7,19.7 33.8,19.7 33.9,19.7 34,19.7 34,19.7 34.1,19.7 34.2,19.7 34.3,19.7 34.4,19.6 34.5,19.6 
			34.6,19.6 34.7,19.5 34.7,19.5 34.8,19.4 34.6,20.3 34.6,20.4 34.6,20.4 34.6,20.4 34.5,20.4 34.5,20.5 34.5,20.5 34.4,20.5 
			34.3,20.5 34.3,20.6 34.2,20.6 34.1,20.6 33.9,20.6 33.8,20.6 33.6,20.6 33.5,20.6 33.3,20.6 33.1,20.6 33,20.5 32.8,20.5 
			32.6,20.4 32.5,20.3 32.3,20.2 32.2,20.1 32.1,20 31.9,19.8 31.9,19.6 31.8,19.4 31.7,19.2 31.7,19 31.6,18.8 31.7,18.5 
			31.7,18.2 31.7,18 31.8,17.9 31.8,17.8 31.8,17.6 31.9,17.5 31.9,17.4 32,17.3 32,17.2 32.1,17.1 32.1,17 32.2,16.9 32.2,16.8 
			32.3,16.7 32.4,16.6 32.4,16.5 32.5,16.5 32.6,16.4 32.7,16.3 32.7,16.3 32.8,16.2 32.9,16.2 33,16.1 33.1,16.1 33.2,16 33.3,16 
			33.4,16 33.5,15.9 33.7,15.9 33.8,15.9 33.9,15.9 34,15.9 34.2,15.9 34.3,15.9 34.4,15.9 34.5,15.9 34.6,15.9 34.7,15.9 34.8,16 
			34.9,16 35,16 35,16 35.1,16 35.2,16.1 35.2,16.1 35.3,16.1 35.3,16.1 35.4,16.1 35.4,16.1 35.2,17.1 35.2,17.1 		" />
      <polyline class="st4" points="35.2,17.1 35.2,17.1 35.2,17.1 35.1,17 35.1,17 35,17 35,17 34.9,17 34.8,16.9 34.8,16.9 34.7,16.9 
			34.6,16.9 34.6,16.9 34.5,16.9 34.4,16.9 34.3,16.8 34.3,16.8 34.2,16.8 34.2,16.8 34.1,16.8 34,16.9 33.9,16.9 33.8,16.9 
			33.7,16.9 33.6,16.9 33.5,17 33.4,17.1 33.3,17.1 33.2,17.2 33.1,17.3 33.1,17.5 33,17.6 32.9,17.8 32.8,18 32.8,18.2 32.8,18.2 
			32.8,18.3 32.7,18.5 32.7,18.6 32.7,18.7 32.8,18.8 32.8,18.9 32.8,19 32.8,19.1 32.9,19.2 33,19.3 33,19.4 33.1,19.5 33.2,19.5 
			33.3,19.6 33.4,19.6 33.6,19.7 33.6,19.7 33.6,19.7 33.7,19.7 33.7,19.7 33.8,19.7 33.9,19.7 34,19.7 34,19.7 34.1,19.7 
			34.2,19.7 34.3,19.7 34.4,19.6 34.5,19.6 34.6,19.6 34.7,19.5 34.7,19.5 34.8,19.4 34.6,20.3 34.6,20.3 34.6,20.4 34.6,20.4 
			34.6,20.4 34.5,20.4 34.5,20.5 34.5,20.5 34.4,20.5 34.3,20.5 34.3,20.6 34.2,20.6 34.1,20.6 33.9,20.6 33.8,20.6 33.6,20.6 
			33.5,20.6 33.3,20.6 33.3,20.6 33.1,20.6 33,20.5 32.8,20.5 32.6,20.4 32.5,20.3 32.3,20.2 32.2,20.1 32.1,20 31.9,19.8 
			31.9,19.6 31.8,19.4 31.7,19.2 31.7,19 31.6,18.8 31.7,18.5 31.7,18.2 31.7,18.2 31.7,18 31.8,17.9 31.8,17.8 31.8,17.6 
			31.9,17.5 31.9,17.4 32,17.3 32,17.2 32.1,17.1 32.1,17 32.2,16.9 32.2,16.8 32.3,16.7 32.4,16.6 32.4,16.5 32.5,16.5 32.6,16.4 
			32.7,16.3 32.7,16.3 32.8,16.2 32.9,16.2 33,16.1 33.1,16.1 33.2,16 33.3,16 33.4,16 33.5,15.9 33.7,15.9 33.8,15.9 33.9,15.9 
			34,15.9 34.2,15.9 34.2,15.9 34.3,15.9 34.4,15.9 34.5,15.9 34.6,15.9 34.7,15.9 34.8,16 34.9,16 35,16 35,16 35.1,16 35.2,16.1 
			35.2,16.1 35.3,16.1 35.3,16.1 35.4,16.1 35.4,16.1 35.2,17.1 		" />
      <polygon class="st3" points="43.8,20.6 42.8,20.6 42.9,20.2 42.9,20.2 42.8,20.3 42.8,20.3 42.7,20.4 42.6,20.4 42.6,20.5 
			42.5,20.5 42.5,20.5 42.4,20.6 42.3,20.6 42.3,20.6 42.2,20.6 42.1,20.6 42,20.7 42,20.7 41.9,20.7 41.8,20.7 41.7,20.6 
			41.5,20.6 41.3,20.6 41.2,20.5 41.1,20.4 41,20.3 40.9,20.1 40.8,20 40.7,19.8 40.7,19.7 40.6,19.5 40.6,19.3 40.6,19.1 40.6,19 
			40.6,18.8 40.6,18.6 40.7,18.4 40.7,18.2 40.8,18 40.9,17.8 41,17.7 41.1,17.6 41.2,17.4 41.3,17.3 41.4,17.2 41.6,17.1 41.7,17 
			41.8,17 42,16.9 42.1,16.9 42.3,16.9 42.4,16.9 42.5,16.9 42.6,16.9 42.7,16.9 42.8,16.9 42.9,17 42.9,17 43,17 43.1,17.1 
			43.1,17.1 43.2,17.2 43.2,17.2 43.3,17.3 43.3,17.3 43.3,17.3 43.3,17.4 43.4,17.4 43.4,17.4 43.6,16.1 44.6,16.1 43.8,20.6 
			43.8,20.6 		" />
      <polyline class="st4" points="43.8,20.6 42.8,20.6 42.9,20.2 42.9,20.2 42.9,20.2 42.8,20.3 42.8,20.3 42.7,20.4 42.6,20.4 
			42.6,20.5 42.5,20.5 42.5,20.5 42.4,20.6 42.3,20.6 42.3,20.6 42.2,20.6 42.1,20.6 42,20.7 42,20.7 41.9,20.7 41.8,20.7 
			41.8,20.7 41.7,20.6 41.5,20.6 41.3,20.6 41.2,20.5 41.1,20.4 41,20.3 40.9,20.1 40.8,20 40.7,19.8 40.7,19.7 40.6,19.5 
			40.6,19.3 40.6,19.1 40.6,19 40.6,18.8 40.6,18.6 40.6,18.6 40.7,18.4 40.7,18.2 40.8,18 40.9,17.8 41,17.7 41.1,17.6 41.2,17.4 
			41.3,17.3 41.4,17.2 41.6,17.1 41.7,17 41.8,17 42,16.9 42.1,16.9 42.3,16.9 42.4,16.9 42.4,16.9 42.5,16.9 42.6,16.9 42.7,16.9 
			42.8,16.9 42.9,17 42.9,17 43,17 43.1,17.1 43.1,17.1 43.2,17.2 43.2,17.2 43.3,17.3 43.3,17.3 43.3,17.3 43.3,17.4 43.4,17.4 
			43.4,17.4 43.6,16.1 44.6,16.1 43.8,20.6 		" />
      <polygon class="st1" points="42.2,19.8 42.3,19.8 42.4,19.7 42.5,19.7 42.5,19.7 42.6,19.6 42.7,19.6 42.8,19.5 42.8,19.5 
			42.9,19.4 42.9,19.3 43,19.2 43,19.2 43,19.1 43.1,19 43.1,18.9 43.1,18.8 43.1,18.7 43.1,18.6 43.1,18.5 43.1,18.4 43.1,18.3 
			43.1,18.2 43.1,18.1 43.1,18.1 43,18 43,17.9 42.9,17.9 42.9,17.8 42.8,17.8 42.8,17.7 42.7,17.7 42.6,17.7 42.5,17.7 42.4,17.7 
			42.4,17.8 42.3,17.8 42.2,17.8 42.1,17.9 42.1,18 42,18 42,18.1 41.9,18.2 41.9,18.3 41.8,18.4 41.8,18.5 41.8,18.6 41.7,18.7 
			41.7,18.8 41.7,18.9 41.7,19.1 41.7,19.2 41.8,19.4 41.8,19.5 41.9,19.7 42.1,19.7 42.2,19.8 42.2,19.8 		" />
      <polygon class="st3" points="20.8,19.8 20.7,20.6 19.8,20.6 19.8,20.5 19.8,20.3 19.9,20.2 19.9,20.2 19.8,20.2 19.8,20.3 
			19.7,20.4 19.6,20.4 19.5,20.5 19.5,20.5 19.4,20.5 19.3,20.6 19.2,20.6 19.1,20.6 19,20.6 18.9,20.7 18.8,20.7 18.7,20.7 
			18.6,20.7 18.5,20.6 18.3,20.6 18.2,20.6 18.1,20.5 18,20.5 18,20.4 17.9,20.4 17.8,20.3 17.8,20.2 17.8,20.2 17.7,20.1 17.7,20 
			17.7,19.9 17.7,19.8 17.6,19.8 17.6,19.7 17.6,19.6 17.7,19.5 17.7,19.3 17.7,19.2 17.8,19.1 17.8,19 17.9,18.9 17.9,18.8 
			18,18.7 18.1,18.6 18.2,18.6 18.3,18.5 18.4,18.4 18.5,18.4 18.6,18.3 18.8,18.3 18.9,18.3 18.9,18.3 18.9,18.3 18.9,18.3 
			19,18.3 19,18.3 19.1,18.3 19.1,18.3 19.2,18.3 19.2,18.3 19.3,18.2 19.4,18.2 19.4,18.2 19.5,18.2 19.5,18.2 19.6,18.2 
			19.6,18.2 19.7,18.2 19.8,18.2 19.8,18.2 19.9,18.2 20,18.2 20,18.2 20.1,18.2 20.1,18.2 20.1,18.2 20.1,18.2 20.1,18.1 20.1,18 
			20.1,17.9 20.1,17.9 20,17.8 20,17.8 19.9,17.7 19.8,17.7 19.8,17.7 19.7,17.7 19.6,17.6 19.5,17.6 19.4,17.6 19.3,17.6 
			19.1,17.7 19,17.7 18.9,17.7 18.8,17.7 18.7,17.7 18.6,17.7 18.5,17.7 18.4,17.8 18.4,17.8 18.3,17.8 18.2,17.8 18.2,17.8 
			18.4,17 18.5,17 18.6,16.9 18.7,16.9 18.8,16.9 18.9,16.9 18.9,16.9 19,16.9 19.1,16.9 19.2,16.8 19.3,16.8 19.4,16.8 19.5,16.8 
			19.6,16.8 19.8,16.8 19.9,16.8 20,16.8 20.1,16.9 20.2,16.9 20.3,16.9 20.4,16.9 20.5,17 20.6,17 20.7,17.1 20.8,17.1 20.9,17.2 
			21,17.3 21.1,17.4 21.1,17.5 21.2,17.6 21.2,17.7 21.2,17.9 21.2,18 20.8,19.8 20.8,19.8 		" />
      <polyline class="st4" points="20.8,19.8 20.7,20.6 19.8,20.6 19.8,20.6 19.8,20.5 19.8,20.3 19.9,20.2 19.9,20.2 19.9,20.2 
			19.8,20.2 19.8,20.3 19.7,20.4 19.6,20.4 19.5,20.5 19.5,20.5 19.4,20.5 19.3,20.6 19.2,20.6 19.1,20.6 19,20.6 18.9,20.7 
			18.8,20.7 18.7,20.7 18.6,20.7 18.5,20.6 18.5,20.6 18.3,20.6 18.2,20.6 18.1,20.5 18,20.5 18,20.4 17.9,20.4 17.8,20.3 
			17.8,20.2 17.8,20.2 17.7,20.1 17.7,20 17.7,19.9 17.7,19.8 17.6,19.8 17.6,19.7 17.6,19.6 17.6,19.6 17.7,19.5 17.7,19.3 
			17.7,19.2 17.8,19.1 17.8,19 17.9,18.9 17.9,18.8 18,18.7 18.1,18.6 18.2,18.6 18.3,18.5 18.4,18.4 18.5,18.4 18.6,18.3 
			18.8,18.3 18.9,18.3 18.9,18.3 18.9,18.3 18.9,18.3 18.9,18.3 19,18.3 19,18.3 19.1,18.3 19.1,18.3 19.2,18.3 19.2,18.3 
			19.3,18.2 19.4,18.2 19.4,18.2 19.5,18.2 19.5,18.2 19.6,18.2 19.6,18.2 19.6,18.2 19.7,18.2 19.8,18.2 19.8,18.2 19.9,18.2 
			20,18.2 20,18.2 20.1,18.2 20.1,18.2 20.1,18.2 20.1,18.2 20.1,18.2 20.1,18.1 20.1,18 20.1,18 20.1,17.9 20.1,17.9 20,17.8 
			20,17.8 19.9,17.7 19.8,17.7 19.8,17.7 19.7,17.7 19.7,17.7 19.6,17.6 19.5,17.6 19.4,17.6 19.3,17.6 19.1,17.7 19,17.7 
			18.9,17.7 18.8,17.7 18.7,17.7 18.6,17.7 18.5,17.7 18.4,17.8 18.4,17.8 18.3,17.8 18.2,17.8 18.2,17.8 18.4,17 18.4,17 18.5,17 
			18.6,16.9 18.7,16.9 18.8,16.9 18.9,16.9 18.9,16.9 19,16.9 19.1,16.9 19.2,16.8 19.3,16.8 19.4,16.8 19.5,16.8 19.6,16.8 
			19.8,16.8 19.9,16.8 20,16.8 20,16.8 20.1,16.9 20.2,16.9 20.3,16.9 20.4,16.9 20.5,17 20.6,17 20.7,17.1 20.8,17.1 20.9,17.2 
			21,17.3 21.1,17.4 21.1,17.5 21.2,17.6 21.2,17.7 21.2,17.9 21.2,18 20.8,19.8 		" />
      <polygon class="st2" points="20,18.9 20,18.9 20,18.9 19.9,18.9 19.9,18.9 19.9,18.9 19.8,18.9 19.8,18.9 19.7,18.9 19.7,18.9 
			19.6,18.9 19.5,18.9 19.5,18.9 19.4,18.9 19.4,18.9 19.3,18.9 19.3,18.9 19.3,18.9 19.3,18.9 19.2,19 19.2,19 19.1,19 19.1,19 
			19,19 19,19.1 18.9,19.1 18.9,19.1 18.9,19.2 18.8,19.2 18.8,19.3 18.8,19.3 18.7,19.4 18.7,19.4 18.7,19.6 18.7,19.6 18.8,19.7 
			18.8,19.8 18.9,19.8 18.9,19.8 19,19.8 19,19.8 19.1,19.8 19.2,19.8 19.3,19.8 19.4,19.8 19.5,19.8 19.5,19.7 19.6,19.7 
			19.7,19.7 19.7,19.6 19.7,19.6 19.8,19.5 19.8,19.5 19.8,19.5 19.9,19.4 19.9,19.4 19.9,19.3 19.9,19.2 19.9,19.1 20,19 20,18.9 
			20,18.9 		" />
      <polygon class="st3" points="13.5,20.6 12.5,20.6 13.3,16 15,16 15.1,18.8 16.3,16 18,16 17.2,20.6 16.2,20.6 16.8,17.2 
			16.8,17.2 15.4,20.6 14.3,20.6 14.3,20.5 14.3,20.1 14.3,19.5 14.2,18.9 14.2,18.3 14.1,17.8 14.1,17.4 14.1,17.2 14.1,17.2 
			14.1,17.2 14.1,17.2 14.1,17.2 13.5,20.6 13.5,20.6 		" />
      <polyline class="st4" points="13.5,20.6 12.5,20.6 13.3,16 15,16 15.1,18.8 16.3,16 18,16 17.2,20.6 16.2,20.6 16.8,17.2 
			16.8,17.2 15.4,20.6 14.3,20.6 14.3,20.6 14.3,20.5 14.3,20.1 14.3,19.5 14.2,18.9 14.2,18.3 14.1,17.8 14.1,17.4 14.1,17.2 
			14.1,17.2 14.1,17.2 14.1,17.2 14.1,17.2 14.1,17.2 13.5,20.6 		" />
      <polygon class="st3" points="38.1,19.8 38,20.6 37.1,20.6 37.1,20.5 37.1,20.3 37.1,20.2 37.1,20.2 37,20.3 37,20.3 36.9,20.4 
			36.9,20.4 36.8,20.5 36.7,20.5 36.6,20.5 36.5,20.6 36.4,20.6 36.3,20.6 36.2,20.6 36.1,20.7 36,20.7 35.9,20.7 35.9,20.7 
			35.8,20.6 35.6,20.6 35.5,20.6 35.4,20.5 35.3,20.5 35.3,20.4 35.2,20.4 35.1,20.3 35.1,20.2 35,20.2 35,20.1 35,20 35,19.9 
			35,19.8 34.9,19.8 34.9,19.7 34.9,19.6 34.9,19.5 35,19.3 35,19.2 35,19.1 35.1,19 35.2,18.9 35.2,18.8 35.3,18.7 35.4,18.6 
			35.5,18.6 35.6,18.5 35.7,18.4 35.8,18.4 35.9,18.3 36,18.3 36.2,18.3 36.2,18.3 36.2,18.3 36.2,18.3 36.2,18.3 36.3,18.3 
			36.3,18.3 36.4,18.3 36.4,18.3 36.5,18.3 36.6,18.2 36.6,18.2 36.7,18.2 36.7,18.2 36.8,18.2 36.8,18.2 36.9,18.2 37,18.2 
			37,18.2 37.1,18.2 37.2,18.2 37.3,18.2 37.3,18.2 37.4,18.2 37.4,18.2 37.4,18.2 37.4,18.2 37.4,18.1 37.4,18 37.4,17.9 
			37.4,17.9 37.3,17.8 37.3,17.8 37.2,17.7 37.1,17.7 37.1,17.7 37,17.7 36.9,17.6 36.8,17.6 36.7,17.6 36.5,17.6 36.4,17.7 
			36.3,17.7 36.2,17.7 36.1,17.7 36,17.7 35.9,17.7 35.8,17.7 35.7,17.8 35.6,17.8 35.6,17.8 35.5,17.8 35.5,17.8 35.7,17 35.8,17 
			35.9,16.9 36,16.9 36.1,16.9 36.1,16.9 36.2,16.9 36.3,16.9 36.4,16.9 36.5,16.8 36.6,16.8 36.7,16.8 36.8,16.8 36.9,16.8 
			37,16.8 37.2,16.8 37.3,16.8 37.4,16.9 37.5,16.9 37.6,16.9 37.7,16.9 37.8,17 37.9,17 38,17.1 38.1,17.1 38.2,17.2 38.3,17.3 
			38.4,17.4 38.4,17.5 38.5,17.6 38.5,17.7 38.5,17.9 38.5,18 38.1,19.8 38.1,19.8 		" />
      <polygon class="st3" points="38,20.6 38,20.6 38.1,19.8 38.1,19.8 37.9,20.6 38,20.6 38,20.6 38,20.6 38,20.6 38,20.6 38,20.6 		
			" />
      <polygon class="st3" points="37.1,20.6 37.1,20.6 38,20.6 38,20.6 37.1,20.6 37.1,20.6 37.1,20.6 37.1,20.6 37.1,20.6 37.1,20.6 
			37.1,20.6 		" />
      <polygon class="st3" points="37.1,20.2 37.1,20.2 37.1,20.2 37.1,20.3 37.1,20.5 37.1,20.6 37.1,20.6 37.1,20.5 37.1,20.3 
			37.1,20.2 37.1,20.2 37.1,20.2 37.1,20.2 37.1,20.2 		" />
      <polygon class="st3" points="35.8,20.7 35.8,20.7 35.9,20.7 35.9,20.7 36,20.7 36.1,20.7 36.2,20.7 36.3,20.6 36.4,20.6 
			36.5,20.6 36.6,20.6 36.7,20.5 36.8,20.5 36.9,20.4 36.9,20.4 37,20.3 37.1,20.3 37.1,20.2 37.1,20.2 37,20.2 37,20.3 36.9,20.3 
			36.9,20.4 36.8,20.4 36.7,20.5 36.6,20.5 36.5,20.6 36.4,20.6 36.3,20.6 36.2,20.6 36.1,20.6 36,20.6 35.9,20.6 35.9,20.6 
			35.8,20.6 35.8,20.6 35.8,20.7 35.8,20.7 		" />
      <polygon class="st3" points="34.9,19.6 34.9,19.6 34.9,19.7 34.9,19.8 34.9,19.8 34.9,19.9 35,20 35,20.1 35,20.2 35.1,20.2 
			35.1,20.3 35.2,20.4 35.2,20.4 35.3,20.5 35.4,20.6 35.5,20.6 35.6,20.6 35.8,20.7 35.8,20.6 35.6,20.6 35.5,20.6 35.4,20.5 
			35.3,20.5 35.3,20.4 35.2,20.3 35.2,20.3 35.1,20.2 35.1,20.1 35,20.1 35,20 35,19.9 35,19.8 35,19.8 35,19.7 35,19.6 35,19.6 
			34.9,19.6 34.9,19.6 		" />
      <polygon class="st3" points="36.2,18.3 36.2,18.3 36,18.3 35.9,18.3 35.8,18.4 35.7,18.4 35.6,18.5 35.5,18.5 35.4,18.6 
			35.3,18.7 35.2,18.8 35.1,18.9 35.1,19 35,19.1 35,19.2 34.9,19.3 34.9,19.5 34.9,19.6 35,19.6 35,19.5 35,19.4 35,19.2 
			35.1,19.1 35.1,19 35.2,18.9 35.3,18.8 35.3,18.7 35.4,18.6 35.5,18.6 35.6,18.5 35.7,18.5 35.8,18.4 35.9,18.4 36,18.3 
			36.2,18.3 36.2,18.3 36.2,18.3 36.2,18.3 		" />
      <polygon class="st3" points="36.9,18.2 36.9,18.2 36.8,18.2 36.8,18.2 36.7,18.2 36.7,18.2 36.6,18.2 36.6,18.2 36.5,18.2 
			36.4,18.2 36.4,18.2 36.3,18.3 36.3,18.3 36.2,18.3 36.2,18.3 36.2,18.3 36.2,18.3 36.2,18.3 36.2,18.3 36.2,18.3 36.2,18.3 
			36.2,18.3 36.2,18.3 36.3,18.3 36.3,18.3 36.4,18.3 36.4,18.3 36.5,18.3 36.6,18.3 36.6,18.3 36.7,18.3 36.7,18.3 36.8,18.3 
			36.8,18.3 36.9,18.3 36.9,18.3 36.9,18.2 36.9,18.2 		" />
      <polygon class="st3" points="37.4,18.2 37.4,18.2 37.4,18.2 37.3,18.2 37.3,18.2 37.2,18.2 37.1,18.2 37,18.2 37,18.2 36.9,18.2 
			36.9,18.3 37,18.3 37,18.3 37.1,18.3 37.2,18.3 37.3,18.3 37.3,18.3 37.4,18.3 37.4,18.3 37.4,18.2 37.4,18.3 37.4,18.3 
			37.4,18.2 37.4,18.2 37.4,18.2 		" />
      <polygon class="st3" points="37.4,18 37.4,18 37.4,18.1 37.4,18.2 37.4,18.2 37.4,18.2 37.4,18.2 37.4,18.2 37.4,18.2 37.4,18.1 
			37.4,18 37.4,18 37.4,18 37.4,18 		" />
      <polygon class="st3" points="37,17.7 37,17.7 37.1,17.7 37.1,17.7 37.2,17.7 37.3,17.8 37.3,17.8 37.3,17.9 37.4,17.9 37.4,18 
			37.4,18 37.4,17.9 37.4,17.9 37.3,17.8 37.3,17.7 37.2,17.7 37.1,17.7 37.1,17.6 37,17.6 37,17.6 37,17.7 37,17.7 		" />
      <polygon class="st3" points="35.5,17.8 35.5,17.9 35.5,17.8 35.6,17.8 35.7,17.8 35.7,17.8 35.8,17.8 35.9,17.7 36,17.7 
			36.1,17.7 36.2,17.7 36.3,17.7 36.4,17.7 36.5,17.7 36.7,17.7 36.8,17.7 36.9,17.7 37,17.7 37,17.6 36.9,17.6 36.8,17.6 
			36.7,17.6 36.5,17.6 36.4,17.6 36.3,17.6 36.2,17.7 36.1,17.7 36,17.7 35.9,17.7 35.8,17.7 35.7,17.7 35.6,17.8 35.6,17.8 
			35.5,17.8 35.5,17.8 35.5,17.8 35.5,17.8 35.5,17.8 		" />
      <polygon class="st3"
        points="35.7,17 35.7,17 35.5,17.8 35.5,17.8 35.8,17 35.7,17 35.7,17 35.7,17 35.7,17 35.7,17 35.7,17 		" />
      <polygon class="st3" points="37.3,16.8 37.3,16.8 37.2,16.8 37,16.8 36.9,16.8 36.8,16.8 36.7,16.8 36.6,16.8 36.5,16.8 
			36.4,16.8 36.3,16.8 36.2,16.9 36.1,16.9 36.1,16.9 36,16.9 35.9,16.9 35.8,17 35.7,17 35.7,17 35.8,17 35.9,17 36,16.9 
			36.1,16.9 36.2,16.9 36.2,16.9 36.3,16.9 36.4,16.9 36.5,16.9 36.6,16.9 36.7,16.9 36.8,16.9 36.9,16.9 37,16.9 37.2,16.9 
			37.3,16.9 37.3,16.9 37.3,16.8 37.3,16.8 		" />
      <polygon class="st3" points="38.5,18 38.5,18 38.5,17.9 38.5,17.7 38.5,17.6 38.4,17.5 38.4,17.4 38.3,17.3 38.2,17.2 38.1,17.1 
			38,17.1 37.9,17 37.8,16.9 37.7,16.9 37.6,16.9 37.5,16.8 37.4,16.8 37.3,16.8 37.3,16.9 37.4,16.9 37.5,16.9 37.6,16.9 
			37.7,16.9 37.8,17 37.9,17 38,17.1 38.1,17.2 38.2,17.2 38.3,17.3 38.3,17.4 38.4,17.5 38.4,17.6 38.5,17.7 38.5,17.9 38.4,18 
			38.4,18 38.5,18 38.5,18 		" />
      <polygon class="st3" points="38.1,19.8 38.1,19.8 38.5,18 38.4,18 38.1,19.8 38.1,19.8 38.1,19.8 38.1,19.8 		" />
      <polygon class="st1" points="37.3,18.9 37.2,18.9 37.2,18.9 37.2,18.9 37.2,18.9 37.1,18.9 37.1,18.9 37,18.9 37,18.9 36.9,18.9 
			36.9,18.9 36.8,18.9 36.8,18.9 36.7,18.9 36.7,18.9 36.6,18.9 36.6,18.9 36.6,18.9 36.5,18.9 36.5,19 36.5,19 36.4,19 36.4,19 
			36.3,19 36.3,19.1 36.2,19.1 36.2,19.1 36.1,19.2 36.1,19.2 36.1,19.3 36.1,19.3 36,19.4 36,19.4 36,19.6 36,19.6 36.1,19.7 
			36.1,19.8 36.2,19.8 36.2,19.8 36.3,19.8 36.3,19.8 36.4,19.8 36.5,19.8 36.6,19.8 36.7,19.8 36.8,19.8 36.9,19.7 36.9,19.7 
			37,19.6 37,19.6 37.1,19.6 37.1,19.5 37.1,19.5 37.2,19.4 37.2,19.4 37.2,19.4 37.2,19.3 37.2,19.2 37.2,19.1 37.2,19 37.3,18.9 
			37.3,18.9 		" />
      <polygon class="st3" points="44.4,20.1 44.4,20.1 44.5,20 44.5,19.9 44.6,19.8 44.6,19.7 44.7,19.7 44.8,19.7 44.9,19.7 45,19.7 
			45.1,19.7 45.2,19.7 45.3,19.8 45.3,19.9 45.4,20 45.4,20.1 45.4,20.1 45.3,20.1 45.3,20.1 45.3,20 45.2,19.9 45.2,19.9 
			45.1,19.8 45.1,19.8 45,19.8 44.9,19.8 44.8,19.8 44.8,19.8 44.7,19.8 44.6,19.9 44.6,19.9 44.6,20 44.5,20.1 44.5,20.1 
			44.4,20.1 44.4,20.1 		" />
      <polygon class="st3" points="44.7,20.1 44.7,19.9 44.9,19.9 45,19.9 45,19.9 45,19.9 45.1,20 45.1,20 45.1,20 45.1,20 45.1,20.1 
			45.1,20.1 45.1,20.1 45.1,20.1 45.1,20.1 44.9,20.1 44.9,20.1 45,20.1 45,20.1 45,20.1 45,20.1 45,20.1 45,20.1 45,20.1 45,20 
			45,20 45,20 45,20 45,20 45,20 44.9,20 44.9,20 44.8,20 44.8,20.1 44.7,20.1 44.7,20.1 		" />
      <polygon class="st3" points="44.4,20.1 44.4,20.2 44.4,20.3 44.5,20.3 44.5,20.4 44.6,20.5 44.6,20.6 44.7,20.6 44.8,20.6 
			44.9,20.6 45,20.6 45.1,20.6 45.2,20.6 45.3,20.5 45.3,20.4 45.4,20.3 45.4,20.3 45.4,20.2 45.4,20.1 45.3,20.1 45.3,20.2 
			45.3,20.2 45.3,20.3 45.2,20.4 45.2,20.4 45.1,20.5 45.1,20.5 45,20.6 44.9,20.6 44.8,20.6 44.8,20.5 44.7,20.5 44.6,20.4 
			44.6,20.4 44.6,20.3 44.5,20.2 44.5,20.2 44.5,20.1 44.4,20.1 44.4,20.1 		" />
      <polygon class="st3" points="44.7,20.1 44.7,20.3 44.8,20.3 44.8,20.2 44.9,20.2 45,20.3 45.1,20.3 45,20.2 45,20.2 45,20.2 
			45,20.2 45.1,20.1 45.1,20.1 44.9,20.1 44.9,20.1 44.8,20.1 44.8,20.1 44.7,20.1 44.7,20.1 		" />
      <path class="st4" d="M44.4,20.2L44.4,20.2l0-0.1l0-0.1l0-0.1l0.1-0.1l0.1-0.1l0.1,0l0.1,0l0.1,0l0,0l0.1,0l0.1,0l0.1,0l0.1,0.1
			l0.1,0.1l0,0.1l0,0.1l0,0.1l0,0l0,0.1l0,0.1l0,0.1l-0.1,0.1l-0.1,0.1l-0.1,0l-0.1,0l-0.1,0l0,0l-0.1,0l-0.1,0l-0.1,0l-0.1-0.1
			l-0.1-0.1l0-0.1l0-0.1L44.4,20.2 M44.8,20.3L44.8,20.3l-0.1-0.4h0.2l0,0l0,0l0,0l0,0l0,0l0,0l0,0l0,0l0,0l0,0l0,0l0,0l0,0l0,0l0,0
			l0,0l0,0h0l0.1,0.2H45l-0.1-0.2h-0.1V20.3 M44.9,20.1L44.9,20.1L44.9,20.1L44.9,20.1L44.9,20.1L44.9,20.1l0.1,0l0,0l0,0v0l0,0l0,0
			l0,0l0,0l0,0l0,0l0,0h0h0h-0.1L44.9,20.1L44.9,20.1 M44.9,20.6L44.9,20.6L44.9,20.6l0.2,0l0.1,0l0.1,0l0-0.1l0-0.1l0-0.1l0-0.1
			l0,0l0-0.1l0-0.1l0-0.1l0-0.1l-0.1,0l-0.1,0l-0.1,0l-0.1,0l0,0l-0.1,0l-0.1,0l-0.1,0l-0.1,0l0,0.1l0,0.1l0,0.1l0,0.1l0,0l0,0.1
			l0,0.1l0,0.1l0,0.1l0.1,0l0.1,0L44.9,20.6L44.9,20.6" />
      <polygon class="st3" points="38.4,20.6 39.3,20.6 39.3,20.6 39.7,18.6 39.7,18.6 39.7,18.5 39.7,18.4 39.8,18.3 39.8,18.2 
			39.8,18.2 39.9,18.1 39.9,18 40,18 40.1,17.9 40.2,17.9 40.3,17.8 40.4,17.8 40.5,17.8 40.6,17.7 40.7,17.7 40.8,17.7 40.8,17.7 
			40.8,17.7 40.8,17.7 41,16.8 40.9,16.9 40.8,16.9 40.7,16.9 40.6,16.9 40.5,16.9 40.5,17 40.4,17 40.3,17 40.3,17.1 40.2,17.1 
			40.1,17.2 40.1,17.3 40,17.3 40,17.4 39.9,17.4 39.9,17.5 40,16.9 39,16.9 38.4,20.6 38.4,20.6 38.4,20.6 		" />
      <polyline class="st4"
        points="38.4,20.6 39.3,20.6 39.3,20.6 39.7,18.6 39.7,18.6 39.7,18.6 39.7,18.5 39.7,18.4 39.8,18.3 
			39.8,18.2 39.8,18.2 39.9,18.1 39.9,18 40,18 40.1,17.9 40.2,17.9 40.3,17.8 40.4,17.8 40.5,17.8 40.6,17.7 40.7,17.7 40.7,17.7 
			40.8,17.7 40.8,17.7 40.8,17.7 40.8,17.7 41,16.8 41,16.8 40.9,16.9 40.8,16.9 40.7,16.9 40.6,16.9 40.5,16.9 40.5,17 40.4,17 
			40.3,17 40.3,17.1 40.2,17.1 40.1,17.2 40.1,17.3 40,17.3 40,17.4 39.9,17.4 39.9,17.5 40,16.9 39,16.9 38.4,20.6 38.4,20.6 		" />
      <polygon class="st3" points="29.1,20.6 30.1,20.6 30.1,20.6 30.5,18.6 30.5,18.6 30.5,18.5 30.5,18.4 30.5,18.3 30.6,18.3 
			30.6,18.2 30.6,18.1 30.7,18.1 30.7,18 30.8,18 30.9,17.9 31,17.9 31.1,17.9 31.2,17.8 31.3,17.8 31.4,17.8 31.4,17.8 31.5,17.8 
			31.5,17.8 31.5,17.8 31.5,17.8 31.5,17.8 31.5,17.8 31.5,17.8 31.5,17.8 31.6,17.8 31.6,17.7 31.6,17.6 31.6,17.5 31.6,17.4 
			31.7,17.3 31.7,17.2 31.7,17.2 31.8,17.1 31.8,17 31.8,17 31.9,16.9 31.9,16.9 31.9,16.9 31.9,16.9 31.9,16.9 31.9,16.9 
			31.9,16.9 31.8,16.9 31.8,16.9 31.8,16.8 31.8,16.8 31.7,16.8 31.6,16.9 31.5,16.9 31.4,16.9 31.4,16.9 31.3,16.9 31.2,17 
			31.1,17 31.1,17 31,17.1 31,17.1 30.9,17.2 30.9,17.2 30.8,17.3 30.8,17.4 30.7,17.4 30.7,17.5 30.8,16.9 29.8,16.9 29.1,20.6 
			29.1,20.6 29.1,20.6 		" />
      <polyline class="st4" points="29.1,20.6 30.1,20.6 30.1,20.6 30.5,18.6 30.5,18.6 30.5,18.6 30.5,18.5 30.5,18.4 30.5,18.3 
			30.6,18.3 30.6,18.2 30.6,18.1 30.7,18.1 30.7,18 30.8,18 30.9,17.9 31,17.9 31.1,17.9 31.2,17.8 31.3,17.8 31.4,17.8 31.4,17.8 
			31.4,17.8 31.5,17.8 31.5,17.8 31.5,17.8 31.5,17.8 31.5,17.8 31.5,17.8 31.5,17.8 31.5,17.8 31.5,17.8 31.6,17.8 31.6,17.7 
			31.6,17.6 31.6,17.5 31.6,17.4 31.7,17.3 31.7,17.2 31.7,17.2 31.7,17.2 31.8,17.1 31.8,17 31.8,17 31.9,16.9 31.9,16.9 
			31.9,16.9 31.9,16.9 31.9,16.9 31.9,16.9 31.9,16.9 31.9,16.9 31.8,16.9 31.8,16.9 31.8,16.8 31.8,16.8 31.7,16.8 31.7,16.8 
			31.6,16.9 31.5,16.9 31.4,16.9 31.4,16.9 31.3,16.9 31.2,17 31.1,17 31.1,17 31,17.1 31,17.1 30.9,17.2 30.9,17.2 30.8,17.3 
			30.8,17.4 30.7,17.4 30.7,17.5 30.8,16.9 29.8,16.9 29.1,20.6 29.1,20.6 		" />
      <polygon class="st1" points="44.4,24.3 44.4,24.3 44.5,24.2 44.5,24.1 44.6,24 44.6,24 44.7,23.9 44.8,23.9 44.9,23.9 45,23.9 
			45.1,23.9 45.2,24 45.3,24 45.3,24.1 45.4,24.2 45.4,24.3 45.4,24.3 45.3,24.3 45.3,24.2 45.2,24.1 45.2,24.1 45.1,24 45.1,24 
			45,24 44.9,24 44.8,24 44.8,24 44.7,24 44.6,24.1 44.6,24.1 44.6,24.2 44.5,24.3 44.4,24.3 44.4,24.3 		" />
      <polygon class="st1" points="44.7,24.3 44.7,24.2 44.9,24.2 45,24.2 45,24.2 45,24.2 45.1,24.2 45.1,24.2 45.1,24.2 45.1,24.2 
			45.1,24.3 45,24.3 45,24.3 45,24.2 45,24.2 45,24.2 45,24.2 45,24.2 45,24.2 44.9,24.2 44.9,24.2 44.8,24.2 44.8,24.3 44.7,24.3 
			44.7,24.3 		" />
      <polygon class="st1" points="44.4,24.4 44.4,24.3 44.5,24.3 44.5,24.3 44.5,24.4 44.4,24.4 44.4,24.4 		" />
      <polygon class="st1" points="44.7,24.4 44.7,24.3 44.8,24.3 44.8,24.3 44.9,24.3 44.9,24.3 45,24.3 45,24.3 45,24.3 45,24.3 
			45,24.3 45,24.3 45,24.3 45.1,24.3 45.1,24.3 45.1,24.3 45.1,24.3 45.1,24.3 45.1,24.4 44.7,24.4 44.7,24.4 		" />
      <polygon class="st1" points="45.3,24.4 45.3,24.3 45.3,24.3 45.4,24.3 45.4,24.4 45.3,24.4 45.3,24.4 		" />
      <polygon class="st1" points="44.4,24.4 44.4,24.4 44.4,24.5 44.5,24.6 44.5,24.6 44.6,24.7 44.6,24.8 44.7,24.8 44.8,24.8 
			44.9,24.9 45,24.8 45.1,24.8 45.2,24.8 45.3,24.7 45.3,24.6 45.4,24.6 45.4,24.5 45.4,24.4 45.4,24.4 45.3,24.4 45.3,24.4 
			45.3,24.4 45.3,24.5 45.2,24.6 45.2,24.6 45.1,24.7 45.1,24.7 45,24.8 44.9,24.8 44.8,24.8 44.8,24.7 44.7,24.7 44.6,24.6 
			44.6,24.6 44.6,24.5 44.5,24.4 44.5,24.4 44.5,24.4 44.4,24.4 44.4,24.4 		" />
      <polygon class="st1" points="44.7,24.4 44.7,24.6 44.8,24.6 44.8,24.4 44.9,24.4 45,24.6 45.1,24.6 45,24.4 45,24.4 45,24.4 
			45,24.4 45.1,24.4 45.1,24.4 44.7,24.4 44.7,24.4 		" />
      <path class="st3" d="M29.2,18l0-0.2l0-0.2l-0.1-0.2L29,17.3l-0.1-0.1l-0.1-0.1L28.7,17l-0.1-0.1l-0.1-0.1l-0.1,0l-0.1,0l-0.1,0
			l-0.1,0l-0.3,0l-0.2,0l-0.2,0.1L26.9,17l-0.2,0.1l-0.2,0.1l-0.1,0.1l-0.1,0.1l-0.1,0.1l-0.1,0.2L26,18L26,18.1l0,0.1l0,0.1l0,0.1
			l0,0.1l0,0.3l0,0.3l0,0.2l0.1,0.2l0.1,0.2l0.1,0.2l0.1,0.1l0.1,0.1l0.1,0.1l0.2,0.1l0.2,0.1l0.2,0.1l0.2,0l0.2,0l0.2,0l0.2,0h0.1
			l0.1,0h0.1l0.1,0l0.1,0l0.1,0l0.1,0l0.1,0l0.1,0l0.1,0l0.1,0l0.1,0l0.1,0l0.1,0l0.1,0l0.1,0l0.1-0.9l-0.1,0.1l-0.1,0.1l-0.1,0
			l-0.1,0l-0.1,0l-0.1,0l-0.1,0l-0.1,0l-0.1,0l-0.1,0H28l-0.1,0l-0.1,0l-0.1,0l-0.1,0l-0.1,0l-0.1,0l-0.1,0l-0.1,0l-0.1,0l-0.1,0
			l-0.1-0.1l-0.1-0.1l0-0.1l0-0.1l0-0.1l0-0.1l0-0.1l0-0.1l0-0.1l0-0.1l0,0h2.3l0-0.2l0.1-0.3l0-0.3L29.2,18z M28.3,18.3H27l0,0l0,0
			l0,0l0-0.1l0-0.1l0-0.1l0-0.1l0-0.1l0-0.1l0-0.1l0,0l0,0l0.1,0l0.1,0l0.1,0l0.1,0l0.1,0l0.1,0l0.1,0l0.1,0l0.1,0l0.1,0l0.1,0
			l0.1,0l0.1,0l0,0l0,0l0,0l0,0.1l0,0.1l0,0.1l0,0.1l0,0.1L28.3,18.3L28.3,18.3z" />
    </g>
  </g>
</svg>