<svg width="58" height="36" viewBox="0 0 58 36" fill="none" xmlns="http://www.w3.org/2000/svg">
<g clip-path="url(#clip0_3_639)">
<path d="M57.6 34.1C57.6 35.2 56.7 36 55.7 36H2C0.9 36 0 35.1 0 34.1V2C0 0.9 0.9 0 2 0H55.7C56.8 0 57.6 0.9 57.6 1.9V34.1Z" fill="#FAFAFA"/>
<path d="M18.3436 31.9387V30.0804C18.3436 29.3696 17.9232 28.9041 17.2017 28.9041C16.8409 28.9041 16.4485 29.0268 16.1788 29.4309C15.9687 29.0917 15.6674 28.9041 15.2156 28.9041C14.9143 28.9041 14.6131 28.9979 14.3749 29.3371V28.9655H13.7444V31.9387H14.3749V30.2969C14.3749 29.7701 14.6446 29.5211 15.0649 29.5211C15.4853 29.5211 15.6954 29.799 15.6954 30.2969V31.9387H16.3259V30.2969C16.3259 29.7701 16.6272 29.5211 17.016 29.5211C17.4363 29.5211 17.6465 29.799 17.6465 30.2969V31.9387H18.3436ZM27.696 28.9655H26.6732V28.067H26.0427V28.9655H25.4718V29.5536H26.0427V30.9175C26.0427 31.5995 26.3124 32 27.034 32C27.3037 32 27.605 31.9062 27.8151 31.7835L27.633 31.2242C27.4508 31.3469 27.2407 31.3794 27.0901 31.3794C26.7888 31.3794 26.6697 31.1917 26.6697 30.885V29.5536H27.6925V28.9655H27.696ZM33.0483 28.9005C32.6875 28.9005 32.4458 29.0881 32.2952 29.3335V28.9619H31.6647V31.935H32.2952V30.2608C32.2952 29.7665 32.5054 29.485 32.8977 29.485C33.0168 29.485 33.1674 29.5175 33.29 29.5464L33.4722 28.9258C33.3461 28.9005 33.1674 28.9005 33.0483 28.9005ZM24.9604 29.2108C24.6591 28.9943 24.2388 28.9005 23.7869 28.9005C23.0653 28.9005 22.5855 29.2722 22.5855 29.8603C22.5855 30.3546 22.9462 30.6361 23.5768 30.7263L23.878 30.7588C24.2073 30.8201 24.3894 30.9139 24.3894 31.0691C24.3894 31.2856 24.1477 31.4407 23.7274 31.4407C23.307 31.4407 22.9743 31.2856 22.7641 31.1304L22.4629 31.6247C22.7921 31.8737 23.244 31.9964 23.6958 31.9964C24.5365 31.9964 25.0199 31.5923 25.0199 31.0366C25.0199 30.5098 24.6276 30.232 24.0286 30.1381L23.7274 30.1057C23.4577 30.0732 23.2475 30.0119 23.2475 29.8278C23.2475 29.6113 23.4577 29.4887 23.7904 29.4887C24.1512 29.4887 24.512 29.6438 24.6941 29.7376L24.9604 29.2108ZM41.7353 28.9005C41.3745 28.9005 41.1328 29.0881 40.9822 29.3335V28.9619H40.3517V31.935H40.9822V30.2608C40.9822 29.7665 41.1923 29.485 41.5847 29.485C41.7038 29.485 41.8544 29.5175 41.977 29.5464L42.1591 28.933C42.0365 28.9005 41.8579 28.9005 41.7353 28.9005ZM33.6788 30.4521C33.6788 31.3505 34.2813 32 35.2131 32C35.6334 32 35.9346 31.9062 36.2359 31.6608L35.9346 31.134C35.6929 31.3216 35.4548 31.4119 35.1815 31.4119C34.6701 31.4119 34.3093 31.0402 34.3093 30.4521C34.3093 29.8928 34.6701 29.5211 35.1815 29.4923C35.4512 29.4923 35.6929 29.5861 35.9346 29.7701L36.2359 29.2433C35.9346 28.9943 35.6334 28.9041 35.2131 28.9041C34.2813 28.9005 33.6788 29.5536 33.6788 30.4521ZM39.511 30.4521V28.9655H38.8805V29.3371C38.6703 29.0593 38.3691 28.9041 37.9768 28.9041C37.1641 28.9041 36.5336 29.5536 36.5336 30.4521C36.5336 31.3505 37.1641 32 37.9768 32C38.3971 32 38.6983 31.8448 38.8805 31.567V31.9387H39.511V30.4521ZM37.1956 30.4521C37.1956 29.9253 37.5249 29.4923 38.0678 29.4923C38.5793 29.4923 38.94 29.8964 38.94 30.4521C38.94 30.9789 38.5793 31.4119 38.0678 31.4119C37.5284 31.3794 37.1956 30.9753 37.1956 30.4521ZM29.6506 28.9005C28.8099 28.9005 28.2075 29.5211 28.2075 30.4484C28.2075 31.3794 28.8099 31.9964 29.6821 31.9964C30.1025 31.9964 30.5228 31.8737 30.8556 31.5923L30.5543 31.1268C30.3126 31.3144 30.0114 31.4371 29.7137 31.4371C29.3213 31.4371 28.9325 31.2495 28.8415 30.7263H30.9747C30.9747 30.6325 30.9747 30.5711 30.9747 30.4773C31.0027 29.5211 30.4598 28.9005 29.6506 28.9005ZM29.6506 29.4598C30.0429 29.4598 30.3126 29.7088 30.3722 30.1706H28.8695C28.929 29.7701 29.1987 29.4598 29.6506 29.4598ZM45.3151 30.4521V27.7892H44.6846V29.3371C44.4745 29.0593 44.1732 28.9041 43.7809 28.9041C42.9683 28.9041 42.3378 29.5536 42.3378 30.4521C42.3378 31.3505 42.9683 32 43.7809 32C44.2012 32 44.5025 31.8448 44.6846 31.567V31.9387H45.3151V30.4521ZM42.9998 30.4521C42.9998 29.9253 43.3291 29.4923 43.872 29.4923C44.3834 29.4923 44.7442 29.8964 44.7442 30.4521C44.7442 30.9789 44.3834 31.4119 43.872 31.4119C43.3291 31.3794 42.9998 30.9753 42.9998 30.4521ZM21.8919 30.4521V28.9655H21.2614V29.3371C21.0512 29.0593 20.75 28.9041 20.3577 28.9041C19.545 28.9041 18.9145 29.5536 18.9145 30.4521C18.9145 31.3505 19.545 32 20.3577 32C20.778 32 21.0793 31.8448 21.2614 31.567V31.9387H21.8919V30.4521ZM19.5485 30.4521C19.5485 29.9253 19.8778 29.4923 20.4207 29.4923C20.9321 29.4923 21.2929 29.8964 21.2929 30.4521C21.2929 30.9789 20.9321 31.4119 20.4207 31.4119C19.8778 31.3794 19.5485 30.9753 19.5485 30.4521Z" fill="black"/>
<path d="M34.2218 6.38505H24.7502V23.9139H34.2218V6.38505Z" fill="#FF5A00"/>
<path d="M25.3807 15.1495C25.3807 11.5881 27.006 8.42732 29.5 6.38505C27.6645 4.89845 25.3492 4 22.8237 4C16.8409 4 12 8.9866 12 15.1495C12 21.3124 16.8409 26.299 22.8237 26.299C25.3492 26.299 27.6645 25.4005 29.5 23.9139C27.0025 21.9005 25.3807 18.7108 25.3807 15.1495Z" fill="#EB001B"/>
<path d="M47 15.1495C47 21.3124 42.1591 26.299 36.1763 26.299C33.6508 26.299 31.3355 25.4005 29.5 23.9139C32.0255 21.868 33.6193 18.7108 33.6193 15.1495C33.6193 11.5881 31.994 8.42732 29.5 6.38505C31.332 4.89845 33.6473 4 36.1728 4C42.1591 4 47 9.01907 47 15.1495Z" fill="#F79E1B"/>
</g>
<defs>
<clipPath id="clip0_3_639">
<rect width="57.6" height="36" fill="white"/>
</clipPath>
</defs>
</svg>
