<svg width="828" height="1020" viewBox="0 0 828 1020" fill="none" xmlns="http://www.w3.org/2000/svg">
<path d="M444.6 503.7C461.8 525.2 480.9 548.8 494.3 565.3C509.2 520.5 489.3 457.9 467.1 411.1C461.8 440.2 454.4 471 444.6 503.7Z" fill="#CE111E"/>
<path d="M339.8 337.9C317.7 359.1 297.9 398.7 312.8 460.6C326.2 459.5 345.2 458 362.4 456.4C352.6 412.4 345.2 373.1 339.8 337.9Z" fill="#CE111E"/>
<path opacity="0.2" d="M387.4 558.4C263.8 83.8 365.5 43.5 403.9 27.3C442.3 87.9 543.9 245.5 420.2 577.3L387.4 558.4Z" fill="url(#paint0_linear_1_70)"/>
<path opacity="0.1" d="M423.8 531.1C300.2 56.6 401.8 16.2 440.3 0C478.7 60.6 580.3 218.2 456.6 550L423.8 531.1Z" fill="url(#paint1_linear_1_70)"/>
<path opacity="0.15" d="M420.199 577.3C543.899 245.5 442.299 87.9 403.899 27.3V567.9L420.199 577.3Z" fill="url(#paint2_linear_1_70)"/>
<path opacity="0.1" d="M440.7 194.4C440.7 223.3 423.7 236.9 402.7 224.8C381.7 212.7 364.7 179.4 364.7 150.5C364.7 121.6 381.7 108 402.7 120.1C423.7 132.2 440.7 165.5 440.7 194.4Z" fill="white"/>
<path opacity="0.1" d="M433.2 684.7C424.5 670.5 420.3 652.5 416.6 636.7C412.3 618.5 408.7 603 399.7 599.1C389.4 594.6 384.8 606 378.3 621.8C374.5 631.1 370 642.1 363.4 652.2C356.3 644.7 348.8 638.5 340.9 634C307.8 614.9 280.2 631.4 273.7 670.8C269.2 667.4 264.7 664.3 260.1 661.6C207 631 164 665.7 164 739.3C164 812.8 207 897.2 260 927.8C311.5 957.5 353.6 925.6 356 856.5C365.7 874.5 378.6 889.6 392.9 897.8C396.6 899.9 400.2 901.5 403.6 902.5C424.2 947.8 454.9 986.8 489.2 1006.6C551.2 1042.4 601.5 1002 601.6 916.4C601.6 830.8 551.3 732.3 489.3 696.5C468.8 684.7 449.7 681.1 433.2 684.7Z" fill="url(#paint3_linear_1_70)"/>
<path opacity="0.3" d="M533.1 357.3L803.8 513.6L803.9 654.7L557.1 512.2L533.2 520L533.1 357.3Z" fill="url(#paint4_linear_1_70)"/>
<path d="M725.1 538.4V500.1L827.3 559.1V597.4L725.1 538.4Z" fill="#CE111E"/>
<path opacity="0.1" d="M602.7 431.8L662 466V478.4L602.7 444.2V431.8Z" fill="white"/>
<path opacity="0.1" d="M602.8 456.6L709.8 518.4V530.8L602.8 469V456.6Z" fill="white"/>
<path opacity="0.15" d="M602.8 481.4L741.3 561.4V573.8L602.8 493.8V481.4Z" fill="white"/>
<path d="M588.1 436.3C588.1 447.9 581.2 453.4 572.7 448.5C564.2 443.6 557.3 430.2 557.3 418.6C557.3 407 564.2 401.5 572.7 406.4C581.3 411.3 588.1 424.7 588.1 436.3Z" fill="#CE111E"/>
<path opacity="0.3" d="M299.599 158L28.8994 1.80005L28.9994 142.9L275.799 285.3L299.699 320.7L299.599 158Z" fill="url(#paint5_linear_1_70)"/>
<path d="M0 56.8V18.5L102.2 77.5V115.8L0 56.8Z" fill="#CE111E"/>
<path opacity="0.15" d="M230 152.2L170.7 118V130.4L230 164.6V152.2Z" fill="white"/>
<path opacity="0.15" d="M230 177L115.7 111V123.4L230 189.4V177Z" fill="white"/>
<path opacity="0.15" d="M230 201.8L91.5 121.8V134.2L230 214.2V201.8Z" fill="white"/>
<path d="M244.6 173.5C244.6 185.1 251.5 198.5 260 203.4C268.5 208.3 275.4 202.8 275.4 191.2C275.4 179.6 268.5 166.2 260 161.3C251.5 156.5 244.6 161.9 244.6 173.5Z" fill="#CE111E"/>
<path opacity="0.2" d="M263.599 308.6L101.899 215.3V299.5L263.599 392.8V308.6Z" fill="url(#paint6_linear_1_70)"/>
<path opacity="0.15" d="M143.3 259.4L198.7 291.4V301.5L143.3 269.5V259.4Z" fill="white"/>
<path opacity="0.15" d="M143.3 279.7L246.9 339.5V349.7L143.3 289.9V279.7Z" fill="white"/>
<path d="M134.799 262.4C134.799 269.3 130.699 272.6 125.599 269.7C120.499 266.8 116.399 258.8 116.399 251.8C116.399 244.9 120.499 241.6 125.599 244.5C130.599 247.5 134.799 255.5 134.799 262.4Z" fill="#CE111E"/>
<path opacity="0.2" d="M743.8 372.2L582.1 278.9V363.1L743.8 456.5V372.2Z" fill="url(#paint7_linear_1_70)"/>
<path opacity="0.15" d="M623.5 323.1L678.9 355.1V365.2L623.5 333.2V323.1Z" fill="white"/>
<path opacity="0.15" d="M623.6 343.4L727.2 403.2V413.4L623.6 353.6V343.4Z" fill="white"/>
<path d="M615 326.1C615 333 610.9 336.3 605.8 333.4C600.7 330.5 596.6 322.5 596.6 315.5C596.6 308.6 600.7 305.3 605.8 308.2C610.9 311.2 615 319.2 615 326.1Z" fill="#CE111E"/>
<defs>
<linearGradient id="paint0_linear_1_70" x1="547.994" y1="44.1268" x2="237.143" y2="582.68" gradientUnits="userSpaceOnUse">
<stop offset="0.942708" stop-color="#C91717"/>
<stop offset="1" stop-color="white" stop-opacity="0"/>
</linearGradient>
<linearGradient id="paint1_linear_1_70" x1="584.385" y1="16.8343" x2="273.534" y2="555.387" gradientUnits="userSpaceOnUse">
<stop stop-color="#AD1616"/>
<stop offset="1" stop-color="white" stop-opacity="0"/>
</linearGradient>
<linearGradient id="paint2_linear_1_70" x1="490.026" y1="161.562" x2="250.063" y2="594.542" gradientUnits="userSpaceOnUse">
<stop stop-color="#9D1C1C" stop-opacity="0"/>
<stop offset="1" stop-color="white"/>
</linearGradient>
<linearGradient id="paint3_linear_1_70" x1="467.452" y1="683.919" x2="333.189" y2="916.532" gradientUnits="userSpaceOnUse">
<stop offset="0.479167" stop-color="#B51313"/>
<stop offset="1" stop-color="white" stop-opacity="0"/>
</linearGradient>
<linearGradient id="paint4_linear_1_70" x1="649.41" y1="361.869" x2="684.41" y2="645.735" gradientUnits="userSpaceOnUse">
<stop stop-color="#B01A1A"/>
<stop offset="1" stop-color="white" stop-opacity="0"/>
</linearGradient>
<linearGradient id="paint5_linear_1_70" x1="240.566" y1="101.501" x2="100.784" y2="210.946" gradientUnits="userSpaceOnUse">
<stop stop-color="#B61D1D"/>
<stop offset="1" stop-color="white" stop-opacity="0"/>
</linearGradient>
<linearGradient id="paint6_linear_1_70" x1="200.969" y1="272.427" x2="164.503" y2="335.604" gradientUnits="userSpaceOnUse">
<stop stop-color="#9C1010"/>
<stop offset="1" stop-color="white" stop-opacity="0"/>
</linearGradient>
<linearGradient id="paint7_linear_1_70" x1="681.231" y1="336.104" x2="644.765" y2="399.281" gradientUnits="userSpaceOnUse">
<stop stop-color="#AD1D1D"/>
<stop offset="1" stop-color="white" stop-opacity="0"/>
</linearGradient>
</defs>
</svg>
