<svg width="300" height="303" viewBox="0 0 300 303" fill="none" xmlns="http://www.w3.org/2000/svg">
<g id="Group 34">
<g id="Group 31">
<g id="Group 9">
<g id="Logistics_Two Color 1">
<path id="Vector" d="M109.521 143.52L113.584 142.475C113.584 142.475 114.506 145.85 110.397 146.956L109.521 143.52Z" fill="#24285B"/>
<path id="Vector_2" d="M69.7961 133.187C69.044 130.731 68.969 127.936 69.5871 125.399C70.2053 122.863 71.4673 120.788 73.1024 119.62C74.6977 118.501 76.4087 117.776 77.9337 118.317C80.7482 119.282 86.0589 132.406 89.295 141.061C90.1116 143.251 91.3744 144.998 92.9014 146.052C94.4284 147.106 96.1409 147.412 97.7922 146.926L109.703 143.409L110.943 148.253L91.3821 158.028C89.5278 158.953 87.5028 158.749 85.749 157.462C78.712 152.341 73.0777 143.767 69.7961 133.187Z" fill="#CE111E"/>
<path id="Vector_3" opacity="0.08" d="M69.7961 133.187C69.044 130.731 68.969 127.936 69.5871 125.399C70.2053 122.863 71.4673 120.788 73.1024 119.62C74.6977 118.501 76.4087 117.776 77.9337 118.317C80.7482 119.282 86.0589 132.406 89.295 141.061C90.1116 143.251 91.3744 144.998 92.9014 146.052C94.4284 147.106 96.1409 147.412 97.7922 146.926L109.703 143.409L110.943 148.253L91.3821 158.028C89.5278 158.953 87.5028 158.749 85.749 157.462C78.712 152.341 73.0777 143.767 69.7961 133.187Z" fill="black"/>
<path id="Vector_4" opacity="0.45" d="M85.5961 228.468C113.696 228.468 136.476 223.198 136.476 216.697C136.476 210.195 113.696 204.925 85.5961 204.925C57.4959 204.925 34.7162 210.195 34.7162 216.697C34.7162 223.198 57.4959 228.468 85.5961 228.468Z" fill="#E6E6E6"/>
<path id="Vector_5" d="M108.224 187.835C108.224 187.835 108.744 189.919 110.021 190.061C111.298 190.202 111.641 192.046 110.501 192.55C109.36 193.054 106.389 190.909 106.389 190.909L106.455 188.173L108.224 187.835Z" fill="#CE111E"/>
<path id="Vector_6" d="M77.9668 212.873C77.9668 212.873 77.5535 215.018 78.5371 216.248C79.5207 217.477 79.0579 219.278 77.9379 218.676C76.8178 218.074 75.268 213.758 75.268 213.758L76.4045 211.607L77.9668 212.873Z" fill="#CE111E"/>
<path id="Vector_7" d="M61.8072 116.958L64.6754 122.706L61.956 127.617L58.2612 117.044L61.8072 116.958Z" fill="#F4A28C"/>
<path id="Vector_8" d="M55.7112 111.382C55.7554 110.682 55.9165 110.009 56.1799 109.425C56.4432 108.841 56.8005 108.364 57.2192 108.037C57.638 107.711 58.105 107.545 58.5778 107.555C59.0506 107.564 59.5143 107.75 59.9268 108.094C61.8981 109.698 64.4729 112.532 62.9231 115.507C60.5508 120.068 56.4882 115.692 56.4882 115.692C55.9486 114.401 55.6782 112.902 55.7112 111.382Z" fill="#F4A28C"/>
<path id="Vector_9" d="M58.8109 114.253C58.8109 114.253 57.8149 113.638 57.7653 115.212C57.7157 116.786 59.2407 116.761 59.5011 115.864C59.7615 114.966 58.8109 114.253 58.8109 114.253Z" fill="#F4A28C"/>
<path id="Vector_10" d="M55.7939 107.221C54.4011 111.087 52.9008 111.874 54.9673 114.259C57.0337 116.644 56.1493 120.37 59.0712 119.423C60.8897 118.808 60.0962 115.907 59.2366 113.78C58.9705 113.121 58.8255 112.37 58.816 111.602C58.8066 110.834 58.9331 110.076 59.1828 109.403C59.5754 108.352 59.84 107.141 59.4308 106.329C59.0216 105.518 56.4469 105.432 55.7939 107.221Z" fill="#24285B"/>
<path id="Vector_11" d="M57.4098 135.922C57.5692 133.713 58.0471 131.581 58.811 129.671C59.5749 127.761 60.6067 126.12 61.8361 124.857C66.5683 119.939 75.4747 110.165 80.0208 116.036C86.2573 124.07 88.6999 166.363 88.6999 166.363L71.4988 177.004C71.4988 177.004 56.0501 155.704 57.4098 135.922Z" fill="#CE111E"/>
<path id="Vector_12" opacity="0.08" d="M63.2083 123.425C63.2083 123.425 63.6629 166.99 88.0799 158.003L88.6916 166.363L71.4988 177.004C71.4988 177.004 62.0759 165.539 57.8603 144.983C57.8603 144.983 55.7939 134.822 59.5837 128.041C60.5565 126.135 61.7924 124.561 63.2083 123.425Z" fill="black"/>
<path id="Vector_13" d="M54.988 114.259L62.5139 102.838C62.5479 102.783 62.5679 102.712 62.5706 102.638C62.5732 102.564 62.5583 102.49 62.5284 102.43C62.4985 102.371 62.4555 102.328 62.4068 102.311C62.3582 102.293 62.3069 102.301 62.2618 102.334L60.0342 104.067C59.6573 104.375 59.2387 104.552 58.8094 104.586C58.3802 104.62 57.9512 104.51 57.5545 104.264C56.918 103.771 56.1798 103.655 55.488 103.938C54.1614 104.725 50.26 109.458 54.988 114.259Z" fill="#FFD200"/>
<path id="Vector_14" d="M59.5383 113.438C59.5383 113.438 58.038 111.44 57.5669 113.475C57.0957 115.51 59.1456 116.665 60.0838 115.583C61.022 114.502 59.5383 113.438 59.5383 113.438Z" fill="#F4A28C"/>
<path id="Vector_15" d="M71.4988 177.004C71.4988 177.004 75.9623 183.969 81.3268 181.27C86.6913 178.572 101.933 164.31 106.091 189.145L109.153 188.358C109.153 188.358 109.306 172.375 103.086 166.646C96.8664 160.917 88.6916 166.363 88.6916 166.363L71.4988 177.004Z" fill="#24285B"/>
<path id="Vector_16" d="M72.9867 178.264C72.9867 178.264 85.4555 190.233 75.5077 211.502L78.2395 213.168C78.2395 213.168 90.8035 198.925 83.0915 172.473L72.9867 178.264Z" fill="#24285B"/>
<path id="Vector_17" d="M70.6309 129.812C69.8778 127.357 69.8022 124.56 70.4204 122.024C71.0387 119.487 72.3014 117.412 73.9372 116.245C75.5325 115.126 77.2435 114.401 78.7727 114.936C81.5831 115.907 86.8938 129.025 90.1299 137.68C90.9471 139.871 92.2104 141.619 93.738 142.674C95.2656 143.729 96.9788 144.036 98.6312 143.551L110.542 140.047L111.782 144.891L92.2211 154.665C90.3669 155.587 88.3433 155.386 86.588 154.106C79.5492 148.977 73.9138 140.398 70.6309 129.812Z" fill="#CE111E"/>
<path id="Vector_18" opacity="0.46" d="M70.6309 129.812C69.8778 127.357 69.8022 124.56 70.4204 122.024C71.0387 119.487 72.3014 117.412 73.9372 116.245C75.5325 115.126 77.2435 114.401 78.7727 114.936C81.5831 115.907 86.8938 129.025 90.1299 137.68C90.9471 139.871 92.2104 141.619 93.738 142.674C95.2656 143.729 96.9788 144.036 98.6312 143.551L110.542 140.047L111.782 144.891L92.2211 154.665C90.3669 155.587 88.3433 155.386 86.588 154.106C79.5492 148.977 73.9138 140.398 70.6309 129.812Z" fill="white"/>
<g id="box">
<path id="Vector_19" opacity="0.08" d="M118.228 102L93.6301 113.235L100.647 147.224L125.245 135.989L118.228 102Z" fill="black"/>
<path id="Vector_20" d="M107.598 106.858L83 118.092L90.0169 152.081L114.615 140.847L107.598 106.858Z" fill="#FFD200"/>
<path id="Vector_21" d="M118.228 102L93.6301 113.235L100.647 147.224L125.245 135.989L118.228 102Z" fill="#FFD200"/>
<path id="Vector_22" opacity="0.46" d="M104.45 113.863L98.148 116.741L99.918 125.314L106.22 122.436L104.45 113.863Z" fill="white"/>
<path id="Vector_23" opacity="0.05" d="M89.6007 150.076L124.044 130.19L125.164 135.624L114.617 140.862L89.9892 151.681L89.6007 150.076Z" fill="black"/>
<path id="Vector_24" opacity="0.22" d="M114.562 103.677L111.223 105.202L113.032 113.964L116.37 112.439L114.562 103.677Z" fill="white"/>
</g>
<g id="boxs">
<path id="Vector_25" opacity="0.08" d="M103.228 59L78.6301 70.2345L85.6471 104.224L110.245 92.9892L103.228 59Z" fill="black"/>
<path id="Vector_26" d="M92.5978 63.8577L68 75.0922L75.0169 109.081L99.6147 97.8469L92.5978 63.8577Z" fill="#FFD200"/>
<path id="Vector_27" d="M110.805 135.397L114.867 134.345C114.867 134.345 115.789 137.72 111.681 138.827L110.805 135.397Z" fill="#24285B"/>
<path id="Vector_28" opacity="0.22" d="M112.53 91.9012L108.607 93.693L110.731 103.983L114.654 102.191L112.53 91.9012Z" fill="white"/>
<path id="Vector_29" d="M103.879 95.4774L74.9908 108.672L83.2319 148.59L112.12 135.396L103.879 95.4774Z" fill="#FFD200"/>
<path id="Vector_30" d="M103.228 59L78.6301 70.2345L85.6471 104.224L110.245 92.9892L103.228 59Z" fill="#FFD200"/>
<path id="Vector_31" opacity="0.46" d="M89.4495 70.8626L83.148 73.7407L84.918 82.3144L91.2195 79.4363L89.4495 70.8626Z" fill="white"/>
<path id="Vector_32" opacity="0.08" d="M116.36 89.7811L87.4715 102.975L95.7126 142.894L124.601 129.7L116.36 89.7811Z" fill="black"/>
<path id="Vector_33" opacity="0.46" d="M100.95 104.141L94.6482 107.019L96.4182 115.593L102.72 112.715L100.95 104.141Z" fill="white"/>
<path id="Vector_34" opacity="0.05" d="M74.6007 107.076L109.044 87.1902L110.164 92.6243L99.617 97.8618L74.9892 108.681L74.6007 107.076Z" fill="black"/>
<path id="Vector_35" opacity="0.22" d="M99.5616 60.6774L96.2232 62.2021L98.032 70.9639L101.37 69.4391L99.5616 60.6774Z" fill="white"/>
<path id="Vector_36" d="M116.36 89.7811L87.4715 102.975L95.7126 142.894L124.601 129.7L116.36 89.7811Z" fill="#FFD200"/>
</g>
</g>
</g>
<g id="Group 16">
<g id="Group 13">
<g id="Group 12">
<rect id="Rectangle 17" width="198.782" height="148.456" transform="matrix(0.758655 0.651492 -1.48115e-08 1 123.202 21.99)" fill="#F1F1F1"/>
<path id="Vector 11" d="M165.962 169.101L165.962 208.464" stroke="black" stroke-width="2"/>
<path id="Vector 9" d="M144.783 133.467L165.962 151.606L165.949 134.393" stroke="black" stroke-width="2"/>
<path id="Vector 10" d="M143.861 153.09L165.948 172.057L165.948 151.827" stroke="black" stroke-width="2"/>
<path id="Vector 1" d="M144.333 41.3972L144.371 91.7279L122.382 72.8941" stroke="black" stroke-width="2"/>
<path id="Vector 2" d="M144.371 91.786L144.408 139.87L122.343 120.972" stroke="#CCCCCC" stroke-width="2"/>
<path id="Vector 3" d="M144.403 133.166L144.131 189.717" stroke="black" stroke-width="2"/>
<path id="Vector 4" d="M144.361 78.1211L165.962 96.6222L165.936 62.8518" stroke="black" stroke-width="2"/>
<path id="Vector 5" d="M144.371 91.8761L165.962 110.368L165.952 97.1576" stroke="black" stroke-width="2"/>
<path id="Vector 6" d="M144.134 103.495L165.998 122.221L165.989 110.079" stroke="black" stroke-width="2"/>
<path id="Vector 7" d="M144.143 114.864L165.98 133.567L165.971 122.115" stroke="black" stroke-width="2"/>
<path id="Vector 12" d="M165.991 96.6634L187.976 115.493L187.946 77.0254" stroke="black" stroke-width="2"/>
<path id="Vector 13" d="M187.971 116.148C187.971 147.996 187.971 214.826 187.971 227.365" stroke="black" stroke-width="2"/>
<path id="Vector 14" d="M165.962 115.991L187.972 134.892" stroke="black" stroke-width="2"/>
<path id="Vector 15" d="M164.325 132.08L188.008 152.681" stroke="black" stroke-width="2"/>
<path id="Vector 16" d="M209.435 95.5287L209.634 245.968" stroke="black" stroke-width="2"/>
<path id="Vector 17" d="M252.909 132.862L252.313 282.617" stroke="black" stroke-width="2"/>
<path id="Vector 18" d="M252.363 184.301L273.568 202.463" stroke="black" stroke-width="2"/>
<path id="Vector 19" d="M252.909 233.191L273.449 250.783" stroke="black" stroke-width="2"/>
<path id="Vector 20" d="M231.081 114.117L230.899 264.229" stroke="black" stroke-width="2"/>
<path id="Vector 21" d="M231.081 152.593L252.952 171.325" stroke="black" stroke-width="2"/>
<path id="Vector 22" d="M252.909 184.721L231.081 165.406" stroke="black" stroke-width="2"/>
<path id="Vector 23" d="M252.363 196.441L231.081 178.214" stroke="black" stroke-width="2"/>
<path id="Vector 24" d="M252.764 209.227L230.754 190.694" stroke="black" stroke-width="2"/>
<path id="Vector 25" d="M252.363 226.115L231.081 207.894" stroke="black" stroke-width="2"/>
<path id="Vector 26" d="M252.909 246.894L230.536 227.732" stroke="black" stroke-width="2"/>
<path id="Vector 27" d="M252.363 262.984L231.118 244.686" stroke="black" stroke-width="2"/>
<g id="Vector 31" style="mix-blend-mode:exclusion" filter="url(#filter0_f_69_15)">
<path d="M190.154 144.614L206.51 158.622L206.521 173.256L190.165 159.248L190.154 144.614Z" fill="white"/>
<path d="M190.154 144.614L206.51 158.622L206.521 173.256L190.165 159.248L190.154 144.614Z" stroke="black"/>
</g>
<path id="Vector 33" d="M209.072 152.856L230.536 171.288" stroke="black" stroke-width="2"/>
<path id="Vector 32" d="M209.654 171.895L231.172 190.579" stroke="black" stroke-width="2"/>
<path id="Vector 34" d="M122.397 169.804L122.397 22.5032L274.009 152.699L274.009 300L122.397 169.804Z" stroke="black" stroke-width="3"/>
</g>
<rect id="Rectangle 21" width="25.9833" height="48.2471" transform="matrix(0.758655 0.651492 -1.48115e-08 1 123.65 74.6328)" fill="white"/>
<g id="door">
<rect id="Rectangle 22" x="1.13798" y="0.522761" width="22.9833" height="45.2471" transform="matrix(0.758655 -0.651492 1.48115e-08 1 124.373 106.296)" fill="#E6E6E6" stroke="#424C7C" stroke-width="3"/>
</g>
<ellipse id="Ellipse 2" cx="130.147" cy="126.942" rx="3.36006" ry="4.99774" fill="#424C7C"/>
</g>
<rect id="Rectangle 25" width="34.1886" height="198.58" transform="matrix(0.757397 -0.652954 0.759912 0.650026 123.202 22.3236)" fill="#424C7C"/>
<rect id="Rectangle 26" width="34.1653" height="146.715" transform="matrix(0.758655 -0.651492 1.48115e-08 1 273.285 152.2)" fill="#424C7C"/>
</g>
</g>
</g>
<defs>
<filter id="filter0_f_69_15" x="186.154" y="140.614" width="24.3667" height="36.6426" filterUnits="userSpaceOnUse" color-interpolation-filters="sRGB">
<feFlood flood-opacity="0" result="BackgroundImageFix"/>
<feBlend mode="normal" in="SourceGraphic" in2="BackgroundImageFix" result="shape"/>
<feGaussianBlur stdDeviation="2" result="effect1_foregroundBlur_69_15"/>
</filter>
</defs>
</svg>
