<svg width="500" height="500" viewBox="0 0 500 500" fill="none" xmlns="http://www.w3.org/2000/svg">
<path d="M129.089 3.33439L136.551 0.476341V24.9286L129.089 26.9927V6.66878" fill="#3D4041"/>
<path d="M495.237 89.3934C477.294 85.5827 365.037 62.8771 345.348 59.0664C246.11 40.6478 136.551 24.9285 136.551 24.9285L128.612 26.9927L129.883 58.7488C186.885 67.3229 388.536 103.366 479.994 110.67C485.075 102.89 489.521 96.3798 495.237 89.3934Z" fill="#292B2D"/>
<path d="M20.1652 54.9381V32.2325L133.376 2.06415L129.565 37.4722L20.1652 54.9381Z" fill="#3D4041"/>
<path d="M494.919 73.1978L137.028 0.476341L136.551 24.9285L495.237 89.3935L494.919 73.1978Z" fill="url(#paint0_linear_9_3)"/>
<path d="M484.598 363.29L105.43 410.448L109.241 475.707L484.598 398.063V363.29Z" fill="url(#paint1_linear_9_3)"/>
<path d="M109.241 475.707L32.0736 451.413C25.4049 450.143 21.5941 446.809 21.5941 441.092V311.051C21.5941 305.176 26.1988 300.73 32.0736 300.73H109.241C115.116 300.73 119.721 305.335 119.721 311.051V465.386C119.085 471.261 114.481 475.707 109.241 475.707Z" fill="url(#paint2_linear_9_3)"/>
<path d="M484.598 358.685C333.122 362.496 -179.74 393.935 119.244 455.541C120.514 450.143 385.678 400.921 484.598 383.931C484.916 376.945 484.122 365.83 484.598 358.685Z" fill="url(#paint3_linear_9_3)"/>
<path d="M492.696 92.5691L106.859 25.2461L112.734 441.728L492.537 376.469" fill="url(#paint4_linear_9_3)"/>
<path d="M118.292 437.282L202.604 424.42L201.016 46.6815L119.085 32.7088L118.292 437.282Z" fill="url(#paint5_linear_9_3)"/>
<path d="M8.89172 39.6951L112.417 14.1315L112.575 442.045L9.0505 416.164L8.89172 39.6951Z" fill="url(#paint6_linear_9_3)"/>
<path d="M45.5701 122.579L46.364 123.055L45.5701 122.579Z" fill="#E8D5C4"/>
<path d="M52.7152 158.94C53.1919 158.94 53.1919 158.94 53.1919 158.463C53.1919 158.622 53.1919 158.94 52.7152 158.94C53.1919 158.94 53.1919 158.94 52.7152 158.94Z" fill="#EF9B65"/>
<path d="M81.1368 131.47L81.6132 130.994C81.6132 131.47 81.1368 132.264 81.1368 133.058C81.1368 132.582 81.1368 132.264 81.1368 131.47Z" fill="#DEEBF2"/>
<path d="M45.5701 122.579L46.8403 121.467L45.5701 122.579Z" fill="#ECF2F7"/>
<path d="M53.9854 291.045C53.9854 291.521 53.509 290.251 53.509 290.251C53.9854 290.41 53.9854 290.727 53.9854 291.045Z" fill="#DAA679"/>
<path d="M53.9854 281.677C54.4617 281.677 55.2556 282.153 55.7319 282.153C55.2556 281.994 54.4617 281.994 53.9854 281.677Z" fill="#E4BC92"/>
<path d="M63.1947 282.471C62.7183 282.947 62.7183 282.947 62.4008 283.265C62.7183 282.947 63.1947 282.471 63.1947 282.471Z" fill="#C92027"/>
<path d="M73.1981 274.69C73.1981 275.167 72.7214 275.167 72.7214 275.167C73.1981 275.167 73.1981 274.69 73.1981 274.69Z" fill="#7F171C"/>
<path d="M73.1979 274.691C73.1979 274.214 73.5157 274.214 73.1979 274.691C73.5157 274.214 73.5157 274.691 73.1979 274.691Z" fill="#C92027"/>
<path d="M74.4681 196.253C74.4681 196.253 74.7855 196.57 74.4681 196.253C74.7855 196.57 74.7855 196.57 74.4681 196.253C74.7855 196.57 74.7855 196.57 74.4681 196.253C74.7855 196.57 74.7855 196.57 74.4681 196.253C74.7855 196.57 74.4681 196.253 74.4681 196.253Z" fill="#C92027"/>
<path d="M78.2788 338.996C78.2788 338.996 78.5966 338.996 78.2788 338.996C78.5966 338.996 78.5966 338.996 78.2788 338.996C78.5966 338.996 78.5966 338.996 78.2788 338.996C78.5966 338.996 78.5966 338.996 78.2788 338.996C78.5966 339.473 78.5966 339.473 78.2788 338.996C78.5966 338.996 78.5966 338.996 78.2788 338.996C78.5966 338.996 78.5966 338.996 78.2788 338.996C78.5966 338.996 78.5966 338.996 78.2788 338.996Z" fill="#44B491"/>
<path d="M78.2788 337.885C78.2788 337.409 78.2788 337.409 78.2788 337.885C78.2788 337.409 78.2788 337.409 78.2788 337.885C78.7552 337.885 78.2788 338.361 78.2788 338.361C78.2788 337.885 78.2788 337.885 78.2788 337.885Z" fill="#44B491"/>
<path d="M78.5964 340.267C78.5964 340.743 78.5964 340.743 78.5964 340.267C79.0731 340.743 78.5964 340.267 78.5964 340.267Z" fill="#44B491"/>
<path d="M79.5491 334.551C79.0728 335.345 79.0728 335.027 79.0728 335.345C79.0728 334.868 79.5491 334.551 79.5491 334.551Z" fill="#44B491"/>
<path d="M79.8666 328.835C79.8666 328.358 80.3429 328.041 80.3429 328.041C79.8666 328.835 79.8666 328.835 79.8666 328.835Z" fill="#44B491"/>
<path d="M82.8834 346.777C82.8834 347.253 83.2012 347.253 82.8834 346.777C82.8834 347.253 82.8834 346.777 82.8834 346.777Z" fill="#C92027"/>
<path d="M94.4744 130.2C95.2683 130.2 95.2683 130.994 94.4744 131.47C93.9981 131.47 93.9981 131.47 93.6805 130.994C93.6805 130.518 94.4744 130.518 94.4744 130.2Z" fill="#ED7786"/>
<path d="M144.173 364.719C144.173 364.719 144.173 364.243 144.173 364.719C144.173 364.243 144.173 364.243 144.173 364.719C144.649 364.243 144.649 364.719 144.173 364.719C144.173 364.243 144.173 364.243 144.173 364.719Z" fill="#EC846B"/>
<path d="M244.363 256.907C243.887 256.431 242.617 256.431 243.093 255.637C243.569 255.954 244.84 256.431 244.363 256.907Z" fill="#505252"/>
<path d="M244.363 175.452C243.569 175.452 246.11 258.018 243.569 256.431L244.363 175.452Z" fill="#191617"/>
<path d="M207.526 257.225C207.367 257.225 206.415 257.225 206.415 257.225C206.415 257.225 205.462 174.023 207.05 173.706L207.526 257.225Z" fill="#656566"/>
<path d="M207.209 173.865L244.363 175.135L244.046 254.366L207.209 257.225V173.865Z" fill="#CFCCCE"/>
<path d="M261.512 175.929L244.205 194.189L243.887 256.431L277.707 255.954V175.77" fill="#9F9D9E"/>
<path d="M244.363 175.135L244.204 194.347L261.512 175.929L244.363 175.135Z" fill="#B2B0AF"/>
<path d="M216.735 223.087C210.225 228.326 207.209 239.124 207.209 239.124V257.225L244.205 256.431C244.205 256.431 244.205 194.506 244.205 194.189L232.455 206.574" fill="#BAB5BA"/>
<path d="M112.417 26.1988V14.1315L124.96 15.2429V33.5027L115.751 32.7088L112.417 26.1988Z" fill="white"/>
<path d="M491.585 161.003C455.224 157.669 301.842 141.156 253.255 135.916C235.313 134.011 218.8 132.105 205.303 130.676L205.621 127.977C219.117 129.406 235.63 131.153 253.573 133.217C302.159 138.457 455.541 154.97 491.902 158.304L491.585 161.003Z" fill="#BAB5BA"/>
<path d="M279.221 57.7939L276.522 57.7998L277.306 414.103L280.005 414.097L279.221 57.7939Z" fill="#BAB5BA"/>
<path d="M398.222 167.037C385.36 166.084 330.105 161.003 317.402 160.051C304.382 158.939 291.045 157.669 277.707 156.716L277.866 154.017C291.204 155.129 304.7 156.24 317.72 157.352C330.422 158.463 385.519 163.385 398.38 164.338L398.222 167.037Z" fill="#BAB5BA"/>
<path d="M397.587 201.175C390.441 201.016 307.399 197.841 300.413 197.523C293.585 197.205 286.281 196.888 279.136 196.729L279.295 194.03C286.281 194.189 293.585 194.665 300.572 194.824C307.558 195.141 390.6 198.158 397.745 198.476L397.587 201.175Z" fill="#BAB5BA"/>
<path d="M397.586 234.043H278.342V236.742H397.586V234.043Z" fill="#BAB5BA"/>
<path d="M278.66 276.913L278.501 274.214C284.217 274.055 289.616 273.738 295.173 273.579C301.365 273.42 392.506 268.815 398.38 268.657L398.539 271.356C392.506 271.674 301.366 276.119 295.332 276.278C289.775 276.437 284.217 276.596 278.66 276.913Z" fill="#BAB5BA"/>
<path d="M277.625 312.901L201.979 319.035L202.197 321.725L277.844 315.592L277.625 312.901Z" fill="#BAB5BA"/>
<path d="M278.66 255.796L278.501 253.096C284.852 252.779 291.045 252.62 297.078 252.62C301.366 252.62 488.568 248.492 492.696 248.333L492.855 251.032C488.727 251.191 301.524 255.16 297.237 255.319C291.204 255.319 284.852 255.478 278.66 255.796Z" fill="#BAB5BA"/>
<path d="M203.08 300.889L202.922 298.19C225.786 296.602 249.127 295.491 271.832 294.538C288.822 293.744 475.389 279.93 492.379 278.977L492.537 281.677C475.23 282.629 288.663 296.443 271.832 297.237C249.285 298.19 226.103 299.143 203.08 300.889Z" fill="#BAB5BA"/>
<path d="M203.08 343.284L202.922 340.584C235.472 338.044 268.339 334.392 300.254 331.216C319.943 329.152 472.69 312.956 492.537 311.051L492.855 313.75C473.007 315.656 320.102 331.851 300.572 333.916C268.498 337.25 235.63 340.902 203.08 343.284Z" fill="#BAB5BA"/>
<path d="M492.696 220.07C487.933 219.911 303.112 216.418 298.666 216.259C291.997 216.1 284.852 216.1 277.866 215.783L278.025 213.084C285.011 213.401 292.156 213.56 298.825 213.56C303.43 213.56 488.25 217.212 492.855 217.371L492.696 220.07Z" fill="#BAB5BA"/>
<path d="M277.707 176.723L277.866 174.024L492.061 187.361L491.902 190.06L277.707 176.723Z" fill="#BAB5BA"/>
<path d="M119.271 121.699L119.038 124.388L200.507 131.451L200.74 128.762L119.271 121.699Z" fill="white"/>
<path d="M119.149 145.206L118.983 147.9L200.441 152.923L200.607 150.228L119.149 145.206Z" fill="white"/>
<path d="M119.065 167.984L118.915 170.679L200.397 175.233L200.548 172.538L119.065 167.984Z" fill="white"/>
<path d="M118.896 190.278L118.844 192.977L200.282 194.546L200.334 191.848L118.896 190.278Z" fill="white"/>
<path d="M119.276 212.39L119.219 215.089L200.657 216.814L200.714 214.115L119.276 212.39Z" fill="white"/>
<path d="M200.534 234.615L119.08 235.397L119.106 238.097L200.56 237.314L200.534 234.615Z" fill="white"/>
<path d="M200.515 257.072L119.069 257.993L119.099 260.692L200.545 259.771L200.515 257.072Z" fill="white"/>
<path d="M200.458 277.316L119.061 280.309L119.16 283.006L200.557 280.013L200.458 277.316Z" fill="white"/>
<path d="M200.35 298.454L118.925 303.942L119.106 306.635L200.532 301.147L200.35 298.454Z" fill="white"/>
<path d="M200.393 342.046L118.972 349.58L119.221 352.268L200.641 344.734L200.393 342.046Z" fill="white"/>
<path d="M119.244 440.14H116.386L118.133 32.7088L200.699 44.9349L200.381 47.7929L120.991 35.8844L119.244 440.14Z" fill="white"/>
<path d="M340.743 68.752L343.442 69.2283V402.985H340.743V68.752Z" fill="#BAB5BA"/>
<path d="M397.11 77.9613L399.651 78.4376V393.141H397.11V77.9613Z" fill="#BAB5BA"/>
<path d="M452.207 85.9003H449.508V382.026H452.207V85.9003Z" fill="#BAB5BA"/>
<path d="M261.988 187.979V222.293L217.529 221.675V187.361L261.988 187.979Z" fill="white"/>
<path d="M232.596 206.463V207H230.107V206.463H232.596ZM230.237 202.023V207H229.578V202.023H230.237ZM233.088 205.192V205.113C233.088 204.847 233.127 204.599 233.204 204.372C233.282 204.141 233.393 203.942 233.539 203.773C233.685 203.603 233.861 203.47 234.069 203.377C234.276 203.281 234.509 203.233 234.766 203.233C235.026 203.233 235.259 203.281 235.467 203.377C235.676 203.47 235.854 203.603 236 203.773C236.148 203.942 236.261 204.141 236.338 204.372C236.416 204.599 236.455 204.847 236.455 205.113V205.192C236.455 205.458 236.416 205.706 236.338 205.934C236.261 206.161 236.148 206.361 236 206.532C235.854 206.7 235.678 206.833 235.47 206.928C235.265 207.022 235.033 207.068 234.773 207.068C234.513 207.068 234.28 207.022 234.072 206.928C233.865 206.833 233.687 206.7 233.539 206.532C233.393 206.361 233.282 206.161 233.204 205.934C233.127 205.706 233.088 205.458 233.088 205.192ZM233.72 205.113V205.192C233.72 205.376 233.742 205.551 233.785 205.715C233.828 205.877 233.893 206.02 233.98 206.146C234.069 206.271 234.179 206.37 234.312 206.443C234.444 206.514 234.597 206.549 234.773 206.549C234.946 206.549 235.098 206.514 235.228 206.443C235.36 206.37 235.469 206.271 235.556 206.146C235.642 206.02 235.707 205.877 235.75 205.715C235.796 205.551 235.819 205.376 235.819 205.192V205.113C235.819 204.931 235.796 204.759 235.75 204.597C235.707 204.433 235.641 204.288 235.552 204.163C235.466 204.035 235.356 203.935 235.224 203.862C235.094 203.789 234.942 203.753 234.766 203.753C234.593 203.753 234.44 203.789 234.308 203.862C234.178 203.935 234.069 204.035 233.98 204.163C233.893 204.288 233.828 204.433 233.785 204.597C233.742 204.759 233.72 204.931 233.72 205.113ZM238.728 206.549C238.878 206.549 239.017 206.518 239.145 206.457C239.272 206.395 239.377 206.311 239.459 206.204C239.541 206.094 239.588 205.97 239.599 205.831H240.201C240.189 206.05 240.115 206.254 239.979 206.443C239.844 206.63 239.667 206.781 239.449 206.897C239.23 207.011 238.99 207.068 238.728 207.068C238.45 207.068 238.207 207.019 238 206.921C237.794 206.823 237.624 206.689 237.487 206.518C237.352 206.347 237.251 206.151 237.183 205.93C237.117 205.707 237.083 205.471 237.083 205.223V205.079C237.083 204.831 237.117 204.596 237.183 204.375C237.251 204.152 237.352 203.955 237.487 203.784C237.624 203.613 237.794 203.478 238 203.38C238.207 203.282 238.45 203.233 238.728 203.233C239.017 203.233 239.27 203.293 239.486 203.411C239.703 203.527 239.873 203.687 239.996 203.89C240.121 204.09 240.189 204.318 240.201 204.573H239.599C239.588 204.421 239.544 204.283 239.469 204.16C239.396 204.037 239.296 203.939 239.168 203.866C239.043 203.791 238.896 203.753 238.728 203.753C238.534 203.753 238.371 203.792 238.239 203.869C238.109 203.944 238.005 204.047 237.928 204.177C237.853 204.304 237.798 204.447 237.764 204.604C237.732 204.759 237.716 204.917 237.716 205.079V205.223C237.716 205.384 237.732 205.544 237.764 205.701C237.796 205.858 237.849 206.001 237.924 206.128C238.002 206.256 238.105 206.359 238.235 206.436C238.368 206.511 238.532 206.549 238.728 206.549ZM241.547 201.75V207H240.912V201.75H241.547ZM243.807 203.302L242.193 205.028L241.291 205.964L241.24 205.291L241.886 204.519L243.034 203.302H243.807ZM243.229 207L241.91 205.236L242.238 204.672L243.974 207H243.229ZM246.008 203.302V203.787H244.008V203.302H246.008ZM244.685 202.403H245.317V206.084C245.317 206.209 245.337 206.304 245.375 206.368C245.414 206.431 245.464 206.474 245.526 206.494C245.587 206.515 245.653 206.525 245.724 206.525C245.777 206.525 245.831 206.52 245.888 206.511C245.947 206.5 245.992 206.491 246.021 206.484L246.025 207C245.975 207.016 245.909 207.031 245.827 207.044C245.747 207.06 245.65 207.068 245.536 207.068C245.381 207.068 245.239 207.038 245.109 206.976C244.979 206.915 244.875 206.812 244.798 206.668C244.723 206.523 244.685 206.327 244.685 206.081V202.403ZM248.284 207.068C248.027 207.068 247.793 207.025 247.583 206.938C247.376 206.85 247.197 206.725 247.047 206.566C246.899 206.406 246.785 206.217 246.705 205.999C246.625 205.78 246.585 205.541 246.585 205.281V205.137C246.585 204.836 246.63 204.569 246.719 204.334C246.808 204.097 246.928 203.896 247.081 203.732C247.234 203.568 247.407 203.444 247.601 203.36C247.794 203.276 247.995 203.233 248.202 203.233C248.466 203.233 248.694 203.279 248.886 203.37C249.079 203.461 249.238 203.589 249.361 203.753C249.484 203.915 249.575 204.106 249.634 204.327C249.694 204.546 249.723 204.785 249.723 205.045V205.329H246.961V204.812H249.091V204.765C249.082 204.601 249.048 204.441 248.988 204.286C248.931 204.131 248.84 204.004 248.715 203.903C248.59 203.803 248.419 203.753 248.202 203.753C248.059 203.753 247.926 203.784 247.806 203.845C247.685 203.904 247.581 203.993 247.495 204.112C247.408 204.23 247.341 204.375 247.293 204.546C247.245 204.717 247.221 204.914 247.221 205.137V205.281C247.221 205.456 247.245 205.621 247.293 205.776C247.343 205.929 247.415 206.063 247.508 206.18C247.604 206.296 247.719 206.387 247.854 206.453C247.99 206.519 248.145 206.552 248.318 206.552C248.542 206.552 248.731 206.507 248.886 206.416C249.041 206.324 249.176 206.202 249.292 206.05L249.675 206.354C249.596 206.475 249.494 206.59 249.371 206.699C249.248 206.809 249.097 206.897 248.917 206.966C248.739 207.034 248.528 207.068 248.284 207.068ZM251.941 206.549C252.092 206.549 252.231 206.518 252.358 206.457C252.486 206.395 252.591 206.311 252.673 206.204C252.755 206.094 252.802 205.97 252.813 205.831H253.415C253.403 206.05 253.329 206.254 253.192 206.443C253.058 206.63 252.881 206.781 252.663 206.897C252.444 207.011 252.203 207.068 251.941 207.068C251.663 207.068 251.421 207.019 251.213 206.921C251.008 206.823 250.837 206.689 250.701 206.518C250.566 206.347 250.465 206.151 250.396 205.93C250.33 205.707 250.297 205.471 250.297 205.223V205.079C250.297 204.831 250.33 204.596 250.396 204.375C250.465 204.152 250.566 203.955 250.701 203.784C250.837 203.613 251.008 203.478 251.213 203.38C251.421 203.282 251.663 203.233 251.941 203.233C252.231 203.233 252.484 203.293 252.7 203.411C252.917 203.527 253.086 203.687 253.209 203.89C253.335 204.09 253.403 204.318 253.415 204.573H252.813C252.802 204.421 252.758 204.283 252.683 204.16C252.61 204.037 252.51 203.939 252.382 203.866C252.257 203.791 252.11 203.753 251.941 203.753C251.748 203.753 251.585 203.792 251.453 203.869C251.323 203.944 251.219 204.047 251.142 204.177C251.066 204.304 251.012 204.447 250.978 204.604C250.946 204.759 250.93 204.917 250.93 205.079V205.223C250.93 205.384 250.946 205.544 250.978 205.701C251.009 205.858 251.063 206.001 251.138 206.128C251.216 206.256 251.319 206.359 251.449 206.436C251.581 206.511 251.745 206.549 251.941 206.549Z" fill="black"/>
<defs>
<linearGradient id="paint0_linear_9_3" x1="315.894" y1="0.476341" x2="315.894" y2="89.3935" gradientUnits="userSpaceOnUse">
<stop stop-color="white"/>
<stop offset="1" stop-color="#545455" stop-opacity="0"/>
</linearGradient>
<linearGradient id="paint1_linear_9_3" x1="295.014" y1="363.29" x2="295.014" y2="475.707" gradientUnits="userSpaceOnUse">
<stop stop-color="#797A7D"/>
<stop offset="1" stop-color="#797A7D" stop-opacity="0"/>
</linearGradient>
<linearGradient id="paint2_linear_9_3" x1="70.6573" y1="300.73" x2="70.6573" y2="475.707" gradientUnits="userSpaceOnUse">
<stop stop-color="#4F4E50"/>
<stop offset="1" stop-color="#4F4E50" stop-opacity="0"/>
</linearGradient>
<linearGradient id="paint3_linear_9_3" x1="255.987" y1="358.685" x2="255.987" y2="455.541" gradientUnits="userSpaceOnUse">
<stop stop-color="#454748"/>
<stop offset="1" stop-color="#454748" stop-opacity="0"/>
</linearGradient>
<linearGradient id="paint4_linear_9_3" x1="299.778" y1="25.2461" x2="299.778" y2="441.728" gradientUnits="userSpaceOnUse">
<stop stop-color="white"/>
<stop offset="1" stop-color="white" stop-opacity="0"/>
</linearGradient>
<linearGradient id="paint5_linear_9_3" x1="160.448" y1="32.7088" x2="160.448" y2="437.282" gradientUnits="userSpaceOnUse">
<stop stop-color="white"/>
<stop offset="1" stop-color="#CE111E" stop-opacity="0"/>
</linearGradient>
<linearGradient id="paint6_linear_9_3" x1="60.7336" y1="14.1315" x2="60.7336" y2="442.045" gradientUnits="userSpaceOnUse">
<stop stop-color="white"/>
<stop offset="1" stop-color="#CE111E" stop-opacity="0"/>
</linearGradient>
</defs>
</svg>
