<?xml version="1.0" encoding="utf-8"?>
<!-- Generator: Adobe Illustrator 21.1.0, SVG Export Plug-In . SVG Version: 6.00 Build 0)  -->
<svg version="1.1" id="Ebene_1" xmlns="http://www.w3.org/2000/svg" xmlns:xlink="http://www.w3.org/1999/xlink" x="0px" y="0px"
	 viewBox="0 0 165 153" style="enable-background:new 0 0 165 153;" xml:space="preserve">
<style type="text/css">
	.st0{fill:#E20613;}
	.st1{fill:#8C8C8C;}
</style>
<g>
	<g>
		<path class="st0" d="M79.6,76.6H75V53.1h4.6V76.6z"/>
		<polygon class="st0" points="93.6,50.8 93.6,79.3 80,65.1 		"/>
		<g>
			<path class="st1" d="M41.8,25c-1.1,0-2.1,0.9-2.1,2.1l0,23.5l4.2,0c0,0,0-17.9,0-21.4c3.8,0,73.4,0,77.2,0c0,3.5,0,21.6,0,21.6
				l4.2,0l0-23.6c0-0.6-0.2-1.1-0.6-1.5c-0.4-0.4-0.9-0.6-1.5-0.6H41.8z"/>
		</g>
		<g>
			<path class="st1" d="M121,102.1c-3.8,0-73.3,0-77.2,0c0-3.5,0-22.4,0-22.4l-4.2,0l0,24.5c0,0.6,0.2,1.1,0.6,1.5
				c0.4,0.4,0.9,0.6,1.5,0.6h81.3c1.1,0,2.1-0.9,2.1-2.1l0-24.5l-4.2,0C121,79.6,121,98.6,121,102.1z"/>
		</g>
		<g>
			<rect x="75.3" y="27.8" class="st1" width="4.2" height="22.9"/>
		</g>
		<g>
			<rect x="75.3" y="79.3" class="st1" width="4.2" height="23.6"/>
		</g>
		<g>
			<path d="M18.5,72.7h9.3v4H13.9V53.2h4.6V72.7z"/>
			<path d="M28.1,64.9c0-6.6,5.2-12.3,12.6-12.3c7.4,0,12.6,5.8,12.6,12.3c0,6.7-5.2,12.4-12.6,12.4C33.3,77.3,28.1,71.6,28.1,64.9z
				 M33,64.7c0,3.6,3.3,8.1,7.7,8.1c4.3,0,7.7-4.5,7.7-8.1c0-3.8-3.2-7.6-7.7-7.6C36.2,57.1,33,60.9,33,64.7z"/>
			<path d="M72.3,58.5c-1.6-1.4-3.1-1.6-5-1.6c-4.4,0-6.9,4.1-6.9,8.1c0,4,2.6,7.9,6.9,7.9c2,0,3.5-0.2,5.1-1.6v4.6
				c-1.7,0.8-3.3,1.4-5.2,1.4c-6.6,0-11.5-5.7-11.5-12.2c0-6.7,4.7-12.6,11.6-12.6c1.8,0,3.5,0.5,5.1,1.4V58.5z"/>
		</g>
		<g>
			<path d="M105.2,76.8h-4.6V57.3h-4.5v-4H110v4h-4.7V76.8z"/>
			<path d="M152,58.6c-1.5-1.4-2.5-1.6-4.5-1.6c-4.4,0-6.9,4.1-6.9,8.1c0,4,2.6,7.9,6.9,7.9c2,0,2.9-0.4,4.5-1.7V76
				c-1.7,0.8-2.8,1.4-4.7,1.4c-6.6,0-11.5-5.7-11.5-12.2c0-6.7,4.7-12.6,11.6-12.6c1.8,0,3,0.5,4.6,1.4V58.6z"/>
			<path d="M110.8,65.2c0,7.3,4.7,12.3,11.5,12.3c4.6,0,8.7-2.4,10.9-6.4l0.1-0.2l-4.1-2.3l-0.1,0.2c-1.6,2.6-3.4,4.4-6.8,4.4
				c-4.3,0-6.7-3.7-6.8-7.3c0.4,0,17.7,0,17.7,0V65c0-7.7-4.2-12.5-11-12.5C115.2,52.6,110.8,57.4,110.8,65.2z M122.3,56.7
				c3.2,0,5.6,2.1,6.2,5.5c-0.4,0-12.1,0-12.6,0C116.5,58.9,119.1,56.7,122.3,56.7z"/>
		</g>
		<path d="M16.6,119.7c-0.3-0.2-0.6-0.3-0.9-0.3c-0.6,0-1,0.5-1,1.1c0,0.4,0.1,0.6,0.3,0.9l0.8,0.9c0.7,0.8,1.2,1.3,1.2,2.4
			c0,1.2-0.7,2.1-1.9,2.1c-0.4,0-0.9-0.1-1.2-0.4v-1.1c0.3,0.2,0.7,0.4,1.1,0.4c0.7,0,1-0.5,1-1.1c0-1.6-2.3-2-2.3-4.1
			c0-1.2,0.6-2.1,1.8-2.1c0.4,0,0.8,0.1,1.2,0.3L16.6,119.7z"/>
		<path d="M21.1,119.6c-0.2-0.1-0.4-0.2-0.7-0.2c-1.5,0-1.5,2.2-1.5,3.3c0,1.1,0.1,3.1,1.6,3.1c0.2,0,0.4-0.1,0.7-0.2v1
			c-0.3,0.2-0.6,0.2-0.9,0.2c-2.2,0-2.5-2.4-2.5-4.1c0-1.6,0.2-4.4,2.4-4.4c0.4,0,0.6,0.1,0.9,0.2V119.6z"/>
		<path d="M23.1,118.5v3.2h1.6v-3.2h1.1v8.2h-1.1v-4.1h-1.6v4.1H22v-8.2H23.1z"/>
		<path d="M28.3,118.5v7.3h1.8v0.9h-2.9v-8.2H28.3z"/>
		<path d="M31.9,126.7h-1.1v-8.2h1.1V126.7z"/>
		<path d="M36.2,118.5v0.9h-1.8v2.6H36v0.9h-1.6v2.8h1.8v0.9h-2.9v-8.2H36.2z"/>
		<path d="M39.6,119.7c-0.3-0.2-0.6-0.3-0.9-0.3c-0.6,0-1,0.5-1,1.1c0,0.4,0.1,0.6,0.3,0.9l0.8,0.9c0.7,0.8,1.2,1.3,1.2,2.4
			c0,1.2-0.7,2.1-1.9,2.1c-0.4,0-0.9-0.1-1.2-0.4v-1.1c0.3,0.2,0.7,0.4,1.1,0.4c0.7,0,1-0.5,1-1.1c0-1.6-2.3-2-2.3-4.1
			c0-1.2,0.6-2.1,1.8-2.1c0.4,0,0.8,0.1,1.2,0.3L39.6,119.7z"/>
		<path d="M43.5,119.7c-0.3-0.2-0.6-0.3-0.9-0.3c-0.6,0-1,0.5-1,1.1c0,0.4,0.1,0.6,0.3,0.9l0.8,0.9c0.7,0.8,1.2,1.3,1.2,2.4
			c0,1.2-0.7,2.1-1.9,2.1c-0.4,0-0.9-0.1-1.2-0.4v-1.1c0.3,0.2,0.7,0.4,1.1,0.4c0.7,0,1-0.5,1-1.1c0-1.6-2.3-2-2.3-4.1
			c0-1.2,0.6-2.1,1.8-2.1c0.4,0,0.8,0.1,1.2,0.3L43.5,119.7z"/>
		<path d="M47.8,118.5v0.9h-1.9v2.6h1.7v0.9h-1.7v3.7h-1.1v-8.2H47.8z"/>
		<path d="M48.7,116.8c0-0.3,0.3-0.6,0.6-0.6c0.3,0,0.6,0.3,0.6,0.6c0,0.3-0.3,0.6-0.6,0.6C49,117.4,48.7,117.1,48.7,116.8z
			 M50.4,116.8c0-0.3,0.3-0.6,0.6-0.6c0.3,0,0.6,0.3,0.6,0.6c0,0.3-0.3,0.6-0.6,0.6C50.7,117.4,50.4,117.1,50.4,116.8z M50.6,118.5
			l1.8,8.2h-1.1l-0.3-1.6h-1.6l-0.3,1.6h-1.1l1.8-8.2H50.6z M50.6,123l-0.4-3h0l-0.7,4.2h1.3L50.6,123z"/>
		<path d="M56.3,119.6c-0.2-0.1-0.4-0.2-0.7-0.2c-1.5,0-1.5,2.2-1.5,3.3c0,1.1,0.1,3.1,1.6,3.1c0.2,0,0.4-0.1,0.7-0.2v1
			c-0.3,0.2-0.6,0.2-0.9,0.2c-2.2,0-2.5-2.4-2.5-4.1c0-1.6,0.2-4.4,2.4-4.4c0.4,0,0.6,0.1,0.9,0.2V119.6z"/>
		<path d="M58.2,118.5v3.2h1.6v-3.2H61v8.2h-1.1v-4.1h-1.6v4.1h-1.1v-8.2H58.2z"/>
		<path d="M65.3,118.5v0.9h-1.8v2.6h1.6v0.9h-1.6v2.8h1.8v0.9h-2.9v-8.2H65.3z"/>
		<path d="M66.1,118.5h1.3c0.8,0,2,0,2,2.1c0,0.8-0.2,2-1.1,2.1l1.5,4h-1.1l-1.5-4h0v4h-1.1V118.5z M68.3,120.8
			c0-0.8-0.1-1.4-0.9-1.4h-0.2v2.7C68,122.2,68.3,121.6,68.3,120.8z"/>
		<path d="M75.8,126c-0.3,0.5-0.9,0.8-1.4,0.8c-1.1,0-1.8-1-1.8-2.1c0-0.9,0.5-1.6,1.1-2.2c-0.4-0.5-0.7-1.3-0.7-1.9
			c0-0.9,0.6-1.6,1.6-1.6c0.9,0,1.6,0.5,1.6,1.5c0,0.9-0.6,1.6-1.2,2.2l1.1,1.8l0.7-1l0.7,0.6l-0.9,1.2l0.9,1.4h-1.2L75.8,126z
			 M75.3,120.5c0-0.4-0.2-0.7-0.6-0.7c-0.4,0-0.6,0.4-0.6,0.7c0,0.5,0.3,0.9,0.5,1.3C74.9,121.5,75.3,121.1,75.3,120.5z M74.2,123.4
			c-0.4,0.4-0.6,0.8-0.6,1.3c0,0.6,0.4,1.2,0.9,1.2c0.4,0,0.6-0.2,0.8-0.6L74.2,123.4z"/>
		<path d="M83.2,119.7c-0.3-0.2-0.6-0.3-0.9-0.3c-0.6,0-1,0.5-1,1.1c0,0.4,0.1,0.6,0.3,0.9l0.8,0.9c0.7,0.8,1.2,1.3,1.2,2.4
			c0,1.2-0.7,2.1-1.9,2.1c-0.4,0-0.9-0.1-1.2-0.4v-1.1c0.3,0.2,0.7,0.4,1.1,0.4c0.7,0,1-0.5,1-1.1c0-1.6-2.3-2-2.3-4.1
			c0-1.2,0.6-2.1,1.8-2.1c0.4,0,0.8,0.1,1.2,0.3L83.2,119.7z"/>
		<path d="M85.6,126.7h-1.1v-8.2h1.1V126.7z"/>
		<path d="M90.1,119.6c-0.2-0.1-0.4-0.2-0.7-0.2c-1.5,0-1.5,2.2-1.5,3.3c0,1.1,0.1,3.1,1.6,3.1c0.2,0,0.4-0.1,0.7-0.2v1
			c-0.3,0.2-0.6,0.2-0.9,0.2c-2.2,0-2.5-2.4-2.5-4.1c0-1.6,0.2-4.4,2.4-4.4c0.4,0,0.6,0.1,0.9,0.2V119.6z"/>
		<path d="M92.1,118.5v3.2h1.6v-3.2h1.1v8.2h-1.1v-4.1h-1.6v4.1H91v-8.2H92.1z"/>
		<path d="M99.1,118.5v0.9h-1.8v2.6h1.6v0.9h-1.6v2.8h1.8v0.9h-2.9v-8.2H99.1z"/>
		<path d="M100,118.5h1.3c0.8,0,2,0,2,2.1c0,0.8-0.2,2-1.1,2.1l1.5,4h-1.1l-1.5-4h0v4H100V118.5z M102.2,120.8
			c0-0.8-0.1-1.4-0.9-1.4h-0.2v2.7C101.9,122.2,102.2,121.6,102.2,120.8z"/>
		<path d="M105.6,118.5v3.2h1.6v-3.2h1.1v8.2h-1.1v-4.1h-1.6v4.1h-1.1v-8.2H105.6z"/>
		<path d="M112.7,118.5v0.9h-1.8v2.6h1.6v0.9h-1.6v2.8h1.8v0.9h-2.9v-8.2H112.7z"/>
		<path d="M114.6,126.7h-1.1v-8.2h1.1V126.7z"/>
		<path d="M118.9,118.5v0.9h-1.2v7.3h-1.1v-7.3h-1.3v-0.9H118.9z"/>
		<path d="M122.1,119.7c-0.3-0.2-0.6-0.3-0.9-0.3c-0.6,0-1,0.5-1,1.1c0,0.4,0.1,0.6,0.3,0.9l0.8,0.9c0.7,0.8,1.2,1.3,1.2,2.4
			c0,1.2-0.7,2.1-1.9,2.1c-0.4,0-0.9-0.1-1.2-0.4v-1.1c0.3,0.2,0.7,0.4,1.1,0.4c0.7,0,1-0.5,1-1.1c0-1.6-2.3-2-2.3-4.1
			c0-1.2,0.6-2.1,1.8-2.1c0.4,0,0.8,0.1,1.2,0.3L122.1,119.7z"/>
		<path d="M125.9,119.7c-0.3-0.2-0.6-0.3-0.9-0.3c-0.6,0-1,0.5-1,1.1c0,0.4,0.1,0.6,0.3,0.9l0.8,0.9c0.7,0.8,1.2,1.3,1.2,2.4
			c0,1.2-0.7,2.1-1.9,2.1c-0.4,0-0.9-0.1-1.2-0.4v-1.1c0.3,0.2,0.7,0.4,1.1,0.4c0.7,0,1-0.5,1-1.1c0-1.6-2.3-2-2.3-4.1
			c0-1.2,0.6-2.1,1.8-2.1c0.4,0,0.8,0.1,1.2,0.3L125.9,119.7z"/>
		<path d="M127.8,118.5l1,3.8h0l0.2-1.1l0.7-2.7h1.2l-1.5,4.7v3.5h-1.1v-3.5l-1.6-4.7H127.8z"/>
		<path d="M134.1,119.7c-0.3-0.2-0.6-0.3-0.9-0.3c-0.6,0-1,0.5-1,1.1c0,0.4,0.1,0.6,0.3,0.9l0.8,0.9c0.7,0.8,1.2,1.3,1.2,2.4
			c0,1.2-0.7,2.1-1.9,2.1c-0.4,0-0.9-0.1-1.2-0.4v-1.1c0.3,0.2,0.7,0.4,1.1,0.4c0.7,0,1-0.5,1-1.1c0-1.6-2.3-2-2.3-4.1
			c0-1.2,0.6-2.1,1.8-2.1c0.4,0,0.8,0.1,1.2,0.3L134.1,119.7z"/>
		<path d="M138.4,118.5v0.9h-1.2v7.3H136v-7.3h-1.3v-0.9H138.4z"/>
		<path d="M142,118.5v0.9h-1.8v2.6h1.6v0.9h-1.6v2.8h1.8v0.9H139v-8.2H142z"/>
		<path d="M144,118.5l1.2,5.9h0l0-0.3l0.3-2l0.7-3.6h1l0.8,8.2h-1.1l-0.2-3.1l-0.1-1.5l0-1.1h0l-0.2,1.2l-0.9,4.5h-0.8l-1.1-5.7h0
			l-0.3,5.7h-1l0.7-8.2H144z"/>
		<path d="M151.9,118.5v0.9h-1.8v2.6h1.6v0.9h-1.6v2.8h1.8v0.9H149v-8.2H151.9z"/>
	</g>
</g>
</svg>
