<svg width="24" height="24" viewBox="0 0 24 24" fill="none" xmlns="http://www.w3.org/2000/svg">
<path d="M22 6V18H2V6H22ZM24 4H0V20H24V4ZM11 15V16H12V15H11.667V14.667H11.333V15H11ZM11.667 15.333V15.666H11.333V15.333H11.667ZM4 16H6.667V13.333H4V16ZM4.333 13.667H6.333V15.667H4.333V13.667ZM11 14.667V14.334H11.333V14.667H11ZM4.667 14H6V15.333H4.667V14ZM7.333 13V13.667H7V13H7.333ZM8 10.333H8.333V10.666H8V10.333ZM8.333 10H8.667V10.333H8.333V10ZM8.667 10.667V10.334H9V10.667H8.667ZM8.667 10H9V8H8V8.333H7V8.666H8V9H8.667V10ZM8.333 8.667V8.333H8.667V8.666H8.333V8.667ZM6 10H4.667V8.667H6V10ZM8 10H7.667V9.333H7V9H8V9.333H8.333V9.666H8V10ZM6.667 8H4V10.667H6.667V8ZM6.333 10.333H4.333V8.333H6.333V10.333ZM7.333 10.333H7V10H7.667V10.667H7.333V10.333ZM6.333 11.333V11.666H6V11.333H6.333ZM11.333 13.333H12V14.333H11.667V14H11V14.333H10.667V14H10.333V13.667H10.667V13.334H11V13.667H11.333V13.333ZM10 14H9.667V14.333H9.333V14H9V13.667H9.333V13.334H8.667V13H8.333V13.333H8V13.666H7.333V14H7V16H8.667V15.667H8.333V15H8V15.667H7.333V15.334H7.667V15H7.333V14.667H8.333V14.334H9V15H8.667V15.333H9V16H9.333V15.333H9.667V15.666H10V15.333H10.333V14.666H10.667V14.333H10V14ZM9.667 15H9.333V14.667H9.667V15ZM11.667 13V12.333H12V13H11.667ZM8.667 14.667V15H8.333V14.667H8.667ZM10.333 15.667V15.334H10.667V16H10V15.667H10.333ZM9.333 8V10.667H12V8H9.333ZM11.667 10.333H9.667V8.333H11.667V10.333ZM11.333 10H10V8.667H11.333V10ZM11.667 11.333H12V12H11.667V12.333H11V11H11.333V11.667H11.667V11.333ZM10.333 13.333V12.333H10.667V13.333H10.333ZM6 11V11.333H5.333V11.666H5.667V12H4.667V11.667H5V11.334H4.333V11.667H4V11H6ZM5.667 12.333V12H6V13H5.667V12.667H5.333V13H5V12.667H4.667V13H4V12.667H4.333V12.334H5.667V12.333ZM4.333 12V12.333H4V12H4.333ZM10.667 11.333H10.333V11H10.667V11.333ZM6.333 12.667H6.667V13H6.333V12.667ZM11.333 13.333H11V13H11.333V13.333ZM9.667 13.667V13.334H10V13.667H9.667ZM9.333 13.333H9.667V12.333H10.333V12H10.667V11.667H10.333V11.334H9.667V11H9.333V11.333H9V11H8.667V11.333H8.333V11H8V11.333H7.667V11.666H7.333V11.333H7.667V11H6.333V11.333H7V11.666H6.333V12H6.667V12.666H7V12.333H7.667V13H8V11.667H8.333V12.334H9.333V12.667H8.667V13H9.333V13.333ZM9.667 11.667H10V12H9.667V11.667ZM9 12H8.667V11.667H9V12ZM20 8H14V9H20V8ZM20 10H14V11H20V10ZM20 12H14V13H20V12ZM17 14H14V15H17V14Z" fill="white"/>
</svg>
