<svg width="24" height="24" viewBox="0 0 24 24" fill="none" xmlns="http://www.w3.org/2000/svg">
<g clip-path="url(#clip0_5_28)">
<path d="M10.946 15.226C10.306 15.636 9.579 15.976 8.797 16.236C8.697 16.269 8.587 16.258 8.495 16.207C8.373 16.139 8.304 16.008 8.317 15.872C8.331 15.736 8.426 15.62 8.558 15.576C10.486 14.939 12.134 13.745 12.886 12C13.287 11.067 12.52 10.4 11.727 10.4C11.248 10.4 10.761 10.642 10.515 11.214C10.07 12.245 8.951 13.062 7.45 13.48C7.227 13.542 7.004 13.381 7 13.154C6.997 12.991 7.105 12.847 7.266 12.803C8.549 12.446 9.493 11.776 9.851 10.943C10.023 10.544 10.298 10.218 10.647 10.002C10.965 9.803 11.339 9.699 11.727 9.699C12.413 9.699 13.062 10.025 13.421 10.552C13.764 11.055 13.809 11.665 13.548 12.272C13.288 12.875 12.924 13.439 12.468 13.947C12.041 14.423 11.528 14.854 10.946 15.226ZM7.574 14.979C9.502 14.524 11.343 13.465 12.109 11.69C12.186 11.512 12.099 11.307 11.916 11.232C11.733 11.157 11.522 11.241 11.445 11.42C10.857 12.782 9.372 13.833 7.416 14.296C7.23 14.339 7.11 14.516 7.141 14.7C7.175 14.896 7.373 15.026 7.574 14.979ZM16.221 15.487C16.313 15.409 16.356 15.291 16.336 15.174C16.316 15.057 16.234 14.959 16.121 14.916C15.787 14.788 15.378 14.592 15.166 14.261C14.913 13.865 15.008 13.338 15.118 12.728C15.273 11.871 15.466 10.805 14.697 9.728C14.145 8.956 13.246 8.451 12.232 8.345C11.167 8.232 10.11 8.574 9.329 9.28C8.985 9.59 8.788 9.92 8.614 10.212C8.34 10.67 8.109 11.055 7.33 11.306C7.206 11.346 7.108 11.448 7.088 11.6C7.055 11.851 7.302 12.051 7.55 11.972C8.594 11.638 8.92 11.094 9.236 10.564C9.4 10.291 9.554 10.032 9.819 9.793C10.447 9.226 11.298 8.951 12.154 9.041C12.962 9.126 13.673 9.522 14.107 10.128C14.706 10.968 14.555 11.801 14.41 12.607C14.285 13.296 14.157 14.009 14.556 14.632C14.797 15.007 15.208 15.309 15.816 15.551C15.953 15.605 16.109 15.581 16.221 15.487V15.487ZM11.333 15.993C11.168 16.087 10.964 16.203 10.697 16.335C10.557 16.404 10.479 16.554 10.504 16.705C10.528 16.855 10.65 16.974 10.806 16.997C10.878 17.008 10.951 16.997 11.016 16.965L11.473 16.726C11.991 16.438 12.04 16.434 12.531 16.786L12.726 16.922C12.804 16.974 12.899 16.995 12.993 16.979C13.138 16.955 13.252 16.848 13.284 16.708C13.315 16.569 13.256 16.426 13.135 16.345C12.926 16.205 12.772 16.086 12.656 15.995C12.173 15.618 12.012 15.607 11.333 15.993V15.993ZM7.642 9.729C7.794 9.832 7.99 9.792 8.091 9.642L8.306 9.331C9.167 8.121 10.687 7.528 12.374 7.744C13.978 7.95 15.294 8.843 15.728 10.02C16.112 11.064 15.96 11.907 15.838 12.584C15.733 13.169 15.642 13.674 15.961 14.08C16.09 14.244 16.275 14.372 16.528 14.467C16.751 14.551 17 14.395 17 14.15C17 14 16.907 13.863 16.763 13.806C16.654 13.763 16.578 13.711 16.532 13.654C16.405 13.492 16.468 13.145 16.547 12.706C16.676 11.987 16.854 11.002 16.405 9.784C15.88 8.362 14.335 7.289 12.468 7.05C12.214 7.017 11.96 7 11.708 7C10.338 7 9.009 7.481 8.068 8.499C7.831 8.759 7.685 8.948 7.543 9.267C7.45 9.475 7.486 9.626 7.642 9.729V9.729ZM13.549 14.623C13.451 14.455 13.231 14.396 13.059 14.492C12.886 14.588 12.826 14.801 12.923 14.969C13.25 15.53 13.76 16.002 14.461 16.392C14.565 16.45 14.692 16.454 14.8 16.402C14.919 16.345 14.996 16.229 15 16.1C15.004 15.971 14.935 15.85 14.819 15.787C14.234 15.462 13.812 15.075 13.549 14.623V14.623ZM12 0C5.373 0 0 5.373 0 12C0 18.627 5.373 24 12 24C18.627 24 24 18.627 24 12C24 5.373 18.627 0 12 0ZM20 12C20 16.418 16.418 20 12 20C7.582 20 4 16.418 4 12C4 7.582 7.582 4 12 4C16.418 4 20 7.582 20 12ZM1 12C1 5.935 5.935 1 12 1V3C7.038 3 3 7.038 3 12C3 14.481 4.009 16.731 5.639 18.361L4.225 19.775L4.24 19.789C2.24 17.795 1 15.04 1 12V12Z" fill="white"/>
</g>
<defs>
<clipPath id="clip0_5_28">
<rect width="24" height="24" fill="white"/>
</clipPath>
</defs>
</svg>
