<svg width="24" height="24" viewBox="0 0 24 24" fill="none" xmlns="http://www.w3.org/2000/svg">
<path d="M12 0C5.373 0 0 5.373 0 12C0 18.627 5.373 24 12 24C18.627 24 24 18.627 24 12C24 5.373 18.627 0 12 0ZM8.28 16.501C6.885 15.4 6 13.794 6 12C6 10.206 6.885 8.601 8.28 7.5L9.021 8.252C7.858 9.17 7.119 10.508 7.119 12C7.119 13.492 7.858 14.831 9.021 15.748L8.28 16.501ZM9.76 15C8.829 14.267 8.239 13.196 8.239 12C8.239 10.805 8.829 9.733 9.76 9L10.5 9.751C9.803 10.302 9.359 11.104 9.359 12C9.359 12.896 9.802 13.699 10.5 14.249L9.76 15V15ZM12 13.5C11.172 13.5 10.5 12.829 10.5 12C10.5 11.172 11.172 10.5 12 10.5C12.828 10.5 13.5 11.172 13.5 12C13.5 12.829 12.828 13.5 12 13.5ZM14.24 15L13.5 14.249C14.197 13.699 14.641 12.895 14.641 12C14.641 11.105 14.198 10.302 13.5 9.751L14.24 9C15.171 9.733 15.761 10.805 15.761 12C15.761 13.196 15.171 14.267 14.24 15V15ZM15.72 16.501L14.979 15.748C16.142 14.831 16.881 13.492 16.881 12C16.881 10.508 16.142 9.17 14.979 8.252L15.72 7.5C17.115 8.601 18 10.206 18 12C18 13.794 17.115 15.4 15.72 16.501Z" fill="white"/>
</svg>
