<svg width="24" height="24" viewBox="0 0 24 24" fill="none" xmlns="http://www.w3.org/2000/svg">
<path d="M12 2C17.514 2 22 6.486 22 12C22 17.514 17.514 22 12 22C6.486 22 2 17.514 2 12C2 6.486 6.486 2 12 2ZM12 0C5.373 0 0 5.373 0 12C0 18.627 5.373 24 12 24C18.627 24 24 18.627 24 12C24 5.373 18.627 0 12 0ZM10.859 16.566L11.94 9.602L13.044 14.344C13.153 14.83 13.828 14.885 14.012 14.417L15.013 11.86L15.947 14.036C16.102 14.397 16.591 14.453 16.823 14.136L17.673 12.98H19.51C19.781 12.98 20 12.76 20 12.49C20 12.22 19.78 12 19.51 12H17.411C17.249 12 17.096 12.078 17.001 12.208L16.529 12.819L15.458 10.323C15.279 9.906 14.685 9.915 14.519 10.339L13.671 12.507L12.363 6.405C12.24 5.857 11.456 5.888 11.367 6.435L10.283 13.435L9.175 9.317C9.051 8.825 8.357 8.797 8.2 9.285L7.375 12H4.49C4.22 12 4 12.22 4 12.49C4 12.76 4.22 12.98 4.49 12.98H7.774C7.958 12.98 8.156 12.832 8.208 12.656L8.619 11.269L9.866 16.607C10.001 17.144 10.771 17.108 10.859 16.566V16.566Z" fill="white"/>
</svg>
