<svg width="322" height="638" viewBox="0 0 322 638" fill="none" xmlns="http://www.w3.org/2000/svg">
<g id="g1">
<path id="Vector 1" d="M316 1H5V168H316V1Z" fill="#CE2720" stroke="black"/>
<g id="Vector 2" filter="url(#filter0_dd_6_4314)">
<path d="M4 168H161H318V279V357V437.5V518.5V629.5H161H4V518.5V437.75V357V279V168Z" fill="white"/>
<path d="M7.5 522H157.5V626H7.5V522ZM164.5 626V522H314.5V626H164.5ZM157.5 515H7.5V441.244L157.5 441.006V515ZM157.5 434.006L7.5 434.244V360.5H157.5V434.006ZM157.5 353.5H7.5V279V171.5H157.5V262.5V279V353.5ZM164.5 262.5V171.5H314.5V275.5H164.5V262.5ZM164.5 282.5H314.5V353.5H164.5V282.5ZM164.5 360.5H314.5V434H164.5V360.5ZM164.5 441H314.5V515H164.5V441Z" stroke="#D8D8D8" stroke-width="7"/>
</g>
</g>
<defs>
<filter id="filter0_dd_6_4314" x="0" y="168" width="322" height="469.5" filterUnits="userSpaceOnUse" color-interpolation-filters="sRGB">
<feFlood flood-opacity="0" result="BackgroundImageFix"/>
<feColorMatrix in="SourceAlpha" type="matrix" values="0 0 0 0 0 0 0 0 0 0 0 0 0 0 0 0 0 0 127 0" result="hardAlpha"/>
<feOffset dy="4"/>
<feGaussianBlur stdDeviation="2"/>
<feComposite in2="hardAlpha" operator="out"/>
<feColorMatrix type="matrix" values="0 0 0 0 0 0 0 0 0 0 0 0 0 0 0 0 0 0 0.25 0"/>
<feBlend mode="normal" in2="BackgroundImageFix" result="effect1_dropShadow_6_4314"/>
<feColorMatrix in="SourceAlpha" type="matrix" values="0 0 0 0 0 0 0 0 0 0 0 0 0 0 0 0 0 0 127 0" result="hardAlpha"/>
<feOffset dy="4"/>
<feGaussianBlur stdDeviation="2"/>
<feComposite in2="hardAlpha" operator="out"/>
<feColorMatrix type="matrix" values="0 0 0 0 0 0 0 0 0 0 0 0 0 0 0 0 0 0 0.25 0"/>
<feBlend mode="normal" in2="effect1_dropShadow_6_4314" result="effect2_dropShadow_6_4314"/>
<feBlend mode="normal" in="SourceGraphic" in2="effect2_dropShadow_6_4314" result="shape"/>
</filter>
</defs>
</svg>
