<svg width="294" height="294" viewBox="0 0 294 294" fill="none" xmlns="http://www.w3.org/2000/svg">
<path d="M75.9041 1.96062L80.2921 0.28009V14.658L75.9041 15.8717V3.92125" fill="#3D4041"/>
<path d="M291.199 52.5633C280.649 50.3226 214.642 36.9717 203.064 34.731C144.713 23.9009 80.2922 14.658 80.2922 14.658L75.624 15.8717L76.3709 34.5443C109.888 39.5859 228.459 60.7793 282.236 65.0739C285.224 60.4992 287.838 56.6713 291.199 52.5633Z" fill="#292B2D"/>
<path d="M11.8572 32.3036V18.9527L78.425 1.21375L76.1843 22.0337L11.8572 32.3036Z" fill="#3D4041"/>
<path d="M291.012 43.0403L80.5723 0.28009L80.2922 14.658L291.199 52.5634L291.012 43.0403Z" fill="url(#paint0_linear_433_2)"/>
<path d="M284.944 213.615L61.9929 241.343L64.2336 279.715L284.944 234.061V213.615V213.615Z" fill="url(#paint1_linear_433_2)"/>
<path d="M64.2336 279.715L18.8592 265.431C14.938 264.684 12.6973 262.723 12.6973 259.362V182.898C12.6973 179.444 15.4048 176.829 18.8592 176.829H64.2336C67.6881 176.829 70.3956 179.537 70.3956 182.898V273.647C70.0221 277.101 67.3146 279.715 64.2336 279.715Z" fill="url(#paint2_linear_433_2)"/>
<path d="M284.944 210.907C195.875 213.148 -105.687 231.634 70.1155 267.858C70.8624 264.684 226.779 235.742 284.944 225.752C285.13 221.644 284.664 215.108 284.944 210.907Z" fill="url(#paint3_linear_433_2)"/>
<path d="M289.705 54.4306L62.8333 14.8447L66.2877 259.736L289.612 221.364" fill="url(#paint4_linear_433_2)"/>
<path d="M69.5554 257.122L119.131 249.559L118.198 27.4487L70.0222 19.2328L69.5554 257.122Z" fill="url(#paint5_linear_433_2)"/>
<path d="M5.22827 23.3408L66.1009 8.30933L66.1943 259.923L5.32163 244.704L5.22827 23.3408Z" fill="url(#paint6_linear_433_2)"/>
<path d="M26.7952 72.0762L27.262 72.3563L26.7952 72.0762Z" fill="#E8D5C4"/>
<path d="M30.9966 93.4565C31.2769 93.4565 31.2769 93.4565 31.2769 93.1763C31.2769 93.2697 31.2769 93.4565 30.9966 93.4565C31.2769 93.4565 31.2769 93.4565 30.9966 93.4565Z" fill="#EF9B65"/>
<path d="M47.7085 77.3045L47.9886 77.0244C47.9886 77.3045 47.7085 77.7713 47.7085 78.2381C47.7085 77.958 47.7085 77.7713 47.7085 77.3045Z" fill="#DEEBF2"/>
<path d="M26.7952 72.0761L27.5421 71.4226L26.7952 72.0761Z" fill="#ECF2F7"/>
<path d="M31.7435 171.134C31.7435 171.414 31.4634 170.667 31.4634 170.667C31.7435 170.761 31.7435 170.948 31.7435 171.134Z" fill="#DAA679"/>
<path d="M31.7434 165.626C32.0235 165.626 32.4903 165.906 32.7704 165.906C32.4903 165.813 32.0235 165.813 31.7434 165.626Z" fill="#E4BC92"/>
<path d="M37.1585 166.093C36.8784 166.373 36.8784 166.373 36.6917 166.56C36.8784 166.373 37.1585 166.093 37.1585 166.093Z" fill="#C92027"/>
<path d="M43.0406 161.518C43.0406 161.798 42.7603 161.798 42.7603 161.798C43.0406 161.798 43.0406 161.518 43.0406 161.518Z" fill="#7F171C"/>
<path d="M43.0403 161.518C43.0403 161.238 43.2271 161.238 43.0403 161.518C43.2271 161.238 43.2271 161.518 43.0403 161.518Z" fill="#C92027"/>
<path d="M43.7874 115.397C43.7874 115.397 43.9739 115.583 43.7874 115.397C43.9739 115.583 43.9739 115.583 43.7874 115.397C43.9739 115.583 43.9739 115.583 43.7874 115.397C43.9739 115.583 43.9739 115.583 43.7874 115.397C43.7874 115.397 43.9739 115.583 43.7874 115.397Z" fill="#C92027"/>
<path d="M46.0278 199.33C46.0278 199.33 46.2147 199.33 46.0278 199.33C46.2147 199.33 46.2147 199.33 46.0278 199.33C46.2147 199.33 46.2147 199.33 46.0278 199.33C46.2147 199.33 46.2147 199.33 46.0278 199.33C46.2147 199.61 46.2147 199.61 46.0278 199.33C46.2147 199.33 46.2147 199.33 46.0278 199.33C46.2147 199.33 46.2147 199.33 46.0278 199.33C46.2147 199.33 46.2147 199.33 46.0278 199.33Z" fill="#44B491"/>
<path d="M46.0278 198.676C46.0278 198.396 46.0278 198.396 46.0278 198.676C46.0278 198.396 46.0278 198.396 46.0278 198.676C46.3079 198.676 46.0278 198.956 46.0278 198.956C46.0278 198.676 46.0278 198.676 46.0278 198.676Z" fill="#44B491"/>
<path d="M46.2146 200.077C46.2146 200.357 46.2146 200.357 46.2146 200.077C46.4949 200.357 46.2146 200.077 46.2146 200.077Z" fill="#44B491"/>
<path d="M46.775 196.716C46.4949 197.183 46.4949 196.996 46.4949 197.183C46.4949 196.903 46.775 196.716 46.775 196.716Z" fill="#44B491"/>
<path d="M46.9617 193.355C46.9617 193.075 47.2418 192.888 47.2418 192.888C46.9617 193.355 46.9617 193.355 46.9617 193.355Z" fill="#44B491"/>
<path d="M48.7354 203.905C48.7354 204.185 48.9222 204.185 48.7354 203.905C48.7354 204.185 48.7354 203.905 48.7354 203.905Z" fill="#C92027"/>
<path d="M55.551 76.5576C56.0179 76.5576 56.0179 77.0244 55.551 77.3045C55.271 77.3045 55.271 77.3045 55.0842 77.0244C55.0842 76.7443 55.551 76.7443 55.551 76.5576Z" fill="#ED7786"/>
<path d="M84.7737 214.455C84.7737 214.455 84.7737 214.175 84.7737 214.455C84.7737 214.175 84.7737 214.175 84.7737 214.455C85.054 214.455 85.054 214.175 84.7737 214.455C84.7737 214.175 84.7737 214.175 84.7737 214.455Z" fill="#EC846B"/>
<path d="M143.685 151.061C143.405 150.781 142.658 150.781 142.938 150.314C143.219 150.501 143.965 150.781 143.685 151.061Z" fill="#505252"/>
<path d="M143.686 103.166C143.219 103.166 144.713 151.715 143.219 150.781Z" fill="#191617"/>
<path d="M122.025 151.248C121.932 151.248 121.372 151.248 121.372 151.248C121.372 151.248 120.812 102.326 121.745 102.139L122.025 151.248Z" fill="#656566"/>
<path d="M121.839 102.232L143.686 102.979L143.499 149.567L121.839 151.248V102.232Z" fill="#CFCCCE"/>
<path d="M153.769 103.446L143.592 114.183L143.406 150.781L163.292 150.501V103.353" fill="#9F9D9E"/>
<path d="M143.686 102.979L143.592 114.276L153.769 103.446L143.686 102.979Z" fill="#B2B0AF"/>
<path d="M127.44 131.175C123.613 134.256 121.839 140.605 121.839 140.605V151.248L143.592 150.781C143.592 150.781 143.592 114.37 143.592 114.183L136.683 121.465" fill="#BAB5BA"/>
<path d="M66.1011 15.4049V8.30933L73.4768 8.96287V19.6996L68.0617 19.2328L66.1011 15.4049Z" fill="white"/>
<path d="M289.052 94.6701C267.672 92.7095 177.483 82.9997 148.914 79.9188C138.364 78.7984 128.654 77.6781 120.718 76.8378L120.905 75.2506C128.841 76.0909 138.551 77.1179 149.101 78.3316C177.67 81.4126 267.858 91.1223 289.238 93.0829L289.052 94.6701Z" fill="#BAB5BA"/>
<path d="M164.182 33.9828L162.595 33.9863L163.056 243.493L164.643 243.489L164.182 33.9828Z" fill="#BAB5BA"/>
<path d="M234.154 98.2178C226.592 97.6576 194.102 94.67 186.633 94.1098C178.977 93.4563 171.134 92.7094 163.292 92.1492L163.385 90.562C171.228 91.2156 179.163 91.8691 186.819 92.5226C194.288 93.1762 226.685 96.0704 234.248 96.6306L234.154 98.2178Z" fill="#BAB5BA"/>
<path d="M233.781 118.291C229.58 118.198 180.751 116.33 176.643 116.144C172.628 115.957 168.333 115.77 164.132 115.677L164.225 114.09C168.333 114.183 172.628 114.463 176.736 114.556C180.844 114.743 229.673 116.517 233.874 116.704L233.781 118.291Z" fill="#BAB5BA"/>
<path d="M233.781 137.617H163.665V139.204H233.781V137.617Z" fill="#BAB5BA"/>
<path d="M163.852 162.825L163.759 161.238C167.12 161.144 170.294 160.958 173.562 160.864C177.203 160.771 230.793 158.063 234.248 157.97L234.341 159.557C230.793 159.744 177.203 162.358 173.655 162.452C170.388 162.545 167.12 162.638 163.852 162.825Z" fill="#BAB5BA"/>
<path d="M163.244 183.986L118.763 187.592L118.892 189.174L163.372 185.568L163.244 183.986Z" fill="#BAB5BA"/>
<path d="M163.852 150.408L163.759 148.821C167.493 148.634 171.134 148.54 174.682 148.54C177.203 148.54 287.278 146.113 289.705 146.02L289.799 147.607C287.371 147.7 177.296 150.034 174.776 150.128C171.228 150.128 167.493 150.221 163.852 150.408Z" fill="#BAB5BA"/>
<path d="M119.411 176.923L119.318 175.336C132.762 174.402 146.486 173.748 159.837 173.188C169.827 172.721 279.529 164.599 289.519 164.039L289.612 165.626C279.435 166.186 169.734 174.309 159.837 174.775C146.58 175.336 132.949 175.896 119.411 176.923Z" fill="#BAB5BA"/>
<path d="M119.411 201.851L119.318 200.264C138.457 198.77 157.783 196.622 176.549 194.755C188.126 193.541 277.942 184.018 289.612 182.898L289.799 184.485C278.128 185.606 188.22 195.129 176.736 196.342C157.877 198.303 138.551 200.45 119.411 201.851Z" fill="#BAB5BA"/>
<path d="M289.705 129.401C286.904 129.308 178.23 127.254 175.616 127.16C171.695 127.067 167.493 127.067 163.385 126.88L163.479 125.293C167.587 125.48 171.788 125.573 175.709 125.573C178.417 125.573 287.091 127.721 289.799 127.814L289.705 129.401Z" fill="#BAB5BA"/>
<path d="M163.292 103.913L163.385 102.326L289.332 110.168L289.238 111.755L163.292 103.913Z" fill="#BAB5BA"/>
<path d="M70.1312 71.5591L69.9941 73.1404L117.898 77.2931L118.035 75.7118L70.1312 71.5591Z" fill="white"/>
<path d="M70.0596 85.3808L69.9619 86.965L117.859 89.9184L117.957 88.3343L70.0596 85.3808Z" fill="white"/>
<path d="M70.0104 98.7744L69.9219 100.359L117.834 103.037L117.922 101.452L70.0104 98.7744Z" fill="white"/>
<path d="M69.9109 111.884L69.8804 113.471L117.766 114.393L117.797 112.806L69.9109 111.884Z" fill="white"/>
<path d="M70.1344 124.885L70.1008 126.472L117.986 127.487L118.02 125.9L70.1344 124.885Z" fill="white"/>
<path d="M117.914 137.954L70.0188 138.414L70.034 140.001L117.929 139.541L117.914 137.954Z" fill="white"/>
<path d="M117.903 151.159L70.0125 151.7L70.0304 153.287L117.921 152.746L117.903 151.159Z" fill="white"/>
<path d="M117.869 163.062L70.0076 164.822L70.0659 166.408L117.928 164.648L117.869 163.062Z" fill="white"/>
<path d="M117.806 175.491L69.9277 178.718L70.0345 180.302L117.913 177.075L117.806 175.491Z" fill="white"/>
<path d="M117.831 201.123L69.9558 205.553L70.102 207.133L117.977 202.704L117.831 201.123Z" fill="white"/>
<path d="M70.1156 258.802H68.4351L69.462 19.2328L118.011 26.4217L117.824 28.1023L71.1426 21.1L70.1156 258.802Z" fill="white"/>
<path d="M200.357 40.4261L201.944 40.7062V236.955H200.357V40.4261Z" fill="#BAB5BA"/>
<path d="M233.501 45.8412L234.995 46.1213V231.167H233.501V45.8412Z" fill="#BAB5BA"/>
<path d="M265.898 50.5094H264.311V224.631H265.898V50.5094Z" fill="#BAB5BA"/>
<path d="M154.049 110.532V130.708L127.907 130.345V110.168L154.049 110.532Z" fill="white"/>
<path d="M134.617 122.904V123.44H132.129V122.904H134.617ZM132.259 118.464V123.44H131.599V118.464H132.259ZM135.11 121.632V121.553C135.11 121.287 135.148 121.04 135.226 120.812C135.303 120.582 135.415 120.382 135.561 120.214C135.707 120.043 135.883 119.911 136.091 119.817C136.298 119.721 136.53 119.674 136.788 119.674C137.048 119.674 137.281 119.721 137.489 119.817C137.698 119.911 137.876 120.043 138.022 120.214C138.17 120.382 138.283 120.582 138.36 120.812C138.438 121.04 138.476 121.287 138.476 121.553V121.632C138.476 121.899 138.438 122.146 138.36 122.374C138.283 122.602 138.17 122.801 138.022 122.972C137.876 123.141 137.699 123.273 137.492 123.368C137.287 123.462 137.054 123.509 136.795 123.509C136.535 123.509 136.301 123.462 136.094 123.368C135.887 123.273 135.709 123.141 135.561 122.972C135.415 122.801 135.303 122.602 135.226 122.374C135.148 122.146 135.11 121.899 135.11 121.632ZM135.742 121.553V121.632C135.742 121.817 135.764 121.991 135.807 122.155C135.85 122.317 135.915 122.46 136.002 122.586C136.091 122.711 136.201 122.81 136.333 122.883C136.465 122.954 136.619 122.989 136.795 122.989C136.968 122.989 137.119 122.954 137.249 122.883C137.381 122.81 137.491 122.711 137.577 122.586C137.664 122.46 137.729 122.317 137.772 122.155C137.818 121.991 137.841 121.817 137.841 121.632V121.553C137.841 121.371 137.818 121.199 137.772 121.037C137.729 120.873 137.663 120.729 137.574 120.603C137.487 120.476 137.378 120.375 137.246 120.302C137.116 120.23 136.963 120.193 136.788 120.193C136.615 120.193 136.462 120.23 136.33 120.302C136.2 120.375 136.091 120.476 136.002 120.603C135.915 120.729 135.85 120.873 135.807 121.037C135.764 121.199 135.742 121.371 135.742 121.553ZM140.749 122.989C140.9 122.989 141.039 122.958 141.166 122.897C141.294 122.835 141.399 122.751 141.481 122.644C141.563 122.534 141.609 122.41 141.621 122.271H142.222C142.211 122.49 142.137 122.694 142 122.883C141.866 123.07 141.689 123.221 141.47 123.338C141.252 123.452 141.011 123.509 140.749 123.509C140.471 123.509 140.229 123.46 140.021 123.362C139.816 123.264 139.645 123.129 139.509 122.958C139.374 122.787 139.273 122.591 139.204 122.37C139.138 122.147 139.105 121.911 139.105 121.663V121.519C139.105 121.271 139.138 121.036 139.204 120.815C139.273 120.592 139.374 120.395 139.509 120.224C139.645 120.053 139.816 119.919 140.021 119.821C140.229 119.723 140.471 119.674 140.749 119.674C141.039 119.674 141.292 119.733 141.508 119.851C141.725 119.968 141.894 120.127 142.017 120.33C142.143 120.53 142.211 120.758 142.222 121.013H141.621C141.609 120.861 141.566 120.723 141.491 120.6C141.418 120.477 141.318 120.379 141.19 120.306C141.065 120.231 140.918 120.193 140.749 120.193C140.556 120.193 140.393 120.232 140.26 120.309C140.131 120.385 140.027 120.487 139.949 120.617C139.874 120.745 139.82 120.887 139.785 121.044C139.753 121.199 139.738 121.358 139.738 121.519V121.663C139.738 121.825 139.753 121.984 139.785 122.141C139.817 122.299 139.871 122.441 139.946 122.569C140.024 122.696 140.127 122.799 140.257 122.876C140.389 122.951 140.553 122.989 140.749 122.989ZM143.569 118.19V123.44H142.933V118.19H143.569ZM145.828 119.742L144.215 121.468L143.313 122.405L143.261 121.731L143.907 120.959L145.056 119.742H145.828ZM145.251 123.44L143.931 121.677L144.26 121.113L145.996 123.44H145.251ZM148.03 119.742V120.227H146.03V119.742H148.03ZM146.707 118.843H147.339V122.524C147.339 122.649 147.358 122.744 147.397 122.808C147.436 122.872 147.486 122.914 147.548 122.934C147.609 122.955 147.675 122.965 147.746 122.965C147.798 122.965 147.853 122.961 147.91 122.951C147.969 122.94 148.014 122.931 148.043 122.924L148.047 123.44C147.997 123.456 147.93 123.471 147.848 123.485C147.769 123.501 147.672 123.509 147.558 123.509C147.403 123.509 147.26 123.478 147.131 123.416C147.001 123.355 146.897 123.252 146.82 123.109C146.744 122.963 146.707 122.767 146.707 122.521V118.843ZM150.306 123.509C150.048 123.509 149.815 123.465 149.605 123.379C149.398 123.29 149.219 123.166 149.069 123.006C148.92 122.847 148.807 122.657 148.727 122.439C148.647 122.22 148.607 121.981 148.607 121.721V121.577C148.607 121.277 148.652 121.009 148.74 120.774C148.829 120.537 148.95 120.337 149.103 120.173C149.255 120.009 149.429 119.884 149.622 119.8C149.816 119.716 150.017 119.674 150.224 119.674C150.488 119.674 150.716 119.719 150.907 119.81C151.101 119.901 151.26 120.029 151.383 120.193C151.506 120.355 151.597 120.546 151.656 120.767C151.715 120.986 151.745 121.225 151.745 121.485V121.769H148.983V121.253H151.113V121.205C151.103 121.041 151.069 120.881 151.01 120.726C150.953 120.571 150.862 120.444 150.737 120.344C150.611 120.243 150.44 120.193 150.224 120.193C150.08 120.193 149.948 120.224 149.827 120.285C149.707 120.345 149.603 120.434 149.516 120.552C149.43 120.67 149.363 120.815 149.315 120.986C149.267 121.157 149.243 121.354 149.243 121.577V121.721C149.243 121.896 149.267 122.062 149.315 122.217C149.365 122.369 149.437 122.504 149.53 122.62C149.626 122.736 149.741 122.827 149.875 122.893C150.012 122.959 150.167 122.992 150.34 122.992C150.563 122.992 150.753 122.947 150.907 122.856C151.062 122.765 151.198 122.643 151.314 122.49L151.697 122.794C151.617 122.915 151.516 123.03 151.393 123.139C151.27 123.249 151.118 123.338 150.938 123.406C150.76 123.474 150.55 123.509 150.306 123.509ZM153.963 122.989C154.114 122.989 154.253 122.958 154.38 122.897C154.508 122.835 154.613 122.751 154.695 122.644C154.777 122.534 154.823 122.41 154.835 122.271H155.436C155.425 122.49 155.351 122.694 155.214 122.883C155.08 123.07 154.903 123.221 154.684 123.338C154.466 123.452 154.225 123.509 153.963 123.509C153.685 123.509 153.442 123.46 153.235 123.362C153.03 123.264 152.859 123.129 152.722 122.958C152.588 122.787 152.487 122.591 152.418 122.37C152.352 122.147 152.319 121.911 152.319 121.663V121.519C152.319 121.271 152.352 121.036 152.418 120.815C152.487 120.592 152.588 120.395 152.722 120.224C152.859 120.053 153.03 119.919 153.235 119.821C153.442 119.723 153.685 119.674 153.963 119.674C154.253 119.674 154.505 119.733 154.722 119.851C154.938 119.968 155.108 120.127 155.231 120.33C155.357 120.53 155.425 120.758 155.436 121.013H154.835C154.823 120.861 154.78 120.723 154.705 120.6C154.632 120.477 154.532 120.379 154.404 120.306C154.279 120.231 154.132 120.193 153.963 120.193C153.769 120.193 153.607 120.232 153.474 120.309C153.344 120.385 153.241 120.487 153.163 120.617C153.088 120.745 153.033 120.887 152.999 121.044C152.967 121.199 152.951 121.358 152.951 121.519V121.663C152.951 121.825 152.967 121.984 152.999 122.141C153.031 122.299 153.085 122.441 153.16 122.569C153.237 122.696 153.341 122.799 153.471 122.876C153.603 122.951 153.767 122.989 153.963 122.989Z" fill="black"/>
<defs>
<linearGradient id="paint0_linear_433_2" x1="185.746" y1="0.28009" x2="185.746" y2="52.5634" gradientUnits="userSpaceOnUse">
<stop stop-color="white"/>
<stop offset="1" stop-color="#545455" stop-opacity="0"/>
</linearGradient>
<linearGradient id="paint1_linear_433_2" x1="173.468" y1="213.615" x2="173.468" y2="279.715" gradientUnits="userSpaceOnUse">
<stop stop-color="#797A7D"/>
<stop offset="1" stop-color="#797A7D" stop-opacity="0"/>
</linearGradient>
<linearGradient id="paint2_linear_433_2" x1="41.5464" y1="176.829" x2="41.5464" y2="279.715" gradientUnits="userSpaceOnUse">
<stop stop-color="#4F4E50"/>
<stop offset="1" stop-color="#4F4E50" stop-opacity="0"/>
</linearGradient>
<linearGradient id="paint3_linear_433_2" x1="150.521" y1="210.907" x2="150.521" y2="267.858" gradientUnits="userSpaceOnUse">
<stop stop-color="#454748"/>
<stop offset="1" stop-color="#454748" stop-opacity="0"/>
</linearGradient>
<linearGradient id="paint4_linear_433_2" x1="176.269" y1="14.8447" x2="176.269" y2="259.736" gradientUnits="userSpaceOnUse">
<stop stop-color="white"/>
<stop offset="1" stop-color="white" stop-opacity="0"/>
</linearGradient>
<linearGradient id="paint5_linear_433_2" x1="94.3433" y1="19.2328" x2="94.3433" y2="257.122" gradientUnits="userSpaceOnUse">
<stop stop-color="white"/>
<stop offset="1" stop-color="#CE111E" stop-opacity="0"/>
</linearGradient>
<linearGradient id="paint6_linear_433_2" x1="35.7113" y1="8.30933" x2="35.7113" y2="259.923" gradientUnits="userSpaceOnUse">
<stop stop-color="white"/>
<stop offset="1" stop-color="#CE111E" stop-opacity="0"/>
</linearGradient>
</defs>
</svg>
