<svg width="24" height="24" viewBox="0 0 24 24" fill="none" xmlns="http://www.w3.org/2000/svg">
<path fill-rule="evenodd" clip-rule="evenodd" d="M3 18H1C0.448 18 0 17.552 0 17V15H15V6H19.667C20.784 6 21.267 6.576 21.603 7.107C22.197 8.047 23.139 9.539 23.712 10.485C23.9 10.797 24 11.155 24 11.52V16C24 17.121 23.272 18 22 18H21C21 19.656 19.656 21 18 21C16.344 21 15 19.656 15 18H9C9 19.656 7.656 21 6 21C4.344 21 3 19.656 3 18V18ZM6 16.8C6.662 16.8 7.2 17.338 7.2 18C7.2 18.662 6.662 19.2 6 19.2C5.338 19.2 4.8 18.662 4.8 18C4.8 17.338 5.338 16.8 6 16.8ZM18 16.8C18.662 16.8 19.2 17.338 19.2 18C19.2 18.662 18.662 19.2 18 19.2C17.338 19.2 16.8 18.662 16.8 18C16.8 17.338 17.338 16.8 18 16.8ZM14 14H0V4C0 3.448 0.448 3 1 3H13C13.552 3 14 3.448 14 4V14ZM17 8V11H21.715L20.288 8.504C20.11 8.192 19.779 8 19.42 8H17Z" fill="#8F3EA3"/>
<g clip-path="url(#clip0_2_74)">
<path d="M10.1707 10.9841C9.15333 10.9841 8.53354 10.2663 8.29146 9.375H10.25L10.3471 8.79167H8.18938C8.17217 8.598 8.17071 8.40229 8.18529 8.20833H10.4445L10.5417 7.625H8.27979C8.50904 6.71908 9.1125 5.98408 10.0747 5.98408C10.4052 5.98408 10.7721 6.04329 11.1935 6.16492L11.4167 5.24267C10.8759 5.08167 10.362 5 9.88717 5C8.14913 5 7.10438 6.211 6.79725 7.625H6.16667L6.06954 8.20833H6.71208C6.69779 8.40258 6.69721 8.59742 6.71004 8.79167H5.97212L5.875 9.375H6.79229C7.09358 10.789 8.15263 12 10.0254 12C10.4629 12 10.9016 11.9195 11.3309 11.7605L11.0734 10.8185C10.7677 10.9287 10.4644 10.9841 10.1707 10.9841V10.9841Z" fill="white"/>
</g>
<line x1="5.40848" y1="2.71166" x2="17.4085" y2="19.7117" stroke="white"/>
<defs>
<clipPath id="clip0_2_74">
<rect width="7" height="7" fill="white" transform="translate(5 5)"/>
</clipPath>
</defs>
</svg>
