<svg width="796" height="243" viewBox="0 0 796 243" fill="none" xmlns="http://www.w3.org/2000/svg">
<rect width="796" height="243" fill="#CE111E"/>
<path d="M162.439 54.1737L165.066 53.1677V61.7748L162.439 62.5014V55.3474" fill="#3D4041"/>
<path d="M291.323 84.4665C285.008 83.1251 245.493 75.1327 238.562 73.7914C203.631 67.308 165.066 61.7748 165.066 61.7748L162.272 62.5014L162.719 73.6796C182.783 76.6977 253.765 89.3849 285.958 91.9559C287.746 89.2172 289.311 86.9257 291.323 84.4665Z" fill="#292B2D"/>
<path d="M124.098 72.3382V64.3458L163.948 53.7266L162.607 66.1902L124.098 72.3382Z" fill="#3D4041"/>
<path d="M291.212 78.7656L165.234 53.1677L165.066 61.7748L291.323 84.4665L291.212 78.7656Z" fill="url(#paint0_linear_9_284)"/>
<path d="M287.579 180.878L154.111 197.478L155.453 220.449L287.579 193.118V180.878V180.878Z" fill="url(#paint1_linear_9_284)"/>
<path d="M155.453 220.449L128.29 211.897C125.943 211.45 124.601 210.277 124.601 208.265V162.49C124.601 160.422 126.222 158.857 128.29 158.857H155.453C157.521 158.857 159.142 160.478 159.142 162.49V216.816C158.918 218.884 157.297 220.449 155.453 220.449Z" fill="url(#paint2_linear_9_284)"/>
<path d="M287.579 179.257C234.259 180.599 53.7317 191.665 158.974 213.351C159.421 211.45 252.759 194.124 287.579 188.144C287.69 185.685 287.411 181.772 287.579 179.257Z" fill="url(#paint3_linear_9_284)"/>
<path d="M290.429 85.5843L154.614 61.8866L156.682 208.488L290.373 185.517" fill="url(#paint4_linear_9_284)"/>
<path d="M158.639 206.923L188.317 202.396L187.758 69.4319L158.918 64.5135L158.639 206.923Z" fill="url(#paint5_linear_9_284)"/>
<path d="M120.13 66.9727L156.571 57.9743L156.627 208.6L120.186 199.49L120.13 66.9727Z" fill="url(#paint6_linear_9_284)"/>
<path d="M133.041 96.1476L133.32 96.3153L133.041 96.1476Z" fill="#E8D5C4"/>
<path d="M135.556 108.947C135.723 108.947 135.723 108.947 135.723 108.779C135.723 108.835 135.723 108.947 135.556 108.947C135.723 108.947 135.723 108.947 135.556 108.947Z" fill="#EF9B65"/>
<path d="M145.56 99.2775L145.728 99.1099C145.728 99.2775 145.56 99.557 145.56 99.8364C145.56 99.6688 145.56 99.557 145.56 99.2775Z" fill="#DEEBF2"/>
<path d="M133.041 96.1476L133.488 95.7564L133.041 96.1476Z" fill="#ECF2F7"/>
<path d="M136.003 155.448C136.003 155.615 135.835 155.168 135.835 155.168C136.003 155.224 136.003 155.336 136.003 155.448Z" fill="#DAA679"/>
<path d="M136.003 152.15C136.171 152.15 136.45 152.318 136.618 152.318C136.45 152.262 136.171 152.262 136.003 152.15Z" fill="#E4BC92"/>
<path d="M139.245 152.43C139.077 152.597 139.077 152.597 138.965 152.709C139.077 152.597 139.245 152.43 139.245 152.43Z" fill="#C92027"/>
<path d="M142.766 149.691C142.766 149.859 142.598 149.859 142.598 149.859C142.766 149.859 142.766 149.691 142.766 149.691Z" fill="#7F171C"/>
<path d="M142.766 149.691C142.766 149.523 142.877 149.523 142.766 149.691C142.877 149.523 142.877 149.691 142.766 149.691Z" fill="#C92027"/>
<path d="M143.213 122.081C143.213 122.081 143.326 122.194 143.213 122.081C143.326 122.194 143.326 122.194 143.213 122.081C143.326 122.194 143.326 122.194 143.213 122.081C143.326 122.194 143.326 122.194 143.213 122.081C143.213 122.081 143.326 122.194 143.213 122.081Z" fill="#C92027"/>
<path d="M144.554 172.327C144.554 172.327 144.666 172.327 144.554 172.327C144.666 172.327 144.666 172.327 144.554 172.327C144.666 172.327 144.666 172.327 144.554 172.327C144.666 172.327 144.666 172.327 144.554 172.327C144.666 172.494 144.666 172.494 144.554 172.327C144.666 172.327 144.666 172.327 144.554 172.327C144.666 172.327 144.666 172.327 144.554 172.327C144.666 172.327 144.666 172.327 144.554 172.327Z" fill="#44B491"/>
<path d="M144.554 171.936C144.554 171.768 144.554 171.768 144.554 171.936C144.554 171.768 144.554 171.768 144.554 171.936C144.722 171.936 144.554 172.103 144.554 172.103C144.554 171.936 144.554 171.936 144.554 171.936Z" fill="#44B491"/>
<path d="M144.666 172.774C144.666 172.942 144.666 172.942 144.666 172.774C144.834 172.942 144.666 172.774 144.666 172.774Z" fill="#44B491"/>
<path d="M145.001 170.762C144.834 171.041 144.834 170.93 144.834 171.041C144.834 170.874 145.001 170.762 145.001 170.762Z" fill="#44B491"/>
<path d="M145.113 168.75C145.113 168.582 145.281 168.47 145.281 168.47C145.113 168.75 145.113 168.75 145.113 168.75Z" fill="#44B491"/>
<path d="M146.175 175.065C146.175 175.233 146.287 175.233 146.175 175.065C146.175 175.233 146.175 175.065 146.175 175.065Z" fill="#C92027"/>
<path d="M150.255 98.8304C150.534 98.8304 150.534 99.1099 150.255 99.2776C150.087 99.2776 150.087 99.2776 149.976 99.1099C149.976 98.9422 150.255 98.9422 150.255 98.8304Z" fill="#ED7786"/>
<path d="M167.749 181.381C167.749 181.381 167.749 181.213 167.749 181.381C167.749 181.213 167.749 181.213 167.749 181.381C167.916 181.381 167.916 181.213 167.749 181.381C167.749 181.213 167.749 181.213 167.749 181.381Z" fill="#EC846B"/>
<path d="M203.016 143.431C202.848 143.264 202.401 143.264 202.569 142.984C202.736 143.096 203.184 143.264 203.016 143.431Z" fill="#505252"/>
<path d="M203.016 114.759C202.736 114.759 203.631 143.822 202.736 143.264Z" fill="#191617"/>
<path d="M190.049 143.543C189.993 143.543 189.658 143.543 189.658 143.543C189.658 143.543 189.323 114.256 189.882 114.144L190.049 143.543Z" fill="#656566"/>
<path d="M189.937 114.2L203.016 114.648L202.904 142.537L189.937 143.543V114.2Z" fill="#CFCCCE"/>
<path d="M209.052 114.927L202.96 121.354L202.848 143.264L214.753 143.096V114.871" fill="#9F9D9E"/>
<path d="M203.016 114.648L202.96 121.41L209.052 114.927L203.016 114.648Z" fill="#B2B0AF"/>
<path d="M193.291 131.527C190.999 133.371 189.937 137.172 189.937 137.172V143.543L202.96 143.264C202.96 143.264 202.96 121.466 202.96 121.354L198.824 125.714" fill="#BAB5BA"/>
<path d="M156.571 62.222V57.9743L160.986 58.3655V64.7929L157.744 64.5135L156.571 62.222Z" fill="white"/>
<path d="M290.038 109.673C277.239 108.5 223.248 102.687 206.146 100.843C199.83 100.172 194.017 99.5011 189.267 98.9981L189.379 98.048C194.129 98.551 199.942 99.1658 206.258 99.8924C223.36 101.737 277.351 107.549 290.15 108.723L290.038 109.673Z" fill="#BAB5BA"/>
<path d="M215.286 73.3434L214.336 73.3455L214.612 198.764L215.562 198.762L215.286 73.3434Z" fill="#BAB5BA"/>
<path d="M257.174 111.797C252.647 111.462 233.197 109.673 228.726 109.338C224.143 108.947 219.448 108.5 214.753 108.164L214.809 107.214C219.504 107.605 224.254 107.997 228.837 108.388C233.309 108.779 252.703 110.512 257.23 110.847L257.174 111.797Z" fill="#BAB5BA"/>
<path d="M256.95 123.814C254.435 123.758 225.205 122.64 222.745 122.528C220.342 122.416 217.771 122.305 215.256 122.249L215.312 121.299C217.771 121.354 220.342 121.522 222.801 121.578C225.26 121.69 254.491 122.752 257.006 122.863L256.95 123.814Z" fill="#BAB5BA"/>
<path d="M256.95 135.383H214.977V136.333H256.95V135.383Z" fill="#BAB5BA"/>
<path d="M215.088 150.473L215.032 149.523C217.044 149.467 218.945 149.356 220.901 149.3C223.081 149.244 255.162 147.623 257.23 147.567L257.286 148.517C255.162 148.629 223.081 150.194 220.957 150.25C219.001 150.306 217.044 150.362 215.088 150.473Z" fill="#BAB5BA"/>
<path d="M214.724 163.141L188.097 165.3L188.173 166.247L214.801 164.088L214.724 163.141Z" fill="#BAB5BA"/>
<path d="M215.088 143.04L215.032 142.09C217.268 141.978 219.448 141.922 221.572 141.922C223.081 141.922 288.976 140.469 290.429 140.413L290.485 141.363C289.032 141.419 223.137 142.816 221.628 142.872C219.504 142.872 217.268 142.928 215.088 143.04Z" fill="#BAB5BA"/>
<path d="M188.484 158.913L188.428 157.963C196.477 157.404 204.693 157.013 212.685 156.677C218.665 156.398 284.337 151.535 290.317 151.2L290.373 152.15C284.281 152.486 218.609 157.348 212.685 157.628C204.748 157.963 196.588 158.298 188.484 158.913Z" fill="#BAB5BA"/>
<path d="M188.484 173.836L188.428 172.886C199.886 171.991 211.455 170.706 222.689 169.588C229.62 168.862 283.387 163.161 290.373 162.49L290.485 163.44C283.499 164.111 229.676 169.812 222.801 170.538C211.511 171.712 199.942 172.997 188.484 173.836Z" fill="#BAB5BA"/>
<path d="M290.429 130.465C288.752 130.409 223.695 129.179 222.131 129.123C219.783 129.067 217.268 129.067 214.809 128.956L214.865 128.005C217.324 128.117 219.839 128.173 222.186 128.173C223.807 128.173 288.864 129.459 290.485 129.514L290.429 130.465Z" fill="#BAB5BA"/>
<path d="M214.753 115.206L214.809 114.256L290.205 118.951L290.15 119.901L214.753 115.206Z" fill="#BAB5BA"/>
<path d="M158.983 95.8382L158.901 96.7848L187.579 99.2708L187.661 98.3242L158.983 95.8382Z" fill="white"/>
<path d="M158.94 104.112L158.882 105.061L187.555 106.829L187.614 105.88L158.94 104.112Z" fill="white"/>
<path d="M158.911 112.13L158.858 113.079L187.54 114.682L187.593 113.733L158.911 112.13Z" fill="white"/>
<path d="M158.852 119.978L158.833 120.928L187.499 121.48L187.518 120.53L158.852 119.978Z" fill="white"/>
<path d="M158.985 127.761L158.965 128.711L187.631 129.319L187.651 128.369L158.985 127.761Z" fill="white"/>
<path d="M187.588 135.584L158.916 135.86L158.925 136.81L187.597 136.535L187.588 135.584Z" fill="white"/>
<path d="M187.581 143.49L158.912 143.814L158.923 144.764L187.592 144.44L187.581 143.49Z" fill="white"/>
<path d="M187.561 150.615L158.909 151.669L158.944 152.618L187.596 151.565L187.561 150.615Z" fill="white"/>
<path d="M187.523 158.056L158.861 159.988L158.925 160.936L187.587 159.004L187.523 158.056Z" fill="white"/>
<path d="M187.538 173.4L158.878 176.052L158.966 176.998L187.626 174.346L187.538 173.4Z" fill="white"/>
<path d="M158.974 207.929H157.968L158.583 64.5135L187.646 68.8171L187.534 69.8231L159.589 65.6313L158.974 207.929Z" fill="white"/>
<path d="M236.942 77.2007L237.892 77.3684V194.851H236.942V77.2007Z" fill="#BAB5BA"/>
<path d="M256.783 80.4424L257.677 80.6101V191.386H256.783V80.4424Z" fill="#BAB5BA"/>
<path d="M276.177 83.2369H275.227V187.473H276.177V83.2369Z" fill="#BAB5BA"/>
<path d="M209.22 119.169V131.247L193.57 131.029V118.951L209.22 119.169Z" fill="white"/>
<path d="M196.055 125.693V126H194.633V125.693H196.055ZM194.707 123.156V126H194.33V123.156H194.707ZM196.336 124.967V124.922C196.336 124.77 196.358 124.628 196.402 124.498C196.447 124.367 196.51 124.253 196.594 124.156C196.677 124.059 196.778 123.983 196.896 123.93C197.015 123.875 197.148 123.848 197.295 123.848C197.443 123.848 197.577 123.875 197.695 123.93C197.815 123.983 197.917 124.059 198 124.156C198.085 124.253 198.149 124.367 198.193 124.498C198.238 124.628 198.26 124.77 198.26 124.922V124.967C198.26 125.119 198.238 125.26 198.193 125.391C198.149 125.521 198.085 125.635 198 125.732C197.917 125.829 197.816 125.904 197.697 125.959C197.58 126.012 197.447 126.039 197.299 126.039C197.15 126.039 197.017 126.012 196.898 125.959C196.78 125.904 196.678 125.829 196.594 125.732C196.51 125.635 196.447 125.521 196.402 125.391C196.358 125.26 196.336 125.119 196.336 124.967ZM196.697 124.922V124.967C196.697 125.072 196.71 125.172 196.734 125.266C196.759 125.358 196.796 125.44 196.846 125.512C196.896 125.583 196.96 125.64 197.035 125.682C197.111 125.722 197.199 125.742 197.299 125.742C197.398 125.742 197.484 125.722 197.559 125.682C197.634 125.64 197.697 125.583 197.746 125.512C197.796 125.44 197.833 125.358 197.857 125.266C197.883 125.172 197.896 125.072 197.896 124.967V124.922C197.896 124.818 197.883 124.719 197.857 124.627C197.833 124.533 197.795 124.451 197.744 124.379C197.695 124.306 197.632 124.249 197.557 124.207C197.482 124.165 197.395 124.145 197.295 124.145C197.196 124.145 197.109 124.165 197.033 124.207C196.959 124.249 196.896 124.306 196.846 124.379C196.796 124.451 196.759 124.533 196.734 124.627C196.71 124.719 196.697 124.818 196.697 124.922ZM199.559 125.742C199.645 125.742 199.724 125.725 199.797 125.689C199.87 125.654 199.93 125.606 199.977 125.545C200.023 125.482 200.05 125.411 200.057 125.332H200.4C200.394 125.457 200.352 125.574 200.273 125.682C200.197 125.788 200.096 125.875 199.971 125.941C199.846 126.007 199.708 126.039 199.559 126.039C199.4 126.039 199.261 126.011 199.143 125.955C199.025 125.899 198.928 125.822 198.85 125.725C198.773 125.627 198.715 125.515 198.676 125.389C198.638 125.261 198.619 125.126 198.619 124.984V124.902C198.619 124.76 198.638 124.626 198.676 124.5C198.715 124.372 198.773 124.26 198.85 124.162C198.928 124.064 199.025 123.988 199.143 123.932C199.261 123.876 199.4 123.848 199.559 123.848C199.724 123.848 199.868 123.882 199.992 123.949C200.116 124.016 200.213 124.107 200.283 124.223C200.355 124.337 200.394 124.467 200.4 124.613H200.057C200.05 124.526 200.025 124.447 199.982 124.377C199.941 124.307 199.883 124.251 199.811 124.209C199.739 124.166 199.655 124.145 199.559 124.145C199.448 124.145 199.355 124.167 199.279 124.211C199.205 124.254 199.146 124.312 199.102 124.387C199.059 124.46 199.027 124.541 199.008 124.631C198.99 124.719 198.98 124.81 198.98 124.902V124.984C198.98 125.077 198.99 125.168 199.008 125.258C199.026 125.348 199.057 125.429 199.1 125.502C199.144 125.575 199.203 125.633 199.277 125.678C199.353 125.721 199.447 125.742 199.559 125.742ZM201.17 123V126H200.807V123H201.17ZM202.461 123.887L201.539 124.873L201.023 125.408L200.994 125.023L201.363 124.582L202.02 123.887H202.461ZM202.131 126L201.377 124.992L201.564 124.67L202.557 126H202.131ZM203.719 123.887V124.164H202.576V123.887H203.719ZM202.963 123.373H203.324V125.477C203.324 125.548 203.335 125.602 203.357 125.639C203.38 125.675 203.408 125.699 203.443 125.711C203.479 125.723 203.516 125.729 203.557 125.729C203.587 125.729 203.618 125.726 203.65 125.721C203.684 125.714 203.71 125.709 203.727 125.705L203.729 126C203.7 126.009 203.662 126.018 203.615 126.025C203.57 126.035 203.514 126.039 203.449 126.039C203.361 126.039 203.279 126.021 203.205 125.986C203.131 125.951 203.072 125.893 203.027 125.811C202.984 125.727 202.963 125.615 202.963 125.475V123.373ZM205.02 126.039C204.872 126.039 204.739 126.014 204.619 125.965C204.501 125.914 204.398 125.843 204.312 125.752C204.228 125.661 204.163 125.553 204.117 125.428C204.072 125.303 204.049 125.166 204.049 125.018V124.936C204.049 124.764 204.074 124.611 204.125 124.477C204.176 124.341 204.245 124.227 204.332 124.133C204.419 124.039 204.518 123.968 204.629 123.92C204.74 123.872 204.854 123.848 204.973 123.848C205.124 123.848 205.254 123.874 205.363 123.926C205.474 123.978 205.564 124.051 205.635 124.145C205.705 124.237 205.757 124.346 205.791 124.473C205.825 124.598 205.842 124.734 205.842 124.883V125.045H204.264V124.75H205.48V124.723C205.475 124.629 205.456 124.538 205.422 124.449C205.389 124.361 205.337 124.288 205.266 124.23C205.194 124.173 205.096 124.145 204.973 124.145C204.891 124.145 204.815 124.162 204.746 124.197C204.677 124.231 204.618 124.282 204.568 124.35C204.519 124.417 204.48 124.5 204.453 124.598C204.426 124.695 204.412 124.808 204.412 124.936V125.018C204.412 125.118 204.426 125.212 204.453 125.301C204.482 125.388 204.523 125.465 204.576 125.531C204.631 125.598 204.697 125.65 204.773 125.688C204.852 125.725 204.94 125.744 205.039 125.744C205.167 125.744 205.275 125.718 205.363 125.666C205.452 125.614 205.529 125.544 205.596 125.457L205.814 125.631C205.769 125.7 205.711 125.766 205.641 125.828C205.57 125.891 205.484 125.941 205.381 125.98C205.279 126.02 205.159 126.039 205.02 126.039ZM207.109 125.742C207.195 125.742 207.275 125.725 207.348 125.689C207.421 125.654 207.48 125.606 207.527 125.545C207.574 125.482 207.601 125.411 207.607 125.332H207.951C207.945 125.457 207.902 125.574 207.824 125.682C207.747 125.788 207.646 125.875 207.521 125.941C207.396 126.007 207.259 126.039 207.109 126.039C206.951 126.039 206.812 126.011 206.693 125.955C206.576 125.899 206.479 125.822 206.4 125.725C206.324 125.627 206.266 125.515 206.227 125.389C206.189 125.261 206.17 125.126 206.17 124.984V124.902C206.17 124.76 206.189 124.626 206.227 124.5C206.266 124.372 206.324 124.26 206.4 124.162C206.479 124.064 206.576 123.988 206.693 123.932C206.812 123.876 206.951 123.848 207.109 123.848C207.275 123.848 207.419 123.882 207.543 123.949C207.667 124.016 207.764 124.107 207.834 124.223C207.906 124.337 207.945 124.467 207.951 124.613H207.607C207.601 124.526 207.576 124.447 207.533 124.377C207.492 124.307 207.434 124.251 207.361 124.209C207.29 124.166 207.206 124.145 207.109 124.145C206.999 124.145 206.906 124.167 206.83 124.211C206.756 124.254 206.697 124.312 206.652 124.387C206.609 124.46 206.578 124.541 206.559 124.631C206.54 124.719 206.531 124.81 206.531 124.902V124.984C206.531 125.077 206.54 125.168 206.559 125.258C206.577 125.348 206.607 125.429 206.65 125.502C206.695 125.575 206.754 125.633 206.828 125.678C206.904 125.721 206.997 125.742 207.109 125.742Z" fill="black"/>
<defs>
<linearGradient id="paint0_linear_9_284" x1="228.195" y1="53.1677" x2="228.195" y2="84.4665" gradientUnits="userSpaceOnUse">
<stop stop-color="white"/>
<stop offset="1" stop-color="#545455" stop-opacity="0"/>
</linearGradient>
<linearGradient id="paint1_linear_9_284" x1="220.845" y1="180.878" x2="220.845" y2="220.449" gradientUnits="userSpaceOnUse">
<stop stop-color="#797A7D"/>
<stop offset="1" stop-color="#797A7D" stop-opacity="0"/>
</linearGradient>
<linearGradient id="paint2_linear_9_284" x1="141.871" y1="158.857" x2="141.871" y2="220.449" gradientUnits="userSpaceOnUse">
<stop stop-color="#4F4E50"/>
<stop offset="1" stop-color="#4F4E50" stop-opacity="0"/>
</linearGradient>
<linearGradient id="paint3_linear_9_284" x1="207.108" y1="179.257" x2="207.108" y2="213.351" gradientUnits="userSpaceOnUse">
<stop stop-color="#454748"/>
<stop offset="1" stop-color="#454748" stop-opacity="0"/>
</linearGradient>
<linearGradient id="paint4_linear_9_284" x1="222.522" y1="61.8866" x2="222.522" y2="208.488" gradientUnits="userSpaceOnUse">
<stop stop-color="white"/>
<stop offset="1" stop-color="white" stop-opacity="0"/>
</linearGradient>
<linearGradient id="paint5_linear_9_284" x1="173.478" y1="64.5135" x2="173.478" y2="206.923" gradientUnits="userSpaceOnUse">
<stop stop-color="white"/>
<stop offset="1" stop-color="#CE111E" stop-opacity="0"/>
</linearGradient>
<linearGradient id="paint6_linear_9_284" x1="138.378" y1="57.9743" x2="138.378" y2="208.6" gradientUnits="userSpaceOnUse">
<stop stop-color="white"/>
<stop offset="1" stop-color="#CE111E" stop-opacity="0"/>
</linearGradient>
</defs>
</svg>
