<svg width="294" height="320" viewBox="0 0 294 320" fill="none" xmlns="http://www.w3.org/2000/svg">
            <g id="Group 51">
              <g id="Group 49">
                <g id="Group 48">
                  <g id="Group">
                    <path id="Vector" d="M71.0701 148.503L294 241.057L231.5 268.139L7.37579 175.585L71.0701 148.503Z" fill="#6D6E71"></path>
                    <path id="Vector_2" d="M286.038 241.355V258.02L227.121 283.912V241.355H286.038Z" fill="#424143"></path>
                    <path id="Vector_3" d="M15.3376 178.561V195.226L227.121 283.912V248.2L15.3376 178.561Z" fill="#59595C"></path>
                    <g id="Group_2">
                      <path id="Vector_4" d="M62.7102 65.4723L231.898 135.409V267.841L62.3121 197.31L62.7102 65.4723Z" fill="white"></path>
                      <path id="Vector_5" d="M62.3121 166.359L103.713 183.62V214.571L106.102 215.463V184.513L145.911 201.179V232.129L148.299 233.022V202.071L188.108 218.737V249.985L190.497 251.176V219.63L235.879 238.379L237.073 236.891L190.497 217.547V158.622L236.277 177.668L237.471 176.18L190.497 156.836V117.255H188.108V155.646L148.299 138.98V100.887L145.911 98.8037V138.087L106.102 121.421V82.7332L103.713 81.5428V120.529L62.3121 103.268V105.351L103.713 122.314V181.537L62.3121 164.276V166.359ZM188.506 186.001L148.697 169.038V155.943L188.506 172.906V186.001ZM106.102 138.087L145.911 155.05V168.145L106.102 151.182V138.087ZM188.506 201.179L148.697 184.215V170.823L188.506 187.786V201.179ZM145.911 183.322L106.102 166.359V152.967L145.911 169.93V183.322ZM145.911 140.17V152.967L106.102 136.004V123.505L145.911 140.17ZM188.506 157.729V170.823L148.697 153.86V141.063L188.506 157.729ZM148.299 199.988V186.298L188.108 203.262V216.654L148.299 199.988ZM106.102 182.43V168.442L145.911 185.406V199.095L106.102 182.43Z" fill="#BCBDBF"></path>
                      <path id="Vector_6" d="M223.538 181.537V208.321L198.857 197.905V171.121L223.538 181.537Z" fill="#333333"></path>
                      <g id="Group_3">
                        <path id="Vector_7" d="M106.102 121.421V83.0308L148.299 99.9941V108.625L111.675 123.802L106.102 121.421Z" fill="#59595C"></path>
                        <path id="Vector_8" d="M111.675 123.802L148.299 108.625V139.575L111.675 123.802Z" fill="#808184"></path>
                      </g>
                      <g id="Group_4">
                        <path id="Vector_9" d="M112.073 84.5188L104.51 81.8404L64.7006 97.9109V140.468L71.8662 143.146L112.073 84.5188Z" fill="#D3D5D5"></path>
                        <path id="Vector_10" d="M112.073 84.5188L71.8663 100.887V143.146L112.073 125.29V84.5188Z" fill="#A4A5A6"></path>
                      </g>
                      <path id="Vector_11" d="M148.299 138.087L184.127 140.765V100.292L148.299 97.6133V138.087Z" fill="white"></path>
                    </g>
                    <path id="Vector_12" d="M71.0701 17.5585L294 109.815L231.5 136.897L7.37579 44.3426L71.0701 17.5585Z" fill="#6D6E71"></path>
                    <path id="Vector_13" d="M71.0701 0L294 92.554L231.5 119.636L7.37579 26.7841L71.0701 0Z" fill="#6D6E71"></path>
                    <path id="Vector_14" d="M294 92.554V109.815L231.5 136.897V119.636L294 92.554Z" fill="#424143"></path>
                    <path id="Vector_15" d="M294 109.815L231.5 136.897L231.898 267.841L294 241.95V109.815Z" fill="#BBBDBF"></path>
                    <path id="Vector_16" d="M7.37579 175.287L62.3121 197.012V64.5795L7.37579 42.8546V175.287Z" fill="#CE111E"></path>
                    <path id="Vector_17" d="M7.37579 26.7841V44.3426L231.5 136.897V119.636L7.37579 26.7841Z" fill="#59595C"></path>
                  </g>
                  <g id="Group_5">
                    <g id="Group 45">
                      <g id="Group 41">
                        <g id="Group 44">
                          <g id="Group 46">
                            <g id="Group 47">
                              <g id="Group 40">
                                <g id="Group 37">
                                  <g id="Group 36">
                                    <g id="Group 35">
                                      <g id="Logistics_Two Color 1">
                                        <path id="Vector_18" d="M116.02 216.031L120.324 214.877C120.324 214.877 121.3 218.602 116.948 219.823L116.02 216.031Z" fill="#24285B"></path>
                                        <path id="Vector_19" d="M73.9376 204.626C73.1409 201.917 73.0614 198.831 73.7162 196.032C74.371 193.233 75.708 190.943 77.4401 189.653C79.13 188.419 80.9426 187.618 82.5581 188.215C85.5396 189.28 91.1654 203.765 94.5935 213.317C95.4586 215.733 96.7963 217.662 98.4139 218.825C100.031 219.988 101.846 220.326 103.595 219.789L116.213 215.909L117.526 221.255L96.8044 232.042C94.8402 233.063 92.695 232.838 90.8371 231.417C83.3826 225.766 77.4139 216.304 73.9376 204.626V204.626Z" fill="#68E1FD"></path>
                                        <path id="Vector_20" opacity="0.08" d="M73.9376 204.626C73.1409 201.917 73.0614 198.831 73.7162 196.032C74.371 193.233 75.708 190.943 77.4401 189.653C79.13 188.419 80.9426 187.618 82.5581 188.215C85.5396 189.28 91.1654 203.765 94.5935 213.317C95.4586 215.733 96.7963 217.662 98.4139 218.825C100.031 219.988 101.846 220.326 103.595 219.789L116.213 215.909L117.526 221.255L96.8044 232.042C94.8402 233.063 92.695 232.838 90.8371 231.417C83.3826 225.766 77.4139 216.304 73.9376 204.626V204.626Z" fill="black"></path>
                                        <path id="Vector_21" d="M123.166 162.621L92.5632 177.183L101.293 221.238L131.896 206.677L123.166 162.621Z" fill="#FFD200"></path>
                                        <path id="Vector_22" opacity="0.08" d="M123.166 162.621L92.5632 177.183L101.293 221.238L131.896 206.677L123.166 162.621Z" fill="black"></path>
                                        <path id="Vector_23" d="M109.944 168.908L79.3419 183.47L88.0719 227.525L118.674 212.963L109.944 168.908Z" fill="#FFD200"></path>
                                        <path id="Vector_24" opacity="0.45" d="M90.6751 309.783C120.443 309.783 144.574 303.966 144.574 296.791C144.574 289.616 120.443 283.799 90.6751 283.799C60.9075 283.799 36.7761 289.616 36.7761 296.791C36.7761 303.966 60.9075 309.783 90.6751 309.783Z" fill="#E6E6E6"></path>
                                        <path id="Vector_25" d="M114.645 264.939C114.645 264.939 115.197 267.238 116.55 267.395C117.903 267.551 118.266 269.586 117.058 270.142C115.849 270.698 112.701 268.331 112.701 268.331L112.771 265.312L114.645 264.939Z" fill="#68E1FD"></path>
                                        <path id="Vector_26" d="M82.5931 292.571C82.5931 292.571 82.1553 294.939 83.1973 296.296C84.2393 297.652 83.7489 299.64 82.5625 298.975C81.376 298.31 79.7342 293.548 79.7342 293.548L80.9382 291.173L82.5931 292.571Z" fill="#68E1FD"></path>
                                        <path id="Vector_27" d="M65.4747 186.716L68.5131 193.059L65.6323 198.48L61.7183 186.811L65.4747 186.716Z" fill="#F4A28C"></path>
                                        <path id="Vector_28" d="M59.017 180.563C59.0638 179.79 59.2344 179.047 59.5134 178.403C59.7924 177.758 60.1709 177.231 60.6145 176.871C61.0581 176.51 61.5528 176.327 62.0536 176.338C62.5545 176.349 63.0457 176.553 63.4826 176.933C65.571 178.704 68.2986 181.831 66.6568 185.115C64.1437 190.149 59.84 185.318 59.84 185.318C59.2684 183.894 58.982 182.239 59.017 180.563Z" fill="#F4A28C"></path>
                                        <path id="Vector_29" d="M62.3006 183.731C62.3006 183.731 61.2454 183.052 61.1929 184.789C61.1404 186.526 62.7559 186.499 63.0317 185.508C63.3075 184.518 62.3006 183.731 62.3006 183.731Z" fill="#F4A28C"></path>
                                        <path id="Vector_30" d="M59.1045 175.97C57.6291 180.237 56.0399 181.105 58.2289 183.738C60.418 186.37 59.481 190.481 62.5764 189.436C64.5027 188.758 63.6621 185.556 62.7515 183.208C62.4696 182.482 62.316 181.653 62.306 180.805C62.296 179.957 62.43 179.12 62.6946 178.378C63.1105 177.218 63.3907 175.881 62.9573 174.986C62.5238 174.09 59.7963 173.995 59.1045 175.97Z" fill="#24285B"></path>
                                        <path id="Vector_31" d="M60.8164 207.645C60.9852 205.207 61.4915 202.854 62.3007 200.746C63.1099 198.639 64.203 196.827 65.5053 195.434C70.5183 190.006 79.9531 179.219 84.769 185.698C91.3756 194.565 93.963 241.241 93.963 241.241L75.7413 252.985C75.7413 252.985 59.376 229.477 60.8164 207.645Z" fill="#68E1FD"></path>
                                        <path id="Vector_32" opacity="0.08" d="M66.9588 193.853C66.9588 193.853 67.4404 241.933 93.3063 232.014L93.9543 241.241L75.7413 252.985C75.7413 252.985 65.7592 240.332 61.2936 217.645C61.2936 217.645 59.1045 206.431 63.1192 198.948C64.1497 196.844 65.459 195.107 66.9588 193.853V193.853Z" fill="black"></path>
                                        <path id="Vector_33" d="M58.2508 183.738L66.2233 171.132C66.2593 171.072 66.2805 170.994 66.2833 170.912C66.2861 170.83 66.2703 170.749 66.2386 170.683C66.2069 170.617 66.1614 170.57 66.1098 170.55C66.0583 170.531 66.0039 170.54 65.9562 170.576L63.5964 172.489C63.1972 172.829 62.7537 173.024 62.299 173.062C61.8442 173.099 61.3899 172.978 60.9696 172.706C60.2953 172.163 59.5134 172.034 58.7805 172.347C57.3752 173.215 53.2422 178.439 58.2508 183.738Z" fill="#FFD200"></path>
                                        <path id="Vector_34" d="M63.0711 182.096C63.0711 182.096 61.4819 179.891 60.9828 182.136C60.4837 184.382 62.6552 185.658 63.649 184.463C64.6429 183.269 63.0711 182.096 63.0711 182.096Z" fill="#F4A28C"></path>
                                        <path id="Vector_35" d="M75.7413 252.985C75.7413 252.985 80.4697 260.671 86.1525 257.693C91.8353 254.715 107.982 238.975 112.386 266.384L115.63 265.515C115.63 265.515 115.792 247.876 109.203 241.553C102.614 235.23 93.9543 241.241 93.9543 241.241L75.7413 252.985Z" fill="#24285B"></path>
                                        <path id="Vector_36" d="M77.3175 254.375C77.3175 254.375 90.5263 267.584 79.9881 291.058L82.8821 292.897C82.8821 292.897 96.1915 277.177 88.022 247.985L77.3175 254.375Z" fill="#24285B"></path>
                                        <path id="Vector_37" d="M74.822 200.902C74.0241 198.192 73.944 195.106 74.599 192.306C75.2539 189.507 76.5916 187.217 78.3244 185.929C80.0144 184.694 81.8269 183.894 83.4468 184.484C86.424 185.556 92.0498 200.033 95.4779 209.586C96.3436 212.003 97.6819 213.933 99.3001 215.097C100.918 216.261 102.733 216.6 104.484 216.065L117.101 212.198L118.415 217.544L97.6932 228.331C95.729 229.348 93.5854 229.126 91.7259 227.713C84.2694 222.054 78.2996 212.585 74.822 200.902V200.902Z" fill="#68E1FD"></path>
                                        <path id="Vector_38" opacity="0.46" d="M74.822 200.902C74.0241 198.192 73.944 195.106 74.599 192.306C75.2539 189.507 76.5916 187.217 78.3244 185.929C80.0144 184.694 81.8269 183.894 83.4468 184.484C86.424 185.556 92.0498 200.033 95.4779 209.586C96.3436 212.003 97.6819 213.933 99.3001 215.097C100.918 216.261 102.733 216.6 104.484 216.065L117.101 212.198L118.415 217.544L97.6932 228.331C95.729 229.348 93.5854 229.126 91.7259 227.713C84.2694 222.054 78.2996 212.585 74.822 200.902V200.902Z" fill="white"></path>
                                        <path id="Vector_39" d="M117.281 212.964L121.585 211.804C121.585 211.804 122.561 215.529 118.209 216.75L117.281 212.964Z" fill="#24285B"></path>
                                        <path id="Vector_40" opacity="0.22" d="M119.108 164.961L114.953 166.939L117.203 178.295L121.359 176.317L119.108 164.961Z" fill="white"></path>
                                        <g id="boxs" data-svg-origin="71.9363021850586 128.64999389648438" transform="matrix(0,0,0,0,71.9363,108.64999)" style="transform-origin: 0px 0px;">
                                          <path id="Vector_41" d="M109.255 128.65L83.1972 141.049L90.6305 178.561L116.688 166.162L109.255 128.65Z" fill="#FFD200"></path>
                                          <path id="Vector_42" opacity="0.08" d="M109.255 128.65L83.1972 141.049L90.6305 178.561L116.688 166.162L109.255 128.65Z" fill="black"></path>
                                          <path id="Vector_43" d="M97.9936 134.011L71.9363 146.41L79.3696 183.922L105.427 171.523L97.9936 134.011Z" fill="#FFD200"></path>
                                          <path id="Vector_44" opacity="0.22" d="M105.371 130.501L101.834 132.184L103.75 141.854L107.287 140.171L105.371 130.501Z" fill="white"></path>
                                        </g>
                                        <path id="Vector_45" opacity="0.46" d="M106.841 178.469L100.166 181.646L102.041 191.108L108.716 187.932L106.841 178.469Z" fill="white"></path>
                                        <path id="Vector_46" opacity="0.05" d="M78.9286 181.709L115.416 159.762L116.602 165.759L105.429 171.539L79.3401 183.48L78.9286 181.709Z" fill="black"></path>
                                      </g>
                                    </g>
                                  </g>
                                </g>
                              </g>
                            </g>
                          </g>
                        </g>
                      </g>
                    </g>
                  </g>
                </g>
              </g>
              <g id="twotwo" style="opacity: 1;">
                <path id="Vector_47" d="M146.588 105.999L125.294 97L104 105.999V123.994L125.294 132.993L146.588 123.994V105.999Z" fill="#FFD200"></path>
                <path id="Vector_48" opacity="0.47" d="M112.701 109.727L116.823 111.536L137.887 102.27L133.765 100.461L112.701 109.727Z" fill="white"></path>
                <path id="Vector_49" opacity="0.09" d="M125.523 114.998V132.993L146.588 123.993V105.998L125.523 114.998Z" fill="black"></path>
                <path id="Vector_50" opacity="0.37" d="M116.822 111.658V117.073L112.701 115.221V109.805L116.822 111.658Z" fill="white"></path>
                <path id="Vector_51" opacity="0.47" d="M138.345 109.437L134.224 111.19L113.159 102.213L117.281 100.461L138.345 109.437Z" fill="white"></path>
              </g>
            </g>
          </svg>