<svg width="300" height="300" viewBox="0 0 300 300" fill="none" xmlns="http://www.w3.org/2000/svg">
            <g id="Group 29">
              <g id="undraw_note_list_re_r4u9 1" clip-path="url(#clip0_18_107)">
                <path id="Vector" d="M249.633 52.6135C249.627 52.6135 249.622 52.6154 249.616 52.6156V15.2523C249.616 11.2071 248.188 7.32765 245.646 4.46729C243.105 1.60693 239.657 0 236.063 0H132.118C128.524 0 125.077 1.60693 122.535 4.46729C119.993 7.32765 118.565 11.2071 118.565 15.2523V34.4067C118.278 34.4136 118.005 34.5466 117.804 34.7774C117.603 35.0081 117.491 35.3182 117.49 35.6412V45.1285C117.491 45.4515 117.603 45.7616 117.804 45.9923C118.005 46.223 118.278 46.356 118.565 46.3628V56.3018H118.51C118.366 56.3017 118.223 56.3337 118.089 56.3959C117.956 56.4581 117.835 56.5492 117.733 56.6641C117.631 56.779 117.55 56.9154 117.494 57.0655C117.439 57.2156 117.411 57.3765 117.411 57.5389V75.8852C117.411 76.0477 117.439 76.2085 117.494 76.3586C117.55 76.5087 117.631 76.6451 117.733 76.76C117.835 76.8749 117.956 76.966 118.089 77.0282C118.223 77.0904 118.366 77.1224 118.51 77.1224H118.565V84.4089H118.548C118.404 84.4089 118.261 84.4409 118.127 84.5031C117.994 84.5652 117.873 84.6564 117.771 84.7713C117.669 84.8861 117.588 85.0225 117.532 85.1726C117.477 85.3227 117.449 85.4836 117.449 85.6461V104.172C117.449 104.334 117.477 104.495 117.532 104.645C117.588 104.795 117.669 104.932 117.771 105.047C117.873 105.161 117.994 105.253 118.127 105.315C118.261 105.377 118.404 105.409 118.548 105.409H118.565V284.482C118.565 288.527 119.993 292.406 122.535 295.267C125.077 298.127 128.524 299.734 132.118 299.734H236.063C239.657 299.734 243.105 298.127 245.646 295.267C248.188 292.406 249.616 288.527 249.616 284.482V88.9454C249.622 88.9454 249.627 88.9473 249.633 88.9473C249.89 88.9473 250.145 88.8903 250.382 88.7796C250.62 88.6689 250.835 88.5066 251.017 88.3021C251.199 88.0975 251.343 87.8547 251.442 87.5874C251.54 87.3201 251.591 87.0336 251.591 86.7443V54.8166C251.591 54.2323 251.384 53.672 251.017 53.2588C250.65 52.8457 250.152 52.6135 249.633 52.6135Z" fill="#3F3D56"></path>
                <path id="Vector_2" d="M241.523 19.5216V280.208C241.522 283.314 240.425 286.293 238.473 288.488C236.521 290.684 233.874 291.918 231.115 291.918H137.066C134.306 291.918 131.66 290.684 129.708 288.488C127.756 286.293 126.659 283.314 126.658 280.208V19.5216C126.658 16.4149 127.754 13.4355 129.706 11.2387C131.658 9.04195 134.306 7.80782 137.066 7.80782H151.14V9.8634C151.141 12.4212 152.044 14.8739 153.651 16.6825C155.258 18.4911 157.438 19.5077 159.711 19.5088H207.559C209.829 19.5031 212.004 18.4844 213.607 16.6762C215.21 14.8679 216.111 12.4178 216.111 9.8634V7.82919H231.115C233.872 7.82918 236.517 9.06038 238.468 11.2525C240.42 13.4447 241.518 16.4186 241.523 19.5216Z" fill="white"></path>
                <path id="Vector_3" d="M168.61 81.6215H150.19C149.082 81.6215 148.02 81.1262 147.236 80.2446C146.453 79.363 146.013 78.1674 146.013 76.9206C146.013 75.6738 146.453 74.4781 147.236 73.5966C148.02 72.715 149.082 72.2197 150.19 72.2197H168.61C169.718 72.2197 170.78 72.715 171.563 73.5966C172.347 74.4781 172.787 75.6738 172.787 76.9206C172.787 78.1674 172.347 79.363 171.563 80.2446C170.78 81.1262 169.718 81.6215 168.61 81.6215Z" fill="#CE111E"></path>
                <path id="Vector_4" d="M225 91.878H148.291C147.687 91.878 147.107 91.6079 146.68 91.127C146.253 90.6461 146.013 89.9939 146.013 89.3139C146.013 88.6338 146.253 87.9816 146.68 87.5008C147.107 87.0199 147.687 86.7498 148.291 86.7498H225C225.604 86.7498 226.184 87.0199 226.611 87.5008C227.038 87.9816 227.279 88.6338 227.279 89.3139C227.279 89.9939 227.038 90.6461 226.611 91.127C226.184 91.6079 225.604 91.878 225 91.878Z" fill="#E6E6E6"></path>
                <path id="Vector_5" d="M176.468 102.135H148.291C147.687 102.135 147.107 101.864 146.68 101.384C146.253 100.903 146.013 100.25 146.013 99.5704C146.013 98.8904 146.253 98.2382 146.68 97.7573C147.107 97.2764 147.687 97.0063 148.291 97.0063H176.468C177.073 97.0063 177.652 97.2764 178.08 97.7573C178.507 98.2382 178.747 98.8904 178.747 99.5704C178.747 100.25 178.507 100.903 178.08 101.384C177.652 101.864 177.073 102.135 176.468 102.135Z" fill="#E6E6E6"></path>
                <path id="Vector_6" d="M168.61 247.863H150.19C149.082 247.863 148.02 247.367 147.236 246.486C146.453 245.604 146.013 244.409 146.013 243.162C146.013 241.915 146.453 240.719 147.236 239.838C148.02 238.956 149.082 238.461 150.19 238.461H168.61C169.718 238.461 170.78 238.956 171.563 239.838C172.347 240.719 172.787 241.915 172.787 243.162C172.787 244.409 172.347 245.604 171.563 246.486C170.78 247.367 169.718 247.863 168.61 247.863Z" fill="#CE111E"></path>
                <path id="Vector_7" d="M225 258.119H148.291C147.687 258.119 147.107 257.849 146.68 257.368C146.253 256.887 146.013 256.235 146.013 255.555C146.013 254.875 146.253 254.223 146.68 253.742C147.107 253.261 147.687 252.991 148.291 252.991H225C225.604 252.991 226.184 253.261 226.611 253.742C227.038 254.223 227.279 254.875 227.279 255.555C227.279 256.235 227.038 256.887 226.611 257.368C226.184 257.849 225.604 258.119 225 258.119Z" fill="#E6E6E6"></path>
                <path id="Vector_8" d="M176.468 268.376H148.291C147.687 268.376 147.107 268.106 146.68 267.625C146.253 267.144 146.013 266.492 146.013 265.812C146.013 265.132 146.253 264.479 146.68 263.998C147.107 263.518 147.687 263.247 148.291 263.247H176.468C177.073 263.247 177.652 263.518 178.08 263.998C178.507 264.479 178.747 265.132 178.747 265.812C178.747 266.492 178.507 267.144 178.08 267.625C177.652 268.106 177.073 268.376 176.468 268.376Z" fill="#E6E6E6"></path>
                <g id="shop" data-svg-origin="144.21600341796875 137.1269989013672" transform="matrix(1,0,0,1,0,0)" style="transform-origin: 0px 0px;">
                  <path id="Vector_9" d="M172.58 203.049C174.583 203.049 176.207 201.221 176.207 198.967C176.207 196.712 174.583 194.885 172.58 194.885C170.577 194.885 168.953 196.712 168.953 198.967C168.953 201.221 170.577 203.049 172.58 203.049Z" fill="#24285B"></path>
                  <path id="Vector_10" opacity="0.09" d="M197.316 137.127H180.157V158.427H197.316V137.127Z" fill="black"></path>
                  <path id="Vector_11" d="M185.457 145.443H168.163V164.906H185.457V145.443Z" fill="#FFD200"></path>
                  <path id="Vector_12" d="M144.216 148.882H156.023C157.204 148.882 158.347 149.352 159.25 150.208C160.153 151.064 160.759 152.251 160.96 153.561L166.073 185.048C166.307 186.473 166.976 187.761 167.965 188.688C168.954 189.615 170.201 190.124 171.489 190.124H197.794" stroke="#24285B" stroke-width="2.03" stroke-linecap="round" stroke-linejoin="round"></path>
                  <path id="Vector_13" d="M161.251 155.304H202.825C203.572 155.302 204.308 155.504 204.97 155.892C205.633 156.28 206.202 156.844 206.629 157.533C207.056 158.223 207.328 159.019 207.422 159.853C207.516 160.686 207.43 161.534 207.169 162.321L203.802 172.778C203.073 175.038 201.743 176.991 199.993 178.37C198.243 179.75 196.158 180.488 194.022 180.486H166.344L161.251 155.304Z" fill="#24285B"></path>
                  <path id="Vector_14" d="M203.376 169.737C208.772 169.737 213.146 164.815 213.146 158.742C213.146 152.67 208.772 147.748 203.376 147.748C197.98 147.748 193.606 152.67 193.606 158.742C193.606 164.815 197.98 169.737 203.376 169.737Z" fill="#CE111E"></path>
                  <path id="Vector_15" d="M200.102 158.742L202.596 162.462L206.619 155.315" stroke="white" stroke-width="2.03" stroke-linecap="round" stroke-linejoin="round"></path>
                  <path id="Vector_16" d="M191.875 202.91C193.878 202.91 195.502 201.082 195.502 198.828C195.502 196.573 193.878 194.746 191.875 194.746C189.872 194.746 188.248 196.573 188.248 198.828C188.248 201.082 189.872 202.91 191.875 202.91Z" fill="#24285B"></path>
                </g>
              </g>
            </g>
            <defs>
              <clipPath id="clip0_18_107">
                <rect width="300" height="300" fill="white"></rect>
              </clipPath>
            </defs>
          </svg>