<svg width="300" height="300" viewBox="0 0 300 300" fill="none" xmlns="http://www.w3.org/2000/svg">
            <g id="Group 14">
              <g id="undraw_note_list_re_r4u9 1" clip-path="url(#clip0_9_945)">
                <path id="Vector" d="M249.633 52.6135C249.627 52.6135 249.622 52.6154 249.616 52.6156V15.2523C249.616 11.2071 248.188 7.32765 245.646 4.46729C243.104 1.60693 239.657 0 236.063 0H132.118C128.524 0 125.077 1.60693 122.535 4.46729C119.993 7.32765 118.565 11.2071 118.565 15.2523V34.4067C118.278 34.4136 118.005 34.5466 117.804 34.7774C117.603 35.0081 117.491 35.3182 117.49 35.6412V45.1285C117.491 45.4515 117.603 45.7616 117.804 45.9923C118.005 46.223 118.278 46.356 118.565 46.3628V56.3018H118.51C118.366 56.3017 118.223 56.3337 118.089 56.3959C117.956 56.4581 117.835 56.5492 117.733 56.6641C117.631 56.779 117.55 56.9154 117.494 57.0655C117.439 57.2156 117.411 57.3765 117.411 57.5389V75.8852C117.411 76.0477 117.439 76.2085 117.494 76.3586C117.55 76.5087 117.631 76.6451 117.733 76.76C117.835 76.8749 117.956 76.966 118.089 77.0282C118.223 77.0904 118.366 77.1224 118.51 77.1224H118.565V84.4089H118.548C118.404 84.4089 118.261 84.4409 118.127 84.5031C117.994 84.5652 117.873 84.6564 117.771 84.7713C117.669 84.8861 117.588 85.0225 117.532 85.1726C117.477 85.3227 117.449 85.4836 117.449 85.6461V104.172C117.449 104.334 117.477 104.495 117.532 104.645C117.588 104.795 117.669 104.932 117.771 105.047C117.873 105.161 117.994 105.253 118.127 105.315C118.261 105.377 118.404 105.409 118.548 105.409H118.565V284.482C118.565 288.527 119.993 292.406 122.535 295.267C125.077 298.127 128.524 299.734 132.118 299.734H236.063C239.657 299.734 243.104 298.127 245.646 295.267C248.188 292.406 249.616 288.527 249.616 284.482V88.9454C249.622 88.9454 249.627 88.9473 249.633 88.9473C249.89 88.9473 250.145 88.8903 250.382 88.7796C250.62 88.6689 250.835 88.5066 251.017 88.3021C251.199 88.0975 251.343 87.8547 251.441 87.5874C251.54 87.3201 251.59 87.0336 251.59 86.7443V54.8166C251.591 54.2323 251.384 53.672 251.017 53.2588C250.65 52.8457 250.152 52.6135 249.633 52.6135Z" fill="#3F3D56"></path>
                <path id="Vector_2" d="M241.523 19.5216V280.208C241.522 283.314 240.425 286.293 238.473 288.488C236.521 290.684 233.874 291.918 231.115 291.918H137.066C134.306 291.918 131.66 290.684 129.708 288.488C127.756 286.293 126.659 283.314 126.658 280.208V19.5216C126.658 16.4149 127.754 13.4355 129.706 11.2387C131.658 9.04195 134.306 7.80782 137.066 7.80782H151.14V9.8634C151.141 12.4212 152.044 14.8739 153.651 16.6825C155.258 18.4911 157.438 19.5077 159.711 19.5088H207.559C209.829 19.5031 212.004 18.4844 213.607 16.6762C215.21 14.8679 216.111 12.4178 216.111 9.8634V7.82919H231.115C233.872 7.82918 236.517 9.06038 238.468 11.2525C240.42 13.4447 241.518 16.4186 241.523 19.5216Z" fill="white"></path>
                <path id="Vector_3" d="M168.61 81.6215H150.19C149.082 81.6215 148.019 81.1262 147.236 80.2446C146.453 79.363 146.013 78.1674 146.013 76.9206C146.013 75.6738 146.453 74.4781 147.236 73.5966C148.019 72.715 149.082 72.2197 150.19 72.2197H168.61C169.717 72.2197 170.78 72.715 171.563 73.5966C172.347 74.4781 172.787 75.6738 172.787 76.9206C172.787 78.1674 172.347 79.363 171.563 80.2446C170.78 81.1262 169.717 81.6215 168.61 81.6215Z" fill="#CE111E"></path>
                <path id="Vector_4" d="M225 91.878H148.291C147.687 91.878 147.107 91.6079 146.68 91.127C146.253 90.6461 146.013 89.9939 146.013 89.3139C146.013 88.6338 146.253 87.9816 146.68 87.5008C147.107 87.0199 147.687 86.7498 148.291 86.7498H225C225.604 86.7498 226.184 87.0199 226.611 87.5008C227.038 87.9816 227.278 88.6338 227.278 89.3139C227.278 89.9939 227.038 90.6461 226.611 91.127C226.184 91.6079 225.604 91.878 225 91.878Z" fill="#E6E6E6"></path>
                <path id="Vector_5" d="M176.468 102.135H148.291C147.687 102.135 147.107 101.864 146.68 101.384C146.253 100.903 146.013 100.25 146.013 99.5704C146.013 98.8904 146.253 98.2382 146.68 97.7573C147.107 97.2764 147.687 97.0063 148.291 97.0063H176.468C177.073 97.0063 177.652 97.2764 178.08 97.7573C178.507 98.2382 178.747 98.8904 178.747 99.5704C178.747 100.25 178.507 100.903 178.08 101.384C177.652 101.864 177.073 102.135 176.468 102.135Z" fill="#E6E6E6"></path>
                <path id="Vector_6" d="M168.61 195.298H150.19C149.082 195.298 148.019 194.803 147.236 193.921C146.453 193.04 146.013 191.844 146.013 190.597C146.013 189.35 146.453 188.155 147.236 187.273C148.019 186.391 149.082 185.896 150.19 185.896H168.61C169.717 185.896 170.78 186.391 171.563 187.273C172.347 188.155 172.787 189.35 172.787 190.597C172.787 191.844 172.347 193.04 171.563 193.921C170.78 194.803 169.717 195.298 168.61 195.298Z" fill="#CE111E"></path>
                <path id="Vector_7" d="M176.468 215.811H148.291C147.687 215.811 147.107 215.541 146.68 215.06C146.253 214.579 146.013 213.927 146.013 213.247C146.013 212.567 146.253 211.915 146.68 211.434C147.107 210.953 147.687 210.683 148.291 210.683H176.468C177.073 210.683 177.652 210.953 178.08 211.434C178.507 211.915 178.747 212.567 178.747 213.247C178.747 213.927 178.507 214.579 178.08 215.06C177.652 215.541 177.073 215.811 176.468 215.811Z" fill="#E6E6E6"></path>
                <path id="Vector_8" d="M168.61 247.863H150.19C149.082 247.863 148.019 247.367 147.236 246.486C146.453 245.604 146.013 244.409 146.013 243.162C146.013 241.915 146.453 240.719 147.236 239.838C148.019 238.956 149.082 238.461 150.19 238.461H168.61C169.717 238.461 170.78 238.956 171.563 239.838C172.347 240.719 172.787 241.915 172.787 243.162C172.787 244.409 172.347 245.604 171.563 246.486C170.78 247.367 169.717 247.863 168.61 247.863Z" fill="#CE111E"></path>
                <path id="Vector_9" d="M225 258.119H148.291C147.687 258.119 147.107 257.849 146.68 257.368C146.253 256.887 146.013 256.235 146.013 255.555C146.013 254.875 146.253 254.223 146.68 253.742C147.107 253.261 147.687 252.991 148.291 252.991H225C225.604 252.991 226.184 253.261 226.611 253.742C227.038 254.223 227.278 254.875 227.278 255.555C227.278 256.235 227.038 256.887 226.611 257.368C226.184 257.849 225.604 258.119 225 258.119Z" fill="#E6E6E6"></path>
                <path id="Vector_10" d="M176.468 268.376H148.291C147.687 268.376 147.107 268.106 146.68 267.625C146.253 267.144 146.013 266.492 146.013 265.812C146.013 265.132 146.253 264.479 146.68 263.998C147.107 263.518 147.687 263.247 148.291 263.247H176.468C177.073 263.247 177.652 263.518 178.08 263.998C178.507 264.479 178.747 265.132 178.747 265.812C178.747 266.492 178.507 267.144 178.08 267.625C177.652 268.106 177.073 268.376 176.468 268.376Z" fill="#E6E6E6"></path>
                <g id="not" data-svg-origin="86.01270294189453 116.45099639892578" transform="matrix(1,0,0,1,0,0)" style="transform-origin: 0px 0px;">
                  <path id="Vector_11" d="M235.823 168.588H89.2405C88.3847 168.587 87.5643 168.204 86.9592 167.523C86.354 166.842 86.0137 165.919 86.0127 164.956V120.083C86.0136 119.12 86.354 118.197 86.9591 117.516C87.5643 116.835 88.3847 116.452 89.2405 116.451H235.823C236.679 116.452 237.499 116.835 238.104 117.516C238.709 118.197 239.05 119.12 239.051 120.083V164.956C239.05 165.919 238.709 166.842 238.104 167.523C237.499 168.204 236.679 168.587 235.823 168.588Z" fill="#CE111E"></path>
                  <path id="Vector_12" d="M141.371 136.964H115.908C114.29 136.964 112.975 134.855 112.975 132.263C112.975 129.671 114.29 127.562 115.908 127.562H141.371C142.988 127.562 144.304 129.671 144.304 132.263C144.304 134.855 142.988 136.964 141.371 136.964Z" fill="white"></path>
                  <path id="Your order has been delivers!" d="M126.383 139.469L128.598 143.752L130.818 139.469H132.102L129.16 144.812V148H128.029V144.812L125.088 139.469H126.383ZM132.359 144.9V144.766C132.359 144.309 132.426 143.885 132.559 143.494C132.691 143.1 132.883 142.758 133.133 142.469C133.383 142.176 133.686 141.949 134.041 141.789C134.396 141.625 134.795 141.543 135.236 141.543C135.682 141.543 136.082 141.625 136.438 141.789C136.797 141.949 137.102 142.176 137.352 142.469C137.605 142.758 137.799 143.1 137.932 143.494C138.064 143.885 138.131 144.309 138.131 144.766V144.9C138.131 145.357 138.064 145.781 137.932 146.172C137.799 146.562 137.605 146.904 137.352 147.197C137.102 147.486 136.799 147.713 136.443 147.877C136.092 148.037 135.693 148.117 135.248 148.117C134.803 148.117 134.402 148.037 134.047 147.877C133.691 147.713 133.387 147.486 133.133 147.197C132.883 146.904 132.691 146.562 132.559 146.172C132.426 145.781 132.359 145.357 132.359 144.9ZM133.443 144.766V144.9C133.443 145.217 133.48 145.516 133.555 145.797C133.629 146.074 133.74 146.32 133.889 146.535C134.041 146.75 134.23 146.92 134.457 147.045C134.684 147.166 134.947 147.227 135.248 147.227C135.545 147.227 135.805 147.166 136.027 147.045C136.254 146.92 136.441 146.75 136.59 146.535C136.738 146.32 136.85 146.074 136.924 145.797C137.002 145.516 137.041 145.217 137.041 144.9V144.766C137.041 144.453 137.002 144.158 136.924 143.881C136.85 143.6 136.736 143.352 136.584 143.137C136.436 142.918 136.248 142.746 136.021 142.621C135.799 142.496 135.537 142.434 135.236 142.434C134.939 142.434 134.678 142.496 134.451 142.621C134.229 142.746 134.041 142.918 133.889 143.137C133.74 143.352 133.629 143.6 133.555 143.881C133.48 144.158 133.443 144.453 133.443 144.766ZM143.369 146.535V141.66H144.459V148H143.422L143.369 146.535ZM143.574 145.199L144.025 145.188C144.025 145.609 143.98 146 143.891 146.359C143.805 146.715 143.664 147.023 143.469 147.285C143.273 147.547 143.018 147.752 142.701 147.9C142.385 148.045 142 148.117 141.547 148.117C141.238 148.117 140.955 148.072 140.697 147.982C140.443 147.893 140.225 147.754 140.041 147.566C139.857 147.379 139.715 147.135 139.613 146.834C139.516 146.533 139.467 146.172 139.467 145.75V141.66H140.551V145.762C140.551 146.047 140.582 146.283 140.645 146.471C140.711 146.654 140.799 146.801 140.908 146.91C141.021 147.016 141.146 147.09 141.283 147.133C141.424 147.176 141.568 147.197 141.717 147.197C142.178 147.197 142.543 147.109 142.812 146.934C143.082 146.754 143.275 146.514 143.393 146.213C143.514 145.908 143.574 145.57 143.574 145.199ZM147.195 142.656V148H146.111V141.66H147.166L147.195 142.656ZM149.176 141.625L149.17 142.633C149.08 142.613 148.994 142.602 148.912 142.598C148.834 142.59 148.744 142.586 148.643 142.586C148.393 142.586 148.172 142.625 147.98 142.703C147.789 142.781 147.627 142.891 147.494 143.031C147.361 143.172 147.256 143.34 147.178 143.535C147.104 143.727 147.055 143.938 147.031 144.168L146.727 144.344C146.727 143.961 146.764 143.602 146.838 143.266C146.916 142.93 147.035 142.633 147.195 142.375C147.355 142.113 147.559 141.91 147.805 141.766C148.055 141.617 148.352 141.543 148.695 141.543C148.773 141.543 148.863 141.553 148.965 141.572C149.066 141.588 149.137 141.605 149.176 141.625ZM152.867 144.9V144.766C152.867 144.309 152.934 143.885 153.066 143.494C153.199 143.1 153.391 142.758 153.641 142.469C153.891 142.176 154.193 141.949 154.549 141.789C154.904 141.625 155.303 141.543 155.744 141.543C156.189 141.543 156.59 141.625 156.945 141.789C157.305 141.949 157.609 142.176 157.859 142.469C158.113 142.758 158.307 143.1 158.439 143.494C158.572 143.885 158.639 144.309 158.639 144.766V144.9C158.639 145.357 158.572 145.781 158.439 146.172C158.307 146.562 158.113 146.904 157.859 147.197C157.609 147.486 157.307 147.713 156.951 147.877C156.6 148.037 156.201 148.117 155.756 148.117C155.311 148.117 154.91 148.037 154.555 147.877C154.199 147.713 153.895 147.486 153.641 147.197C153.391 146.904 153.199 146.562 153.066 146.172C152.934 145.781 152.867 145.357 152.867 144.9ZM153.951 144.766V144.9C153.951 145.217 153.988 145.516 154.062 145.797C154.137 146.074 154.248 146.32 154.396 146.535C154.549 146.75 154.738 146.92 154.965 147.045C155.191 147.166 155.455 147.227 155.756 147.227C156.053 147.227 156.312 147.166 156.535 147.045C156.762 146.92 156.949 146.75 157.098 146.535C157.246 146.32 157.357 146.074 157.432 145.797C157.51 145.516 157.549 145.217 157.549 144.9V144.766C157.549 144.453 157.51 144.158 157.432 143.881C157.357 143.6 157.244 143.352 157.092 143.137C156.943 142.918 156.756 142.746 156.529 142.621C156.307 142.496 156.045 142.434 155.744 142.434C155.447 142.434 155.186 142.496 154.959 142.621C154.736 142.746 154.549 142.918 154.396 143.137C154.248 143.352 154.137 143.6 154.062 143.881C153.988 144.158 153.951 144.453 153.951 144.766ZM161.082 142.656V148H159.998V141.66H161.053L161.082 142.656ZM163.062 141.625L163.057 142.633C162.967 142.613 162.881 142.602 162.799 142.598C162.721 142.59 162.631 142.586 162.529 142.586C162.279 142.586 162.059 142.625 161.867 142.703C161.676 142.781 161.514 142.891 161.381 143.031C161.248 143.172 161.143 143.34 161.064 143.535C160.99 143.727 160.941 143.938 160.918 144.168L160.613 144.344C160.613 143.961 160.65 143.602 160.725 143.266C160.803 142.93 160.922 142.633 161.082 142.375C161.242 142.113 161.445 141.91 161.691 141.766C161.941 141.617 162.238 141.543 162.582 141.543C162.66 141.543 162.75 141.553 162.852 141.572C162.953 141.588 163.023 141.605 163.062 141.625ZM167.943 146.77V139H169.033V148H168.037L167.943 146.77ZM163.678 144.9V144.777C163.678 144.293 163.736 143.854 163.854 143.459C163.975 143.061 164.145 142.719 164.363 142.434C164.586 142.148 164.85 141.93 165.154 141.777C165.463 141.621 165.807 141.543 166.186 141.543C166.584 141.543 166.932 141.613 167.229 141.754C167.529 141.891 167.783 142.092 167.99 142.357C168.201 142.619 168.367 142.936 168.488 143.307C168.609 143.678 168.693 144.098 168.74 144.566V145.105C168.697 145.57 168.613 145.988 168.488 146.359C168.367 146.73 168.201 147.047 167.99 147.309C167.783 147.57 167.529 147.771 167.229 147.912C166.928 148.049 166.576 148.117 166.174 148.117C165.803 148.117 165.463 148.037 165.154 147.877C164.85 147.717 164.586 147.492 164.363 147.203C164.145 146.914 163.975 146.574 163.854 146.184C163.736 145.789 163.678 145.361 163.678 144.9ZM164.768 144.777V144.9C164.768 145.217 164.799 145.514 164.861 145.791C164.928 146.068 165.029 146.312 165.166 146.523C165.303 146.734 165.477 146.9 165.688 147.021C165.898 147.139 166.15 147.197 166.443 147.197C166.803 147.197 167.098 147.121 167.328 146.969C167.562 146.816 167.75 146.615 167.891 146.365C168.031 146.115 168.141 145.844 168.219 145.551V144.139C168.172 143.924 168.104 143.717 168.014 143.518C167.928 143.314 167.814 143.135 167.674 142.979C167.537 142.818 167.367 142.691 167.164 142.598C166.965 142.504 166.729 142.457 166.455 142.457C166.158 142.457 165.902 142.52 165.688 142.645C165.477 142.766 165.303 142.934 165.166 143.148C165.029 143.359 164.928 143.605 164.861 143.887C164.799 144.164 164.768 144.461 164.768 144.777ZM173.352 148.117C172.91 148.117 172.51 148.043 172.15 147.895C171.795 147.742 171.488 147.529 171.23 147.256C170.977 146.982 170.781 146.658 170.645 146.283C170.508 145.908 170.439 145.498 170.439 145.053V144.807C170.439 144.291 170.516 143.832 170.668 143.43C170.82 143.023 171.027 142.68 171.289 142.398C171.551 142.117 171.848 141.904 172.18 141.76C172.512 141.615 172.855 141.543 173.211 141.543C173.664 141.543 174.055 141.621 174.383 141.777C174.715 141.934 174.986 142.152 175.197 142.434C175.408 142.711 175.564 143.039 175.666 143.418C175.768 143.793 175.818 144.203 175.818 144.648V145.135H171.084V144.25H174.734V144.168C174.719 143.887 174.66 143.613 174.559 143.348C174.461 143.082 174.305 142.863 174.09 142.691C173.875 142.52 173.582 142.434 173.211 142.434C172.965 142.434 172.738 142.486 172.531 142.592C172.324 142.693 172.146 142.846 171.998 143.049C171.85 143.252 171.734 143.5 171.652 143.793C171.57 144.086 171.529 144.424 171.529 144.807V145.053C171.529 145.354 171.57 145.637 171.652 145.902C171.738 146.164 171.861 146.395 172.021 146.594C172.186 146.793 172.383 146.949 172.613 147.062C172.848 147.176 173.113 147.232 173.41 147.232C173.793 147.232 174.117 147.154 174.383 146.998C174.648 146.842 174.881 146.633 175.08 146.371L175.736 146.893C175.6 147.1 175.426 147.297 175.215 147.484C175.004 147.672 174.744 147.824 174.436 147.941C174.131 148.059 173.77 148.117 173.352 148.117ZM178.168 142.656V148H177.084V141.66H178.139L178.168 142.656ZM180.148 141.625L180.143 142.633C180.053 142.613 179.967 142.602 179.885 142.598C179.807 142.59 179.717 142.586 179.615 142.586C179.365 142.586 179.145 142.625 178.953 142.703C178.762 142.781 178.6 142.891 178.467 143.031C178.334 143.172 178.229 143.34 178.15 143.535C178.076 143.727 178.027 143.938 178.004 144.168L177.699 144.344C177.699 143.961 177.736 143.602 177.811 143.266C177.889 142.93 178.008 142.633 178.168 142.375C178.328 142.113 178.531 141.91 178.777 141.766C179.027 141.617 179.324 141.543 179.668 141.543C179.746 141.543 179.836 141.553 179.938 141.572C180.039 141.588 180.109 141.605 180.148 141.625ZM185.211 139V148H184.127V139H185.211ZM184.953 144.59L184.502 144.572C184.506 144.139 184.57 143.738 184.695 143.371C184.82 143 184.996 142.678 185.223 142.404C185.449 142.131 185.719 141.92 186.031 141.771C186.348 141.619 186.697 141.543 187.08 141.543C187.393 141.543 187.674 141.586 187.924 141.672C188.174 141.754 188.387 141.887 188.562 142.07C188.742 142.254 188.879 142.492 188.973 142.785C189.066 143.074 189.113 143.428 189.113 143.846V148H188.023V143.834C188.023 143.502 187.975 143.236 187.877 143.037C187.779 142.834 187.637 142.688 187.449 142.598C187.262 142.504 187.031 142.457 186.758 142.457C186.488 142.457 186.242 142.514 186.02 142.627C185.801 142.74 185.611 142.896 185.451 143.096C185.295 143.295 185.172 143.523 185.082 143.781C184.996 144.035 184.953 144.305 184.953 144.59ZM194.475 146.916V143.652C194.475 143.402 194.424 143.186 194.322 143.002C194.225 142.814 194.076 142.67 193.877 142.568C193.678 142.467 193.432 142.416 193.139 142.416C192.865 142.416 192.625 142.463 192.418 142.557C192.215 142.65 192.055 142.773 191.938 142.926C191.824 143.078 191.768 143.242 191.768 143.418H190.684C190.684 143.191 190.742 142.967 190.859 142.744C190.977 142.521 191.145 142.32 191.363 142.141C191.586 141.957 191.852 141.812 192.16 141.707C192.473 141.598 192.82 141.543 193.203 141.543C193.664 141.543 194.07 141.621 194.422 141.777C194.777 141.934 195.055 142.17 195.254 142.486C195.457 142.799 195.559 143.191 195.559 143.664V146.617C195.559 146.828 195.576 147.053 195.611 147.291C195.65 147.529 195.707 147.734 195.781 147.906V148H194.65C194.596 147.875 194.553 147.709 194.521 147.502C194.49 147.291 194.475 147.096 194.475 146.916ZM194.662 144.156L194.674 144.918H193.578C193.27 144.918 192.994 144.943 192.752 144.994C192.51 145.041 192.307 145.113 192.143 145.211C191.979 145.309 191.854 145.432 191.768 145.58C191.682 145.725 191.639 145.895 191.639 146.09C191.639 146.289 191.684 146.471 191.773 146.635C191.863 146.799 191.998 146.93 192.178 147.027C192.361 147.121 192.586 147.168 192.852 147.168C193.184 147.168 193.477 147.098 193.73 146.957C193.984 146.816 194.186 146.645 194.334 146.441C194.486 146.238 194.568 146.041 194.58 145.85L195.043 146.371C195.016 146.535 194.941 146.717 194.82 146.916C194.699 147.115 194.537 147.307 194.334 147.49C194.135 147.67 193.896 147.82 193.619 147.941C193.346 148.059 193.037 148.117 192.693 148.117C192.264 148.117 191.887 148.033 191.562 147.865C191.242 147.697 190.992 147.473 190.812 147.191C190.637 146.906 190.549 146.588 190.549 146.236C190.549 145.896 190.615 145.598 190.748 145.34C190.881 145.078 191.072 144.861 191.322 144.689C191.572 144.514 191.873 144.381 192.225 144.291C192.576 144.201 192.969 144.156 193.402 144.156H194.662ZM200.955 146.318C200.955 146.162 200.92 146.018 200.85 145.885C200.783 145.748 200.645 145.625 200.434 145.516C200.227 145.402 199.914 145.305 199.496 145.223C199.145 145.148 198.826 145.061 198.541 144.959C198.26 144.857 198.02 144.734 197.82 144.59C197.625 144.445 197.475 144.275 197.369 144.08C197.264 143.885 197.211 143.656 197.211 143.395C197.211 143.145 197.266 142.908 197.375 142.686C197.488 142.463 197.646 142.266 197.85 142.094C198.057 141.922 198.305 141.787 198.594 141.689C198.883 141.592 199.205 141.543 199.561 141.543C200.068 141.543 200.502 141.633 200.861 141.812C201.221 141.992 201.496 142.232 201.688 142.533C201.879 142.83 201.975 143.16 201.975 143.523H200.891C200.891 143.348 200.838 143.178 200.732 143.014C200.631 142.846 200.48 142.707 200.281 142.598C200.086 142.488 199.846 142.434 199.561 142.434C199.26 142.434 199.016 142.48 198.828 142.574C198.645 142.664 198.51 142.779 198.424 142.92C198.342 143.061 198.301 143.209 198.301 143.365C198.301 143.482 198.32 143.588 198.359 143.682C198.402 143.771 198.477 143.855 198.582 143.934C198.688 144.008 198.836 144.078 199.027 144.145C199.219 144.211 199.463 144.277 199.76 144.344C200.279 144.461 200.707 144.602 201.043 144.766C201.379 144.93 201.629 145.131 201.793 145.369C201.957 145.607 202.039 145.896 202.039 146.236C202.039 146.514 201.98 146.768 201.863 146.998C201.75 147.229 201.584 147.428 201.365 147.596C201.15 147.76 200.893 147.889 200.592 147.982C200.295 148.072 199.961 148.117 199.59 148.117C199.031 148.117 198.559 148.018 198.172 147.818C197.785 147.619 197.492 147.361 197.293 147.045C197.094 146.729 196.994 146.395 196.994 146.043H198.084C198.1 146.34 198.186 146.576 198.342 146.752C198.498 146.924 198.689 147.047 198.916 147.121C199.143 147.191 199.367 147.227 199.59 147.227C199.887 147.227 200.135 147.188 200.334 147.109C200.537 147.031 200.691 146.924 200.797 146.787C200.902 146.65 200.955 146.494 200.955 146.318ZM206.434 139H207.523V146.77L207.43 148H206.434V139ZM211.807 144.777V144.9C211.807 145.361 211.752 145.789 211.643 146.184C211.533 146.574 211.373 146.914 211.162 147.203C210.951 147.492 210.693 147.717 210.389 147.877C210.084 148.037 209.734 148.117 209.34 148.117C208.938 148.117 208.584 148.049 208.279 147.912C207.979 147.771 207.725 147.57 207.518 147.309C207.311 147.047 207.145 146.73 207.02 146.359C206.898 145.988 206.814 145.57 206.768 145.105V144.566C206.814 144.098 206.898 143.678 207.02 143.307C207.145 142.936 207.311 142.619 207.518 142.357C207.725 142.092 207.979 141.891 208.279 141.754C208.58 141.613 208.93 141.543 209.328 141.543C209.727 141.543 210.08 141.621 210.389 141.777C210.697 141.93 210.955 142.148 211.162 142.434C211.373 142.719 211.533 143.061 211.643 143.459C211.752 143.854 211.807 144.293 211.807 144.777ZM210.717 144.9V144.777C210.717 144.461 210.688 144.164 210.629 143.887C210.57 143.605 210.477 143.359 210.348 143.148C210.219 142.934 210.049 142.766 209.838 142.645C209.627 142.52 209.367 142.457 209.059 142.457C208.785 142.457 208.547 142.504 208.344 142.598C208.145 142.691 207.975 142.818 207.834 142.979C207.693 143.135 207.578 143.314 207.488 143.518C207.402 143.717 207.338 143.924 207.295 144.139V145.551C207.357 145.824 207.459 146.088 207.6 146.342C207.744 146.592 207.936 146.797 208.174 146.957C208.416 147.117 208.715 147.197 209.07 147.197C209.363 147.197 209.613 147.139 209.82 147.021C210.031 146.9 210.201 146.734 210.33 146.523C210.463 146.312 210.561 146.068 210.623 145.791C210.686 145.514 210.717 145.217 210.717 144.9ZM215.809 148.117C215.367 148.117 214.967 148.043 214.607 147.895C214.252 147.742 213.945 147.529 213.688 147.256C213.434 146.982 213.238 146.658 213.102 146.283C212.965 145.908 212.896 145.498 212.896 145.053V144.807C212.896 144.291 212.973 143.832 213.125 143.43C213.277 143.023 213.484 142.68 213.746 142.398C214.008 142.117 214.305 141.904 214.637 141.76C214.969 141.615 215.312 141.543 215.668 141.543C216.121 141.543 216.512 141.621 216.84 141.777C217.172 141.934 217.443 142.152 217.654 142.434C217.865 142.711 218.021 143.039 218.123 143.418C218.225 143.793 218.275 144.203 218.275 144.648V145.135H213.541V144.25H217.191V144.168C217.176 143.887 217.117 143.613 217.016 143.348C216.918 143.082 216.762 142.863 216.547 142.691C216.332 142.52 216.039 142.434 215.668 142.434C215.422 142.434 215.195 142.486 214.988 142.592C214.781 142.693 214.604 142.846 214.455 143.049C214.307 143.252 214.191 143.5 214.109 143.793C214.027 144.086 213.986 144.424 213.986 144.807V145.053C213.986 145.354 214.027 145.637 214.109 145.902C214.195 146.164 214.318 146.395 214.479 146.594C214.643 146.793 214.84 146.949 215.07 147.062C215.305 147.176 215.57 147.232 215.867 147.232C216.25 147.232 216.574 147.154 216.84 146.998C217.105 146.842 217.338 146.633 217.537 146.371L218.193 146.893C218.057 147.1 217.883 147.297 217.672 147.484C217.461 147.672 217.201 147.824 216.893 147.941C216.588 148.059 216.227 148.117 215.809 148.117ZM222.172 148.117C221.73 148.117 221.33 148.043 220.971 147.895C220.615 147.742 220.309 147.529 220.051 147.256C219.797 146.982 219.602 146.658 219.465 146.283C219.328 145.908 219.26 145.498 219.26 145.053V144.807C219.26 144.291 219.336 143.832 219.488 143.43C219.641 143.023 219.848 142.68 220.109 142.398C220.371 142.117 220.668 141.904 221 141.76C221.332 141.615 221.676 141.543 222.031 141.543C222.484 141.543 222.875 141.621 223.203 141.777C223.535 141.934 223.807 142.152 224.018 142.434C224.229 142.711 224.385 143.039 224.486 143.418C224.588 143.793 224.639 144.203 224.639 144.648V145.135H219.904V144.25H223.555V144.168C223.539 143.887 223.48 143.613 223.379 143.348C223.281 143.082 223.125 142.863 222.91 142.691C222.695 142.52 222.402 142.434 222.031 142.434C221.785 142.434 221.559 142.486 221.352 142.592C221.145 142.693 220.967 142.846 220.818 143.049C220.67 143.252 220.555 143.5 220.473 143.793C220.391 144.086 220.35 144.424 220.35 144.807V145.053C220.35 145.354 220.391 145.637 220.473 145.902C220.559 146.164 220.682 146.395 220.842 146.594C221.006 146.793 221.203 146.949 221.434 147.062C221.668 147.176 221.934 147.232 222.23 147.232C222.613 147.232 222.938 147.154 223.203 146.998C223.469 146.842 223.701 146.633 223.9 146.371L224.557 146.893C224.42 147.1 224.246 147.297 224.035 147.484C223.824 147.672 223.564 147.824 223.256 147.941C222.951 148.059 222.59 148.117 222.172 148.117ZM226.988 143.014V148H225.904V141.66H226.93L226.988 143.014ZM226.73 144.59L226.279 144.572C226.283 144.139 226.348 143.738 226.473 143.371C226.598 143 226.773 142.678 227 142.404C227.227 142.131 227.496 141.92 227.809 141.771C228.125 141.619 228.475 141.543 228.857 141.543C229.17 141.543 229.451 141.586 229.701 141.672C229.951 141.754 230.164 141.887 230.34 142.07C230.52 142.254 230.656 142.492 230.75 142.785C230.844 143.074 230.891 143.428 230.891 143.846V148H229.801V143.834C229.801 143.502 229.752 143.236 229.654 143.037C229.557 142.834 229.414 142.688 229.227 142.598C229.039 142.504 228.809 142.457 228.535 142.457C228.266 142.457 228.02 142.514 227.797 142.627C227.578 142.74 227.389 142.896 227.229 143.096C227.072 143.295 226.949 143.523 226.859 143.781C226.773 144.035 226.73 144.305 226.73 144.59ZM129.822 160.77V153H130.912V162H129.916L129.822 160.77ZM125.557 158.9V158.777C125.557 158.293 125.615 157.854 125.732 157.459C125.854 157.061 126.023 156.719 126.242 156.434C126.465 156.148 126.729 155.93 127.033 155.777C127.342 155.621 127.686 155.543 128.064 155.543C128.463 155.543 128.811 155.613 129.107 155.754C129.408 155.891 129.662 156.092 129.869 156.357C130.08 156.619 130.246 156.936 130.367 157.307C130.488 157.678 130.572 158.098 130.619 158.566V159.105C130.576 159.57 130.492 159.988 130.367 160.359C130.246 160.73 130.08 161.047 129.869 161.309C129.662 161.57 129.408 161.771 129.107 161.912C128.807 162.049 128.455 162.117 128.053 162.117C127.682 162.117 127.342 162.037 127.033 161.877C126.729 161.717 126.465 161.492 126.242 161.203C126.023 160.914 125.854 160.574 125.732 160.184C125.615 159.789 125.557 159.361 125.557 158.9ZM126.646 158.777V158.9C126.646 159.217 126.678 159.514 126.74 159.791C126.807 160.068 126.908 160.312 127.045 160.523C127.182 160.734 127.355 160.9 127.566 161.021C127.777 161.139 128.029 161.197 128.322 161.197C128.682 161.197 128.977 161.121 129.207 160.969C129.441 160.816 129.629 160.615 129.77 160.365C129.91 160.115 130.02 159.844 130.098 159.551V158.139C130.051 157.924 129.982 157.717 129.893 157.518C129.807 157.314 129.693 157.135 129.553 156.979C129.416 156.818 129.246 156.691 129.043 156.598C128.844 156.504 128.607 156.457 128.334 156.457C128.037 156.457 127.781 156.52 127.566 156.645C127.355 156.766 127.182 156.934 127.045 157.148C126.908 157.359 126.807 157.605 126.74 157.887C126.678 158.164 126.646 158.461 126.646 158.777ZM135.23 162.117C134.789 162.117 134.389 162.043 134.029 161.895C133.674 161.742 133.367 161.529 133.109 161.256C132.855 160.982 132.66 160.658 132.523 160.283C132.387 159.908 132.318 159.498 132.318 159.053V158.807C132.318 158.291 132.395 157.832 132.547 157.43C132.699 157.023 132.906 156.68 133.168 156.398C133.43 156.117 133.727 155.904 134.059 155.76C134.391 155.615 134.734 155.543 135.09 155.543C135.543 155.543 135.934 155.621 136.262 155.777C136.594 155.934 136.865 156.152 137.076 156.434C137.287 156.711 137.443 157.039 137.545 157.418C137.646 157.793 137.697 158.203 137.697 158.648V159.135H132.963V158.25H136.613V158.168C136.598 157.887 136.539 157.613 136.438 157.348C136.34 157.082 136.184 156.863 135.969 156.691C135.754 156.52 135.461 156.434 135.09 156.434C134.844 156.434 134.617 156.486 134.41 156.592C134.203 156.693 134.025 156.846 133.877 157.049C133.729 157.252 133.613 157.5 133.531 157.793C133.449 158.086 133.408 158.424 133.408 158.807V159.053C133.408 159.354 133.449 159.637 133.531 159.902C133.617 160.164 133.74 160.395 133.9 160.594C134.064 160.793 134.262 160.949 134.492 161.062C134.727 161.176 134.992 161.232 135.289 161.232C135.672 161.232 135.996 161.154 136.262 160.998C136.527 160.842 136.76 160.633 136.959 160.371L137.615 160.893C137.479 161.1 137.305 161.297 137.094 161.484C136.883 161.672 136.623 161.824 136.314 161.941C136.01 162.059 135.648 162.117 135.23 162.117ZM140.141 153V162H139.051V153H140.141ZM143.059 155.66V162H141.969V155.66H143.059ZM141.887 153.979C141.887 153.803 141.939 153.654 142.045 153.533C142.154 153.412 142.314 153.352 142.525 153.352C142.732 153.352 142.891 153.412 143 153.533C143.113 153.654 143.17 153.803 143.17 153.979C143.17 154.146 143.113 154.291 143 154.412C142.891 154.529 142.732 154.588 142.525 154.588C142.314 154.588 142.154 154.529 142.045 154.412C141.939 154.291 141.887 154.146 141.887 153.979ZM146.727 161.021L148.461 155.66H149.568L147.289 162H146.562L146.727 161.021ZM145.279 155.66L147.066 161.051L147.189 162H146.463L144.166 155.66H145.279ZM153.16 162.117C152.719 162.117 152.318 162.043 151.959 161.895C151.604 161.742 151.297 161.529 151.039 161.256C150.785 160.982 150.59 160.658 150.453 160.283C150.316 159.908 150.248 159.498 150.248 159.053V158.807C150.248 158.291 150.324 157.832 150.477 157.43C150.629 157.023 150.836 156.68 151.098 156.398C151.359 156.117 151.656 155.904 151.988 155.76C152.32 155.615 152.664 155.543 153.02 155.543C153.473 155.543 153.863 155.621 154.191 155.777C154.523 155.934 154.795 156.152 155.006 156.434C155.217 156.711 155.373 157.039 155.475 157.418C155.576 157.793 155.627 158.203 155.627 158.648V159.135H150.893V158.25H154.543V158.168C154.527 157.887 154.469 157.613 154.367 157.348C154.27 157.082 154.113 156.863 153.898 156.691C153.684 156.52 153.391 156.434 153.02 156.434C152.773 156.434 152.547 156.486 152.34 156.592C152.133 156.693 151.955 156.846 151.807 157.049C151.658 157.252 151.543 157.5 151.461 157.793C151.379 158.086 151.338 158.424 151.338 158.807V159.053C151.338 159.354 151.379 159.637 151.461 159.902C151.547 160.164 151.67 160.395 151.83 160.594C151.994 160.793 152.191 160.949 152.422 161.062C152.656 161.176 152.922 161.232 153.219 161.232C153.602 161.232 153.926 161.154 154.191 160.998C154.457 160.842 154.689 160.633 154.889 160.371L155.545 160.893C155.408 161.1 155.234 161.297 155.023 161.484C154.812 161.672 154.553 161.824 154.244 161.941C153.939 162.059 153.578 162.117 153.16 162.117ZM157.977 156.656V162H156.893V155.66H157.947L157.977 156.656ZM159.957 155.625L159.951 156.633C159.861 156.613 159.775 156.602 159.693 156.598C159.615 156.59 159.525 156.586 159.424 156.586C159.174 156.586 158.953 156.625 158.762 156.703C158.57 156.781 158.408 156.891 158.275 157.031C158.143 157.172 158.037 157.34 157.959 157.535C157.885 157.727 157.836 157.938 157.812 158.168L157.508 158.344C157.508 157.961 157.545 157.602 157.619 157.266C157.697 156.93 157.816 156.633 157.977 156.375C158.137 156.113 158.34 155.91 158.586 155.766C158.836 155.617 159.133 155.543 159.477 155.543C159.555 155.543 159.645 155.553 159.746 155.572C159.848 155.588 159.918 155.605 159.957 155.625ZM164.65 160.318C164.65 160.162 164.615 160.018 164.545 159.885C164.479 159.748 164.34 159.625 164.129 159.516C163.922 159.402 163.609 159.305 163.191 159.223C162.84 159.148 162.521 159.061 162.236 158.959C161.955 158.857 161.715 158.734 161.516 158.59C161.32 158.445 161.17 158.275 161.064 158.08C160.959 157.885 160.906 157.656 160.906 157.395C160.906 157.145 160.961 156.908 161.07 156.686C161.184 156.463 161.342 156.266 161.545 156.094C161.752 155.922 162 155.787 162.289 155.689C162.578 155.592 162.9 155.543 163.256 155.543C163.764 155.543 164.197 155.633 164.557 155.812C164.916 155.992 165.191 156.232 165.383 156.533C165.574 156.83 165.67 157.16 165.67 157.523H164.586C164.586 157.348 164.533 157.178 164.428 157.014C164.326 156.846 164.176 156.707 163.977 156.598C163.781 156.488 163.541 156.434 163.256 156.434C162.955 156.434 162.711 156.48 162.523 156.574C162.34 156.664 162.205 156.779 162.119 156.92C162.037 157.061 161.996 157.209 161.996 157.365C161.996 157.482 162.016 157.588 162.055 157.682C162.098 157.771 162.172 157.855 162.277 157.934C162.383 158.008 162.531 158.078 162.723 158.145C162.914 158.211 163.158 158.277 163.455 158.344C163.975 158.461 164.402 158.602 164.738 158.766C165.074 158.93 165.324 159.131 165.488 159.369C165.652 159.607 165.734 159.896 165.734 160.236C165.734 160.514 165.676 160.768 165.559 160.998C165.445 161.229 165.279 161.428 165.061 161.596C164.846 161.76 164.588 161.889 164.287 161.982C163.99 162.072 163.656 162.117 163.285 162.117C162.727 162.117 162.254 162.018 161.867 161.818C161.48 161.619 161.188 161.361 160.988 161.045C160.789 160.729 160.689 160.395 160.689 160.043H161.779C161.795 160.34 161.881 160.576 162.037 160.752C162.193 160.924 162.385 161.047 162.611 161.121C162.838 161.191 163.062 161.227 163.285 161.227C163.582 161.227 163.83 161.188 164.029 161.109C164.232 161.031 164.387 160.924 164.492 160.787C164.598 160.65 164.65 160.494 164.65 160.318ZM168.447 153.469L168.371 159.592H167.393L167.311 153.469H168.447ZM167.275 161.455C167.275 161.279 167.328 161.131 167.434 161.01C167.543 160.889 167.703 160.828 167.914 160.828C168.121 160.828 168.279 160.889 168.389 161.01C168.502 161.131 168.559 161.279 168.559 161.455C168.559 161.623 168.502 161.768 168.389 161.889C168.279 162.01 168.121 162.07 167.914 162.07C167.703 162.07 167.543 162.01 167.434 161.889C167.328 161.768 167.275 161.623 167.275 161.455Z" fill="white"></path>
                </g>
                <path id="Code:1234" d="M151.899 207.035H153.024C152.965 207.574 152.811 208.056 152.561 208.482C152.311 208.908 151.958 209.246 151.501 209.496C151.044 209.742 150.473 209.865 149.79 209.865C149.29 209.865 148.835 209.771 148.424 209.584C148.018 209.396 147.669 209.13 147.376 208.787C147.083 208.439 146.856 208.023 146.696 207.539C146.54 207.05 146.461 206.507 146.461 205.91V205.06C146.461 204.462 146.54 203.921 146.696 203.437C146.856 202.949 147.085 202.531 147.381 202.183C147.682 201.836 148.044 201.568 148.465 201.38C148.887 201.193 149.362 201.099 149.889 201.099C150.534 201.099 151.079 201.22 151.524 201.462C151.969 201.705 152.315 202.041 152.561 202.47C152.811 202.896 152.965 203.39 153.024 203.953H151.899C151.844 203.554 151.743 203.212 151.594 202.927C151.446 202.638 151.235 202.416 150.961 202.259C150.688 202.103 150.331 202.025 149.889 202.025C149.51 202.025 149.176 202.097 148.887 202.242C148.602 202.386 148.362 202.591 148.167 202.857C147.975 203.123 147.831 203.441 147.733 203.812C147.635 204.183 147.586 204.595 147.586 205.048V205.91C147.586 206.328 147.629 206.72 147.715 207.087C147.805 207.455 147.94 207.777 148.12 208.054C148.299 208.332 148.528 208.55 148.805 208.711C149.083 208.867 149.411 208.945 149.79 208.945C150.27 208.945 150.653 208.869 150.938 208.716C151.223 208.564 151.438 208.345 151.583 208.06C151.731 207.775 151.836 207.433 151.899 207.035ZM154.114 206.648V206.513C154.114 206.056 154.18 205.632 154.313 205.242C154.446 204.847 154.637 204.505 154.887 204.216C155.137 203.923 155.44 203.697 155.795 203.537C156.151 203.373 156.549 203.291 156.991 203.291C157.436 203.291 157.836 203.373 158.192 203.537C158.551 203.697 158.856 203.923 159.106 204.216C159.36 204.505 159.553 204.847 159.686 205.242C159.819 205.632 159.885 206.056 159.885 206.513V206.648C159.885 207.105 159.819 207.529 159.686 207.919C159.553 208.31 159.36 208.652 159.106 208.945C158.856 209.234 158.553 209.461 158.198 209.625C157.846 209.785 157.448 209.865 157.003 209.865C156.557 209.865 156.157 209.785 155.801 209.625C155.446 209.461 155.141 209.234 154.887 208.945C154.637 208.652 154.446 208.31 154.313 207.919C154.18 207.529 154.114 207.105 154.114 206.648ZM155.198 206.513V206.648C155.198 206.964 155.235 207.263 155.309 207.544C155.383 207.822 155.495 208.068 155.643 208.283C155.795 208.498 155.985 208.668 156.211 208.793C156.438 208.914 156.702 208.974 157.003 208.974C157.299 208.974 157.559 208.914 157.782 208.793C158.008 208.668 158.196 208.498 158.344 208.283C158.493 208.068 158.604 207.822 158.678 207.544C158.756 207.263 158.795 206.964 158.795 206.648V206.513C158.795 206.201 158.756 205.906 158.678 205.628C158.604 205.347 158.491 205.099 158.338 204.884C158.19 204.666 158.003 204.494 157.776 204.369C157.553 204.244 157.292 204.181 156.991 204.181C156.694 204.181 156.432 204.244 156.206 204.369C155.983 204.494 155.795 204.666 155.643 204.884C155.495 205.099 155.383 205.347 155.309 205.628C155.235 205.906 155.198 206.201 155.198 206.513ZM165.241 208.517V200.748H166.331V209.748H165.335L165.241 208.517ZM160.975 206.648V206.525C160.975 206.041 161.034 205.601 161.151 205.207C161.272 204.808 161.442 204.466 161.661 204.181C161.883 203.896 162.147 203.677 162.452 203.525C162.76 203.369 163.104 203.291 163.483 203.291C163.881 203.291 164.229 203.361 164.526 203.502C164.827 203.638 165.081 203.839 165.288 204.105C165.499 204.367 165.665 204.683 165.786 205.054C165.907 205.425 165.991 205.845 166.038 206.314V206.853C165.995 207.318 165.911 207.736 165.786 208.107C165.665 208.478 165.499 208.794 165.288 209.056C165.081 209.318 164.827 209.519 164.526 209.66C164.225 209.796 163.874 209.865 163.471 209.865C163.1 209.865 162.76 209.785 162.452 209.625C162.147 209.464 161.883 209.24 161.661 208.951C161.442 208.662 161.272 208.322 161.151 207.931C161.034 207.537 160.975 207.109 160.975 206.648ZM162.065 206.525V206.648C162.065 206.964 162.096 207.261 162.159 207.539C162.225 207.816 162.327 208.06 162.463 208.271C162.6 208.482 162.774 208.648 162.985 208.769C163.196 208.886 163.448 208.945 163.741 208.945C164.1 208.945 164.395 208.869 164.626 208.716C164.86 208.564 165.047 208.363 165.188 208.113C165.329 207.863 165.438 207.591 165.516 207.298V205.886C165.469 205.671 165.401 205.464 165.311 205.265C165.225 205.062 165.112 204.882 164.971 204.726C164.835 204.566 164.665 204.439 164.461 204.345C164.262 204.252 164.026 204.205 163.753 204.205C163.456 204.205 163.2 204.267 162.985 204.392C162.774 204.513 162.6 204.681 162.463 204.896C162.327 205.107 162.225 205.353 162.159 205.634C162.096 205.912 162.065 206.209 162.065 206.525ZM170.649 209.865C170.208 209.865 169.807 209.791 169.448 209.642C169.092 209.49 168.786 209.277 168.528 209.003C168.274 208.73 168.079 208.406 167.942 208.031C167.805 207.656 167.737 207.246 167.737 206.8V206.554C167.737 206.039 167.813 205.58 167.965 205.177C168.118 204.771 168.325 204.427 168.586 204.146C168.848 203.865 169.145 203.652 169.477 203.507C169.809 203.363 170.153 203.291 170.508 203.291C170.961 203.291 171.352 203.369 171.68 203.525C172.012 203.681 172.284 203.9 172.495 204.181C172.706 204.459 172.862 204.787 172.963 205.166C173.065 205.541 173.116 205.951 173.116 206.396V206.882H168.381V205.998H172.032V205.916C172.016 205.634 171.958 205.361 171.856 205.095C171.758 204.83 171.602 204.611 171.387 204.439C171.172 204.267 170.879 204.181 170.508 204.181C170.262 204.181 170.036 204.234 169.829 204.339C169.622 204.441 169.444 204.593 169.295 204.796C169.147 205 169.032 205.248 168.95 205.541C168.868 205.834 168.827 206.171 168.827 206.554V206.8C168.827 207.101 168.868 207.384 168.95 207.65C169.036 207.912 169.159 208.142 169.319 208.341C169.483 208.541 169.68 208.697 169.911 208.81C170.145 208.923 170.411 208.98 170.708 208.98C171.09 208.98 171.415 208.902 171.68 208.746C171.946 208.589 172.178 208.38 172.378 208.119L173.034 208.64C172.897 208.847 172.723 209.044 172.512 209.232C172.301 209.419 172.042 209.572 171.733 209.689C171.428 209.806 171.067 209.865 170.649 209.865ZM174.335 209.173C174.335 208.99 174.391 208.836 174.504 208.711C174.622 208.582 174.79 208.517 175.008 208.517C175.227 208.517 175.393 208.582 175.506 208.711C175.624 208.836 175.682 208.99 175.682 209.173C175.682 209.353 175.624 209.505 175.506 209.63C175.393 209.755 175.227 209.818 175.008 209.818C174.79 209.818 174.622 209.755 174.504 209.63C174.391 209.505 174.335 209.353 174.335 209.173ZM174.34 204C174.34 203.816 174.397 203.662 174.51 203.537C174.628 203.408 174.795 203.343 175.014 203.343C175.233 203.343 175.399 203.408 175.512 203.537C175.629 203.662 175.688 203.816 175.688 204C175.688 204.179 175.629 204.332 175.512 204.457C175.399 204.582 175.233 204.644 175.014 204.644C174.795 204.644 174.628 204.582 174.51 204.457C174.397 204.332 174.34 204.179 174.34 204ZM180.733 201.169V209.748H179.649V202.523L177.463 203.32V202.341L180.563 201.169H180.733ZM152.057 222.857V223.748H146.473V222.968L149.268 219.857C149.612 219.474 149.878 219.15 150.065 218.884C150.256 218.615 150.389 218.375 150.463 218.164C150.542 217.949 150.581 217.73 150.581 217.507C150.581 217.226 150.522 216.972 150.405 216.746C150.292 216.515 150.124 216.332 149.901 216.195C149.678 216.058 149.409 215.99 149.092 215.99C148.713 215.99 148.397 216.064 148.143 216.212C147.893 216.357 147.706 216.56 147.581 216.822C147.456 217.084 147.393 217.384 147.393 217.724H146.309C146.309 217.244 146.415 216.804 146.626 216.406C146.836 216.007 147.149 215.691 147.563 215.457C147.977 215.218 148.487 215.099 149.092 215.099C149.631 215.099 150.092 215.195 150.475 215.386C150.858 215.574 151.151 215.839 151.354 216.183C151.561 216.523 151.665 216.921 151.665 217.378C151.665 217.628 151.622 217.882 151.536 218.14C151.454 218.394 151.338 218.648 151.19 218.902C151.045 219.156 150.876 219.406 150.68 219.652C150.489 219.898 150.284 220.14 150.065 220.378L147.78 222.857H152.057ZM154.799 218.949H155.573C155.952 218.949 156.264 218.886 156.51 218.761C156.76 218.632 156.946 218.459 157.067 218.24C157.192 218.017 157.254 217.767 157.254 217.49C157.254 217.162 157.2 216.886 157.09 216.664C156.981 216.441 156.817 216.273 156.598 216.16C156.379 216.046 156.102 215.99 155.766 215.99C155.461 215.99 155.192 216.05 154.958 216.171C154.727 216.289 154.545 216.457 154.413 216.675C154.284 216.894 154.219 217.152 154.219 217.449H153.135C153.135 217.015 153.245 216.621 153.463 216.265C153.682 215.91 153.989 215.627 154.383 215.416C154.782 215.205 155.243 215.099 155.766 215.099C156.282 215.099 156.733 215.191 157.12 215.375C157.506 215.554 157.807 215.824 158.022 216.183C158.237 216.539 158.344 216.982 158.344 217.513C158.344 217.728 158.294 217.959 158.192 218.205C158.094 218.447 157.94 218.673 157.729 218.884C157.522 219.095 157.253 219.269 156.92 219.406C156.588 219.539 156.19 219.605 155.725 219.605H154.799V218.949ZM154.799 219.839V219.189H155.725C156.268 219.189 156.717 219.253 157.073 219.382C157.428 219.511 157.708 219.683 157.911 219.898C158.118 220.113 158.262 220.349 158.344 220.607C158.43 220.861 158.473 221.115 158.473 221.369C158.473 221.767 158.405 222.121 158.268 222.429C158.135 222.738 157.946 223 157.7 223.214C157.458 223.429 157.172 223.591 156.844 223.701C156.516 223.81 156.159 223.865 155.772 223.865C155.401 223.865 155.051 223.812 154.723 223.707C154.399 223.601 154.112 223.449 153.862 223.25C153.612 223.046 153.417 222.798 153.276 222.505C153.135 222.209 153.065 221.871 153.065 221.492H154.149C154.149 221.789 154.213 222.048 154.342 222.271C154.475 222.494 154.663 222.668 154.905 222.793C155.151 222.914 155.44 222.974 155.772 222.974C156.104 222.974 156.389 222.918 156.628 222.804C156.87 222.687 157.055 222.511 157.184 222.277C157.317 222.043 157.383 221.748 157.383 221.392C157.383 221.037 157.309 220.746 157.161 220.519C157.012 220.289 156.801 220.119 156.528 220.009C156.258 219.896 155.94 219.839 155.573 219.839H154.799ZM165.733 220.877V221.767H159.569V221.128L163.389 215.216H164.274L163.325 216.927L160.799 220.877H165.733ZM164.544 215.216V223.748H163.46V215.216H164.544Z" fill="black"></path>
              </g>
            </g>
            <defs>
              <clipPath id="clip0_9_945">
                <rect width="300" height="300" fill="white"></rect>
              </clipPath>
            </defs>
          </svg>