<svg width="300" height="300" viewBox="0 0 300 300" fill="none" xmlns="http://www.w3.org/2000/svg">
            <g id="Group 39">
              <g id="Group 43">
                <g id="Group 42">
                  <g id="Group 32">
                    <path id="Vector" opacity="0.45" d="M54.5757 300C84.7171 300 109.151 294.941 109.151 288.701C109.151 282.46 84.7171 277.401 54.5757 277.401C24.4344 277.401 0 282.46 0 288.701C0 294.941 24.4344 300 54.5757 300Z" fill="#E6E6E6"></path>
                  </g>
                  <g id="Group">
                    <path id="Vector_2" d="M93.8435 138.833L300 225.36L242.203 250.678L34.9417 164.151L93.8435 138.833Z" fill="#6D6E71"></path>
                    <path id="Vector_3" d="M292.638 225.638V241.218L238.153 265.424V225.638H292.638Z" fill="#424143"></path>
                    <path id="Vector_4" d="M42.3044 166.933V182.514L238.153 265.424V232.037L42.3044 166.933Z" fill="#59595C"></path>
                    <g id="Group_2">
                      <path id="Vector_5" d="M86.1125 61.2088L242.571 126.591V250.4L85.7444 184.461L86.1125 61.2088Z" fill="white"></path>
                      <path id="Vector_6" d="M85.7444 155.526L124.031 171.663V200.598L126.239 201.433V172.498L163.053 188.078V217.013L165.262 217.848V188.913L202.076 204.493V233.706L204.284 234.819V205.328L246.252 222.856L247.356 221.465L204.284 203.38V148.292L246.62 166.098L247.725 164.707L204.284 146.623V109.619H202.076V145.51L165.262 129.93V94.3172L163.053 92.3697V129.095L126.239 113.515V77.3457L124.031 76.2328V112.68L85.7444 96.543V98.4905L124.031 114.349V169.715L85.7444 153.578V155.526ZM202.444 173.889L165.63 158.03V145.788L202.444 161.647V173.889ZM126.239 129.095L163.053 144.954V157.195L126.239 141.337V129.095ZM202.444 188.078L165.63 172.219V159.699L202.444 175.558V188.078ZM163.053 171.385L126.239 155.526V143.006L163.053 158.865V171.385ZM163.053 131.042V143.006L126.239 127.147V115.462L163.053 131.042ZM202.444 147.458V159.699L165.63 143.841V131.877L202.444 147.458ZM165.262 186.965V174.167L202.076 190.026V202.546L165.262 186.965ZM126.239 170.55V157.474L163.053 173.332V186.13L126.239 170.55Z" fill="#BCBDBF"></path>
                      <g id="Vector_7" filter="url(#filter0_bd_101_284)">
                        <path d="M234.84 169.715V194.755L212.015 185.018V159.978L234.84 169.715Z" fill="#333333"></path>
                      </g>
                      <g id="Group_3">
                        <path id="Vector_8" d="M126.239 113.515V77.6239L165.262 93.4825V101.551L131.393 115.74L126.239 113.515Z" fill="#59595C"></path>
                        <path id="Vector_9" d="M131.393 115.74L165.262 101.551V130.486L131.393 115.74Z" fill="#808184"></path>
                      </g>
                      <g id="Group_4">
                        <path id="Vector_10" d="M131.761 79.015L124.767 76.511L87.9531 91.535V131.321L94.5796 133.825L131.761 79.015Z" fill="#D3D5D5"></path>
                        <path id="Vector_11" d="M131.761 79.015L94.5796 94.3172V133.825L131.761 117.131V79.015Z" fill="#A4A5A6"></path>
                      </g>
                      <path id="Vector_12" d="M165.262 129.095L198.394 131.599V93.7608L165.262 91.2568V129.095Z" fill="white"></path>
                    </g>
                    <path id="Vector_13" d="M93.8435 16.4151L300 102.664L242.203 127.982L34.9417 41.4551L93.8435 16.4151Z" fill="#6D6E71"></path>
                    <path id="Vector_14" d="M93.8435 0L300 86.527L242.203 111.845L34.9417 25.04L93.8435 0Z" fill="#6D6E71"></path>
                    <path id="Vector_15" d="M300 86.527V102.664L242.203 127.982V111.845L300 86.527Z" fill="#424143"></path>
                    <path id="Vector_16" d="M300 102.664L242.203 127.982L242.571 250.4L300 226.194V102.664Z" fill="#BBBDBF"></path>
                    <path id="Vector_17" d="M34.9417 163.873L85.7445 184.183V60.3742L34.9417 40.0639V163.873Z" fill="#CE111E"></path>
                    <path id="Vector_18" d="M34.9417 25.04V41.4551L242.203 127.982V111.845L34.9417 25.04Z" fill="#59595C"></path>
                  </g>
                  <g id="Group 35">
                    <path id="Vector_19" d="M52.0819 161.983C52.2161 161.814 52.2874 161.619 52.2874 161.419C52.2943 160.427 52.0453 159.443 51.5562 158.531C51.067 157.619 50.3481 156.797 49.4446 156.118C49.0916 155.862 48.6694 155.673 48.2109 155.569C47.7525 155.464 47.27 155.445 46.8011 155.514C46.3322 155.583 45.8895 155.738 45.5074 155.967C45.1254 156.196 44.8142 156.492 44.5982 156.833C42.6116 160.074 47.1327 163.328 50.7461 163.699C51.7394 163.809 52.1504 163.122 51.9963 162.491C52.0744 162.329 52.1037 162.155 52.0819 161.983V161.983Z" fill="#FBB5AD"></path>
                    <path id="Vector_20" d="M48.6541 216.325L41.3877 213.136L47.4373 226.178L48.6541 216.325Z" fill="#382624"></path>
                    <path id="Vector_21" d="M117.002 141.142C116.951 141.042 116.885 140.947 116.807 140.858C117.113 140.638 117.35 140.368 117.5 140.068C117.651 139.768 117.711 139.447 117.676 139.127C117.645 138.922 117.561 138.724 117.427 138.545C117.292 138.366 117.112 138.21 116.896 138.086C117.093 137.911 117.214 137.693 117.242 137.464C117.27 137.234 117.203 137.003 117.051 136.804C116.899 136.604 116.669 136.446 116.393 136.351C116.117 136.256 115.81 136.229 115.513 136.274C113.403 136.598 111.967 138.708 110.868 139.965C110.035 140.899 109.237 141.845 108.51 142.819C108.386 141.467 108.12 140.02 107.978 138.762C107.836 137.504 105.177 137.41 105.177 138.762C105.333 140.861 105.052 142.965 104.344 144.996C104.065 145.101 103.813 145.243 103.599 145.415C95.7313 151.72 85.8723 156.376 74.9673 158.939C74.4223 159.078 73.9524 159.351 73.63 159.714C73.3076 160.077 73.1504 160.511 73.1826 160.948C73.2148 161.386 73.4347 161.804 73.8084 162.137C74.182 162.471 74.6889 162.701 75.2509 162.793C75.2792 163.188 75.4638 163.568 75.7802 163.882C76.0966 164.195 76.5302 164.429 77.0238 164.551C77.104 164.859 77.2686 165.151 77.5069 165.408C77.7452 165.664 78.0518 165.879 78.4066 166.039L76.6338 166.647C73.6376 167.607 74.9495 171.38 77.9989 170.42C89.4282 166.79 99.467 161.012 107.18 153.624C108.067 152.975 108.953 152.272 109.804 151.663C111.152 150.622 117.658 145.632 116.045 143.549C116.701 142.657 117.481 142.102 117.002 141.142Z" fill="#FBB5AD"></path>
                    <path id="Vector_22" d="M72.2701 122.426C72.1089 122.337 71.929 122.269 71.738 122.225L71.5251 122.092C70.3368 121.398 68.4744 122.292 67.4102 122.746C66.0236 123.298 64.716 123.955 63.5081 124.708C62.9583 125.271 62.5661 125.911 62.3552 126.591C61.9118 127.418 61.4329 128.233 60.9362 129.034C59.8874 130.707 58.7027 132.33 57.3889 133.893C54.7967 136.947 51.7368 139.76 48.2721 142.276C46.6581 143.451 49.1235 145.28 50.7375 144.119L51.8905 143.251C52.133 143.37 52.4165 143.434 52.7063 143.434C52.9962 143.434 53.2797 143.37 53.5222 143.251C53.8045 143.107 54.0713 142.946 54.3204 142.77L54.6219 142.517C54.7353 142.709 54.9075 142.878 55.1243 143.011C55.3412 143.144 55.5966 143.236 55.8698 143.28C56.143 143.324 56.4262 143.319 56.6963 143.266C56.9665 143.212 57.2159 143.111 57.4243 142.971L58.6127 142.05C58.9878 141.945 59.2935 141.734 59.4641 141.462C59.4641 141.462 59.6414 143.251 59.6947 143.184C61.5925 141.676 63.8273 137.524 65.7074 135.054C65.6984 134.936 65.7421 134.818 65.8316 134.721C67.3038 132.945 67.1087 131.877 67.286 129.848C67.2798 128.675 67.4163 127.504 67.694 126.35L70.7802 124.548C71.5251 124.121 72.3233 123.48 72.1814 122.839C72.2397 122.706 72.2696 122.566 72.2701 122.426Z" fill="#FBB5AD"></path>
                    <path id="Vector_23" d="M83.6874 155.02C72.744 157.434 70.8877 156.506 65.69 156.347C60.4924 156.188 55.0825 150.776 55.0825 150.776C55.0825 150.776 53.7743 138.614 44.1214 148.124C36.9083 155.233 34.1504 175.817 33.2134 185.791C36.7492 187.926 41.5756 188.735 46.0661 189.239C49.0287 189.608 52.0265 189.794 55.0295 189.796C56.8587 189.78 58.664 189.482 60.3333 188.921L65.4602 171.069C73.7049 171.405 81.861 169.653 88.6199 166.095L83.6874 155.02Z" fill="#68E1FD"></path>
                    <path id="Vector_24" d="M60.0008 140.414C60.0008 140.414 67.1104 150.425 60.0897 153.22C53.0689 156.015 47.6478 151.37 47.0257 150.163C46.4036 148.956 46.5636 139.666 60.0008 140.414Z" fill="#FBB5AD"></path>
                    <path id="Vector_25" d="M61.1635 138.757C59.3649 137.871 57.3335 137.291 55.2095 137.057C53.0854 136.822 50.9193 136.939 48.8605 137.398C45.2533 137.895 41.9334 139.213 39.3455 141.175C38.4283 140.705 37.3587 140.432 36.2518 140.387C34.9175 140.312 33.5861 140.558 32.4487 141.09C31.3112 141.622 30.4261 142.413 29.9205 143.349C29.4882 144.224 29.4667 145.184 29.8596 146.069C30.2525 146.955 31.0359 147.711 32.0789 148.213C33.692 148.85 35.5723 148.982 37.313 148.58V148.824C37.5468 150.781 35.1007 151.773 34.1474 153.43C33.6765 154.189 33.544 155.042 33.7696 155.862C34.0215 156.677 35.1366 157.56 35.1006 158.389C34.9175 159.033 34.5215 159.631 33.9495 160.128C33.4419 160.696 33.0253 161.307 32.7084 161.949C37.8526 164.041 44.2919 164.028 49.8678 163.158C56.0099 162.346 61.6386 160.053 65.912 156.623C65.6649 156.192 65.2966 155.808 64.8328 155.495C63.8752 155.005 62.8499 154.595 61.775 154.272C60.2462 153.607 61.775 151.555 61.775 150.509C61.6851 148.648 59.8864 147.873 57.8359 147.235C56.361 146.773 56.2891 146.093 56.2891 144.952C56.1592 144.051 56.4111 143.143 57.0086 142.357C57.4527 142.405 57.9049 142.332 58.2856 142.153C59.0519 141.804 59.8739 141.53 60.7318 141.338C61.1479 141.213 61.4872 140.975 61.6835 140.671C61.8797 140.367 61.9188 140.019 61.793 139.694C61.8033 139.51 61.7508 139.327 61.6406 139.163C61.5303 138.999 61.3661 138.859 61.1635 138.757V138.757Z" fill="#56403D"></path>
                    <path id="Vector_26" d="M55.7335 142.928C58.0044 142.548 60.2028 141.944 62.2744 141.129C62.2744 140.952 62.9426 134.478 48.1199 136.727C33.2973 138.975 40.3306 152.728 40.3306 152.728" fill="#56403D"></path>
                    <path id="Vector_27" d="M39.2288 283.048C37.6421 282.827 36.1596 282.289 34.9313 281.488C34.1678 280.398 33.8557 279.155 34.0367 277.925C34.0367 276.777 34.0367 275.63 34.0367 274.483C33.9537 274.433 33.8857 274.369 33.8373 274.298C33.7888 274.226 33.7612 274.147 33.7561 274.066C33.6728 273.13 33.6728 272.191 33.7561 271.255L27.5993 270.798C26.5355 273.75 25.6806 276.744 25.0383 279.767C25.2137 280.695 31.0548 286.8 34.0192 287.216C36.9836 287.633 45.2452 285.643 45.9293 284.769V284.689C43.7367 284.191 41.474 283.64 39.2288 283.048Z" fill="#FBB5AD"></path>
                    <path id="Vector_28" d="M81.7654 266.597C79.7316 266.29 71.3506 267.331 71.3506 267.331C71.3506 267.331 70.1759 262.128 70.3337 261.874L61.567 262.341C61.567 262.341 60.4624 272.013 60.4624 273.294C60.4624 275.642 64.2671 276.375 65.1087 276.282C65.7077 276.128 66.2934 275.945 66.8621 275.735C66.5449 274.527 66.3805 273.298 66.3711 272.066C66.3711 271.506 66.564 271.106 67.2654 270.906C68.9443 270.742 70.6502 270.86 72.2624 271.253C73.8228 271.479 75.3658 271.76 76.9262 271.973C80.4329 270.639 83.2733 269.305 83.5188 268.731C84.1675 267.371 84.8688 267.064 81.7654 266.597Z" fill="#FBB5AD"></path>
                    <path id="Vector_29" d="M84.7013 266.701L84.5252 266.461C83.8557 265.966 82.094 266.006 81.266 265.993C77.9208 266.009 74.5904 266.332 71.3476 266.955C71.3476 266.955 79.3105 266.127 79.61 267.209C79.7375 267.643 79.7306 268.093 79.59 268.525C79.4494 268.956 79.1788 269.357 78.7996 269.695C75.47 271.941 70.2905 269.468 67.049 268.359L61.0063 266.461L60.6187 270.177C60.4103 271.875 60.4103 273.584 60.6187 275.282C61.0239 275.804 64.6002 277.221 65.3401 276.94C66.08 276.659 68.4407 275.603 68.4407 275.603L67.9651 271.126C67.9651 271.126 72.9331 272.756 75.2762 272.302C77.0379 271.981 86.7625 268.8 84.7013 266.701Z" fill="#56403D"></path>
                    <path id="Vector_30" d="M30.736 280.106C30.736 280.106 33.9158 287.434 35.08 287.908C36.2442 288.381 48.4769 285.516 46.6524 283.802C45.4882 282.702 38.1034 282.715 37.4431 282.523C37.4431 282.523 41.3179 283.457 41.3179 283.917C41.3179 284.377 36.4353 286.04 36.1051 285.695C35.775 285.35 30.5274 278.942 30.5274 278.942L25.5231 277.663L21.405 284.403L24.8802 285.503C24.8802 285.503 25.9575 287.549 26.3051 287.549C27.5068 286.332 28.5814 285.049 29.5196 283.712C29.7507 284.641 30.1602 285.542 30.736 286.386C31.2399 286.654 35.3059 289.11 37.1477 287.23L33.6725 284.403" fill="#56403D"></path>
                    <path id="Vector_31" d="M21.405 284.525L21.9988 286.354L25.9466 287.96V284.525L23.6678 283.841" fill="#56403D"></path>
                    <path id="Vector_32" d="M56.5552 265.007C64.3663 266.128 72.636 265.101 78.5076 261.07C78.6486 251.22 79.8476 242.384 79.4597 232.494C78.8426 216.477 75.7569 200.674 60.8575 188.141L33.7388 184.991C22.7361 200.834 20.4968 273.322 20.4968 273.322C20.4968 273.322 34.1972 279.996 44.812 276.793L48.885 216.397C48.885 216.397 56.0615 222.83 57.3663 226.434C58.3184 229.023 56.4317 252.875 56.5552 265.007Z" fill="#F78B72"></path>
                    <path id="Vector_33" d="M72.2704 118.405C69.0433 119.317 66.5623 124.224 66.8421 125.269L69.3604 124.357L69.8081 123.999C70.267 122.064 71.0953 120.182 72.2704 118.405V118.405Z" fill="#FBB5AD"></path>
                    <g id="bo" data-svg-origin="107.14299774169922 83.50830078125" transform="matrix(1,0,0,1,-50,20)" style="transform-origin: 0px 0px;">
                      <path id="Vector_34" d="M163.93 95.5082L135.536 83.5083L107.143 95.5082V119.502L135.536 131.502L163.93 119.502V95.5082Z" fill="#FFD200"></path>
                      <path id="Vector_35" opacity="0.47" d="M118.744 100.478L124.24 102.89L152.328 90.5353L146.832 88.123L118.744 100.478Z" fill="white"></path>
                      <path id="Vector_36" opacity="0.09" d="M135.842 107.507V131.502L163.93 119.501V95.5066L135.842 107.507Z" fill="black"></path>
                      <path id="Vector_37" opacity="0.37" d="M124.24 103.053V110.274L118.744 107.804V100.583L124.24 103.053Z" fill="white"></path>
                      <path id="Vector_38" opacity="0.47" d="M152.939 100.092L147.443 102.429L119.355 90.4599L124.851 88.123L152.939 100.092Z" fill="white"></path>
                    </g>
                  </g>
                </g>
              </g>
            </g>
            <defs>
              <filter id="filter0_bd_101_284" x="162.015" y="109.978" width="122.824" height="134.778" filterUnits="userSpaceOnUse" color-interpolation-filters="sRGB">
                <feFlood flood-opacity="0" result="BackgroundImageFix"></feFlood>
                <feGaussianBlur in="BackgroundImage" stdDeviation="25"></feGaussianBlur>
                <feComposite in2="SourceAlpha" operator="in" result="effect1_backgroundBlur_101_284"></feComposite>
                <feColorMatrix in="SourceAlpha" type="matrix" values="0 0 0 0 0 0 0 0 0 0 0 0 0 0 0 0 0 0 127 0" result="hardAlpha"></feColorMatrix>
                <feOffset dy="4"></feOffset>
                <feGaussianBlur stdDeviation="2"></feGaussianBlur>
                <feComposite in2="hardAlpha" operator="out"></feComposite>
                <feColorMatrix type="matrix" values="0 0 0 0 0 0 0 0 0 0 0 0 0 0 0 0 0 0 0.25 0"></feColorMatrix>
                <feBlend mode="normal" in2="effect1_backgroundBlur_101_284" result="effect2_dropShadow_101_284"></feBlend>
                <feBlend mode="normal" in="SourceGraphic" in2="effect2_dropShadow_101_284" result="shape"></feBlend>
              </filter>
            </defs>
          </svg>